<svg fill="none" height="208" viewBox="0 0 412 208" width="412" xmlns="http://www.w3.org/2000/svg" xmlns:xlink="http://www.w3.org/1999/xlink"><clipPath id="a"><path d="m0 0h412v208h-412z"/></clipPath><g clip-path="url(#a)"><path d="m0 0h412v208h-412z" fill="#fff"/><rect fill="#f1f5fb" height="39" rx="3.5" width="111" x="150.5" y="72.5"/><path d="m167.004 97v-10.1818h1.845v8.6356h4.484v1.5462zm7.93 0v-10.1818h1.844v8.6356h4.485v1.5462zm7.93-10.1818h2.257l3.022 7.3778h.12l3.023-7.3778h2.257v10.1818h-1.77v-6.995h-.095l-2.814 6.9652h-1.322l-2.814-6.9801h-.094v7.0099h-1.77zm18.221 2.799c-.047-.4342-.242-.7723-.587-1.0142-.342-.242-.786-.3629-1.333-.3629-.384 0-.714.058-.989.174s-.485.2734-.631.4723c-.146.1988-.221.4259-.224.6811 0 .2121.048.396.144.5518.1.1558.234.2884.403.3977.169.1061.356.1956.562.2685.205.0729.412.1342.621.184l.955.2386c.384.0895.754.2105 1.108.3629.358.1525.678.3447.96.5767.285.232.51.5121.676.8402.166.3282.249.7126.249 1.1534 0 .5966-.153 1.122-.458 1.576-.305.4508-.746.8038-1.322 1.059-.574.2519-1.268.3778-2.083.3778-.792 0-1.48-.1226-2.064-.3679-.58-.2452-1.034-.6032-1.362-1.0738-.325-.4707-.5-1.0441-.527-1.7202h1.815c.026.3546.136.6496.328.8849.192.2354.442.411.751.527.311.116.659.174 1.044.174.401 0 .752-.0596 1.054-.179.305-.1226.543-.2916.716-.5071.172-.2187.26-.4739.263-.7656-.003-.2651-.081-.4839-.234-.6562-.152-.1757-.366-.3215-.641-.4375-.272-.1193-.59-.2254-.954-.3182l-1.159-.2983c-.838-.2154-1.501-.5419-1.988-.9794-.484-.4408-.726-1.0258-.726-1.755 0-.5999.162-1.1252.487-1.576.328-.4507.774-.8004 1.337-1.049.564-.2519 1.202-.3778 1.914-.3778.723 0 1.356.1259 1.899.3778.547.2486.977.595 1.288 1.0391.312.4408.472.9479.482 1.5213zm6.859 7.5319c-.766 0-1.427-.159-1.984-.4772-.553-.3215-.979-.7756-1.277-1.3622-.299-.59-.448-1.2844-.448-2.0831 0-.7855.149-1.4749.448-2.0682.301-.5966.722-1.0606 1.262-1.3921.541-.3347 1.175-.5021 1.905-.5021.47 0 .914.0762 1.332.2287.421.1491.792.3812 1.114.696.324.3149.58.7159.765 1.2031.186.4839.279 1.0607.279 1.7302v.5518h-6.26v-1.2131h4.535c-.004-.3447-.078-.6512-.224-.9197-.146-.2718-.35-.4856-.612-.6413-.258-.1558-.56-.2337-.905-.2337-.367 0-.691.0895-.969.2685-.278.1756-.495.4076-.651.696-.153.285-.231.5982-.234.9396v1.059c0 .4441.081.8252.244 1.1434.162.3149.389.5568.681.7259.291.1657.633.2486 1.024.2486.262 0 .499-.0365.711-.1094.212-.0762.396-.1873.552-.3331.155-.1458.273-.3265.353-.5419l1.68.1889c-.106.4441-.308.8319-.606 1.1634-.295.3281-.673.5833-1.134.7656-.461.179-.988.2684-1.581.2684zm4.918-.1491v-7.6364h1.745v1.2728h.08c.139-.4409.378-.7806.716-1.0192.341-.242.731-.3629 1.168-.3629.099 0 .21.0049.333.0149.126.0066.23.0182.313.0348v1.6555c-.076-.0265-.197-.0497-.363-.0696-.162-.0232-.319-.0348-.472-.0348-.328 0-.623.0713-.885.2138-.258.1392-.462.3331-.611.5817-.149.2485-.224.5352-.224.8601v4.4893zm12.604-7.6364-2.719 7.6364h-1.989l-2.719-7.6364h1.919l1.755 5.6726h.079l1.76-5.6726zm1.246 7.6364v-7.6364h1.8v7.6364zm.905-8.7202c-.285 0-.531-.0944-.736-.2834-.206-.1922-.308-.4225-.308-.691 0-.2718.102-.5021.308-.6911.205-.1922.451-.2883.736-.2883.288 0 .533.0961.735.2883.206.189.309.4193.309.6911 0 .2685-.103.4988-.309.691-.202.189-.447.2834-.735.2834zm6.076 8.8693c-.762 0-1.417-.1673-1.964-.5021-.543-.3347-.962-.7971-1.257-1.3871-.292-.5932-.438-1.276-.438-2.0483 0-.7755.149-1.4599.448-2.0532.298-.5966.719-1.0606 1.262-1.3921.547-.3347 1.194-.5021 1.939-.5021.62 0 1.169.1144 1.646.343.48.2254.863.5453 1.148.9596.285.4109.448.8915.487 1.4417h-1.72c-.069-.3679-.235-.6745-.497-.9197-.258-.2486-.605-.3729-1.039-.3729-.368 0-.691.0994-.969.2983-.279.1956-.496.4773-.652.8452-.152.3679-.228.8087-.228 1.3224 0 .5204.076.9678.228 1.3423.153.3713.367.658.642.8601.278.1989.605.2983.979.2983.265 0 .502-.0497.711-.1491.212-.1028.389-.2503.532-.4425s.24-.4259.293-.701h1.72c-.043.5403-.202 1.0192-.477 1.4368-.275.4143-.649.7391-1.123.9744-.474.232-1.031.348-1.671.348zm8.13 0c-.766 0-1.427-.159-1.984-.4772-.553-.3215-.979-.7756-1.277-1.3622-.299-.59-.448-1.2844-.448-2.0831 0-.7855.149-1.4749.448-2.0682.301-.5966.722-1.0606 1.262-1.3921.541-.3347 1.175-.5021 1.905-.5021.47 0 .914.0762 1.332.2287.421.1491.792.3812 1.114.696.324.3149.58.7159.765 1.2031.186.4839.279 1.0607.279 1.7302v.5518h-6.26v-1.2131h4.534c-.003-.3447-.077-.6512-.223-.9197-.146-.2718-.35-.4856-.612-.6413-.258-.1558-.56-.2337-.905-.2337-.368 0-.691.0895-.969.2685-.278.1756-.496.4076-.651.696-.153.285-.231.5982-.234.9396v1.059c0 .4441.081.8252.244 1.1434.162.3149.389.5568.681.7259.291.1657.633.2486 1.024.2486.262 0 .499-.0365.711-.1094.212-.0762.396-.1873.552-.3331.155-.1458.273-.3265.353-.5419l1.68.1889c-.106.4441-.308.8319-.607 1.1634-.295.3281-.672.5833-1.133.7656-.461.179-.988.2684-1.581.2684z" fill="#0d1219"/><rect height="39" rx="3.5" stroke="#bbc9dc" width="111" x="150.5" y="72.5"/><path d="m26.0007 162.254h-1.8594c-.053-.305-.1508-.575-.2933-.811-.1425-.238-.3198-.441-.5319-.606-.2122-.166-.4541-.29-.7259-.373-.2685-.086-.5585-.129-.87-.129-.5535 0-1.0441.139-1.4716.417-.4276.275-.7623.68-1.0043 1.213-.2419.531-.3629 1.178-.3629 1.944 0 .779.121 1.435.3629 1.969.2453.53.58.931 1.0043 1.203.4275.268.9164.403 1.4666.403.3049 0 .59-.04.8551-.12.2685-.083.5088-.203.7209-.363.2154-.159.3961-.354.5419-.586.1491-.232.2519-.497.3082-.796l1.8594.01c-.0696.484-.2204.938-.4524 1.362-.2287.425-.5287.799-.8999 1.124-.3712.322-.8054.573-1.3025.756-.4972.179-1.049.268-1.6556.268-.8948 0-1.6936-.207-2.3963-.621-.7026-.415-1.2561-1.013-1.6605-1.795-.4043-.782-.6065-1.72-.6065-2.814 0-1.097.2038-2.035.6115-2.814.4077-.782.9628-1.38 1.6655-1.795.7026-.414 1.4981-.621 2.3863-.621.5668 0 1.0938.08 1.581.239s.9214.392 1.3026.701c.3811.305.6943.679.9396 1.123.2486.441.411.945.4872 1.512zm3.4093 2.272v4.474h-1.7997v-10.182h1.7599v3.843h.0895c.179-.431.4557-.77.8303-1.019.3778-.252.8584-.378 1.4417-.378.5303 0 .9927.111 1.3871.333s.6993.547.9148.975c.2187.427.3281.949.3281 1.566v4.862h-1.7997v-4.584c0-.514-.1326-.913-.3978-1.198-.2618-.288-.6297-.432-1.1037-.432-.3181 0-.6032.069-.8551.208-.2485.136-.4441.333-.5866.592-.1392.258-.2088.572-.2088.94zm8.9836 4.628c-.4839 0-.9197-.086-1.3075-.258-.3845-.176-.6894-.435-.9148-.776-.222-.341-.3331-.762-.3331-1.263 0-.431.0796-.787.2387-1.069.1591-.281.3762-.507.6513-.676s.585-.296.9296-.383c.3481-.089.7077-.154 1.0789-.193.4474-.047.8104-.088 1.0888-.125.2784-.04.4805-.099.6065-.179.1293-.083.1939-.21.1939-.383v-.029c0-.375-.111-.665-.3331-.87-.2221-.206-.5419-.309-.9595-.309-.4408 0-.7905.096-1.049.289-.2552.192-.4276.419-.5171.681l-1.6804-.239c.1326-.464.3514-.852.6563-1.163.3049-.315.6778-.55 1.1186-.706.4408-.159.928-.239 1.4616-.239.3679 0 .7342.043 1.0988.129.3645.087.6976.229.9992.428.3017.196.5436.462.7259.8.1856.339.2784.761.2784 1.268v5.111h-1.7301v-1.049h-.0597c-.1093.212-.2635.411-.4623.597-.1956.182-.4425.329-.7408.442-.295.109-.6413.164-1.0391.164zm.4674-1.322c.3612 0 .6745-.072.9396-.214.2652-.146.469-.338.6115-.577.1458-.238.2188-.499.2188-.78v-.9c-.0564.046-.1525.089-.2884.129-.1326.04-.2817.075-.4474.104-.1658.03-.3298.057-.4922.08s-.3033.043-.4226.06c-.2685.036-.5088.096-.7209.179s-.3795.199-.5021.348c-.1227.145-.184.334-.184.566 0 .332.121.582.363.751.2419.169.5501.254.9247.254zm9.1875-6.468v1.392h-4.3899v-1.392zm-3.3061-1.83h1.7997v7.169c0 .242.0364.428.1094.557.0762.126.1756.212.2983.258.1226.047.2585.07.4076.07.1127 0 .2155-.008.3083-.025.0961-.016.169-.031.2187-.045l.3033 1.407c-.0961.034-.2337.07-.4127.11-.1756.04-.3911.063-.6463.069-.4507.014-.8567-.054-1.218-.203-.3613-.153-.648-.388-.8601-.706-.2088-.319-.3115-.716-.3082-1.194zm11.7118 2.536c-.0829-.269-.1972-.509-.343-.721-.1426-.216-.3149-.4-.5171-.552-.1989-.153-.4276-.267-.6861-.343-.2585-.08-.5402-.119-.8451-.119-.5469 0-1.0341.137-1.4617.412-.4275.275-.764.68-1.0092 1.213-.242.531-.363 1.177-.363 1.939 0 .769.121 1.42.363 1.954.2419.534.5783.94 1.0092 1.218.4309.275.9314.413 1.5014.413.5171 0 .9645-.1 1.3424-.299.3811-.198.6744-.48.8799-.845.2055-.368.3083-.799.3083-1.292l.4176.064h-2.7642v-1.442h4.1314v1.223c0 .872-.1856 1.626-.5568 2.263-.3713.636-.8817 1.126-1.5313 1.471-.6496.342-1.3954.512-2.2372.512-.938 0-1.7616-.21-2.4709-.631-.706-.424-1.2578-1.026-1.6555-1.805-.3944-.782-.5917-1.71-.5917-2.784 0-.822.116-1.556.3481-2.202.2353-.647.5634-1.195.9843-1.646.421-.454.9148-.799 1.4816-1.034.5667-.239 1.1832-.358 1.8494-.358.5634 0 1.0888.083 1.576.249.4872.162.9197.394 1.2976.696.3811.301.6943.659.9396 1.073.2453.415.406.872.4823 1.373zm3.7473 6.93v-10.182h3.8182c.7822 0 1.4385.146 1.9688.438.5336.291.9363.692 1.2081 1.203.2751.507.4126 1.084.4126 1.73 0 .653-.1375 1.233-.4126 1.74s-.6812.906-1.2181 1.198c-.5369.288-1.1981.433-1.9836.433h-2.5306v-1.517h2.282c.4574 0 .8319-.079 1.1236-.238.2916-.159.5071-.378.6463-.657.1425-.278.2137-.598.2137-.959s-.0712-.68-.2137-.955c-.1392-.275-.3563-.488-.6513-.641-.2917-.156-.6679-.234-1.1286-.234h-1.6903v8.641zm8.5623-8.636v-1.546h8.1236v1.546h-3.147v8.636h-1.8295v-8.636zm15.2231 1.253c-.0464-.434-.242-.772-.5867-1.014-.3414-.242-.7855-.363-1.3324-.363-.3844 0-.7142.058-.9893.174s-.4856.273-.6314.472-.2204.426-.2237.681c0 .213.048.397.1441.552.0995.156.2337.289.4027.398.1691.106.3563.196.5618.269.2055.072.4127.134.6215.183l.9545.239c.3845.09.7541.211 1.1087.363.3579.152.6778.345.9595.577.285.232.5104.512.6761.84.1658.328.2486.713.2486 1.153 0 .597-.1524 1.122-.4574 1.576-.3049.451-.7457.804-1.3224 1.059-.5734.252-1.2678.378-2.0831.378-.7921 0-1.4799-.123-2.0632-.368-.58-.245-1.0341-.603-1.3622-1.074-.3248-.47-.5005-1.044-.527-1.72h1.8146c.0265.355.1359.65.3281.885.1923.235.4425.411.7507.527.3116.116.6596.174 1.0441.174.401 0 .7524-.06 1.054-.179.3049-.122.5435-.292.7159-.507.1723-.219.2601-.474.2635-.766-.0034-.265-.0812-.483-.2337-.656-.1525-.175-.3662-.321-.6413-.437-.2718-.12-.59-.226-.9546-.319l-1.1584-.298c-.8385-.215-1.5014-.542-1.9886-.979-.4839-.441-.7259-1.026-.7259-1.755 0-.6.1625-1.125.4873-1.576.3281-.451.7739-.801 1.3373-1.049.5635-.252 1.2015-.378 1.9141-.378.7225 0 1.3556.126 1.8991.378.5469.248.9761.595 1.2877 1.039.3115.441.4723.948.4822 1.521zm6.8595 7.532c-.7656 0-1.4268-.159-1.9837-.477-.5535-.322-.9794-.776-1.2777-1.362-.2982-.59-.4474-1.285-.4474-2.083 0-.786.1492-1.475.4474-2.069.3017-.596.7226-1.06 1.2628-1.392.5403-.334 1.175-.502 1.9042-.502.4706 0 .9147.076 1.3323.229.421.149.7922.381 1.1137.696.3248.315.58.716.7656 1.203.1856.484.2784 1.061.2784 1.73v.552h-6.2592v-1.213h4.5341c-.0033-.345-.0779-.651-.2238-.92-.1458-.272-.3496-.485-.6115-.641-.2585-.156-.5601-.234-.9048-.234-.3679 0-.691.09-.9694.269-.2785.175-.4956.407-.6513.696-.1525.285-.2304.598-.2337.939v1.059c0 .444.0812.826.2436 1.144.1624.315.3895.557.6811.726.2917.165.6331.248 1.0242.248.2618 0 .4988-.036.7109-.109.2121-.076.3961-.187.5519-.333.1557-.146.2734-.327.3529-.542l1.6804.189c-.106.444-.3082.832-.6065 1.163-.295.328-.6728.583-1.1335.766-.4607.179-.9877.268-1.581.268zm4.9182-.149v-7.636h1.745v1.272h.0795c.1392-.44.3779-.78.7159-1.019.3414-.242.7309-.363 1.1684-.363.0994 0 .2104.005.3331.015.1259.007.2305.018.3135.035v1.656c-.077-.027-.1975-.05-.3633-.07-.1624-.023-.3198-.035-.4723-.035-.3281 0-.6231.071-.8849.214-.2585.139-.4624.333-.6115.582-.1492.248-.2237.535-.2237.86v4.489zm12.6044-7.636-2.72 7.636h-1.988l-2.72-7.636h1.919l1.755 5.672h.08l1.76-5.672zm1.245 7.636v-7.636h1.8v7.636zm.905-8.72c-.285 0-.53-.095-.736-.284-.205-.192-.308-.422-.308-.691 0-.271.103-.502.308-.691.206-.192.451-.288.736-.288.288 0 .534.096.736.288.205.189.308.42.308.691 0 .269-.103.499-.308.691-.202.189-.448.284-.736.284zm6.077 8.869c-.763 0-1.417-.167-1.964-.502-.544-.335-.963-.797-1.258-1.387-.292-.593-.438-1.276-.438-2.048 0-.776.15-1.46.448-2.054.298-.596.719-1.06 1.263-1.392.547-.334 1.193-.502 1.939-.502.619 0 1.168.115 1.645.343.481.226.864.545 1.149.96.285.411.447.891.487 1.442h-1.72c-.07-.368-.236-.675-.497-.92-.259-.249-.605-.373-1.04-.373-.367 0-.691.099-.969.298-.278.196-.496.477-.651.845-.153.368-.229.809-.229 1.323 0 .52.076.968.229 1.342.152.371.366.658.641.86.278.199.605.299.979.299.266 0 .503-.05.711-.15.212-.102.39-.25.532-.442.143-.192.241-.426.294-.701h1.72c-.043.54-.202 1.019-.477 1.437-.276.414-.65.739-1.124.974-.474.232-1.031.348-1.67.348zm8.129 0c-.765 0-1.427-.159-1.983-.477-.554-.322-.98-.776-1.278-1.362-.298-.59-.447-1.285-.447-2.083 0-.786.149-1.475.447-2.069.302-.596.722-1.06 1.263-1.392.54-.334 1.175-.502 1.904-.502.471 0 .915.076 1.332.229.421.149.792.381 1.114.696.325.315.58.716.766 1.203.185.484.278 1.061.278 1.73v.552h-6.259v-1.213h4.534c-.004-.345-.078-.651-.224-.92-.146-.272-.35-.485-.611-.641-.259-.156-.561-.234-.905-.234-.368 0-.691.09-.97.269-.278.175-.495.407-.651.696-.152.285-.23.598-.234.939v1.059c0 .444.082.826.244 1.144.162.315.389.557.681.726.292.165.633.248 1.024.248.262 0 .499-.036.711-.109.212-.076.396-.187.552-.333s.273-.327.353-.542l1.68.189c-.106.444-.308.832-.606 1.163-.295.328-.673.583-1.134.766-.46.179-.987.268-1.581.268z" fill="#0d1219"/><path d="m21.2093 185.364v.994h-3.9573v-.994zm-2.8039-1.83h1.1733v7.278c0 .332.048.581.1441.746.0995.163.2254.272.3779.328.1558.053.3198.08.4922.08.1292 0 .2353-.007.3181-.02.0829-.017.1492-.03.1989-.04l.2386 1.054c-.0795.03-.1905.06-.3331.09-.1425.033-.3231.049-.5419.049-.3314 0-.6562-.071-.9744-.213-.3149-.143-.5767-.36-.7855-.652-.2055-.291-.3082-.659-.3082-1.103zm7.6885 9.625c-.7358 0-1.3705-.162-1.9041-.487-.5303-.328-.9396-.786-1.228-1.372-.285-.59-.4275-1.276-.4275-2.059 0-.782.1425-1.471.4275-2.068.2884-.6.6894-1.067 1.2032-1.402.517-.338 1.1202-.507 1.8096-.507.3977 0 .7905.066 1.1783.199s.7407.348 1.0589.646c.3182.295.5718.686.7607 1.174.1889.487.2834 1.087.2834 1.799v.498h-5.8864v-1.015h4.6932c0-.431-.0862-.815-.2585-1.153-.1691-.338-.411-.605-.7259-.8-.3116-.196-.6794-.294-1.1037-.294-.4673 0-.8717.116-1.2131.348-.338.229-.5982.527-.7805.895s-.2734.762-.2734 1.183v.676c0 .577.0994 1.066.2983 1.467.2021.398.4822.701.8402.91.3579.205.7739.308 1.2478.308.3083 0 .5867-.043.8353-.129.2518-.09.4689-.222.6512-.398.1823-.179.3232-.401.4226-.666l1.1335.318c-.1193.385-.3198.723-.6015 1.014-.2817.289-.6298.514-1.0441.676-.4143.16-.8799.239-1.397.239zm5.6167-7.795 1.8295 3.122 1.8296-3.122h1.3522l-2.4659 3.818 2.4659 3.818h-1.3522l-1.8296-2.963-1.8295 2.963h-1.3523l2.4261-3.818-2.4261-3.818zm10.0066 0v.994h-3.9574v-.994zm-2.804-1.83h1.1733v7.278c0 .332.048.581.1441.746.0995.163.2254.272.3779.328.1558.053.3198.08.4922.08.1292 0 .2353-.007.3182-.02.0828-.017.1491-.03.1988-.04l.2387 1.054c-.0796.03-.1906.06-.3331.09-.1426.033-.3232.049-.5419.049-.3315 0-.6563-.071-.9745-.213-.3148-.143-.5767-.36-.7855-.652-.2055-.291-.3082-.659-.3082-1.103zm8.6704 4.554v1.094h-4.4545v-1.094zm4.948 5.071c-.6364 0-1.1981-.161-1.6854-.482-.4872-.325-.8683-.782-1.1434-1.372-.2751-.594-.4127-1.295-.4127-2.103 0-.802.1376-1.498.4127-2.088s.6579-1.046 1.1484-1.368c.4905-.321 1.0573-.482 1.7003-.482.4972 0 .8899.083 1.1783.249.2916.162.5137.348.6662.557.1557.205.2767.374.3629.507h.0994v-3.759h1.1733v10.182h-1.1335v-1.173h-.1392c-.0862.139-.2088.315-.3679.527-.1591.208-.3861.396-.6811.561-.295.163-.6878.244-1.1783.244zm.1591-1.054c.4706 0 .8684-.123 1.1932-.368.3248-.248.5717-.591.7407-1.029.1691-.441.2536-.949.2536-1.526 0-.57-.0829-1.069-.2486-1.497-.1657-.431-.411-.765-.7358-1.004-.3248-.242-.7258-.363-1.2031-.363-.4972 0-.9115.128-1.2429.383-.3281.252-.575.595-.7408 1.029-.1624.431-.2436.915-.2436 1.452 0 .543.0829 1.037.2486 1.481.169.441.4176.792.7457 1.054.3315.259.7425.388 1.233.388zm7.8999 1.074c-.4839 0-.9231-.091-1.3175-.273-.3944-.186-.7076-.453-.9396-.801-.2321-.351-.3481-.775-.3481-1.273 0-.437.0862-.792.2586-1.064.1723-.275.4027-.49.691-.646.2884-.156.6065-.272.9546-.348.3513-.079.7043-.142 1.0589-.189.464-.059.8402-.104 1.1286-.134.2916-.033.5037-.088.6363-.164.1359-.076.2039-.209.2039-.398v-.04c0-.49-.1343-.871-.4027-1.143-.2652-.272-.6679-.408-1.2081-.408-.5602 0-.9993.123-1.3175.368s-.5419.507-.6712.786l-1.1136-.398c.1989-.464.464-.825.7954-1.084.3348-.262.6994-.444 1.0938-.547.3977-.106.7888-.159 1.1733-.159.2453 0 .527.03.8452.09.3215.056.6314.174.9296.353.3017.179.5519.449.7508.81.1988.361.2983.845.2983 1.452v5.031h-1.1733v-1.034h-.0597c-.0795.166-.2121.343-.3977.532s-.4326.35-.7408.482c-.3082.133-.6844.199-1.1285.199zm.1789-1.054c.464 0 .8551-.091 1.1733-.273.3215-.183.5635-.418.7259-.706.1657-.289.2486-.592.2486-.91v-1.074c-.0498.06-.1591.114-.3282.164-.1657.046-.3579.088-.5767.124-.2154.033-.4259.063-.6314.09-.2021.023-.3662.043-.4922.059-.3049.04-.5899.105-.8551.194-.2618.086-.4739.217-.6363.393-.1591.172-.2387.408-.2387.706 0 .408.1508.716.4525.925.3049.205.691.308 1.1583.308zm11.4334-6.761-2.8238 7.636h-1.1932l-2.8239-7.636h1.2728l2.1079 6.085h.0796l2.1079-6.085zm1.5487 7.636v-7.636h1.1733v7.636zm.5966-8.909c-.2287 0-.4259-.078-.5916-.234-.1624-.156-.2436-.343-.2436-.562 0-.218.0812-.406.2436-.561.1657-.156.3629-.234.5916-.234s.4242.078.5866.234c.1658.155.2486.343.2486.561 0 .219-.0828.406-.2486.562-.1624.156-.3579.234-.5866.234zm3.899 4.315v4.594h-1.1733v-7.636h1.1335v1.193h.0994c.179-.388.4508-.7.8154-.935.3645-.238.8352-.358 1.4119-.358.517 0 .9695.106 1.3572.318.3878.209.6894.527.9049.955.2154.424.3231.961.3231 1.611v4.852h-1.1733v-4.773c0-.6-.1558-1.067-.4673-1.402-.3116-.338-.7391-.507-1.2827-.507-.3745 0-.7093.081-1.0042.244-.2917.162-.5221.399-.6911.711-.169.311-.2535.689-.2535 1.133zm10.1184 4.753c-.7159 0-1.3324-.169-1.8494-.507-.5171-.338-.9148-.804-1.1932-1.397s-.4176-1.271-.4176-2.033c0-.776.1425-1.46.4275-2.054.2884-.596.6894-1.062 1.2031-1.397.5171-.338 1.1203-.507 1.8097-.507.5369 0 1.0208.1 1.4517.298.4309.199.7839.478 1.059.836s.4457.775.512 1.253h-1.1733c-.0895-.348-.2883-.657-.5966-.925-.3049-.272-.7159-.408-1.2329-.408-.4574 0-.8584.119-1.2031.358-.3414.235-.6082.569-.8005.999-.1889.428-.2833.93-.2833 1.507 0 .59.0928 1.104.2784 1.541.1889.438.454.777.7954 1.019.3447.242.7491.363 1.2131.363.3049 0 .5817-.053.8302-.159.2486-.106.4591-.258.6314-.457.1724-.199.295-.438.3679-.716h1.1733c-.0663.45-.2303.856-.4922 1.218-.2585.358-.6015.643-1.0291.855-.4242.209-.9181.313-1.4815.313zm4.718-.159v-7.636h1.1733v7.636zm.5966-8.909c-.2287 0-.4259-.078-.5916-.234-.1624-.156-.2436-.343-.2436-.562 0-.218.0812-.406.2436-.561.1657-.156.3629-.234.5916-.234s.4243.078.5867.234c.1657.155.2485.343.2485.561 0 .219-.0828.406-.2485.562-.1624.156-.358.234-.5867.234zm7.1008 3.997v1.094h-4.4547v-1.094zm5.365 5.051c-.749 0-1.387-.204-1.914-.611-.527-.411-.929-1.006-1.208-1.785-.278-.782-.417-1.727-.417-2.834 0-1.1.139-2.04.417-2.819.282-.782.686-1.379 1.213-1.79.531-.414 1.167-.621 1.909-.621.743 0 1.378.207 1.905.621.53.411.934 1.008 1.213 1.79.281.779.422 1.719.422 2.819 0 1.107-.139 2.052-.417 2.834-.279.779-.681 1.374-1.208 1.785-.527.407-1.165.611-1.915.611zm0-1.094c.743 0 1.32-.358 1.731-1.073.411-.716.616-1.737.616-3.063 0-.882-.094-1.632-.283-2.252-.186-.62-.454-1.092-.806-1.417-.348-.325-.767-.487-1.258-.487-.735 0-1.31.363-1.725 1.089-.414.722-.621 1.745-.621 3.067 0 .882.093 1.631.278 2.247.186.617.453 1.086.801 1.407.351.322.774.482 1.267.482zm8.75 1.094c-.749 0-1.387-.204-1.914-.611-.527-.411-.929-1.006-1.208-1.785-.278-.782-.417-1.727-.417-2.834 0-1.1.139-2.04.417-2.819.282-.782.686-1.379 1.213-1.79.531-.414 1.167-.621 1.909-.621.743 0 1.378.207 1.905.621.53.411.934 1.008 1.213 1.79.281.779.422 1.719.422 2.819 0 1.107-.139 2.052-.417 2.834-.279.779-.681 1.374-1.208 1.785-.527.407-1.165.611-1.915.611zm0-1.094c.743 0 1.32-.358 1.731-1.073.411-.716.616-1.737.616-3.063 0-.882-.094-1.632-.283-2.252-.186-.62-.454-1.092-.806-1.417-.348-.325-.767-.487-1.258-.487-.735 0-1.31.363-1.725 1.089-.414.722-.621 1.745-.621 3.067 0 .882.093 1.631.278 2.247.186.617.453 1.086.801 1.407.351.322.774.482 1.267.482zm8.87 1.094c-.656 0-1.241-.112-1.755-.338-.511-.225-.917-.538-1.218-.939-.299-.405-.461-.874-.487-1.407h1.252c.027.328.14.611.338.85.199.235.46.417.781.547.322.129.678.193 1.069.193.437 0 .825-.076 1.163-.228.338-.153.603-.365.796-.637.192-.271.288-.586.288-.944 0-.375-.093-.705-.278-.99-.186-.288-.458-.513-.816-.676-.358-.162-.795-.243-1.312-.243h-.816v-1.094h.816c.404 0 .759-.073 1.064-.219.308-.146.548-.351.721-.616.175-.265.263-.577.263-.935 0-.345-.076-.645-.229-.9-.152-.255-.367-.454-.646-.596-.275-.143-.6-.214-.974-.214-.352 0-.683.064-.995.194-.308.126-.56.31-.755.552-.196.238-.302.527-.318.865h-1.194c.02-.534.181-1.001.483-1.402.301-.405.696-.72 1.183-.945.49-.225 1.029-.338 1.616-.338.629 0 1.17.128 1.62.383.451.252.797.585 1.039.999s.363.862.363 1.342c0 .574-.151 1.063-.452 1.467-.298.404-.704.684-1.218.84v.08c.643.106 1.145.379 1.506.82.362.438.542.979.542 1.626 0 .553-.151 1.05-.452 1.491-.299.438-.706.782-1.223 1.034s-1.106.378-1.765.378z" fill="#657892"/><rect height="63" rx="3.5" stroke="#bbc9dc" width="144" x=".5" y="144.5"/><path d="m182.951 162.254h-1.859c-.053-.305-.151-.575-.294-.811-.142-.238-.32-.441-.532-.606-.212-.166-.454-.29-.726-.373-.268-.086-.558-.129-.87-.129-.553 0-1.044.139-1.471.417-.428.275-.763.68-1.004 1.213-.242.531-.363 1.178-.363 1.944 0 .779.121 1.435.363 1.969.245.53.58.931 1.004 1.203.427.268.916.403 1.466.403.305 0 .59-.04.856-.12.268-.083.508-.203.72-.363.216-.159.396-.354.542-.586.149-.232.252-.497.309-.796l1.859.01c-.07.484-.221.938-.453 1.362-.228.425-.528.799-.899 1.124-.372.322-.806.573-1.303.756-.497.179-1.049.268-1.655.268-.895 0-1.694-.207-2.397-.621-.702-.415-1.256-1.013-1.66-1.795-.405-.782-.607-1.72-.607-2.814 0-1.097.204-2.035.612-2.814.407-.782.963-1.38 1.665-1.795.703-.414 1.498-.621 2.387-.621.566 0 1.093.08 1.581.239.487.159.921.392 1.302.701.381.305.694.679.94 1.123.248.441.411.945.487 1.512zm3.409 2.272v4.474h-1.8v-10.182h1.76v3.843h.09c.179-.431.456-.77.83-1.019.378-.252.859-.378 1.442-.378.53 0 .993.111 1.387.333s.699.547.915.975c.219.427.328.949.328 1.566v4.862h-1.8v-4.584c0-.514-.132-.913-.398-1.198-.261-.288-.629-.432-1.103-.432-.318 0-.603.069-.855.208-.249.136-.445.333-.587.592-.139.258-.209.572-.209.94zm8.984 4.628c-.484 0-.92-.086-1.308-.258-.384-.176-.689-.435-.914-.776-.223-.341-.334-.762-.334-1.263 0-.431.08-.787.239-1.069.159-.281.376-.507.651-.676s.585-.296.93-.383c.348-.089.708-.154 1.079-.193.447-.047.81-.088 1.089-.125.278-.04.48-.099.606-.179.129-.083.194-.21.194-.383v-.029c0-.375-.111-.665-.333-.87-.222-.206-.542-.309-.96-.309-.44 0-.79.096-1.049.289-.255.192-.427.419-.517.681l-1.68-.239c.133-.464.351-.852.656-1.163.305-.315.678-.55 1.119-.706.441-.159.928-.239 1.462-.239.367 0 .734.043 1.098.129.365.087.698.229 1 .428.301.196.543.462.725.8.186.339.279.761.279 1.268v5.111h-1.73v-1.049h-.06c-.109.212-.263.411-.462.597-.196.182-.443.329-.741.442-.295.109-.641.164-1.039.164zm.467-1.322c.361 0 .675-.072.94-.214.265-.146.469-.338.611-.577.146-.238.219-.499.219-.78v-.9c-.056.046-.152.089-.288.129-.133.04-.282.075-.448.104-.165.03-.33.057-.492.08s-.303.043-.423.06c-.268.036-.508.096-.72.179-.213.083-.38.199-.503.348-.122.145-.183.334-.183.566 0 .332.121.582.362.751.242.169.551.254.925.254zm9.188-6.468v1.392h-4.39v-1.392zm-3.306-1.83h1.799v7.169c0 .242.037.428.11.557.076.126.175.212.298.258.123.047.258.07.408.07.112 0 .215-.008.308-.025.096-.016.169-.031.219-.045l.303 1.407c-.096.034-.234.07-.413.11-.175.04-.391.063-.646.069-.451.014-.857-.054-1.218-.203-.361-.153-.648-.388-.86-.706-.209-.319-.312-.716-.308-1.194zm11.711 2.536c-.082-.269-.197-.509-.343-.721-.142-.216-.315-.4-.517-.552-.199-.153-.427-.267-.686-.343-.258-.08-.54-.119-.845-.119-.547 0-1.034.137-1.462.412-.427.275-.764.68-1.009 1.213-.242.531-.363 1.177-.363 1.939 0 .769.121 1.42.363 1.954s.579.94 1.009 1.218c.431.275.932.413 1.502.413.517 0 .964-.1 1.342-.299.381-.198.675-.48.88-.845.206-.368.308-.799.308-1.292l.418.064h-2.764v-1.442h4.131v1.223c0 .872-.185 1.626-.557 2.263-.371.636-.881 1.126-1.531 1.471-.65.342-1.395.512-2.237.512-.938 0-1.762-.21-2.471-.631-.706-.424-1.258-1.026-1.656-1.805-.394-.782-.591-1.71-.591-2.784 0-.822.116-1.556.348-2.202.235-.647.563-1.195.984-1.646.421-.454.915-.799 1.482-1.034.567-.239 1.183-.358 1.849-.358.564 0 1.089.083 1.576.249.487.162.92.394 1.298.696.381.301.694.659.939 1.073.246.415.406.872.483 1.373zm3.748 6.93v-10.182h3.818c.782 0 1.438.146 1.969.438.533.291.936.692 1.208 1.203.275.507.412 1.084.412 1.73 0 .653-.137 1.233-.412 1.74s-.681.906-1.218 1.198c-.537.288-1.198.433-1.984.433h-2.53v-1.517h2.281c.458 0 .832-.079 1.124-.238s.507-.378.646-.657c.143-.278.214-.598.214-.959s-.071-.68-.214-.955c-.139-.275-.356-.488-.651-.641-.292-.156-.668-.234-1.128-.234h-1.691v8.641zm8.562-8.636v-1.546h8.124v1.546h-3.147v8.636h-1.83v-8.636zm17.954 1.89h-1.86c-.053-.305-.15-.575-.293-.811-.143-.238-.32-.441-.532-.606-.212-.166-.454-.29-.726-.373-.268-.086-.558-.129-.87-.129-.553 0-1.044.139-1.471.417-.428.275-.763.68-1.005 1.213-.242.531-.363 1.178-.363 1.944 0 .779.121 1.435.363 1.969.246.53.58.931 1.005 1.203.427.268.916.403 1.466.403.305 0 .59-.04.855-.12.269-.083.509-.203.721-.363.216-.159.396-.354.542-.586.149-.232.252-.497.308-.796l1.86.01c-.07.484-.221.938-.453 1.362-.228.425-.528.799-.9 1.124-.371.322-.805.573-1.302.756-.497.179-1.049.268-1.656.268-.895 0-1.693-.207-2.396-.621-.703-.415-1.256-1.013-1.66-1.795-.405-.782-.607-1.72-.607-2.814 0-1.097.204-2.035.611-2.814.408-.782.963-1.38 1.666-1.795.703-.414 1.498-.621 2.386-.621.567 0 1.094.08 1.581.239.488.159.922.392 1.303.701.381.305.694.679.939 1.123.249.441.411.945.488 1.512zm3.409 2.272v4.474h-1.8v-10.182h1.76v3.843h.09c.179-.431.455-.77.83-1.019.378-.252.858-.378 1.442-.378.53 0 .992.111 1.387.333.394.222.699.547.915.975.218.427.328.949.328 1.566v4.862h-1.8v-4.584c0-.514-.133-.913-.398-1.198-.262-.288-.63-.432-1.103-.432-.319 0-.604.069-.856.208-.248.136-.444.333-.586.592-.139.258-.209.572-.209.94zm8.984 4.628c-.484 0-.92-.086-1.308-.258-.384-.176-.689-.435-.915-.776-.222-.341-.333-.762-.333-1.263 0-.431.08-.787.239-1.069.159-.281.376-.507.651-.676s.585-.296.93-.383c.348-.089.707-.154 1.079-.193.447-.047.81-.088 1.088-.125.279-.04.481-.099.607-.179.129-.083.194-.21.194-.383v-.029c0-.375-.111-.665-.333-.87-.222-.206-.542-.309-.96-.309-.441 0-.79.096-1.049.289-.255.192-.427.419-.517.681l-1.68-.239c.132-.464.351-.852.656-1.163.305-.315.678-.55 1.119-.706.44-.159.928-.239 1.461-.239.368 0 .734.043 1.099.129.365.087.698.229.999.428.302.196.544.462.726.8.186.339.279.761.279 1.268v5.111h-1.731v-1.049h-.059c-.11.212-.264.411-.463.597-.195.182-.442.329-.74.442-.295.109-.642.164-1.039.164zm.467-1.322c.361 0 .674-.072.94-.214.265-.146.469-.338.611-.577.146-.238.219-.499.219-.78v-.9c-.056.046-.153.089-.289.129-.132.04-.281.075-.447.104-.166.03-.33.057-.492.08-.163.023-.303.043-.423.06-.268.036-.508.096-.721.179-.212.083-.379.199-.502.348-.122.145-.184.334-.184.566 0 .332.121.582.363.751s.55.254.925.254zm9.187-6.468v1.392h-4.389v-1.392zm-3.306-1.83h1.8v7.169c0 .242.037.428.109.557.077.126.176.212.299.258.122.047.258.07.407.07.113 0 .216-.008.309-.025.096-.016.169-.031.218-.045l.304 1.407c-.096.034-.234.07-.413.11-.176.04-.391.063-.646.069-.451.014-.857-.054-1.218-.203-.362-.153-.648-.388-.86-.706-.209-.319-.312-.716-.309-1.194zm13.606 2.72h-1.859c-.053-.305-.151-.575-.293-.811-.143-.238-.32-.441-.532-.606-.212-.166-.454-.29-.726-.373-.269-.086-.559-.129-.87-.129-.554 0-1.044.139-1.472.417-.427.275-.762.68-1.004 1.213-.242.531-.363 1.178-.363 1.944 0 .779.121 1.435.363 1.969.245.53.58.931 1.004 1.203.428.268.917.403 1.467.403.305 0 .59-.04.855-.12.268-.083.509-.203.721-.363.215-.159.396-.354.542-.586.149-.232.252-.497.308-.796l1.859.01c-.069.484-.22.938-.452 1.362-.229.425-.529.799-.9 1.124-.371.322-.805.573-1.302.756-.498.179-1.049.268-1.656.268-.895 0-1.694-.207-2.396-.621-.703-.415-1.256-1.013-1.661-1.795-.404-.782-.606-1.72-.606-2.814 0-1.097.203-2.035.611-2.814.408-.782.963-1.38 1.666-1.795.702-.414 1.498-.621 2.386-.621.567 0 1.094.08 1.581.239s.921.392 1.303.701c.381.305.694.679.939 1.123.249.441.411.945.487 1.512zm4.941 6.895c-.746 0-1.392-.164-1.939-.492s-.971-.787-1.273-1.377c-.298-.59-.447-1.28-.447-2.068 0-.789.149-1.48.447-2.074.302-.593.726-1.053 1.273-1.382.547-.328 1.193-.492 1.939-.492s1.392.164 1.939.492c.547.329.969.789 1.268 1.382.301.594.452 1.285.452 2.074 0 .788-.151 1.478-.452 2.068-.299.59-.721 1.049-1.268 1.377s-1.193.492-1.939.492zm.01-1.442c.404 0 .742-.111 1.014-.333.272-.225.474-.527.607-.905.135-.377.203-.798.203-1.262 0-.468-.068-.89-.203-1.268-.133-.381-.335-.685-.607-.91s-.61-.338-1.014-.338c-.414 0-.759.113-1.034.338-.272.225-.476.529-.612.91-.132.378-.199.8-.199 1.268 0 .464.067.885.199 1.262.136.378.34.68.612.905.275.222.62.333 1.034.333zm5.176 1.293v-7.636h1.721v1.297h.089c.159-.437.423-.779.791-1.024.368-.249.807-.373 1.317-.373.517 0 .953.126 1.308.378.358.249.609.588.755 1.019h.08c.169-.424.454-.762.855-1.014.404-.255.883-.383 1.437-.383.702 0 1.276.222 1.72.666.444.445.666 1.092.666 1.944v5.126h-1.805v-4.847c0-.474-.126-.821-.377-1.039-.252-.222-.561-.333-.925-.333-.434 0-.774.135-1.019.407-.242.269-.363.618-.363 1.049v4.763h-1.765v-4.922c0-.394-.119-.709-.358-.944-.235-.236-.544-.353-.925-.353-.258 0-.494.066-.706.198-.212.13-.381.314-.507.552-.126.236-.189.511-.189.826v4.643zm12.565 2.864v-10.5h1.77v1.262h.104c.093-.185.224-.382.393-.591.169-.212.398-.393.686-.542.288-.153.656-.229 1.104-.229.59 0 1.122.151 1.596.453.477.298.855.74 1.133 1.327.282.583.423 1.299.423 2.148 0 .838-.138 1.551-.413 2.138-.275.586-.65 1.034-1.123 1.342-.474.308-1.011.462-1.611.462-.438 0-.801-.073-1.089-.219-.288-.145-.52-.321-.696-.527-.172-.208-.307-.406-.403-.591h-.074v4.067zm1.765-6.682c0 .494.069.926.209 1.297.142.372.346.662.611.87.269.206.593.309.975.309.397 0 .73-.106.999-.319.268-.215.471-.508.606-.879.14-.375.209-.801.209-1.278 0-.474-.068-.895-.204-1.263-.135-.368-.338-.656-.606-.865-.269-.209-.603-.313-1.004-.313-.385 0-.711.101-.98.303-.268.202-.472.486-.611.85-.136.365-.204.794-.204 1.288zm8.785-6.364v10.182h-1.8v-10.182zm5.231 10.331c-.766 0-1.427-.159-1.984-.477-.553-.322-.979-.776-1.277-1.362-.299-.59-.448-1.285-.448-2.083 0-.786.149-1.475.448-2.069.301-.596.722-1.06 1.262-1.392.541-.334 1.175-.502 1.905-.502.47 0 .914.076 1.332.229.421.149.792.381 1.114.696.324.315.58.716.765 1.203.186.484.279 1.061.279 1.73v.552h-6.26v-1.213h4.534c-.003-.345-.077-.651-.223-.92-.146-.272-.35-.485-.612-.641-.258-.156-.56-.234-.905-.234-.367 0-.691.09-.969.269-.278.175-.496.407-.651.696-.153.285-.231.598-.234.939v1.059c0 .444.081.826.244 1.144.162.315.389.557.681.726.291.165.633.248 1.024.248.262 0 .499-.036.711-.109.212-.076.396-.187.552-.333.155-.146.273-.327.353-.542l1.68.189c-.106.444-.308.832-.606 1.163-.295.328-.673.583-1.134.766-.461.179-.988.268-1.581.268zm8.731-7.785v1.392h-4.39v-1.392zm-3.306-1.83h1.8v7.169c0 .242.036.428.109.557.077.126.176.212.299.258.122.047.258.07.407.07.113 0 .216-.008.309-.025.096-.016.169-.031.218-.045l.304 1.407c-.097.034-.234.07-.413.11-.176.04-.391.063-.646.069-.451.014-.857-.054-1.218-.203-.362-.153-.648-.388-.86-.706-.209-.319-.312-.716-.309-1.194zm4.812 9.466v-7.636h1.799v7.636zm.904-8.72c-.285 0-.53-.095-.735-.284-.206-.192-.309-.422-.309-.691 0-.271.103-.502.309-.691.205-.192.45-.288.735-.288.289 0 .534.096.736.288.206.189.308.42.308.691 0 .269-.102.499-.308.691-.202.189-.447.284-.736.284zm6.077 8.869c-.746 0-1.392-.164-1.939-.492s-.971-.787-1.273-1.377c-.298-.59-.447-1.28-.447-2.068 0-.789.149-1.48.447-2.074.302-.593.726-1.053 1.273-1.382.547-.328 1.193-.492 1.939-.492s1.392.164 1.939.492c.547.329.969.789 1.268 1.382.301.594.452 1.285.452 2.074 0 .788-.151 1.478-.452 2.068-.299.59-.721 1.049-1.268 1.377s-1.193.492-1.939.492zm.01-1.442c.404 0 .742-.111 1.014-.333.272-.225.474-.527.607-.905.135-.377.203-.798.203-1.262 0-.468-.068-.89-.203-1.268-.133-.381-.335-.685-.607-.91s-.61-.338-1.014-.338c-.414 0-.759.113-1.034.338-.272.225-.476.529-.612.91-.132.378-.199.8-.199 1.268 0 .464.067.885.199 1.262.136.378.34.68.612.905.275.222.62.333 1.034.333zm6.976-3.181v4.474h-1.8v-7.636h1.721v1.297h.089c.176-.427.456-.767.84-1.019.388-.252.867-.378 1.437-.378.527 0 .986.113 1.377.338.395.226.7.552.915.98.219.427.327.946.323 1.556v4.862h-1.8v-4.584c0-.51-.132-.91-.397-1.198-.262-.288-.625-.432-1.089-.432-.315 0-.595.069-.84.208-.242.136-.433.333-.572.592-.136.258-.204.572-.204.94zm12.345-2.909c-.047-.434-.242-.772-.587-1.014-.341-.242-.785-.363-1.332-.363-.385 0-.715.058-.99.174s-.485.273-.631.472-.221.426-.224.681c0 .213.048.397.144.552.1.156.234.289.403.398.169.106.356.196.562.269.205.072.412.134.621.183l.955.239c.384.09.754.211 1.108.363.358.152.678.345.96.577.285.232.51.512.676.84s.249.713.249 1.153c0 .597-.153 1.122-.458 1.576-.305.451-.745.804-1.322 1.059-.573.252-1.268.378-2.083.378-.792 0-1.48-.123-2.063-.368-.58-.245-1.034-.603-1.363-1.074-.324-.47-.5-1.044-.527-1.72h1.815c.027.355.136.65.328.885s.443.411.751.527c.311.116.659.174 1.044.174.401 0 .752-.06 1.054-.179.305-.122.543-.292.716-.507.172-.219.26-.474.263-.766-.003-.265-.081-.483-.233-.656-.153-.175-.367-.321-.642-.437-.272-.12-.59-.226-.954-.319l-1.159-.298c-.838-.215-1.501-.542-1.988-.979-.484-.441-.726-1.026-.726-1.755 0-.6.162-1.125.487-1.576.328-.451.774-.801 1.337-1.049.564-.252 1.202-.378 1.914-.378.723 0 1.356.126 1.9.378.547.248.976.595 1.287 1.039.312.441.473.948.483 1.521zm6.859 7.532c-.765 0-1.427-.159-1.983-.477-.554-.322-.98-.776-1.278-1.362-.298-.59-.448-1.285-.448-2.083 0-.786.15-1.475.448-2.069.301-.596.722-1.06 1.263-1.392.54-.334 1.175-.502 1.904-.502.47 0 .915.076 1.332.229.421.149.792.381 1.114.696.325.315.58.716.765 1.203.186.484.279 1.061.279 1.73v.552h-6.259v-1.213h4.534c-.004-.345-.078-.651-.224-.92-.146-.272-.35-.485-.612-.641-.258-.156-.56-.234-.904-.234-.368 0-.691.09-.97.269-.278.175-.495.407-.651.696-.153.285-.23.598-.234.939v1.059c0 .444.081.826.244 1.144.162.315.389.557.681.726.292.165.633.248 1.024.248.262 0 .499-.036.711-.109.212-.076.396-.187.552-.333s.273-.327.353-.542l1.68.189c-.106.444-.308.832-.606 1.163-.295.328-.673.583-1.134.766-.461.179-.988.268-1.581.268zm4.918-.149v-7.636h1.745v1.272h.08c.139-.44.378-.78.716-1.019.341-.242.731-.363 1.168-.363.1 0 .211.005.333.015.126.007.231.018.313.035v1.656c-.076-.027-.197-.05-.362-.07-.163-.023-.32-.035-.473-.035-.328 0-.623.071-.885.214-.258.139-.462.333-.611.582-.149.248-.224.535-.224.86v4.489zm12.605-7.636-2.72 7.636h-1.989l-2.719-7.636h1.919l1.755 5.672h.08l1.76-5.672zm1.245 7.636v-7.636h1.8v7.636zm.905-8.72c-.285 0-.53-.095-.736-.284-.205-.192-.308-.422-.308-.691 0-.271.103-.502.308-.691.206-.192.451-.288.736-.288.288 0 .533.096.736.288.205.189.308.42.308.691 0 .269-.103.499-.308.691-.203.189-.448.284-.736.284zm6.076 8.869c-.762 0-1.417-.167-1.963-.502-.544-.335-.963-.797-1.258-1.387-.292-.593-.438-1.276-.438-2.048 0-.776.149-1.46.448-2.054.298-.596.719-1.06 1.262-1.392.547-.334 1.194-.502 1.939-.502.62 0 1.169.115 1.646.343.481.226.863.545 1.148.96.285.411.448.891.488 1.442h-1.721c-.069-.368-.235-.675-.497-.92-.258-.249-.605-.373-1.039-.373-.368 0-.691.099-.969.298-.279.196-.496.477-.651.845-.153.368-.229.809-.229 1.323 0 .52.076.968.229 1.342.152.371.366.658.641.86.278.199.605.299.979.299.265 0 .502-.05.711-.15.212-.102.39-.25.532-.442.143-.192.24-.426.293-.701h1.721c-.043.54-.203 1.019-.478 1.437-.275.414-.649.739-1.123.974-.474.232-1.031.348-1.671.348zm8.13 0c-.766 0-1.427-.159-1.984-.477-.553-.322-.979-.776-1.277-1.362-.299-.59-.448-1.285-.448-2.083 0-.786.149-1.475.448-2.069.301-.596.722-1.06 1.263-1.392.54-.334 1.174-.502 1.904-.502.47 0 .914.076 1.332.229.421.149.792.381 1.114.696.324.315.58.716.765 1.203.186.484.279 1.061.279 1.73v.552h-6.26v-1.213h4.535c-.004-.345-.078-.651-.224-.92-.146-.272-.35-.485-.612-.641-.258-.156-.56-.234-.904-.234-.368 0-.692.09-.97.269-.278.175-.495.407-.651.696-.153.285-.231.598-.234.939v1.059c0 .444.081.826.244 1.144.162.315.389.557.681.726.292.165.633.248 1.024.248.262 0 .499-.036.711-.109.212-.076.396-.187.552-.333s.273-.327.353-.542l1.68.189c-.106.444-.308.832-.606 1.163-.295.328-.673.583-1.134.766-.461.179-.988.268-1.581.268z" fill="#0d1219"/><path d="m209.236 196.023c-.566 0-1.054-.073-1.461-.219-.408-.143-.748-.331-1.019-.567-.269-.232-.483-.48-.642-.746l.935-.656c.106.139.24.299.403.477.162.183.384.34.666.473.285.136.658.204 1.118.204.617 0 1.126-.15 1.527-.448s.601-.765.601-1.402v-1.551h-.099c-.086.139-.209.312-.368.517-.156.202-.381.383-.676.542-.292.156-.686.234-1.184.234-.616 0-1.17-.146-1.66-.438-.487-.291-.873-.716-1.158-1.273-.282-.556-.423-1.233-.423-2.028 0-.782.138-1.463.413-2.043.275-.584.658-1.034 1.148-1.353.491-.321 1.057-.482 1.7-.482.498 0 .892.083 1.184.249.295.162.52.348.676.557.159.205.281.374.368.507h.119v-1.213h1.133v7.855c0 .656-.149 1.19-.447 1.601-.295.414-.693.717-1.193.909-.497.196-1.051.294-1.661.294zm-.039-4.196c.47 0 .868-.108 1.193-.323.325-.216.571-.526.741-.93.169-.404.253-.888.253-1.452 0-.55-.083-1.036-.249-1.457-.165-.42-.411-.75-.735-.989-.325-.239-.726-.358-1.203-.358-.498 0-.912.126-1.243.378-.328.252-.575.59-.741 1.014-.163.424-.244.895-.244 1.412 0 .53.083.999.249 1.407.169.404.417.723.746.955.331.228.742.343 1.233.343zm5.488 4.037v-10.5h1.134v1.213h.139c.086-.133.205-.302.358-.507.156-.209.378-.395.666-.557.292-.166.686-.249 1.183-.249.643 0 1.21.161 1.701.482.49.322.873.778 1.148 1.368s.413 1.286.413 2.088c0 .808-.138 1.509-.413 2.103-.275.59-.656 1.047-1.143 1.372-.488.321-1.049.482-1.686.482-.49 0-.883-.081-1.178-.244-.295-.165-.522-.353-.681-.561-.159-.212-.282-.388-.368-.527h-.1v4.037zm1.154-6.682c0 .577.084 1.085.253 1.526.169.438.416.781.741 1.029.325.245.722.368 1.193.368.491 0 .9-.129 1.228-.388.332-.262.58-.613.746-1.054.169-.444.253-.938.253-1.481 0-.537-.082-1.021-.248-1.452-.163-.434-.41-.777-.741-1.029-.328-.255-.741-.383-1.238-.383-.477 0-.878.121-1.203.363-.325.239-.57.573-.736 1.004-.166.428-.248.927-.248 1.497zm10.698-3.818v.994h-3.957v-.994zm-2.804-1.83h1.174v7.278c0 .332.048.581.144.746.099.163.225.272.378.328.156.053.32.08.492.08.129 0 .235-.007.318-.02.083-.017.149-.03.199-.04l.239 1.054c-.08.03-.191.06-.333.09-.143.033-.324.049-.542.049-.332 0-.657-.071-.975-.213-.315-.143-.576-.36-.785-.652-.206-.291-.309-.659-.309-1.103zm8.671 4.554v1.094h-4.455v-1.094zm5.321 5.051c-.656 0-1.241-.112-1.755-.338-.511-.225-.917-.538-1.218-.939-.299-.405-.461-.874-.487-1.407h1.252c.027.328.14.611.338.85.199.235.46.417.781.547.322.129.678.193 1.069.193.437 0 .825-.076 1.163-.228.338-.153.603-.365.796-.637.192-.271.288-.586.288-.944 0-.375-.093-.705-.278-.99-.186-.288-.458-.513-.816-.676-.358-.162-.795-.243-1.312-.243h-.816v-1.094h.816c.404 0 .759-.073 1.064-.219.308-.146.548-.351.721-.616.175-.265.263-.577.263-.935 0-.345-.076-.645-.229-.9-.152-.255-.367-.454-.646-.596-.275-.143-.6-.214-.974-.214-.352 0-.683.064-.995.194-.308.126-.56.31-.755.552-.196.238-.302.527-.319.865h-1.193c.02-.534.181-1.001.483-1.402.301-.405.696-.72 1.183-.945.49-.225 1.029-.338 1.616-.338.629 0 1.17.128 1.62.383.451.252.797.585 1.039.999s.363.862.363 1.342c0 .574-.151 1.063-.452 1.467-.298.404-.704.684-1.218.84v.08c.643.106 1.145.379 1.506.82.361.438.542.979.542 1.626 0 .553-.151 1.05-.452 1.491-.299.438-.706.782-1.223 1.034s-1.106.378-1.765.378zm6.034-.059c-.245 0-.456-.088-.631-.264-.176-.176-.264-.386-.264-.631 0-.246.088-.456.264-.632.175-.175.386-.263.631-.263s.456.088.631.263c.176.176.264.386.264.632 0 .162-.041.311-.124.447-.08.136-.188.245-.324.328-.132.08-.281.12-.447.12zm5.957.059c-.583 0-1.108-.116-1.576-.348-.467-.232-.842-.55-1.123-.954-.282-.405-.436-.865-.463-1.382h1.194c.046.46.255.841.626 1.143.374.298.822.447 1.342.447.418 0 .789-.097 1.114-.293.328-.195.585-.464.77-.805.189-.345.284-.734.284-1.169 0-.444-.098-.84-.293-1.188-.193-.351-.458-.628-.796-.83s-.724-.305-1.158-.308c-.312-.004-.632.044-.96.144-.328.096-.598.22-.81.373l-1.154-.139.617-5.012h5.29v1.094h-4.256l-.358 3.003h.06c.209-.166.47-.303.785-.413.315-.109.643-.164.985-.164.623 0 1.178.149 1.665.448.491.294.875.699 1.153 1.213.282.513.423 1.1.423 1.76 0 .649-.146 1.229-.437 1.74-.289.507-.687.908-1.194 1.203-.507.291-1.083.437-1.73.437zm9.731-5.051v1.094h-4.455v-1.094zm5.385-2.724v.994h-3.957v-.994zm-2.804-1.83h1.174v7.278c0 .332.048.581.144.746.099.163.225.272.378.328.155.053.32.08.492.08.129 0 .235-.007.318-.02.083-.017.149-.03.199-.04l.239 1.054c-.08.03-.191.06-.334.09-.142.033-.323.049-.541.049-.332 0-.657-.071-.975-.213-.315-.143-.577-.36-.785-.652-.206-.291-.309-.659-.309-1.103zm9.382 6.344v-4.514h1.173v7.636h-1.173v-1.293h-.08c-.179.388-.457.718-.835.99-.378.268-.855.402-1.432.402-.477 0-.901-.104-1.273-.313-.371-.212-.662-.53-.875-.954-.212-.428-.318-.966-.318-1.616v-4.852h1.174v4.772c0 .557.155 1.001.467 1.333.315.331.716.497 1.203.497.292 0 .588-.075.89-.224.305-.149.56-.378.766-.686.208-.308.313-.701.313-1.178zm3.322 3.122v-7.636h1.134v1.153h.079c.139-.378.391-.684.756-.92.364-.235.775-.353 1.233-.353.086 0 .194.002.323.005.129.004.227.009.293.015v1.193c-.04-.01-.131-.024-.273-.044-.139-.024-.287-.035-.443-.035-.371 0-.702.078-.994.234-.288.152-.517.364-.686.636-.166.268-.249.575-.249.92v4.832zm5.368 0v-10.182h1.173v3.759h.1c.086-.133.205-.302.358-.507.156-.209.378-.395.666-.557.292-.166.686-.249 1.183-.249.643 0 1.21.161 1.701.482.49.322.873.778 1.148 1.368s.413 1.286.413 2.088c0 .808-.138 1.509-.413 2.103-.275.59-.656 1.047-1.143 1.372-.488.321-1.049.482-1.686.482-.49 0-.883-.081-1.178-.244-.295-.165-.522-.353-.681-.561-.159-.212-.282-.388-.368-.527h-.139v1.173zm1.154-3.818c0 .577.084 1.085.253 1.526.169.438.416.781.741 1.029.325.245.722.368 1.193.368.491 0 .9-.129 1.228-.388.331-.262.58-.613.746-1.054.169-.444.253-.938.253-1.481 0-.537-.083-1.021-.248-1.452-.163-.434-.41-.777-.741-1.029-.328-.255-.741-.383-1.238-.383-.477 0-.878.121-1.203.363-.325.239-.57.573-.736 1.004-.166.428-.248.927-.248 1.497zm10.485 3.977c-.69 0-1.295-.164-1.815-.492-.517-.328-.921-.787-1.213-1.377-.288-.59-.433-1.28-.433-2.068 0-.796.145-1.49.433-2.084.292-.593.696-1.053 1.213-1.382.52-.328 1.125-.492 1.815-.492.689 0 1.292.164 1.809.492.521.329.925.789 1.213 1.382.292.594.438 1.288.438 2.084 0 .788-.146 1.478-.438 2.068-.288.59-.692 1.049-1.213 1.377-.517.328-1.12.492-1.809.492zm0-1.054c.523 0 .954-.134 1.292-.403.338-.268.589-.621.751-1.059.162-.437.244-.911.244-1.421 0-.511-.082-.986-.244-1.427s-.413-.797-.751-1.069-.769-.408-1.292-.408c-.524 0-.955.136-1.293.408s-.588.628-.751 1.069c-.162.441-.243.916-.243 1.427 0 .51.081.984.243 1.421.163.438.413.791.751 1.059.338.269.769.403 1.293.403zm9.626-4.017v1.094h-4.455v-1.094zm5.624-5.27v10.182h-1.233v-8.889h-.06l-2.485 1.65v-1.252l2.545-1.691zm6.309 10.321c-.418-.006-.835-.086-1.253-.238-.418-.153-.799-.41-1.143-.771-.345-.365-.622-.857-.831-1.477-.208-.623-.313-1.405-.313-2.346 0-.902.085-1.7.254-2.396.169-.7.414-1.288.736-1.765.321-.481.709-.846 1.163-1.094.457-.249.973-.373 1.546-.373.57 0 1.077.114 1.521.343.448.225.812.54 1.094.945.282.404.464.87.547 1.397h-1.213c-.113-.458-.332-.837-.656-1.139-.325-.301-.756-.452-1.293-.452-.789 0-1.41.343-1.864 1.029-.451.686-.678 1.649-.681 2.888h.079c.186-.281.406-.522.661-.721.259-.202.544-.357.855-.467.312-.109.642-.164.99-.164.583 0 1.117.146 1.601.438.484.288.871.687 1.163 1.198.292.507.438 1.088.438 1.745 0 .629-.141 1.206-.423 1.73-.282.52-.678.935-1.188 1.243-.507.305-1.104.454-1.79.447zm0-1.094c.418 0 .792-.104 1.124-.313.334-.209.598-.489.79-.84.196-.351.293-.742.293-1.173 0-.421-.094-.804-.283-1.149-.186-.348-.443-.624-.771-.83-.324-.205-.696-.308-1.113-.308-.315 0-.608.063-.88.189-.272.122-.511.291-.716.507-.202.215-.361.462-.477.741-.116.275-.174.565-.174.87 0 .404.094.782.283 1.133.192.351.454.635.785.85.335.216.715.323 1.139.323zm6.469-1.829-.02-1.452h.239l3.341-3.4h1.452l-3.56 3.599h-.1zm-1.094 2.784v-10.182h1.174v10.182zm4.853 0-2.983-3.778.835-.816 3.639 4.594zm6.495-4.912v1.094h-4.454v-1.094zm5.366 5.051c-.749 0-1.387-.204-1.914-.611-.527-.411-.93-1.006-1.208-1.785-.279-.782-.418-1.727-.418-2.834 0-1.1.139-2.04.418-2.819.281-.782.686-1.379 1.213-1.79.53-.414 1.166-.621 1.909-.621.742 0 1.377.207 1.904.621.53.411.934 1.008 1.213 1.79.282.779.422 1.719.422 2.819 0 1.107-.139 2.052-.417 2.834-.279.779-.681 1.374-1.208 1.785-.527.407-1.165.611-1.914.611zm0-1.094c.742 0 1.319-.358 1.73-1.073.411-.716.616-1.737.616-3.063 0-.882-.094-1.632-.283-2.252-.186-.62-.454-1.092-.805-1.417-.348-.325-.768-.487-1.258-.487-.736 0-1.311.363-1.725 1.089-.415.722-.622 1.745-.622 3.067 0 .882.093 1.631.279 2.247.185.617.452 1.086.8 1.407.351.322.774.482 1.268.482zm8.809 1.094c-.417-.006-.835-.086-1.252-.238-.418-.153-.799-.41-1.144-.771-.345-.365-.621-.857-.83-1.477-.209-.623-.313-1.405-.313-2.346 0-.902.084-1.7.253-2.396.169-.7.414-1.288.736-1.765.321-.481.709-.846 1.163-1.094.458-.249.973-.373 1.546-.373.571 0 1.078.114 1.522.343.447.225.812.54 1.094.945.281.404.464.87.546 1.397h-1.213c-.112-.458-.331-.837-.656-1.139-.325-.301-.756-.452-1.293-.452-.788 0-1.41.343-1.864 1.029-.451.686-.678 1.649-.681 2.888h.08c.185-.281.406-.522.661-.721.258-.202.543-.357.855-.467.311-.109.641-.164.989-.164.584 0 1.117.146 1.601.438.484.288.872.687 1.163 1.198.292.507.438 1.088.438 1.745 0 .629-.141 1.206-.423 1.73-.281.52-.677.935-1.188 1.243-.507.305-1.104.454-1.79.447zm0-1.094c.418 0 .793-.104 1.124-.313.335-.209.598-.489.79-.84.196-.351.294-.742.294-1.173 0-.421-.095-.804-.284-1.149-.185-.348-.442-.624-.77-.83-.325-.205-.696-.308-1.114-.308-.315 0-.608.063-.88.189-.272.122-.51.291-.716.507-.202.215-.361.462-.477.741-.116.275-.174.565-.174.87 0 .404.094.782.283 1.133.193.351.454.635.786.85.335.216.714.323 1.138.323zm8.936-9.227v10.182h-1.233v-8.889h-.06l-2.486 1.65v-1.252l2.546-1.691zm6.368 10.321c-.656 0-1.241-.112-1.755-.338-.51-.225-.916-.538-1.218-.939-.298-.405-.461-.874-.487-1.407h1.253c.026.328.139.611.338.85.199.235.459.417.78.547.322.129.678.193 1.069.193.438 0 .826-.076 1.164-.228.338-.153.603-.365.795-.637.192-.271.288-.586.288-.944 0-.375-.092-.705-.278-.99-.186-.288-.457-.513-.815-.676-.358-.162-.796-.243-1.313-.243h-.815v-1.094h.815c.405 0 .759-.073 1.064-.219.308-.146.549-.351.721-.616.176-.265.263-.577.263-.935 0-.345-.076-.645-.228-.9-.153-.255-.368-.454-.647-.596-.275-.143-.599-.214-.974-.214-.351 0-.683.064-.994.194-.308.126-.56.31-.756.552-.195.238-.302.527-.318.865h-1.193c.02-.534.18-1.001.482-1.402.302-.405.696-.72 1.183-.945.491-.225 1.029-.338 1.616-.338.63 0 1.17.128 1.621.383.45.252.797.585 1.039.999s.363.862.363 1.342c0 .574-.151 1.063-.453 1.467-.298.404-.704.684-1.218.84v.08c.643.106 1.145.379 1.507.82.361.438.542.979.542 1.626 0 .553-.151 1.05-.453 1.491-.298.438-.706.782-1.223 1.034s-1.105.378-1.765.378z" fill="#657892"/><rect height="63" rx="3.5" stroke="#bbc9dc" width="254" x="157.5" y="144.5"/><rect fill="#e7f1ff" height="39" rx="3.5" width="99" x="156.5" y=".5"/><path d="m173.004 25v-10.1818h6.523v1.5461h-4.678v2.7643h4.231v1.5461h-4.231v4.3253zm10.894.1491c-.745 0-1.392-.164-1.939-.4921-.547-.3282-.971-.7872-1.272-1.3772-.299-.5899-.448-1.2793-.448-2.0682 0-.7888.149-1.4798.448-2.0731.301-.5933.725-1.054 1.272-1.3821s1.194-.4922 1.939-.4922c.746 0 1.392.1641 1.939.4922s.97.7888 1.268 1.3821c.302.5933.452 1.2843.452 2.0731 0 .7889-.15 1.4783-.452 2.0682-.298.59-.721 1.049-1.268 1.3772-.547.3281-1.193.4921-1.939.4921zm.01-1.4417c.405 0 .743-.111 1.014-.3331.272-.2254.474-.527.607-.9048.136-.3779.204-.7988.204-1.2628 0-.4674-.068-.8899-.204-1.2678-.133-.3811-.335-.6844-.607-.9098-.271-.2254-.609-.338-1.014-.338-.414 0-.759.1126-1.034.338-.272.2254-.476.5287-.611.9098-.133.3779-.199.8004-.199 1.2678 0 .464.066.8849.199 1.2628.135.3778.339.6794.611.9048.275.2221.62.3331 1.034.3331zm5.177 1.2926v-7.6364h1.745v1.2728h.079c.14-.4409.378-.7806.716-1.0192.342-.242.731-.3629 1.169-.3629.099 0 .21.0049.333.0149.126.0066.23.0182.313.0348v1.6555c-.076-.0265-.197-.0497-.363-.0696-.162-.0232-.32-.0348-.472-.0348-.328 0-.623.0713-.885.2138-.259.1392-.463.3331-.612.5817-.149.2485-.223.5352-.223.8601v4.4893zm5.551 0v-7.6364h1.72v1.2976h.089c.159-.4375.423-.7789.791-1.0241.368-.2486.807-.3729 1.317-.3729.517 0 .953.126 1.308.3778.358.2486.61.5884.755 1.0192h.08c.169-.4242.454-.7623.855-1.0142.404-.2552.883-.3828 1.437-.3828.703 0 1.276.2221 1.72.6662s.666 1.0921.666 1.9439v5.1257h-1.804v-4.8473c0-.474-.126-.8203-.378-1.0391-.252-.222-.56-.3331-.925-.3331-.434 0-.774.1359-1.019.4077-.242.2685-.363.6181-.363 1.049v4.7628h-1.765v-4.9219c0-.3944-.119-.7093-.358-.9446-.235-.2353-.543-.353-.925-.353-.258 0-.493.0663-.706.1989-.212.1293-.381.3132-.507.5518-.126.2354-.189.5105-.189.8253v4.6435zm12.644 0v-10.1818h6.522v1.5461h-4.678v2.7643h4.231v1.5461h-4.231v4.3253zm8.123 0v-7.6364h1.8v7.6364zm.905-8.7202c-.285 0-.53-.0944-.736-.2834-.205-.1922-.308-.4225-.308-.691 0-.2718.103-.5021.308-.6911.206-.1922.451-.2883.736-.2883.288 0 .534.0961.736.2883.205.189.308.4193.308.6911 0 .2685-.103.4988-.308.691-.202.189-.448.2834-.736.2834zm4.545-1.4616v10.1818h-1.799v-10.1818zm3.651 0v10.1818h-1.8v-10.1818zm5.231 10.3309c-.766 0-1.427-.159-1.984-.4772-.553-.3215-.979-.7756-1.277-1.3622-.299-.59-.448-1.2844-.448-2.0831 0-.7855.149-1.4749.448-2.0682.301-.5966.722-1.0606 1.263-1.3921.54-.3347 1.174-.5021 1.904-.5021.47 0 .914.0762 1.332.2287.421.1491.792.3812 1.114.696.324.3149.58.7159.765 1.2031.186.4839.279 1.0607.279 1.7302v.5518h-6.26v-1.2131h4.535c-.004-.3447-.078-.6512-.224-.9197-.146-.2718-.35-.4856-.612-.6413-.258-.1558-.56-.2337-.905-.2337-.367 0-.691.0895-.969.2685-.278.1756-.495.4076-.651.696-.153.285-.231.5982-.234.9396v1.059c0 .4441.081.8252.244 1.1434.162.3149.389.5568.681.7259.291.1657.633.2486 1.024.2486.262 0 .499-.0365.711-.1094.212-.0762.396-.1873.552-.3331s.273-.3265.353-.5419l1.68.1889c-.106.4441-.308.8319-.606 1.1634-.295.3281-.673.5833-1.134.7656-.461.179-.988.2684-1.581.2684zm4.918-.1491v-7.6364h1.745v1.2728h.08c.139-.4409.378-.7806.716-1.0192.341-.242.731-.3629 1.168-.3629.099 0 .211.0049.333.0149.126.0066.23.0182.313.0348v1.6555c-.076-.0265-.197-.0497-.363-.0696-.162-.0232-.319-.0348-.472-.0348-.328 0-.623.0713-.885.2138-.258.1392-.462.3331-.611.5817-.149.2485-.224.5352-.224.8601v4.4893z" fill="#0042a6"/><rect height="39" rx="3.5" stroke="#95c6ff" width="99" x="156.5" y=".5"/><g stroke="#657892" stroke-width="2"><path d="m206 40v32"/><path d="m206 112v8c0 4.418-3.582 8-8 8h-8"/><path d="m285 144v-8c0-4.418-3.582-8-8-8h-8"/><path d="m73 144v-8c0-4.418 3.5817-8 8-8h110"/><path d="m206 112v8c0 4.418 3.582 8 8 8h56"/></g></g></svg>