<svg fill="none" height="528" viewBox="0 0 470 528" width="470" xmlns="http://www.w3.org/2000/svg" xmlns:xlink="http://www.w3.org/1999/xlink"><linearGradient id="a" gradientUnits="userSpaceOnUse" x1="118" x2="352" y1="342.31" y2="342.31"><stop offset="0" stop-color="#1a81fa"/><stop offset="1" stop-color="#8854fc"/></linearGradient><clipPath id="b"><path d="m0 0h470v528h-470z"/></clipPath><g clip-path="url(#b)"><path d="m0 0h470v528h-470z" fill="#fff"/><path d="m12.8608 22v-8.7273h5.6761v1.3253h-4.0951v2.3693h3.8011v1.3253h-3.8011v2.3821h4.1292v1.3253zm7.6491-8.7273h1.9346l2.5909 6.3239h.1023l2.5909-6.3239h1.9347v8.7273h-1.5171v-5.9957h-.0809l-2.412 5.9701h-1.1335l-2.4119-5.9829h-.081v6.0085h-1.517zm11.235 8.7273v-8.7273h3.2727c.6704 0 1.2329.125 1.6875.375.4574.25.8025.5938 1.0355 1.0313.2358.4346.3537.929.3537 1.4829 0 .5597-.1179 1.0568-.3537 1.4915s-.5838.777-1.044 1.027c-.4603.2472-1.027.3707-1.7003.3707h-2.1691v-1.2997h1.956c.3921 0 .7131-.0682.9631-.2045.25-.1364.4346-.3239.554-.5625.1221-.2387.1832-.5128.1832-.8225 0-.3096-.0611-.5824-.1832-.8181-.1194-.2358-.3054-.4191-.5583-.5498-.25-.1335-.5724-.2002-.9673-.2002h-1.4489v7.4062zm7.6991-7.402v-1.3253h6.9631v1.3253h-2.6975v7.402h-1.5682v-7.402zm8.0688-1.3253h1.7855l2.135 3.8608h.0852l2.1349-3.8608h1.7855l-3.1747 5.4716v3.2557h-1.5767v-3.2557zm12.7424 8.7273v-8.7273h5.5909v1.3253h-4.01v2.3693h3.6265v1.3253h-3.6265v3.7074zm15.1895-4.3636c0 .9403-.1761 1.7457-.5284 2.4162-.3494.6676-.8267 1.1789-1.4318 1.534-.6023.3552-1.2855.5327-2.0497.5327s-1.4489-.1775-2.054-.5327c-.6023-.3579-1.0795-.8707-1.4318-1.5383-.3495-.6705-.5242-1.4744-.5242-2.4119 0-.9404.1747-1.7444.5242-2.412.3523-.6704.8295-1.1832 1.4318-1.5383.6051-.3551 1.2898-.5327 2.054-.5327s1.4474.1776 2.0497.5327c.6051.3551 1.0824.8679 1.4318 1.5383.3523.6676.5284 1.4716.5284 2.412zm-1.5895 0c0-.662-.1037-1.2202-.3111-1.6748-.2045-.4573-.4886-.8025-.8522-1.0355-.3637-.2358-.7827-.3537-1.2571-.3537-.4745 0-.8935.1179-1.2571.3537-.3637.233-.6492.5782-.8566 1.0355-.2045.4546-.3068 1.0128-.3068 1.6748 0 .6619.1023 1.2216.3068 1.6789.2074.4546.4929.7998.8566 1.0356.3636.2329.7826.3494 1.2571.3494.4744 0 .8934-.1165 1.2571-.3494.3636-.2358.6477-.581.8522-1.0356.2074-.4573.3111-1.017.3111-1.6789zm3.4442 4.3636v-8.7273h3.2727c.6705 0 1.233.1165 1.6875.3495.4574.2329.8026.5596 1.0355.9801.2358.4176.3537.9048.3537 1.4616 0 .5597-.1193 1.0455-.3579 1.4574-.2358.4091-.5838.7259-1.0441.9503-.4602.2216-1.0255.3324-1.696.3324h-2.331v-1.3125h2.1179c.3921 0 .7131-.054.9631-.162.25-.1108.4347-.2713.554-.4815.1221-.2131.1832-.4744.1832-.7841 0-.3096-.0611-.5738-.1832-.7926-.1222-.2216-.3083-.3892-.5583-.5028-.25-.1165-.5724-.1747-.9673-.1747h-1.4488v7.4062zm4.5085-3.9545 2.1605 3.9545h-1.7642l-2.1221-3.9545zm3.6562-4.7728h1.9346l2.5909 6.3239h.1023l2.5909-6.3239h1.9347v8.7273h-1.5171v-5.9957h-.0809l-2.412 5.9701h-1.1335l-2.4119-5.9829h-.081v6.0085h-1.517z" fill="#657892"/><rect height="112" rx="7.5" stroke="#bbc9dc" width="469" x=".5" y=".5"/><path d="m21.3366 45.8182v10.1818h-1.4119l-5.1754-7.4673h-.0945v7.4673h-1.5362v-10.1818h1.4219l5.1804 7.4773h.0944v-7.4773zm4.344 10.3508c-.4839 0-.9214-.0895-1.3125-.2684-.3911-.1823-.701-.4458-.9297-.7905-.2254-.3447-.3381-.7673-.3381-1.2678 0-.4308.0829-.7855.2486-1.0639s.3894-.4988.6712-.6612c.2817-.1624.5966-.2851.9446-.3679.348-.0829.7026-.1458 1.0639-.1889.4574-.0531.8286-.0961 1.1136-.1293.2851-.0365.4922-.0945.6215-.174.1292-.0795.1939-.2088.1939-.3878v-.0348c0-.4342-.1227-.7706-.3679-1.0092-.242-.2387-.6033-.358-1.0838-.358-.5005 0-.8949.1111-1.1833.3331-.285.2188-.4822.4624-.5916.7308l-1.397-.3181c.1657-.464.4077-.8386.7258-1.1236.3215-.2884.6911-.4972 1.1087-.6264.4176-.1326.8568-.1989 1.3175-.1989.3049 0 .6281.0365.9694.1094.3447.0696.6662.1988.9645.3878.3016.1889.5486.459.7408.8103.1922.348.2883.8005.2883 1.3573v5.071h-1.4517v-1.044h-.0596c-.0961.1922-.2403.3811-.4326.5667-.1922.1856-.4391.3398-.7407.4624s-.6629.1839-1.0838.1839zm.3231-1.1931c.411 0 .7623-.0813 1.054-.2437.295-.1624.5187-.3745.6712-.6363.1557-.2652.2336-.5486.2336-.8502v-.9843c-.053.053-.1557.1027-.3082.1491-.1492.0431-.3198.0812-.5121.1144-.1922.0298-.3795.058-.5618.0845-.1823.0232-.3347.0431-.4574.0596-.2883.0365-.5518.0978-.7904.184-.2354.0862-.4243.2104-.5668.3729-.1392.159-.2088.3712-.2088.6363 0 .3679.1359.6463.4077.8352.2717.1856.6181.2785 1.039.2785zm5.4253 1.0241v-7.6364h1.4268v1.2429h.0945c.1591-.4209.4193-.749.7805-.9843.3613-.2387.7938-.358 1.2976-.358.5104 0 .938.1193 1.2827.358.348.2386.6049.5667.7706.9843h.0795c.1823-.4076.4723-.7324.87-.9744.3978-.2453.8717-.3679 1.4219-.3679.6927 0 1.2578.2171 1.6953.6513.4409.4342.6613 1.0888.6613 1.9638v5.1207h-1.4865v-4.9815c0-.5171-.1409-.8916-.4226-1.1236-.2818-.232-.6182-.348-1.0093-.348-.4839 0-.8601.1491-1.1285.4474-.2685.295-.4027.6745-.4027 1.1385v4.8672h-1.4815v-5.076c0-.4143-.1293-.7474-.3878-.9993-.2586-.2519-.595-.3778-1.0093-.3778-.2817 0-.5419.0745-.7805.2237-.2353.1458-.4259.3497-.5717.6115-.1426.2618-.2138.5651-.2138.9098v4.7081zm15.6642.1541c-.7524 0-1.4003-.1607-1.9439-.4822-.5402-.3248-.9578-.7806-1.2528-1.3672-.2917-.59-.4375-1.281-.4375-2.0732 0-.7822.1458-1.4716.4375-2.0681.295-.5966.706-1.0623 1.2329-1.3971.5303-.3347 1.1501-.5021 1.8594-.5021.4309 0 .8485.0713 1.2529.2138.4043.1425.7672.3662 1.0887.6711.3215.305.5751.701.7607 1.1883.1856.4839.2784 1.0722.2784 1.7649v.527h-6.0703v-1.1137h4.6136c0-.3911-.0795-.7374-.2386-1.039-.1591-.305-.3828-.5453-.6712-.7209-.285-.1757-.6198-.2635-1.0042-.2635-.4177 0-.7822.1027-1.0938.3082-.3082.2022-.5469.4674-.7159.7955-.1657.3248-.2486.6778-.2486 1.0589v.8701c0 .5104.0895.9446.2685 1.3025.1823.358.4358.6314.7606.8203.3248.1856.7043.2784 1.1385.2784.2818 0 .5386-.0397.7706-.1193.232-.0828.4326-.2055.6016-.3679s.2983-.3629.3878-.6015l1.4069.2535c-.1127.4143-.3148.7772-.6065 1.0888-.2884.3082-.6513.5485-1.0888.7209-.4342.169-.9297.2535-1.4865.2535z" fill="#1b2b41" fill-opacity=".69"/><path d="m12 69c0-2.2091 1.7909-4 4-4h92c2.209 0 4 1.7909 4 4v28c0 2.2091-1.791 4-4 4h-92c-2.2091 0-4-1.7909-4-4z" fill="#1a3860" fill-opacity=".1"/><path d="m129.979 56h-1.631l3.664-10.1818h1.775l3.664 10.1818h-1.631l-2.878-8.3324h-.08zm.273-3.9872h5.29v1.2926h-5.29zm11.286 4.1363c-.617 0-1.167-.1574-1.651-.4723-.481-.3181-.858-.7706-1.133-1.3572-.272-.59-.408-1.2976-.408-2.1229s.137-1.5312.413-2.1179c.278-.5866.659-1.0357 1.143-1.3473.484-.3115 1.032-.4673 1.646-.4673.474 0 .855.0796 1.143.2386.292.1558.517.3381.676.5469.163.2088.289.3928.378.5519h.09v-3.7834h1.486v10.1818h-1.452v-1.1882h-.124c-.089.1624-.219.348-.388.5568-.165.2088-.394.3911-.686.5469s-.669.2336-1.133.2336zm.328-1.2677c.427 0 .789-.1127 1.084-.3381.298-.2287.523-.5452.676-.9495.155-.4044.233-.8751.233-1.412 0-.5303-.076-.9943-.228-1.392-.153-.3978-.377-.7077-.671-.9297-.295-.2221-.66-.3331-1.094-.3331-.448 0-.821.116-1.119.348s-.524.5485-.676.9496c-.149.401-.224.8534-.224 1.3572 0 .5104.077.9695.229 1.3771.152.4077.378.7309.676.9695.302.2353.673.353 1.114.353zm8.435 1.2677c-.616 0-1.166-.1574-1.65-.4723-.481-.3181-.859-.7706-1.134-1.3572-.272-.59-.407-1.2976-.407-2.1229s.137-1.5312.412-2.1179c.279-.5866.66-1.0357 1.144-1.3473.484-.3115 1.032-.4673 1.645-.4673.474 0 .855.0796 1.144.2386.291.1558.517.3381.676.5469.162.2088.288.3928.378.5519h.089v-3.7834h1.487v10.1818h-1.452v-1.1882h-.124c-.09.1624-.219.348-.388.5568-.166.2088-.394.3911-.686.5469s-.67.2336-1.134.2336zm.328-1.2677c.428 0 .789-.1127 1.084-.3381.299-.2287.524-.5452.676-.9495.156-.4044.234-.8751.234-1.412 0-.5303-.076-.9943-.229-1.392-.152-.3978-.376-.7077-.671-.9297-.295-.2221-.659-.3331-1.094-.3331-.447 0-.82.116-1.118.348s-.524.5485-.676.9496c-.149.401-.224.8534-.224 1.3572 0 .5104.076.9695.229 1.3771.152.4077.378.7309.676.9695.301.2353.673.353 1.113.353zm5.577 1.1186v-7.6364h1.437v1.2131h.08c.139-.411.384-.7341.735-.9695.355-.2386.756-.3579 1.204-.3579.092 0 .202.0033.328.0099.129.0067.23.0149.303.0249v1.4219c-.06-.0166-.166-.0348-.318-.0547-.153-.0232-.305-.0348-.458-.0348-.351 0-.664.0746-.939.2237-.272.1458-.487.3497-.647.6115-.159.2585-.238.5535-.238.8849v4.6634zm8.391.1541c-.752 0-1.4-.1607-1.944-.4822-.54-.3248-.958-.7806-1.253-1.3672-.291-.59-.437-1.281-.437-2.0732 0-.7822.146-1.4716.437-2.0681.295-.5966.706-1.0623 1.233-1.3971.531-.3347 1.15-.5021 1.86-.5021.431 0 .848.0713 1.253.2138.404.1425.767.3662 1.088.6711.322.305.575.701.761 1.1883.186.4839.278 1.0722.278 1.7649v.527h-6.07v-1.1137h4.614c0-.3911-.08-.7374-.239-1.039-.159-.305-.383-.5453-.671-.7209-.285-.1757-.62-.2635-1.004-.2635-.418 0-.783.1027-1.094.3082-.308.2022-.547.4674-.716.7955-.166.3248-.249.6778-.249 1.0589v.8701c0 .5104.09.9446.269 1.3025.182.358.436.6314.761.8203.324.1856.704.2784 1.138.2784.282 0 .539-.0397.771-.1193.232-.0828.432-.2055.601-.3679s.298-.3629.388-.6015l1.407.2535c-.113.4143-.315.7772-.607 1.0888-.288.3082-.651.5485-1.088.7209-.435.169-.93.2535-1.487.2535zm10.648-5.9261-1.347.2386c-.057-.1723-.146-.3364-.269-.4922-.119-.1557-.281-.2833-.487-.3828-.205-.0994-.462-.1491-.771-.1491-.42 0-.772.0944-1.054.2834-.281.1856-.422.4259-.422.7208 0 .2552.094.4607.283.6165s.494.2834.915.3828l1.213.2784c.703.1624 1.226.4127 1.571.7507.345.3381.517.7773.517 1.3175 0 .4574-.132.8651-.398 1.223-.261.3547-.628.6331-1.098.8353-.468.2021-1.01.3032-1.626.3032-.855 0-1.553-.1823-2.093-.5469-.54-.3679-.872-.8899-.994-1.566l1.436-.2188c.09.3746.274.658.552.8502.279.1889.642.2834 1.089.2834.487 0 .877-.1011 1.168-.3033.292-.2055.438-.4557.438-.7507 0-.2386-.09-.4392-.269-.6016-.175-.1624-.445-.285-.81-.3679l-1.293-.2834c-.712-.1624-1.239-.4209-1.581-.7755-.338-.3547-.507-.8038-.507-1.3473 0-.4508.126-.8452.378-1.1833.252-.338.6-.6015 1.044-.7904.444-.1923.953-.2884 1.527-.2884.825 0 1.474.179 1.948.5369.474.3547.788.8303.94 1.4269zm7.506 0-1.347.2386c-.057-.1723-.146-.3364-.269-.4922-.119-.1557-.282-.2833-.487-.3828-.206-.0994-.462-.1491-.771-.1491-.421 0-.772.0944-1.054.2834-.281.1856-.422.4259-.422.7208 0 .2552.094.4607.283.6165s.494.2834.915.3828l1.213.2784c.703.1624 1.226.4127 1.571.7507.345.3381.517.7773.517 1.3175 0 .4574-.133.8651-.398 1.223-.262.3547-.628.6331-1.098.8353-.468.2021-1.01.3032-1.626.3032-.855 0-1.553-.1823-2.093-.5469-.54-.3679-.872-.8899-.994-1.566l1.436-.2188c.09.3746.274.658.552.8502.279.1889.641.2834 1.089.2834.487 0 .877-.1011 1.168-.3033.292-.2055.438-.4557.438-.7507 0-.2386-.09-.4392-.269-.6016-.175-.1624-.445-.285-.81-.3679l-1.293-.2834c-.712-.1624-1.239-.4209-1.581-.7755-.338-.3547-.507-.8038-.507-1.3473 0-.4508.126-.8452.378-1.1833.252-.338.6-.6015 1.044-.7904.444-.1923.953-.2884 1.526-.2884.826 0 1.475.179 1.949.5369.474.3547.787.8303.94 1.4269z" fill="#1b2b41" fill-opacity=".69"/><path d="m128 69c0-2.2091 1.791-4 4-4h322c2.209 0 4 1.7909 4 4v28c0 2.2091-1.791 4-4 4h-322c-2.209 0-4-1.7909-4-4z" fill="#1a3860" fill-opacity=".1"/><path d="m12.8608 437v-8.727h5.5909v1.325h-4.0099v2.369h3.6264v1.326h-3.6264v3.707zm8.9722-8.727v8.727h-1.581v-8.727zm2.072 8.727v-8.727h1.581v7.402h3.8437v1.325zm7.1569 0v-8.727h1.581v7.402h3.8437v1.325zm7.1569 0v-8.727h5.6761v1.325h-4.0952v2.369h3.8012v1.326h-3.8012v2.382h4.1293v1.325zm10.6064 0h-2.9574v-8.727h3.0171c.8664 0 1.6108.174 2.2329.524.625.346 1.1051.845 1.4404 1.496.3352.65.5028 1.429.5028 2.335 0 .909-.169 1.69-.5071 2.344-.3352.653-.8196 1.154-1.4531 1.504-.6307.349-1.3892.524-2.2756.524zm-1.3764-1.368h1.2997c.608 0 1.1151-.111 1.5213-.332.4063-.225.7117-.559.9162-1.002.2046-.446.3068-1.003.3068-1.67 0-.668-.1022-1.222-.3068-1.662-.2045-.443-.5071-.774-.9077-.993-.3977-.222-.892-.332-1.4829-.332h-1.3466zm10.8109 1.368v-8.727h5.5909v1.325h-4.0099v2.369h3.6264v1.326h-3.6264v3.707zm15.1895-4.364c0 .941-.1761 1.746-.5284 2.417-.3494.667-.8267 1.179-1.4318 1.534-.6023.355-1.2855.532-2.0497.532s-1.4489-.177-2.054-.532c-.6022-.358-1.0795-.871-1.4318-1.539-.3494-.67-.5241-1.474-.5241-2.412 0-.94.1747-1.744.5241-2.412.3523-.67.8296-1.183 1.4318-1.538.6051-.355 1.2898-.533 2.054-.533s1.4474.178 2.0497.533c.6051.355 1.0824.868 1.4318 1.538.3523.668.5284 1.472.5284 2.412zm-1.5894 0c0-.662-.1037-1.22-.3111-1.674-.2046-.458-.4887-.803-.8523-1.036-.3636-.236-.7827-.354-1.2571-.354s-.8935.118-1.2571.354c-.3636.233-.6491.578-.8565 1.036-.2046.454-.3068 1.012-.3068 1.674s.1022 1.222.3068 1.679c.2074.455.4929.8.8565 1.036.3636.233.7827.349 1.2571.349s.8935-.116 1.2571-.349c.3636-.236.6477-.581.8523-1.036.2074-.457.3111-1.017.3111-1.679zm3.4441 4.364v-8.727h3.2727c.6705 0 1.233.116 1.6875.349.4574.233.8026.56 1.0356.98.2358.418.3537.905.3537 1.462 0 .56-.1194 1.045-.358 1.457-.2358.409-.5838.726-1.044.951-.4603.221-1.0256.332-1.6961.332h-2.3309v-1.313h2.1179c.392 0 .713-.054.963-.161.25-.111.4347-.272.554-.482.1222-.213.1833-.474.1833-.784s-.0611-.574-.1833-.793c-.1221-.221-.3082-.389-.5582-.503-.25-.116-.5725-.174-.9673-.174h-1.4489v7.406zm4.5085-3.955 2.1606 3.955h-1.7642l-2.1222-3.955zm3.6562-4.772h1.9347l2.5909 6.324h.1022l2.591-6.324h1.9346v8.727h-1.517v-5.996h-.081l-2.4119 5.97h-1.1336l-2.4119-5.983h-.0809v6.009h-1.5171z" fill="#0368de"/><rect height="111" rx="7" stroke="#1a81fa" stroke-width="2" width="468" x="1" y="416"/><path d="m21.3366 460.818v10.182h-1.4119l-5.1754-7.467h-.0945v7.467h-1.5362v-10.182h1.4219l5.1804 7.477h.0944v-7.477zm4.344 10.351c-.4839 0-.9214-.089-1.3125-.268-.3911-.183-.701-.446-.9297-.791-.2254-.345-.3381-.767-.3381-1.268 0-.431.0829-.785.2486-1.064.1657-.278.3894-.498.6712-.661.2817-.162.5966-.285.9446-.368s.7026-.146 1.0639-.189c.4574-.053.8286-.096 1.1136-.129.2851-.036.4922-.094.6215-.174.1292-.079.1939-.209.1939-.388v-.034c0-.435-.1227-.771-.3679-1.01-.242-.238-.6033-.358-1.0838-.358-.5005 0-.8949.111-1.1833.333-.285.219-.4822.463-.5916.731l-1.397-.318c.1657-.464.4077-.838.7258-1.124.3215-.288.6911-.497 1.1087-.626.4176-.133.8568-.199 1.3175-.199.3049 0 .6281.037.9694.11.3447.069.6662.198.9645.387.3016.189.5486.459.7408.811.1922.348.2883.8.2883 1.357v5.071h-1.4517v-1.044h-.0596c-.0961.192-.2403.381-.4326.567-.1922.185-.4391.339-.7407.462s-.6629.184-1.0838.184zm.3231-1.193c.411 0 .7623-.081 1.054-.244.295-.162.5187-.374.6712-.636.1557-.265.2336-.549.2336-.85v-.985c-.053.053-.1557.103-.3082.15-.1492.043-.3198.081-.5121.114-.1922.03-.3795.058-.5618.084-.1823.024-.3347.043-.4574.06-.2883.036-.5518.098-.7904.184-.2354.086-.4243.21-.5668.373-.1392.159-.2088.371-.2088.636 0 .368.1359.647.4077.835.2717.186.6181.279 1.039.279zm5.4253 1.024v-7.636h1.4268v1.243h.0945c.1591-.421.4193-.75.7805-.985.3613-.238.7938-.358 1.2976-.358.5104 0 .938.12 1.2827.358.348.239.6049.567.7706.985h.0795c.1823-.408.4723-.733.87-.975.3978-.245.8717-.368 1.4219-.368.6927 0 1.2578.217 1.6953.651.4409.435.6613 1.089.6613 1.964v5.121h-1.4865v-4.982c0-.517-.1409-.891-.4226-1.123-.2818-.232-.6182-.348-1.0093-.348-.4839 0-.8601.149-1.1285.447-.2685.295-.4027.675-.4027 1.139v4.867h-1.4815v-5.076c0-.414-.1293-.747-.3878-.999-.2586-.252-.595-.378-1.0093-.378-.2817 0-.5419.074-.7805.224-.2353.145-.4259.349-.5717.611-.1426.262-.2138.565-.2138.91v4.708zm15.6642.154c-.7524 0-1.4003-.161-1.9439-.482-.5402-.325-.9578-.781-1.2528-1.367-.2917-.59-.4375-1.281-.4375-2.073 0-.783.1458-1.472.4375-2.069.295-.596.706-1.062 1.2329-1.397.5303-.334 1.1501-.502 1.8594-.502.4309 0 .8485.071 1.2529.214.4043.143.7672.366 1.0887.671s.5751.701.7607 1.188c.1856.484.2784 1.073.2784 1.765v.527h-6.0703v-1.113h4.6136c0-.391-.0795-.738-.2386-1.039-.1591-.305-.3828-.546-.6712-.721-.285-.176-.6198-.264-1.0042-.264-.4177 0-.7822.103-1.0938.308-.3082.203-.5469.468-.7159.796-.1657.325-.2486.678-.2486 1.059v.87c0 .51.0895.944.2685 1.302.1823.358.4358.632.7606.821.3248.185.7043.278 1.1385.278.2818 0 .5386-.04.7706-.119.232-.083.4326-.206.6016-.368s.2983-.363.3878-.602l1.4069.254c-.1127.414-.3148.777-.6065 1.089-.2884.308-.6513.548-1.0888.721-.4342.169-.9297.253-1.4865.253z" fill="#1b2b41" fill-opacity=".69"/><path d="m12 484c0-2.209 1.7909-4 4-4h92c2.209 0 4 1.791 4 4v28c0 2.209-1.791 4-4 4h-92c-2.2091 0-4-1.791-4-4z" fill="#1a3860" fill-opacity=".1"/><path d="m23.2784 504v-11.636h4.2614c.8257 0 1.5094.136 2.0511.409.5417.269.947.634 1.2159 1.096.269.459.4034.976.4034 1.551 0 .485-.089.894-.267 1.228-.178.329-.4167.594-.7159.795-.2955.197-.6212.341-.9773.432v.114c.3864.019.7633.144 1.1307.375.3712.227.678.551.9204.971.2425.421.3637.932.3637 1.534 0 .595-.1402 1.129-.4205 1.603-.2765.469-.7045.842-1.2841 1.119-.5795.273-1.32.409-2.2216.409zm1.7557-1.506h2.5341c.8409 0 1.4432-.163 1.8068-.488.3636-.326.5455-.733.5455-1.222 0-.367-.0928-.704-.2785-1.011-.1856-.307-.4507-.551-.7954-.733-.3409-.182-.7462-.273-1.2159-.273h-2.5966zm0-5.096h2.3523c.3939 0 .7481-.076 1.0625-.228.3181-.151.57-.363.7556-.636.1894-.276.2841-.602.2841-.977 0-.481-.1685-.885-.5056-1.21-.3372-.326-.8542-.489-1.5512-.489h-2.3977zm11.1165 6.795c-.5531 0-1.0531-.102-1.5-.307-.447-.208-.8012-.509-1.0625-.903-.2576-.394-.3864-.877-.3864-1.449 0-.492.0947-.898.2841-1.216s.4451-.57.767-.756c.322-.185.6819-.325 1.0796-.42s.803-.167 1.2159-.216c.5227-.06.947-.11 1.2727-.148.3258-.041.5625-.108.7102-.198.1478-.091.2216-.239.2216-.444v-.039c0-.497-.1401-.881-.4204-1.154-.2765-.273-.6894-.409-1.2386-.409-.572 0-1.0228.127-1.3523.381-.3258.25-.5512.528-.6762.835l-1.5965-.364c.1893-.53.4659-.958.8295-1.284.3674-.329.7898-.568 1.267-.716.4773-.151.9792-.227 1.5057-.227.3485 0 .7178.042 1.108.125.3939.08.7613.227 1.1022.443.3447.216.6269.525.8466.926.2197.398.3296.915.3296 1.552v5.795h-1.6591v-1.193h-.0682c-.1098.22-.2746.435-.4943.648-.2197.212-.5019.388-.8466.528s-.7576.21-1.2386.21zm.3693-1.363c.4697 0 .8712-.093 1.2045-.279.3372-.185.5928-.428.7671-.727.178-.303.267-.627.267-.972v-1.125c-.0606.061-.178.118-.3523.171-.1704.049-.3655.093-.5852.13-.2197.034-.4337.067-.642.097-.2084.027-.3826.049-.5228.068-.3295.042-.6306.112-.9034.21-.2689.099-.4848.241-.6477.427-.1591.181-.2386.424-.2386.727 0 .42.1553.738.4659.954.3106.212.7064.319 1.1875.319zm6.2003 1.17v-8.727h1.642v1.386h.0909c.1591-.47.4394-.839.8409-1.108.4053-.273.8637-.409 1.375-.409.1061 0 .2311.004.375.011.1478.008.2633.017.3466.029v1.625c-.0682-.019-.1894-.04-.3636-.063-.1743-.026-.3485-.039-.5227-.039-.4016 0-.7595.085-1.0739.255-.3106.167-.5568.4-.7386.699-.1819.296-.2728.633-.2728 1.011v5.33zm10.7301-8.727v1.363h-4.7671v-1.363zm-3.4887-2.091h1.6989v8.256c0 .329.0493.577.1477.744.0985.163.2254.274.3807.335.1591.057.3315.085.5171.085.1363 0 .2556-.009.3579-.028s.1818-.034.2387-.046l.3068 1.404c-.0985.038-.2387.076-.4205.113-.1818.042-.4091.065-.6818.069-.447.007-.8636-.072-1.25-.239s-.6989-.424-.9375-.773c-.2386-.348-.358-.786-.358-1.312z" fill="#192739" fill-opacity=".94"/><path d="m129.979 471h-1.631l3.664-10.182h1.775l3.664 10.182h-1.631l-2.878-8.332h-.08zm.273-3.987h5.29v1.292h-5.29zm11.286 4.136c-.617 0-1.167-.157-1.651-.472-.481-.318-.858-.771-1.133-1.357-.272-.59-.408-1.298-.408-2.123 0-.826.137-1.532.413-2.118.278-.587.659-1.036 1.143-1.347.484-.312 1.032-.468 1.646-.468.474 0 .855.08 1.143.239.292.156.517.338.676.547.163.209.289.392.378.552h.09v-3.784h1.486v10.182h-1.452v-1.188h-.124c-.089.162-.219.348-.388.557-.165.208-.394.391-.686.546-.292.156-.669.234-1.133.234zm.328-1.268c.427 0 .789-.112 1.084-.338.298-.228.523-.545.676-.949.155-.405.233-.875.233-1.412 0-.53-.076-.995-.228-1.392-.153-.398-.377-.708-.671-.93-.295-.222-.66-.333-1.094-.333-.448 0-.821.116-1.119.348s-.524.549-.676.95c-.149.401-.224.853-.224 1.357 0 .51.077.969.229 1.377s.378.731.676.969c.302.236.673.353 1.114.353zm8.435 1.268c-.616 0-1.166-.157-1.65-.472-.481-.318-.859-.771-1.134-1.357-.272-.59-.407-1.298-.407-2.123 0-.826.137-1.532.412-2.118.279-.587.66-1.036 1.144-1.347.484-.312 1.032-.468 1.645-.468.474 0 .855.08 1.144.239.291.156.517.338.676.547.162.209.288.392.378.552h.089v-3.784h1.487v10.182h-1.452v-1.188h-.124c-.09.162-.219.348-.388.557-.166.208-.394.391-.686.546-.292.156-.67.234-1.134.234zm.328-1.268c.428 0 .789-.112 1.084-.338.299-.228.524-.545.676-.949.156-.405.234-.875.234-1.412 0-.53-.076-.995-.229-1.392-.152-.398-.376-.708-.671-.93s-.659-.333-1.094-.333c-.447 0-.82.116-1.118.348s-.524.549-.676.95c-.149.401-.224.853-.224 1.357 0 .51.076.969.229 1.377.152.408.378.731.676.969.301.236.673.353 1.113.353zm5.577 1.119v-7.636h1.437v1.213h.08c.139-.411.384-.734.735-.97.355-.238.756-.358 1.204-.358.092 0 .202.004.328.01.129.007.23.015.303.025v1.422c-.06-.017-.166-.035-.318-.055-.153-.023-.305-.035-.458-.035-.351 0-.664.075-.939.224-.272.146-.487.35-.647.612-.159.258-.238.553-.238.885v4.663zm8.391.154c-.752 0-1.4-.161-1.944-.482-.54-.325-.958-.781-1.253-1.367-.291-.59-.437-1.281-.437-2.073 0-.783.146-1.472.437-2.069.295-.596.706-1.062 1.233-1.397.531-.334 1.15-.502 1.86-.502.431 0 .848.071 1.253.214.404.143.767.366 1.088.671.322.305.575.701.761 1.188.186.484.278 1.073.278 1.765v.527h-6.07v-1.113h4.614c0-.391-.08-.738-.239-1.039-.159-.305-.383-.546-.671-.721-.285-.176-.62-.264-1.004-.264-.418 0-.783.103-1.094.308-.308.203-.547.468-.716.796-.166.325-.249.678-.249 1.059v.87c0 .51.09.944.269 1.302.182.358.436.632.761.821.324.185.704.278 1.138.278.282 0 .539-.04.771-.119.232-.083.432-.206.601-.368s.298-.363.388-.602l1.407.254c-.113.414-.315.777-.607 1.089-.288.308-.651.548-1.088.721-.435.169-.93.253-1.487.253zm10.648-5.926-1.347.239c-.057-.173-.146-.337-.269-.493-.119-.155-.281-.283-.487-.382-.205-.1-.462-.15-.771-.15-.42 0-.772.095-1.054.284-.281.185-.422.426-.422.721 0 .255.094.46.283.616s.494.284.915.383l1.213.278c.703.163 1.226.413 1.571.751s.517.777.517 1.318c0 .457-.132.865-.398 1.223-.261.354-.628.633-1.098.835-.468.202-1.01.303-1.626.303-.855 0-1.553-.182-2.093-.547-.54-.368-.872-.89-.994-1.566l1.436-.219c.09.375.274.658.552.851.279.189.642.283 1.089.283.487 0 .877-.101 1.168-.303.292-.206.438-.456.438-.751 0-.239-.09-.439-.269-.602-.175-.162-.445-.285-.81-.367l-1.293-.284c-.712-.162-1.239-.421-1.581-.775-.338-.355-.507-.804-.507-1.348 0-.45.126-.845.378-1.183s.6-.602 1.044-.79c.444-.193.953-.289 1.527-.289.825 0 1.474.179 1.948.537.474.355.788.83.94 1.427zm7.506 0-1.347.239c-.057-.173-.146-.337-.269-.493-.119-.155-.282-.283-.487-.382-.206-.1-.462-.15-.771-.15-.421 0-.772.095-1.054.284-.281.185-.422.426-.422.721 0 .255.094.46.283.616s.494.284.915.383l1.213.278c.703.163 1.226.413 1.571.751s.517.777.517 1.318c0 .457-.133.865-.398 1.223-.262.354-.628.633-1.098.835-.468.202-1.01.303-1.626.303-.855 0-1.553-.182-2.093-.547-.54-.368-.872-.89-.994-1.566l1.436-.219c.09.375.274.658.552.851.279.189.641.283 1.089.283.487 0 .877-.101 1.168-.303.292-.206.438-.456.438-.751 0-.239-.09-.439-.269-.602-.175-.162-.445-.285-.81-.367l-1.293-.284c-.712-.162-1.239-.421-1.581-.775-.338-.355-.507-.804-.507-1.348 0-.45.126-.845.378-1.183s.6-.602 1.044-.79c.444-.193.953-.289 1.526-.289.826 0 1.475.179 1.949.537.474.355.787.83.94 1.427z" fill="#1b2b41" fill-opacity=".69"/><path d="m128 484c0-2.209 1.791-4 4-4h322c2.209 0 4 1.791 4 4v28c0 2.209-1.791 4-4 4h-322c-2.209 0-4-1.791-4-4z" fill="#1a3860" fill-opacity=".1"/><path d="m139.511 504 5.08-10.045v-.086h-5.875v-1.505h7.693v1.556l-5.062 10.08zm7.692-2.273v-1.42l5.029-7.943h1.119v2.091h-.71l-3.597 5.693v.091h6.892v1.488zm5.517 2.273v-2.705l.012-.647v-8.284h1.664v11.636zm5.196 0v-1.273l3.938-4.079c.42-.443.767-.832 1.039-1.165.277-.337.483-.657.62-.96.136-.303.204-.625.204-.966 0-.387-.091-.72-.272-1-.182-.284-.43-.502-.745-.654-.314-.155-.668-.233-1.062-.233-.417 0-.781.086-1.091.256-.311.171-.549.411-.716.722-.167.31-.25.674-.25 1.091h-1.676c0-.709.163-1.328.488-1.858.326-.531.773-.942 1.341-1.233.569-.296 1.214-.443 1.938-.443.731 0 1.375.145 1.932.437.56.288.998.682 1.312 1.182.315.496.472 1.057.472 1.682 0 .432-.082.854-.245 1.267-.159.413-.437.873-.835 1.38-.397.504-.951 1.116-1.659 1.836l-2.312 2.42v.085h5.238v1.506zm14.206 0v-11.636h7.296v1.511h-5.54v3.545h5.159v1.506h-5.159v3.563h5.608v1.511zm16.97-8.727-3.164 8.727h-1.819l-3.17-8.727h1.824l2.21 6.716h.091l2.204-6.716zm5.061 8.903c-.859 0-1.6-.184-2.221-.551-.618-.371-1.095-.892-1.432-1.563-.333-.674-.5-1.464-.5-2.369 0-.894.167-1.682.5-2.363.337-.682.807-1.214 1.409-1.597.606-.383 1.314-.574 2.125-.574.493 0 .97.082 1.432.244.462.163.877.419 1.244.767.368.349.657.802.87 1.358.212.553.318 1.226.318 2.017v.603h-6.938v-1.273h5.273c0-.447-.091-.843-.273-1.187-.182-.349-.437-.624-.767-.824-.326-.201-.708-.302-1.148-.302-.477 0-.893.118-1.25.353-.352.231-.625.534-.818.909-.189.371-.284.774-.284 1.21v.994c0 .584.102 1.08.307 1.489.208.409.498.722.869.938.372.212.805.318 1.301.318.322 0 .616-.046.881-.137.265-.094.494-.234.688-.42.193-.186.341-.415.443-.688l1.608.29c-.129.474-.36.888-.693 1.244-.33.353-.745.627-1.245.824-.496.194-1.062.29-1.699.29zm5.63-.176v-8.727h1.642v1.386h.091c.159-.47.439-.839.841-1.108.405-.273.863-.409 1.375-.409.106 0 .231.004.375.011.147.008.263.017.346.029v1.625c-.068-.019-.189-.04-.364-.063-.174-.026-.348-.039-.522-.039-.402 0-.76.085-1.074.255-.311.167-.557.4-.739.699-.182.296-.272.633-.272 1.011v5.33zm9.487 3.455c-.693 0-1.29-.091-1.79-.273-.496-.182-.901-.423-1.216-.722-.314-.299-.549-.627-.704-.983l1.46-.602c.102.167.239.343.409.528.174.19.409.351.705.483.299.133.683.199 1.153.199.644 0 1.176-.157 1.597-.471.42-.311.63-.807.63-1.489v-1.716h-.108c-.102.186-.25.392-.443.619-.189.228-.451.425-.784.591-.333.167-.767.25-1.301.25-.69 0-1.311-.161-1.864-.483-.549-.325-.985-.805-1.307-1.437-.318-.637-.477-1.419-.477-2.347s.157-1.723.472-2.386c.318-.663.753-1.171 1.307-1.523.553-.356 1.179-.534 1.88-.534.542 0 .979.091 1.313.273.333.178.593.386.778.625.19.238.335.449.438.631h.125v-1.415h1.664v8.92c0 .75-.174 1.366-.522 1.847-.349.481-.82.837-1.415 1.068-.591.231-1.258.347-2 .347zm-.017-4.995c.488 0 .901-.113 1.238-.341.341-.231.599-.56.773-.988.178-.432.267-.949.267-1.551 0-.588-.087-1.105-.261-1.552s-.43-.795-.767-1.045c-.337-.254-.754-.381-1.25-.381-.512 0-.938.133-1.279.398-.34.261-.598.617-.772 1.068-.171.451-.256.955-.256 1.512 0 .572.087 1.073.261 1.505.175.432.432.769.773 1.012.345.242.769.363 1.273.363zm6.233 1.54v-8.727h1.642v1.386h.091c.159-.47.439-.839.841-1.108.405-.273.863-.409 1.375-.409.106 0 .231.004.375.011.147.008.263.017.346.029v1.625c-.068-.019-.189-.04-.363-.063-.175-.026-.349-.039-.523-.039-.402 0-.76.085-1.074.255-.311.167-.557.4-.739.699-.181.296-.272.633-.272 1.011v5.33zm9.589.176c-.86 0-1.6-.184-2.221-.551-.618-.371-1.095-.892-1.432-1.563-.333-.674-.5-1.464-.5-2.369 0-.894.167-1.682.5-2.363.337-.682.807-1.214 1.409-1.597.606-.383 1.314-.574 2.125-.574.492 0 .97.082 1.432.244.462.163.877.419 1.244.767.368.349.657.802.869 1.358.213.553.319 1.226.319 2.017v.603h-6.938v-1.273h5.273c0-.447-.091-.843-.273-1.187-.182-.349-.437-.624-.767-.824-.326-.201-.708-.302-1.148-.302-.477 0-.894.118-1.25.353-.352.231-.625.534-.818.909-.189.371-.284.774-.284 1.21v.994c0 .584.102 1.08.307 1.489.208.409.498.722.869.938.371.212.805.318 1.301.318.322 0 .616-.046.881-.137.265-.094.494-.234.688-.42.193-.186.34-.415.443-.688l1.608.29c-.129.474-.36.888-.694 1.244-.329.353-.744.627-1.244.824-.496.194-1.062.29-1.699.29zm9.391 0c-.86 0-1.6-.184-2.222-.551-.617-.371-1.094-.892-1.432-1.563-.333-.674-.5-1.464-.5-2.369 0-.894.167-1.682.5-2.363.338-.682.807-1.214 1.41-1.597.606-.383 1.314-.574 2.125-.574.492 0 .969.082 1.431.244.463.163.877.419 1.245.767.367.349.657.802.869 1.358.212.553.318 1.226.318 2.017v.603h-6.937v-1.273h5.272c0-.447-.09-.843-.272-1.187-.182-.349-.438-.624-.767-.824-.326-.201-.709-.302-1.148-.302-.477 0-.894.118-1.25.353-.352.231-.625.534-.818.909-.19.371-.284.774-.284 1.21v.994c0 .584.102 1.08.306 1.489.209.409.499.722.87.938.371.212.805.318 1.301.318.322 0 .615-.046.881-.137.265-.094.494-.234.687-.42s.341-.415.443-.688l1.608.29c-.129.474-.36.888-.693 1.244-.329.353-.744.627-1.244.824-.496.194-1.063.29-1.699.29zm7.328-5.358v5.182h-1.699v-8.727h1.631v1.42h.108c.201-.462.515-.833.943-1.113.432-.281.975-.421 1.631-.421.594 0 1.115.125 1.562.375.447.246.794.614 1.04 1.102.246.489.369 1.093.369 1.813v5.551h-1.699v-5.347c0-.632-.164-1.126-.494-1.483-.329-.359-.782-.539-1.358-.539-.394 0-.744.085-1.051.255-.303.171-.544.421-.722.75-.174.326-.261.72-.261 1.182zm11.661-4.943v-1.511h9.005v1.511h-3.63v10.125h-1.75v-10.125zm13.355 10.301c-.86 0-1.601-.184-2.222-.551-.617-.371-1.095-.892-1.432-1.563-.333-.674-.5-1.464-.5-2.369 0-.894.167-1.682.5-2.363.337-.682.807-1.214 1.409-1.597.606-.383 1.315-.574 2.125-.574.493 0 .97.082 1.432.244.462.163.877.419 1.244.767.368.349.658.802.87 1.358.212.553.318 1.226.318 2.017v.603h-6.938v-1.273h5.273c0-.447-.091-.843-.273-1.187-.181-.349-.437-.624-.767-.824-.325-.201-.708-.302-1.147-.302-.478 0-.894.118-1.25.353-.353.231-.625.534-.818.909-.19.371-.285.774-.285 1.21v.994c0 .584.103 1.08.307 1.489.209.409.498.722.87.938.371.212.804.318 1.301.318.322 0 .615-.046.88-.137.266-.094.495-.234.688-.42s.341-.415.443-.688l1.608.29c-.129.474-.36.888-.693 1.244-.33.353-.744.627-1.244.824-.497.194-1.063.29-1.699.29zm5.629-.176v-8.727h1.642v1.386h.091c.159-.47.439-.839.841-1.108.405-.273.863-.409 1.375-.409.106 0 .231.004.375.011.148.008.263.017.346.029v1.625c-.068-.019-.189-.04-.363-.063-.175-.026-.349-.039-.523-.039-.402 0-.759.085-1.074.255-.31.167-.557.4-.738.699-.182.296-.273.633-.273 1.011v5.33zm6.141 0v-8.727h1.642v1.386h.09c.16-.47.44-.839.841-1.108.406-.273.864-.409 1.375-.409.106 0 .231.004.375.011.148.008.264.017.347.029v1.625c-.068-.019-.189-.04-.364-.063-.174-.026-.348-.039-.522-.039-.402 0-.76.085-1.074.255-.311.167-.557.4-.739.699-.182.296-.273.633-.273 1.011v5.33zm8.602.193c-.553 0-1.053-.102-1.5-.307-.447-.208-.801-.509-1.063-.903-.257-.394-.386-.877-.386-1.449 0-.492.095-.898.284-1.216s.445-.57.767-.756c.322-.185.682-.325 1.08-.42.397-.095.803-.167 1.216-.216.522-.06.947-.11 1.272-.148.326-.041.563-.108.71-.198.148-.091.222-.239.222-.444v-.039c0-.497-.14-.881-.42-1.154-.277-.273-.69-.409-1.239-.409-.572 0-1.023.127-1.352.381-.326.25-.551.528-.676.835l-1.597-.364c.189-.53.466-.958.83-1.284.367-.329.789-.568 1.267-.716.477-.151.979-.227 1.505-.227.349 0 .718.042 1.108.125.394.08.762.227 1.102.443.345.216.627.525.847.926.22.398.33.915.33 1.552v5.795h-1.659v-1.193h-.069c-.109.22-.274.435-.494.648-.22.212-.502.388-.847.528-.344.14-.757.21-1.238.21zm.369-1.363c.47 0 .871-.093 1.205-.279.337-.185.592-.428.767-.727.178-.303.267-.627.267-.972v-1.125c-.061.061-.178.118-.352.171-.171.049-.366.093-.586.13-.219.034-.433.067-.642.097-.208.027-.382.049-.522.068-.33.042-.631.112-.904.21-.269.099-.485.241-.648.427-.159.181-.238.424-.238.727 0 .42.155.738.466.954.31.212.706.319 1.187.319zm9.877 1.346c-.845 0-1.572-.191-2.182-.574-.606-.386-1.072-.918-1.398-1.596s-.489-1.455-.489-2.33c0-.886.167-1.668.5-2.346.334-.682.803-1.214 1.409-1.597.607-.383 1.321-.574 2.143-.574.662 0 1.253.123 1.772.369.519.243.938.584 1.256 1.023.322.44.513.953.574 1.54h-1.654c-.091-.409-.299-.761-.625-1.057-.322-.295-.753-.443-1.295-.443-.474 0-.888.125-1.244.375-.353.246-.627.598-.824 1.057-.197.454-.296.992-.296 1.613 0 .637.097 1.186.29 1.648s.466.82.818 1.074c.356.254.775.381 1.256.381.322 0 .614-.059.875-.177.265-.121.487-.293.665-.517.182-.223.308-.492.38-.806h1.654c-.061.564-.245 1.068-.551 1.511-.307.443-.718.792-1.233 1.045-.512.254-1.112.381-1.801.381zm9.163 0c-.86 0-1.6-.184-2.222-.551-.617-.371-1.094-.892-1.431-1.563-.334-.674-.5-1.464-.5-2.369 0-.894.166-1.682.5-2.363.337-.682.806-1.214 1.409-1.597.606-.383 1.314-.574 2.125-.574.492 0 .969.082 1.431.244.463.163.877.419 1.245.767.367.349.657.802.869 1.358.212.553.318 1.226.318 2.017v.603h-6.937v-1.273h5.272c0-.447-.09-.843-.272-1.187-.182-.349-.438-.624-.767-.824-.326-.201-.709-.302-1.148-.302-.477 0-.894.118-1.25.353-.352.231-.625.534-.818.909-.19.371-.284.774-.284 1.21v.994c0 .584.102 1.08.307 1.489.208.409.498.722.869.938.371.212.805.318 1.301.318.322 0 .615-.046.881-.137.265-.094.494-.234.687-.42s.341-.415.443-.688l1.608.29c-.129.474-.36.888-.693 1.244-.329.353-.744.627-1.244.824-.496.194-1.063.29-1.699.29zm7.839-1.767-.085.619c-.057.455-.153.928-.29 1.421-.132.496-.27.956-.414 1.381-.141.424-.256.761-.347 1.011h-1.205c.05-.235.118-.553.205-.955.087-.397.172-.842.256-1.335.083-.492.146-.994.187-1.506l.057-.636zm12.929-6.989c-.06-.537-.31-.954-.75-1.25-.439-.299-.992-.448-1.659-.448-.477 0-.89.075-1.238.227-.349.148-.62.352-.813.613-.189.258-.284.552-.284.881 0 .277.064.515.193.716.133.201.305.369.517.506.216.132.447.244.693.335.247.087.483.159.711.216l1.136.295c.371.091.752.214 1.142.37.39.155.752.36 1.085.613.334.254.603.568.807.944.208.374.313.823.313 1.346 0 .659-.171 1.244-.512 1.756-.337.511-.827.915-1.471 1.21-.64.295-1.415.443-2.324.443-.871 0-1.625-.138-2.262-.415-.636-.276-1.134-.668-1.494-1.176-.36-.511-.559-1.117-.596-1.818h1.761c.034.421.17.771.409 1.051.242.277.551.483.926.62.379.132.794.198 1.244.198.497 0 .938-.077 1.324-.233.39-.159.697-.378.921-.659.223-.284.335-.615.335-.994 0-.345-.098-.627-.295-.847-.194-.219-.457-.401-.79-.545-.33-.144-.703-.271-1.12-.381l-1.375-.375c-.931-.253-1.67-.627-2.215-1.119-.542-.492-.813-1.144-.813-1.955 0-.67.182-1.255.546-1.755.363-.5.856-.888 1.477-1.165.621-.28 1.322-.42 2.102-.42.788 0 1.483.138 2.085.414.606.277 1.084.658 1.432 1.142.349.481.53 1.034.546 1.659zm3.814 11.853v-12h1.659v1.415h.142c.099-.182.241-.393.427-.631.185-.239.443-.447.772-.625.33-.182.765-.273 1.307-.273.705 0 1.333.178 1.886.534.554.356.987.869 1.302 1.54.318.67.477 1.477.477 2.42 0 .944-.157 1.752-.472 2.427-.314.67-.746 1.187-1.295 1.551-.549.36-1.176.539-1.881.539-.53 0-.964-.089-1.301-.267-.333-.178-.595-.386-.784-.625-.189-.238-.335-.45-.438-.636h-.102v4.631zm1.665-7.637c0 .614.089 1.152.267 1.614s.436.824.773 1.085c.337.258.75.387 1.238.387.508 0 .932-.135 1.273-.404.341-.273.599-.642.773-1.108.178-.466.267-.99.267-1.574 0-.575-.087-1.092-.261-1.551-.171-.458-.428-.82-.773-1.085-.341-.265-.767-.398-1.279-.398-.492 0-.909.127-1.25.381-.337.254-.592.608-.767 1.062-.174.455-.261.985-.261 1.591zm8.21 4.364v-8.727h1.642v1.386h.091c.159-.47.44-.839.841-1.108.405-.273.864-.409 1.375-.409.106 0 .231.004.375.011.148.008.263.017.347.029v1.625c-.068-.019-.19-.04-.364-.063-.174-.026-.348-.039-.523-.039-.401 0-.759.085-1.073.255-.311.167-.557.4-.739.699-.182.296-.273.633-.273 1.011v5.33zm6.141 0v-8.727h1.699v8.727zm.858-10.074c-.296 0-.549-.098-.761-.295-.209-.201-.313-.44-.313-.716 0-.281.104-.519.313-.716.212-.201.465-.301.761-.301.295 0 .547.1.756.301.212.197.318.435.318.716 0 .276-.106.515-.318.716-.209.197-.461.295-.756.295zm4.825 4.892v5.182h-1.699v-8.727h1.631v1.42h.108c.201-.462.515-.833.943-1.113.432-.281.975-.421 1.631-.421.594 0 1.115.125 1.562.375.447.246.794.614 1.04 1.102.246.489.369 1.093.369 1.813v5.551h-1.698v-5.347c0-.632-.165-1.126-.495-1.483-.329-.359-.782-.539-1.358-.539-.394 0-.744.085-1.051.255-.303.171-.543.421-.721.75-.175.326-.262.72-.262 1.182zm11.523 8.637c-.693 0-1.29-.091-1.79-.273-.496-.182-.901-.423-1.216-.722-.314-.299-.549-.627-.704-.983l1.46-.602c.102.167.239.343.409.528.174.19.409.351.705.483.299.133.683.199 1.153.199.644 0 1.176-.157 1.597-.471.42-.311.63-.807.63-1.489v-1.716h-.108c-.102.186-.25.392-.443.619-.189.228-.451.425-.784.591-.333.167-.767.25-1.301.25-.69 0-1.311-.161-1.864-.483-.549-.325-.985-.805-1.307-1.437-.318-.637-.477-1.419-.477-2.347s.157-1.723.472-2.386c.318-.663.753-1.171 1.307-1.523.553-.356 1.179-.534 1.88-.534.542 0 .979.091 1.313.273.333.178.593.386.778.625.19.238.335.449.438.631h.125v-1.415h1.664v8.92c0 .75-.174 1.366-.522 1.847-.349.481-.82.837-1.415 1.068-.591.231-1.258.347-2 .347zm-.017-4.995c.488 0 .901-.113 1.238-.341.341-.231.599-.56.773-.988.178-.432.267-.949.267-1.551 0-.588-.087-1.105-.261-1.552s-.43-.795-.767-1.045c-.337-.254-.754-.381-1.25-.381-.512 0-.938.133-1.279.398-.34.261-.598.617-.772 1.068-.171.451-.256.955-.256 1.512 0 .572.087 1.073.261 1.505.175.432.432.769.773 1.012.345.242.769.363 1.273.363zm10.386-7.187v1.363h-4.932v-1.363zm-3.579 8.727v-9.739c0-.545.119-.998.358-1.358.238-.363.555-.634.948-.812.394-.182.822-.273 1.285-.273.34 0 .632.029.875.085.242.053.422.103.539.148l-.397 1.375c-.08-.023-.182-.049-.307-.079-.125-.035-.277-.052-.455-.052-.413 0-.708.103-.886.307-.174.205-.261.5-.261.887v9.511zm5.332 0v-8.727h1.699v8.727zm.858-10.074c-.295 0-.549-.098-.761-.295-.209-.201-.313-.44-.313-.716 0-.281.104-.519.313-.716.212-.201.466-.301.761-.301s.547.1.756.301c.212.197.318.435.318.716 0 .276-.106.515-.318.716-.209.197-.461.295-.756.295zm6.888 10.25c-.86 0-1.601-.184-2.222-.551-.617-.371-1.095-.892-1.432-1.563-.333-.674-.5-1.464-.5-2.369 0-.894.167-1.682.5-2.363.337-.682.807-1.214 1.409-1.597.607-.383 1.315-.574 2.125-.574.493 0 .97.082 1.432.244.462.163.877.419 1.245.767.367.349.657.802.869 1.358.212.553.318 1.226.318 2.017v.603h-6.937v-1.273h5.272c0-.447-.091-.843-.272-1.187-.182-.349-.438-.624-.767-.824-.326-.201-.709-.302-1.148-.302-.477 0-.894.118-1.25.353-.352.231-.625.534-.818.909-.19.371-.284.774-.284 1.21v.994c0 .584.102 1.08.306 1.489.209.409.498.722.87.938.371.212.805.318 1.301.318.322 0 .615-.046.881-.137.265-.094.494-.234.687-.42s.341-.415.443-.688l1.608.29c-.129.474-.36.888-.693 1.244-.33.353-.744.627-1.244.824-.497.194-1.063.29-1.699.29zm7.328-11.812v11.636h-1.699v-11.636zm5.552 11.806c-.704 0-1.333-.179-1.886-.539-.549-.364-.981-.881-1.295-1.551-.311-.675-.466-1.483-.466-2.427 0-.943.157-1.75.471-2.42.319-.671.754-1.184 1.307-1.54s1.18-.534 1.881-.534c.541 0 .977.091 1.307.273.333.178.591.386.772.625.186.238.33.449.432.631h.102v-4.324h1.699v11.636h-1.659v-1.358h-.142c-.102.186-.25.398-.443.636-.189.239-.451.447-.784.625s-.765.267-1.296.267zm.375-1.448c.489 0 .902-.129 1.239-.387.341-.261.599-.623.773-1.085.178-.462.267-1 .267-1.614 0-.606-.087-1.136-.261-1.591-.175-.454-.43-.808-.768-1.062-.337-.254-.753-.381-1.25-.381-.511 0-.937.133-1.278.398s-.598.627-.773 1.085c-.17.459-.255.976-.255 1.551 0 .584.087 1.108.261 1.574s.432.835.773 1.108c.344.269.769.404 1.272.404zm18.228-10.358h1.761v7.653c0 .814-.191 1.536-.574 2.165-.382.625-.92 1.117-1.613 1.477-.694.356-1.506.534-2.438.534-.928 0-1.739-.178-2.432-.534-.693-.36-1.231-.852-1.613-1.477-.383-.629-.574-1.351-.574-2.165v-7.653h1.755v7.511c0 .527.116.994.347 1.403.235.41.566.731.994.966.428.231.936.347 1.523.347.591 0 1.1-.116 1.529-.347.431-.235.761-.556.988-.966.231-.409.347-.876.347-1.403zm10.66 3.056c-.06-.537-.31-.954-.75-1.25-.439-.299-.992-.448-1.659-.448-.477 0-.89.075-1.238.227-.349.148-.62.352-.813.613-.189.258-.284.552-.284.881 0 .277.064.515.193.716.133.201.305.369.517.506.216.132.447.244.693.335.247.087.483.159.711.216l1.136.295c.371.091.752.214 1.142.37.39.155.752.36 1.085.613.334.254.602.568.807.944.208.374.313.823.313 1.346 0 .659-.171 1.244-.512 1.756-.337.511-.827.915-1.471 1.21-.641.295-1.415.443-2.324.443-.872 0-1.625-.138-2.262-.415-.636-.276-1.134-.668-1.494-1.176-.36-.511-.559-1.117-.597-1.818h1.762c.034.421.17.771.409 1.051.242.277.551.483.926.62.379.132.794.198 1.244.198.497 0 .938-.077 1.324-.233.39-.159.697-.378.921-.659.223-.284.335-.615.335-.994 0-.345-.099-.627-.296-.847-.193-.219-.456-.401-.789-.545-.33-.144-.703-.271-1.12-.381l-1.375-.375c-.931-.253-1.67-.627-2.216-1.119-.541-.492-.812-1.144-.812-1.955 0-.67.182-1.255.545-1.755.364-.5.856-.888 1.478-1.165.621-.28 1.322-.42 2.102-.42.788 0 1.483.138 2.085.414.606.277 1.083.658 1.432 1.142.348.481.53 1.034.545 1.659zm4.84 8.58h-1.864l4.188-11.636h2.028l4.188 11.636h-1.864l-3.29-9.523h-.091zm.312-4.557h6.046v1.477h-6.046z" fill="#192739" fill-opacity=".94"/><path d="m91.0327 166.273v8.727h-1.4063l-4.1122-5.945h-.0724v5.945h-1.581v-8.727h1.4148l4.1079 5.949h.0767v-5.949zm3.2034 8.727h-1.6875l3.0724-8.727h1.9517l3.0763 8.727h-1.6871l-2.3309-6.938h-.0682zm.0554-3.422h4.6022v1.27h-4.6022zm6.4295-3.98v-1.325h6.963v1.325h-2.698v7.402h-1.568v-7.402zm14.167-1.325h1.58v5.701c0 .625-.147 1.175-.443 1.65-.292.474-.704.845-1.235 1.112-.532.264-1.152.396-1.863.396-.713 0-1.335-.132-1.866-.396-.531-.267-.943-.638-1.236-1.112-.293-.475-.439-1.025-.439-1.65v-5.701h1.581v5.569c0 .364.08.688.239.972.162.284.389.507.682.669.292.159.639.239 1.039.239.401 0 .747-.08 1.04-.239.296-.162.523-.385.682-.669s.239-.608.239-.972zm3.659 8.727v-8.727h3.273c.67 0 1.233.116 1.687.349.458.233.803.56 1.036.98.235.418.353.905.353 1.462 0 .56-.119 1.045-.358 1.457-.235.409-.583.726-1.044.951-.46.221-1.025.332-1.696.332h-2.331v-1.313h2.118c.392 0 .713-.054.963-.161.25-.111.435-.272.554-.482.122-.213.184-.474.184-.784s-.062-.574-.184-.793c-.122-.221-.308-.389-.558-.503-.25-.116-.572-.174-.967-.174h-1.449v7.406zm4.508-3.955 2.161 3.955h-1.764l-2.122-3.955zm4.777 3.955h-1.687l3.072-8.727h1.952l3.077 8.727h-1.688l-2.331-6.938h-.068zm.056-3.422h4.602v1.27h-4.602zm7.867 3.422v-8.727h1.581v7.402h3.844v1.325zm10.494 0v-8.727h1.581v7.402h3.843v1.325zm8.605 0h-1.687l3.072-8.727h1.952l3.077 8.727h-1.688l-2.331-6.938h-.068zm.056-3.422h4.602v1.27h-4.602zm15.039-5.305v8.727h-1.406l-4.112-5.945h-.073v5.945h-1.581v-8.727h1.415l4.108 5.949h.077v-5.949zm7.929 2.787c-.071-.23-.169-.436-.294-.618-.122-.185-.27-.343-.443-.473-.17-.131-.366-.229-.588-.294-.222-.068-.463-.103-.724-.103-.469 0-.887.118-1.253.354-.367.236-.655.583-.865 1.04-.208.454-.311 1.008-.311 1.662 0 .659.103 1.217.311 1.675.207.457.495.805.865 1.044.369.235.798.353 1.287.353.443 0 .826-.085 1.15-.255.327-.171.578-.412.755-.725.176-.315.264-.684.264-1.108l.358.056h-2.37v-1.236h3.542v1.048c0 .747-.16 1.394-.478 1.939s-.755.966-1.312 1.261c-.557.293-1.196.439-1.918.439-.804 0-1.51-.18-2.118-.541-.605-.364-1.078-.879-1.419-1.547-.338-.67-.507-1.466-.507-2.386 0-.705.1-1.334.298-1.888.202-.554.483-1.024.844-1.41.361-.39.784-.685 1.27-.887.486-.204 1.014-.307 1.585-.307.483 0 .934.071 1.351.213.418.14.789.339 1.112.597.327.259.596.565.806.921.21.355.348.747.413 1.176zm9.074-2.787h1.581v5.701c0 .625-.148 1.175-.443 1.65-.293.474-.705.845-1.236 1.112-.532.264-1.152.396-1.862.396-.714 0-1.336-.132-1.867-.396-.531-.267-.943-.638-1.236-1.112-.292-.475-.439-1.025-.439-1.65v-5.701h1.581v5.569c0 .364.08.688.239.972.162.284.389.507.682.669.292.159.639.239 1.04.239.4 0 .747-.08 1.039-.239.296-.162.523-.385.682-.669s.239-.608.239-.972zm4.78 8.727h-1.688l3.073-8.727h1.951l3.077 8.727h-1.687l-2.331-6.938h-.068zm.055-3.422h4.603v1.27h-4.603zm13.304-2.518c-.071-.23-.169-.436-.294-.618-.122-.185-.27-.343-.443-.473-.171-.131-.367-.229-.588-.294-.222-.068-.463-.103-.725-.103-.468 0-.886.118-1.252.354-.367.236-.655.583-.865 1.04-.208.454-.312 1.008-.312 1.662 0 .659.104 1.217.312 1.675.207.457.495.805.865 1.044.369.235.798.353 1.287.353.443 0 .826-.085 1.15-.255.327-.171.578-.412.754-.725.176-.315.265-.684.265-1.108l.358.056h-2.37v-1.236h3.541v1.048c0 .747-.159 1.394-.477 1.939s-.756.966-1.312 1.261c-.557.293-1.196.439-1.918.439-.804 0-1.51-.18-2.118-.541-.605-.364-1.078-.879-1.419-1.547-.338-.67-.507-1.466-.507-2.386 0-.705.099-1.334.298-1.888.202-.554.483-1.024.844-1.41.361-.39.784-.685 1.27-.887.486-.204 1.014-.307 1.585-.307.483 0 .933.071 1.351.213.418.14.788.339 1.112.597.327.259.595.565.806.921.21.355.348.747.413 1.176zm3.572 5.94v-8.727h5.676v1.325h-4.095v2.369h3.801v1.326h-3.801v2.382h4.129v1.325zm10.602-7.402v-1.325h6.963v1.325h-2.697v7.402h-1.568v-7.402zm8.666 7.402v-8.727h5.676v1.325h-4.095v2.369h3.801v1.326h-3.801v2.382h4.129v1.325zm8.97-8.727 1.922 3.196h.068l1.93-3.196h1.803l-2.689 4.363 2.731 4.364h-1.832l-1.943-3.175h-.068l-1.944 3.175h-1.823l2.757-4.364-2.723-4.363zm6.94 1.325v-1.325h6.963v1.325h-2.697v7.402h-1.568v-7.402z" fill="#657892"/><rect height="101" rx="7.5" stroke="#bbc9dc" width="328" x="71.5" y="153.5"/><path d="m86.7408 202v-1.014c0-.292.0547-.595.164-.91.1127-.318.2652-.618.4574-.9.1956-.285.4143-.525.6563-.721l.8352.542c-.1956.295-.3596.603-.4922.925-.1293.318-.1922.669-.1889 1.054v1.024zm2.5206 0v-1.014c0-.292.0547-.595.164-.91.1127-.318.2652-.618.4574-.9.1956-.285.4143-.525.6563-.721l.8352.542c-.1956.295-.3596.603-.4922.925-.1293.318-.1922.669-.1889 1.054v1.024zm3.4577-3.182h2.2571l3.0227 7.378h.1194l3.0227-7.378h2.257v10.182h-1.77v-6.995h-.094l-2.8142 6.965h-1.3224l-2.8139-6.98h-.0945v7.01h-1.7699zm13.7269 13.046c-.246 0-.473-.02-.681-.06-.206-.036-.37-.08-.493-.129l.418-1.402c.262.076.495.112.701.109.205-.003.386-.068.542-.194.159-.122.293-.328.403-.616l.154-.413-2.769-7.795h1.909l1.76 5.767h.079l1.765-5.767h1.914l-3.057 8.561c-.143.404-.332.75-.567 1.039-.236.291-.524.514-.865.666-.338.156-.743.234-1.213.234zm12.22-7.338v4.474h-1.8v-7.636h1.72v1.297h.09c.175-.427.456-.767.84-1.019.388-.252.867-.378 1.437-.378.527 0 .986.113 1.377.338.394.226.699.552.915.98.218.427.326.946.323 1.556v4.862h-1.8v-4.584c0-.51-.132-.91-.398-1.198-.261-.288-.624-.432-1.088-.432-.315 0-.595.069-.841.208-.242.136-.432.333-.571.592-.136.258-.204.572-.204.94zm8.929 4.628c-.484 0-.92-.086-1.308-.258-.384-.176-.689-.435-.914-.776-.223-.341-.334-.762-.334-1.263 0-.431.08-.787.239-1.069.159-.281.376-.507.651-.676s.585-.296.93-.383c.348-.089.708-.154 1.079-.193.447-.047.81-.088 1.089-.125.278-.04.48-.099.606-.179.129-.083.194-.21.194-.383v-.029c0-.375-.111-.665-.333-.87-.222-.206-.542-.309-.96-.309-.44 0-.79.096-1.049.289-.255.192-.427.419-.517.681l-1.68-.239c.133-.464.351-.852.656-1.163.305-.315.678-.55 1.119-.706.441-.159.928-.239 1.462-.239.367 0 .734.043 1.098.129.365.087.698.229 1 .428.301.196.543.462.725.8.186.339.279.761.279 1.268v5.111h-1.73v-1.049h-.06c-.109.212-.263.411-.462.597-.196.182-.443.329-.741.442-.295.109-.641.164-1.039.164zm.467-1.322c.361 0 .675-.072.94-.214.265-.146.469-.338.611-.577.146-.238.219-.499.219-.78v-.9c-.056.046-.152.089-.288.129-.133.04-.282.075-.448.104-.165.03-.33.057-.492.08s-.303.043-.423.06c-.268.036-.508.096-.72.179-.213.083-.38.199-.503.348-.122.145-.183.334-.183.566 0 .332.12.582.362.751s.551.254.925.254zm5.374 1.168v-7.636h1.721v1.297h.089c.159-.437.423-.779.791-1.024.367-.249.807-.373 1.317-.373.517 0 .953.126 1.308.378.358.249.609.588.755 1.019h.08c.169-.424.454-.762.855-1.014.404-.255.883-.383 1.437-.383.702 0 1.276.222 1.72.666.444.445.666 1.092.666 1.944v5.126h-1.805v-4.847c0-.474-.126-.821-.377-1.039-.252-.222-.561-.333-.925-.333-.434 0-.774.135-1.019.407-.242.269-.363.618-.363 1.049v4.763h-1.765v-4.922c0-.394-.12-.709-.358-.944-.235-.236-.544-.353-.925-.353-.258 0-.494.066-.706.198-.212.13-.381.314-.507.552-.126.236-.189.511-.189.826v4.643zm15.946.149c-.766 0-1.427-.159-1.984-.477-.554-.322-.979-.776-1.278-1.362-.298-.59-.447-1.285-.447-2.083 0-.786.149-1.475.447-2.069.302-.596.723-1.06 1.263-1.392.54-.334 1.175-.502 1.904-.502.471 0 .915.076 1.332.229.421.149.793.381 1.114.696.325.315.58.716.766 1.203.185.484.278 1.061.278 1.73v.552h-6.259v-1.213h4.534c-.003-.345-.078-.651-.224-.92-.146-.272-.349-.485-.611-.641-.259-.156-.56-.234-.905-.234-.368 0-.691.09-.969.269-.279.175-.496.407-.652.696-.152.285-.23.598-.233.939v1.059c0 .444.081.826.243 1.144.163.315.39.557.681.726.292.165.633.248 1.024.248.262 0 .499-.036.711-.109.212-.076.396-.187.552-.333s.274-.327.353-.542l1.681.189c-.106.444-.309.832-.607 1.163-.295.328-.673.583-1.133.766-.461.179-.988.268-1.581.268zm8.39-.149v-7.636h1.8v7.636zm.905-8.72c-.285 0-.53-.095-.736-.284-.205-.192-.308-.422-.308-.691 0-.271.103-.502.308-.691.206-.192.451-.288.736-.288.289 0 .534.096.736.288.205.189.308.42.308.691 0 .269-.103.499-.308.691-.202.189-.447.284-.736.284zm8.781 3.102-1.64.179c-.047-.166-.128-.321-.244-.467-.113-.146-.265-.264-.457-.353-.193-.09-.428-.134-.706-.134-.375 0-.69.081-.945.243-.252.163-.376.373-.373.632-.003.222.078.402.244.541.169.14.447.254.835.343l1.303.279c.722.156 1.259.403 1.61.741.355.338.534.78.537 1.327-.003.481-.144.905-.422 1.273-.275.364-.658.649-1.149.855-.49.205-1.054.308-1.69.308-.935 0-1.687-.195-2.257-.587-.57-.394-.91-.942-1.019-1.645l1.755-.169c.079.345.248.605.507.78.258.176.595.264 1.009.264.428 0 .771-.088 1.029-.264.262-.175.393-.392.393-.651 0-.219-.085-.399-.254-.542-.165-.142-.424-.252-.775-.328l-1.303-.273c-.732-.153-1.274-.41-1.626-.771-.351-.365-.525-.825-.522-1.382-.003-.471.125-.878.383-1.223.262-.348.625-.617 1.089-.805.467-.193 1.006-.289 1.616-.289.895 0 1.599.191 2.113.572.517.381.837.896.959 1.546zm5.201 5.618v-10.182h3.897c.736 0 1.348.116 1.835.348.49.229.857.542 1.099.94.245.398.367.848.367 1.352 0 .414-.079.769-.238 1.064-.159.292-.373.529-.642.711-.268.182-.568.313-.899.393v.099c.361.02.707.131 1.039.333.334.199.608.481.82.845.212.365.318.806.318 1.323 0 .527-.127 1.001-.383 1.422-.255.417-.639.747-1.153.989s-1.16.363-1.939.363zm1.844-1.541h1.984c.669 0 1.151-.128 1.446-.383.299-.259.448-.59.448-.994 0-.302-.075-.574-.224-.816-.149-.245-.361-.437-.636-.576-.275-.143-.603-.214-.985-.214h-2.033zm0-4.311h1.825c.318 0 .604-.058.86-.174.255-.119.455-.286.601-.502.149-.218.224-.477.224-.775 0-.395-.139-.719-.418-.975-.275-.255-.684-.383-1.228-.383h-1.864zm9.475 6.006c-.484 0-.92-.086-1.308-.258-.384-.176-.689-.435-.915-.776-.222-.341-.333-.762-.333-1.263 0-.431.08-.787.239-1.069.159-.281.376-.507.651-.676s.585-.296.93-.383c.348-.089.707-.154 1.079-.193.447-.047.81-.088 1.088-.125.279-.04.481-.099.607-.179.129-.083.194-.21.194-.383v-.029c0-.375-.111-.665-.333-.87-.222-.206-.542-.309-.96-.309-.441 0-.79.096-1.049.289-.255.192-.427.419-.517.681l-1.68-.239c.132-.464.351-.852.656-1.163.305-.315.678-.55 1.119-.706.44-.159.928-.239 1.461-.239.368 0 .734.043 1.099.129.365.087.698.229.999.428.302.196.544.462.726.8.186.339.279.761.279 1.268v5.111h-1.731v-1.049h-.059c-.11.212-.264.411-.463.597-.195.182-.442.329-.74.442-.295.109-.642.164-1.039.164zm.467-1.322c.361 0 .674-.072.94-.214.265-.146.469-.338.611-.577.146-.238.219-.499.219-.78v-.9c-.057.046-.153.089-.289.129-.132.04-.281.075-.447.104-.166.03-.33.057-.492.08-.163.023-.303.043-.423.06-.268.036-.508.096-.721.179-.212.083-.379.199-.502.348-.122.145-.184.334-.184.566 0 .332.121.582.363.751s.55.254.925.254zm5.374 1.168v-7.636h1.745v1.272h.08c.139-.44.378-.78.716-1.019.341-.242.731-.363 1.168-.363.099 0 .211.005.333.015.126.007.231.018.313.035v1.656c-.076-.027-.197-.05-.363-.07-.162-.023-.319-.035-.472-.035-.328 0-.623.071-.885.214-.258.139-.462.333-.611.582-.149.248-.224.535-.224.86v4.489zm9.774-7.636v1.392h-4.39v-1.392zm-3.306-1.83h1.8v7.169c0 .242.036.428.109.557.077.126.176.212.299.258.122.047.258.07.407.07.113 0 .216-.008.309-.025.096-.016.169-.031.218-.045l.304 1.407c-.097.034-.234.07-.413.11-.176.04-.391.063-.646.069-.451.014-.857-.054-1.218-.203-.362-.153-.648-.388-.86-.706-.209-.319-.312-.716-.309-1.194zm10.482 9.62c-.484 0-.92-.086-1.308-.258-.384-.176-.689-.435-.915-.776-.222-.341-.333-.762-.333-1.263 0-.431.08-.787.239-1.069.159-.281.376-.507.651-.676s.585-.296.93-.383c.348-.089.707-.154 1.079-.193.447-.047.81-.088 1.088-.125.279-.04.481-.099.607-.179.129-.083.194-.21.194-.383v-.029c0-.375-.111-.665-.333-.87-.222-.206-.542-.309-.96-.309-.441 0-.79.096-1.049.289-.255.192-.427.419-.517.681l-1.68-.239c.132-.464.351-.852.656-1.163.305-.315.678-.55 1.119-.706.44-.159.928-.239 1.461-.239.368 0 .734.043 1.099.129.365.087.698.229.999.428.302.196.544.462.726.8.186.339.279.761.279 1.268v5.111h-1.731v-1.049h-.059c-.11.212-.264.411-.463.597-.195.182-.442.329-.74.442-.295.109-.642.164-1.039.164zm.467-1.322c.361 0 .674-.072.94-.214.265-.146.469-.338.611-.577.146-.238.219-.499.219-.78v-.9c-.056.046-.153.089-.288.129-.133.04-.282.075-.448.104-.166.03-.33.057-.492.08-.163.023-.303.043-.423.06-.268.036-.508.096-.721.179-.212.083-.379.199-.502.348-.122.145-.184.334-.184.566 0 .332.121.582.363.751s.55.254.925.254zm7.174-3.306v4.474h-1.8v-7.636h1.72v1.297h.09c.176-.427.456-.767.84-1.019.388-.252.867-.378 1.437-.378.527 0 .986.113 1.377.338.394.226.699.552.915.98.219.427.326.946.323 1.556v4.862h-1.8v-4.584c0-.51-.132-.91-.397-1.198-.262-.288-.625-.432-1.089-.432-.315 0-.595.069-.84.208-.242.136-.433.333-.572.592-.136.258-.204.572-.204.94zm9.565 4.608c-.6 0-1.137-.154-1.61-.462-.474-.308-.849-.756-1.124-1.342-.275-.587-.413-1.3-.413-2.138 0-.849.14-1.565.418-2.148.282-.587.661-1.029 1.138-1.327.478-.302 1.01-.453 1.596-.453.448 0 .816.076 1.104.229.288.149.517.33.686.542.169.209.3.406.393.591h.074v-3.808h1.805v10.182h-1.77v-1.203h-.109c-.093.185-.227.383-.403.591-.176.206-.408.382-.696.527-.288.146-.651.219-1.089.219zm.502-1.476c.382 0 .706-.103.975-.309.268-.208.472-.498.611-.87.14-.371.209-.803.209-1.297s-.069-.923-.209-1.288c-.136-.364-.338-.648-.606-.85-.265-.202-.592-.303-.98-.303-.401 0-.735.104-1.004.313-.268.209-.47.497-.606.865s-.204.789-.204 1.263c0 .477.068.903.204 1.278.139.371.343.664.611.879.272.213.605.319.999.319zm10.88-8.84v10.182h-1.845v-10.182zm7.19 0v10.182h-1.8v-10.182zm1.85 10.182v-7.636h1.8v7.636zm.905-8.72c-.285 0-.53-.095-.736-.284-.205-.192-.308-.422-.308-.691 0-.271.103-.502.308-.691.206-.192.451-.288.736-.288.289 0 .534.096.736.288.205.189.308.42.308.691 0 .269-.103.499-.308.691-.202.189-.447.284-.736.284zm9.567 1.084-2.72 7.636h-1.988l-2.72-7.636h1.919l1.755 5.672h.08l1.76-5.672zm4.366 7.785c-.766 0-1.427-.159-1.984-.477-.553-.322-.979-.776-1.277-1.362-.299-.59-.448-1.285-.448-2.083 0-.786.149-1.475.448-2.069.301-.596.722-1.06 1.263-1.392.54-.334 1.174-.502 1.904-.502.47 0 .914.076 1.332.229.421.149.792.381 1.114.696.324.315.58.716.765 1.203.186.484.279 1.061.279 1.73v.552h-6.26v-1.213h4.535c-.004-.345-.078-.651-.224-.92-.146-.272-.35-.485-.612-.641-.258-.156-.56-.234-.905-.234-.367 0-.691.09-.969.269-.278.175-.495.407-.651.696-.153.285-.231.598-.234.939v1.059c0 .444.081.826.244 1.144.162.315.389.557.681.726.291.165.633.248 1.024.248.262 0 .499-.036.711-.109.212-.076.396-.187.552-.333s.273-.327.353-.542l1.68.189c-.106.444-.308.832-.606 1.163-.295.328-.673.583-1.134.766-.461.179-.988.268-1.581.268zm10.588.005c-.484 0-.919-.086-1.307-.258-.385-.176-.69-.435-.915-.776-.222-.341-.333-.762-.333-1.263 0-.431.079-.787.239-1.069.159-.281.376-.507.651-.676s.585-.296.93-.383c.348-.089.707-.154 1.078-.193.448-.047.811-.088 1.089-.125.279-.04.481-.099.607-.179.129-.083.194-.21.194-.383v-.029c0-.375-.111-.665-.334-.87-.222-.206-.541-.309-.959-.309-.441 0-.791.096-1.049.289-.255.192-.428.419-.517.681l-1.68-.239c.132-.464.351-.852.656-1.163.305-.315.678-.55 1.118-.706.441-.159.928-.239 1.462-.239.368 0 .734.043 1.099.129.364.087.697.229.999.428.302.196.544.462.726.8.185.339.278.761.278 1.268v5.111h-1.73v-1.049h-.059c-.11.212-.264.411-.463.597-.195.182-.442.329-.741.442-.295.109-.641.164-1.039.164zm.468-1.322c.361 0 .674-.072.939-.214.265-.146.469-.338.612-.577.146-.238.219-.499.219-.78v-.9c-.057.046-.153.089-.289.129-.132.04-.282.075-.447.104-.166.03-.33.057-.492.08-.163.023-.304.043-.423.06-.268.036-.509.096-.721.179s-.379.199-.502.348c-.123.145-.184.334-.184.566 0 .332.121.582.363.751s.55.254.925.254zm9.187-6.468v1.392h-4.39v-1.392zm-3.306-1.83h1.8v7.169c0 .242.036.428.109.557.076.126.176.212.298.258.123.047.259.07.408.07.113 0 .216-.008.308-.025.096-.016.169-.031.219-.045l.303 1.407c-.096.034-.233.07-.412.11-.176.04-.391.063-.647.069-.45.014-.856-.054-1.218-.203-.361-.153-.648-.388-.86-.706-.209-.319-.311-.716-.308-1.194zm8.637 9.466 4.33-8.571v-.07h-5.026v-1.541h6.935v1.576l-4.325 8.606zm6.84-1.889v-1.467l4.32-6.826h1.223v2.088h-.746l-2.908 4.609v.079h6.03v1.517zm4.857 1.889v-2.337l.02-.656v-7.189h1.74v10.182zm4.651 0v-1.332l3.535-3.466c.338-.341.619-.644.845-.909.225-.266.394-.522.507-.771s.169-.514.169-.795c0-.322-.073-.597-.219-.826-.146-.232-.346-.411-.601-.537-.256-.126-.546-.189-.87-.189-.335 0-.629.07-.88.209-.252.136-.448.33-.587.582-.136.252-.204.552-.204.9h-1.755c0-.647.148-1.208.443-1.686.295-.477.701-.846 1.218-1.108.52-.262 1.117-.393 1.789-.393.683 0 1.283.128 1.8.383s.918.605 1.203 1.049c.289.444.433.951.433 1.521 0 .381-.073.756-.219 1.124s-.403.775-.771 1.223c-.364.447-.876.989-1.536 1.625l-1.755 1.785v.07h4.435v1.541zm12.267 0v-10.182h6.622v1.546h-4.777v2.765h4.434v1.546h-4.434v2.779h4.817v1.546zm15.246-7.636-2.72 7.636h-1.989l-2.719-7.636h1.919l1.755 5.672h.08l1.76-5.672zm4.366 7.785c-.766 0-1.427-.159-1.984-.477-.553-.322-.979-.776-1.277-1.362-.299-.59-.448-1.285-.448-2.083 0-.786.149-1.475.448-2.069.301-.596.722-1.06 1.262-1.392.541-.334 1.175-.502 1.904-.502.471 0 .915.076 1.333.229.421.149.792.381 1.113.696.325.315.58.716.766 1.203.186.484.278 1.061.278 1.73v.552h-6.259v-1.213h4.534c-.003-.345-.078-.651-.223-.92-.146-.272-.35-.485-.612-.641-.258-.156-.56-.234-.905-.234-.368 0-.691.09-.969.269-.279.175-.496.407-.651.696-.153.285-.231.598-.234.939v1.059c0 .444.081.826.243 1.144.163.315.39.557.682.726.291.165.633.248 1.024.248.262 0 .499-.036.711-.109.212-.076.396-.187.552-.333.155-.146.273-.327.352-.542l1.681.189c-.106.444-.308.832-.607 1.163-.295.328-.672.583-1.133.766-.461.179-.988.268-1.581.268zm4.918-.149v-7.636h1.745v1.272h.08c.139-.44.377-.78.715-1.019.342-.242.731-.363 1.169-.363.099 0 .21.005.333.015.126.007.23.018.313.035v1.656c-.076-.027-.197-.05-.363-.07-.162-.023-.32-.035-.472-.035-.328 0-.623.071-.885.214-.259.139-.462.333-.612.582-.149.248-.223.535-.223.86v4.489zm8.557 3.023c-.646 0-1.201-.088-1.665-.264-.464-.172-.837-.404-1.119-.696-.281-.291-.477-.615-.586-.969l1.62-.393c.073.149.179.297.319.442.139.15.326.272.561.368.239.1.539.15.9.15.511 0 .933-.125 1.268-.373.335-.246.502-.65.502-1.213v-1.447h-.089c-.093.185-.229.376-.408.572-.176.195-.409.359-.701.492-.288.132-.651.199-1.089.199-.586 0-1.118-.138-1.596-.413-.474-.278-.852-.693-1.133-1.243-.279-.553-.418-1.246-.418-2.078 0-.839.139-1.546.418-2.123.281-.58.661-1.019 1.138-1.317.478-.302 1.009-.453 1.596-.453.448 0 .815.076 1.104.229.291.149.523.33.696.542.172.209.303.406.393.591h.099v-1.262h1.775v7.76c0 .653-.156 1.193-.467 1.621-.312.428-.738.747-1.278.96-.54.212-1.154.318-1.84.318zm.015-4.544c.381 0 .706-.093.975-.279.268-.185.472-.452.611-.8s.209-.766.209-1.253c0-.481-.07-.901-.209-1.263-.136-.361-.338-.641-.606-.84-.265-.202-.592-.303-.98-.303-.401 0-.736.104-1.004.313s-.471.495-.607.86c-.135.361-.203.772-.203 1.233 0 .467.068.877.203 1.228.14.348.344.62.612.815.272.193.605.289.999.289zm5.414 1.521v-7.636h1.745v1.272h.08c.139-.44.378-.78.716-1.019.341-.242.731-.363 1.168-.363.1 0 .211.005.333.015.126.007.231.018.313.035v1.656c-.076-.027-.197-.05-.362-.07-.163-.023-.32-.035-.473-.035-.328 0-.623.071-.885.214-.258.139-.462.333-.611.582-.149.248-.224.535-.224.86v4.489zm8.617.149c-.765 0-1.426-.159-1.983-.477-.554-.322-.98-.776-1.278-1.362-.298-.59-.447-1.285-.447-2.083 0-.786.149-1.475.447-2.069.302-.596.723-1.06 1.263-1.392.54-.334 1.175-.502 1.904-.502.471 0 .915.076 1.332.229.421.149.792.381 1.114.696.325.315.58.716.766 1.203.185.484.278 1.061.278 1.73v.552h-6.259v-1.213h4.534c-.004-.345-.078-.651-.224-.92-.146-.272-.35-.485-.611-.641-.259-.156-.561-.234-.905-.234-.368 0-.691.09-.97.269-.278.175-.495.407-.651.696-.152.285-.23.598-.234.939v1.059c0 .444.082.826.244 1.144.162.315.389.557.681.726.292.165.633.248 1.024.248.262 0 .499-.036.711-.109.212-.076.396-.187.552-.333s.273-.327.353-.542l1.68.189c-.106.444-.308.832-.606 1.163-.295.328-.673.583-1.134.766-.46.179-.987.268-1.581.268zm8.299 0c-.765 0-1.427-.159-1.983-.477-.554-.322-.98-.776-1.278-1.362-.298-.59-.448-1.285-.448-2.083 0-.786.15-1.475.448-2.069.301-.596.722-1.06 1.263-1.392.54-.334 1.175-.502 1.904-.502.47 0 .914.076 1.332.229.421.149.792.381 1.114.696.325.315.58.716.765 1.203.186.484.279 1.061.279 1.73v.552h-6.259v-1.213h4.534c-.004-.345-.078-.651-.224-.92-.146-.272-.35-.485-.612-.641-.258-.156-.56-.234-.904-.234-.368 0-.691.09-.97.269-.278.175-.495.407-.651.696-.153.285-.231.598-.234.939v1.059c0 .444.081.826.244 1.144.162.315.389.557.681.726.292.165.633.248 1.024.248.262 0 .499-.036.711-.109.212-.076.396-.187.552-.333s.273-.327.353-.542l1.68.189c-.106.444-.308.832-.606 1.163-.295.328-.673.583-1.134.766-.461.179-.988.268-1.581.268zm6.718-4.623v4.474h-1.8v-7.636h1.72v1.297h.09c.176-.427.456-.767.84-1.019.388-.252.867-.378 1.437-.378.527 0 .986.113 1.377.338.395.226.699.552.915.98.219.427.326.946.323 1.556v4.862h-1.8v-4.584c0-.51-.132-.91-.397-1.198-.262-.288-.625-.432-1.089-.432-.315 0-.595.069-.84.208-.242.136-.433.333-.572.592-.136.258-.204.572-.204.94zm-289.0172 19.838v-1.546h8.1236v1.546h-3.147v8.636h-1.8296v-8.636zm11.8834 8.785c-.7657 0-1.4269-.159-1.9837-.477-.5535-.322-.9794-.776-1.2777-1.362-.2983-.59-.4474-1.285-.4474-2.083 0-.786.1491-1.475.4474-2.069.3016-.596.7225-1.06 1.2628-1.392.5402-.334 1.1749-.502 1.9041-.502.4706 0 .9148.076 1.3324.229.4209.149.7919.381 1.1139.696.325.315.58.716.765 1.203.186.484.279 1.061.279 1.73v.552h-6.2595v-1.213h4.5345c-.004-.345-.078-.651-.2241-.92-.1458-.272-.3497-.485-.6115-.641-.2585-.156-.5601-.234-.9048-.234-.3679 0-.6911.09-.9695.269-.2784.175-.4955.407-.6513.696-.1524.285-.2303.598-.2336.939v1.059c0 .444.0812.826.2436 1.144.1624.315.3894.557.6811.726.2916.165.633.248 1.0241.248.2619 0 .4988-.036.711-.109.2121-.076.396-.187.5518-.333s.2732-.327.3532-.542l1.68.189c-.106.444-.308.832-.606 1.163-.295.328-.673.583-1.134.766-.4606.179-.9876.268-1.5808.268zm4.9178-.149v-7.636h1.745v1.272h.08c.139-.44.378-.78.716-1.019.341-.242.731-.363 1.168-.363.1 0 .211.005.333.015.126.007.231.018.313.035v1.656c-.076-.027-.197-.05-.363-.07-.162-.023-.319-.035-.472-.035-.328 0-.623.071-.885.214-.258.139-.462.333-.611.582-.149.248-.224.535-.224.86v4.489zm5.551 0v-7.636h1.745v1.272h.08c.139-.44.378-.78.716-1.019.341-.242.73-.363 1.168-.363.099 0 .21.005.333.015.126.007.23.018.313.035v1.656c-.076-.027-.197-.05-.363-.07-.162-.023-.32-.035-.472-.035-.328 0-.623.071-.885.214-.258.139-.462.333-.611.582-.15.248-.224.535-.224.86v4.489zm7.612.154c-.484 0-.92-.086-1.308-.258-.384-.176-.689-.435-.915-.776-.222-.341-.333-.762-.333-1.263 0-.431.08-.787.239-1.069.159-.281.376-.507.651-.676s.585-.296.93-.383c.348-.089.707-.154 1.079-.193.447-.047.81-.088 1.088-.125.279-.04.481-.099.607-.179.129-.083.194-.21.194-.383v-.029c0-.375-.111-.665-.333-.87-.222-.206-.542-.309-.96-.309-.441 0-.79.096-1.049.289-.255.192-.427.419-.517.681l-1.68-.239c.132-.464.351-.852.656-1.163.305-.315.678-.55 1.119-.706.44-.159.928-.239 1.461-.239.368 0 .734.043 1.099.129.365.087.698.229.999.428.302.196.544.462.726.8.186.339.279.761.279 1.268v5.111h-1.731v-1.049h-.059c-.11.212-.264.411-.463.597-.195.182-.442.329-.74.442-.295.109-.642.164-1.039.164zm.467-1.322c.361 0 .674-.072.94-.214.265-.146.469-.338.611-.577.146-.238.219-.499.219-.78v-.9c-.057.046-.153.089-.289.129-.132.04-.281.075-.447.104-.166.03-.33.057-.492.08-.163.023-.303.043-.423.06-.268.036-.509.096-.721.179s-.379.199-.502.348c-.122.145-.184.334-.184.566 0 .332.121.582.363.751s.55.254.925.254zm8.705 1.317c-.762 0-1.417-.167-1.964-.502-.543-.335-.962-.797-1.257-1.387-.292-.593-.438-1.276-.438-2.048 0-.776.149-1.46.448-2.054.298-.596.719-1.06 1.262-1.392.547-.334 1.194-.502 1.939-.502.62 0 1.169.115 1.646.343.48.226.863.545 1.148.96.285.411.448.891.487 1.442h-1.72c-.069-.368-.235-.675-.497-.92-.258-.249-.605-.373-1.039-.373-.368 0-.691.099-.969.298-.279.196-.496.477-.652.845-.152.368-.228.809-.228 1.323 0 .52.076.968.228 1.342.153.371.367.658.642.86.278.199.605.299.979.299.265 0 .502-.05.711-.15.212-.102.389-.25.532-.442s.24-.426.293-.701h1.72c-.043.54-.202 1.019-.477 1.437-.275.414-.649.739-1.123.974-.474.232-1.031.348-1.671.348zm8.13 0c-.766 0-1.427-.159-1.984-.477-.553-.322-.979-.776-1.277-1.362-.299-.59-.448-1.285-.448-2.083 0-.786.149-1.475.448-2.069.301-.596.722-1.06 1.262-1.392.541-.334 1.175-.502 1.905-.502.47 0 .914.076 1.332.229.421.149.792.381 1.114.696.324.315.58.716.765 1.203.186.484.279 1.061.279 1.73v.552h-6.26v-1.213h4.534c-.003-.345-.077-.651-.223-.92-.146-.272-.35-.485-.612-.641-.258-.156-.56-.234-.905-.234-.368 0-.691.09-.969.269-.278.175-.496.407-.651.696-.153.285-.231.598-.234.939v1.059c0 .444.081.826.244 1.144.162.315.389.557.681.726.291.165.633.248 1.024.248.262 0 .499-.036.711-.109.212-.076.396-.187.552-.333.155-.146.273-.327.353-.542l1.68.189c-.106.444-.308.832-.607 1.163-.295.328-.672.583-1.133.766-.461.179-.988.268-1.581.268zm7.031-1.541-.065.547c-.046.417-.129.842-.248 1.273-.116.434-.239.833-.368 1.198-.129.364-.234.651-.313.86h-1.213c.046-.202.109-.477.189-.825.082-.348.162-.74.238-1.174s.128-.875.154-1.322l.035-.557zm10.787-5.991c-.046-.434-.242-.772-.586-1.014-.342-.242-.786-.363-1.333-.363-.384 0-.714.058-.989.174s-.486.273-.632.472c-.145.199-.22.426-.223.681 0 .213.048.397.144.552.099.156.234.289.403.398.169.106.356.196.561.269.206.072.413.134.622.183l.954.239c.385.09.754.211 1.109.363.358.152.678.345.96.577.285.232.51.512.676.84.165.328.248.713.248 1.153 0 .597-.152 1.122-.457 1.576-.305.451-.746.804-1.323 1.059-.573.252-1.267.378-2.083.378-.792 0-1.48-.123-2.063-.368-.58-.245-1.034-.603-1.362-1.074-.325-.47-.501-1.044-.527-1.72h1.815c.026.355.135.65.328.885.192.235.442.411.75.527.312.116.66.174 1.044.174.401 0 .753-.06 1.054-.179.305-.122.544-.292.716-.507.173-.219.26-.474.264-.766-.004-.265-.081-.483-.234-.656-.152-.175-.366-.321-.641-.437-.272-.12-.59-.226-.955-.319l-1.158-.298c-.839-.215-1.502-.542-1.989-.979-.484-.441-.726-1.026-.726-1.755 0-.6.163-1.125.488-1.576.328-.451.773-.801 1.337-1.049.563-.252 1.201-.378 1.914-.378.723 0 1.356.126 1.899.378.547.248.976.595 1.288 1.039.311.441.472.948.482 1.521zm3.479 10.247v-10.5h1.77v1.262h.104c.093-.185.224-.382.393-.591.169-.212.398-.393.686-.542.289-.153.656-.229 1.104-.229.59 0 1.122.151 1.596.453.477.298.855.74 1.133 1.327.282.583.423 1.299.423 2.148 0 .838-.138 1.551-.413 2.138-.275.586-.649 1.034-1.123 1.342s-1.011.462-1.611.462c-.438 0-.801-.073-1.089-.219-.288-.145-.52-.321-.696-.527-.172-.208-.307-.406-.403-.591h-.074v4.067zm1.765-6.682c0 .494.07.926.209 1.297.142.372.346.662.611.87.269.206.594.309.975.309.397 0 .731-.106.999-.319.268-.215.471-.508.607-.879.139-.375.208-.801.208-1.278 0-.474-.068-.895-.204-1.263-.135-.368-.338-.656-.606-.865-.269-.209-.603-.313-1.004-.313-.385 0-.711.101-.98.303-.268.202-.472.486-.611.85-.136.365-.204.794-.204 1.288zm6.985 3.818v-7.636h1.745v1.272h.08c.139-.44.377-.78.716-1.019.341-.242.73-.363 1.168-.363.099 0 .21.005.333.015.126.007.23.018.313.035v1.656c-.076-.027-.197-.05-.363-.07-.162-.023-.32-.035-.472-.035-.328 0-.623.071-.885.214-.259.139-.462.333-.612.582-.149.248-.223.535-.223.86v4.489zm5.551 0v-7.636h1.8v7.636zm.905-8.72c-.285 0-.531-.095-.736-.284-.206-.192-.308-.422-.308-.691 0-.271.102-.502.308-.691.205-.192.451-.288.736-.288.288 0 .533.096.735.288.206.189.309.42.309.691 0 .269-.103.499-.309.691-.202.189-.447.284-.735.284zm4.545 4.246v4.474h-1.8v-7.636h1.72v1.297h.09c.176-.427.456-.767.84-1.019.388-.252.867-.378 1.437-.378.527 0 .986.113 1.377.338.394.226.699.552.915.98.219.427.326.946.323 1.556v4.862h-1.8v-4.584c0-.51-.132-.91-.398-1.198-.261-.288-.624-.432-1.088-.432-.315 0-.595.069-.841.208-.241.136-.432.333-.571.592-.136.258-.204.572-.204.94zm10.052 7.497c-.646 0-1.201-.088-1.665-.264-.464-.172-.837-.404-1.119-.696-.281-.291-.477-.615-.586-.969l1.62-.393c.073.149.179.297.319.442.139.15.326.272.561.368.239.1.539.15.9.15.511 0 .933-.125 1.268-.373.335-.246.502-.65.502-1.213v-1.447h-.089c-.093.185-.229.376-.408.572-.176.195-.409.359-.701.492-.288.132-.651.199-1.089.199-.586 0-1.118-.138-1.596-.413-.474-.278-.851-.693-1.133-1.243-.279-.553-.418-1.246-.418-2.078 0-.839.139-1.546.418-2.123.282-.58.661-1.019 1.138-1.317.478-.302 1.01-.453 1.596-.453.448 0 .816.076 1.104.229.292.149.524.33.696.542.172.209.303.406.393.591h.099v-1.262h1.775v7.76c0 .653-.156 1.193-.467 1.621-.312.428-.738.747-1.278.96-.54.212-1.153.318-1.84.318zm.015-4.544c.382 0 .706-.093.975-.279.268-.185.472-.452.611-.8.14-.348.209-.766.209-1.253 0-.481-.069-.901-.209-1.263-.136-.361-.338-.641-.606-.84-.265-.202-.592-.303-.98-.303-.401 0-.735.104-1.004.313-.268.209-.471.495-.606.86-.136.361-.204.772-.204 1.233 0 .467.068.877.204 1.228.139.348.343.62.611.815.272.193.605.289.999.289zm9.282-6.115v1.392h-4.514v-1.392zm-3.385 7.636v-8.357c0-.514.106-.942.318-1.283.215-.341.504-.597.865-.766s.762-.253 1.203-.253c.312 0 .588.025.83.074.242.05.421.095.537.135l-.358 1.392c-.076-.023-.172-.047-.288-.07-.116-.026-.245-.04-.388-.04-.335 0-.572.082-.711.244-.136.159-.204.388-.204.686v8.238zm4.795 0v-7.636h1.8v7.636zm.905-8.72c-.285 0-.531-.095-.736-.284-.206-.192-.308-.422-.308-.691 0-.271.102-.502.308-.691.205-.192.451-.288.736-.288.288 0 .533.096.735.288.206.189.309.42.309.691 0 .269-.103.499-.309.691-.202.189-.447.284-.735.284zm6.126 8.869c-.766 0-1.427-.159-1.984-.477-.553-.322-.979-.776-1.277-1.362-.299-.59-.448-1.285-.448-2.083 0-.786.149-1.475.448-2.069.301-.596.722-1.06 1.262-1.392.541-.334 1.175-.502 1.904-.502.471 0 .915.076 1.333.229.421.149.792.381 1.113.696.325.315.58.716.766 1.203.186.484.278 1.061.278 1.73v.552h-6.259v-1.213h4.534c-.003-.345-.078-.651-.223-.92-.146-.272-.35-.485-.612-.641-.258-.156-.56-.234-.905-.234-.368 0-.691.09-.969.269-.279.175-.496.407-.651.696-.153.285-.231.598-.234.939v1.059c0 .444.081.826.243 1.144.163.315.39.557.682.726.291.165.633.248 1.024.248.262 0 .499-.036.711-.109.212-.076.396-.187.552-.333.155-.146.273-.327.352-.542l1.681.189c-.106.444-.308.832-.607 1.163-.295.328-.672.583-1.133.766-.461.179-.988.268-1.581.268zm6.718-10.331v10.182h-1.8v-10.182zm4.684 10.316c-.6 0-1.137-.154-1.611-.462s-.848-.756-1.123-1.342c-.275-.587-.413-1.3-.413-2.138 0-.849.139-1.565.418-2.148.282-.587.661-1.029 1.138-1.327.478-.302 1.01-.453 1.596-.453.448 0 .816.076 1.104.229.288.149.517.33.686.542.169.209.3.406.393.591h.074v-3.808h1.805v10.182h-1.77v-1.203h-.109c-.093.185-.227.383-.403.591-.176.206-.408.382-.696.527-.288.146-.651.219-1.089.219zm.502-1.476c.381 0 .706-.103.975-.309.268-.208.472-.498.611-.87.139-.371.209-.803.209-1.297s-.07-.923-.209-1.288c-.136-.364-.338-.648-.606-.85-.265-.202-.592-.303-.98-.303-.401 0-.735.104-1.004.313-.268.209-.471.497-.606.865-.136.368-.204.789-.204 1.263 0 .477.068.903.204 1.278.139.371.343.664.611.879.272.213.605.319.999.319zm15.453-8.84h1.845v6.652c0 .729-.173 1.371-.517 1.924-.342.554-.822.986-1.442 1.298-.62.308-1.344.462-2.173.462-.832 0-1.557-.154-2.177-.462-.62-.312-1.101-.744-1.442-1.298-.341-.553-.512-1.195-.512-1.924v-6.652h1.844v6.498c0 .424.093.802.279 1.134.189.331.454.591.795.78.342.186.746.279 1.213.279.468 0 .872-.093 1.213-.279.345-.189.61-.449.796-.78.185-.332.278-.71.278-1.134zm9.383 2.799c-.046-.434-.242-.772-.587-1.014-.341-.242-.785-.363-1.332-.363-.385 0-.714.058-.989.174-.276.116-.486.273-.632.472s-.22.426-.224.681c0 .213.048.397.145.552.099.156.233.289.402.398.169.106.357.196.562.269.206.072.413.134.622.183l.954.239c.385.09.754.211 1.109.363.358.152.678.345.959.577.285.232.511.512.676.84.166.328.249.713.249 1.153 0 .597-.152 1.122-.457 1.576-.305.451-.746.804-1.323 1.059-.573.252-1.268.378-2.083.378-.792 0-1.48-.123-2.063-.368-.58-.245-1.034-.603-1.362-1.074-.325-.47-.501-1.044-.527-1.72h1.814c.027.355.136.65.328.885.193.235.443.411.751.527.312.116.66.174 1.044.174.401 0 .753-.06 1.054-.179.305-.122.544-.292.716-.507.172-.219.26-.474.264-.766-.004-.265-.082-.483-.234-.656-.153-.175-.366-.321-.641-.437-.272-.12-.59-.226-.955-.319l-1.158-.298c-.839-.215-1.502-.542-1.989-.979-.484-.441-.726-1.026-.726-1.755 0-.6.163-1.125.487-1.576.328-.451.774-.801 1.338-1.049.563-.252 1.201-.378 1.914-.378.722 0 1.355.126 1.899.378.547.248.976.595 1.288 1.039.311.441.472.948.482 1.521zm4.702 7.383h-1.969l3.585-10.182h2.277l3.589 10.182h-1.969l-2.719-8.094h-.08zm.064-3.992h5.37v1.481h-5.37zm8.77-6.19v1.014c0 .292-.056.595-.169.91-.109.312-.26.61-.452.895-.192.282-.411.524-.656.726l-.836-.542c.183-.275.342-.572.478-.89.136-.321.204-.684.204-1.089v-1.024zm2.511 0v1.014c0 .292-.056.595-.169.91-.109.312-.26.61-.452.895-.193.282-.41.524-.652.726l-.835-.542c.179-.275.336-.572.472-.89.136-.321.204-.684.204-1.089v-1.024z" fill="#3f4d62"/><rect fill="url(#a)" height="71" rx="4" width="234" x="118" y="299"/><path d="m192.812 339.5h-1.969l3.585-10.182h2.277l3.589 10.182h-1.969l-2.719-8.094h-.08zm.064-3.992h5.37v1.481h-5.37zm10.604-6.19v10.182h-1.845v-10.182zm5.47 10.182v-10.182h6.522v1.546h-4.678v2.765h4.231v1.546h-4.231v4.325zm10.894.149c-.746 0-1.392-.164-1.939-.492s-.971-.787-1.273-1.377c-.298-.59-.448-1.28-.448-2.068 0-.789.15-1.48.448-2.074.302-.593.726-1.053 1.273-1.382.547-.328 1.193-.492 1.939-.492.745 0 1.392.164 1.938.492.547.329.97.789 1.268 1.382.302.594.453 1.285.453 2.074 0 .788-.151 1.478-.453 2.068-.298.59-.721 1.049-1.268 1.377-.546.328-1.193.492-1.938.492zm.01-1.442c.404 0 .742-.111 1.014-.333.272-.225.474-.527.606-.905.136-.377.204-.798.204-1.262 0-.468-.068-.89-.204-1.268-.132-.381-.334-.685-.606-.91s-.61-.338-1.014-.338c-.415 0-.759.113-1.035.338-.271.225-.475.529-.611.91-.133.378-.199.8-.199 1.268 0 .464.066.885.199 1.262.136.378.34.68.611.905.276.222.62.333 1.035.333zm5.176 1.293v-7.636h1.745v1.272h.08c.139-.44.378-.78.716-1.019.341-.242.73-.363 1.168-.363.099 0 .21.005.333.015.126.007.23.018.313.035v1.656c-.076-.027-.197-.05-.363-.07-.162-.023-.319-.035-.472-.035-.328 0-.623.071-.885.214-.258.139-.462.333-.611.582-.15.248-.224.535-.224.86v4.489zm5.551 0v-7.636h1.72v1.297h.09c.159-.437.422-.779.79-1.024.368-.249.807-.373 1.318-.373.517 0 .952.126 1.307.378.358.249.61.588.756 1.019h.079c.169-.424.454-.762.855-1.014.405-.255.884-.383 1.437-.383.703 0 1.276.222 1.72.666.445.445.667 1.092.667 1.944v5.126h-1.805v-4.847c0-.474-.126-.821-.378-1.039-.252-.222-.56-.333-.925-.333-.434 0-.774.135-1.019.407-.242.269-.363.618-.363 1.049v4.763h-1.765v-4.922c0-.394-.119-.709-.358-.944-.235-.236-.543-.353-.924-.353-.259 0-.494.066-.706.198-.212.13-.381.314-.507.552-.126.236-.189.511-.189.826v4.643zm16.117 0v-10.182h6.522v1.546h-4.678v2.765h4.231v1.546h-4.231v4.325zm8.123 0v-7.636h1.8v7.636zm.905-8.72c-.285 0-.53-.095-.736-.284-.205-.192-.308-.422-.308-.691 0-.271.103-.502.308-.691.206-.192.451-.288.736-.288.288 0 .534.096.736.288.205.189.308.42.308.691 0 .269-.103.499-.308.691-.202.189-.448.284-.736.284zm4.545-1.462v10.182h-1.799v-10.182zm3.651 0v10.182h-1.8v-10.182zm5.231 10.331c-.766 0-1.427-.159-1.984-.477-.553-.322-.979-.776-1.277-1.362-.299-.59-.448-1.285-.448-2.083 0-.786.149-1.475.448-2.069.301-.596.722-1.06 1.262-1.392.541-.334 1.175-.502 1.905-.502.47 0 .914.076 1.332.229.421.149.792.381 1.114.696.324.315.58.716.765 1.203.186.484.279 1.061.279 1.73v.552h-6.26v-1.213h4.535c-.004-.345-.078-.651-.224-.92-.146-.272-.35-.485-.612-.641-.258-.156-.56-.234-.905-.234-.367 0-.691.09-.969.269-.278.175-.496.407-.651.696-.153.285-.231.598-.234.939v1.059c0 .444.081.826.244 1.144.162.315.389.557.681.726.291.165.633.248 1.024.248.262 0 .499-.036.711-.109.212-.076.396-.187.552-.333.155-.146.273-.327.353-.542l1.68.189c-.106.444-.308.832-.606 1.163-.295.328-.673.583-1.134.766-.461.179-.988.268-1.581.268zm4.918-.149v-7.636h1.745v1.272h.08c.139-.44.378-.78.716-1.019.341-.242.731-.363 1.168-.363.099 0 .21.005.333.015.126.007.23.018.313.035v1.656c-.076-.027-.197-.05-.363-.07-.162-.023-.319-.035-.472-.035-.328 0-.623.071-.885.214-.258.139-.462.333-.611.582-.15.248-.224.535-.224.86v4.489z" fill="#fff"/><g fill="#657892"><path d="m116.707 333.707c.391-.39.391-1.024 0-1.414l-6.364-6.364c-.39-.391-1.024-.391-1.414 0-.391.39-.391 1.024 0 1.414l5.657 5.657-5.657 5.657c-.391.39-.391 1.024 0 1.414.39.391 1.024.391 1.414 0zm-80.707-220.707v212h2v-212zm9 221h71v-2h-71zm-9-9c0 4.971 4.0295 9 9 9v-2c-3.866 0-7-3.134-7-7z"/><path d="m234.293 412.847c.39.391 1.024.391 1.414 0l6.364-6.364c.391-.39.391-1.024 0-1.414-.39-.391-1.024-.391-1.414 0l-5.657 5.657-5.657-5.657c-.39-.391-1.024-.391-1.414 0-.391.39-.391 1.024 0 1.414zm1.707-.707v-42.14h-2v42.14z"/><path d="m234.293 296.867c.39.391 1.024.391 1.414 0l6.364-6.364c.391-.39.391-1.024 0-1.414-.39-.391-1.024-.391-1.414 0l-5.657 5.657-5.657-5.657c-.39-.391-1.024-.391-1.414 0-.391.39-.391 1.024 0 1.414zm1.707-.707v-41.16h-2v41.16z"/></g></g></svg>