<?xml version="1.0" encoding="UTF-8" standalone="no"?>
<!-- Created with Inkscape (http://www.inkscape.org/) -->

<svg
   xmlns:dc="http://purl.org/dc/elements/1.1/"
   xmlns:cc="http://creativecommons.org/ns#"
   xmlns:rdf="http://www.w3.org/1999/02/22-rdf-syntax-ns#"
   xmlns:svg="http://www.w3.org/2000/svg"
   xmlns="http://www.w3.org/2000/svg"
   xmlns:sodipodi="http://sodipodi.sourceforge.net/DTD/sodipodi-0.dtd"
   xmlns:inkscape="http://www.inkscape.org/namespaces/inkscape"
   width="332.39233"
   height="80.517258"
   id="svg1901"
   sodipodi:version="0.32"
   inkscape:version="0.48.4 r9939"
   sodipodi:docname="Uusi asiakirja 3"
   version="1.1">
  <defs
     id="defs1903" />
  <sodipodi:namedview
     id="base"
     pagecolor="#ffffff"
     bordercolor="#666666"
     borderopacity="1.0"
     inkscape:pageopacity="0.0"
     inkscape:pageshadow="2"
     inkscape:zoom="0.35"
     inkscape:cx="166.19617"
     inkscape:cy="40.258629"
     inkscape:document-units="px"
     inkscape:current-layer="layer1"
     inkscape:window-width="877"
     inkscape:window-height="739"
     inkscape:window-x="177"
     inkscape:window-y="0"
     showgrid="false"
     fit-margin-top="0"
     fit-margin-left="0"
     fit-margin-right="0"
     fit-margin-bottom="0"
     inkscape:window-maximized="0" />
  <metadata
     id="metadata1906">
    <rdf:RDF>
      <cc:Work
         rdf:about="">
        <dc:format>image/svg+xml</dc:format>
        <dc:type
           rdf:resource="http://purl.org/dc/dcmitype/StillImage" />
        <dc:title></dc:title>
      </cc:Work>
    </rdf:RDF>
  </metadata>
  <g
     inkscape:label="Taso 1"
     inkscape:groupmode="layer"
     id="layer1"
     transform="translate(-183.80383,-492.10356)">
    <g
       id="g4553"
       transform="matrix(0,-1.4359875,-1.4359875,0,372.64624,508.77968)">
      <path
         inkscape:connector-curvature="0"
         d="m 0,0 c -2.402,0 -3.615,1.875 -3.615,3.615 l 0,0.4 c 0,1.74 1.213,3.614 3.615,3.614 l 0.54,0 c 2.403,0 3.615,-1.874 3.615,-3.614 l 0,-0.4 C 4.155,1.875 2.943,0 0.54,0 L 0,0 z m -24.115,74.226 c -0.262,-2.039 -1.979,-3.069 -3.581,-3.069 -1.74,0 -3.615,1.213 -3.615,3.615 l 0,3.07 c 0,1.268 0.707,2.412 1.731,3.059 -1.201,2.022 -1.888,4.393 -1.888,6.951 0,7.211 6.021,13.317 13.318,13.317 7.483,0 13.778,-5.831 13.778,-13.471 0,-7.284 -5.824,-13.359 -13.116,-13.471 l -6.627,-0.001 z m 6.329,7.423 c 3.282,0 5.96,2.731 5.96,6.049 0,3.394 -2.798,6.049 -6.226,6.049 -3.252,0 -5.961,-2.744 -5.961,-5.96 0,-3.457 2.771,-6.138 6.227,-6.138 z m 6.04,-54.21 c 0,3.282 -2.732,5.96 -6.05,5.96 -3.395,0 -6.049,-2.798 -6.049,-6.226 0,-3.252 2.745,-5.961 5.96,-5.961 3.457,0 6.139,2.772 6.139,6.227 z m -12.31,-13.682 c -0.261,-2.04 -1.978,-3.069 -3.581,-3.069 -1.74,0 -3.615,1.213 -3.615,3.615 l 0,3.069 c 0,1.29 0.731,2.452 1.785,3.094 -1.139,1.95 -1.8,4.21 -1.8,6.61 0,7.483 5.832,13.777 13.471,13.777 7.351,0 13.472,-5.93 13.472,-13.316 0,-2.366 -0.577,-4.598 -1.607,-6.55 l 7.027,0 c 2.402,0 3.256,-1.875 3.256,-3.615 0,-1.74 -0.854,-3.615 -3.256,-3.615 l -25.152,0 z m -5.33,106.271 17.582,7.397 0,0.463 c 0,2.405 1.877,3.619 3.619,3.619 1.742,0 3.619,-1.214 3.619,-3.619 l 0,-2.867 c 0,-1.534 -0.995,-2.841 -2.229,-3.341 l -14.849,-5.666 14.873,-5.678 c 1.15,-0.514 2.205,-1.768 2.205,-3.331 l 0,-2.866 c 0,-2.405 -1.877,-3.619 -3.619,-3.619 -1.742,0 -3.619,1.214 -3.619,3.619 l 0,0.463 -17.582,7.396 c -1.186,0.511 -2.211,1.427 -2.211,4.006 0,2.593 1.021,3.512 2.211,4.024 z m 5.271,-75.71 c -0.262,-2.039 -1.979,-3.068 -3.581,-3.068 -1.74,0 -3.615,1.212 -3.615,3.615 l 0,3.068 c 0,1.269 0.707,2.412 1.731,3.059 -1.201,2.023 -1.888,4.394 -1.888,6.952 0,7.211 6.021,13.317 13.318,13.317 7.483,0 13.778,-5.831 13.778,-13.471 0,-7.284 -5.824,-13.36 -13.116,-13.471 l -6.627,-0.001 z m 6.329,7.422 c 3.282,0 5.96,2.732 5.96,6.05 0,3.394 -2.798,6.049 -6.226,6.049 -3.252,0 -5.961,-2.744 -5.961,-5.961 0,-3.456 2.771,-6.138 6.227,-6.138 z m 1.277,-66.322 -11.774,0.017 c -2.402,0 -3.028,1.749 -3.028,4.036 0,1.739 0.626,3.614 3.028,3.614 0.233,0.017 15.879,0.025 15.879,0.025 0.26,2.041 1.978,3.069 3.581,3.069 1.74,0 3.615,-1.212 3.615,-3.614 l 0,-3.07 c 0,-1.252 -0.692,-2.39 -1.704,-3.042 1.702,-2.089 2.604,-5.015 2.604,-7.777 0,-7.72 -5.675,-12.467 -12.722,-12.489 l -7.073,-0.006 c -0.261,-2.041 -1.979,-3.07 -3.582,-3.07 -1.74,0 -3.615,1.213 -3.615,3.615 l 0,3.469 c 0,1.946 1.669,3.615 3.615,3.615 l 0.969,0 10.103,-0.004 c 3.199,0 5.663,2.093 5.663,5.868 0,3.014 -2.509,5.744 -5.559,5.744 z m -14.802,15.301 0,3.068 c 0,1.947 1.669,3.616 3.615,3.616 l 18.91,0 c 2.402,0 3.615,-1.875 3.615,-3.616 l 0,-0.399 c 0,-1.74 -1.213,-3.615 -3.615,-3.615 l -15.329,0 c -0.26,-2.04 -1.978,-3.069 -3.581,-3.069 -1.74,0 -3.615,1.212 -3.615,3.615 l 0,0.4"
         style="fill:#231f20;fill-opacity:1;fill-rule:evenodd;stroke:none"
         id="path4555" />
    </g>
    <g
       id="g4557"
       transform="matrix(0,-1.4359875,-1.4359875,0,513.36152,537.43481)">
      <path
         inkscape:connector-curvature="0"
         d="m 0,0 -6.604,19.561 -0.413,0 c -2.147,0 -3.231,1.676 -3.231,3.231 0,1.555 1.084,3.231 3.231,3.231 l 2.559,0 c 1.37,0 2.536,-0.888 2.983,-1.99 L 3.584,6.912 8.653,24.055 c 0.459,1.025 1.578,1.968 2.974,1.968 l 2.559,0 c 2.147,0 3.231,-1.676 3.231,-3.231 0,-1.555 -1.084,-3.231 -3.231,-3.231 l -0.414,0 L 7.169,0 C 6.713,-1.059 5.895,-1.974 3.592,-1.974 1.277,-1.974 0.458,-1.062 0,0 z m -15.199,43.901 12.405,0 c 5.645,0 6.079,-4.341 6.265,-6.512 0.31,2.171 0.744,6.512 6.388,6.512 l 12.406,0 c 2.605,0 3.721,1.178 3.721,2.915 l 0,1.552 c 0,1.612 0.868,2.79 2.791,2.79 1.799,0 2.791,-1.178 2.791,-2.79 l 0,-4.591 c 0,-5.396 -2.543,-8.063 -8.249,-8.063 l -12.654,0 c -3.783,0 -4.155,-1.612 -4.155,-3.164 0,-2.047 -1.488,-2.977 -2.977,-2.977 -1.489,0 -2.978,0.93 -2.978,2.977 0,1.552 -0.371,3.164 -4.155,3.164 l -12.653,0 c -5.707,0 -8.25,2.667 -8.25,8.063 l 0,4.591 c 0,1.612 0.992,2.79 2.791,2.79 1.923,0 2.792,-1.178 2.792,-2.79 l 0,-1.552 c 0,-1.737 1.115,-2.915 3.721,-2.915"
         style="fill:#49c2f1;fill-opacity:1;fill-rule:nonzero;stroke:none"
         id="path4559" />
    </g>
  </g>
</svg>
