<svg height="37mm" width="82mm" xmlns="http://www.w3.org/2000/svg"><g transform="translate(-100.76772 -457.16354)"><path d="m155.19522 484.80132h81.87171" fill="none" stroke="#000"/><path d="m155.19522 520.23439h81.87171" fill="none" stroke="#000"/><path d="m263.3064 534.21016v14.37069" fill="none" stroke="#2d3538" stroke-width="1.062992"/><path d="m161.24012 502.51782a28.346416 28.346416 0 0 1 -28.34641 28.34642 28.346416 28.346416 0 0 1 -28.34642-28.34642 28.346416 28.346416 0 0 1 28.34642-28.34641 28.346416 28.346416 0 0 1 28.34641 28.34641z" fill="none" stroke="#2d3538" stroke-width="1.02935"/><path d="m157.98522 484.80133a2.8741407 2.8741407 0 0 1 -2.87414 2.87414 2.8741407 2.8741407 0 0 1 -2.87414-2.87414 2.8741407 2.8741407 0 0 1 2.87414-2.87414 2.8741407 2.8741407 0 0 1 2.87414 2.87414z" fill="#00b6f3"/><path d="m157.98522 520.23437a2.8741407 2.8741407 0 0 1 -2.87414 2.87415 2.8741407 2.8741407 0 0 1 -2.87414-2.87415 2.8741407 2.8741407 0 0 1 2.87414-2.87414 2.8741407 2.8741407 0 0 1 2.87414 2.87414z" fill="#ff3849"/><g fill="#2d3538"><path d="m234.29078 502.51788a2.8741407 2.8741407 0 0 1 -2.87414 2.87414 2.8741407 2.8741407 0 0 1 -2.87414-2.87414 2.8741407 2.8741407 0 0 1 2.87414-2.87414 2.8741407 2.8741407 0 0 1 2.87414 2.87414z"/><path d="m163.97602 502.51788a2.8741407 2.8741407 0 0 1 -2.87414 2.87414 2.8741407 2.8741407 0 0 1 -2.87414-2.87414 2.8741407 2.8741407 0 0 1 2.87414-2.87414 2.8741407 2.8741407 0 0 1 2.87414 2.87414z"/><g transform="matrix(.40557321 0 0 .40557321 154.76799 473.87796)"><path d="m14.497999 0 4.345701-12.944642h-1.534864l-3.513546 11.2248538-3.55053-11.2248538-1.4793881.018492-3.5135457 11.2063618-3.5505304-11.2248538h-1.59034173l4.32720893 12.944642h1.5163724l3.532038-10.910484 3.4950536 10.910484z"/><path d="m23.51764-9.7824509c-2.829329 0-4.826502 2.0156657-4.826502 4.918964 0 2.9032982 1.978681 4.91896394 4.844994 4.91896394 1.627327 0 2.99576-.59175507 3.920378-1.62732644l-.795171-.8506479c-.758186.7951709-1.81225 1.2204948-3.014253 1.2204948-1.886219 0-3.273145-1.2020025-3.532038-3.1067141h7.951709c.147939-3.3101299-1.405418-5.4922267-4.549117-5.4737343zm-3.402592 4.2902242c.221909-1.8492346 1.553357-3.0512371 3.402592-3.0512371 1.904712 0 3.162191 1.1835102 3.254653 3.0512371z"/><path d="m35.83152-9.8009433c-1.701296 0-3.032745.7951709-3.753946 2.1636045v-6.0839822h-1.442403v13.721321h1.442403v-2.0896351c.721201 1.34994127 2.05265 2.14511214 3.790931 2.14511214 2.755359 0 4.641579-2.01566574 4.641579-4.90047164 0-2.9217906-1.923204-4.9559487-4.678564-4.9559487zm-.258893 8.5434638c-2.05265 0-3.495053-1.49788-3.495053-3.6244998 0-2.1081274 1.442403-3.6244998 3.495053-3.6244998 2.034158 0 3.476561 1.5348647 3.476561 3.6244998 0 2.1081274-1.442403 3.6244998-3.476561 3.6244998z"/><path d="m7.4894001 5.5107191c-3.7539462 0-6.74970627 2.8663136-6.74970627 6.4908129 0 3.661485 2.95877537 6.564783 6.69422917 6.564783 1.7937576 0 3.532038-.795171 4.80801-1.997173l-.906125-1.017079c-1.017079.961602-2.404005 1.553357-3.8279156 1.553357-2.9217906 0-5.2703186-2.274559-5.2703186-5.103888 0-2.8478208 2.348528-5.103887 5.2703186-5.103887 1.4239106 0 2.8293286.6102474 3.8279156 1.6273264l.887633-1.1280331c-1.238988-1.1650178-2.9587757-1.8862192-4.7340409-1.8862192z"/><path d="m18.319269 8.7098949c-2.884806 0-4.937456 1.9971731-4.937456 4.9004721 0 2.92179 2.05265 4.937456 4.937456 4.937456s4.937456-2.015666 4.937456-4.937456c0-2.903299-2.05265-4.9004721-4.937456-4.9004721zm0 1.3129561c2.034158 0 3.495053 1.479388 3.495053 3.606008 0 2.145112-1.460895 3.6245-3.495053 3.6245s-3.495053-1.479388-3.495053-3.6245c0-2.12662 1.460895-3.606008 3.495053-3.606008z"/><path d="m38.257485 8.6914025c-1.867726.0184924-3.23616.8321556-3.846407 2.5519435-.406832-1.6088338-1.664312-2.5519435-3.495054-2.5519435-1.756773.0184924-3.069729.7396939-3.716961 2.2560665v-2.2005894h-1.423911v9.7454664h1.423911v-4.789518c0-2.089635 1.202002-3.532038 3.199176-3.587515 1.701295 0 2.699882 1.017079 2.699882 2.75536v5.621673h1.460895v-4.789518c0-2.089635 1.165018-3.532038 3.180684-3.587515 1.682803 0 2.699882 1.017079 2.699882 2.75536v5.621673h1.442403v-6.010013c0-2.348527-1.349941-3.7909305-3.6245-3.7909305z"/><path d="m50.387018 8.6914025c-1.701296 0-3.032744.7951709-3.753946 2.1636045v-2.1081274h-1.442403v13.3329814h1.442403v-5.67715c.721202 1.349941 2.05265 2.145112 3.790931 2.145112 2.755359 0 4.641579-2.015666 4.641579-4.900472 0-2.92179-1.923204-4.9559485-4.678564-4.9559485zm-.258893 8.5434635c-2.05265 0-3.495053-1.49788-3.495053-3.624499 0-2.108128 1.442403-3.6245003 3.495053-3.6245003 2.034158 0 3.476561 1.5348643 3.476561 3.6245003 0 2.108127-1.442403 3.624499-3.476561 3.624499z"/><path d="m61.55235 8.7098949c-2.884806 0-4.937457 1.9971731-4.937457 4.9004721 0 2.92179 2.052651 4.937456 4.937457 4.937456s4.937456-2.015666 4.937456-4.937456c0-2.903299-2.05265-4.9004721-4.937456-4.9004721zm0 1.3129561c2.034158 0 3.495053 1.479388 3.495053 3.606008 0 2.145112-1.460895 3.6245-3.495053 3.6245s-3.495054-1.479388-3.495054-3.6245c0-2.12662 1.460896-3.606008 3.495054-3.606008z"/><path d="m74.223072 8.6914025c-1.775266.0184924-3.088222.7212015-3.772439 2.2005895v-2.1451124h-1.442403v9.7454664h1.442403v-5.233334c.166431-1.849235 1.349941-3.106714 3.273145-3.125206 1.719788 0 2.75536 1.017079 2.75536 2.736867v5.621673h1.442403v-6.010013c0-2.348527-1.368434-3.7909305-3.698469-3.7909305z"/><path d="m84.990243 8.7098949c-2.829329 0-4.826502 2.0156661-4.826502 4.9189641s1.978681 4.918964 4.844994 4.918964c1.627327 0 2.99576-.591755 3.920378-1.627327l-.795171-.850647c-.758187.79517-1.81225 1.220494-3.014253 1.220494-1.886219 0-3.273145-1.202002-3.532038-3.106714h7.951709c.147939-3.31013-1.405418-5.4922265-4.549117-5.4737341zm-3.402592 4.2902241c.221908-1.849234 1.553357-3.051237 3.402592-3.051237 1.904711 0 3.162191 1.18351 3.254653 3.051237z"/><path d="m97.230152 8.6914025c-1.775266.0184924-3.088222.7212015-3.772439 2.2005895v-2.1451124h-1.442403v9.7454664h1.442403v-5.233334c.166431-1.849235 1.349941-3.106714 3.273145-3.125206 1.719788 0 2.75536 1.017079 2.75536 2.736867v5.621673h1.442402v-6.010013c0-2.348527-1.368433-3.7909305-3.698468-3.7909305z"/><path d="m108.774 16.661604c-.53628.332862-1.05406.499293-1.55336.499293-.83215 0-1.29446-.443816-1.29446-1.627327v-5.307303h3.08822v-1.1835099l-3.08822.018492v-2.570436h-1.42391v2.570436h-1.40542v1.1650176h1.40542v5.566196c0 1.923204 1.05406 2.773852 2.47797 2.773852.77668-.01849 1.51638-.277385 2.20059-.739694z"/><path d="m113.96342 8.6914025c-1.77527 0-3.3841.7766786-3.3841 2.6444055-.0185 3.458069 5.43675 2.256066 5.38127 4.604594-.0185.961602-.94311 1.386926-2.08964 1.386926-1.14652 0-2.404-.462309-3.23616-1.238987l-.55477 1.091048c.92462.887633 2.34853 1.368434 3.73546 1.368434 1.86772 0 3.56902-.850648 3.56902-2.773852 0-3.495053-5.43675-2.385513-5.43675-4.549117 0-.906125.83216-1.2944643 1.9232-1.2944643.90613 0 1.88622.3143703 2.64441.7951713l.55477-1.1465259c-.81366-.5547703-1.9417-.8876326-3.10671-.8876326z"/></g><g transform="matrix(.40557321 0 0 .40557321 245.85126 466.3189)"><path d="m-96.768134-13.000119c-2.68139 0-4.475146 1.312956-4.475146 3.3471145 0 4.6415788 7.285982 2.8293289 7.26749 6.2319205 0 1.2389872-1.165018 1.9971734-3.032745 1.9971734-1.460895 0-3.106715-.6657245-4.308715-1.8307423l-.66573 1.3314489c1.2205 1.16501782 3.069734 1.97868104 4.955953 1.97868104 2.773852 0 4.678564-1.38692594 4.678564-3.55053044.01849-4.6970558-7.267492-2.9587753-7.267492-6.2873975 0-1.0910481 1.091048-1.7197881 2.755359-1.7197881 1.035572 0 2.404005.31437 3.569023 1.091048l.62874-1.386926c-1.072556-.721201-2.607421-1.202002-4.105301-1.202002z"/><path d="m-85.666659-9.7824509c-2.829329 0-4.826503 2.0156657-4.826503 4.918964 0 2.9032982 1.978681 4.91896394 4.844995 4.91896394 1.627327 0 2.99576-.59175507 3.920377-1.62732644l-.79517-.8506479c-.758187.7951709-1.81225 1.2204948-3.014253 1.2204948-1.886219 0-3.273145-1.2020025-3.532038-3.1067141h7.951709c.147939-3.3101299-1.405418-5.4922267-4.549117-5.4737343zm-3.402592 4.2902242c.221908-1.8492346 1.553357-3.0512371 3.402592-3.0512371 1.904711 0 3.162191 1.1835102 3.254653 3.0512371z"/><path d="m-77.199186-9.7454662h-1.442403v9.7454662h1.442403v-5.1778568c.166431-1.923204 1.442403-3.1991759 3.495053-3.1621912v-1.4608953c-1.645819.018492-2.847821.7951709-3.495053 2.2190815z"/><path d="m-67.59357 0 3.827915-9.7454662h-1.460895l-3.088222 8.2475862-3.106714-8.2475862h-1.534865l3.864901 9.7454662z"/><path d="m-58.542145-9.7824509c-2.829329 0-4.826502 2.0156657-4.826502 4.918964 0 2.9032982 1.978681 4.91896394 4.844995 4.91896394 1.627326 0 2.99576-.59175507 3.920377-1.62732644l-.795171-.8506479c-.758186.7951709-1.81225 1.2204948-3.014252 1.2204948-1.88622 0-3.273145-1.2020025-3.532038-3.1067141h7.951708c.147939-3.3101299-1.405418-5.4922267-4.549117-5.4737343zm-3.402591 4.2902242c.221908-1.8492346 1.553357-3.0512371 3.402591-3.0512371 1.904712 0 3.162191 1.1835102 3.254653 3.0512371z"/><path d="m-50.074671-9.7454662h-1.442403v9.7454662h1.442403v-5.1778568c.166432-1.923204 1.442403-3.1991759 3.495054-3.1621912v-1.4608953c-1.645819.018492-2.847821.7951709-3.495054 2.2190815z"/><path d="m-40.882243-5.0669028v-1.072556h-4.345701v1.072556z"/><path d="m-33.886935-13.000119c-2.68139 0-4.475148 1.312956-4.475148 3.3471145 0 4.6415788 7.285984 2.8293289 7.267492 6.2319205 0 1.2389872-1.165018 1.9971734-3.032745 1.9971734-1.460895 0-3.106714-.6657245-4.308716-1.8307423l-.665725 1.3314489c1.220495 1.16501782 3.06973 1.97868104 4.955949 1.97868104 2.773852 0 4.678563-1.38692594 4.678563-3.55053044.01849-4.6970558-7.267491-2.9587753-7.267491-6.2873975 0-1.0910481 1.091048-1.7197881 2.755359-1.7197881 1.035571 0 2.404005.31437 3.569023 1.091048l.62874-1.386926c-1.072556-.721201-2.607421-1.202002-4.105301-1.202002z"/><path d="m-25.92916-13.536397c-.536278 0-.94311.425324-.94311.998587 0 .573262.406832.998586.94311.998586s.94311-.425324.94311-.998586c0-.573263-.406832-.998587-.94311-.998587zm.721201 13.536397v-9.7454662h-1.42391v9.7454662z"/><path d="m-12.733423-13.721321h-1.442403v6.0839822c-.721202-1.386926-2.071143-2.1820968-3.809423-2.1820968-2.75536 0-4.678564 2.0156657-4.678564 4.9374563 0 2.9032983 1.923204 4.95594868 4.697056 4.95594868 1.73828 0 3.069729-.79517087 3.790931-2.16360448v2.0896351h1.442403zm-4.955949 12.5008262c-2.071143 0-3.532038-1.5163724-3.532038-3.6244998 0-2.1266198 1.460895-3.6614845 3.532038-3.6614845 2.05265 0 3.513546 1.5348647 3.513546 3.6614845 0 2.1081274-1.460896 3.6244998-3.513546 3.6244998z"/><path d="m-5.2682952-9.7824509c-2.8293289 0-4.8265018 2.0156657-4.8265018 4.918964 0 2.9032982 1.9786806 4.91896394 4.8449942 4.91896394 1.6273264 0 2.99576-.59175507 3.9203773-1.62732644l-.7951709-.8506479c-.7581862.7951709-1.8122499 1.2204948-3.0142524 1.2204948-1.8862192 0-3.2731452-1.2020025-3.532038-3.1067141h7.95170868c.14793877-3.3101299-1.40541828-5.4922267-4.54911708-5.4737343zm-3.4025916 4.2902242c.2219081-1.8492346 1.553357-3.0512371 3.4025916-3.0512371 1.9047116 0 3.1621911 1.1835102 3.2546529 3.0512371z"/><path d="m-110.50766 5.5107191c-3.75394 0-6.7497 2.8663136-6.7497 6.4908129 0 3.661485 2.95877 6.564783 6.69422 6.564783 1.79376 0 3.53204-.795171 4.80801-1.997173l-.90612-1.017079c-1.01708.961602-2.40401 1.553357-3.82792 1.553357-2.92179 0-5.27031-2.274559-5.27031-5.103888 0-2.8478208 2.34852-5.103887 5.27031-5.103887 1.42391 0 2.82933.6102474 3.82792 1.6273264l.88763-1.1280331c-1.23898-1.1650178-2.95877-1.8862192-4.73404-1.8862192z"/><path d="m-99.677789 8.7098949c-2.884811 0-4.937461 1.9971731-4.937461 4.9004721 0 2.92179 2.05265 4.937456 4.937461 4.937456 2.884806 0 4.937456-2.015666 4.937456-4.937456 0-2.903299-2.05265-4.9004721-4.937456-4.9004721zm0 1.3129561c2.034158 0 3.495053 1.479388 3.495053 3.606008 0 2.145112-1.460895 3.6245-3.495053 3.6245-2.034161 0-3.495051-1.479388-3.495051-3.6245 0-2.12662 1.46089-3.606008 3.495051-3.606008z"/><path d="m-79.739573 8.6914025c-1.867727.018492-3.23616.8321556-3.846408 2.5519435-.406831-1.6088338-1.664311-2.5519435-3.495053-2.5519435-1.756773.018492-3.069729.7396939-3.716961 2.2560665v-2.2005894h-1.423911v9.7454664h1.423911v-4.789518c0-2.089635 1.202002-3.532038 3.199175-3.587515 1.701296 0 2.699883 1.017079 2.699883 2.75536v5.621673h1.460895v-4.789518c0-2.089635 1.165018-3.532038 3.180684-3.587515 1.682803 0 2.699882 1.017079 2.699882 2.75536v5.621673h1.442403v-6.010013c0-2.348527-1.349941-3.7909305-3.6245-3.7909305z"/><path d="m-67.61004 8.6914025c-1.701296 0-3.032745.7951709-3.753946 2.1636045v-2.1081274h-1.442403v13.3329814h1.442403v-5.67715c.721201 1.349941 2.05265 2.145112 3.790931 2.145112 2.755359 0 4.641579-2.015666 4.641579-4.900472 0-2.92179-1.923204-4.9559485-4.678564-4.9559485zm-.258893 8.5434635c-2.05265 0-3.495053-1.49788-3.495053-3.624499 0-2.108128 1.442403-3.6245003 3.495053-3.6245003 2.034158 0 3.476561 1.5348643 3.476561 3.6245003 0 2.108127-1.442403 3.624499-3.476561 3.624499z"/><path d="m-56.444708 8.7098949c-2.884806 0-4.937457 1.9971731-4.937457 4.9004721 0 2.92179 2.052651 4.937456 4.937457 4.937456s4.937456-2.015666 4.937456-4.937456c0-2.903299-2.05265-4.9004721-4.937456-4.9004721zm0 1.3129561c2.034158 0 3.495053 1.479388 3.495053 3.606008 0 2.145112-1.460895 3.6245-3.495053 3.6245s-3.495054-1.479388-3.495054-3.6245c0-2.12662 1.460896-3.606008 3.495054-3.606008z"/><path d="m-43.773987 8.6914025c-1.775265.018492-3.088221.7212015-3.772438 2.2005895v-2.1451124h-1.442403v9.7454664h1.442403v-5.233334c.166431-1.849235 1.349941-3.106714 3.273145-3.125206 1.719788 0 2.75536 1.017079 2.75536 2.736867v5.621673h1.442403v-6.010013c0-2.348527-1.368434-3.7909305-3.69847-3.7909305z"/><path d="m-33.006815 8.7098949c-2.829329 0-4.826503 2.0156661-4.826503 4.9189641s1.978681 4.918964 4.844995 4.918964c1.627327 0 2.99576-.591755 3.920377-1.627327l-.79517-.850647c-.758187.79517-1.81225 1.220494-3.014253 1.220494-1.886219 0-3.273145-1.202002-3.532038-3.106714h7.951709c.147939-3.31013-1.405418-5.4922265-4.549117-5.4737341zm-3.402592 4.2902241c.221908-1.849234 1.553357-3.051237 3.402592-3.051237 1.904711 0 3.162191 1.18351 3.254653 3.051237z"/><path d="m-20.766906 8.6914025c-1.775266.018492-3.088222.7212015-3.772439 2.2005895v-2.1451124h-1.442403v9.7454664h1.442403v-5.233334c.166431-1.849235 1.349941-3.106714 3.273145-3.125206 1.719788 0 2.75536 1.017079 2.75536 2.736867v5.621673h1.442403v-6.010013c0-2.348527-1.368434-3.7909305-3.698469-3.7909305z"/><path d="m-9.2230567 16.661604c-.536278.332862-1.0540633.499293-1.5533573.499293-.832155 0-1.294464-.443816-1.294464-1.627327v-5.307303h3.0882218v-1.1835099l-3.0882218.018492v-2.570436h-1.423911v2.570436h-1.405418v1.1650176h1.405418v5.566196c0 1.923204 1.054064 2.773852 2.477975 2.773852.776678-.01849 1.5163721-.277385 2.2005889-.739694z"/><path d="m-4.0336429 8.6914025c-1.7752652 0-3.3840993.7766786-3.3840993 2.6444055-.018492 3.458069 5.4367497 2.256066 5.3812726 4.604594-.018492.961602-.9431096 1.386926-2.0896351 1.386926-1.1465254 0-2.4040049-.462309-3.2361605-1.238987l-.5547704 1.091048c.9246173.887633 2.348528 1.368434 3.7354539 1.368434 1.8677269 0 3.56902274-.850648 3.56902274-2.773852 0-3.495053-5.43674964-2.385513-5.43674964-4.549117 0-.906125.8321555-1.2944643 1.9232039-1.2944643.906125 0 1.8862193.3143703 2.6444055.7951713l.55477036-1.1465259c-.81366326-.5547703-1.94169626-.8876326-3.10671406-.8876326z"/></g><g transform="matrix(.40557321 0 0 .40557321 263.08938 501.20099)"><path d="m-15.058428-15.102083h-1.725952v8.8886547c0 2.9341189-1.725953 4.6384968-4.595348 4.6384968-2.869396 0-4.638497-1.7043779-4.638497-4.6384968v-8.8886547h-1.725953v8.8886547c0 3.9265415 2.394759 6.29972592 6.36445 6.29972592 3.948115 0 6.3213-2.37318442 6.3213-6.29972592z"/><path d="m-6.3514716-15.166806c-3.1282886 0-5.2210054 1.531783-5.2210054 3.904967 0 5.4151756 8.5003147 3.300884 8.4787403 7.2705743 0 1.4454851-1.3591874 2.3300356-3.5382022 2.3300356-1.7043779 0-3.6245001-.7766785-5.0268361-2.135866l-.776678 1.5533571c1.42391 1.35918745 3.5813505 2.30846121 5.7819397 2.30846121 3.2361606 0 5.4583242-1.61808031 5.4583242-4.14228551.021574-5.4798986-8.4787407-3.4519046-8.4787407-7.3352977 0-1.272889 1.2728898-2.006419 3.2145862-2.006419 1.2081666 0 2.8046724.366765 4.1638599 1.27289l.7335297-1.618081c-1.2513154-.841401-3.0419909-1.402336-4.7895176-1.402336z"/><path d="m12.597935-13.440854v-1.661229h-10.2478415v15.102083h10.5283095v-1.6396547h-8.8023572v-5.1778569h7.6157642v-1.6612291h-7.6157642v-4.9621133z"/><path d="m26.262958 0h1.963271l-3.538202-5.1347081c2.179015-.7119553 3.387181-2.3947588 3.387181-4.8973899 0-3.214586-2.179015-5.069985-5.954535-5.069985h-5.738792v15.102083h1.725953v-4.7679432h4.012839c.34519 0 .690381-.021574 1.013997-.043149zm-8.155124-6.4291723v-7.0116817h4.012839c2.739949 0 4.293306 1.165018 4.293306 3.4519051 0 2.35161-1.553357 3.5597766-4.293306 3.5597766z"/><path d="m-56.475553 21.574404v-15.1020829h-1.725952v15.1020829z"/><path d="m-39.324576 21.574404v-15.1020829h-1.704378v12.1463889l-9.061249-12.1463889h-1.790676v15.1020829h1.725953v-12.1248152l9.061249 12.1248152z"/><path d="m-25.195026 8.1335502v-1.6612291h-11.585455v1.6612291h4.918964v13.4408538h1.725952v-13.4408538z"/><path d="m-12.431744 8.1335502v-1.6612291h-10.247842v15.1020829h10.528309v-1.639655h-8.802356v-5.177857h7.615764v-1.661229h-7.615764v-4.9621128z"/><path d="m1.233279 21.574404h1.9632708l-3.53820223-5.134708c2.17901483-.711956 3.38718143-2.394759 3.38718143-4.89739 0-3.2145861-2.17901482-5.0699849-5.9545355-5.0699849h-5.7387914v15.1020829h1.7259523v-4.767943h4.0128391c.3451905 0 .6903809-.02157 1.013997-.04315zm-8.1551246-6.429173v-7.0116808h4.0128391c2.7399493 0 4.2933064 1.1650178 4.2933064 3.4519048 0 2.35161-1.5533571 3.559776-4.2933064 3.559776z"/><path d="m16.543689 8.1335502v-1.6612291h-9.6006093v15.1020829h1.7259523v-6.472321h7.05483v-1.661229h-7.05483v-5.3073038z"/><path d="m28.088355 17.755734 1.682803 3.81867h1.876973l-6.752788-15.1020829h-1.790675l-6.774363 15.1020829h1.833824l1.682804-3.81867zm-.73353-1.661229h-6.774363l3.365607-7.6589131z"/><path d="m40.109006 6.4291723c-4.379604 0-7.874658 3.3440326-7.874658 7.5726157 0 4.271732 3.451905 7.658913 7.809935 7.658913 2.092717 0 4.120711-.927699 5.609345-2.330035l-1.057146-1.186592c-1.186592 1.121869-2.804673 1.812249-4.465902 1.812249-3.408756 0-6.148705-2.653651-6.148705-5.954535 0-3.322458 2.739949-5.9545354 6.148705-5.9545354 1.661229 0 3.300884.7119553 4.465902 1.8985475l1.035571-1.3160386c-1.445485-1.3591874-3.451904-2.2005892-5.523047-2.2005892z"/><path d="m58.991329 8.1335502v-1.6612291h-10.247842v15.1020829h10.528309v-1.639655h-8.802357v-5.177857h7.615765v-1.661229h-7.615765v-4.9621128z"/></g><g transform="matrix(.40557321 0 0 .40557321 132.72595 505.57593)"><path d="m-54.282717-15.102083v15.102083h6.472321c3.408756 0 5.43675-1.5317827 5.43675-4.0991367 0-2.0711428-1.27289-3.4950534-3.451905-3.8186695 1.769102-.3667648 2.783099-1.6396547 2.783099-3.4087558 0-2.373184-1.833825-3.775521-4.875816-3.775521zm1.725952 1.661229h4.5522c2.027994 0 3.214586.862977 3.214586 2.394759 0 1.5749317-1.186592 2.4594823-3.214586 2.4594823h-4.5522zm0 6.493896h4.5522c2.459482 0 3.883392.9708482 3.883392 2.6105028 0 1.7259523-1.42391 2.6968005-3.883392 2.6968005h-4.5522z"/><path d="m-28.937175 0h1.963271l-3.538202-5.1347081c2.179015-.7119553 3.387181-2.3947588 3.387181-4.8973899 0-3.214586-2.179015-5.069985-5.954535-5.069985h-5.738792v15.102083h1.725953v-4.7679432h4.012839c.34519 0 .690381-.021574 1.013997-.043149zm-8.155124-6.4291723v-7.0116817h4.012839c2.739949 0 4.293306 1.165018 4.293306 3.4519051 0 2.35161-1.553357 3.5597766-4.293306 3.5597766z"/><path d="m-16.733478-15.145231c-4.422752 0-7.917806 3.322458-7.917806 7.5941897 0 4.2501575 3.495054 7.63733892 7.917806 7.63733892 4.401179 0 7.8962321-3.38718142 7.8962321-7.63733892 0-4.2501577-3.4950531-7.5941897-7.8962321-7.5941897zm0 1.639654c3.365607 0 6.127131 2.632078 6.127131 5.9545357 0 3.3224582-2.761524 5.9761098-6.127131 5.9761098s-6.170279-2.6536516-6.170279-5.9761098c0-3.3224577 2.804672-5.9545357 6.170279-5.9545357z"/><path d="m8.7185883 0 5.0699847-15.102083h-1.790675l-4.099137 13.0956635-4.1422855-13.0956635-1.7259523.021575-4.0991367 13.0740885-4.1422856-13.0956635h-1.8553987l5.0484105 15.102083h1.7691011l4.1207111-12.728898 4.0775623 12.728898z"/><path d="m20.532259-15.166806c-3.128289 0-5.221006 1.531783-5.221006 3.904967 0 5.4151756 8.500315 3.300884 8.478741 7.2705743 0 1.4454851-1.359188 2.3300356-3.538203 2.3300356-1.704378 0-3.6245-.7766785-5.026836-2.135866l-.776678 1.5533571c1.42391 1.35918745 3.581351 2.30846121 5.78194 2.30846121 3.23616 0 5.458324-1.61808031 5.458324-4.14228551.02157-5.4798986-8.478741-3.4519046-8.478741-7.3352977 0-1.272889 1.27289-2.006419 3.214587-2.006419 1.208166 0 2.804672.366765 4.163859 1.27289l.73353-1.618081c-1.251315-.841401-3.041991-1.402336-4.789517-1.402336z"/><path d="m39.481665-13.440854v-1.661229h-10.247841v15.102083h10.528309v-1.6396547h-8.802357v-5.1778569h7.615765v-1.6612291h-7.615765v-4.9621133z"/><path d="m53.146692 0h1.963271l-3.538202-5.1347081c2.179015-.7119553 3.387181-2.3947588 3.387181-4.8973899 0-3.214586-2.179015-5.069985-5.954535-5.069985h-5.738792v15.102083h1.725953v-4.7679432h4.012839c.34519 0 .690381-.021574 1.013997-.043149zm-8.155124-6.4291723v-7.0116817h4.012839c2.739949 0 4.293306 1.165018 4.293306 3.4519051 0 2.35161-1.553357 3.5597766-4.293306 3.5597766z"/></g><g transform="matrix(.40557321 0 0 .40557321 161.0788 492.05163)"><path d="m1.9601887-12.944642v12.944642h5.5477037c2.9217906 0 4.6600716-1.3129566 4.6600716-3.5135457 0-1.7752652-1.091049-2.99576-2.9587758-3.2731452 1.5163728-.3143699 2.3855128-1.4054183 2.3855128-2.9217907 0-2.0341584-1.57185-3.2361604-4.1792703-3.2361604zm1.4793876 1.423911h3.901885c1.7382805 0 2.7553597.739693 2.7553597 2.0526499 0 1.3499413-1.0170792 2.1081275-2.7553597 2.1081275h-3.901885zm0 5.5661956h3.901885c2.1081274 0 3.3286227.8321556 3.3286227 2.2375739 0 1.4793877-1.2204953 2.3115432-3.3286227 2.3115432h-3.901885z"/><path d="m23.463031-9.7454662h-1.442403v4.7895175c0 2.0711428-1.183511 3.5320381-3.199176 3.5690228-1.682804 0-2.699883-1.0170791-2.699883-2.7368672v-5.6216731h-1.442403v6.0100123c0 2.348528 1.368434 3.79093094 3.642992 3.79093094 1.756773-.01849235 3.051238-.73969383 3.69847-2.25606624v2.2005892h1.442403z"/><path d="m27.66975-13.536397c-.536278 0-.94311.425324-.94311.998587 0 .573262.406832.998586.94311.998586s.94311-.425324.94311-.998586c0-.573263-.406832-.998587-.94311-.998587zm.721201 13.536397v-9.7454662h-1.42391v9.7454662z"/><path d="m33.450052 0v-13.721321h-1.442403v13.721321z"/><path d="m41.667011-1.8307422c-.536278.3328622-1.054064.4992933-1.553357.4992933-.832156 0-1.294465-.4438163-1.294465-1.6273264v-5.3073033h3.088222v-1.1835101l-3.088222.018492v-2.5704356h-1.42391v2.5704356h-1.405419v1.1650178h1.405419v5.5661961c0 1.92320398 1.054063 2.77385188 2.477974 2.77385188.776679-.01849234 1.516372-.27738518 2.200589-.73969383z"/><path d="m48.039935-5.0669028v-1.072556h-4.345702v1.072556z"/><path d="m51.688127-13.536397c-.536278 0-.943109.425324-.943109.998587 0 .573262.406831.998586.943109.998586s.94311-.425324.94311-.998586c0-.573263-.406832-.998587-.94311-.998587zm.721202 13.536397v-9.7454662h-1.423911v9.7454662z"/><path d="m61.14841-9.8009433c-1.775265.018492-3.088221.7212015-3.772438 2.2005892v-2.1451121h-1.442403v9.7454662h1.442403v-5.2333339c.166431-1.8492345 1.349941-3.1067141 3.273145-3.1252064 1.719788 0 2.75536 1.017079 2.75536 2.7368672v5.6216731h1.442402v-6.0100124c0-2.3485279-1.368433-3.7909309-3.698469-3.7909309z"/></g></g><path d="m284.27001 569.84064a20.963614 20.963614 0 0 1 -20.96361 20.96361 20.963614 20.963614 0 0 1 -20.96362-20.96361 20.963614 20.963614 0 0 1 20.96362-20.96362 20.963614 20.963614 0 0 1 20.96361 20.96362z" fill="none" stroke="#2d3538" stroke-width="1.062992"/><path d="m283.07647 556.97626a2.8741407 2.8741407 0 0 1 -2.87414 2.87414 2.8741407 2.8741407 0 0 1 -2.87414-2.87414 2.8741407 2.8741407 0 0 1 2.87414-2.87414 2.8741407 2.8741407 0 0 1 2.87414 2.87414z" fill="#ff3849"/><g fill="#2d3538" transform="matrix(.40557321 0 0 .40557321 284.10504 558.50028)"><path d="m10.152298-3.2731452 1.442403 3.2731452h1.608834l-5.7881043-12.944642h-1.5348647l-5.80659662 12.944642h1.57184942l1.442403-3.2731452zm-.6287399-1.4239106h-5.8065966l2.884806-6.5647832z"/><path d="m20.336957-9.8009433c-1.701296 0-3.032745.7951709-3.753946 2.1636045v-2.1081274h-1.442403v13.3329813h1.442403v-5.6771502c.721201 1.34994127 2.05265 2.14511214 3.790931 2.14511214 2.755359 0 4.641578-2.01566574 4.641578-4.90047164 0-2.9217906-1.923203-4.9559487-4.678563-4.9559487zm-.258893 8.5434638c-2.05265 0-3.495053-1.49788-3.495053-3.6244998 0-2.1081274 1.442403-3.6244998 3.495053-3.6244998 2.034158 0 3.476561 1.5348647 3.476561 3.6244998 0 2.1081274-1.442403 3.6244998-3.476561 3.6244998z"/><path d="m32.833738-9.8009433c-1.701295 0-3.032744.7951709-3.753946 2.1636045v-2.1081274h-1.442403v13.3329813h1.442403v-5.6771502c.721202 1.34994127 2.052651 2.14511214 3.790931 2.14511214 2.75536 0 4.641579-2.01566574 4.641579-4.90047164 0-2.9217906-1.923204-4.9559487-4.678564-4.9559487zm-.258892 8.5434638c-2.052651 0-3.495054-1.49788-3.495054-3.6244998 0-2.1081274 1.442403-3.6244998 3.495054-3.6244998 2.034158 0 3.476561 1.5348647 3.476561 3.6244998 0 2.1081274-1.442403 3.6244998-3.476561 3.6244998z"/><path d="m41.576573 0v-13.721321h-1.442403v13.721321z"/><path d="m45.873152-13.536397c-.536278 0-.94311.425324-.94311.998587 0 .573262.406832.998586.94311.998586s.943109-.425324.943109-.998586c0-.573263-.406831-.998587-.943109-.998587zm.721201 13.536397v-9.7454662h-1.423911v9.7454662z"/><path d="m53.964997-9.7824509c-2.810836 0-4.826502 2.0156657-4.826502 4.918964 0 2.9032982 1.997173 4.91896394 4.826502 4.91896394 1.682804 0 3.032745-.62873976 3.901885-1.68280344l-.832155-.8876326c-.684217.8136632-1.738281 1.2574795-3.014253 1.2574795-2.015665 0-3.458068-1.4793877-3.458068-3.6060074 0-2.1266198 1.442403-3.5875151 3.458068-3.5875151 1.18351 0 2.163605.4253239 2.903299 1.1280331l.79517-1.0170791c-.887632-.9246173-2.182096-1.4608953-3.753946-1.4424029z"/><path d="m65.989645 0h1.405418l-.01849-6.4353363c-.01849-2.0896351-1.349941-3.365607-3.753946-3.365607-1.664312 0-2.718375.480801-3.975855 1.3129566l.610248 1.0540637c1.017079-.7027092 2.015665-1.1095408 3.088221-1.1095408 1.719789 0 2.607421.8506479 2.607421 2.2745586v.5732627h-3.199176c-2.293051.018492-3.642992 1.0910484-3.642992 2.7923442 0 1.6828035 1.294464 2.97726768 3.31013 2.97726768 1.553357 0 2.792344-.51778568 3.569023-1.57184938zm-3.291638-1.1835101c-1.368433 0-2.237574-.7027092-2.237574-1.7752652 0-1.0725561.850648-1.5718494 2.477975-1.5718494h3.032745v1.1650178c-.369847 1.3499412-1.627327 2.1820968-3.273146 2.1820968z"/><path d="m75.220504-1.8307422c-.536278.3328622-1.054064.4992933-1.553357.4992933-.832155 0-1.294464-.4438163-1.294464-1.6273264v-5.3073033h3.088222v-1.1835101l-3.088222.018492v-2.5704356h-1.423911v2.5704356h-1.405418v1.1650178h1.405418v5.5661961c0 1.92320398 1.054064 2.77385188 2.477975 2.77385188.776678-.01849234 1.516372-.27738518 2.200589-.73969383z"/><path d="m78.523699-13.536397c-.536278 0-.94311.425324-.94311.998587 0 .573262.406832.998586.94311.998586s.943109-.425324.943109-.998586c0-.573263-.406831-.998587-.943109-.998587zm.721201 13.536397v-9.7454662h-1.423911v9.7454662z"/><path d="m86.726502-9.7824509c-2.884806 0-4.937456 1.9971733-4.937456 4.9004716 0 2.9217906 2.05265 4.93745634 4.937456 4.93745634s4.937456-2.01566574 4.937456-4.93745634c0-2.9032983-2.05265-4.9004716-4.937456-4.9004716zm0 1.3129565c2.034158 0 3.495053 1.4793877 3.495053 3.6060075 0 2.1451121-1.460895 3.6244997-3.495053 3.6244997s-3.495053-1.4793876-3.495053-3.6244997c0-2.1266198 1.460895-3.6060075 3.495053-3.6060075z"/><path d="m99.397228-9.8009433c-1.775265.018492-3.088222.7212015-3.772439 2.2005892v-2.1451121h-1.442403v9.7454662h1.442403v-5.2333339c.166431-1.8492345 1.349941-3.1067141 3.273145-3.1252064 1.719786 0 2.755356 1.017079 2.755356 2.7368672v5.6216731h1.44241v-6.0100124c0-2.3485279-1.36844-3.7909309-3.698472-3.7909309z"/><path d="m113.96342-9.8009433c-1.77527 0-3.3841.7766785-3.3841 2.6444055-.0185 3.4580686 5.43675 2.2560662 5.38127 4.6045941-.0185.961602-.94311 1.3869259-2.08964 1.3869259-1.14652 0-2.404-.4623086-3.23616-1.2389872l-.55477 1.0910484c.92462.88763265 2.34853 1.36843364 3.73546 1.36843364 1.86772 0 3.56902-.85064791 3.56902-2.77385184 0-3.4950534-5.43675-2.3855126-5.43675-4.5491171 0-.9061249.83216-1.2944642 1.9232-1.2944642.90613 0 1.88622.3143699 2.64441.7951709l.55477-1.1465255c-.81366-.5547704-1.9417-.8876326-3.10671-.8876326z"/><path d="m124.37691-1.8307422c-.53627.3328622-1.05406.4992933-1.55335.4992933-.83216 0-1.29447-.4438163-1.29447-1.6273264v-5.3073033h3.08822v-1.1835101l-3.08822.018492v-2.5704356h-1.42391v2.5704356h-1.40542v1.1650178h1.40542v5.5661961c0 1.92320398 1.05407 2.77385188 2.47798 2.77385188.77668-.01849234 1.51637-.27738518 2.20059-.73969383z"/><path d="m134.55926-9.7454662h-1.47939l-3.08822 8.0441704-3.23616-8.0441704h-1.51637l4.03133 9.67149682-.40683.90612494c-.38834.90612494-1.01708 1.36843364-1.77527 1.36843364-.4808 0-.92461-.1479388-1.36843-.4623087l-.61025 1.2020025c.59176.480801 1.23899.7212015 2.05265.7212015 1.29447 0 2.31155-.7766786 2.92179-2.2745586z"/><path d="m137.79455 0v-13.721321h-1.4424v13.721321z"/><path d="m145.23483-9.7824509c-2.82933 0-4.8265 2.0156657-4.8265 4.918964 0 2.9032982 1.97868 4.91896394 4.845 4.91896394 1.62732 0 2.99576-.59175507 3.92037-1.62732644l-.79517-.8506479c-.75818.7951709-1.81225 1.2204948-3.01425 1.2204948-1.88622 0-3.27315-1.2020025-3.53204-3.1067141h7.95171c.14794-3.3101299-1.40542-5.4922267-4.54912-5.4737343zm-3.40259 4.2902242c.22191-1.8492346 1.55336-3.0512371 3.40259-3.0512371 1.90472 0 3.16219 1.1835102 3.25466 3.0512371z"/><path d="m159.90533-9.8009433c-1.77526 0-3.3841.7766785-3.3841 2.6444055-.0185 3.4580686 5.43675 2.2560662 5.38128 4.6045941-.0185.961602-.94311 1.3869259-2.08964 1.3869259-1.14652 0-2.404-.4623086-3.23616-1.2389872l-.55477 1.0910484c.92462.88763265 2.34853 1.36843364 3.73545 1.36843364 1.86773 0 3.56903-.85064791 3.56903-2.77385184 0-3.4950534-5.43675-2.3855126-5.43675-4.5491171 0-.9061249.83215-1.2944642 1.9232-1.2944642.90613 0 1.88622.3143699 2.64441.7951709l.55477-1.1465255c-.81367-.5547704-1.9417-.8876326-3.10672-.8876326z"/><path d="m171.02155-9.8009433c-1.79376.018492-3.12521.7212015-3.79093 2.2375739v-6.1579516h-1.44241v13.721321h1.44241v-4.7895176c0-2.089635 1.22049-3.5505304 3.29164-3.5690227 1.71978 0 2.75535 1.017079 2.75535 2.7368672v5.6216731h1.44241v-6.0100124c0-2.3485279-1.36844-3.7909309-3.69847-3.7909309z"/><path d="m181.78612-9.7824509c-2.82933 0-4.8265 2.0156657-4.8265 4.918964 0 2.9032982 1.97868 4.91896394 4.84499 4.91896394 1.62733 0 2.99576-.59175507 3.92038-1.62732644l-.79517-.8506479c-.75819.7951709-1.81225 1.2204948-3.01426 1.2204948-1.88621 0-3.27314-1.2020025-3.53203-3.1067141h7.95171c.14793-3.3101299-1.40542-5.4922267-4.54912-5.4737343zm-3.40259 4.2902242c.2219-1.8492346 1.55335-3.0512371 3.40259-3.0512371 1.90471 0 3.16219 1.1835102 3.25465 3.0512371z"/><path d="m192.65759-9.7824509c-2.82933 0-4.8265 2.0156657-4.8265 4.918964 0 2.9032982 1.97868 4.91896394 4.845 4.91896394 1.62732 0 2.99576-.59175507 3.92037-1.62732644l-.79517-.8506479c-.75818.7951709-1.81225 1.2204948-3.01425 1.2204948-1.88622 0-3.27315-1.2020025-3.53204-3.1067141h7.95171c.14794-3.3101299-1.40542-5.4922267-4.54912-5.4737343zm-3.40259 4.2902242c.22191-1.8492346 1.55336-3.0512371 3.40259-3.0512371 1.90472 0 3.16219 1.1835102 3.25466 3.0512371z"/><path d="m204.30575-1.8307422c-.53628.3328622-1.05407.4992933-1.55336.4992933-.83216 0-1.29446-.4438163-1.29446-1.6273264v-5.3073033h3.08822v-1.1835101l-3.08822.018492v-2.5704356h-1.42391v2.5704356h-1.40542v1.1650178h1.40542v5.5661961c0 1.92320398 1.05406 2.77385188 2.47797 2.77385188.77668-.01849234 1.51637-.27738518 2.20059-.73969383z"/><path d="m209.49516-9.8009433c-1.77526 0-3.3841.7766785-3.3841 2.6444055-.0185 3.4580686 5.43675 2.2560662 5.38127 4.6045941-.0185.961602-.94311 1.3869259-2.08963 1.3869259-1.14653 0-2.40401-.4623086-3.23616-1.2389872l-.55477 1.0910484c.92462.88763265 2.34853 1.36843364 3.73545 1.36843364 1.86773 0 3.56903-.85064791 3.56903-2.77385184 0-3.4950534-5.43675-2.3855126-5.43675-4.5491171 0-.9061249.83215-1.2944642 1.9232-1.2944642.90612 0 1.88622.3143699 2.6444.7951709l.55478-1.1465255c-.81367-.5547704-1.9417-.8876326-3.10672-.8876326z"/></g><g fill="#2d3538" transform="matrix(.40557321 0 0 .40557321 263.50498 572.90321)"><path d="m-38.038876-15.166806c-3.128289 0-5.221006 1.531783-5.221006 3.904967 0 5.4151756 8.500315 3.300884 8.478741 7.2705743 0 1.4454851-1.359188 2.3300356-3.538203 2.3300356-1.704377 0-3.624499-.7766785-5.026836-2.135866l-.776678 1.5533571c1.423911 1.35918745 3.581351 2.30846121 5.78194 2.30846121 3.236161 0 5.458324-1.61808031 5.458324-4.14228551.02157-5.4798986-8.47874-3.4519046-8.47874-7.3352977 0-1.272889 1.272889-2.006419 3.214586-2.006419 1.208166 0 2.804672.366765 4.16386 1.27289l.733529-1.618081c-1.251315-.841401-3.041991-1.402336-4.789517-1.402336z"/><path d="m-19.801426-13.440854v-1.661229h-11.585454v1.661229h4.918964v13.440854h1.725952v-13.440854z"/><path d="m-11.935532-5.1778569 5.7387912-9.9242261h-1.7691012l-4.832666 7.8746577-4.89739-7.8746577h-1.790676l5.846664 9.9889493v5.1131337h1.704378z"/><path d="m-2.0760309-1.6396547v-13.4624283h-1.7259523v15.102083h8.3492942v-1.6396547z"/><path d="m9.0904081 0v-15.102083h-1.7259523v15.102083z"/><path d="m26.241384 0v-15.102083h-1.704378v12.1463897l-9.061249-12.1463897h-1.790676v15.102083h1.725952v-12.124815l9.06125 12.124815z"/><path d="m41.363354-7.3784461v4.5521992c-1.165018.7982529-2.610503 1.2728898-3.969691 1.2728898-3.451904 0-6.235002-2.6536516-6.235002-5.9976842 0-3.3224577 2.761523-5.9761097 6.213428-5.9761097 1.682803 0 3.344032.647232 4.573773 1.747527l.992423-1.294465c-1.445485-1.27289-3.473479-2.071142-5.566196-2.071142-4.444327 0-7.960955 3.344032-7.960955 7.5941897 0 4.2501575 3.495053 7.63733892 7.874657 7.63733892 2.027994 0 4.120711-.79825294 5.609345-1.98484512v-5.4798986z"/></g><g fill="#2d3538" transform="matrix(.40557321 0 0 .40557321 337.42737 501.19661)"><path d="m-56.115698-15.102083v15.102083h6.472321c3.408756 0 5.436749-1.5317827 5.436749-4.0991367 0-2.0711428-1.272889-3.4950534-3.451904-3.8186695 1.769101-.3667648 2.783098-1.6396547 2.783098-3.4087558 0-2.373184-1.833824-3.775521-4.875815-3.775521zm1.725952 1.661229h4.552199c2.027994 0 3.214586.862977 3.214586 2.394759 0 1.5749317-1.186592 2.4594823-3.214586 2.4594823h-4.552199zm0 6.493896h4.552199c2.459482 0 3.883393.9708482 3.883393 2.6105028 0 1.7259523-1.423911 2.6968005-3.883393 2.6968005h-4.552199z"/><path d="m-31.093772-3.8186695 1.682803 3.8186695h1.876973l-6.752788-15.102083h-1.790676l-6.774362 15.102083h1.833824l1.682803-3.8186695zm-.73353-1.6612291h-6.774363l3.365607-7.6589134z"/><path d="m-19.07312-15.145231c-4.379604 0-7.874658 3.344032-7.874658 7.5726153 0 4.2717319 3.451905 7.65891332 7.809934 7.65891332 2.092717 0 4.120711-.92769937 5.609345-2.33003562l-1.057145-1.1865922c-1.186593 1.121869-2.804673 1.8122499-4.465902 1.8122499-3.408756 0-6.148705-2.6536516-6.148705-5.9545354 0-3.3224583 2.739949-5.9545353 6.148705-5.9545353 1.661229 0 3.300884.711955 4.465902 1.898547l1.035571-1.316038c-1.445485-1.359188-3.451905-2.200589-5.523047-2.200589z"/><path d="m-.21237183 0h2.11429153l-6.4291723-8.5434639 5.9761099-6.5586191h-2.0495684l-8.1119758 8.6944851v-8.6944851h-1.7259521v15.102083h1.7259521v-3.9481159l2.9341189-3.2145861z"/><path d="m8.8104487-5.9113866v-1.2513154h-5.0699849v1.2513154z"/><path d="m22.732005-13.440854v-1.661229h-10.247842v15.102083h10.528309v-1.6396547h-8.802357v-5.1778569h7.615765v-1.6612291h-7.615765v-4.9621133z"/><path d="m39.072257 0v-15.102083h-1.704377v12.1463897l-9.06125-12.1463897h-1.790676v15.102083h1.725953v-12.124815l9.061249 12.124815z"/><path d="m43.665918-15.102083v15.102083h6.040833c4.444327 0 7.831508-3.257735 7.831508-7.5510413 0-4.2933067-3.365607-7.5510417-7.766785-7.5510417zm1.725952 1.661229h4.336455c3.387182 0 6.062408 2.524206 6.062408 5.9113871 0 3.365607-2.632078 5.8898122-5.997685 5.8898122h-4.401178z"/><path d="m-39.408345 6.4075979c-3.128289 0-5.221006 1.5317827-5.221006 3.9049671 0 5.415175 8.500315 3.300884 8.478741 7.270574 0 1.445485-1.359188 2.330036-3.538203 2.330036-1.704377 0-3.624499-.776679-5.026836-2.135866l-.776678 1.553357c1.423911 1.359187 3.581351 2.308461 5.78194 2.308461 3.236161 0 5.458324-1.61808 5.458324-4.142286.02157-5.479898-8.47874-3.451904-8.47874-7.335297 0-1.2728896 1.272889-2.0064194 3.214586-2.0064194 1.208166 0 2.804672.3667649 4.16386 1.2728898l.733529-1.6180802c-1.251315-.8414018-3.041991-1.4023363-4.789517-1.4023363z"/><path d="m-20.458939 8.1335502v-1.6612291h-10.247842v15.1020829h10.528309v-1.639655h-8.802357v-5.177857h7.615765v-1.661229h-7.615765v-4.9621128z"/><path d="m-6.7939153 21.574404h1.9632707l-3.5382022-5.134708c2.1790148-.711956 3.3871814-2.394759 3.3871814-4.89739 0-3.2145861-2.1790148-5.0699849-5.9545356-5.0699849h-5.738791v15.1020829h1.725952v-4.767943h4.012839c.345191 0 .690381-.02157 1.0139971-.04315zm-8.1551247-6.429173v-7.0116808h4.012839c2.7399494 0 4.2933065 1.1650178 4.2933065 3.4519048 0 2.35161-1.5533571 3.559776-4.2933065 3.559776z"/><path d="m4.4655654 21.574404 6.1702796-15.1020829h-1.8122501l-5.2210057 13.0956629-5.1994313-13.0956629h-1.8553987l6.1271306 15.1020829z"/><path d="m14.757904 21.574404v-15.1020829h-1.725953v15.1020829z"/><path d="m25.803323 6.4291723c-4.379604 0-7.874657 3.3440326-7.874657 7.5726157 0 4.271732 3.451905 7.658913 7.809934 7.658913 2.092717 0 4.120711-.927699 5.609345-2.330035l-1.057146-1.186592c-1.186592 1.121869-2.804672 1.812249-4.465901 1.812249-3.408756 0-6.148705-2.653651-6.148705-5.954535 0-3.322458 2.739949-5.9545354 6.148705-5.9545354 1.661229 0 3.300883.7119553 4.465901 1.8985475l1.035572-1.3160386c-1.445485-1.3591874-3.451905-2.2005892-5.523048-2.2005892z"/><path d="m44.685646 8.1335502v-1.6612291h-10.247841v15.1020829h10.528309v-1.639655h-8.802357v-5.177857h7.615764v-1.661229h-7.615764v-4.9621128z"/></g><path d="m308.70022 502.51788a2.8741407 2.8741407 0 0 1 -2.87414 2.87414 2.8741407 2.8741407 0 0 1 -2.87414-2.87414 2.8741407 2.8741407 0 0 1 2.87414-2.87414 2.8741407 2.8741407 0 0 1 2.87414 2.87414z" fill="#2d3538"/><path d="m298.07031 502.51788a2.8741407 2.8741407 0 0 1 -2.87414 2.87414 2.8741407 2.8741407 0 0 1 -2.87414-2.87414 2.8741407 2.8741407 0 0 1 2.87414-2.87414 2.8741407 2.8741407 0 0 1 2.87414 2.87414z" fill="#2d3538"/><path d="m298.07031 502.51787 7.75578-.00003" fill="none" stroke="#2d3538" stroke-width="1.062992"/><g fill="#2d3538" transform="matrix(.40557321 0 0 .40557321 364.86457 526.6018)"><path d="m1.9601887-12.944642v12.944642h5.5477037c2.9217906 0 4.6600716-1.3129566 4.6600716-3.5135457 0-1.7752652-1.091049-2.99576-2.9587758-3.2731452 1.5163728-.3143699 2.3855128-1.4054183 2.3855128-2.9217907 0-2.0341584-1.57185-3.2361604-4.1792703-3.2361604zm1.4793876 1.423911h3.901885c1.7382805 0 2.7553597.739693 2.7553597 2.0526499 0 1.3499413-1.0170792 2.1081275-2.7553597 2.1081275h-3.901885zm0 5.5661956h3.901885c2.1081274 0 3.3286227.8321556 3.3286227 2.2375739 0 1.4793877-1.2204953 2.3115432-3.3286227 2.3115432h-3.901885z"/><path d="m23.463031-9.7454662h-1.442403v4.7895175c0 2.0711428-1.183511 3.5320381-3.199176 3.5690228-1.682804 0-2.699883-1.0170791-2.699883-2.7368672v-5.6216731h-1.442403v6.0100123c0 2.348528 1.368434 3.79093094 3.642992 3.79093094 1.756773-.01849235 3.051238-.73969383 3.69847-2.25606624v2.2005892h1.442403z"/><path d="m29.555969-9.8009433c-1.775265 0-3.384099.7766785-3.384099 2.6444055-.01849 3.4580686 5.43675 2.2560662 5.381273 4.6045941-.01849.961602-.94311 1.3869259-2.089635 1.3869259-1.146526 0-2.404005-.4623086-3.236161-1.2389872l-.55477 1.0910484c.924617.88763265 2.348528 1.36843364 3.735454 1.36843364 1.867726 0 3.569022-.85064791 3.569022-2.77385184 0-3.4950534-5.436749-2.3855126-5.436749-4.5491171 0-.9061249.832155-1.2944642 1.923204-1.2944642.906125 0 1.886219.3143699 2.644405.7951709l.55477-1.1465255c-.813663-.5547704-1.941696-.8876326-3.106714-.8876326z"/><path d="m36.049093-13.536397c-.536278 0-.94311.425324-.94311.998587 0 .573262.406832.998586.94311.998586s.94311-.425324.94311-.998586c0-.573263-.406832-.998587-.94311-.998587zm.721202 13.536397v-9.7454662h-1.423911v9.7454662z"/><path d="m45.509372-9.8009433c-1.775265.018492-3.088222.7212015-3.772438 2.2005892v-2.1451121h-1.442403v9.7454662h1.442403v-5.2333339c.166431-1.8492345 1.349941-3.1067141 3.273145-3.1252064 1.719788 0 2.755359 1.017079 2.755359 2.7368672v5.6216731h1.442403v-6.0100124c0-2.3485279-1.368433-3.7909309-3.698469-3.7909309z"/><path d="m56.276544-9.7824509c-2.829329 0-4.826503 2.0156657-4.826503 4.918964 0 2.9032982 1.978681 4.91896394 4.844995 4.91896394 1.627326 0 2.99576-.59175507 3.920377-1.62732644l-.795171-.8506479c-.758186.7951709-1.81225 1.2204948-3.014252 1.2204948-1.886219 0-3.273145-1.2020025-3.532038-3.1067141h7.951709c.147938-3.3101299-1.405419-5.4922267-4.549117-5.4737343zm-3.402592 4.2902242c.221908-1.8492346 1.553357-3.0512371 3.402592-3.0512371 1.904711 0 3.162191 1.1835102 3.254652 3.0512371z"/><path d="m65.890539-9.8009433c-1.775265 0-3.384099.7766785-3.384099 2.6444055-.01849 3.4580686 5.43675 2.2560662 5.381273 4.6045941-.01849.961602-.94311 1.3869259-2.089636 1.3869259-1.146525 0-2.404004-.4623086-3.23616-1.2389872l-.55477 1.0910484c.924617.88763265 2.348528 1.36843364 3.735453 1.36843364 1.867727 0 3.569023-.85064791 3.569023-2.77385184 0-3.4950534-5.436749-2.3855126-5.436749-4.5491171 0-.9061249.832155-1.2944642 1.923203-1.2944642.906125 0 1.88622.3143699 2.644406.7951709l.55477-1.1465255c-.813663-.5547704-1.941696-.8876326-3.106714-.8876326z"/><path d="m74.26988-9.8009433c-1.775265 0-3.384099.7766785-3.384099 2.6444055-.01849 3.4580686 5.43675 2.2560662 5.381273 4.6045941-.01849.961602-.94311 1.3869259-2.089635 1.3869259-1.146526 0-2.404005-.4623086-3.236161-1.2389872l-.55477 1.0910484c.924617.88763265 2.348528 1.36843364 3.735454 1.36843364 1.867727 0 3.569022-.85064791 3.569022-2.77385184 0-3.4950534-5.436749-2.3855126-5.436749-4.5491171 0-.9061249.832155-1.2944642 1.923204-1.2944642.906125 0 1.886219.3143699 2.644405.7951709l.55477-1.1465255c-.813663-.5547704-1.941696-.8876326-3.106714-.8876326z"/><path d="m3.4395763 17.086928v-11.5392243h-1.4793876v12.9446423h7.1565378v-1.405418z"/><path d="m15.285369 8.7098949c-2.884806 0-4.937457 1.9971731-4.937457 4.9004721 0 2.92179 2.052651 4.937456 4.937457 4.937456s4.937456-2.015666 4.937456-4.937456c0-2.903299-2.05265-4.9004721-4.937456-4.9004721zm0 1.3129561c2.034158 0 3.495053 1.479388 3.495053 3.606008 0 2.145112-1.460895 3.6245-3.495053 3.6245s-3.495054-1.479388-3.495054-3.6245c0-2.12662 1.460896-3.606008 3.495054-3.606008z"/><path d="m31.229238 8.7468796h-1.442403v1.9786814c-.70271-1.2944646-1.960189-2.0341585-3.6245-2.0341585-2.607421.018492-4.401178 1.9416965-4.401178 4.6600715 0 2.773852 1.812249 4.715548 4.438163 4.715548 1.645818 0 2.903298-.739694 3.587515-2.034158v1.479387c0 2.034159-1.386926 3.328623-3.513546 3.328623-1.294464-.01849-2.311543-.443817-3.273145-1.238987l-.665725 1.10954c1.18351.887633 2.459482 1.386926 3.994347 1.405419 2.958775 0 4.900472-1.793758 4.900472-4.641579zm-4.771026 8.0996474c-1.960188 0-3.328622-1.442403-3.347114-3.439576.01849-2.015666 1.386926-3.458069 3.347114-3.458069 1.941697 0 3.328623 1.423911 3.328623 3.458069 0 1.997173-1.386926 3.439576-3.328623 3.439576z"/><path d="m35.218385 4.9559487c-.536278 0-.943109.4253239-.943109.9985867 0 .5732627.406831.9985866.943109.9985866.536279 0 .94311-.4253239.94311-.9985866 0-.5732628-.406831-.9985867-.94311-.9985867zm.721202 13.5363973v-9.7454664h-1.423911v9.7454664z"/><path d="m43.310231 8.7098949c-2.810836 0-4.826502 2.0156661-4.826502 4.9189641s1.997173 4.918964 4.826502 4.918964c1.682804 0 3.032745-.62874 3.901885-1.682804l-.832155-.887632c-.684217.813663-1.738281 1.257479-3.014253 1.257479-2.015666 0-3.458069-1.479387-3.458069-3.606007s1.442403-3.587515 3.458069-3.587515c1.18351 0 2.163605.425324 2.903298 1.128033l.795171-1.017079c-.887632-.9246174-2.182097-1.4608955-3.753946-1.4424031z"/></g><g fill="#2d3538" transform="matrix(.40557321 0 0 .40557321 373.26809 504.99072)"><path d="m1.9601887-12.944642v12.944642h5.1778568c3.8094235 0 6.7127215-2.7923442 6.7127215-6.472321 0-3.679977-2.884806-6.472321-6.6572445-6.472321zm1.4793876 1.423911h3.7169615c2.9032982 0 5.1963492 2.163604 5.1963492 5.0669023 0 2.884806-2.256066 5.0484104-5.1408721 5.0484104h-3.7724386z"/><path d="m22.395387 0h1.405418l-.01849-6.4353363c-.01849-2.0896351-1.349941-3.365607-3.753946-3.365607-1.664311 0-2.718375.480801-3.975854 1.3129566l.610247 1.0540637c1.017079-.7027092 2.015666-1.1095408 3.088222-1.1095408 1.719788 0 2.607421.8506479 2.607421 2.2745586v.5732627h-3.199176c-2.293051.018492-3.642992 1.0910484-3.642992 2.7923442 0 1.6828035 1.294464 2.97726768 3.31013 2.97726768 1.553357 0 2.792344-.51778568 3.569023-1.57184938zm-3.291638-1.1835101c-1.368434 0-2.237574-.7027092-2.237574-1.7752652 0-1.0725561.850648-1.5718494 2.477975-1.5718494h3.032744v1.1650178c-.369847 1.3499412-1.627326 2.1820968-3.273145 2.1820968z"/><path d="m31.626247-1.8307422c-.536278.3328622-1.054064.4992933-1.553357.4992933-.832156 0-1.294464-.4438163-1.294464-1.6273264v-5.3073033h3.088221v-1.1835101l-3.088221.018492v-2.5704356h-1.423911v2.5704356h-1.405418v1.1650178h1.405418v5.5661961c0 1.92320398 1.054064 2.77385188 2.477974 2.77385188.776679-.01849234 1.516373-.27738518 2.200589-.73969383z"/><path d="m40.273729 0h1.405418l-.01849-6.4353363c-.01849-2.0896351-1.349941-3.365607-3.753946-3.365607-1.664311 0-2.718375.480801-3.975854 1.3129566l.610247 1.0540637c1.017079-.7027092 2.015666-1.1095408 3.088222-1.1095408 1.719788 0 2.60742.8506479 2.60742 2.2745586v.5732627h-3.199175c-2.293051.018492-3.642992 1.0910484-3.642992 2.7923442 0 1.6828035 1.294464 2.97726768 3.310129 2.97726768 1.553357 0 2.792345-.51778568 3.569023-1.57184938zm-3.291637-1.1835101c-1.368434 0-2.237574-.7027092-2.237574-1.7752652 0-1.0725561.850648-1.5718494 2.477974-1.5718494h3.032745v1.1650178c-.369847 1.3499412-1.627327 2.1820968-3.273145 2.1820968z"/><path d="m50.170313-9.8009433c-1.701296 0-3.032745.7951709-3.753946 2.1636045v-6.0839822h-1.442403v13.721321h1.442403v-2.0896351c.721201 1.34994127 2.05265 2.14511214 3.790931 2.14511214 2.755359 0 4.641578-2.01566574 4.641578-4.90047164 0-2.9217906-1.923204-4.9559487-4.678563-4.9559487zm-.258893 8.5434638c-2.05265 0-3.495053-1.49788-3.495053-3.6244998 0-2.1081274 1.442403-3.6244998 3.495053-3.6244998 2.034158 0 3.476561 1.5348647 3.476561 3.6244998 0 2.1081274-1.442403 3.6244998-3.476561 3.6244998z"/><path d="m63.425279 0h1.405419l-.01849-6.4353363c-.01849-2.0896351-1.349941-3.365607-3.753946-3.365607-1.664311 0-2.718375.480801-3.975854 1.3129566l.610247 1.0540637c1.017079-.7027092 2.015666-1.1095408 3.088222-1.1095408 1.719788 0 2.607421.8506479 2.607421 2.2745586v.5732627h-3.199176c-2.293051.018492-3.642992 1.0910484-3.642992 2.7923442 0 1.6828035 1.294464 2.97726768 3.31013 2.97726768 1.553357 0 2.792344-.51778568 3.569022-1.57184938zm-3.291637-1.1835101c-1.368434 0-2.237574-.7027092-2.237574-1.7752652 0-1.0725561.850648-1.5718494 2.477974-1.5718494h3.032745v1.1650178c-.369847 1.3499412-1.627326 2.1820968-3.273145 2.1820968z"/><path d="m70.621977-9.8009433c-1.775265 0-3.384099.7766785-3.384099 2.6444055-.01849 3.4580686 5.436749 2.2560662 5.381272 4.6045941-.01849.961602-.943109 1.3869259-2.089635 1.3869259-1.146525 0-2.404005-.4623086-3.23616-1.2389872l-.554771 1.0910484c.924618.88763265 2.348528 1.36843364 3.735454 1.36843364 1.867727 0 3.569023-.85064791 3.569023-2.77385184 0-3.4950534-5.43675-2.3855126-5.43675-4.5491171 0-.9061249.832156-1.2944642 1.923204-1.2944642.906125 0 1.886219.3143699 2.644406.7951709l.55477-1.1465255c-.813663-.5547704-1.941696-.8876326-3.106714-.8876326z"/><path d="m80.258805-9.7824509c-2.829329 0-4.826502 2.0156657-4.826502 4.918964 0 2.9032982 1.978681 4.91896394 4.844995 4.91896394 1.627326 0 2.99576-.59175507 3.920377-1.62732644l-.795171-.8506479c-.758186.7951709-1.81225 1.2204948-3.014252 1.2204948-1.88622 0-3.273146-1.2020025-3.532038-3.1067141h7.951708c.147939-3.3101299-1.405418-5.4922267-4.549117-5.4737343zm-3.402591 4.2902242c.221908-1.8492346 1.553357-3.0512371 3.402591-3.0512371 1.904712 0 3.162191 1.1835102 3.254653 3.0512371z"/></g><g fill="#2d3538" transform="matrix(.40557321 0 0 .40557321 365.82753 483.76383)"><path d="m10.744053-11.520731v-1.423911h-8.7838643v12.944642h9.0242643v-1.4054183h-7.5448767v-4.438163h6.5277981v-1.4239106h-6.5277981v-4.2532391z"/><path d="m19.313233-12.944642h-6.120967v1.423911h4.623087v7.6003537c0 1.6088341-.795171 2.459482-2.219082 2.459482-.998587 0-2.015666-.5177857-2.829329-1.49788l-.739694 1.1835101c.906125 1.16501779 2.145112 1.84923458 3.587515 1.84923458 2.311544 0 3.69847-1.44240298 3.69847-3.95736198z"/><path d="m22.908549-12.944642v12.944642h5.547704c2.92179 0 4.660071-1.3129566 4.660071-3.5135457 0-1.7752652-1.091048-2.99576-2.958775-3.2731452 1.516372-.3143699 2.385512-1.4054183 2.385512-2.9217907 0-2.0341584-1.571849-3.2361604-4.17927-3.2361604zm1.479388 1.423911h3.901885c1.73828 0 2.755359.739693 2.755359 2.0526499 0 1.3499413-1.017079 2.1081275-2.755359 2.1081275h-3.901885zm0 5.5661956h3.901885c2.108127 0 3.328622.8321556 3.328622 2.2375739 0 1.4793877-1.220495 2.3115432-3.328622 2.3115432h-3.901885z"/></g><g fill="#2d3538" transform="matrix(.40557321 0 0 .40557321 163.90673 509.72513)"><path d="m10.152298-3.2731452 1.442403 3.2731452h1.608834l-5.7881043-12.944642h-1.5348647l-5.80659662 12.944642h1.57184942l1.442403-3.2731452zm-.6287399-1.4239106h-5.8065966l2.884806-6.5647832z"/><path d="m23.492792-13.721321h-1.442403v6.0839822c-.721202-1.386926-2.071143-2.1820968-3.809423-2.1820968-2.75536 0-4.678564 2.0156657-4.678564 4.9374563 0 2.9032983 1.923204 4.95594868 4.697056 4.95594868 1.738281 0 3.069729-.79517087 3.790931-2.16360448v2.0896351h1.442403zm-4.955949 12.5008262c-2.071142 0-3.532038-1.5163724-3.532038-3.6244998 0-2.1266198 1.460896-3.6614845 3.532038-3.6614845 2.052651 0 3.513546 1.5348647 3.513546 3.6614845 0 2.1081274-1.460895 3.6244998-3.513546 3.6244998z"/><path d="m36.061808-13.721321h-1.442403v6.0839822c-.721201-1.386926-2.071142-2.1820968-3.809423-2.1820968-2.755359 0-4.678563 2.0156657-4.678563 4.9374563 0 2.9032983 1.923204 4.95594868 4.697056 4.95594868 1.73828 0 3.069729-.79517087 3.79093-2.16360448v2.0896351h1.442403zm-4.955948 12.5008262c-2.071143 0-3.532038-1.5163724-3.532038-3.6244998 0-2.1266198 1.460895-3.6614845 3.532038-3.6614845 2.05265 0 3.513545 1.5348647 3.513545 3.6614845 0 2.1081274-1.460895 3.6244998-3.513545 3.6244998z"/><path d="m43.452967-5.0669028v-1.072556h-4.345701v1.072556z"/><path d="m50.355813-9.7824509c-2.884806 0-4.937457 1.9971733-4.937457 4.9004716 0 2.9217906 2.052651 4.93745634 4.937457 4.93745634s4.937456-2.01566574 4.937456-4.93745634c0-2.9032983-2.05265-4.9004716-4.937456-4.9004716zm0 1.3129565c2.034158 0 3.495053 1.4793877 3.495053 3.6060075 0 2.1451121-1.460895 3.6244997-3.495053 3.6244997s-3.495054-1.4793876-3.495054-3.6244997c0-2.1266198 1.460896-3.6060075 3.495054-3.6060075z"/><path d="m63.026538-9.8009433c-1.775265.018492-3.088221.7212015-3.772438 2.2005892v-2.1451121h-1.442403v9.7454662h1.442403v-5.2333339c.166431-1.8492345 1.349941-3.1067141 3.273145-3.1252064 1.719788 0 2.75536 1.017079 2.75536 2.7368672v5.6216731h1.442403v-6.0100124c0-2.3485279-1.368434-3.7909309-3.69847-3.7909309z"/></g><g fill="#2d3538" transform="matrix(.40557321 0 0 .40557321 158.16218 528.00656)"><path d="m7.4894001-12.981627c-3.7539462 0-6.74970627 2.866314-6.74970627 6.4908136 0 3.6614845 2.95877537 6.56478278 6.69422917 6.56478278 1.7937576 0 3.532038-.79517087 4.80801-1.99717338l-.906125-1.017079c-1.017079.961602-2.404005 1.5533571-3.8279156 1.5533571-2.9217906 0-5.2703186-2.2745586-5.2703186-5.1038875 0-2.8478212 2.348528-5.1038876 5.2703186-5.1038876 1.4239106 0 2.8293286.610248 3.8279156 1.6273266l.887633-1.1280326c-1.238988-1.165018-2.9587757-1.88622-4.7340409-1.88622z"/><path d="m23.13797-9.7454662h-1.442403v4.7895175c0 2.0711428-1.18351 3.5320381-3.199176 3.5690228-1.682804 0-2.699883-1.0170791-2.699883-2.7368672v-5.6216731h-1.442403v6.0100123c0 2.348528 1.368434 3.79093094 3.642993 3.79093094 1.756772-.01849235 3.051237-.73969383 3.698469-2.25606624v2.2005892h1.442403z"/><path d="m29.230909-9.8009433c-1.775265 0-3.384099.7766785-3.384099 2.6444055-.01849 3.4580686 5.43675 2.2560662 5.381273 4.6045941-.01849.961602-.94311 1.3869259-2.089635 1.3869259-1.146526 0-2.404005-.4623086-3.236161-1.2389872l-.55477 1.0910484c.924617.88763265 2.348528 1.36843364 3.735454 1.36843364 1.867727 0 3.569022-.85064791 3.569022-2.77385184 0-3.4950534-5.436749-2.3855126-5.436749-4.5491171 0-.9061249.832155-1.2944642 1.923204-1.2944642.906125 0 1.886219.3143699 2.644405.7951709l.55477-1.1465255c-.813663-.5547704-1.941696-.8876326-3.106714-.8876326z"/><path d="m39.644409-1.8307422c-.536278.3328622-1.054064.4992933-1.553357.4992933-.832156 0-1.294465-.4438163-1.294465-1.6273264v-5.3073033h3.088222v-1.1835101l-3.088222.018492v-2.5704356h-1.42391v2.5704356h-1.405419v1.1650178h1.405419v5.5661961c0 1.92320398 1.054063 2.77385188 2.477974 2.77385188.776679-.01849234 1.516372-.27738518 2.200589-.73969383z"/><path d="m46.057786-9.7824509c-2.884806 0-4.937457 1.9971733-4.937457 4.9004716 0 2.9217906 2.052651 4.93745634 4.937457 4.93745634s4.937456-2.01566574 4.937456-4.93745634c0-2.9032983-2.05265-4.9004716-4.937456-4.9004716zm0 1.3129565c2.034158 0 3.495053 1.4793877 3.495053 3.6060075 0 2.1451121-1.460895 3.6244997-3.495053 3.6244997s-3.495054-1.4793876-3.495054-3.6244997c0-2.1266198 1.460896-3.6060075 3.495054-3.6060075z"/><path d="m65.996003-9.8009433c-1.867727.018492-3.23616.8321556-3.846408 2.5519437-.406831-1.608834-1.664311-2.5519437-3.495053-2.5519437-1.756773.018492-3.069729.7396939-3.716962 2.2560662v-2.2005891h-1.42391v9.7454662h1.42391v-4.7895176c0-2.089635 1.202003-3.532038 3.199176-3.5875151 1.701296 0 2.699883 1.0170791 2.699883 2.7553596v5.6216731h1.460895v-4.7895176c0-2.089635 1.165018-3.532038 3.180684-3.5875151 1.682803 0 2.699882 1.0170791 2.699882 2.7553596v5.6216731h1.442403v-6.0100124c0-2.3485279-1.349941-3.7909309-3.6245-3.7909309z"/></g><path d="m250.41067 583.51843a2.8741407 2.8741407 0 0 1 -2.87414 2.87414 2.8741407 2.8741407 0 0 1 -2.87414-2.87414 2.8741407 2.8741407 0 0 1 2.87414-2.87414 2.8741407 2.8741407 0 0 1 2.87414 2.87414z" fill="#00b6f3"/><g fill="#2d3538" transform="matrix(.40557321 0 0 .40557321 231.41993 587.20491)"><path d="m-21.144264-11.520731v-1.423911h-9.930389v1.423911h4.216254v11.520731h1.479388v-11.520731z"/><path d="m-14.949328-9.8009433c-1.793757.018492-3.125206.7212015-3.790931 2.2375739v-6.1579516h-1.442403v13.721321h1.442403v-4.7895176c0-2.089635 1.220495-3.5505304 3.291638-3.5690227 1.719788 0 2.755359 1.017079 2.755359 2.7368672v5.6216731h1.442403v-6.0100124c0-2.3485279-1.368433-3.7909309-3.698469-3.7909309z"/><path d="m-4.1847609-9.7824509c-2.8293289 0-4.8265023 2.0156657-4.8265023 4.918964 0 2.9032982 1.978681 4.91896394 4.8449946 4.91896394 1.6273264 0 2.99576-.59175507 3.92037732-1.62732644l-.79517082-.8506479c-.7581862.7951709-1.8122499 1.2204948-3.0142524 1.2204948-1.8862193 0-3.2731452-1.2020025-3.5320381-3.1067141h7.95170873c.14793877-3.3101299-1.40541823-5.4922267-4.54911703-5.4737343zm-3.4025917 4.2902242c.2219082-1.8492346 1.5533571-3.0512371 3.4025917-3.0512371 1.9047116 0 3.1621911 1.1835102 3.25465283 3.0512371z"/><path d="m15.322644-9.8009433c-1.867727.018492-3.236161.8321556-3.846408 2.5519437-.406832-1.608834-1.6643115-2.5519437-3.4950537-2.5519437-1.7567728.018492-3.0697294.7396939-3.7169615 2.2560662v-2.2005891h-1.4239106v9.7454662h1.4239106v-4.7895176c0-2.089635 1.2020025-3.532038 3.1991758-3.5875151 1.7012958 0 2.6998824 1.0170791 2.6998824 2.7553596v5.6216731h1.460895v-4.7895176c0-2.089635 1.165018-3.532038 3.180684-3.5875151 1.682803 0 2.699882 1.0170791 2.699882 2.7553596v5.6216731h1.442403v-6.0100124c0-2.3485279-1.349941-3.7909309-3.624499-3.7909309z"/><path d="m26.009773-9.7824509c-2.829329 0-4.826502 2.0156657-4.826502 4.918964 0 2.9032982 1.978681 4.91896394 4.844995 4.91896394 1.627326 0 2.99576-.59175507 3.920377-1.62732644l-.795171-.8506479c-.758186.7951709-1.81225 1.2204948-3.014252 1.2204948-1.886219 0-3.273145-1.2020025-3.532038-3.1067141h7.951708c.147939-3.3101299-1.405418-5.4922267-4.549117-5.4737343zm-3.402591 4.2902242c.221908-1.8492346 1.553357-3.0512371 3.402591-3.0512371 1.904712 0 3.162191 1.1835102 3.254653 3.0512371z"/></g><path d="m295.19621 502.51788a31.889784 31.889784 0 0 1 -31.88978 31.88979 31.889784 31.889784 0 0 1 -31.88979-31.88979 31.889784 31.889784 0 0 1 31.88979-31.88978 31.889784 31.889784 0 0 1 31.88978 31.88978z" fill="none" stroke="#2d3538" stroke-width="1.02935"/><path d="m369.60563 502.51788a31.889784 31.889784 0 0 1 -31.88978 31.88979 31.889784 31.889784 0 0 1 -31.88978-31.88979 31.889784 31.889784 0 0 1 31.88978-31.88978 31.889784 31.889784 0 0 1 31.88978 31.88978z" fill="none" stroke="#2d3538" stroke-width="1.02935"/><path d="m239.94108 484.80133a2.8741407 2.8741407 0 0 1 -2.87414 2.87414 2.8741407 2.8741407 0 0 1 -2.87414-2.87414 2.8741407 2.8741407 0 0 1 2.87414-2.87414 2.8741407 2.8741407 0 0 1 2.87414 2.87414z" fill="#00b6f3"/><path d="m239.94108 520.23437a2.8741407 2.8741407 0 0 1 -2.87414 2.87415 2.8741407 2.8741407 0 0 1 -2.87414-2.87415 2.8741407 2.8741407 0 0 1 2.87414-2.87414 2.8741407 2.8741407 0 0 1 2.87414 2.87414z" fill="#ff3849"/><path d="m364.24881 481.258a2.8741407 2.8741407 0 0 1 -2.87415 2.87414 2.8741407 2.8741407 0 0 1 -2.87414-2.87414 2.8741407 2.8741407 0 0 1 2.87414-2.87415 2.8741407 2.8741407 0 0 1 2.87415 2.87415z" fill="#00b6f3"/><path d="m372.47976 502.51788a2.8741407 2.8741407 0 0 1 -2.87414 2.87414 2.8741407 2.8741407 0 0 1 -2.87414-2.87414 2.8741407 2.8741407 0 0 1 2.87414-2.87414 2.8741407 2.8741407 0 0 1 2.87414 2.87414z" fill="#ff3849"/><path d="m364.35159 523.77771a2.8741407 2.8741407 0 0 1 -2.87414 2.87414 2.8741407 2.8741407 0 0 1 -2.87414-2.87414 2.8741407 2.8741407 0 0 1 2.87414-2.87414 2.8741407 2.8741407 0 0 1 2.87414 2.87414z" fill="#2d3538"/><path d="m161.24016 502.51786h72.04725" fill="none" stroke="#000"/></g></svg>