<svg height="24mm" width="82mm" xmlns="http://www.w3.org/2000/svg"><g transform="translate(-100.76772 -506.29739)"><g fill="none"><path d="m308.64172 510.0769h98.26773v83.1496h-98.26773z" stroke="#fff" stroke-linecap="round"/><path d="m312.42126 513.85645h90.70867v45.35433h-90.70867z" stroke="#808080" stroke-dasharray="1 2"/><path d="m225.4369 561.07063 79.42531.29463v-13.49306h15.11811" stroke="#000"/><path d="m248.1693 551.65172h49.13386v-26.4567h22.67716" stroke="#000"/><path d="m176.35827 525.19502v-7.55905h136.063" stroke="#000"/></g><path d="m251.04344 551.65173a2.8741407 2.8741407 0 0 1 -2.87414 2.87414 2.8741407 2.8741407 0 0 1 -2.87414-2.87414 2.8741407 2.8741407 0 0 1 2.87414-2.87414 2.8741407 2.8741407 0 0 1 2.87414 2.87414z" fill="#ff3849"/><path d="m322.85446 525.19501a2.8741407 2.8741407 0 0 1 -2.87414 2.87414 2.8741407 2.8741407 0 0 1 -2.87414-2.87414 2.8741407 2.8741407 0 0 1 2.87414-2.87414 2.8741407 2.8741407 0 0 1 2.87414 2.87414z" fill="#ff3849"/><g transform="translate(154.20341 486.72008)"><path d="m-45.190766 31.973076c-2.064 0-3.672 1.512-3.672 3.48 0 1.928 1.536 3.36 3.568 3.36.608 0 1.4-.216 1.872-.552l-.328-.584c-.448.32-1.072.472-1.544.472-1.632 0-2.88-1.136-2.88-2.696 0-1.584 1.32-2.832 2.984-2.832 1.776 0 2.888 1.224 2.888 2.816 0 .824-.36 1.392-.752 1.392-.216 0-.368-.128-.368-.432v-2.792h-.864v.52c-.08-.168-.56-.6-1.264-.6-1.064 0-1.76.856-1.76 1.912 0 1.12.872 1.872 1.848 1.872.552 0 1.048-.232 1.376-.712l.016.16c.088.448.44.648.928.648.896 0 1.528-.784 1.528-1.992 0-1.992-1.52-3.44-3.576-3.44zm-.192 2.352c.632 0 1.04.48 1.04 1.08 0 .624-.392 1.12-1.024 1.12-.608 0-1.008-.512-1.008-1.128 0-.592.4-1.072.992-1.072z"/><path d="m-37.049891 37.589076h1.072l-1.256-1.872c.744-.288 1.16-.92 1.16-1.816 0-1.216-.824-1.912-2.256-1.912h-2.272v5.6h.944v-1.688h1.328c.088 0 .176 0 .256-.008zm-2.608-2.536v-2.216h1.328c.864 0 1.36.352 1.36 1.088 0 .76-.496 1.128-1.36 1.128z" fill="#cbcb00"/><path d="m-33.052641 33.301076c-1.32 0-2.224.872-2.224 2.16 0 1.28.904 2.16 2.224 2.16 1.312 0 2.216-.88 2.216-2.16 0-1.288-.904-2.16-2.216-2.16zm0 .792c.76 0 1.296.56 1.296 1.376 0 .824-.536 1.384-1.296 1.384-.768 0-1.304-.56-1.304-1.384 0-.816.536-1.376 1.304-1.376z" fill="#cbcb00"/><path d="m-26.012641 33.333076h-.92v2.096c0 .744-.432 1.312-1.168 1.328-.616 0-.992-.392-.992-1.032v-2.392h-.92v2.648c0 1.016.584 1.64 1.56 1.64.696-.008 1.232-.272 1.52-.864v.832h.92z" fill="#cbcb00"/><path d="m-22.481891 36.613076c-.248.12-.448.184-.64.184-.288 0-.456-.136-.456-.576v-2.04h1.256v-.688h-1.256v-1.168h-.912v1.168h-.6v.688h.6v2.208c0 .872.552 1.24 1.192 1.24.36 0 .712-.112 1.048-.312z" fill="#cbcb00"/><path d="m-19.702766 33.301076c-1.264.008-2.152.88-2.152 2.168 0 1.28.864 2.152 2.176 2.152.736 0 1.344-.264 1.76-.72l-.488-.52c-.312.32-.736.496-1.2.496-.672 0-1.176-.408-1.32-1.064h3.216c.112-1.536-.496-2.512-1.992-2.512zm-1.24 1.84c.104-.68.576-1.104 1.248-1.104.696 0 1.152.416 1.184 1.104z" fill="#cbcb00"/><path d="m-15.839641 31.653076c-.632.912-.976 2.136-.976 3.464s.344 2.552.976 3.464h.832c-.584-.912-.944-2.136-.944-3.464s.36-2.552.944-3.464z"/><path d="m-13.700766 33.957076v-1.968h-.704v1.968zm1.232 0v-1.968h-.704v1.968z" fill="#cbcb00"/><path d="m-10.810141 33.957076v-1.968h-.704v1.968zm1.2320004 0v-1.968h-.7040004v1.968z" fill="#cbcb00"/><path d="m-8.1515156 31.653076c.584.912.944 2.136.944 3.464s-.36 2.552-.944 3.464h.832c.632-.912.976-2.136.976-3.464s-.344-2.552-.976-3.464z"/><path d="m-46.006766 43.301076c-.664 0-1.176.272-1.488.768v-.736h-.92v5.808h.92v-2.288c.312.496.824.768 1.504.768 1.216 0 2.016-.872 2.016-2.144 0-1.296-.824-2.176-2.032-2.176zm-.192 3.536c-.76 0-1.296-.568-1.296-1.392 0-.8.536-1.376 1.296-1.376s1.296.584 1.296 1.376c0 .816-.536 1.392-1.296 1.392z"/><path d="m-39.153266 43.333076h-.92v2.096c0 .744-.432 1.312-1.168 1.328-.616 0-.992-.392-.992-1.032v-2.392h-.92v2.648c0 1.016.584 1.64 1.56 1.64.696-.008 1.232-.272 1.52-.864v.832h.92z"/><path d="m-35.350516 43.301076c-.664 0-1.176.272-1.488.768v-2.416h-.92v5.936h.92v-.736c.312.496.824.768 1.504.768 1.216 0 2.016-.872 2.016-2.144 0-1.296-.824-2.176-2.032-2.176zm-.192 3.536c-.76 0-1.296-.568-1.296-1.392 0-.8.536-1.376 1.296-1.376s1.296.584 1.296 1.376c0 .816-.536 1.392-1.296 1.392z"/><path d="m-31.401016 47.589076v-5.936h-.92v5.936z"/><path d="m-29.545641 41.557076c-.304 0-.536.232-.536.56 0 .32.232.552.536.552s.536-.232.536-.552c0-.328-.232-.56-.536-.56zm.456 6.032v-4.256h-.912v4.256z"/><path d="m-25.992016 43.301076c-1.264 0-2.144.88-2.144 2.168 0 1.28.88 2.152 2.144 2.152.808 0 1.424-.288 1.808-.792l-.512-.512c-.288.336-.72.512-1.256.512-.736 0-1.264-.552-1.264-1.36s.528-1.36 1.264-1.36c.512-.008.92.176 1.216.48l.504-.592c-.392-.448-.992-.696-1.76-.696z"/><path d="m-19.413891 43.301076c-1.264 0-2.144.88-2.144 2.168 0 1.28.88 2.152 2.144 2.152.808 0 1.424-.288 1.808-.792l-.512-.512c-.288.336-.72.512-1.256.512-.736 0-1.264-.552-1.264-1.36s.528-1.36 1.264-1.36c.512-.008.92.176 1.216.48l.504-.592c-.392-.448-.992-.696-1.76-.696z"/><path d="m-15.682266 47.589076v-5.936h-.92v5.936z"/><path d="m-11.730891 47.589076h.904l-.008-2.792c-.008-.936-.624-1.496-1.72-1.496-.808 0-1.24.184-1.832.536l.376.64c.424-.288.848-.432 1.256-.432.672 0 1.016.32 1.016.856v.128h-1.288c-1.024.008-1.608.504-1.608 1.28 0 .752.576 1.32 1.496 1.32.616 0 1.104-.184 1.408-.56zm-1.216-.688c-.512 0-.824-.248-.824-.632 0-.408.28-.568.88-.568h1.152v.392c-.048.464-.552.808-1.208.808z"/><path d="m-8.3233906 43.293076c-.816 0-1.568.368-1.568 1.232-.008 1.536 2.232 1.048 2.232 1.92 0 .32-.304.456-.696.456-.464 0-1.056-.2-1.424-.528l-.3280004.656c.4240004.384 1.0880004.592 1.7120004.592.856 0 1.632-.392 1.632-1.264.008-1.544-2.256-1.12-2.256-1.904 0-.304.264-.424.624-.424.376 0 .848.144 1.224.376l.336-.68c-.384-.272-.952-.432-1.488-.432z"/><path d="m-4.5577656 43.293076c-.816 0-1.568.368-1.568 1.232-.008 1.536 2.232 1.048 2.232 1.92 0 .32-.304.456-.696.456-.464 0-1.056-.2-1.424-.528l-.328.656c.424.384 1.088.592 1.712.592.856 0 1.632-.392 1.632-1.264.008-1.544-2.256-1.12-2.256-1.904 0-.304.264-.424.624-.424.376 0 .848.144 1.224.376l.336-.68c-.384-.272-.952-.432-1.488-.432z"/><path d="m5.9743594 47.589076v-5.6h-1.112l-1.84 3.72-1.848-3.72h-1.12000003v5.6h.88800001v-4.184l1.76800002 3.6h.616l1.768-3.6.008 4.184z" fill="#0f0"/><path d="m9.9566094 47.589076h.9039996l-.008-2.792c-.008-.936-.624-1.496-1.7199996-1.496-.808 0-1.24.184-1.832.536l.376.64c.424-.288.848-.432 1.256-.432.672 0 1.016.32 1.016.856v.128h-1.288c-1.024.008-1.608.504-1.608 1.28 0 .752.576 1.32 1.496 1.32.616 0 1.104-.184 1.408-.56zm-1.216-.688c-.512 0-.824-.248-.824-.632 0-.408.28-.568.88-.568h1.152v.392c-.048.464-.552.808-1.208.808z" fill="#0f0"/><path d="m12.548109 41.557076c-.304 0-.536.232-.536.56 0 .32.232.552.536.552s.536-.232.536-.552c0-.328-.232-.56-.536-.56zm.456 6.032v-4.256h-.912v4.256z" fill="#0f0"/><path d="m16.845734 43.301076c-.72 0-1.264.256-1.568.848v-.816h-.92v4.256h.92v-2.264c.064-.664.504-1.152 1.208-1.16.64 0 1.024.392 1.024 1.032v2.392h.92v-2.648c0-1.016-.592-1.64-1.584-1.64z" fill="#0f0"/><path d="m21.894109 47.589076 2.264-5.6h-.984l-1.744 4.552-1.728-4.552h-1.016l2.232 5.6z" fill="#0f0"/><path d="m25.266859 41.557076c-.304 0-.536.232-.536.56 0 .32.232.552.536.552s.536-.232.536-.552c0-.328-.232-.56-.536-.56zm.456 6.032v-4.256h-.912v4.256z" fill="#0f0"/><path d="m28.828484 43.301076c-1.264.008-2.152.88-2.152 2.168 0 1.28.864 2.152 2.176 2.152.736 0 1.344-.264 1.76-.72l-.488-.52c-.312.32-.736.496-1.2.496-.672 0-1.176-.408-1.32-1.064h3.216c.112-1.536-.496-2.512-1.992-2.512zm-1.24 1.84c.104-.68.576-1.104 1.248-1.104.696 0 1.152.416 1.184 1.104z" fill="#0f0"/><path d="m36.575359 47.589076 1.552-4.256h-.936l-1.088 3.344-1.08-3.344h-.952l-1.072 3.344-1.104-3.344h-.944l1.568 4.256h.944l1.08-3.152 1.08 3.152z" fill="#0f0"/><path d="m42.578484 43.301076c-1.264.008-2.152.88-2.152 2.168 0 1.28.864 2.152 2.176 2.152.736 0 1.344-.264 1.76-.72l-.488-.52c-.312.32-.736.496-1.2.496-.672 0-1.176-.408-1.32-1.064h3.216c.112-1.536-.496-2.512-1.992-2.512zm-1.24 1.84c.104-.68.576-1.104 1.248-1.104.696 0 1.152.416 1.184 1.104z"/><path d="m46.839234 44.789076-.952-1.456h-1.056l1.4 2.072-1.504 2.184h1.024l1.088-1.56 1.016 1.56h1.056l-1.464-2.184 1.368-2.072h-1.008z"/><path d="m51.908734 46.613076c-.248.12-.448.184-.64.184-.288 0-.456-.136-.456-.576v-2.04h1.256v-.688h-1.256v-1.168h-.912v1.168h-.6v.688h.6v2.208c0 .872.552 1.24 1.192 1.24.36 0 .712-.112 1.048-.312z"/><path d="m54.687859 43.301076c-1.264.008-2.152.88-2.152 2.168 0 1.28.864 2.152 2.176 2.152.736 0 1.344-.264 1.76-.72l-.488-.52c-.312.32-.736.496-1.2.496-.672 0-1.176-.408-1.32-1.064h3.216c.112-1.536-.496-2.512-1.992-2.512zm-1.24 1.84c.104-.68.576-1.104 1.248-1.104.696 0 1.152.416 1.184 1.104z"/><path d="m60.126984 43.301076c-.72 0-1.264.256-1.568.848v-.816h-.92v4.256h.92v-2.264c.064-.664.504-1.152 1.208-1.16.64 0 1.024.392 1.024 1.032v2.392h.92v-2.648c0-1.016-.592-1.64-1.584-1.64z"/><path d="m66.991859 41.653076h-.92v2.416c-.312-.496-.824-.776-1.512-.776-1.2 0-2.024.872-2.024 2.152 0 1.296.816 2.184 2.04 2.184.68 0 1.192-.272 1.496-.768v.728h.92zm-2.224 5.208c-.776 0-1.304-.576-1.312-1.384.008-.816.544-1.4 1.312-1.4s1.304.576 1.304 1.4c0 .808-.536 1.384-1.304 1.384z"/><path d="m69.660984 43.293076c-.816 0-1.568.368-1.568 1.232-.008 1.536 2.232 1.048 2.232 1.92 0 .32-.304.456-.696.456-.464 0-1.056-.2-1.424-.528l-.328.656c.424.384 1.088.592 1.712.592.856 0 1.632-.392 1.632-1.264.008-1.544-2.256-1.12-2.256-1.904 0-.304.264-.424.624-.424.376 0 .848.144 1.224.376l.336-.68c-.384-.272-.952-.432-1.488-.432z"/><g fill="#0f0"><path d="m76.769109 47.589076 2.264-5.6h-.984l-1.744 4.552-1.728-4.552h-1.016l2.232 5.6z"/><path d="m81.047234 43.301076c-1.264.008-2.152.88-2.152 2.168 0 1.28.864 2.152 2.176 2.152.736 0 1.344-.264 1.76-.72l-.488-.52c-.312.32-.736.496-1.2.496-.672 0-1.176-.408-1.32-1.064h3.216c.112-1.536-.496-2.512-1.992-2.512zm-1.24 1.84c.104-.68.576-1.104 1.248-1.104.696 0 1.152.416 1.184 1.104z"/><path d="m84.918359 43.333076h-.92v4.256h.92v-2.224c.072-.728.616-1.232 1.472-1.184v-.88c-.672 0-1.184.304-1.472.88z"/><path d="m89.330609 46.613076c-.248.12-.448.184-.64.184-.288 0-.456-.136-.456-.576v-2.04h1.256v-.688h-1.256v-1.168h-.912v1.168h-.6v.688h.6v2.208c0 .872.552 1.24 1.192 1.24.36 0 .712-.112 1.048-.312z"/><path d="m90.860609 41.557076c-.304 0-.536.232-.536.56 0 .32.232.552.536.552s.536-.232.536-.552c0-.328-.232-.56-.536-.56zm.456 6.032v-4.256h-.912v4.256z"/><path d="m94.414234 43.301076c-1.264 0-2.144.88-2.144 2.168 0 1.28.88 2.152 2.144 2.152.808 0 1.424-.288 1.808-.792l-.512-.512c-.288.336-.72.512-1.256.512-.736 0-1.264-.552-1.264-1.36s.528-1.36 1.264-1.36c.512-.008.92.176 1.216.48l.504-.592c-.392-.448-.992-.696-1.76-.696z"/><path d="m99.565984 47.589076h.903996l-.008-2.792c-.008-.936-.623996-1.496-1.719996-1.496-.808 0-1.24.184-1.832.536l.376.64c.424-.288.848-.432 1.256-.432.672 0 1.016.32 1.016.856v.128h-1.288c-1.024.008-1.608.504-1.608 1.28 0 .752.576 1.32 1.496 1.32.616 0 1.104-.184 1.408-.56zm-1.216-.688c-.512 0-.824-.248-.824-.632 0-.408.28-.568.88-.568h1.152v.392c-.048.464-.552.808-1.208.808z"/><path d="m102.66148 47.589076v-5.936h-.92v5.936z"/><path d="m105.06086 46.733076v-4.744h-.944v5.6h3.368v-.856z"/><path d="m110.87848 47.589076h.904l-.008-2.792c-.008-.936-.624-1.496-1.72-1.496-.808 0-1.24.184-1.832.536l.376.64c.424-.288.848-.432 1.256-.432.672 0 1.016.32 1.016.856v.128h-1.288c-1.024.008-1.608.504-1.608 1.28 0 .752.576 1.32 1.496 1.32.616 0 1.104-.184 1.408-.56zm-1.216-.688c-.512 0-.824-.248-.824-.632 0-.408.28-.568.88-.568h1.152v.392c-.048.464-.552.808-1.208.808z"/><path d="m116.49698 43.333076h-.92l-1.184 3.224-1.272-3.224h-.952l1.76 4.192-.144.32c-.144.32-.368.472-.648.472-.192 0-.352-.064-.552-.208l-.392.712c.296.248.6.36.984.36.64 0 1.12-.336 1.384-1.008z"/><path d="m118.80673 43.301076c-1.32 0-2.224.872-2.224 2.16 0 1.28.904 2.16 2.224 2.16 1.312 0 2.216-.88 2.216-2.16 0-1.288-.904-2.16-2.216-2.16zm0 .792c.76 0 1.296.56 1.296 1.376 0 .824-.536 1.384-1.296 1.384-.768 0-1.304-.56-1.304-1.384 0-.816.536-1.376 1.304-1.376z"/><path d="m125.84673 43.333076h-.92v2.096c0 .744-.432 1.312-1.168 1.328-.616 0-.992-.392-.992-1.032v-2.392h-.92v2.648c0 1.016.584 1.64 1.56 1.64.696-.008 1.232-.272 1.52-.864v.832h.92z"/><path d="m129.37748 46.613076c-.248.12-.448.184-.64.184-.288 0-.456-.136-.456-.576v-2.04h1.256v-.688h-1.256v-1.168h-.912v1.168h-.6v.688h.6v2.208c0 .872.552 1.24 1.192 1.24.36 0 .712-.112 1.048-.312z"/></g><path d="m133.54598 42.949076c0-.4.192-.568.76-.568v-.736h-.344c-.896 0-1.248.28-1.248 1.016v1.656c0 .304-.104.424-.344.424h-.248v.76h.248c.24 0 .344.12.344.424v1.648c0 .744.352 1.024 1.248 1.024h.344v-.736c-.568 0-.76-.168-.76-.568v-1.312c0-.512-.152-.76-.56-.856.408-.104.56-.352.56-.864z"/><path d="m-37.756766 53.301076c-.664 0-1.176.272-1.488.768v-.736h-.92v5.808h.92v-2.288c.312.496.824.768 1.504.768 1.216 0 2.016-.872 2.016-2.144 0-1.296-.824-2.176-2.032-2.176zm-.192 3.536c-.76 0-1.296-.568-1.296-1.392 0-.8.536-1.376 1.296-1.376s1.296.584 1.296 1.376c0 .816-.536 1.392-1.296 1.392z"/><path d="m-30.903266 53.333076h-.92v2.096c0 .744-.432 1.312-1.168 1.328-.616 0-.992-.392-.992-1.032v-2.392h-.92v2.648c0 1.016.584 1.64 1.56 1.64.696-.008 1.232-.272 1.52-.864v.832h.92z"/><path d="m-27.100516 53.301076c-.664 0-1.176.272-1.488.768v-2.416h-.92v5.936h.92v-.736c.312.496.824.768 1.504.768 1.216 0 2.016-.872 2.016-2.144 0-1.296-.824-2.176-2.032-2.176zm-.192 3.536c-.76 0-1.296-.568-1.296-1.392 0-.8.536-1.376 1.296-1.376s1.296.584 1.296 1.376c0 .816-.536 1.392-1.296 1.392z"/><path d="m-23.151016 57.589076v-5.936h-.92v5.936z"/><path d="m-21.295641 51.557076c-.304 0-.536.232-.536.56 0 .32.232.552.536.552s.536-.232.536-.552c0-.328-.232-.56-.536-.56zm.456 6.032v-4.256h-.912v4.256z"/><path d="m-17.742016 53.301076c-1.264 0-2.144.88-2.144 2.168 0 1.28.88 2.152 2.144 2.152.808 0 1.424-.288 1.808-.792l-.512-.512c-.288.336-.72.512-1.256.512-.736 0-1.264-.552-1.264-1.36s.528-1.36 1.264-1.36c.512-.008.92.176 1.216.48l.504-.592c-.392-.448-.992-.696-1.76-.696z"/><path d="m-6.9318906 57.589076v-5.6h-1.112l-1.84 3.72-1.8480004-3.72h-1.12v5.6h.888v-4.184l1.768 3.6h.6160004l1.768-3.6.008 4.184z" fill="#00f"/><path d="m-2.9496406 57.589076h.904l-.008-2.792c-.008-.936-.624-1.496-1.72-1.496-.808 0-1.24.184-1.832.536l.376.64c.424-.288.848-.432 1.256-.432.672 0 1.016.32 1.016.856v.128h-1.288c-1.024.008-1.608.504-1.608 1.28 0 .752.576 1.32 1.496 1.32.616 0 1.104-.184 1.408-.56zm-1.216-.688c-.512 0-.824-.248-.824-.632 0-.408.28-.568.88-.568h1.152v.392c-.048.464-.552.808-1.208.808z" fill="#00f"/><path d="m-.35814062 51.557076c-.304 0-.53600001.232-.53600001.56 0 .32.23200001.552.53600001.552.30399999 0 .53599999-.232.53599999-.552 0-.328-.232-.56-.53599999-.56zm.456 6.032v-4.256h-.912v4.256z" fill="#00f"/><path d="m3.9394844 53.301076c-.72 0-1.264.256-1.568.848v-.816h-.92v4.256h.92v-2.264c.064-.664.504-1.152 1.208-1.16.64 0 1.024.392 1.024 1.032v2.392h.92v-2.648c0-1.016-.592-1.64-1.584-1.64z" fill="#00f"/><path d="m8.9878594 57.589076 2.2639996-5.6h-.984l-1.7439996 4.552-1.728-4.552h-1.016l2.232 5.6z" fill="#00f"/><path d="m12.360609 51.557076c-.304 0-.536.232-.536.56 0 .32.232.552.536.552s.536-.232.536-.552c0-.328-.232-.56-.536-.56zm.456 6.032v-4.256h-.912v4.256z" fill="#00f"/><path d="m15.922234 53.301076c-1.264.008-2.152.88-2.152 2.168 0 1.28.864 2.152 2.176 2.152.736 0 1.344-.264 1.76-.72l-.488-.52c-.312.32-.736.496-1.2.496-.672 0-1.176-.408-1.32-1.064h3.216c.112-1.536-.496-2.512-1.992-2.512zm-1.24 1.84c.104-.68.576-1.104 1.248-1.104.696 0 1.152.416 1.184 1.104z" fill="#00f"/><path d="m23.669109 57.589076 1.552-4.256h-.936l-1.088 3.344-1.08-3.344h-.952l-1.072 3.344-1.104-3.344h-.944l1.568 4.256h.944l1.08-3.152 1.08 3.152z" fill="#00f"/><path d="m26.769734 51.653076c-.632.912-.976 2.136-.976 3.464s.344 2.552.976 3.464h.832c-.584-.912-.944-2.136-.944-3.464s.36-2.552.944-3.464z"/><path d="m28.676609 51.653076c.584.912.944 2.136.944 3.464s-.36 2.552-.944 3.464h.832c.632-.912.976-2.136.976-3.464s-.344-2.552-.976-3.464z"/><path d="m34.264734 52.949076c0-.4.192-.568.76-.568v-.736h-.344c-.896 0-1.248.28-1.248 1.016v1.656c0 .304-.104.424-.344.424h-.248v.76h.248c.24 0 .344.12.344.424v1.648c0 .744.352 1.024 1.248 1.024h.344v-.736c-.568 0-.76-.168-.76-.568v-1.312c0-.512-.152-.76-.56-.856.408-.104.56-.352.56-.864z"/><path d="m-29.402766 67.589076h.904l-.008-2.792c-.008-.936-.624-1.496-1.72-1.496-.808 0-1.24.184-1.832.536l.376.64c.424-.288.848-.432 1.256-.432.672 0 1.016.32 1.016.856v.128h-1.288c-1.024.008-1.608.504-1.608 1.28 0 .752.576 1.32 1.496 1.32.616 0 1.104-.184 1.408-.56zm-1.216-.688c-.512 0-.824-.248-.824-.632 0-.408.28-.568.88-.568h1.152v.392c-.048.464-.552.808-1.208.808z" fill="#00f"/><path d="m-23.211266 61.653076h-.92v2.416c-.312-.496-.824-.776-1.512-.776-1.2 0-2.024.872-2.024 2.152 0 1.296.816 2.184 2.04 2.184.68 0 1.192-.272 1.496-.768v.728h.92zm-2.224 5.208c-.776 0-1.304-.576-1.312-1.384.008-.816.544-1.4 1.312-1.4s1.304.576 1.304 1.4c0 .808-.536 1.384-1.304 1.384z" fill="#00f"/><path d="m-17.758141 61.653076h-.92v2.416c-.312-.496-.824-.776-1.512-.776-1.2 0-2.024.872-2.024 2.152 0 1.296.816 2.184 2.04 2.184.68 0 1.192-.272 1.496-.768v.728h.92zm-2.224 5.208c-.776 0-1.304-.576-1.312-1.384.008-.816.544-1.4 1.312-1.4s1.304.576 1.304 1.4c0 .808-.536 1.384-1.304 1.384z" fill="#00f"/><path d="m-15.449016 61.653076c-.632.912-.976 2.136-.976 3.464s.344 2.552.976 3.464h.832c-.584-.912-.944-2.136-.944-3.464s.36-2.552.944-3.464z"/><path d="m-11.326141 63.301076c-.72 0-1.264.256-1.568.848v-.816h-.92v4.256h.92v-2.264c.064-.664.504-1.152 1.208-1.16.64 0 1.024.392 1.024 1.032v2.392h.9200004v-2.648c0-1.016-.5920004-1.64-1.5840004-1.64z"/><path d="m-6.7652656 63.301076c-1.264.008-2.152.88-2.152 2.168 0 1.28.864 2.152 2.176 2.152.736 0 1.344-.264 1.76-.72l-.488-.52c-.312.32-.736.496-1.2.496-.672 0-1.176-.408-1.32-1.064h3.216c.112-1.536-.496-2.512-1.992-2.512zm-1.24 1.84c.104-.68.576-1.104 1.248-1.104.696 0 1.152.416 1.184 1.104z"/><path d="m.98160937 67.589076 1.55200003-4.256h-.936l-1.08800002 3.344-1.08-3.344h-.95199998l-1.072 3.344-1.104-3.344h-.944l1.568 4.256h.944l1.08-3.152 1.07999997 3.152z"/><path d="m10.144734 67.589076v-5.6h-.9439996v2.432h-2.968v-2.432h-.944v5.6h.944v-2.32h2.968v2.32z" fill="#00f"/><path d="m13.024859 67.589076v-5.6h-2.04v.84h1.096v4.76z" fill="#00f"/><path d="m15.566609 61.653076c-.632.912-.976 2.136-.976 3.464s.344 2.552.976 3.464h.832c-.584-.912-.944-2.136-.944-3.464s.36-2.552.944-3.464z"/><path d="m17.705484 63.957076v-1.968h-.704v1.968zm1.232 0v-1.968h-.704v1.968z" fill="#f00"/><path d="m25.004109 67.589076v-5.6h-.944v2.432h-2.968v-2.432h-.944v5.6h.944v-2.32h2.968v2.32z" fill="#f00"/><path d="m28.172234 63.301076c-1.264.008-2.152.88-2.152 2.168 0 1.28.864 2.152 2.176 2.152.736 0 1.344-.264 1.76-.72l-.488-.52c-.312.32-.736.496-1.2.496-.672 0-1.176-.408-1.32-1.064h3.216c.112-1.536-.496-2.512-1.992-2.512zm-1.24 1.84c.104-.68.576-1.104 1.248-1.104.696 0 1.152.416 1.184 1.104z" fill="#f00"/><path d="m32.083359 67.589076v-5.936h-.92v5.936z" fill="#f00"/><path d="m34.442734 67.589076v-5.936h-.92v5.936z" fill="#f00"/><path d="m37.666109 63.301076c-1.32 0-2.224.872-2.224 2.16 0 1.28.904 2.16 2.224 2.16 1.312 0 2.216-.88 2.216-2.16 0-1.288-.904-2.16-2.216-2.16zm0 .792c.76 0 1.296.56 1.296 1.376 0 .824-.536 1.384-1.296 1.384-.768 0-1.304-.56-1.304-1.384 0-.816.536-1.376 1.304-1.376z" fill="#f00"/><path d="m41.034109 66.621076c-.288 0-.496.216-.496.512 0 .168.072.32.216.416l-.304.696h.472l.456-.688c.088-.128.144-.264.144-.424 0-.32-.232-.512-.488-.512z" fill="#f00"/><path d="m50.439359 67.589076 1.872-5.6h-.976l-1.352 4.552-1.36-4.552-.928.008-1.352 4.544-1.36-4.552h-1.016l1.856 5.6h.976l1.344-4.368 1.328 4.368z" fill="#f00"/><path d="m54.291109 63.301076c-1.32 0-2.224.872-2.224 2.16 0 1.28.904 2.16 2.224 2.16 1.312 0 2.216-.88 2.216-2.16 0-1.288-.904-2.16-2.216-2.16zm0 .792c.76 0 1.296.56 1.296 1.376 0 .824-.536 1.384-1.296 1.384-.768 0-1.304-.56-1.304-1.384 0-.816.536-1.376 1.304-1.376z" fill="#f00"/><path d="m58.387109 63.333076h-.92v4.256h.92v-2.224c.072-.728.616-1.232 1.472-1.184v-.88c-.672 0-1.184.304-1.472.88z" fill="#f00"/><path d="m61.583359 67.589076v-5.936h-.92v5.936z" fill="#f00"/><path d="m67.038734 61.653076h-.92v2.416c-.312-.496-.824-.776-1.512-.776-1.2 0-2.024.872-2.024 2.152 0 1.296.816 2.184 2.04 2.184.68 0 1.192-.272 1.496-.768v.728h.92zm-2.224 5.208c-.776 0-1.304-.576-1.312-1.384.008-.816.544-1.4 1.312-1.4s1.304.576 1.304 1.4c0 .808-.536 1.384-1.304 1.384z" fill="#f00"/><path d="m69.147859 63.437076v-1.376h-.872v1.376l.144 2.368h.584zm-.432 3.168c-.288 0-.504.216-.504.52 0 .312.216.536.504.536s.504-.224.504-.536c0-.304-.216-.52-.504-.52z" fill="#f00"/><path d="m70.627359 63.957076v-1.968h-.704v1.968zm1.232 0v-1.968h-.704v1.968z" fill="#f00"/><path d="m73.285984 61.653076c.584.912.944 2.136.944 3.464s-.36 2.552-.944 3.464h.832c.632-.912.976-2.136.976-3.464s-.344-2.552-.976-3.464z"/><path d="m76.051609 61.653076c.584.912.944 2.136.944 3.464s-.36 2.552-.944 3.464h.832c.632-.912.976-2.136.976-3.464s-.344-2.552-.976-3.464z"/><path d="m78.737234 65.285076c.288 0 .504-.224.504-.536 0-.304-.216-.52-.504-.52s-.504.216-.504.52c0 .312.216.536.504.536zm0 1.336c-.288 0-.496.216-.496.512 0 .168.072.32.216.416l-.304.696h.472l.456-.688c.088-.128.144-.264.144-.424 0-.32-.232-.512-.488-.512z"/><path d="m-29.402766 77.589076h.904l-.008-2.792c-.008-.936-.624-1.496-1.72-1.496-.808 0-1.24.184-1.832.536l.376.64c.424-.288.848-.432 1.256-.432.672 0 1.016.32 1.016.856v.128h-1.288c-1.024.008-1.608.504-1.608 1.28 0 .752.576 1.32 1.496 1.32.616 0 1.104-.184 1.408-.56zm-1.216-.688c-.512 0-.824-.248-.824-.632 0-.408.28-.568.88-.568h1.152v.392c-.048.464-.552.808-1.208.808z" fill="#00f"/><path d="m-23.211266 71.653076h-.92v2.416c-.312-.496-.824-.776-1.512-.776-1.2 0-2.024.872-2.024 2.152 0 1.296.816 2.184 2.04 2.184.68 0 1.192-.272 1.496-.768v.728h.92zm-2.224 5.208c-.776 0-1.304-.576-1.312-1.384.008-.816.544-1.4 1.312-1.4s1.304.576 1.304 1.4c0 .808-.536 1.384-1.304 1.384z" fill="#00f"/><path d="m-17.758141 71.653076h-.92v2.416c-.312-.496-.824-.776-1.512-.776-1.2 0-2.024.872-2.024 2.152 0 1.296.816 2.184 2.04 2.184.68 0 1.192-.272 1.496-.768v.728h.92zm-2.224 5.208c-.776 0-1.304-.576-1.312-1.384.008-.816.544-1.4 1.312-1.4s1.304.576 1.304 1.4c0 .808-.536 1.384-1.304 1.384z" fill="#00f"/><path d="m-15.449016 71.653076c-.632.912-.976 2.136-.976 3.464s.344 2.552.976 3.464h.832c-.584-.912-.944-2.136-.944-3.464s.36-2.552.944-3.464z"/><path d="m-11.326141 73.301076c-.72 0-1.264.256-1.568.848v-.816h-.92v4.256h.92v-2.264c.064-.664.504-1.152 1.208-1.16.64 0 1.024.392 1.024 1.032v2.392h.9200004v-2.648c0-1.016-.5920004-1.64-1.5840004-1.64z"/><path d="m-6.7652656 73.301076c-1.264.008-2.152.88-2.152 2.168 0 1.28.864 2.152 2.176 2.152.736 0 1.344-.264 1.76-.72l-.488-.52c-.312.32-.736.496-1.2.496-.672 0-1.176-.408-1.32-1.064h3.216c.112-1.536-.496-2.512-1.992-2.512zm-1.24 1.84c.104-.68.576-1.104 1.248-1.104.696 0 1.152.416 1.184 1.104z"/><path d="m.98160937 77.589076 1.55200003-4.256h-.936l-1.08800002 3.344-1.08-3.344h-.95199998l-1.072 3.344-1.104-3.344h-.944l1.568 4.256h.944l1.08-3.152 1.07999997 3.152z"/><path d="m5.2887344 71.989076v5.6h2.488c1.264 0 2.04-.576 2.04-1.536 0-.752-.448-1.288-1.2-1.416.608-.144.984-.616.984-1.248 0-.872-.72-1.4-1.88-1.4zm.944.84h1.44c.6 0 .96.256.96.728s-.36.752-.96.752h-1.44zm0 2.312h1.44c.736 0 1.176.296 1.176.792 0 .528-.44.816-1.176.816h-1.44z" fill="#00f"/><path d="m14.737359 73.333076h-.92v2.096c0 .744-.432 1.312-1.168 1.328-.616 0-.992-.392-.992-1.032v-2.392h-.92v2.648c0 1.016.584 1.64 1.56 1.64.696-.008 1.232-.272 1.52-.864v.832h.92z" fill="#00f"/><path d="m18.268109 76.613076c-.248.12-.448.184-.64.184-.288 0-.456-.136-.456-.576v-2.04h1.256v-.688h-1.256v-1.168h-.912v1.168h-.6v.688h.6v2.208c0 .872.552 1.24 1.192 1.24.36 0 .712-.112 1.048-.312z" fill="#00f"/><path d="m21.518109 76.613076c-.248.12-.448.184-.64.184-.288 0-.456-.136-.456-.576v-2.04h1.256v-.688h-1.256v-1.168h-.912v1.168h-.6v.688h.6v2.208c0 .872.552 1.24 1.192 1.24.36 0 .712-.112 1.048-.312z" fill="#00f"/><path d="m24.369234 73.301076c-1.32 0-2.224.872-2.224 2.16 0 1.28.904 2.16 2.224 2.16 1.312 0 2.216-.88 2.216-2.16 0-1.288-.904-2.16-2.216-2.16zm0 .792c.76 0 1.296.56 1.296 1.376 0 .824-.536 1.384-1.296 1.384-.768 0-1.304-.56-1.304-1.384 0-.816.536-1.376 1.304-1.376z" fill="#00f"/><path d="m30.033234 73.301076c-.72 0-1.264.256-1.568.848v-.816h-.92v4.256h.92v-2.264c.064-.664.504-1.152 1.208-1.16.64 0 1.024.392 1.024 1.032v2.392h.92v-2.648c0-1.016-.592-1.64-1.584-1.64z" fill="#00f"/><path d="m33.754109 71.653076c-.632.912-.976 2.136-.976 3.464s.344 2.552.976 3.464h.832c-.584-.912-.944-2.136-.944-3.464s.36-2.552.944-3.464z"/><path d="m35.892984 73.957076v-1.968h-.704v1.968zm1.232 0v-1.968h-.704v1.968z" fill="#f00"/><path d="m40.839609 71.965076c-1.672 0-2.968 1.216-2.968 2.824 0 1.6 1.296 2.84 2.968 2.84s2.968-1.24 2.968-2.84-1.296-2.824-2.968-2.824zm.008.848c1.096 0 1.992.864 1.992 1.976s-.896 1.992-1.992 1.992-2.016-.88-2.016-1.992.912-1.976 2.016-1.976z" fill="#f00"/><path d="m48.555984 77.589076h1.136l-2.312-3.208 2.168-2.392h-1.112l-2.672 2.896v-2.896h-.944v5.6h.944v-1.424l.952-1.048z" fill="#f00"/><path d="m51.017984 73.957076v-1.968h-.704v1.968zm1.232 0v-1.968h-.704v1.968z" fill="#f00"/><path d="m53.676609 71.653076c.584.912.944 2.136.944 3.464s-.36 2.552-.944 3.464h.832c.632-.912.976-2.136.976-3.464s-.344-2.552-.976-3.464z"/><path d="m56.442234 71.653076c.584.912.944 2.136.944 3.464s-.36 2.552-.944 3.464h.832c.632-.912.976-2.136.976-3.464s-.344-2.552-.976-3.464z"/><path d="m59.127859 75.285076c.288 0 .504-.224.504-.536 0-.304-.216-.52-.504-.52s-.504.216-.504.52c0 .312.216.536.504.536zm0 1.336c-.288 0-.496.216-.496.512 0 .168.072.32.216.416l-.304.696h.472l.456-.688c.088-.128.144-.264.144-.424 0-.32-.232-.512-.488-.512z"/><path d="m-37.668766 84.741076h-.248c-.24 0-.344-.12-.344-.424v-1.656c0-.736-.352-1.016-1.248-1.016h-.344v.736c.568 0 .76.168.76.568v1.312c0 .512.152.76.56.856-.408.104-.56.352-.56.864v1.312c0 .4-.192.568-.76.568v.736h.344c.896 0 1.248-.28 1.248-1.024v-1.648c0-.304.104-.424.344-.424h.248z"/><path d="m-45.918766 94.741076h-.248c-.24 0-.344-.12-.344-.424v-1.656c0-.736-.352-1.016-1.248-1.016h-.344v.736c.568 0 .76.168.76.568v1.312c0 .512.152.76.56.856-.408.104-.56.352-.56.864v1.312c0 .4-.192.568-.76.568v.736h.344c.896 0 1.248-.28 1.248-1.024v-1.648c0-.304.104-.424.344-.424h.248z"/></g><path d="m179.23242 525.19501a2.8741407 2.8741407 0 0 1 -2.87414 2.87414 2.8741407 2.8741407 0 0 1 -2.87414-2.87414 2.8741407 2.8741407 0 0 1 2.87414-2.87414 2.8741407 2.8741407 0 0 1 2.87414 2.87414z" fill="#00b6f3"/><g fill="#2d3538" transform="matrix(.40557321 0 0 .40557321 322.58664 529.8376)"><path d="m2.9038762-21.569588h2.9183233v8.841653h10.6042045v-8.841653h2.918323v21.569588h-2.918323v-10.27192h-10.6042045v10.27192h-2.9183233z"/><path d="m38.877268-8.75497v1.3002431h-12.222285q.173366 2.7449576 1.646975 4.1896721 1.488056 1.4302674 4.131883 1.4302674 1.531398 0 2.961665-.3756258 1.444714-.3756258 2.860535-1.1268773v2.51380323q-1.430268.60678009-2.932771.92461729-1.502503.31783719-3.048347.31783719-3.871835 0-6.140037-2.25375461-2.253755-2.2537547-2.253755-6.0966953 0-3.9729653 2.138178-6.2989553 2.152624-2.340438 5.793305-2.340438 3.265055 0 5.157631 2.109284 1.907023 2.094836 1.907023 5.706622zm-2.658275-.7801458q-.02889-2.1815192-1.228007-3.4817622-1.184666-1.300243-3.149478-1.300243-2.22486 0-3.568445 1.256902-1.329137 1.256901-1.531397 3.5395503z"/><path d="m43.240306-22.479758h2.658275v22.479758h-2.658275z"/><path d="m51.446285-22.479758h2.658274v22.479758h-2.658274z"/><path d="m65.922324-14.317121q-2.138177 0-3.380632 1.675869-1.242454 1.661422-1.242454 4.5652979 0 2.9038761 1.228007 4.579745 1.242454 1.6614217 3.395079 1.6614217 2.12373 0 3.366185-1.6758689 1.242454-1.6758688 1.242454-4.5652978 0-2.8749819-1.242454-4.5508509-1.242455-1.690316-3.366185-1.690316zm0-2.253755q3.467315 0 5.446574 2.253755 1.979259 2.253755 1.979259 6.2411669 0 3.9729649-1.979259 6.2411667-1.979259 2.25375461-5.446574 2.25375461-3.481762 0-5.461021-2.25375461-1.964812-2.2682018-1.964812-6.2411667 0-3.9874119 1.964812-6.2411669 1.979259-2.253755 5.461021-2.253755z"/><path d="m78.419105-3.6695749h3.048347v2.484909l-2.369331 4.6230864h-1.863682l1.184666-4.6230864z"/><path d="m95.033318-16.180803h2.658274l3.322848 12.6268053 3.30839-12.6268053h3.13503l3.32285 12.6268053 3.30839-12.6268053h2.65828l-4.23302 16.180803h-3.13503l-3.48176-13.262479-3.49621 13.262479h-3.135029z"/><path d="m127.06264-14.317121q-2.13818 0-3.38063 1.675869-1.24246 1.661422-1.24246 4.5652979 0 2.9038761 1.22801 4.579745 1.24246 1.6614217 3.39508 1.6614217 2.12373 0 3.36618-1.6758689 1.24246-1.6758688 1.24246-4.5652978 0-2.8749819-1.24246-4.5508509-1.24245-1.690316-3.36618-1.690316zm0-2.253755q3.46731 0 5.44657 2.253755 1.97926 2.253755 1.97926 6.2411669 0 3.9729649-1.97926 6.2411667-1.97926 2.25375461-5.44657 2.25375461-3.48176 0-5.46102-2.25375461-1.96481-2.2682018-1.96481-6.2411667 0-3.9874119 1.96481-6.2411669 1.97926-2.253755 5.46102-2.253755z"/><path d="m148.2566-13.695894q-.44786-.260048-.98241-.375625-.52009-.130025-1.15577-.130025-2.25375 0-3.46731 1.473609-1.19912 1.459162-1.19912 4.2041194v8.5238156h-2.67272v-16.180803h2.67272v2.513804q.83794-1.473609 2.18152-2.181519 1.34359-.722358 3.26506-.722358.27449 0 .60678.04334.33228.02889.7368.10113z"/><path d="m151.07379-22.479758h2.65828v22.479758h-2.65828z"/><path d="m169.92732-13.724788v-8.75497h2.65827v22.479758h-2.65827v-2.4271204q-.83794 1.44471453-2.12373 2.15262464-1.27135.69346297-3.0628.69346297-2.93277 0-4.782-2.34043751-1.83479-2.3404375-1.83479-6.1544838 0-3.8140459 1.83479-6.1544839 1.84923-2.340438 4.782-2.340438 1.79145 0 3.0628.707911 1.28579.693463 2.12373 2.138177zm-9.05836 5.6488339q0 2.9327704 1.19911 4.6086393 1.21356 1.6614217 3.32284 1.6614217 2.10928 0 3.32285-1.6614217 1.21356-1.6758689 1.21356-4.6086393 0-2.9327709-1.21356-4.5941919-1.21357-1.675869-3.32285-1.675869-2.10928 0-3.32284 1.675869-1.19911 1.661421-1.19911 4.5941919z"/><path d="m179.73693-3.6695749h2.93277v3.6695749h-2.93277zm0-17.9000131h2.93277v9.46288l-.28894 5.1576312h-2.34044l-.30339-5.1576312z"/></g><g transform="translate(3.779537 68.031508)"><path d="m321.57315 472.28165h30.83008c.88244 0 1.59284.7104 1.59284 1.59283v11.93243c0 .88243-.7104 1.59284-1.59284 1.59284h-30.83008c-.88243 0-1.59283-.71041-1.59283-1.59284v-11.93243c0-.88243.7104-1.59283 1.59283-1.59283z" fill="#193b67" fill-opacity=".196078"/><g fill="#1676f3" transform="matrix(.40557321 0 0 .40557321 328.90669 483.72349)"><path d="m10.363418-17.413625q-2.8252189 0-4.4946668 2.106073-1.6566059 2.106072-1.6566059 5.7403317 0 3.6214176 1.6566059 5.7274903 1.6694479 2.1060726 4.4946668 2.1060726 2.82522 0 4.468984-2.1060726 1.656606-2.1060727 1.656606-5.7274903 0-3.6342597-1.656606-5.7403317-1.643764-2.106073-4.468984-2.106073zm0-2.106073q4.032359 0 6.446637 2.709643 2.414279 2.6968 2.414279 7.2428347 0 4.533193-2.414279 7.2428352-2.414278 2.69680039-6.446637 2.69680039-4.0452001 0-6.4723204-2.69680039-2.4142784-2.6968003-2.4142784-7.2428352 0-4.5460347 2.4142784-7.2428347 2.4271203-2.709643 6.4723204-2.709643z"/><path d="m23.282376-19.172966h2.594065v8.103243l8.604077-8.103243h3.338896l-9.515853 8.937967 10.196474 10.234999h-3.415947l-9.207647-9.2333307v9.2333307h-2.594065z"/></g></g><path d="m228.02101 560.94269a2.8741407 2.8741407 0 0 1 -2.87414 2.87414 2.8741407 2.8741407 0 0 1 -2.87414-2.87414 2.8741407 2.8741407 0 0 1 2.87414-2.87414 2.8741407 2.8741407 0 0 1 2.87414 2.87414z" fill="#ff3849"/><path d="m322.85446 547.87219a2.8741407 2.8741407 0 0 1 -2.87414 2.87414 2.8741407 2.8741407 0 0 1 -2.87414-2.87414 2.8741407 2.8741407 0 0 1 2.87414-2.87414 2.8741407 2.8741407 0 0 1 2.87414 2.87414z" fill="#ff3849"/><path d="m315.29541 517.63599a2.8741407 2.8741407 0 0 1 -2.87415 2.87414 2.8741407 2.8741407 0 0 1 -2.87414-2.87414 2.8741407 2.8741407 0 0 1 2.87414-2.87414 2.8741407 2.8741407 0 0 1 2.87415 2.87414z" fill="#00b6f3"/><path d="m312.42127 536.53361h90.70866" fill="none" stroke="#808080" stroke-dasharray="1 2"/></g></svg>