<svg fill="none" height="1095" viewBox="0 0 2000 1095" width="2000" xmlns="http://www.w3.org/2000/svg" xmlns:xlink="http://www.w3.org/1999/xlink"><clipPath id="a"><path d="m0 0h2000v1095h-2000z"/></clipPath><g clip-path="url(#a)"><path d="m0 0h2000v1095h-2000z" fill="#f0f3f7"/><path d="m0 0h2000v1600h-2000z" fill="#f0f3f7" opacity=".4"/><path d="m385 110h1231v142h-1231z" fill="#fff" stroke="#2d3033" stroke-width="4"/><path d="m713.149 197.32c7.4 0 10.84-3.68 10.84-7.96 0-10.28-16.96-6-16.96-12.84 0-2.44 2.04-4.44 6.8-4.44 2.48 0 5.24.72 7.68 2.28l1.32-3.2c-2.32-1.6-5.72-2.48-9-2.48-7.36 0-10.72 3.68-10.72 8 0 10.4 16.96 6.08 16.96 12.92 0 2.44-2.08 4.32-6.92 4.32-3.6 0-7.16-1.36-9.24-3.24l-1.48 3.12c2.24 2.08 6.44 3.52 10.72 3.52zm28.944-21.72c-3.24 0-5.88 1.16-7.48 3.2v-11.48h-3.84v29.68h3.84v-10.92c0-4.6 2.64-7.04 6.72-7.04 3.64 0 5.72 2.04 5.72 6.2v11.76h3.84v-12.2c0-6.24-3.64-9.2-8.8-9.2zm25.126 0c-3.4 0-6.56.96-8.76 2.72l1.6 2.88c1.64-1.4 4.2-2.28 6.72-2.28 3.8 0 5.68 1.88 5.68 5.12v.76h-6.08c-6.32 0-8.52 2.8-8.52 6.2 0 3.68 3.04 6.24 7.84 6.24 3.32 0 5.68-1.12 6.96-3.04v2.8h3.64v-12.8c0-5.8-3.28-8.6-9.08-8.6zm-.88 18.68c-2.92 0-4.68-1.32-4.68-3.44 0-1.8 1.08-3.28 4.88-3.28h5.92v2.96c-.96 2.44-3.24 3.76-6.12 3.76zm34.844-26.96v11.68c-1.76-2.28-4.4-3.4-7.4-3.4-6.2 0-10.72 4.32-10.72 10.8s4.52 10.84 10.72 10.84c3.12 0 5.84-1.2 7.56-3.6v3.36h3.68v-29.68zm-7.08 26.56c-4.08 0-7.16-2.96-7.16-7.48s3.08-7.44 7.16-7.44c4.04 0 7.12 2.92 7.12 7.44s-3.08 7.48-7.12 7.48zm28.765 3.36c6.36 0 11-4.52 11-10.84s-4.64-10.8-11-10.8-11.04 4.48-11.04 10.8 4.68 10.84 11.04 10.84zm0-3.36c-4.08 0-7.16-2.96-7.16-7.48s3.08-7.44 7.16-7.44 7.12 2.92 7.12 7.44-3.04 7.48-7.12 7.48zm45.865-18.08-6.32 16.96-6.28-16.96h-3.24l-6.4 16.88-6.16-16.88h-3.64l7.88 21.2h3.68l6.2-16.08 6.12 16.08h3.68l7.92-21.2zm21.639 21.2h11.8c9 0 15.12-5.68 15.12-14s-6.12-14-15.12-14h-11.8zm4-3.48v-21.04h7.56c6.92 0 11.36 4.24 11.36 10.52s-4.44 10.52-11.36 10.52zm43.187 3.8c8.52 0 14.84-6.08 14.84-14.32s-6.32-14.32-14.84-14.32c-8.6 0-14.92 6.12-14.92 14.32s6.32 14.32 14.92 14.32zm0-3.56c-6.28 0-10.92-4.56-10.92-10.76s4.64-10.76 10.92-10.76c6.2 0 10.84 4.56 10.84 10.76s-4.64 10.76-10.84 10.76zm52.253 3.24-.04-28h-3.28l-11.52 19.68-11.68-19.68h-3.28v28h3.84v-20.28l10.12 16.88h1.84l10.12-17 .04 20.4zm30.668.24c6.36 0 11-4.52 11-10.84s-4.64-10.8-11-10.8-11.04 4.48-11.04 10.8 4.68 10.84 11.04 10.84zm0-3.36c-4.08 0-7.16-2.96-7.16-7.48s3.08-7.44 7.16-7.44 7.12 2.92 7.12 7.44-3.04 7.48-7.12 7.48zm21.49-14.52v-3.56h-3.68v21.2h3.84v-10.56c0-4.64 2.56-7.16 6.68-7.16.28 0 .56 0 .88.04v-3.72c-3.72 0-6.36 1.28-7.72 3.76zm27.03 17.64h19.16v-3.48h-15.16v-24.52h-4zm26.61-25.28c1.52 0 2.6-1.12 2.6-2.56 0-1.36-1.12-2.44-2.6-2.44s-2.6 1.12-2.6 2.52 1.12 2.48 2.6 2.48zm-1.92 25.28h3.84v-21.2h-3.84zm29.31-21.2v3.28c-1.8-2.32-4.68-3.48-7.84-3.48-6.12 0-10.76 4.12-10.76 10.24s4.64 10.28 10.76 10.28c3.04 0 5.8-1.08 7.64-3.28v1.68c0 4.8-2.28 7.12-7.28 7.12-3.12 0-6.2-1.08-8.16-2.76l-1.84 2.96c2.32 2.08 6.24 3.16 10.12 3.16 7.2 0 11-3.4 11-10.88v-18.32zm-7.4 16.96c-4.28 0-7.32-2.84-7.32-6.92 0-4.12 3.04-6.88 7.32-6.88 4.24 0 7.28 2.76 7.28 6.88 0 4.08-3.04 6.92-7.28 6.92zm31.2-17.16c-3.24 0-5.88 1.16-7.48 3.2v-11.48h-3.84v29.68h3.84v-10.92c0-4.6 2.64-7.04 6.72-7.04 3.64 0 5.72 2.04 5.72 6.2v11.76h3.84v-12.2c0-6.24-3.64-9.2-8.8-9.2zm28.12 17.4c-.8.64-1.88 1-3 1-2.12 0-3.32-1.28-3.32-3.56v-11.48h6.08v-3.16h-6.08v-4.64h-3.84v4.64h-3.6v3.16h3.6v11.64c0 4.28 2.44 6.64 6.72 6.64 1.72 0 3.48-.48 4.64-1.48zm20.15 4h11.8c9 0 15.12-5.68 15.12-14s-6.12-14-15.12-14h-11.8zm4-3.48v-21.04h7.56c6.92 0 11.36 4.24 11.36 10.52s-4.44 10.52-11.36 10.52zm43.18 3.8c8.52 0 14.84-6.08 14.84-14.32s-6.32-14.32-14.84-14.32c-8.6 0-14.92 6.12-14.92 14.32s6.32 14.32 14.92 14.32zm0-3.56c-6.28 0-10.92-4.56-10.92-10.76s4.64-10.76 10.92-10.76c6.2 0 10.84 4.56 10.84 10.76s-4.64 10.76-10.84 10.76zm52.26 3.24-.04-28h-3.28l-11.52 19.68-11.68-19.68h-3.28v28h3.84v-20.28l10.12 16.88h1.84l10.12-17 .04 20.4z" fill="#000"/><path d="m385 317h1231v142h-1231z" fill="#fff" stroke="#2d3033" stroke-width="4"/><path d="m661.431 400.32c4.36 0 8.12-1.52 10.68-4.4l-2.6-2.52c-2.16 2.28-4.8 3.36-7.88 3.36-6.32 0-11-4.56-11-10.76s4.68-10.76 11-10.76c3.08 0 5.72 1.04 7.88 3.32l2.6-2.52c-2.56-2.88-6.32-4.36-10.64-4.36-8.52 0-14.84 6.04-14.84 14.32s6.32 14.32 14.8 14.32zm32.582-21.52v10.96c0 4.56-2.56 7.04-6.56 7.04-3.64 0-5.72-2.08-5.72-6.24v-11.76h-3.84v12.2c0 6.24 3.64 9.24 9.12 9.24 3 0 5.64-1.24 7.2-3.44v3.2h3.64v-21.2zm18.73 21.44c5.64 0 9.16-2.44 9.16-6.28 0-8.24-13.44-4.16-13.44-9.16 0-1.68 1.64-2.92 5-2.92 2.08 0 4.2.44 6.12 1.68l1.64-3.04c-1.84-1.2-4.96-1.92-7.72-1.92-5.44 0-8.84 2.56-8.84 6.36 0 8.44 13.4 4.32 13.4 9.08 0 1.8-1.48 2.88-5.04 2.88-2.76 0-5.64-.92-7.44-2.2l-1.6 3.04c1.76 1.4 5.24 2.48 8.76 2.48zm26.18-4.24c-.8.64-1.88 1-3 1-2.12 0-3.32-1.28-3.32-3.56v-11.48h6.08v-3.16h-6.08v-4.64h-3.84v4.64h-3.6v3.16h3.6v11.64c0 4.28 2.44 6.64 6.72 6.64 1.72 0 3.48-.48 4.64-1.48zm15.719 4.24c6.36 0 11-4.52 11-10.84s-4.64-10.8-11-10.8-11.04 4.48-11.04 10.8 4.68 10.84 11.04 10.84zm0-3.36c-4.08 0-7.16-2.96-7.16-7.48s3.08-7.44 7.16-7.44 7.12 2.92 7.12 7.44-3.04 7.48-7.12 7.48zm44.331-18.28c-3.6 0-6.56 1.52-8.16 3.92-1.4-2.64-4.12-3.92-7.36-3.92-3.2 0-5.8 1.2-7.32 3.36v-3.16h-3.68v21.2h3.84v-10.92c0-4.6 2.52-7.04 6.36-7.04 3.48 0 5.48 2.04 5.48 6.2v11.76h3.84v-10.92c0-4.6 2.52-7.04 6.36-7.04 3.48 0 5.48 2.04 5.48 6.2v11.76h3.84v-12.2c0-6.24-3.52-9.2-8.68-9.2zm40.207 17.4c-.8.64-1.88 1-3 1-2.12 0-3.32-1.28-3.32-3.56v-11.48h6.08v-3.16h-6.08v-4.64h-3.84v4.64h-3.6v3.16h3.6v11.64c0 4.28 2.44 6.64 6.72 6.64 1.72 0 3.48-.48 4.64-1.48zm15.063-17.4c-3.4 0-6.56.96-8.76 2.72l1.6 2.88c1.64-1.4 4.2-2.28 6.72-2.28 3.8 0 5.68 1.88 5.68 5.12v.76h-6.08c-6.32 0-8.52 2.8-8.52 6.2 0 3.68 3.04 6.24 7.84 6.24 3.32 0 5.68-1.12 6.96-3.04v2.8h3.64v-12.8c0-5.8-3.28-8.6-9.08-8.6zm-.88 18.68c-2.92 0-4.68-1.32-4.68-3.44 0-1.8 1.08-3.28 4.88-3.28h5.92v2.96c-.96 2.44-3.24 3.76-6.12 3.76zm35.323-18.48v3.28c-1.8-2.32-4.68-3.48-7.84-3.48-6.12 0-10.76 4.12-10.76 10.24s4.64 10.28 10.76 10.28c3.04 0 5.8-1.08 7.64-3.28v1.68c0 4.8-2.28 7.12-7.28 7.12-3.12 0-6.2-1.08-8.16-2.76l-1.84 2.96c2.32 2.08 6.24 3.16 10.12 3.16 7.2 0 11-3.4 11-10.88v-18.32zm-7.4 16.96c-4.28 0-7.32-2.84-7.32-6.92 0-4.12 3.04-6.88 7.32-6.88 4.24 0 7.28 2.76 7.28 6.88 0 4.08-3.04 6.92-7.28 6.92zm51.28-6.24c0-6.52-4.36-10.92-10.48-10.92s-10.64 4.52-10.64 10.8c0 6.32 4.56 10.84 11.4 10.84 3.52 0 6.44-1.2 8.36-3.44l-2.12-2.48c-1.56 1.72-3.64 2.56-6.12 2.56-4.2 0-7.2-2.48-7.68-6.2h17.2c.04-.36.08-.84.08-1.16zm-10.48-7.68c3.72 0 6.4 2.52 6.8 6.08h-13.6c.4-3.6 3.12-6.08 6.8-6.08zm18.232 18.4c1.44 0 2.64-1.16 2.64-2.76s-1.2-2.72-2.64-2.72c-1.48 0-2.72 1.12-2.72 2.72s1.24 2.76 2.72 2.76zm25.814-21.44v3.28c-1.8-2.32-4.68-3.48-7.84-3.48-6.12 0-10.76 4.12-10.76 10.24s4.64 10.28 10.76 10.28c3.04 0 5.8-1.08 7.64-3.28v1.68c0 4.8-2.28 7.12-7.28 7.12-3.12 0-6.2-1.08-8.16-2.76l-1.84 2.96c2.32 2.08 6.24 3.16 10.12 3.16 7.2 0 11-3.4 11-10.88v-18.32zm-7.4 16.96c-4.28 0-7.32-2.84-7.32-6.92 0-4.12 3.04-6.88 7.32-6.88 4.24 0 7.28 2.76 7.28 6.88 0 4.08-3.04 6.92-7.28 6.92zm20.797 4.48c1.44 0 2.64-1.16 2.64-2.76s-1.2-2.72-2.64-2.72c-1.48 0-2.72 1.12-2.72 2.72s1.24 2.76 2.72 2.76zm38.841-23.04-17.92 7.08v3.44l17.92 7.08v-3.32l-14.2-5.48 14.2-5.48zm22.82 1.6-7.44 17-7.28-17h-4l9.28 21.2h3.92l9.28-21.2zm15.9-.2c-3.4 0-6.56.96-8.76 2.72l1.6 2.88c1.64-1.4 4.2-2.28 6.72-2.28 3.8 0 5.68 1.88 5.68 5.12v.76h-6.08c-6.32 0-8.52 2.8-8.52 6.2 0 3.68 3.04 6.24 7.84 6.24 3.32 0 5.68-1.12 6.96-3.04v2.8h3.64v-12.8c0-5.8-3.28-8.6-9.08-8.6zm-.88 18.68c-2.92 0-4.68-1.32-4.68-3.44 0-1.8 1.08-3.28 4.88-3.28h5.92v2.96c-.96 2.44-3.24 3.76-6.12 3.76zm26.29-18.68c-3.4 0-6.56.96-8.76 2.72l1.6 2.88c1.64-1.4 4.2-2.28 6.72-2.28 3.8 0 5.68 1.88 5.68 5.12v.76h-6.08c-6.32 0-8.52 2.8-8.52 6.2 0 3.68 3.04 6.24 7.84 6.24 3.32 0 5.68-1.12 6.96-3.04v2.8h3.64v-12.8c0-5.8-3.28-8.6-9.08-8.6zm-.88 18.68c-2.92 0-4.68-1.32-4.68-3.44 0-1.8 1.08-3.28 4.88-3.28h5.92v2.96c-.96 2.44-3.24 3.76-6.12 3.76zm34.84-26.96v11.68c-1.76-2.28-4.4-3.4-7.4-3.4-6.2 0-10.72 4.32-10.72 10.8s4.52 10.84 10.72 10.84c3.12 0 5.84-1.2 7.56-3.6v3.36h3.68v-29.68zm-7.08 26.56c-4.08 0-7.16-2.96-7.16-7.48s3.08-7.44 7.16-7.44c4.04 0 7.12 2.92 7.12 7.44s-3.08 7.48-7.12 7.48zm21.61-22.16c1.52 0 2.6-1.12 2.6-2.56 0-1.36-1.12-2.44-2.6-2.44s-2.6 1.12-2.6 2.52 1.12 2.48 2.6 2.48zm-1.92 25.28h3.84v-21.2h-3.84zm23.99-21.4c-3.36 0-6.08 1.24-7.64 3.4v-3.2h-3.68v21.2h3.84v-10.92c0-4.6 2.64-7.04 6.72-7.04 3.64 0 5.72 2.04 5.72 6.2v11.76h3.84v-12.2c0-6.24-3.64-9.2-8.8-9.2zm16.05 12.08h10.76v-3.32h-10.76zm29.41-12.08c-3 0-5.64 1.12-7.4 3.4v-11.68h-3.84v29.68h3.68v-3.36c1.72 2.4 4.44 3.6 7.56 3.6 6.2 0 10.72-4.36 10.72-10.84s-4.52-10.8-10.72-10.8zm-.32 18.28c-4.04 0-7.12-2.96-7.12-7.48s3.08-7.44 7.12-7.44c4.08 0 7.16 2.92 7.16 7.44s-3.08 7.48-7.16 7.48zm33.77-18.08v10.96c0 4.56-2.56 7.04-6.56 7.04-3.64 0-5.72-2.08-5.72-6.24v-11.76h-3.84v12.2c0 6.24 3.64 9.24 9.12 9.24 3 0 5.64-1.24 7.2-3.44v3.2h3.64v-21.2zm23.37 17.2c-.8.64-1.88 1-3 1-2.12 0-3.32-1.28-3.32-3.56v-11.48h6.08v-3.16h-6.08v-4.64h-3.84v4.64h-3.6v3.16h3.6v11.64c0 4.28 2.44 6.64 6.72 6.64 1.72 0 3.48-.48 4.64-1.48zm17.55 0c-.8.64-1.88 1-3 1-2.12 0-3.32-1.28-3.32-3.56v-11.48h6.08v-3.16h-6.08v-4.64h-3.84v4.64h-3.6v3.16h3.6v11.64c0 4.28 2.44 6.64 6.72 6.64 1.72 0 3.48-.48 4.64-1.48zm15.72 4.24c6.36 0 11-4.52 11-10.84s-4.64-10.8-11-10.8-11.04 4.48-11.04 10.8 4.68 10.84 11.04 10.84zm0-3.36c-4.08 0-7.16-2.96-7.16-7.48s3.08-7.44 7.16-7.44 7.12 2.92 7.12 7.44-3.04 7.48-7.12 7.48zm29.13-18.28c-3.36 0-6.08 1.24-7.64 3.4v-3.2h-3.68v21.2h3.84v-10.92c0-4.6 2.64-7.04 6.72-7.04 3.64 0 5.72 2.04 5.72 6.2v11.76h3.84v-12.2c0-6.24-3.64-9.2-8.8-9.2zm16.45-1.4v3.32l14.24 5.48-14.24 5.48v3.32l17.92-7.08v-3.44z" fill="#000"/><path d="m385 524h1231v142h-1231z" fill="#fff" stroke="#2d3033" stroke-width="4"/><path d="m665.185 611.32c4.36 0 8.12-1.52 10.68-4.4l-2.6-2.52c-2.16 2.28-4.8 3.36-7.88 3.36-6.32 0-11-4.56-11-10.76s4.68-10.76 11-10.76c3.08 0 5.72 1.04 7.88 3.32l2.6-2.52c-2.56-2.88-6.32-4.36-10.64-4.36-8.52 0-14.84 6.04-14.84 14.32s6.32 14.32 14.8 14.32zm25.508-.08c6.36 0 11-4.52 11-10.84s-4.64-10.8-11-10.8-11.04 4.48-11.04 10.8 4.68 10.84 11.04 10.84zm0-3.36c-4.08 0-7.16-2.96-7.16-7.48s3.08-7.44 7.16-7.44 7.12 2.92 7.12 7.44-3.04 7.48-7.12 7.48zm44.33-18.28c-3.6 0-6.56 1.52-8.16 3.92-1.4-2.64-4.12-3.92-7.36-3.92-3.2 0-5.8 1.2-7.32 3.36v-3.16h-3.68v21.2h3.84v-10.92c0-4.6 2.52-7.04 6.36-7.04 3.48 0 5.48 2.04 5.48 6.2v11.76h3.84v-10.92c0-4.6 2.52-7.04 6.36-7.04 3.48 0 5.48 2.04 5.48 6.2v11.76h3.84v-12.2c0-6.24-3.52-9.2-8.68-9.2zm28.486 0c-3.12 0-5.84 1.2-7.56 3.56v-3.36h-3.68v28.96h3.84v-10.96c1.76 2.28 4.4 3.44 7.4 3.44 6.2 0 10.72-4.32 10.72-10.84 0-6.48-4.52-10.8-10.72-10.8zm-.32 18.28c-4.04 0-7.12-2.96-7.12-7.48 0-4.48 3.08-7.44 7.12-7.44 4.08 0 7.16 2.96 7.16 7.44 0 4.52-3.08 7.48-7.16 7.48zm26.926 3.36c6.36 0 11-4.52 11-10.84s-4.64-10.8-11-10.8-11.04 4.48-11.04 10.8 4.68 10.84 11.04 10.84zm0-3.36c-4.08 0-7.16-2.96-7.16-7.48s3.08-7.44 7.16-7.44 7.12 2.92 7.12 7.44-3.04 7.48-7.12 7.48zm29.13-18.28c-3.36 0-6.08 1.24-7.64 3.4v-3.2h-3.68v21.2h3.84v-10.92c0-4.6 2.64-7.04 6.72-7.04 3.64 0 5.72 2.04 5.72 6.2v11.76h3.84v-12.2c0-6.24-3.64-9.2-8.8-9.2zm36.684 10.92c0-6.52-4.36-10.92-10.48-10.92s-10.64 4.52-10.64 10.8c0 6.32 4.56 10.84 11.4 10.84 3.52 0 6.44-1.2 8.36-3.44l-2.12-2.48c-1.56 1.72-3.64 2.56-6.12 2.56-4.2 0-7.2-2.48-7.68-6.2h17.2c.04-.36.08-.84.08-1.16zm-10.48-7.68c3.72 0 6.4 2.52 6.8 6.08h-13.6c.4-3.6 3.12-6.08 6.8-6.08zm28.632-3.24c-3.36 0-6.08 1.24-7.64 3.4v-3.2h-3.68v21.2h3.84v-10.92c0-4.6 2.64-7.04 6.72-7.04 3.64 0 5.72 2.04 5.72 6.2v11.76h3.84v-12.2c0-6.24-3.64-9.2-8.8-9.2zm28.127 17.4c-.8.64-1.88 1-3 1-2.12 0-3.32-1.28-3.32-3.56v-11.48h6.08v-3.16h-6.08v-4.64h-3.84v4.64h-3.6v3.16h3.6v11.64c0 4.28 2.44 6.64 6.72 6.64 1.72 0 3.48-.48 4.64-1.48zm38.744-6.48c0-6.52-4.36-10.92-10.48-10.92s-10.64 4.52-10.64 10.8c0 6.32 4.56 10.84 11.4 10.84 3.52 0 6.44-1.2 8.36-3.44l-2.12-2.48c-1.56 1.72-3.64 2.56-6.12 2.56-4.2 0-7.2-2.48-7.68-6.2h17.2c.04-.36.08-.84.08-1.16zm-10.48-7.68c3.72 0 6.4 2.52 6.8 6.08h-13.6c.4-3.6 3.12-6.08 6.8-6.08zm31.922-3.04-7.44 17-7.28-17h-4l9.28 21.2h3.92l9.28-21.2zm27.418 10.72c0-6.52-4.36-10.92-10.48-10.92s-10.64 4.52-10.64 10.8c0 6.32 4.56 10.84 11.4 10.84 3.52 0 6.44-1.2 8.36-3.44l-2.12-2.48c-1.56 1.72-3.64 2.56-6.12 2.56-4.2 0-7.2-2.48-7.68-6.2h17.2c.04-.36.08-.84.08-1.16zm-10.48-7.68c3.72 0 6.4 2.52 6.8 6.08h-13.6c.4-3.6 3.12-6.08 6.8-6.08zm28.628-3.24c-3.36 0-6.08 1.24-7.64 3.4v-3.2h-3.676v21.2h3.836v-10.92c0-4.6 2.64-7.04 6.72-7.04 3.64 0 5.72 2.04 5.72 6.2v11.76h3.84v-12.2c0-6.24-3.64-9.2-8.8-9.2zm28.13 17.4c-.8.64-1.88 1-3 1-2.12 0-3.32-1.28-3.32-3.56v-11.48h6.08v-3.16h-6.08v-4.64h-3.84v4.64h-3.6v3.16h3.6v11.64c0 4.28 2.44 6.64 6.72 6.64 1.72 0 3.48-.48 4.64-1.48zm13.42 4.24c5.64 0 9.16-2.44 9.16-6.28 0-8.24-13.44-4.16-13.44-9.16 0-1.68 1.64-2.92 5-2.92 2.08 0 4.2.44 6.12 1.68l1.64-3.04c-1.84-1.2-4.96-1.92-7.72-1.92-5.44 0-8.84 2.56-8.84 6.36 0 8.44 13.4 4.32 13.4 9.08 0 1.8-1.48 2.88-5.04 2.88-2.76 0-5.64-.92-7.44-2.2l-1.6 3.04c1.76 1.4 5.24 2.48 8.76 2.48zm35.42-21.64c-3.4 0-6.56.96-8.76 2.72l1.6 2.88c1.64-1.4 4.2-2.28 6.72-2.28 3.8 0 5.68 1.88 5.68 5.12v.76h-6.08c-6.32 0-8.52 2.8-8.52 6.2 0 3.68 3.04 6.24 7.84 6.24 3.32 0 5.68-1.12 6.96-3.04v2.8h3.64v-12.8c0-5.8-3.28-8.6-9.08-8.6zm-.88 18.68c-2.92 0-4.68-1.32-4.68-3.44 0-1.8 1.08-3.28 4.88-3.28h5.92v2.96c-.96 2.44-3.24 3.76-6.12 3.76zm29.89-18.68c-3.36 0-6.08 1.24-7.64 3.4v-3.2h-3.68v21.2h3.84v-10.92c0-4.6 2.64-7.04 6.72-7.04 3.64 0 5.72 2.04 5.72 6.2v11.76h3.84v-12.2c0-6.24-3.64-9.2-8.8-9.2zm33.68-8.28v11.68c-1.76-2.28-4.4-3.4-7.4-3.4-6.2 0-10.72 4.32-10.72 10.8s4.52 10.84 10.72 10.84c3.12 0 5.84-1.2 7.56-3.6v3.36h3.68v-29.68zm-7.08 26.56c-4.08 0-7.16-2.96-7.16-7.48s3.08-7.44 7.16-7.44c4.04 0 7.12 2.92 7.12 7.44s-3.08 7.48-7.12 7.48zm41.17 3.36c3.8 0 6.96-1.6 8.64-4.56l-2.92-1.84c-1.36 2.08-3.44 3.04-5.76 3.04-4.16 0-7.28-2.88-7.28-7.48 0-4.52 3.12-7.44 7.28-7.44 2.32 0 4.4.96 5.76 3.04l2.92-1.88c-1.68-2.96-4.84-4.52-8.64-4.52-6.52 0-11.2 4.48-11.2 10.8s4.68 10.84 11.2 10.84zm26.16-21.64c-3.24 0-5.88 1.16-7.48 3.2v-11.48h-3.84v29.68h3.84v-10.92c0-4.6 2.64-7.04 6.72-7.04 3.64 0 5.72 2.04 5.72 6.2v11.76h3.84v-12.2c0-6.24-3.64-9.2-8.8-9.2zm25.13 0c-3.4 0-6.56.96-8.76 2.72l1.6 2.88c1.64-1.4 4.2-2.28 6.72-2.28 3.8 0 5.68 1.88 5.68 5.12v.76h-6.08c-6.32 0-8.52 2.8-8.52 6.2 0 3.68 3.04 6.24 7.84 6.24 3.32 0 5.68-1.12 6.96-3.04v2.8h3.64v-12.8c0-5.8-3.28-8.6-9.08-8.6zm-.88 18.68c-2.92 0-4.68-1.32-4.68-3.44 0-1.8 1.08-3.28 4.88-3.28h5.92v2.96c-.96 2.44-3.24 3.76-6.12 3.76zm29.88-18.68c-3.36 0-6.08 1.24-7.64 3.4v-3.2h-3.68v21.2h3.84v-10.92c0-4.6 2.64-7.04 6.72-7.04 3.64 0 5.72 2.04 5.72 6.2v11.76h3.84v-12.2c0-6.24-3.64-9.2-8.8-9.2zm34.17.2v3.28c-1.8-2.32-4.68-3.48-7.84-3.48-6.12 0-10.76 4.12-10.76 10.24s4.64 10.28 10.76 10.28c3.04 0 5.8-1.08 7.64-3.28v1.68c0 4.8-2.28 7.12-7.28 7.12-3.12 0-6.2-1.08-8.16-2.76l-1.84 2.96c2.32 2.08 6.24 3.16 10.12 3.16 7.2 0 11-3.4 11-10.88v-18.32zm-7.4 16.96c-4.28 0-7.32-2.84-7.32-6.92 0-4.12 3.04-6.88 7.32-6.88 4.24 0 7.28 2.76 7.28 6.88 0 4.08-3.04 6.92-7.28 6.92zm39.03-6.24c0-6.52-4.36-10.92-10.48-10.92s-10.64 4.52-10.64 10.8c0 6.32 4.56 10.84 11.4 10.84 3.52 0 6.44-1.2 8.36-3.44l-2.12-2.48c-1.56 1.72-3.64 2.56-6.12 2.56-4.2 0-7.2-2.48-7.68-6.2h17.2c.04-.36.08-.84.08-1.16zm-10.48-7.68c3.72 0 6.4 2.52 6.8 6.08h-13.6c.4-3.6 3.12-6.08 6.8-6.08zm23.4 18.4c5.64 0 9.16-2.44 9.16-6.28 0-8.24-13.44-4.16-13.44-9.16 0-1.68 1.64-2.92 5-2.92 2.08 0 4.2.44 6.12 1.68l1.64-3.04c-1.84-1.2-4.96-1.92-7.72-1.92-5.44 0-8.84 2.56-8.84 6.36 0 8.44 13.4 4.32 13.4 9.08 0 1.8-1.48 2.88-5.04 2.88-2.76 0-5.64-.92-7.44-2.2l-1.6 3.04c1.76 1.4 5.24 2.48 8.76 2.48z" fill="#000"/><path d="m385 731h1231v142h-1231z" fill="#fff" stroke="#2d3033" stroke-width="4"/><path d="m741.8 818.32c5.72 0 8.76-3.08 8.76-9.32v-19h-14.08v3.48h10.12v15.72c0 3.76-1.64 5.68-4.8 5.68-2.36 0-4.32-1.16-5.84-3.32l-2.32 2.72c1.8 2.6 4.84 4.04 8.16 4.04zm25.568-21.72c-3.4 0-6.56.96-8.76 2.72l1.6 2.88c1.64-1.4 4.2-2.28 6.72-2.28 3.8 0 5.68 1.88 5.68 5.12v.76h-6.08c-6.32 0-8.52 2.8-8.52 6.2 0 3.68 3.04 6.24 7.84 6.24 3.32 0 5.68-1.12 6.96-3.04v2.8h3.64v-12.8c0-5.8-3.28-8.6-9.08-8.6zm-.88 18.68c-2.92 0-4.68-1.32-4.68-3.44 0-1.8 1.08-3.28 4.88-3.28h5.92v2.96c-.96 2.44-3.24 3.76-6.12 3.76zm33.175-18.48-7.44 17-7.28-17h-4l9.28 21.2h3.92l9.28-21.2zm15.9-.2c-3.4 0-6.56.96-8.76 2.72l1.6 2.88c1.64-1.4 4.2-2.28 6.72-2.28 3.8 0 5.68 1.88 5.68 5.12v.76h-6.08c-6.32 0-8.52 2.8-8.52 6.2 0 3.68 3.04 6.24 7.84 6.24 3.32 0 5.68-1.12 6.96-3.04v2.8h3.64v-12.8c0-5.8-3.28-8.6-9.08-8.6zm-.88 18.68c-2.92 0-4.68-1.32-4.68-3.44 0-1.8 1.08-3.28 4.88-3.28h5.92v2.96c-.96 2.44-3.24 3.76-6.12 3.76zm42.969 3.04c7.4 0 11.84-4.28 11.84-12.4v-15.92h-3.88v15.76c0 6.2-2.88 9-7.92 9s-7.88-2.8-7.88-9v-15.76h-4v15.92c0 8.12 4.48 12.4 11.84 12.4zm21.54-.32h4v-28h-4zm38.645.32c4.36 0 8.12-1.52 10.68-4.4l-2.6-2.52c-2.16 2.28-4.8 3.36-7.88 3.36-6.32 0-11-4.56-11-10.76s4.68-10.76 11-10.76c3.08 0 5.72 1.04 7.88 3.32l2.6-2.52c-2.56-2.88-6.32-4.36-10.64-4.36-8.52 0-14.84 6.04-14.84 14.32s6.32 14.32 14.8 14.32zm25.508-.08c6.36 0 11-4.52 11-10.84s-4.64-10.8-11-10.8-11.04 4.48-11.04 10.8 4.68 10.84 11.04 10.84zm0-3.36c-4.08 0-7.16-2.96-7.16-7.48s3.08-7.44 7.16-7.44 7.12 2.92 7.12 7.44-3.04 7.48-7.12 7.48zm44.331-18.28c-3.6 0-6.56 1.52-8.16 3.92-1.4-2.64-4.12-3.92-7.36-3.92-3.2 0-5.8 1.2-7.32 3.36v-3.16h-3.68v21.2h3.84v-10.92c0-4.6 2.52-7.04 6.36-7.04 3.48 0 5.48 2.04 5.48 6.2v11.76h3.84v-10.92c0-4.6 2.52-7.04 6.36-7.04 3.48 0 5.48 2.04 5.48 6.2v11.76h3.84v-12.2c0-6.24-3.52-9.2-8.68-9.2zm28.484 0c-3.12 0-5.84 1.2-7.56 3.56v-3.36h-3.68v28.96h3.84v-10.96c1.76 2.28 4.4 3.44 7.4 3.44 6.2 0 10.72-4.32 10.72-10.84 0-6.48-4.52-10.8-10.72-10.8zm-.32 18.28c-4.04 0-7.12-2.96-7.12-7.48 0-4.48 3.08-7.44 7.12-7.44 4.08 0 7.16 2.96 7.16 7.44 0 4.52-3.08 7.48-7.16 7.48zm26.93 3.36c6.36 0 11-4.52 11-10.84s-4.64-10.8-11-10.8-11.04 4.48-11.04 10.8 4.68 10.84 11.04 10.84zm0-3.36c-4.08 0-7.16-2.96-7.16-7.48s3.08-7.44 7.16-7.44 7.12 2.92 7.12 7.44-3.04 7.48-7.12 7.48zm29.13-18.28c-3.36 0-6.08 1.24-7.64 3.4v-3.2h-3.68v21.2h3.84v-10.92c0-4.6 2.64-7.04 6.72-7.04 3.64 0 5.72 2.04 5.72 6.2v11.76h3.84v-12.2c0-6.24-3.64-9.2-8.8-9.2zm36.68 10.92c0-6.52-4.36-10.92-10.48-10.92s-10.64 4.52-10.64 10.8c0 6.32 4.56 10.84 11.4 10.84 3.52 0 6.44-1.2 8.36-3.44l-2.12-2.48c-1.56 1.72-3.64 2.56-6.12 2.56-4.2 0-7.2-2.48-7.68-6.2h17.2c.04-.36.08-.84.08-1.16zm-10.48-7.68c3.72 0 6.4 2.52 6.8 6.08h-13.6c.4-3.6 3.12-6.08 6.8-6.08zm28.63-3.24c-3.36 0-6.08 1.24-7.64 3.4v-3.2h-3.68v21.2h3.84v-10.92c0-4.6 2.64-7.04 6.72-7.04 3.64 0 5.72 2.04 5.72 6.2v11.76h3.84v-12.2c0-6.24-3.64-9.2-8.8-9.2zm28.13 17.4c-.8.64-1.88 1-3 1-2.12 0-3.32-1.28-3.32-3.56v-11.48h6.08v-3.16h-6.08v-4.64h-3.84v4.64h-3.6v3.16h3.6v11.64c0 4.28 2.44 6.64 6.72 6.64 1.72 0 3.48-.48 4.64-1.48zm13.42 4.24c5.64 0 9.16-2.44 9.16-6.28 0-8.24-13.44-4.16-13.44-9.16 0-1.68 1.64-2.92 5-2.92 2.08 0 4.2.44 6.12 1.68l1.64-3.04c-1.84-1.2-4.96-1.92-7.72-1.92-5.44 0-8.84 2.56-8.84 6.36 0 8.44 13.4 4.32 13.4 9.08 0 1.8-1.48 2.88-5.04 2.88-2.76 0-5.64-.92-7.44-2.2l-1.6 3.04c1.76 1.4 5.24 2.48 8.76 2.48zm49.18-.24h4.2l-12.72-28h-3.96l-12.68 28h4.12l3.08-7h14.88zm-16.56-10.2 6.04-13.72 6.04 13.72zm37.36-17.8h-10.92v28h4v-8.48h6.92c7.28 0 11.68-3.68 11.68-9.76s-4.4-9.76-11.68-9.76zm-.12 16.04h-6.8v-12.56h6.8c5.12 0 7.8 2.28 7.8 6.28s-2.68 6.28-7.8 6.28zm19.18 11.96h4v-28h-4z" fill="#000"/><path d="m191.942 1026.19c2.185 0 4.047-.78 5.282-2.22l-1.596-1.52c-.969 1.06-2.166 1.57-3.553 1.57-2.755 0-4.75-1.93-4.75-4.67s1.995-4.67 4.75-4.67c1.387 0 2.584.51 3.553 1.55l1.596-1.5c-1.235-1.44-3.097-2.22-5.263-2.22-4.085 0-7.125 2.87-7.125 6.84s3.04 6.84 7.106 6.84zm15.083 0c4.123 0 7.163-2.89 7.163-6.84s-3.04-6.84-7.163-6.84-7.163 2.91-7.163 6.84 3.04 6.84 7.163 6.84zm0-2.17c-2.679 0-4.674-1.95-4.674-4.67s1.995-4.67 4.674-4.67 4.674 1.95 4.674 4.67-1.995 4.67-4.674 4.67zm25.836 1.98-.019-13.3h-2.033l-5.187 8.82-5.282-8.82h-2.033v13.3h2.356v-8.7l4.37 7.18h1.102l4.37-7.3.019 8.82zm10.564-13.3h-5.472v13.3h2.47v-3.84h3.002c3.496 0 5.662-1.8 5.662-4.73 0-2.94-2.166-4.73-5.662-4.73zm-.114 7.37h-2.888v-5.28h2.888c2.166 0 3.287.97 3.287 2.64s-1.121 2.64-3.287 2.64zm16.141 6.12c4.123 0 7.163-2.89 7.163-6.84s-3.04-6.84-7.163-6.84-7.163 2.91-7.163 6.84 3.04 6.84 7.163 6.84zm0-2.17c-2.679 0-4.674-1.95-4.674-4.67s1.995-4.67 4.674-4.67 4.674 1.95 4.674 4.67-1.995 4.67-4.674 4.67zm20.648-11.32v9.01l-7.334-9.01h-2.033v13.3h2.451v-9.01l7.334 9.01h2.033v-13.3zm9.985 11.23v-3.67h6.422v-2.03h-6.422v-3.46h7.239v-2.07h-9.709v13.3h9.975v-2.07zm21.126-11.23v9.01l-7.334-9.01h-2.033v13.3h2.451v-9.01l7.334 9.01h2.033v-13.3zm10.212 13.3h2.47v-11.21h4.408v-2.09h-11.286v2.09h4.408zm26.939 0h2.584l-6.004-13.3h-2.432l-5.985 13.3h2.546l1.311-3.08h6.65zm-7.144-5.02 2.489-5.81 2.508 5.81zm24.282 5.02-3.059-4.37c1.805-.7 2.831-2.19 2.831-4.2 0-2.94-2.166-4.73-5.662-4.73h-5.472v13.3h2.47v-3.88h3.002c.171 0 .342 0 .513-.02l2.717 3.9zm-2.717-8.57c0 1.67-1.121 2.66-3.287 2.66h-2.888v-5.3h2.888c2.166 0 3.287.97 3.287 2.64zm12.908 8.76c2.185 0 4.047-.78 5.282-2.22l-1.596-1.52c-.969 1.06-2.166 1.57-3.553 1.57-2.755 0-4.75-1.93-4.75-4.67s1.995-4.67 4.75-4.67c1.387 0 2.584.51 3.553 1.55l1.596-1.5c-1.235-1.44-3.097-2.22-5.263-2.22-4.085 0-7.125 2.87-7.125 6.84s3.04 6.84 7.106 6.84zm18.497-13.49v5.49h-6.878v-5.49h-2.47v13.3h2.47v-5.7h6.878v5.7h2.47v-13.3zm7.534 13.3h2.47v-13.3h-2.47zm10.265 0h2.47v-11.21h4.408v-2.09h-11.286v2.09h4.408zm12.702-2.07v-3.67h6.422v-2.03h-6.422v-3.46h7.239v-2.07h-9.709v13.3h9.975v-2.07zm17.858 2.26c2.185 0 4.047-.78 5.282-2.22l-1.596-1.52c-.969 1.06-2.166 1.57-3.553 1.57-2.755 0-4.75-1.93-4.75-4.67s1.995-4.67 4.75-4.67c1.387 0 2.584.51 3.553 1.55l1.596-1.5c-1.235-1.44-3.097-2.22-5.263-2.22-4.085 0-7.125 2.87-7.125 6.84s3.04 6.84 7.106 6.84zm11.699-.19h2.47v-11.21h4.408v-2.09h-11.286v2.09h4.408zm15.709.19c3.629 0 5.814-2.11 5.814-5.99v-7.5h-2.432v7.41c0 2.74-1.216 3.91-3.363 3.91s-3.382-1.17-3.382-3.91v-7.41h-2.47v7.5c0 3.88 2.185 5.99 5.833 5.99zm22.135-.19-3.059-4.37c1.805-.7 2.831-2.19 2.831-4.2 0-2.94-2.166-4.73-5.662-4.73h-5.472v13.3h2.47v-3.88h3.002c.171 0 .342 0 .513-.02l2.717 3.9zm-2.717-8.57c0 1.67-1.121 2.66-3.287 2.66h-2.888v-5.3h2.888c2.166 0 3.287.97 3.287 2.64zm9.223 6.5v-3.67h6.422v-2.03h-6.422v-3.46h7.239v-2.07h-9.709v13.3h9.975v-2.07z" fill="#000"/><path d="m152.677 1018.19c-.043 0-.13 0-.174 0-.697 0-1.393-.18-1.393-1.84v-5.68c0-2.53-1.219-3.67-3.613-3.67h-2.046c-.696 0-1.219.52-1.219 1.22s.566 1.23 1.219 1.23h.696c.784 0 1.306.48 1.306 1.66v5.55c0 2.53 1.872 2.71 2.83 2.8v.04c-1.001.09-2.83.26-2.83 2.8v5.55c0 1.18-.565 1.7-1.349 1.7h-.697c-.696 0-1.218.53-1.218 1.23s.566 1.22 1.218 1.22h2.046c2.395 0 3.613-1.09 3.613-3.63v-5.68c0-1.7.697-1.84 1.393-1.84h.218c.697-.04 1.219-.61 1.219-1.31 0-.74-.522-1.31-1.219-1.35z" fill="#00b4f0"/><path d="m168 1019.54c0-.61-.348-1.09-.871-1.35l-.043-.04-9.49-5.16c-.261-.13-.522-.22-.827-.22-.914 0-1.654.74-1.654 1.66 0 .74.348 1.22 1.132 1.57l6.529 3.54-6.529 3.54c-.784.35-1.132.83-1.132 1.58 0 .92.74 1.66 1.654 1.66.305 0 .566-.09.827-.22l9.49-5.16s.043 0 .043-.04c.523-.22.871-.74.871-1.36z" fill="#00b4f0"/><g fill="#2d3033"><path d="m88.2079 1020.72c0-3.89-3.1342-7.08-7.0084-7.08-3.8743 0-7.052 3.19-7.052 7.08s3.1777 7.08 7.052 7.08c1.3494 0 2.6118-.39 3.7436-1.09l.1741-.09.0871.18c.2612.61.8271 1 1.4365 1 .8706 0 1.5671-.7 1.5671-1.61zm-7.0084 3.41c-1.8719 0-3.3954-1.53-3.3954-3.41s1.5235-3.41 3.3954-3.41c1.8718 0 3.3954 1.53 3.3954 3.41s-1.5236 3.41-3.3954 3.41z"/><path d="m103.748 1020.72c0-3.89-3.134-7.08-7.008-7.08-3.8742 0-7.0084 3.19-7.0084 7.08s3.1777 7.08 7.052 7.08c1.3494 0 2.6118-.39 3.7434-1.09l.174-.09.087.18c.262.61.784 1 1.437 1 .871 0 1.567-.7 1.567-1.61v-5.47zm-6.9644 3.41c-1.8719 0-3.3954-1.53-3.3954-3.41s1.5235-3.41 3.3954-3.41c1.8718 0 3.3954 1.53 3.3954 3.41s-1.5236 3.41-3.3954 3.41z"/><path d="m116.285 1026.84c.262.61.871 1.05 1.524 1.05.914 0 1.654-.74 1.654-1.66v-16.26c0-.92-.783-1.66-1.654-1.66-.914 0-1.654.74-1.654 1.66v4.81l-.131-.09c-1.132-.7-2.35-1.05-3.656-1.05-3.918 0-7.096 3.19-7.096 7.13 0 3.93 3.178 7.12 7.096 7.12 1.349 0 2.655-.39 3.787-1.09l.13-.09zm-3.917-2.75c-1.829 0-3.352-1.53-3.352-3.37 0-1.83 1.523-3.36 3.352-3.36 1.828 0 3.351 1.53 3.351 3.36 0 1.88-1.48 3.37-3.351 3.37z"/><path d="m140.445 1015.74c-1.132-1.22-2.786-1.83-4.963-1.83-.087 0-1.784.13-2.916.78-.261-.78-1.001-1.35-1.828-1.35-1.045 0-1.872.83-1.916 1.88v11.01c0 1.05.871 1.92 1.916 1.92 1.044 0 1.915-.87 1.915-1.92v-5.86c0-1.22.914-2.53 2.873-2.53 1.872 0 2.742 1.35 2.742 2.32v6.07c0 1.05.871 1.92 1.916 1.92s1.915-.87 1.915-1.92v-5.81c-.043-.18.087-2.8-1.654-4.68z"/><path d="m72.0145 1013.38c-.8271 0-1.393.39-1.7412 1.27l-3.3084 7.17-3.3518-7.17c-.3918-.88-.9142-1.27-1.7413-1.27-1.0447 0-1.8718.83-1.8718 1.88 0 .31.0871.66.2612.92l5.1366 11.06c.4353.78.9577.87 1.5671.87.6095 0 1.1318-.04 1.5671-.87l5.0931-11.06c.1742-.26.2612-.61.2612-.92 0-1.05-.8706-1.88-1.8718-1.88z"/><path d="m124.165 1013.42c-1.045 0-1.872.84-1.915 1.88v10.84c0 1.05.87 1.93 1.915 1.93s1.916-.88 1.916-1.93c0-.08 0-10.79 0-10.84-.044-1.09-.871-1.88-1.916-1.88z"/><path d="m124.164 1012.2c1.106 0 2.003-.9 2.003-2.01s-.897-2.01-2.003-2.01-2.002.9-2.002 2.01.896 2.01 2.002 2.01z"/></g><path d="m0-2.5h63.0079" stroke="#000" stroke-width="5" transform="matrix(-.015871 .999874 -1 0 1002 252)"/><path d="m0-2.5h63.0079" stroke="#000" stroke-width="5" transform="matrix(-.015871 .999874 -1 0 1002 461)"/><path d="m0-2.5h63.0079" stroke="#000" stroke-width="5" transform="matrix(-.015871 .999874 -1 0 1002 666)"/></g></svg>