<svg height="69mm" width="82mm" xmlns="http://www.w3.org/2000/svg" xmlns:xlink="http://www.w3.org/1999/xlink"><marker id="a" markerHeight="7.8382583" markerWidth="4.6707735" orient="auto" refX="4.3000002" refY="3.9191291"><path d="m.37582499.37582446 3.54330001 3.54330004-3.54330001 3.54331" fill="none" stroke="#00b4f0" stroke-width="1.062992"/></marker><marker id="b" markerHeight="7.8382583" markerWidth="4.6707735" orient="auto" refX="4.3000002" refY="3.9191291"><path d="m.37582499.37582446 3.54330001 3.54330004-3.54330001 3.54331" fill="none" stroke="#00b4f0" stroke-width="1.062992"/></marker><marker id="c" markerHeight="7.8382583" markerWidth="4.6707735" orient="auto" refX="4.3000002" refY="3.9191291"><path d="m.37582499.37582446 3.54330001 3.54330004-3.54330001 3.54331" fill="none" stroke="#00b4f0" stroke-width="1.062992"/></marker><g transform="translate(0 -805.74808)"><path d="m26.456694 813.30713h257.007876v185.19688h-257.007876z" fill="none" stroke="#00b4f0" stroke-width="1.062992"/><g fill="#00b4f0"><path d="m36.297622 825.82861 3.2175-7.875h-.945l-2.7225 6.82875-2.71125-6.82875h-.9675l3.195 7.875z"/><path d="m45.220981 823.83736.8775 1.99125h.97875l-3.52125-7.875h-.93375l-3.5325 7.875h.95625l.8775-1.99125zm-.3825-.86625h-3.5325l1.755-3.99375z"/><path d="m53.306919 823.83736.8775 1.99125h.97875l-3.52125-7.875h-.93375l-3.5325 7.875h.95625l.8775-1.99125zm-.3825-.86625h-3.5325l1.755-3.99375z"/><path d="m56.409106 817.95361v7.875h3.15c2.3175 0 4.08375-1.69875 4.08375-3.9375s-1.755-3.9375-4.05-3.9375zm.9.86625h2.26125c1.76625 0 3.16125 1.31625 3.16125 3.0825 0 1.755-1.3725 3.07125-3.1275 3.07125h-2.295z"/><path d="m66.186059 825.82861v-7.875h-.9v7.875z"/><path d="m75.129458 825.82861v-7.875h-.88875v6.33375l-4.725-6.33375h-.93375v7.875h.9v-6.3225l4.725 6.3225z"/><path d="m85.607251 818.81986v-.86625h-5.00625v7.875h.9v-3.375h3.67875v-.86625h-3.67875v-2.7675z"/><path d="m92.081626 825.82861h1.02375l-1.845-2.6775c1.13625-.37125 1.76625-1.24875 1.76625-2.55375 0-1.67625-1.13625-2.64375-3.105-2.64375h-2.9925v7.875h.9v-2.48625h2.0925c.18 0 .36-.0113.52875-.0225zm-4.2525-3.3525v-3.65625h2.0925c1.42875 0 2.23875.6075 2.23875 1.8 0 1.22625-.81 1.85625-2.23875 1.85625z"/><path d="m100.04276 823.83736.8775 1.99125h.97875l-3.521252-7.875h-.93375l-3.5325 7.875h.95625l.8775-1.99125zm-.382502-.86625h-3.5325l1.755-3.99375z"/><path d="m111.10995 825.82861v-7.875h-1.1025l-2.86875 5.67-2.88-5.67h-1.11375v7.875h.855v-6.49125l2.8575 5.65875h.54l2.86875-5.65875.0113 6.49125z"/><path d="m118.85979 818.81986v-.86625h-5.34375v7.875h5.49v-.855h-4.59v-2.7h3.97125v-.86625h-3.97125v-2.5875z"/><path d="m128.46043 825.82861 2.64375-7.875h-.93375l-2.1375 6.82875-2.16-6.82875-.9.0113-2.1375 6.8175-2.16-6.82875h-.9675l2.6325 7.875h.9225l2.14875-6.6375 2.12625 6.6375z"/><path d="m135.60102 817.93111c-2.30625 0-4.12875 1.7325-4.12875 3.96 0 2.21625 1.8225 3.9825 4.12875 3.9825 2.295 0 4.1175-1.76625 4.1175-3.9825s-1.8225-3.96-4.1175-3.96zm0 .855c1.755 0 3.195 1.3725 3.195 3.105s-1.44 3.11625-3.195 3.11625-3.2175-1.38375-3.2175-3.11625 1.4625-3.105 3.2175-3.105z"/><path d="m146.5079 825.82861h1.02375l-1.845-2.6775c1.13625-.37125 1.76625-1.24875 1.76625-2.55375 0-1.67625-1.13625-2.64375-3.105-2.64375h-2.9925v7.875h.9v-2.48625h2.0925c.18 0 .36-.0113.52875-.0225zm-4.2525-3.3525v-3.65625h2.0925c1.42875 0 2.23875.6075 2.23875 1.8 0 1.22625-.81 1.85625-2.23875 1.85625z"/><path d="m154.81778 825.82861h1.1025l-3.3525-4.455 3.11625-3.42h-1.06875l-4.23 4.53375v-4.53375h-.9v7.875h.9v-2.05875l1.53-1.67625z"/></g><path d="m26.456694 1009.8426h257.007876v49.1339h-257.007876z" fill="none" stroke="#ff3a49" stroke-width="1.062992"/><g fill="#ff3a49"><path d="m40.19639 1015.4103h-.9v4.635c0 1.53-.9 2.4187-2.39625 2.4187s-2.41875-.8887-2.41875-2.4187v-4.635h-.9v4.635c0 2.0475 1.24875 3.285 3.31875 3.285 2.05875 0 3.29625-1.2375 3.29625-3.285z"/><path d="m43.296644 1023.2853v-7.875h-.9v7.875z"/><path d="m49.668714 1022.4303v-7.02h-.9v7.875h4.35375v-.855z"/><path d="m57.977718 1015.3878c-2.30625 0-4.12875 1.7325-4.12875 3.96 0 2.2162 1.8225 3.9825 4.12875 3.9825 2.295 0 4.1175-1.7663 4.1175-3.9825 0-2.2163-1.8225-3.96-4.1175-3.96zm0 .855c1.755 0 3.195 1.3725 3.195 3.105s-1.44 3.1162-3.195 3.1162-3.2175-1.3837-3.2175-3.1162 1.4625-3.105 3.2175-3.105z"/><path d="m69.024339 1019.4378v2.3737c-.6075.4163-1.36125.6638-2.07.6638-1.8 0-3.25125-1.3838-3.25125-3.1275 0-1.7325 1.44-3.1163 3.24-3.1163.8775 0 1.74375.3375 2.385.9113l.5175-.675c-.75375-.6638-1.81125-1.08-2.9025-1.08-2.3175 0-4.15125 1.7437-4.15125 3.96 0 2.2162 1.8225 3.9825 4.10625 3.9825 1.0575 0 2.14875-.4163 2.925-1.035v-2.8575z"/><path d="m72.915784 1023.2853v-7.875h-.9v7.875z"/><path d="m78.675433 1015.3878c-2.28375 0-4.10625 1.7437-4.10625 3.9487 0 2.2275 1.8 3.9938 4.0725 3.9938 1.09125 0 2.14875-.4838 2.925-1.215l-.55125-.6188c-.61875.585-1.4625.945-2.32875.945-1.7775 0-3.20625-1.3837-3.20625-3.105 0-1.7325 1.42875-3.105 3.20625-3.105.86625 0 1.72125.3713 2.32875.99l.54-.6862c-.75375-.7088-1.8-1.1475-2.88-1.1475z"/></g><g transform="matrix(.56140018 0 0 .56140018 120.98408 897.98506)"><path d="m-24.053699 221.96899h181.772719v50.49244h-181.772719z" fill="#fff" stroke="#00b4f0" stroke-width="1.893466"/><g><path d="m33.459133 252.15819v-12.46883h-2.475952l-4.096899 8.28287-4.114712-8.28287h-2.493764v12.46883h1.977199v-9.31599l3.936585 8.01567h1.371571l3.936586-8.01567.01781 9.31599z"/><path d="m44.677178 242.68188h-2.04845l-2.636265 7.17848-2.832204-7.17848h-2.1197l3.918773 9.33381-.320627.7125c-.320627.71251-.81938 1.05094-1.442821 1.05094-.427503 0-.783755-.1425-1.22907-.46312l-.872817 1.58532c.659066.55219 1.335945.80157 2.19095.80157 1.425008 0 2.493765-.74813 3.081581-2.24439z"/><path d="m48.333215 250.25224v-10.56288h-2.101888v12.46883h7.499107v-1.90595z"/><path d="m56.619695 238.72748c-.676879 0-1.193444.51657-1.193444 1.24689 0 .7125.516565 1.22907 1.193444 1.22907s1.193445-.51657 1.193445-1.22907c0-.73032-.516566-1.24689-1.193445-1.24689zm1.015319 13.43071v-9.47631h-2.030637v9.47631z"/><path d="m63.481164 242.59282c-1.816886 0-3.491271.81938-3.491271 2.74314-.01781 3.42002 4.969717 2.33345 4.969717 4.27503 0 .7125-.676879 1.01531-1.549697 1.01531-1.033131 0-2.351264-.44531-3.170644-1.17563l-.730316 1.46064c.944068.855 2.422514 1.31813 3.811897 1.31813 1.905949 0 3.633772-.87282 3.633772-2.81439.01781-3.43784-5.023155-2.49377-5.023155-4.2394 0-.67688.587816-.94407 1.389383-.94407.837193 0 1.888136.32063 2.725329.83719l.748129-1.51407c-.855005-.60563-2.1197-.96188-3.313144-.96188z"/><path d="m73.878441 249.98505c-.552191.26719-.997506.40969-1.425009.40969-.641253 0-1.015318-.30281-1.015318-1.28251v-4.54221h2.796579v-1.53189h-2.796579v-2.60064h-2.030637v2.60064h-1.335945v1.53189h1.335945v4.91628c0 1.94157 1.22907 2.76095 2.654078 2.76095.801567 0 1.585322-.24938 2.333451-.69469z"/><path d="m80.066369 242.61063c-2.814392.0178-4.791591 1.95939-4.791591 4.82722 0 2.85001 1.923761 4.79159 4.845029 4.79159 1.638759 0 2.992517-.58782 3.918773-1.60314l-1.086569-1.15782c-.694692.71251-1.63876 1.10439-2.671891 1.10439-1.496259 0-2.618453-.90845-2.93908-2.36908h7.160667c.249377-3.42002-1.104381-5.59316-4.435338-5.59316zm-2.760954 4.0969c.231564-1.51407 1.282508-2.45814 2.778766-2.45814 1.549697 0 2.565016.92626 2.636266 2.45814z"/><path d="m92.176991 242.61063c-1.603134 0-2.814391.57-3.49127 1.88814v-1.81689h-2.04845v9.47631h2.04845v-5.04097c.142501-1.47845 1.122194-2.56501 2.689703-2.58283 1.425008 0 2.280013.87282 2.280013 2.29783v5.32597h2.04845v-5.89597c0-2.26221-1.318133-3.65159-3.526896-3.65159z"/><path d="m102.33212 242.61063c-2.814388.0178-4.791587 1.95939-4.791587 4.82722 0 2.85001 1.923761 4.79159 4.845027 4.79159 1.63876 0 2.99252-.58782 3.91877-1.60314l-1.08656-1.15782c-.6947.71251-1.63876 1.10439-2.6719 1.10439-1.49625 0-2.618448-.90845-2.939075-2.36908h7.160665c.24938-3.42002-1.10438-5.59316-4.43534-5.59316zm-2.76095 4.0969c.231564-1.51407 1.28251-2.45814 2.77877-2.45814 1.54969 0 2.56501.92626 2.63626 2.45814z"/><path d="m110.95148 242.68188h-2.04845v9.47631h2.04845v-4.95191c.16032-1.62094 1.37157-2.74314 3.27752-2.63626v-1.95939c-1.49626 0-2.63626.67688-3.27752 1.95939z"/></g><g><path d="m13.504482 260.88234c-2.084075 0-3.5669744 1.44282-3.5669744 3.54026 0 2.11079 1.4828994 3.56697 3.5669744 3.56697s3.566974-1.45618 3.566974-3.56697c0-2.09744-1.482899-3.54026-3.566974-3.54026zm0 .94852c1.46954 0 2.524937 1.06876 2.524937 2.6051 0 1.54969-1.055397 2.61845-2.524937 2.61845s-2.524937-1.06876-2.524937-2.61845c0-1.53634 1.055397-2.6051 2.524937-2.6051z"/><path d="m22.658213 260.86898c-1.282508.0134-2.231029.52102-2.725329 1.58978v-1.5497h-1.042037v7.04043h1.042037v-3.78072c.120235-1.33595.97524-2.24439 2.364623-2.25775 1.24243 0 1.990559.73477 1.990559 1.9772v4.06127h1.042037v-4.34182c0-1.69665-.988599-2.73869-2.67189-2.73869z"/><path d="m31.72114 258.57116c-2.711969 0-4.876201 2.07071-4.876201 4.68916 0 2.64518 2.137513 4.74261 4.836123 4.74261 1.295867 0 2.551655-.57446 3.473458-1.44282l-.654613-.73477c-.73477.69469-1.736729 1.12219-2.765407 1.12219-2.110794 0-3.807445-1.64321-3.807445-3.68721 0-2.05735 1.696651-3.6872 3.807445-3.6872 1.028678 0 2.043996.44086 2.765407 1.17563l.641253-.81493c-.895083-.84164-2.137512-1.36266-3.42002-1.36266z"/><path d="m39.544981 260.88234c-2.084075 0-3.566975 1.44282-3.566975 3.54026 0 2.11079 1.4829 3.56697 3.566975 3.56697 2.084074 0 3.566974-1.45618 3.566974-3.56697 0-2.09744-1.4829-3.54026-3.566974-3.54026zm0 .94852c1.46954 0 2.524936 1.06876 2.524936 2.6051 0 1.54969-1.055396 2.61845-2.524936 2.61845s-2.524937-1.06876-2.524937-2.61845c0-1.53634 1.055397-2.6051 2.524937-2.6051z"/><path d="m53.948976 260.86898c-1.349305.0134-2.337905.60118-2.778767 1.84361-.293908-1.16228-1.20235-1.84361-2.524936-1.84361-1.269149.0134-2.21767.53438-2.685251 1.62986v-1.58978h-1.028678v7.04043h1.028678v-3.4601c0-1.50961.868365-2.55165 2.311186-2.59173 1.22907 0 1.95048.73477 1.95048 1.99056v4.06127h1.055397v-3.4601c0-1.50961.841646-2.55165 2.297826-2.59173 1.21571 0 1.95048.73477 1.95048 1.99056v4.06127h1.042038v-4.34182c0-1.69665-.97524-2.73869-2.618453-2.73869z"/><path d="m62.711735 260.86898c-1.229069 0-2.19095.57446-2.711969 1.56306v-1.52298h-1.042037v9.63217h1.042037v-4.10135c.521019.97524 1.4829 1.54969 2.738688 1.54969 1.990559 0 3.353223-1.45618 3.353223-3.54025 0-2.1108-1.389383-3.58034-3.379942-3.58034zm-.187032 6.17207c-1.482899 0-2.524937-1.08212-2.524937-2.61845 0-1.52298 1.042038-2.61846 2.524937-2.61846 1.46954 0 2.511577 1.10884 2.511577 2.61846 0 1.52298-1.042037 2.61845-2.511577 2.61845z"/><path d="m70.777923 260.88234c-2.084075 0-3.566974 1.44282-3.566974 3.54026 0 2.11079 1.482899 3.56697 3.566974 3.56697s3.566974-1.45618 3.566974-3.56697c0-2.09744-1.482899-3.54026-3.566974-3.54026zm0 .94852c1.46954 0 2.524937 1.06876 2.524937 2.6051 0 1.54969-1.055397 2.61845-2.524937 2.61845s-2.524937-1.06876-2.524937-2.61845c0-1.53634 1.055397-2.6051 2.524937-2.6051z"/><path d="m79.931655 260.86898c-1.282508.0134-2.231029.52102-2.725329 1.58978v-1.5497h-1.042037v7.04043h1.042037v-3.78072c.120235-1.33595.97524-2.24439 2.364624-2.25775 1.242429 0 1.990558.73477 1.990558 1.9772v4.06127h1.042038v-4.34182c0-1.69665-.9886-2.73869-2.671891-2.73869z"/><path d="m87.710199 260.88234c-2.043997 0-3.486818 1.45618-3.486818 3.55362 0 2.09743 1.429462 3.55361 3.500177 3.55361 1.175632 0 2.164232-.4275 2.832204-1.17563l-.574456-.61454c-.547738.57446-1.309227.88173-2.177591.88173-1.362665 0-2.364624-.86837-2.551656-2.24439h5.744565c.106876-2.39134-1.015318-3.96776-3.286425-3.9544zm-2.45814 3.0994c.160313-1.33595 1.122194-2.20431 2.45814-2.20431 1.376023 0 2.284466.855 2.351263 2.20431z"/><path d="m96.552695 260.86898c-1.282507.0134-2.231029.52102-2.725328 1.58978v-1.5497h-1.042038v7.04043h1.042038v-3.78072c.120235-1.33595.97524-2.24439 2.364623-2.25775 1.242429 0 1.990559.73477 1.990559 1.9772v4.06127h1.042037v-4.34182c0-1.69665-.9886-2.73869-2.671891-2.73869z"/><path d="m104.89233 266.62691c-.38743.24047-.76149.3607-1.1222.3607-.60117 0-.93516-.32062-.93516-1.17563v-3.83416h2.23103v-.85501l-2.23103.0134v-1.85696h-1.02868v1.85696h-1.01531v.84165h1.01531v4.02119c0 1.38939.76149 2.00392 1.79017 2.00392.5611-.0134 1.09548-.20039 1.58978-.53438z"/><path d="m113.2637 259.62655v-1.02867h-6.34574v9.35161h6.51942v-1.01532h-5.45066v-3.20626h4.71589v-1.02868h-4.71589v-3.07268z"/><path d="m118.1184 267.94949 2.76541-7.04043h-1.0554l-2.23103 5.95832-2.24439-5.95832h-1.10883l2.79212 7.04043z"/><path d="m124.65743 260.88234c-2.04399 0-3.48681 1.45618-3.48681 3.55362 0 2.09743 1.42946 3.55361 3.50017 3.55361 1.17564 0 2.16423-.4275 2.83221-1.17563l-.57446-.61454c-.54774.57446-1.30923.88173-2.17759.88173-1.36266 0-2.36462-.86837-2.55166-2.24439h5.74457c.10687-2.39134-1.01532-3.96776-3.28643-3.9544zm-2.45814 3.0994c.16032-1.33595 1.1222-2.20431 2.45814-2.20431 1.37603 0 2.28447.855 2.35127 2.20431z"/><path d="m133.49993 260.86898c-1.28251.0134-2.23103.52102-2.72533 1.58978v-1.5497h-1.04204v7.04043h1.04204v-3.78072c.12024-1.33595.97524-2.24439 2.36463-2.25775 1.24242 0 1.99055.73477 1.99055 1.9772v4.06127h1.04204v-4.34182c0-1.69665-.9886-2.73869-2.67189-2.73869z"/><path d="m141.83957 266.62691c-.38742.24047-.76149.3607-1.12219.3607-.60118 0-.93516-.32062-.93516-1.17563v-3.83416h2.23102v-.85501l-2.23102.0134v-1.85696h-1.02868v1.85696h-1.01532v.84165h1.01532v4.02119c0 1.38939.76149 2.00392 1.79016 2.00392.5611-.0134 1.09548-.20039 1.58978-.53438z"/><path d="m145.20115 258.03678c-1.02868 1.50962-1.58977 3.55361-1.58977 5.78464s.56109 4.28839 1.58977 5.78465h.94852c-.97524-1.49626-1.54969-3.55362-1.54969-5.78465s.57445-4.27502 1.54969-5.78464z"/><path d="m147.66909 258.03678c.97524 1.50962 1.5497 3.55361 1.5497 5.78464s-.57446 4.28839-1.5497 5.78465h.94852c1.02868-1.49626 1.58978-3.55362 1.58978-5.78465s-.5611-4.27502-1.58978-5.78464z"/></g></g><g transform="matrix(.56140018 0 0 .56140018 82.489403 831.64603)"><path d="m-79.611885 229.89429h430.868715v50.91311h-430.868715z" fill="#fff" stroke="#33383a" stroke-width="1.893466"/><g transform="translate(-2.192495 104.69895)"><path d="m-64.029831 142.44137c-3.687209 0-6.555038 2.72533-6.555038 6.27004 0 3.58034 2.832204 6.34129 6.483788 6.34129 1.763448 0 3.562521-.80157 4.827216-2.04845l-1.246882-1.38938c-.944069.90844-2.226576 1.47844-3.473458 1.47844-2.493765 0-4.453152-1.94157-4.453152-4.39971s1.959387-4.3819 4.453152-4.3819c1.264695 0 2.565015.60563 3.473458 1.58532l1.229069-1.53188c-1.211257-1.19345-2.974705-1.92377-4.738153-1.92377z"/><path d="m-53.473357 145.41608c-2.93908 0-4.951904 1.94157-4.951904 4.8094 0 2.85002 2.012824 4.80941 4.951904 4.80941 2.921267 0 4.934091-1.95939 4.934091-4.80941 0-2.86783-2.012824-4.8094-4.934091-4.8094zm0 1.76345c1.692197 0 2.885642 1.24688 2.885642 3.06377 0 1.83469-1.193445 3.08158-2.885642 3.08158-1.71001 0-2.903455-1.24689-2.903455-3.08158 0-1.81689 1.193445-3.06377 2.903455-3.06377z"/><path d="m-34.039805 145.41608c-1.727823 0-2.992518.69469-3.598146 2.28001-.445315-1.44282-1.603135-2.28001-3.295332-2.28001-1.567509 0-2.778767.57-3.437833 1.90595v-1.8347h-2.030637v9.47631h2.030637v-4.68472c0-1.65657.997506-2.90345 2.636266-2.95689 1.389383 0 2.226575.87282 2.226575 2.31564v5.32597h2.04845v-4.68472c0-1.65657.979693-2.90345 2.60064-2.95689 1.389383 0 2.244388.87282 2.244388 2.31564v5.32597h2.04845v-5.89598c0-2.2622-1.30032-3.65158-3.473458-3.65158z"/><path d="m-22.373108 145.41608c-1.478446 0-2.618453.60563-3.313145 1.71001v-1.63876h-2.048449v12.93195h2.048449v-5.0944c.694692 1.10438 1.834699 1.71001 3.34877 1.71001 2.707516 0 4.488776-1.94158 4.488776-4.77378 0-2.88564-1.834698-4.84503-4.524401-4.84503zm-.427503 7.87317c-1.692197 0-2.885642-1.26469-2.885642-3.09939 0-1.78126 1.193445-3.06377 2.885642-3.06377 1.692198 0 2.885642 1.30032 2.885642 3.06377 0 1.81688-1.193444 3.09939-2.885642 3.09939z"/><path d="m-11.655485 145.41608c-2.93908 0-4.951904 1.94157-4.951904 4.8094 0 2.85002 2.012824 4.80941 4.951904 4.80941 2.9212669 0 4.9340913-1.95939 4.9340913-4.80941 0-2.86783-2.0128244-4.8094-4.9340913-4.8094zm0 1.76345c1.6921972 0 2.8856417 1.24688 2.8856417 3.06377 0 1.83469-1.1934445 3.08158-2.8856417 3.08158-1.71001 0-2.903455-1.24689-2.903455-3.08158 0-1.81689 1.193445-3.06377 2.903455-3.06377z"/><path d="m.95583827 145.41608c-1.60313444 0-2.81439157.57-3.49127057 1.88814v-1.81689h-2.0484496v9.47631h2.0484496v-5.04097c.1425008-1.47845 1.1221941-2.56502 2.68970335-2.58283 1.42500835 0 2.28001345.87282 2.28001345 2.29783v5.32597h2.0484495v-5.89598c0-2.2622-1.3181327-3.65158-3.52689573-3.65158z"/><path d="m11.110971 145.41608c-2.8143921.0178-4.7915912 1.95939-4.7915912 4.82722 0 2.85001 1.9237613 4.79159 4.8450282 4.79159 1.63876 0 2.992518-.58782 3.918773-1.60314l-1.086568-1.15782c-.694692.71251-1.63876 1.10438-2.671891 1.10438-1.496259 0-2.6184531-.90844-2.93908-2.36907h7.160667c.249377-3.42002-1.104381-5.59316-4.435338-5.59316zm-2.7609542 4.0969c.2315638-1.51407 1.2825075-2.45814 2.7787662-2.45814 1.549697 0 2.565015.92625 2.636266 2.45814z"/><path d="m23.221601 145.41608c-1.603135 0-2.814392.57-3.491271 1.88814v-1.81689h-2.04845v9.47631h2.04845v-5.04097c.142501-1.47845 1.122194-2.56502 2.689703-2.58283 1.425009 0 2.280014.87282 2.280014 2.29783v5.32597h2.048449v-5.89598c0-2.2622-1.318132-3.65158-3.526895-3.65158z"/><path d="m34.320801 152.7905c-.552191.26719-.997506.40969-1.425008.40969-.641254 0-1.015319-.30282-1.015319-1.28251v-4.54221h2.796579v-1.53189h-2.796579v-2.60064h-2.030637v2.60064h-1.335945v1.53189h1.335945v4.91628c0 1.94157 1.22907 2.76095 2.654078 2.76095.801567 0 1.585322-.24938 2.333451-.69469z"/><path d="m45.743129 144.38295v-1.88814h-8.906302v12.46883h9.120054v-1.88814h-7.018167v-3.43783h6.091911v-1.88814h-6.091911v-3.36658z"/><path d="m52.694498 154.96364 3.633772-9.47631h-2.04845l-2.60064 7.46348-2.636266-7.46348h-2.137512l3.669396 9.47631z"/><path d="m61.313294 145.41608c-2.814391.0178-4.79159 1.95939-4.79159 4.82722 0 2.85001 1.923761 4.79159 4.845028 4.79159 1.63876 0 2.992518-.58782 3.918773-1.60314l-1.086569-1.15782c-.694691.71251-1.638759 1.10438-2.67189 1.10438-1.496259 0-2.618453-.90844-2.93908-2.36907h7.160667c.249377-3.42002-1.104381-5.59316-4.435339-5.59316zm-2.760953 4.0969c.231564-1.51407 1.282507-2.45814 2.778766-2.45814 1.549697 0 2.565015.92625 2.636266 2.45814z"/><path d="m73.423917 145.41608c-1.603135 0-2.814392.57-3.491271 1.88814v-1.81689h-2.048449v9.47631h2.048449v-5.04097c.142501-1.47845 1.122194-2.56502 2.689704-2.58283 1.425008 0 2.280013.87282 2.280013 2.29783v5.32597h2.04845v-5.89598c0-2.2622-1.318133-3.65158-3.526896-3.65158z"/><path d="m84.523125 152.7905c-.552191.26719-.997506.40969-1.425009.40969-.641253 0-1.015318-.30282-1.015318-1.28251v-4.54221h2.796579v-1.53189h-2.796579v-2.60064h-2.030637v2.60064h-1.335945v1.53189h1.335945v4.91628c0 1.94157 1.22907 2.76095 2.654078 2.76095.801567 0 1.585322-.24938 2.333451-.69469z"/><path d="m89.141031 153.05769v-10.56288h-2.101888v12.46883h7.499107v-1.90595z"/><path d="m97.427515 141.53293c-.676879 0-1.193444.51657-1.193444 1.24688 0 .71251.516565 1.22907 1.193444 1.22907s1.193445-.51656 1.193445-1.22907c0-.73031-.516566-1.24688-1.193445-1.24688zm1.015319 13.43071v-9.47631h-2.030637v9.47631z"/><path d="m104.28899 145.39827c-1.81689 0-3.49127.81938-3.49127 2.74314-.0178 3.42002 4.96971 2.33345 4.96971 4.27502 0 .71251-.67688 1.01532-1.54969 1.01532-1.03313 0-2.35127-.44531-3.17065-1.17563l-.73031 1.46063c.94406.85501 2.42251 1.31814 3.81189 1.31814 1.90595 0 3.63377-.87282 3.63377-2.8144.0178-3.43783-5.02315-2.49376-5.02315-4.2394 0-.67687.58782-.94406 1.38938-.94406.8372 0 1.88814.32062 2.72533.83719l.74813-1.51407c-.855-.60563-2.1197-.96188-3.31314-.96188z"/><path d="m114.68626 152.7905c-.55219.26719-.99751.40969-1.42501.40969-.64126 0-1.01532-.30282-1.01532-1.28251v-4.54221h2.79658v-1.53189h-2.79658v-2.60064h-2.03064v2.60064h-1.33594v1.53189h1.33594v4.91628c0 1.94157 1.22907 2.76095 2.65408 2.76095.80157 0 1.58532-.24938 2.33345-.69469z"/><path d="m120.87419 145.41608c-2.81439.0178-4.79159 1.95939-4.79159 4.82722 0 2.85001 1.92376 4.79159 4.84503 4.79159 1.63876 0 2.99252-.58782 3.91877-1.60314l-1.08657-1.15782c-.69469.71251-1.63876 1.10438-2.67189 1.10438-1.49626 0-2.61845-.90844-2.93908-2.36907h7.16067c.24938-3.42002-1.10438-5.59316-4.43534-5.59316zm-2.76095 4.0969c.23156-1.51407 1.28251-2.45814 2.77876-2.45814 1.5497 0 2.56502.92625 2.63627 2.45814z"/><path d="m132.98481 145.41608c-1.60313 0-2.81439.57-3.49127 1.88814v-1.81689h-2.04845v9.47631h2.04845v-5.04097c.1425-1.47845 1.1222-2.56502 2.68971-2.58283 1.42501 0 2.28001.87282 2.28001 2.29783v5.32597h2.04845v-5.89598c0-2.2622-1.31813-3.65158-3.5269-3.65158z"/><path d="m143.13995 145.41608c-2.81439.0178-4.79159 1.95939-4.79159 4.82722 0 2.85001 1.92377 4.79159 4.84503 4.79159 1.63876 0 2.99252-.58782 3.91878-1.60314l-1.08657-1.15782c-.6947.71251-1.63876 1.10438-2.67189 1.10438-1.49626 0-2.61846-.90844-2.93908-2.36907h7.16066c.24938-3.42002-1.10438-5.59316-4.43534-5.59316zm-2.76095 4.0969c.23156-1.51407 1.28251-2.45814 2.77877-2.45814 1.54969 0 2.56501.92625 2.63626 2.45814z"/><path d="m151.75931 145.48733h-2.04845v9.47631h2.04845v-4.95191c.16031-1.62095 1.37157-2.74314 3.27752-2.63626v-1.95939c-1.49626 0-2.63627.67688-3.27752 1.95939z"/><path d="m163.47166 146.53827v-1.58532l-7.6238 3.31315v1.79907l7.6238 3.31314v-1.58532l-6.25223-2.63626z"/><path d="m171.25659 142.44137c-3.68721 0-6.55504 2.72533-6.55504 6.27004 0 3.58034 2.83221 6.34129 6.48379 6.34129 1.76345 0 3.56252-.80157 4.82722-2.04845l-1.24688-1.38938c-.94407.90844-2.22658 1.47844-3.47346 1.47844-2.49377 0-4.45315-1.94157-4.45315-4.39971s1.95938-4.3819 4.45315-4.3819c1.26469 0 2.56501.60563 3.47346 1.58532l1.22906-1.53188c-1.21125-1.19345-2.9747-1.92377-4.73815-1.92377z"/><path d="m180.16763 154.96364v-13.21696h-2.04845v13.21696z"/><path d="m184.29876 141.53293c-.67688 0-1.19344.51657-1.19344 1.24688 0 .71251.51656 1.22907 1.19344 1.22907s1.19345-.51656 1.19345-1.22907c0-.73031-.51657-1.24688-1.19345-1.24688zm1.01532 13.43071v-9.47631h-2.03064v9.47631z"/><path d="m192.21118 145.41608c-2.81439 0-4.77378 1.95939-4.77378 4.82722 0 2.85001 1.95939 4.79159 4.77378 4.79159 1.79907 0 3.17064-.64126 4.02565-1.76345l-1.14001-1.14001c-.64125.74813-1.60314 1.14001-2.79658 1.14001-1.63876 0-2.81439-1.22907-2.81439-3.02814 0-1.79908 1.17563-3.02815 2.81439-3.02815 1.14001-.0178 2.04845.39188 2.70752 1.06876l1.12219-1.31813c-.87282-.99751-2.20876-1.5497-3.91877-1.5497z"/><path d="m202.12306 150.61736 2.77876 4.34628h2.42252l-3.77627-5.80691 3.50908-3.6694h-2.35126l-4.18597 4.2394v-7.98005h-2.04845v13.21696h2.04845v-2.65408z"/><path d="m218.02443 144.38295v-1.88814h-8.90631v12.46883h9.12006v-1.88814h-7.01817v-3.43783h6.09191v-1.88814h-6.09191v-3.36658z"/><path d="m224.97579 154.96364 3.63377-9.47631h-2.04845l-2.60064 7.46348-2.63627-7.46348h-2.13751l3.6694 9.47631z"/><path d="m233.59459 145.41608c-2.81439.0178-4.79159 1.95939-4.79159 4.82722 0 2.85001 1.92376 4.79159 4.84503 4.79159 1.63876 0 2.99252-.58782 3.91877-1.60314l-1.08657-1.15782c-.69469.71251-1.63876 1.10438-2.67189 1.10438-1.49626 0-2.61845-.90844-2.93908-2.36907h7.16067c.24938-3.42002-1.10438-5.59316-4.43534-5.59316zm-2.76095 4.0969c.23156-1.51407 1.2825-2.45814 2.77876-2.45814 1.5497 0 2.56502.92625 2.63627 2.45814z"/><path d="m245.70521 145.41608c-1.60313 0-2.81439.57-3.49127 1.88814v-1.81689h-2.04845v9.47631h2.04845v-5.04097c.1425-1.47845 1.1222-2.56502 2.68971-2.58283 1.425 0 2.28001.87282 2.28001 2.29783v5.32597h2.04845v-5.89598c0-2.2622-1.31813-3.65158-3.5269-3.65158z"/><path d="m256.80441 152.7905c-.5522.26719-.99751.40969-1.42501.40969-.64126 0-1.01532-.30282-1.01532-1.28251v-4.54221h2.79658v-1.53189h-2.79658v-2.60064h-2.03064v2.60064h-1.33594v1.53189h1.33594v4.91628c0 1.94157 1.22907 2.76095 2.65408 2.76095.80157 0 1.58532-.24938 2.33345-.69469z"/><path d="m265.92893 146.53827v-1.58532l-7.62379 3.31315v1.79907l7.62379 3.31314v-1.58532l-6.25222-2.63626z"/><path d="m268.19194 142.49481v12.46883h5.53972c2.8144 0 4.54222-1.28251 4.54222-3.42002 0-1.67439-.99751-2.86783-2.67189-3.15284 1.35376-.32062 2.19095-1.37157 2.19095-2.77876 0-1.94158-1.60314-3.11721-4.18596-3.11721zm2.10189 1.87033h3.20627c1.33595 0 2.13751.57 2.13751 1.62094 0 1.05095-.80156 1.67439-2.13751 1.67439h-3.20627zm0 5.14784h3.20627c1.63876 0 2.61845.65907 2.61845 1.76345 0 1.17563-.97969 1.81688-2.61845 1.81688h-3.20627z"/><path d="m289.23004 145.48733h-2.04845v4.6669c0 1.65657-.96188 2.92127-2.60064 2.9569-1.37157 0-2.20876-.87282-2.20876-2.29783v-5.32597h-2.04845v5.89597c0 2.2622 1.30032 3.65159 3.47346 3.65159 1.54969-.0178 2.74314-.60563 3.38439-1.92376v1.85251h2.04845z"/><path d="m297.09151 152.7905c-.55219.26719-.9975.40969-1.425.40969-.64126 0-1.01532-.30282-1.01532-1.28251v-4.54221h2.79658v-1.53189h-2.79658v-2.60064h-2.03064v2.60064h-1.33594v1.53189h1.33594v4.91628c0 1.94157 1.22907 2.76095 2.65408 2.76095.80157 0 1.58532-.24938 2.33345-.69469z"/><path d="m304.32787 152.7905c-.55219.26719-.9975.40969-1.42501.40969-.64125 0-1.01531-.30282-1.01531-1.28251v-4.54221h2.79658v-1.53189h-2.79658v-2.60064h-2.03064v2.60064h-1.33595v1.53189h1.33595v4.91628c0 1.94157 1.22907 2.76095 2.65408 2.76095.80156 0 1.58532-.24938 2.33345-.69469z"/><path d="m310.67614 145.41608c-2.93908 0-4.95191 1.94157-4.95191 4.8094 0 2.85002 2.01283 4.80941 4.95191 4.80941 2.92126 0 4.93409-1.95939 4.93409-4.80941 0-2.86783-2.01283-4.8094-4.93409-4.8094zm0 1.76345c1.6922 0 2.88564 1.24688 2.88564 3.06377 0 1.83469-1.19344 3.08158-2.88564 3.08158-1.71001 0-2.90346-1.24689-2.90346-3.08158 0-1.81689 1.19345-3.06377 2.90346-3.06377z"/><path d="m323.28746 145.41608c-1.60314 0-2.81439.57-3.49127 1.88814v-1.81689h-2.04845v9.47631h2.04845v-5.04097c.1425-1.47845 1.12219-2.56502 2.6897-2.58283 1.42501 0 2.28001.87282 2.28001 2.29783v5.32597h2.04845v-5.89598c0-2.2622-1.31813-3.65158-3.52689-3.65158z"/><path d="m328.65099 151.70393v1.58532l7.6238-3.31314v-1.79908l-7.6238-3.31314v1.58532l6.25223 2.63627z"/><path d="m337.52251 151.70393v1.58532l7.6238-3.31314v-1.79908l-7.6238-3.31314v1.58532l6.25223 2.63627z"/></g><g><path d="m209.53555 269.98925c-2.08407 0-3.86088 1.44282-4.27502 3.54025-.42751 2.11079.76149 3.56697 2.84556 3.56697 2.08408 0 3.86088-1.45618 4.28839-3.56697.41414-2.09743-.77485-3.54025-2.85893-3.54025zm-.18703.94852c1.46954 0 2.31119 1.06875 2.00392 2.60509-.32063 1.5497-1.58978 2.61845-3.05932 2.61845s-2.31118-1.06875-1.99056-2.61845c.30727-1.53634 1.57642-2.60509 3.04596-2.60509z"/><path d="m218.68928 269.97589c-1.2825.0134-2.3379.52101-3.04595 1.58977l.30726-1.5497h-1.04203l-1.40275 7.04044h1.04204l.76149-3.78073c.38743-1.33594 1.4161-2.24439 2.80549-2.25775 1.24243 0 1.8436.73477 1.60313 1.9772l-.81493 4.06128h1.04204l.86837-4.34183c.33398-1.69665-.44087-2.73868-2.12416-2.73868z"/><path d="m228.20643 267.67806c-2.71197 0-5.29034 2.07072-5.81136 4.68917-.52102 2.64517 1.18899 4.7426 3.8876 4.7426 1.29587 0 2.67189-.57445 3.76737-1.44282l-.50766-.73477c-.88173.69469-1.96384 1.1222-2.99252 1.1222-2.11079 0-3.47346-1.64322-3.07267-3.68721.41414-2.05736 2.43142-3.68721 4.54221-3.68721 1.02868 0 1.96384.44086 2.5383 1.17563l.80156-.81493c-.72141-.84164-1.87032-1.36266-3.15283-1.36266z"/><path d="m235.57605 269.98925c-2.08407 0-3.86088 1.44282-4.27502 3.54025-.42751 2.11079.76148 3.56697 2.84556 3.56697 2.08407 0 3.86088-1.45618 4.28838-3.56697.41415-2.09743-.77484-3.54025-2.85892-3.54025zm-.18703.94852c1.46954 0 2.31118 1.06875 2.00392 2.60509-.32063 1.5497-1.58978 2.61845-3.05932 2.61845s-2.31118-1.06875-1.99056-2.61845c.30727-1.53634 1.57642-2.60509 3.04596-2.60509z"/><path d="m249.98005 269.97589c-1.34931.0134-2.45814.60117-3.15283 1.8436-.0534-1.16227-.82829-1.8436-2.15088-1.8436-1.26915.0134-2.32454.53437-3.00587 1.62985l.30726-1.58978h-1.02867l-1.40275 7.04044h1.02868l.69469-3.4601c.29391-1.50962 1.37603-2.55166 2.83221-2.59174 1.22907 0 1.80352.73477 1.54969 1.99056l-.81492 4.06128h1.05539l.69469-3.4601c.29391-1.50962 1.34931-2.55166 2.81885-2.59174 1.21571 0 1.80353.73477 1.5497 1.99056l-.81493 4.06128h1.04204l.86836-4.34183c.33399-1.69665-.4275-2.73868-2.07071-2.73868z"/><path d="m258.74281 269.97589c-1.22907 0-2.31119.57445-3.01924 1.56305l.29391-1.52298h-1.04204l-1.92376 9.63217h1.04204l.82828-4.10135c.32063.97524 1.16227 1.54969 2.41806 1.54969 1.99056 0 3.64713-1.45618 4.06128-3.54025.4275-2.11079-.66798-3.58033-2.65853-3.58033zm-1.41611 6.17206c-1.4829 0-2.31118-1.08211-2.00391-2.61845.30726-1.52298 1.56305-2.61845 3.04595-2.61845 1.46954 0 2.28447 1.10883 1.99056 2.61845-.30727 1.52298-1.56306 2.61845-3.0326 2.61845z"/><path d="m266.80899 269.98925c-2.08407 0-3.86088 1.44282-4.27502 3.54025-.4275 2.11079.76149 3.56697 2.84556 3.56697 2.08408 0 3.86088-1.45618 4.28839-3.56697.41414-2.09743-.77485-3.54025-2.85893-3.54025zm-.18703.94852c1.46954 0 2.31119 1.06875 2.00392 2.60509-.32063 1.5497-1.58978 2.61845-3.05932 2.61845s-2.31118-1.06875-1.99055-2.61845c.30726-1.53634 1.57641-2.60509 3.04595-2.60509z"/><path d="m275.96273 269.97589c-1.28251.0134-2.33791.52101-3.04596 1.58977l.30727-1.5497h-1.04204l-1.40274 7.04044h1.04203l.76149-3.78073c.38743-1.33594 1.41611-2.24439 2.80549-2.25775 1.24243 0 1.8436.73477 1.60313 1.9772l-.81492 4.06128h1.04203l.86837-4.34183c.33398-1.69665-.44086-2.73868-2.12415-2.73868z"/><path d="m283.74127 269.98925c-2.044 0-3.78073 1.45618-4.19487 3.55361-.4275 2.09743.70805 3.55361 2.77877 3.55361 1.17563 0 2.25774-.4275 3.07267-1.17563l-.45422-.61453c-.65461.57445-1.4829.88172-2.35126.88172-1.36267 0-2.19095-.86836-2.09744-2.24439h5.74457c.57445-2.39134-.22711-3.96775-2.49822-3.95439zm-3.08603 3.09939c.4275-1.33595 1.56305-2.20431 2.899-2.20431 1.37602 0 2.12415.855 1.9104 2.20431z"/><path d="m292.58377 269.97589c-1.28251.0134-2.33791.52101-3.04596 1.58977l.30727-1.5497h-1.04204l-1.40274 7.04044h1.04203l.76149-3.78073c.38743-1.33594 1.41611-2.24439 2.80549-2.25775 1.24243 0 1.8436.73477 1.60313 1.9772l-.81492 4.06128h1.04203l.86837-4.34183c.33399-1.69665-.44086-2.73868-2.12415-2.73868z"/><path d="m299.77449 275.73381c-.44087.24047-.84165.36071-1.20236.36071-.60117 0-.86836-.32063-.69469-1.17564l.76149-3.83416h2.23103l.17367-.855-2.23103.0134.37407-1.85696h-1.02868l-.37406 1.85696h-1.01532l-.17367.84165h1.01531l-.80156 4.0212c-.28055 1.38938.3607 2.00391 1.38938 2.00391.5611-.0134 1.13555-.20039 1.69665-.53437z"/><path d="m309.5486 268.73346.2004-1.02868h-6.34575l-1.87032 9.35162h6.51941l.2004-1.01532h-5.45066l.64125-3.20627h4.71589l.21375-1.02868h-4.71589l.61454-3.07267z"/><path d="m312.73337 277.0564 4.16815-7.04044h-1.0554l-3.42002 5.95832-1.0554-5.95832h-1.10883l1.38938 7.04044z"/><path d="m320.6885 269.98925c-2.04399 0-3.78072 1.45618-4.19486 3.55361-.42751 2.09743.70805 3.55361 2.77876 3.55361 1.17563 0 2.25775-.4275 3.07268-1.17563l-.45423-.61453c-.65461.57445-1.48289.88172-2.35126.88172-1.36266 0-2.19095-.86836-2.09743-2.24439h5.74456c.57446-2.39134-.22711-3.96775-2.49822-3.95439zm-3.08603 3.09939c.4275-1.33595 1.56306-2.20431 2.899-2.20431 1.37603 0 2.12415.855 1.9104 2.20431z"/><path d="m329.531 269.97589c-1.28251.0134-2.3379.52101-3.04595 1.58977l.30726-1.5497h-1.04203l-1.40275 7.04044h1.04204l.76149-3.78073c.38742-1.33594 1.4161-2.24439 2.80548-2.25775 1.24243 0 1.84361.73477 1.60314 1.9772l-.81493 4.06128h1.04204l.86836-4.34183c.33399-1.69665-.44086-2.73868-2.12415-2.73868z"/><path d="m336.72173 275.73381c-.44086.24047-.84165.36071-1.20235.36071-.60118 0-.86837-.32063-.69469-1.17564l.76148-3.83416h2.23103l.17368-.855-2.23103.0134.37406-1.85696h-1.02868l-.37406 1.85696h-1.01532l-.17367.84165h1.01532l-.80157 4.0212c-.28055 1.38938.3607 2.00391 1.38938 2.00391.5611-.0134 1.13556-.20039 1.69665-.53437z"/><path d="m341.79332 267.14368c-1.32259 1.50962-2.29783 3.55362-2.73869 5.78465-.45422 2.23102-.29391 4.28838.4275 5.78464h.94852c-.66797-1.49626-.84164-3.55362-.38742-5.78464.44086-2.23103 1.42946-4.27503 2.69861-5.78465z"/><path d="m344.26126 267.14368c.68133 1.50962.84165 3.55362.40078 5.78465-.45422 2.23102-1.42946 4.28838-2.71197 5.78464h.94853c1.33594-1.49626 2.29782-3.55362 2.75204-5.78464.44087-2.23103.29391-4.27503-.44086-5.78465z"/></g><g><path d="m-70.732318 236.78762c-1.823999 0-3.131999 1.308-3.131999 3.192s1.296 3.192 3.131999 3.192c1.092 0 1.968-.408 2.531999-1.092l-.539999-.576c-.444.528-1.128.816-1.956.816-1.307999 0-2.243999-.96-2.243999-2.34s.936-2.328 2.243999-2.328c.768 0 1.404.276 1.884.732l.515999-.66c-.575999-.6-1.415999-.948-2.435999-.936z"/><path d="m-64.238445 236.78762c-1.871999 0-3.203999 1.296-3.203999 3.18 0 1.896 1.332 3.204 3.203999 3.204 1.872 0 3.203999-1.308 3.203999-3.204 0-1.884-1.331999-3.18-3.203999-3.18zm0 .852c1.32 0 2.268.96 2.268 2.34 0 1.392-.948 2.352-2.268 2.352-1.319999 0-2.267999-.96-2.267999-2.352 0-1.38.948-2.34 2.267999-2.34z"/><path d="m-51.300198 236.77562c-1.212.012-2.1.54-2.496 1.656-.264-1.044-1.079999-1.656-2.267999-1.656-1.14.012-1.991999.48-2.411999 1.464v-1.428h-.924v6.324h.924v-3.108c0-1.356.78-2.292 2.075999-2.328 1.104 0 1.752.66 1.752 1.788v3.648h.947999v-3.108c0-1.356.756-2.292 2.064-2.328 1.091999 0 1.751999.66 1.751999 1.788v3.648h.936v-3.9c0-1.524-.876-2.46-2.351999-2.46z"/><path d="m-46.801137 241.98362c-.336 0-.588.264-.588.624s.252.624.588.624c.324 0 .576-.264.576-.624s-.252-.624-.576-.624z"/><path d="m-42.082515 243.13562 2.483999-6.324h-.947999l-2.004 5.352-2.015999-5.352h-.996l2.508 6.324z"/><path d="m-34.734017 243.13562h.912l-.012-4.176c-.012-1.356-.876-2.184-2.436-2.184-1.079999 0-1.763999.312-2.579999.852l.396.684c.66-.456 1.308-.72 2.003999-.72 1.116 0 1.692.552 1.692 1.476v.372h-2.076c-1.487999.012-2.363999.708-2.363999 1.812 0 1.092.84 1.932 2.148 1.932 1.007999 0 1.811999-.336 2.315999-1.02zm-2.136-.768c-.887999 0-1.451999-.456-1.451999-1.152s.552-1.02 1.607999-1.02h1.968v.756c-.24.876-1.056 1.416-2.124 1.416z"/><path d="m-27.819955 243.13562h.912l-.012-4.176c-.012-1.356-.876-2.184-2.435999-2.184-1.08 0-1.764.312-2.579999.852l.395999.684c.66-.456 1.308-.72 2.004-.72 1.115999 0 1.691999.552 1.691999 1.476v.372h-2.075999c-1.488.012-2.363999.708-2.363999 1.812 0 1.092.839999 1.932 2.147999 1.932 1.008 0 1.811999-.336 2.315999-1.02zm-2.135999-.768c-.888 0-1.452-.456-1.452-1.152s.552-1.02 1.608-1.02h1.967999v.756c-.24.876-1.055999 1.416-2.123999 1.416z"/><path d="m-19.021897 234.23162h-.935999v3.948c-.468-.9-1.344-1.416-2.472-1.416-1.787999 0-3.035999 1.308-3.035999 3.204 0 1.884 1.248 3.216 3.047999 3.216 1.128 0 1.992-.516 2.46-1.404v1.356h.935999zm-3.215999 8.112c-1.343999 0-2.291999-.984-2.291999-2.352 0-1.38.948-2.376 2.291999-2.376 1.332 0 2.28.996 2.28 2.376 0 1.368-.948 2.352-2.28 2.352z"/><path d="m-16.217649 234.35162c-.348 0-.612.276-.612.648s.264.648.612.648.612-.276.612-.648-.264-.648-.612-.648zm.468 8.784v-6.324h-.924v6.324z"/><path d="m-10.078712 236.77562c-1.152.012-2.004.468-2.447999 1.428v-1.392h-.936v6.324h.936v-3.396c.108-1.2.875999-2.016 2.123999-2.028 1.1159996 0 1.7879994.66 1.7879994 1.776v3.648h.9359997v-3.9c0-1.524-.8879997-2.46-2.3999991-2.46z"/><path d="m-5.5277149 241.98362c-.3359999 0-.5879998.264-.5879998.624s.2519999.624.5879998.624c.3239999 0 .5759998-.264.5759998-.624s-.2519999-.624-.5759998-.624z"/><path d="m-3.00509 236.96762h-.8159997v.756h.8159997v5.412h.9239997v-5.412h1.81199947v-.756h-1.81199947v-.684c0-.78.5519999-1.344 1.27199964-1.332.3239999.012.67199979.132.95999969.336l.024-.876c-.3119999-.18-.74399977-.288-1.15199964-.3-1.16399959-.012-2.02799939.852-2.02799939 2.04zm4.7879985-2.736h-.93599969v8.904h.93599969z"/><path d="m6.6834093 236.78762c-1.8719994 0-3.203999 1.296-3.203999 3.18 0 1.896 1.3319996 3.204 3.203999 3.204s3.203999-1.308 3.203999-3.204c0-1.884-1.3319996-3.18-3.203999-3.18zm0 .852c1.3199996 0 2.2679993.96 2.2679993 2.34 0 1.392-.9479997 2.352-2.2679993 2.352s-2.2679993-.96-2.2679993-2.352c0-1.38.9479997-2.34 2.2679993-2.34z"/><path d="m18.234713 243.13562 2.339999-6.324h-.972l-1.847999 5.352-1.859999-5.352h-.984l-1.836 5.352-1.871999-5.352h-.984l2.364 6.324h.971999l1.848-5.136 1.859999 5.136z"/><path d="m21.54259 241.98362c-.336 0-.588.264-.588.624s.252.624.588.624c.324 0 .576-.264.576-.624s-.252-.624-.576-.624z"/><path d="m26.369214 236.78762c-1.823999 0-3.131999 1.308-3.131999 3.192s1.296 3.192 3.131999 3.192c1.092 0 1.968-.408 2.531999-1.092l-.539999-.576c-.444.528-1.128.816-1.956.816-1.307999 0-2.243999-.96-2.243999-2.34s.936-2.328 2.243999-2.328c.768 0 1.404.276 1.884.732l.515999-.66c-.575999-.6-1.415999-.948-2.435999-.936z"/><path d="m32.863089 236.78762c-1.871999 0-3.203999 1.296-3.203999 3.18 0 1.896 1.332 3.204 3.203999 3.204 1.872 0 3.203999-1.308 3.203999-3.204 0-1.884-1.331999-3.18-3.203999-3.18zm0 .852c1.32 0 2.267999.96 2.267999 2.34 0 1.392-.947999 2.352-2.267999 2.352-1.319999 0-2.267999-.96-2.267999-2.352 0-1.38.948-2.34 2.267999-2.34z"/><path d="m45.80133 236.77562c-1.212.012-2.1.54-2.495999 1.656-.264-1.044-1.08-1.656-2.268-1.656-1.139999.012-1.991999.48-2.411999 1.464v-1.428h-.924v6.324h.924v-3.108c0-1.356.78-2.292 2.075999-2.328 1.104 0 1.752.66 1.752 1.788v3.648h.948v-3.108c0-1.356.755999-2.292 2.063999-2.328 1.092 0 1.751999.66 1.751999 1.788v3.648h.936v-3.9c0-1.524-.876-2.46-2.351999-2.46z"/><path d="m53.672394 236.77562c-1.104 0-1.968.516-2.435999 1.404v-1.368h-.936v8.652h.936v-3.684c.467999.876 1.331999 1.392 2.459999 1.392 1.787999 0 3.011999-1.308 3.011999-3.18 0-1.896-1.248-3.216-3.035999-3.216zm-.168 5.544c-1.332 0-2.267999-.972-2.267999-2.352 0-1.368.935999-2.352 2.267999-2.352 1.319999 0 2.255999.996 2.255999 2.352 0 1.368-.936 2.352-2.255999 2.352z"/><path d="m60.917761 236.78762c-1.871999 0-3.203999 1.296-3.203999 3.18 0 1.896 1.332 3.204 3.203999 3.204 1.872 0 3.203999-1.308 3.203999-3.204 0-1.884-1.331999-3.18-3.203999-3.18zm0 .852c1.32 0 2.268.96 2.268 2.34 0 1.392-.948 2.352-2.268 2.352-1.319999 0-2.267999-.96-2.267999-2.352 0-1.38.948-2.34 2.267999-2.34z"/><path d="m69.140011 236.77562c-1.151999.012-2.003999.468-2.447999 1.428v-1.392h-.936v6.324h.936v-3.396c.108-1.2.876-2.016 2.123999-2.028 1.116 0 1.788.66 1.788 1.776v3.648h.935999v-3.9c0-1.524-.887999-2.46-2.399999-2.46z"/><path d="m76.127011 236.78762c-1.835999 0-3.131999 1.308-3.131999 3.192s1.284 3.192 3.143999 3.192c1.056 0 1.944-.384 2.544-1.056l-.516-.552c-.492.516-1.176.792-1.956.792-1.223999 0-2.123999-.78-2.291999-2.016h5.159998c.096-2.148-.911999-3.564-2.951999-3.552zm-2.207999 2.784c.144-1.2 1.008-1.98 2.207999-1.98 1.236 0 2.052.768 2.112 1.98z"/><path d="m84.069699 236.77562c-1.152.012-2.004.468-2.448 1.428v-1.392h-.935999v6.324h.935999v-3.396c.108-1.2.876-2.016 2.124-2.028 1.115999 0 1.787999.66 1.787999 1.776v3.648h.936v-3.9c0-1.524-.888-2.46-2.399999-2.46z"/><path d="m91.560699 241.94762c-.348.216-.684.324-1.008.324-.54 0-.84-.288-.84-1.056v-3.444h2.004v-.768l-2.004.012v-1.668h-.923999v1.668h-.912v.756h.912v3.612c0 1.248.683999 1.8 1.607999 1.8.504-.012.984-.18 1.428-.48z"/></g></g><g transform="matrix(.56140018 0 0 .56140018 164.21242 792.63073)"><path d="m10.449449 221.96898h176.723491v50.49243h-176.723491z" fill="#fff" stroke="#00b4f0" stroke-width="1.893466"/><g><path d="m66.344221 240.93625v12.46883h5.53972c2.814392 0 4.542215-1.28251 4.542215-3.42003 0-1.67438-.997506-2.86782-2.671891-3.15283 1.353758-.32062 2.19095-1.37157 2.19095-2.77876 0-1.94158-1.603134-3.11721-4.185962-3.11721zm2.101888 1.87033h3.206269c1.335945 0 2.137512.57 2.137512 1.62094 0 1.05095-.801567 1.67439-2.137512 1.67439h-3.206269zm0 5.14784h3.206269c1.638759 0 2.618453.65906 2.618453 1.76345 0 1.17563-.979694 1.81688-2.618453 1.81688h-3.206269z"/><path d="m87.3823 243.92877h-2.04845v4.6669c0 1.65657-.96188 2.92127-2.60064 2.95689-1.371571 0-2.208763-.87281-2.208763-2.29782v-5.32597h-2.04845v5.89597c0 2.2622 1.30032 3.65159 3.473458 3.65159 1.549697-.0178 2.743141-.60563 3.384395-1.92377v1.85252h2.04845z"/><path d="m95.243782 251.23194c-.552191.26719-.997506.40969-1.425009.40969-.641253 0-1.015318-.30282-1.015318-1.28251v-4.54221h2.796579v-1.53189h-2.796579v-2.60064h-2.030637v2.60064h-1.335945v1.53189h1.335945v4.91627c0 1.94158 1.22907 2.76096 2.654078 2.76096.801567 0 1.585322-.24938 2.333451-.69469z"/><path d="m102.48015 251.23194c-.55219.26719-.9975.40969-1.42501.40969-.64125 0-1.01531-.30282-1.01531-1.28251v-4.54221h2.79657v-1.53189h-2.79657v-2.60064h-2.030642v2.60064h-1.335945v1.53189h1.335945v4.91627c0 1.94158 1.22907 2.76096 2.654082 2.76096.80156 0 1.58532-.24938 2.33345-.69469z"/><path d="m108.8284 243.85752c-2.93908 0-4.9519 1.94157-4.9519 4.8094 0 2.85002 2.01282 4.80941 4.9519 4.80941 2.92127 0 4.93409-1.95939 4.93409-4.80941 0-2.86783-2.01282-4.8094-4.93409-4.8094zm0 1.76345c1.6922 0 2.88564 1.24688 2.88564 3.06376 0 1.8347-1.19344 3.08159-2.88564 3.08159-1.71001 0-2.90346-1.24689-2.90346-3.08159 0-1.81688 1.19345-3.06376 2.90346-3.06376z"/><path d="m121.43972 243.85752c-1.60313 0-2.81439.57-3.49127 1.88813v-1.81688h-2.04845v9.47631h2.04845v-5.04097c.1425-1.47845 1.1222-2.56502 2.68971-2.58283 1.425 0 2.28001.87282 2.28001 2.29783v5.32597h2.04845v-5.89598c0-2.2622-1.31813-3.65158-3.5269-3.65158z"/></g><g><path d="m20.424337 230.04374c-1.824 0-3.131999 1.308-3.131999 3.192s1.295999 3.192 3.131999 3.192c1.091999 0 1.967999-.408 2.531999-1.092l-.54-.576c-.444.528-1.128.816-1.955999.816-1.308 0-2.244-.96-2.244-2.34s.936-2.328 2.244-2.328c.767999 0 1.403999.276 1.883999.732l.516-.66c-.576-.6-1.416-.948-2.435999-.936z"/><path d="m24.714898 235.23974c-.336 0-.588.264-.588.624s.252.624.588.624c.324 0 .576-.264.576-.624s-.252-.624-.576-.624z"/><path d="m29.433521 236.39174 2.483999-6.324h-.947999l-2.004 5.352-2.015999-5.352h-.996l2.508 6.324z"/><path d="m32.894583 235.23974c-.336 0-.588.264-.588.624s.252.624.588.624c.323999 0 .575999-.264.575999-.624s-.252-.624-.575999-.624z"/><path d="m37.457206 228.31574c.324 0 .672.12.96.324l.383999-.756c-.383999-.288-.875999-.432-1.355999-.444-1.056 0-2.027999.744-2.027999 2.124v.696h-.816v.768h.816v5.364h.923999v-5.364h1.812v-.768h-1.812v-.816c0-.732.504-1.128 1.116-1.128z"/><path d="m39.339892 235.23974c-.336 0-.588.264-.588.624s.252.624.588.624c.324 0 .576-.264.576-.624s-.252-.624-.576-.624z"/><path d="m44.166516 230.04374c-1.823999 0-3.131999 1.308-3.131999 3.192s1.296 3.192 3.131999 3.192c1.092 0 1.968-.408 2.532-1.092l-.54-.576c-.444.528-1.128.816-1.956.816-1.307999 0-2.243999-.96-2.243999-2.34s.936-2.328 2.243999-2.328c.768 0 1.404.276 1.884.732l.516-.66c-.576-.6-1.416-.948-2.436-.936z"/><path d="m50.660389 230.04374c-1.871999 0-3.203998 1.296-3.203998 3.18 0 1.896 1.331999 3.204 3.203998 3.204 1.872 0 3.203999-1.308 3.203999-3.204 0-1.884-1.331999-3.18-3.203999-3.18zm0 .852c1.32 0 2.268.96 2.268 2.34 0 1.392-.948 2.352-2.268 2.352-1.319999 0-2.267999-.96-2.267999-2.352 0-1.38.948-2.34 2.267999-2.34z"/><path d="m63.598636 230.03174c-1.212.012-2.1.54-2.495999 1.656-.264-1.044-1.08-1.656-2.268-1.656-1.139999.012-1.991999.48-2.411999 1.464v-1.428h-.924v6.324h.924v-3.108c0-1.356.78-2.292 2.075999-2.328 1.104 0 1.752.66 1.752 1.788v3.648h.948v-3.108c0-1.356.755999-2.292 2.063999-2.328 1.092 0 1.751999.66 1.751999 1.788v3.648h.936v-3.9c0-1.524-.876-2.46-2.351999-2.46z"/><path d="m71.469696 230.03174c-1.104 0-1.967999.516-2.435999 1.404v-1.368h-.936v8.652h.936v-3.684c.468.876 1.331999 1.392 2.459999 1.392 1.787999 0 3.011999-1.308 3.011999-3.18 0-1.896-1.248-3.216-3.035999-3.216zm-.168 5.544c-1.332 0-2.267999-.972-2.267999-2.352 0-1.368.935999-2.352 2.267999-2.352 1.32 0 2.255999.996 2.255999 2.352 0 1.368-.935999 2.352-2.255999 2.352z"/><path d="m78.715067 230.04374c-1.871999 0-3.203999 1.296-3.203999 3.18 0 1.896 1.332 3.204 3.203999 3.204 1.872 0 3.203999-1.308 3.203999-3.204 0-1.884-1.331999-3.18-3.203999-3.18zm0 .852c1.32 0 2.268.96 2.268 2.34 0 1.392-.948 2.352-2.268 2.352-1.319999 0-2.267999-.96-2.267999-2.352 0-1.38.948-2.34 2.267999-2.34z"/><path d="m86.937313 230.03174c-1.151999.012-2.003999.468-2.447999 1.428v-1.392h-.936v6.324h.936v-3.396c.108-1.2.876-2.016 2.123999-2.028 1.116 0 1.788.66 1.788 1.776v3.648h.936v-3.9c0-1.524-.888-2.46-2.4-2.46z"/><path d="m93.924314 230.04374c-1.836 0-3.131999 1.308-3.131999 3.192s1.283999 3.192 3.143999 3.192c1.055999 0 1.943999-.384 2.543999-1.056l-.516-.552c-.492.516-1.176.792-1.955999.792-1.224 0-2.124-.78-2.292-2.016h5.159999c.096-2.148-.912-3.564-2.951999-3.552zm-2.208 2.784c.144-1.2 1.008-1.98 2.208-1.98 1.235999 0 2.051999.768 2.111999 1.98z"/><path d="m101.867 230.03174c-1.152.012-2.003998.468-2.447998 1.428v-1.392h-.936v6.324h.936v-3.396c.108-1.2.875998-2.016 2.123998-2.028 1.116 0 1.788.66 1.788 1.776v3.648h.936v-3.9c0-1.524-.888-2.46-2.4-2.46z"/><path d="m109.35799 235.20374c-.348.216-.684.324-1.008.324-.54 0-.84-.288-.84-1.056v-3.444h2.004v-.768l-2.004.012v-1.668h-.924v1.668h-.912v.756h.912v3.612c0 1.248.684 1.8 1.608 1.8.504-.012.984-.18 1.428-.48z"/><path d="m111.10549 235.23974c-.336 0-.588.264-.588.624s.252.624.588.624c.324 0 .576-.264.576-.624s-.252-.624-.576-.624z"/><path d="m116.86812 230.03174c-1.104 0-1.968.516-2.436 1.404v-3.948h-.936v8.904h.936v-1.356c.468.876 1.332 1.392 2.46 1.392 1.788 0 3.012-1.308 3.012-3.18 0-1.896-1.248-3.216-3.036-3.216zm-.168 5.544c-1.332 0-2.268-.972-2.268-2.352 0-1.368.936-2.352 2.268-2.352 1.32 0 2.256.996 2.256 2.352 0 1.368-.936 2.352-2.256 2.352z"/><path d="m127.02949 230.06774h-.936v3.108c0 1.344-.768 2.292-2.076 2.316-1.092 0-1.752-.66-1.752-1.776v-3.648h-.936v3.9c0 1.524.888 2.46 2.364 2.46 1.14-.012 1.98-.48 2.4-1.464v1.428h.936z"/><path d="m132.3033 235.20374c-.348.216-.684.324-1.008.324-.54 0-.84-.288-.84-1.056v-3.444h2.004v-.768l-2.004.012v-1.668h-.924v1.668h-.912v.756h.912v3.612c0 1.248.684 1.8 1.608 1.8.504-.012.984-.18 1.428-.48z"/><path d="m136.9908 235.20374c-.348.216-.684.324-1.008.324-.54 0-.84-.288-.84-1.056v-3.444h2.004v-.768l-2.004.012v-1.668h-.924v1.668h-.912v.756h.912v3.612c0 1.248.684 1.8 1.608 1.8.504-.012.984-.18 1.428-.48z"/><path d="m141.15255 230.04374c-1.872 0-3.204 1.296-3.204 3.18 0 1.896 1.332 3.204 3.204 3.204s3.204-1.308 3.204-3.204c0-1.884-1.332-3.18-3.204-3.18zm0 .852c1.32 0 2.268.96 2.268 2.34 0 1.392-.948 2.352-2.268 2.352s-2.268-.96-2.268-2.352c0-1.38.948-2.34 2.268-2.34z"/><path d="m149.37479 230.03174c-1.152.012-2.004.468-2.448 1.428v-1.392h-.936v6.324h.936v-3.396c.108-1.2.876-2.016 2.124-2.028 1.116 0 1.788.66 1.788 1.776v3.648h.936v-3.9c0-1.524-.888-2.46-2.4-2.46z"/></g></g><g transform="matrix(.56140018 0 0 .56140018 51.299037 751.05591)"><path d="m-24.053705 221.96899h188.505055v50.49244h-188.505055z" fill="#fff" stroke="#00b4f0" stroke-width="1.893466"/><g><path d="m-9.4707468 241.32814c-3.6872092 0-6.5550382 2.72533-6.5550382 6.27004 0 3.58033 2.832204 6.34129 6.4837878 6.34129 1.7634478 0 3.5625209-.80157 4.8272159-2.04845l-1.2468824-1.38939c-.944068.90845-2.2265756 1.47845-3.4734579 1.47845-2.4937644 0-4.4531514-1.94157-4.4531514-4.39971s1.959387-4.3819 4.4531514-4.3819c1.2646949 0 2.5650151.60562 3.4734579 1.58532l1.2290698-1.53189c-1.2112572-1.19344-2.974705-1.92376-4.7381529-1.92376z"/><path d="m-.55971261 253.8504v-13.21695h-2.04844959v13.21695z"/><path d="m3.5714206 240.4197c-.6768789 0-1.1934445.51656-1.1934445 1.24688 0 .71251.5165656 1.22907 1.1934445 1.22907.676879 0 1.1934446-.51656 1.1934446-1.22907 0-.73032-.5165656-1.24688-1.1934446-1.24688zm1.0153185 13.4307v-9.4763h-2.0306369v9.4763z"/><path d="m11.483834 244.30285c-2.8143913 0-4.7737778 1.95938-4.7737778 4.82721 0 2.85002 1.9593865 4.79159 4.7737778 4.79159 1.799073 0 3.170644-.64125 4.025649-1.76344l-1.140007-1.14001c-.641253.74813-1.603134 1.14001-2.796579 1.14001-1.6387593 0-2.8143912-1.22907-2.8143912-3.02815 0-1.79907 1.1756319-3.02814 2.8143912-3.02814 1.140007-.0178 2.04845.39188 2.707516 1.06876l1.122194-1.31814c-.872817-.9975-2.208763-1.54969-3.918773-1.54969z"/><path d="m21.395716 249.50413 2.778766 4.34627h2.422514l-3.776272-5.80691 3.509083-3.66939h-2.351263l-4.185963 4.2394v-7.98005h-2.048449v13.21695h2.048449v-2.65408z"/><path d="m37.297082 243.26972v-1.88814h-8.906302v12.46882h9.120054v-1.88813h-7.018167v-3.43784h6.091911v-1.88813h-6.091911v-3.36658z"/><path d="m44.248451 253.8504 3.633772-9.4763h-2.04845l-2.60064 7.46348-2.636266-7.46348h-2.137512l3.669396 9.4763z"/><path d="m52.867251 244.30285c-2.814391.0178-4.79159 1.95938-4.79159 4.82721 0 2.85002 1.923761 4.79159 4.845028 4.79159 1.63876 0 2.992518-.58781 3.918773-1.60313l-1.086569-1.15782c-.694691.7125-1.638759 1.10438-2.67189 1.10438-1.496259 0-2.618453-.90844-2.93908-2.36908h7.160667c.249376-3.42002-1.104382-5.59315-4.435339-5.59315zm-2.760953 4.0969c.231563-1.51408 1.282507-2.45814 2.778766-2.45814 1.549697 0 2.565015.92625 2.636265 2.45814z"/><path d="m64.977874 244.30285c-1.603135 0-2.814392.57-3.491271 1.88813v-1.81688h-2.048449v9.4763h2.048449v-5.04096c.142501-1.47845 1.122194-2.56502 2.689704-2.58283 1.425008 0 2.280013.87282 2.280013 2.29782v5.32597h2.04845v-5.89597c0-2.2622-1.318133-3.65158-3.526896-3.65158z"/><path d="m76.077074 251.67727c-.552191.26718-.997506.40968-1.425008.40968-.641254 0-1.015319-.30281-1.015319-1.2825v-4.54222h2.796579v-1.53188h-2.796579v-2.60064h-2.030637v2.60064h-1.335945v1.53188h1.335945v4.91628c0 1.94158 1.22907 2.76096 2.654078 2.76096.801568 0 1.585322-.24938 2.333452-.6947z"/><path d="m85.201576 245.42504v-1.58532l-7.623794 3.31314v1.79908l7.623794 3.31314v-1.58532l-6.252224-2.63627z"/><path d="m87.464613 241.38158v12.46882h5.539721c2.814391 0 4.542214-1.2825 4.542214-3.42002 0-1.67438-.997506-2.86783-2.671891-3.15283 1.353758-.32063 2.19095-1.37157 2.19095-2.77876 0-1.94158-1.603134-3.11721-4.185962-3.11721zm2.101888 1.87032h3.206269c1.335945 0 2.137512.57001 2.137512 1.62095s-.801567 1.67438-2.137512 1.67438h-3.206269zm0 5.14785h3.206269c1.638759 0 2.618453.65906 2.618453 1.76344 0 1.17564-.979694 1.81689-2.618453 1.81689h-3.206269z"/><path d="m108.50269 244.3741h-2.04845v4.6669c0 1.65657-.96188 2.92127-2.60064 2.95689-1.37157 0-2.20876-.87282-2.20876-2.29782v-5.32597h-2.048449v5.89597c0 2.2622 1.300319 3.65158 3.473459 3.65158 1.5497-.0178 2.74314-.60563 3.38439-1.92376v1.85251h2.04845z"/><path d="m116.36418 251.67727c-.55219.26718-.99751.40968-1.42501.40968-.64126 0-1.01532-.30281-1.01532-1.2825v-4.54222h2.79658v-1.53188h-2.79658v-2.60064h-2.03064v2.60064h-1.33594v1.53188h1.33594v4.91628c0 1.94158 1.22907 2.76096 2.65408 2.76096.80157 0 1.58532-.24938 2.33345-.6947z"/><path d="m123.60055 251.67727c-.55219.26718-.99751.40968-1.42501.40968-.64125 0-1.01532-.30281-1.01532-1.2825v-4.54222h2.79658v-1.53188h-2.79658v-2.60064h-2.03063v2.60064h-1.33595v1.53188h1.33595v4.91628c0 1.94158 1.22907 2.76096 2.65407 2.76096.80157 0 1.58533-.24938 2.33346-.6947z"/><path d="m129.9488 244.30285c-2.93908 0-4.95191 1.94157-4.95191 4.8094 0 2.85002 2.01283 4.8094 4.95191 4.8094 2.92127 0 4.93409-1.95938 4.93409-4.8094 0-2.86783-2.01282-4.8094-4.93409-4.8094zm0 1.76344c1.6922 0 2.88564 1.24689 2.88564 3.06377 0 1.8347-1.19344 3.08158-2.88564 3.08158-1.71001 0-2.90346-1.24688-2.90346-3.08158 0-1.81688 1.19345-3.06377 2.90346-3.06377z"/><path d="m142.56012 244.30285c-1.60314 0-2.81439.57-3.49127 1.88813v-1.81688h-2.04845v9.4763h2.04845v-5.04096c.1425-1.47845 1.12219-2.56502 2.6897-2.58283 1.42501 0 2.28001.87282 2.28001 2.29782v5.32597h2.04845v-5.89597c0-2.2622-1.31813-3.65158-3.52689-3.65158z"/><path d="m147.92365 250.5907v1.58532l7.6238-3.31315v-1.79907l-7.6238-3.31314v1.58532l6.25223 2.63626z"/></g><g><path d="m-15.405343 230.04376c-1.823999 0-3.131999 1.308-3.131999 3.192 0 1.88399 1.296 3.19199 3.131999 3.19199 1.092 0 1.967999-.408 2.531999-1.092l-.54-.576c-.443999.528-1.127999.816-1.955999.816-1.308 0-2.243999-.96-2.243999-2.33999 0-1.38.935999-2.328 2.243999-2.328.768 0 1.404.276 1.883999.732l.516-.66c-.576-.6-1.415999-.948-2.435999-.936z"/><path d="m-8.9114699 230.04376c-1.8719991 0-3.2039991 1.296-3.2039991 3.18 0 1.89599 1.332 3.20399 3.2039991 3.20399 1.8719994 0 3.203999-1.308 3.203999-3.20399 0-1.884-1.3319996-3.18-3.203999-3.18zm0 .852c1.3199996 0 2.2679993.96 2.2679993 2.34 0 1.39199-.9479997 2.35199-2.2679993 2.35199-1.3199991 0-2.2679991-.96-2.2679991-2.35199 0-1.38.948-2.34 2.2679991-2.34z"/><path d="m4.0267765 230.03176c-1.2119996.012-2.0999994.54-2.4959992 1.656-.264-1.044-1.0799997-1.656-2.26799932-1.656-1.13999968.012-1.99199938.48-2.41199928 1.464v-1.428h-.9239997v6.32399h.9239997v-3.10799c0-1.356.7799998-2.292 2.0759994-2.328 1.10399964 0 1.75199943.66 1.75199943 1.788v3.64799h.94799967v-3.10799c0-1.356.7559998-2.292 2.0639994-2.328 1.0919996 0 1.7519994.66 1.7519994 1.788v3.64799h.9359997v-3.89999c0-1.524-.8759997-2.46-2.3519992-2.46z"/><path d="m8.5258377 235.23975c-.3359999 0-.5879998.264-.5879998.624s.2519999.624.5879998.624c.3239999 0 .5759998-.264.5759998-.624s-.2519999-.624-.5759998-.624z"/><path d="m13.24446 236.39175 2.483999-6.32399h-.947999l-2.004 5.35199-2.015999-5.35199h-.9959998l2.5079988 6.32399z"/><path d="m20.592958 236.39175h.911999l-.012-4.17599c-.012-1.356-.875999-2.184-2.435999-2.184-1.08 0-1.763999.312-2.579999.852l.396.684c.66-.456 1.307999-.72 2.003999-.72 1.116 0 1.692.552 1.692 1.476v.372h-2.076c-1.487999.012-2.363999.708-2.363999 1.81199 0 1.092.84 1.932 2.147999 1.932 1.008 0 1.812-.336 2.316-1.02zm-2.136-.768c-.887999 0-1.451999-.456-1.451999-1.152s.552-1.01999 1.607999-1.01999h1.968v.75599c-.24.876-1.056 1.416-2.124 1.416z"/><path d="m27.50702 236.39175h.912l-.012-4.17599c-.012-1.356-.876-2.184-2.435999-2.184-1.08 0-1.764.312-2.58.852l.396.684c.66-.456 1.308-.72 2.004-.72 1.115999 0 1.691999.552 1.691999 1.476v.372h-2.075999c-1.488.012-2.363999.708-2.363999 1.81199 0 1.092.839999 1.932 2.147999 1.932 1.008 0 1.811999-.336 2.315999-1.02zm-2.135999-.768c-.888 0-1.452-.456-1.452-1.152s.552-1.01999 1.608-1.01999h1.967999v.75599c-.24.876-1.055999 1.416-2.123999 1.416z"/><path d="m36.305078 227.48776h-.935999v3.948c-.468-.9-1.344-1.416-2.472-1.416-1.787999 0-3.035999 1.308-3.035999 3.204 0 1.88399 1.248 3.21599 3.047999 3.21599 1.128 0 1.992-.516 2.46-1.404v1.356h.935999zm-3.215999 8.11199c-1.343999 0-2.291999-.984-2.291999-2.35199 0-1.38.948-2.376 2.291999-2.376 1.332 0 2.28.996 2.28 2.376 0 1.36799-.948 2.35199-2.28 2.35199z"/><path d="m39.109326 227.60776c-.348 0-.612.276-.612.648s.264.648.612.648.612-.276.612-.648-.264-.648-.612-.648zm.468 8.78399v-6.32399h-.924v6.32399z"/><path d="m45.248263 230.03176c-1.152.012-2.004.468-2.448 1.428v-1.392h-.935999v6.32399h.935999v-3.39599c.108-1.2.876-2.016 2.124-2.028 1.115999 0 1.787999.66 1.787999 1.776v3.64799h.936v-3.89999c0-1.524-.888-2.46-2.399999-2.46z"/><path d="m49.79926 235.23975c-.336 0-.588.264-.588.624s.252.624.588.624c.324 0 .576-.264.576-.624s-.252-.624-.576-.624z"/><path d="m52.321885 230.22376h-.816v.756h.816v5.41199h.924v-5.41199h1.811999v-.756h-1.811999v-.684c0-.78.551999-1.344 1.271999-1.332.324.012.672.132.96.336l.024-.876c-.312-.18-.744-.288-1.152-.3-1.163999-.012-2.027999.852-2.027999 2.04zm4.787998-2.736h-.935999v8.90399h.935999z"/><path d="m62.010384 230.04376c-1.871999 0-3.203999 1.296-3.203999 3.18 0 1.89599 1.332 3.20399 3.203999 3.20399 1.872 0 3.203999-1.308 3.203999-3.20399 0-1.884-1.331999-3.18-3.203999-3.18zm0 .852c1.32 0 2.267999.96 2.267999 2.34 0 1.39199-.947999 2.35199-2.267999 2.35199-1.319999 0-2.267999-.96-2.267999-2.35199 0-1.38.948-2.34 2.267999-2.34z"/><path d="m73.561688 236.39175 2.339999-6.32399h-.972l-1.847999 5.35199-1.86-5.35199h-.983999l-1.836 5.35199-1.871999-5.35199h-.984l2.363999 6.32399h.972l1.848-5.13599 1.859999 5.13599z"/><path d="m76.869565 235.23975c-.336 0-.588.264-.588.624s.252.624.588.624c.324 0 .576-.264.576-.624s-.252-.624-.576-.624z"/><path d="m81.696189 230.04376c-1.823999 0-3.131999 1.308-3.131999 3.192 0 1.88399 1.296 3.19199 3.131999 3.19199 1.092 0 1.967999-.408 2.531999-1.092l-.54-.576c-.443999.528-1.127999.816-1.955999.816-1.308 0-2.243999-.96-2.243999-2.33999 0-1.38.935999-2.328 2.243999-2.328.768 0 1.404.276 1.883999.732l.516-.66c-.576-.6-1.415999-.948-2.435999-.936z"/><path d="m88.190064 230.04376c-1.871999 0-3.203999 1.296-3.203999 3.18 0 1.89599 1.332 3.20399 3.203999 3.20399s3.203999-1.308 3.203999-3.20399c0-1.884-1.332-3.18-3.203999-3.18zm0 .852c1.32 0 2.267999.96 2.267999 2.34 0 1.39199-.947999 2.35199-2.267999 2.35199s-2.267999-.96-2.267999-2.35199c0-1.38.947999-2.34 2.267999-2.34z"/><path d="m101.1283 230.03176c-1.211995.012-2.099995.54-2.495995 1.656-.263999-1.044-1.079999-1.656-2.267999-1.656-1.139999.012-1.991999.48-2.411999 1.464v-1.428h-.924v6.32399h.924v-3.10799c0-1.356.78-2.292 2.075999-2.328 1.104 0 1.752.66 1.752 1.788v3.64799h.947999v-3.10799c0-1.356.756-2.292 2.063995-2.328 1.092 0 1.752.66 1.752 1.788v3.64799h.936v-3.89999c0-1.524-.876-2.46-2.352-2.46z"/><path d="m108.99937 230.03176c-1.104 0-1.968.516-2.436 1.404v-1.368h-.936v8.65199h.936v-3.684c.468.876 1.332 1.392 2.46 1.392 1.788 0 3.012-1.308 3.012-3.17999 0-1.896-1.248-3.216-3.036-3.216zm-.168 5.54399c-1.332 0-2.268-.972-2.268-2.35199 0-1.368.936-2.352 2.268-2.352 1.32 0 2.256.996 2.256 2.352 0 1.36799-.936 2.35199-2.256 2.35199z"/><path d="m116.24474 230.04376c-1.872 0-3.204 1.296-3.204 3.18 0 1.89599 1.332 3.20399 3.204 3.20399s3.204-1.308 3.204-3.20399c0-1.884-1.332-3.18-3.204-3.18zm0 .852c1.32 0 2.268.96 2.268 2.34 0 1.39199-.948 2.35199-2.268 2.35199s-2.268-.96-2.268-2.35199c0-1.38.948-2.34 2.268-2.34z"/><path d="m124.46699 230.03176c-1.152.012-2.004.468-2.448 1.428v-1.392h-.936v6.32399h.936v-3.39599c.108-1.2.876-2.016 2.124-2.028 1.116 0 1.788.66 1.788 1.776v3.64799h.936v-3.89999c0-1.524-.888-2.46-2.4-2.46z"/><path d="m131.45399 230.04376c-1.836 0-3.132 1.308-3.132 3.192 0 1.88399 1.284 3.19199 3.144 3.19199 1.056 0 1.944-.384 2.544-1.056l-.516-.552c-.492.516-1.176.792-1.956.792-1.224 0-2.124-.78-2.292-2.01599h5.16c.096-2.148-.912-3.564-2.952-3.552zm-2.208 2.784c.144-1.2 1.008-1.98 2.208-1.98 1.236 0 2.052.768 2.112 1.98z"/><path d="m139.39667 230.03176c-1.152.012-2.004.468-2.448 1.428v-1.392h-.936v6.32399h.936v-3.39599c.108-1.2.876-2.016 2.124-2.028 1.116 0 1.788.66 1.788 1.776v3.64799h.936v-3.89999c0-1.524-.888-2.46-2.4-2.46z"/><path d="m146.88767 235.20375c-.348.216-.684.324-1.008.324-.54 0-.84-.288-.84-1.056v-3.44399h2.004v-.768l-2.004.012v-1.668h-.924v1.668h-.912v.756h.912v3.61199c0 1.248.684 1.8 1.608 1.8.504-.012.984-.18 1.428-.48z"/></g></g><g transform="matrix(.56140018 0 0 .56140018 -25.946492 720.51047)"><path d="m113.5407 202.74358h201.96971v50.49241h-201.96971z" fill="#fff" stroke="#ff3a49" stroke-width="1.893466"/><g transform="translate(-.638836 13.217356)"><path d="m134.5191 206.32614c-3.68721 0-6.55504 2.72533-6.55504 6.27004 0 3.58033 2.83221 6.34128 6.48379 6.34128 1.76345 0 3.56252-.80156 4.82722-2.04845l-1.24689-1.38938c-.94406.90844-2.22657 1.47845-3.47345 1.47845-2.49377 0-4.45315-1.94158-4.45315-4.39972 0-2.45813 1.95938-4.3819 4.45315-4.3819 1.26469 0 2.56501.60563 3.47345 1.58533l1.22907-1.53189c-1.21125-1.19344-2.9747-1.92376-4.73815-1.92376z"/><path d="m145.07557 209.30085c-2.93907 0-4.9519 1.94157-4.9519 4.8094 0 2.85002 2.01283 4.8094 4.9519 4.8094 2.92127 0 4.9341-1.95938 4.9341-4.8094 0-2.86783-2.01283-4.8094-4.9341-4.8094zm0 1.76344c1.6922 0 2.88565 1.24689 2.88565 3.06377 0 1.8347-1.19345 3.08158-2.88565 3.08158-1.71001 0-2.90345-1.24688-2.90345-3.08158 0-1.81688 1.19344-3.06377 2.90345-3.06377z"/><path d="m164.50913 209.30085c-1.72783 0-2.99252.69469-3.59815 2.28001-.44531-1.44282-1.60313-2.28001-3.29533-2.28001-1.56751 0-2.77877.57-3.43783 1.90594v-1.83469h-2.03064v9.4763h2.03064v-4.68471c0-1.65658.9975-2.90346 2.63626-2.9569 1.38938 0 2.22658.87282 2.22658 2.31564v5.32597h2.04845v-4.68471c0-1.65658.97969-2.90346 2.60064-2.9569 1.38938 0 2.24439.87282 2.24439 2.31564v5.32597h2.04845v-5.89597c0-2.2622-1.30033-3.65158-3.47346-3.65158z"/><path d="m176.17582 209.30085c-1.47844 0-2.61845.60562-3.31314 1.71001v-1.63876h-2.04845v12.93195h2.04845v-5.09441c.69469 1.10438 1.8347 1.71001 3.34877 1.71001 2.70752 0 4.48878-1.94157 4.48878-4.77378 0-2.88564-1.8347-4.84502-4.52441-4.84502zm-.4275 7.87317c-1.6922 0-2.88564-1.2647-2.88564-3.0994 0-1.78126 1.19344-3.06376 2.88564-3.06376s2.88564 1.30032 2.88564 3.06376c0 1.81689-1.19344 3.0994-2.88564 3.0994z"/><path d="m186.89345 209.30085c-2.93908 0-4.95191 1.94157-4.95191 4.8094 0 2.85002 2.01283 4.8094 4.95191 4.8094 2.92126 0 4.93409-1.95938 4.93409-4.8094 0-2.86783-2.01283-4.8094-4.93409-4.8094zm0 1.76344c1.69219 0 2.88564 1.24689 2.88564 3.06377 0 1.8347-1.19345 3.08158-2.88564 3.08158-1.71001 0-2.90346-1.24688-2.90346-3.08158 0-1.81688 1.19345-3.06377 2.90346-3.06377z"/><path d="m199.50477 209.30085c-1.60313 0-2.81439.57-3.49127 1.88813v-1.81688h-2.04845v9.4763h2.04845v-5.04097c.1425-1.47844 1.12219-2.56501 2.6897-2.58282 1.42501 0 2.28002.87281 2.28002 2.29782v5.32597h2.04845v-5.89597c0-2.2622-1.31814-3.65158-3.5269-3.65158z"/><path d="m209.6599 209.30085c-2.81439.0178-4.79159 1.95938-4.79159 4.82721 0 2.85002 1.92376 4.79159 4.84503 4.79159 1.63876 0 2.99252-.58781 3.91877-1.60313l-1.08657-1.15782c-.69469.7125-1.63875 1.10438-2.67189 1.10438-1.49625 0-2.61845-.90844-2.93908-2.36908h7.16067c.24938-3.42002-1.10438-5.59315-4.43534-5.59315zm-2.76095 4.09689c.23156-1.51407 1.28251-2.45814 2.77877-2.45814 1.54969 0 2.56501.92626 2.63626 2.45814z"/><path d="m221.77053 209.30085c-1.60313 0-2.81439.57-3.49127 1.88813v-1.81688h-2.04845v9.4763h2.04845v-5.04097c.1425-1.47844 1.1222-2.56501 2.68971-2.58282 1.425 0 2.28001.87281 2.28001 2.29782v5.32597h2.04845v-5.89597c0-2.2622-1.31813-3.65158-3.5269-3.65158z"/><path d="m232.86973 216.67526c-.55219.26719-.9975.40969-1.42501.40969-.64125 0-1.01531-.30281-1.01531-1.2825v-4.54222h2.79658v-1.53188h-2.79658v-2.60064h-2.03064v2.60064h-1.33595v1.53188h1.33595v4.91628c0 1.94157 1.22907 2.76095 2.65408 2.76095.80156 0 1.58532-.24937 2.33345-.69469z"/><path d="m244.29206 208.26771v-1.88813h-8.9063v12.46882h9.12005v-1.88813h-7.01816v-3.43784h6.09191v-1.88813h-6.09191v-3.36659z"/><path d="m251.24343 218.8484 3.63377-9.4763h-2.04845l-2.60064 7.46348-2.63626-7.46348h-2.13752l3.6694 9.4763z"/><path d="m259.86223 209.30085c-2.81439.0178-4.79159 1.95938-4.79159 4.82721 0 2.85002 1.92376 4.79159 4.84502 4.79159 1.63876 0 2.99252-.58781 3.91878-1.60313l-1.08657-1.15782c-.69469.7125-1.63876 1.10438-2.67189 1.10438-1.49626 0-2.61845-.90844-2.93908-2.36908h7.16067c.24937-3.42002-1.10439-5.59315-4.43534-5.59315zm-2.76096 4.09689c.23157-1.51407 1.28251-2.45814 2.77877-2.45814 1.5497 0 2.56501.92626 2.63626 2.45814z"/><path d="m271.97285 209.30085c-1.60314 0-2.81439.57-3.49127 1.88813v-1.81688h-2.04845v9.4763h2.04845v-5.04097c.1425-1.47844 1.12219-2.56501 2.6897-2.58282 1.42501 0 2.28002.87281 2.28002 2.29782v5.32597h2.04844v-5.89597c0-2.2622-1.31813-3.65158-3.52689-3.65158z"/><path d="m283.07206 216.67526c-.55219.26719-.99751.40969-1.42501.40969-.64126 0-1.01532-.30281-1.01532-1.2825v-4.54222h2.79658v-1.53188h-2.79658v-2.60064h-2.03064v2.60064h-1.33594v1.53188h1.33594v4.91628c0 1.94157 1.22907 2.76095 2.65408 2.76095.80157 0 1.58532-.24937 2.33345-.69469z"/><path d="m292.19655 210.42304v-1.58532l-7.62379 3.31314v1.79908l7.62379 3.31314v-1.58532l-6.25222-2.63627z"/><path d="m293.44428 215.58869v1.58533l7.62379-3.31315v-1.79907l-7.62379-3.31315v1.58533l6.25222 2.63626z"/></g><g><path d="m122.08896 209.25971c-1.824 0-3.132 1.308-3.132 3.192s1.296 3.192 3.132 3.192c1.092 0 1.968-.408 2.532-1.092l-.54-.576c-.444.528-1.128.816-1.956.816-1.308 0-2.244-.96-2.244-2.34s.936-2.328 2.244-2.328c.768 0 1.404.276 1.884.732l.516-.66c-.576-.6-1.416-.948-2.436-.936z"/><path d="m128.58283 209.25971c-1.872 0-3.204 1.296-3.204 3.18 0 1.896 1.332 3.204 3.204 3.204s3.204-1.308 3.204-3.204c0-1.884-1.332-3.18-3.204-3.18zm0 .852c1.32 0 2.268.96 2.268 2.34 0 1.392-.948 2.352-2.268 2.352s-2.268-.96-2.268-2.352c0-1.38.948-2.34 2.268-2.34z"/><path d="m141.52108 209.24771c-1.212.012-2.1.54-2.496 1.656-.264-1.044-1.08-1.656-2.268-1.656-1.14.012-1.992.48-2.412 1.464v-1.428h-.924v6.324h.924v-3.108c0-1.356.78-2.292 2.076-2.328 1.104 0 1.752.66 1.752 1.788v3.648h.948v-3.108c0-1.356.756-2.292 2.064-2.328 1.092 0 1.75199.66 1.75199 1.788v3.648h.936v-3.9c0-1.524-.876-2.46-2.35199-2.46z"/><path d="m146.02014 214.45571c-.336 0-.588.264-.588.624s.252.624.588.624c.324 0 .576-.264.576-.624s-.252-.624-.576-.624z"/><path d="m150.73876 215.60771 2.484-6.324h-.948l-2.004 5.352-2.016-5.352h-.996l2.508 6.324z"/><path d="m158.08726 215.60771h.912l-.012-4.176c-.012-1.356-.876-2.184-2.436-2.184-1.08 0-1.764.312-2.58.852l.396.684c.66-.456 1.308-.72 2.004-.72 1.116 0 1.692.552 1.692 1.476v.372h-2.076c-1.488.012-2.364.708-2.364 1.812 0 1.092.84 1.932 2.148 1.932 1.008 0 1.812-.336 2.316-1.02zm-2.136-.768c-.888 0-1.452-.456-1.452-1.152s.552-1.02 1.608-1.02h1.968v.756c-.24.876-1.056 1.416-2.124 1.416z"/><path d="m165.00132 215.60771h.912l-.012-4.176c-.012-1.356-.876-2.184-2.436-2.184-1.08 0-1.764.312-2.58.852l.396.684c.66-.456 1.308-.72 2.004-.72 1.116 0 1.692.552 1.692 1.476v.372h-2.076c-1.488.012-2.364.708-2.364 1.812 0 1.092.84 1.932 2.148 1.932 1.008 0 1.812-.336 2.316-1.02zm-2.136-.768c-.888 0-1.452-.456-1.452-1.152s.552-1.02 1.608-1.02h1.968v.756c-.24.876-1.056 1.416-2.124 1.416z"/><path d="m173.79938 206.70371h-.936v3.948c-.468-.9-1.344-1.416-2.472-1.416-1.788 0-3.036 1.308-3.036 3.204 0 1.884 1.248 3.216 3.048 3.216 1.128 0 1.992-.516 2.46-1.404v1.356h.936zm-3.216 8.112c-1.344 0-2.292-.984-2.292-2.352 0-1.38.948-2.376 2.292-2.376 1.332 0 2.28.996 2.28 2.376 0 1.368-.948 2.352-2.28 2.352z"/><path d="m176.60363 206.82371c-.348 0-.612.276-.612.648s.264.648.612.648c.34799 0 .61199-.276.61199-.648s-.264-.648-.61199-.648zm.46799 8.784v-6.324h-.92399v6.324z"/><path d="m182.74256 209.24771c-1.152.012-2.004.468-2.448 1.428v-1.392h-.936v6.324h.936v-3.396c.108-1.2.876-2.016 2.124-2.028 1.116 0 1.788.66 1.788 1.776v3.648h.936v-3.9c0-1.524-.888-2.46-2.4-2.46z"/><path d="m187.29356 214.45571c-.336 0-.588.264-.588.624s.252.624.588.624c.324 0 .576-.264.576-.624s-.252-.624-.576-.624z"/><path d="m189.81618 209.43971h-.816v.756h.816v5.412h.924v-5.412h1.812v-.756h-1.812v-.684c0-.78.552-1.344 1.272-1.332.324.012.672.132.96.336l.024-.876c-.312-.18-.744-.288-1.152-.3-1.164-.012-2.028.852-2.028 2.04zm4.788-2.736h-.936v8.904h.936z"/><path d="m199.50468 209.25971c-1.872 0-3.204 1.296-3.204 3.18 0 1.896 1.332 3.204 3.204 3.204s3.204-1.308 3.204-3.204c0-1.884-1.332-3.18-3.204-3.18zm0 .852c1.32 0 2.268.96 2.268 2.34 0 1.392-.948 2.352-2.268 2.352s-2.268-.96-2.268-2.352c0-1.38.948-2.34 2.268-2.34z"/><path d="m211.05599 215.60771 2.34-6.324h-.972l-1.848 5.352-1.86-5.352h-.984l-1.836 5.352-1.872-5.352h-.984l2.364 6.324h.972l1.848-5.136 1.86 5.136z"/><path d="m214.36386 214.45571c-.336 0-.588.264-.588.624s.252.624.588.624c.324 0 .576-.264.576-.624s-.252-.624-.576-.624z"/><path d="m219.19049 209.25971c-1.824 0-3.132 1.308-3.132 3.192s1.296 3.192 3.132 3.192c1.092 0 1.968-.408 2.532-1.092l-.54-.576c-.444.528-1.128.816-1.956.816-1.308 0-2.244-.96-2.244-2.34s.936-2.328 2.244-2.328c.768 0 1.404.276 1.884.732l.516-.66c-.576-.6-1.416-.948-2.436-.936z"/><path d="m225.68436 209.25971c-1.872 0-3.204 1.296-3.204 3.18 0 1.896 1.332 3.204 3.204 3.204s3.204-1.308 3.204-3.204c0-1.884-1.332-3.18-3.204-3.18zm0 .852c1.32 0 2.268.96 2.268 2.34 0 1.392-.948 2.352-2.268 2.352s-2.268-.96-2.268-2.352c0-1.38.948-2.34 2.268-2.34z"/><path d="m238.6226 209.24771c-1.212.012-2.1.54-2.496 1.656-.264-1.044-1.08-1.656-2.26799-1.656-1.14.012-1.992.48-2.412 1.464v-1.428h-.924v6.324h.924v-3.108c0-1.356.78-2.292 2.076-2.328 1.10399 0 1.75199.66 1.75199 1.788v3.648h.948v-3.108c0-1.356.756-2.292 2.064-2.328 1.092 0 1.752.66 1.752 1.788v3.648h.936v-3.9c0-1.524-.876-2.46-2.352-2.46z"/><path d="m246.49367 209.24771c-1.104 0-1.968.516-2.436 1.404v-1.368h-.936v8.652h.936v-3.684c.468.876 1.332 1.392 2.46 1.392 1.788 0 3.012-1.308 3.012-3.18 0-1.896-1.248-3.216-3.036-3.216zm-.168 5.544c-1.332 0-2.268-.972-2.268-2.352 0-1.368.936-2.352 2.268-2.352 1.32 0 2.256.996 2.256 2.352 0 1.368-.936 2.352-2.256 2.352z"/><path d="m253.73904 209.25971c-1.872 0-3.204 1.296-3.204 3.18 0 1.896 1.332 3.204 3.204 3.204 1.87199 0 3.20399-1.308 3.20399-3.204 0-1.884-1.332-3.18-3.20399-3.18zm0 .852c1.31999 0 2.26799.96 2.26799 2.34 0 1.392-.948 2.352-2.26799 2.352-1.32 0-2.268-.96-2.268-2.352 0-1.38.948-2.34 2.268-2.34z"/><path d="m261.96128 209.24771c-1.15199.012-2.00399.468-2.44799 1.428v-1.392h-.936v6.324h.936v-3.396c.108-1.2.876-2.016 2.124-2.028 1.11599 0 1.78799.66 1.78799 1.776v3.648h.936v-3.9c0-1.524-.888-2.46-2.4-2.46z"/><path d="m268.94829 209.25971c-1.836 0-3.132 1.308-3.132 3.192s1.284 3.192 3.144 3.192c1.05599 0 1.94399-.384 2.54399-1.056l-.516-.552c-.492.516-1.176.792-1.95599.792-1.224 0-2.124-.78-2.292-2.016h5.15999c.096-2.148-.912-3.564-2.95199-3.552zm-2.208 2.784c.144-1.2 1.008-1.98 2.208-1.98 1.23599 0 2.05199.768 2.11199 1.98z"/><path d="m276.89097 209.24771c-1.152.012-2.004.468-2.448 1.428v-1.392h-.936v6.324h.936v-3.396c.108-1.2.876-2.016 2.124-2.028 1.116 0 1.788.66 1.788 1.776v3.648h.936v-3.9c0-1.524-.888-2.46-2.4-2.46z"/><path d="m284.38197 214.41971c-.348.216-.684.324-1.008.324-.54 0-.84-.288-.84-1.056v-3.444h2.004v-.768l-2.004.012v-1.668h-.924v1.668h-.912v.756h.912v3.612c0 1.248.684 1.8 1.608 1.8.504-.012.984-.18 1.428-.48z"/></g></g><g fill="none" stroke="#00b4f0" stroke-width="1.062992"><path d="m92.598415 875.45649v-12.58224" marker-end="url(#a)"/><path d="m158.74016 1022.5985v-32.89099" marker-end="url(#b)"/><path d="m143.62205 889.52365h17.67717"/></g><path d="m157.54568 886.47705v-5.25h-1.6575v.57h1.065v4.68z" fill="#00b6f3"/><path d="m219.68504 945.59061v14.17323" fill="none" stroke="#00b4f0" stroke-width="1.062992"/><path d="m222.55917 959.76392a2.8741407 2.8741407 0 0 1 -2.87414 2.87414 2.8741407 2.8741407 0 0 1 -2.87414-2.87414 2.8741407 2.8741407 0 0 1 2.87414-2.87414 2.8741407 2.8741407 0 0 1 2.87414 2.87414z" fill="#00b6f3"/><path d="m226.60466 953.16062c-.72.008-1.2525.2925-1.53.8925v-.87h-.585v3.9525h.585v-2.1225c.0675-.75.5475-1.26 1.3275-1.2675.6975 0 1.1175.4125 1.1175 1.11v2.28h.585v-2.4375c0-.9525-.555-1.5375-1.5-1.5375z" fill="#00b6f3"/><g><path d="m163.48599 1005.0324.8025-1.26h-.51l-.8475 1.26.8475 1.245h.51zm1.155 0 .8025-1.26h-.51l-.8475 1.26.8475 1.245h.51z"/><path d="m166.859 1001.4549c-.2175 0-.3825.1725-.3825.405s.165.405.3825.405.3825-.1725.3825-.405-.165-.405-.3825-.405zm.2925 5.49v-3.9525h-.5775v3.9525z"/><path d="m173.64333 1002.9699c-.7575.01-1.3125.3375-1.56 1.035-.165-.6525-.675-1.035-1.4175-1.035-.7125.01-1.245.3-1.5075.915v-.8925h-.5775v3.9525h.5775v-1.9425c0-.8475.4875-1.4325 1.2975-1.455.69 0 1.095.4125 1.095 1.1175v2.28h.5925v-1.9425c0-.8475.4725-1.4325 1.29-1.455.6825 0 1.095.4125 1.095 1.1175v2.28h.585v-2.4375c0-.9525-.5475-1.5375-1.47-1.5375z"/><path d="m178.56275 1002.9699c-.69 0-1.23.3225-1.5225.8775v-.855h-.585v5.4075h.585v-2.3025c.2925.5475.8325.87 1.5375.87 1.1175 0 1.8825-.8175 1.8825-1.9875 0-1.185-.78-2.01-1.8975-2.01zm-.105 3.465c-.8325 0-1.4175-.6075-1.4175-1.47 0-.855.585-1.47 1.4175-1.47.825 0 1.41.6225 1.41 1.47 0 .855-.585 1.47-1.41 1.47z"/><path d="m182.10861 1006.9449v-5.565h-.585v5.565z"/><path d="m185.12618 1002.9774c-1.1475 0-1.9575.8175-1.9575 1.995s.8025 1.995 1.965 1.995c.66 0 1.215-.24 1.59-.66l-.3225-.345c-.3075.3225-.735.495-1.2225.495-.765 0-1.3275-.4875-1.4325-1.26h3.225c.06-1.3425-.57-2.2275-1.845-2.22zm-1.38 1.74c.09-.75.63-1.2375 1.38-1.2375.7725 0 1.2825.48 1.32 1.2375z"/><path d="m193.03786 1002.9699c-.7575.01-1.3125.3375-1.56 1.035-.165-.6525-.675-1.035-1.4175-1.035-.7125.01-1.245.3-1.5075.915v-.8925h-.5775v3.9525h.5775v-1.9425c0-.8475.4875-1.4325 1.2975-1.455.69 0 1.095.4125 1.095 1.1175v2.28h.5925v-1.9425c0-.8475.4725-1.4325 1.29-1.455.6825 0 1.095.4125 1.095 1.1175v2.28h.585v-2.4375c0-.9525-.5475-1.5375-1.47-1.5375z"/><path d="m197.37228 1002.9774c-1.1475 0-1.9575.8175-1.9575 1.995s.8025 1.995 1.965 1.995c.66 0 1.215-.24 1.59-.66l-.3225-.345c-.3075.3225-.735.495-1.2225.495-.765 0-1.3275-.4875-1.4325-1.26h3.225c.06-1.3425-.57-2.2275-1.845-2.22zm-1.38 1.74c.09-.75.63-1.2375 1.38-1.2375.7725 0 1.2825.48 1.32 1.2375z"/><path d="m202.33646 1002.9699c-.72.01-1.2525.2925-1.53.8925v-.87h-.585v3.9525h.585v-2.1225c.0675-.75.5475-1.26 1.3275-1.2675.6975 0 1.1175.4125 1.1175 1.11v2.28h.585v-2.4375c0-.9525-.555-1.5375-1.5-1.5375z"/><path d="m207.01833 1006.2024c-.2175.135-.4275.2025-.63.2025-.3375 0-.525-.18-.525-.66v-2.1525h1.2525v-.48l-1.2525.01v-1.0425h-.5775v1.0425h-.57v.4725h.57v2.2575c0 .78.4275 1.125 1.005 1.125.315-.01.615-.1125.8925-.3z"/><path d="m209.12302 1002.9699c-.72 0-1.3725.315-1.3725 1.0725-.007 1.4025 2.205.915 2.1825 1.8675-.007.39-.3825.5625-.8475.5625s-.975-.1875-1.3125-.5025l-.225.4425c.375.36.9525.555 1.515.555.7575 0 1.4475-.345 1.4475-1.125 0-1.4175-2.205-.9675-2.205-1.845 0-.3675.3375-.525.78-.525.3675 0 .765.1275 1.0725.3225l.225-.465c-.33-.225-.7875-.36-1.26-.36z"/><path d="m212.13146 1005.0174-.8025 1.26h.51l.8475-1.26-.8475-1.245h-.51zm1.155 0-.8025 1.26h.51l.8475-1.26-.8475-1.245h-.51z"/></g><g><path d="m96.594211 870.7866.8025-1.26h-.51l-.8475 1.26.8475 1.245h.51zm1.155 0 .8025-1.26h-.51l-.8475 1.26.8475 1.245h.51z"/><path d="m101.24222 868.7316c-1.1475 0-1.957501.8175-1.957501 1.995s.802501 1.995 1.965001 1.995c.66 0 1.215-.24 1.59-.66l-.3225-.345c-.3075.3225-.735.495-1.2225.495-.765 0-1.327501-.4875-1.432501-1.26h3.225001c.06-1.3425-.57-2.2275-1.845-2.22zm-1.380001 1.74c.09-.75.630001-1.2375 1.380001-1.2375.7725 0 1.2825.48 1.32 1.2375z"/><path d="m105.13917 870.2466-1.05-1.5h-.675l1.3425 1.92-1.44 2.0325h.66l1.1625-1.6125 1.125 1.6125h.6825l-1.4175-2.0325 1.32-1.92h-.645z"/><path d="m109.7164 871.9566c-.2175.135-.4275.2025-.63.2025-.3375 0-.525-.18-.525-.66v-2.1525h1.2525v-.48l-1.2525.008v-1.0425h-.5775v1.0425h-.57v.4725h.57v2.2575c0 .78.4275 1.125 1.005 1.125.315-.008.615-.1125.8925-.3z"/><path d="m112.27249 868.7316c-1.1475 0-1.9575.8175-1.9575 1.995s.8025 1.995 1.965 1.995c.66 0 1.215-.24 1.59-.66l-.3225-.345c-.3075.3225-.735.495-1.2225.495-.765 0-1.3275-.4875-1.4325-1.26h3.225c.06-1.3425-.57-2.2275-1.845-2.22zm-1.38 1.74c.09-.75.63-1.2375 1.38-1.2375.7725 0 1.2825.48 1.32 1.2375z"/><path d="m117.23667 868.7241c-.72.007-1.2525.2925-1.53.8925v-.87h-.585v3.9525h.585v-2.1225c.0675-.75.5475-1.26 1.3275-1.2675.6975 0 1.1175.4125 1.1175 1.11v2.28h.585v-2.4375c0-.9525-.555-1.5375-1.5-1.5375z"/><path d="m123.67355 867.1341h-.585v2.4675c-.2925-.5625-.84-.885-1.545-.885-1.1175 0-1.8975.8175-1.8975 2.0025 0 1.1775.78 2.01 1.905 2.01.705 0 1.245-.3225 1.5375-.8775v.8475h.585zm-2.01 5.07c-.84 0-1.4325-.615-1.4325-1.47 0-.8625.5925-1.485 1.4325-1.485.8325 0 1.425.6225 1.425 1.485 0 .855-.5925 1.47-1.425 1.47z"/><path d="m126.1912 868.7241c-.72 0-1.3725.315-1.3725 1.0725-.008 1.4025 2.205.915 2.1825 1.8675-.007.39-.3825.5625-.8475.5625s-.975-.1875-1.3125-.5025l-.225.4425c.375.36.9525.555 1.515.555.7575 0 1.4475-.345 1.4475-1.125 0-1.4175-2.205-.9675-2.205-1.845 0-.3675.3375-.525.78-.525.3675 0 .765.1275 1.0725.3225l.225-.465c-.33-.225-.7875-.36-1.26-.36z"/><path d="m129.19964 870.7716-.8025 1.26h.51l.8475-1.26-.8475-1.245h-.51zm1.155 0-.8025 1.26h.51l.8475-1.26-.8475-1.245h-.51z"/></g><path d="m219.2126 918.18903v-14.17323" fill="none" marker-end="url(#c)" stroke="#00b4f0" stroke-width="1.062992"/><g transform="matrix(.56140018 0 0 .56140018 179.80297 751.05591)"><path d="m-32.960007 221.96899h204.143677v50.49244h-204.143677z" fill="#fff" stroke="#00b4f0" stroke-width="1.893466"/><g><path d="m-17.472503 241.32814c-3.687209 0-6.555039 2.72533-6.555039 6.27004 0 3.58033 2.832205 6.34129 6.483789 6.34129 1.763448 0 3.562521-.80157 4.827216-2.04845l-1.246883-1.38939c-.944068.90845-2.226575 1.47845-3.473458 1.47845-2.493764 0-4.453151-1.94157-4.453151-4.39971s1.959387-4.3819 4.453151-4.3819c1.264695 0 2.565015.60562 3.473458 1.58532l1.22907-1.53189c-1.211257-1.19344-2.974705-1.92376-4.738153-1.92376z"/><path d="m-8.5614687 253.8504v-13.21695h-2.0484493v13.21695z"/><path d="m-4.4303355 240.4197c-.6768789 0-1.1934445.51656-1.1934445 1.24688 0 .71251.5165656 1.22907 1.1934445 1.22907.676879 0 1.1934446-.51656 1.1934446-1.22907 0-.73032-.5165656-1.24688-1.1934446-1.24688zm1.0153185 13.4307v-9.4763h-2.0306369v9.4763z"/><path d="m3.4820782 244.30285c-2.81439157 0-4.7737781 1.95938-4.7737781 4.82721 0 2.85002 1.95938653 4.79159 4.7737781 4.79159 1.7990731 0 3.1706437-.64125 4.0256487-1.76344l-1.1400067-1.14001c-.6412538.74813-1.6031344 1.14001-2.796579 1.14001-1.6387596 0-2.81439155-1.22907-2.81439155-3.02815 0-1.79907 1.17563195-3.02814 2.81439155-3.02814 1.1400067-.0178 2.0484496.39188 2.707516 1.06876l1.1221941-1.31814c-.8728177-.9975-2.208763-1.54969-3.9187731-1.54969z"/><path d="m13.39396 249.50413 2.778766 4.34627h2.422514l-3.776272-5.80691 3.509083-3.66939h-2.351264l-4.185962 4.2394v-7.98005h-2.0484493v13.21695h2.0484493v-2.65408z"/><path d="m31.201275 253.8504v-12.46882h-2.066262v8.95974l-6.679727-8.95974h-2.066262v12.46882h2.101887v-8.94192l6.644102 8.94192z"/><path d="m38.450449 244.30285c-2.93908 0-4.951904 1.94157-4.951904 4.8094 0 2.85002 2.012824 4.8094 4.951904 4.8094 2.921268 0 4.934092-1.95938 4.934092-4.8094 0-2.86783-2.012824-4.8094-4.934092-4.8094zm0 1.76344c1.692198 0 2.885642 1.24689 2.885642 3.06377 0 1.8347-1.193444 3.08158-2.885642 3.08158-1.71001 0-2.903454-1.24688-2.903454-3.08158 0-1.81688 1.193444-3.06377 2.903454-3.06377z"/><path d="m50.367081 251.67727c-.55219.26718-.997506.40968-1.425008.40968-.641254 0-1.015319-.30281-1.015319-1.2825v-4.54222h2.796579v-1.53188h-2.796579v-2.60064h-2.030637v2.60064h-1.335945v1.53188h1.335945v4.91628c0 1.94158 1.22907 2.76096 2.654079 2.76096.801567 0 1.585321-.24938 2.333451-.6947z"/><path d="m53.773745 240.4197c-.676879 0-1.193444.51656-1.193444 1.24688 0 .71251.516565 1.22907 1.193444 1.22907s1.193445-.51656 1.193445-1.22907c0-.73032-.516566-1.24688-1.193445-1.24688zm1.015319 13.4307v-9.4763h-2.030637v9.4763z"/><path d="m64.928047 242.89565c.676879 0 1.193445-.51656 1.193445-1.22907 0-.73032-.516566-1.24688-1.193445-1.24688s-1.193444.51656-1.193444 1.24688c0 .71251.516565 1.22907 1.193444 1.22907zm-6.733165 1.81689h-1.246882v1.53188h1.246882v7.60598h2.030637v-7.60598h2.475953v-1.53188h-2.475953v-1.10438c0-.92626.552191-1.2647 1.282508-1.2647.498753 0 1.086569.16031 1.63876.40969l.07125-1.78126c-.498753-.285-1.122194-.4275-1.763448-.4275-1.585322 0-3.259707.9975-3.259707 3.2597zm5.717847-.33844v9.4763h2.030637v-9.4763z"/><path d="m72.871637 244.30285c-2.814392.0178-4.791591 1.95938-4.791591 4.82721 0 2.85002 1.923761 4.79159 4.845029 4.79159 1.638759 0 2.992517-.58781 3.918773-1.60313l-1.086569-1.15782c-.694692.7125-1.63876 1.10438-2.671891 1.10438-1.496259 0-2.618453-.90844-2.93908-2.36908h7.160667c.249377-3.42002-1.104381-5.59315-4.435338-5.59315zm-2.760954 4.0969c.231564-1.51408 1.282508-2.45814 2.778766-2.45814 1.549697 0 2.565016.92625 2.636266 2.45814z"/><path d="m81.490989 244.3741h-2.04845v9.4763h2.04845v-4.9519c.160313-1.62095 1.37157-2.74314 3.277519-2.63627v-1.95938c-1.496259 0-2.636265.67688-3.277519 1.95938z"/><path d="m93.203338 245.42504v-1.58532l-7.623795 3.31314v1.79908l7.623795 3.31314v-1.58532l-6.252225-2.63627z"/><path d="m95.466374 241.38158v12.46882h5.539716c2.8144 0 4.54222-1.2825 4.54222-3.42002 0-1.67438-.99751-2.86783-2.67189-3.15283 1.35376-.32063 2.19095-1.37157 2.19095-2.77876 0-1.94158-1.60314-3.11721-4.18596-3.11721zm2.101888 1.87032h3.206268c1.33595 0 2.13751.57001 2.13751 1.62095s-.80156 1.67438-2.13751 1.67438h-3.206268zm0 5.14785h3.206268c1.63876 0 2.61845.65906 2.61845 1.76344 0 1.17564-.97969 1.81689-2.61845 1.81689h-3.206268z"/><path d="m116.50445 244.3741h-2.04844v4.6669c0 1.65657-.96189 2.92127-2.60065 2.95689-1.37157 0-2.20876-.87282-2.20876-2.29782v-5.32597h-2.04845v5.89597c0 2.2622 1.30032 3.65158 3.47346 3.65158 1.5497-.0178 2.74314-.60563 3.3844-1.92376v1.85251h2.04844z"/><path d="m124.36593 251.67727c-.55219.26718-.99751.40968-1.42501.40968-.64125 0-1.01532-.30281-1.01532-1.2825v-4.54222h2.79658v-1.53188h-2.79658v-2.60064h-2.03063v2.60064h-1.33595v1.53188h1.33595v4.91628c0 1.94158 1.22907 2.76096 2.65407 2.76096.80157 0 1.58533-.24938 2.33345-.6947z"/><path d="m131.6023 251.67727c-.55219.26718-.9975.40968-1.42501.40968-.64125 0-1.01531-.30281-1.01531-1.2825v-4.54222h2.79658v-1.53188h-2.79658v-2.60064h-2.03064v2.60064h-1.33595v1.53188h1.33595v4.91628c0 1.94158 1.22907 2.76096 2.65408 2.76096.80156 0 1.58532-.24938 2.33345-.6947z"/><path d="m137.95055 244.30285c-2.93908 0-4.9519 1.94157-4.9519 4.8094 0 2.85002 2.01282 4.8094 4.9519 4.8094 2.92127 0 4.93409-1.95938 4.93409-4.8094 0-2.86783-2.01282-4.8094-4.93409-4.8094zm0 1.76344c1.6922 0 2.88564 1.24689 2.88564 3.06377 0 1.8347-1.19344 3.08158-2.88564 3.08158-1.71001 0-2.90345-1.24688-2.90345-3.08158 0-1.81688 1.19344-3.06377 2.90345-3.06377z"/><path d="m150.56187 244.30285c-1.60313 0-2.81439.57-3.49127 1.88813v-1.81688h-2.04845v9.4763h2.04845v-5.04096c.1425-1.47845 1.1222-2.56502 2.6897-2.58283 1.42501 0 2.28002.87282 2.28002 2.29782v5.32597h2.04845v-5.89597c0-2.2622-1.31813-3.65158-3.5269-3.65158z"/><path d="m155.92542 250.5907v1.58532l7.6238-3.31315v-1.79907l-7.6238-3.31314v1.58532l6.25223 2.63626z"/></g><g><path d="m-23.198359 230.04376c-1.824 0-3.131999 1.308-3.131999 3.192 0 1.88399 1.295999 3.19199 3.131999 3.19199 1.091999 0 1.967999-.408 2.531999-1.092l-.54-.576c-.444.528-1.128.816-1.955999.816-1.308 0-2.244-.96-2.244-2.33999 0-1.38.936-2.328 2.244-2.328.767999 0 1.403999.276 1.883999.732l.516-.66c-.576-.6-1.416-.948-2.435999-.936z"/><path d="m-16.704486 230.04376c-1.872 0-3.203999 1.296-3.203999 3.18 0 1.89599 1.331999 3.20399 3.203999 3.20399 1.871999 0 3.203999-1.308 3.203999-3.20399 0-1.884-1.332-3.18-3.203999-3.18zm0 .852c1.319999 0 2.267999.96 2.267999 2.34 0 1.39199-.948 2.35199-2.267999 2.35199-1.32 0-2.268-.96-2.268-2.35199 0-1.38.948-2.34 2.268-2.34z"/><path d="m-3.76624 230.03176c-1.2119996.012-2.0999993.54-2.4959992 1.656-.2639999-1.044-1.0799996-1.656-2.2679993-1.656-1.1399996.012-1.9919995.48-2.4119995 1.464v-1.428h-.923999v6.32399h.923999v-3.10799c0-1.356.78-2.292 2.0759997-2.328 1.1039996 0 1.7519994.66 1.7519994 1.788v3.64799h.9479997v-3.10799c0-1.356.7559998-2.292 2.0639993-2.328 1.0919997 0 1.7519995.66 1.7519995 1.788v3.64799h.9359997v-3.89999c0-1.524-.8759997-2.46-2.3519993-2.46z"/><path d="m.73282127 235.23975c-.33599989 0-.58799981.264-.58799981.624s.25199992.624.58799981.624c.32399993 0 .57599983-.264.57599983-.624s-.2519999-.624-.57599983-.624z"/><path d="m5.4514436 236.39175 2.4839992-6.32399h-.9479997l-2.0039993 5.35199-2.0159994-5.35199h-.9959997l2.5079992 6.32399z"/><path d="m12.799941 236.39175h.912l-.012-4.17599c-.012-1.356-.876-2.184-2.435999-2.184-1.08 0-1.7639997.312-2.5799995.852l.3959999.684c.6599998-.456 1.3079996-.72 2.0039996-.72 1.115999 0 1.691999.552 1.691999 1.476v.372h-2.075999c-1.4879996.012-2.3639994.708-2.3639994 1.81199 0 1.092.8399998 1.932 2.1479994 1.932 1.008 0 1.811999-.336 2.315999-1.02zm-2.135999-.768c-.8879998 0-1.4519996-.456-1.4519996-1.152s.5519998-1.01999 1.6079996-1.01999h1.967999v.75599c-.24.876-1.055999 1.416-2.123999 1.416z"/><path d="m19.714004 236.39175h.911999l-.012-4.17599c-.012-1.356-.875999-2.184-2.435999-2.184-1.079999 0-1.763999.312-2.579999.852l.396.684c.66-.456 1.307999-.72 2.003999-.72 1.116 0 1.692.552 1.692 1.476v.372h-2.076c-1.487999.012-2.363999.708-2.363999 1.81199 0 1.092.84 1.932 2.147999 1.932 1.008 0 1.812-.336 2.316-1.02zm-2.136-.768c-.887999 0-1.451999-.456-1.451999-1.152s.552-1.01999 1.607999-1.01999h1.968v.75599c-.24.876-1.056 1.416-2.124 1.416z"/><path d="m28.512062 227.48776h-.936v3.948c-.468-.9-1.343999-1.416-2.471999-1.416-1.788 0-3.035999 1.308-3.035999 3.204 0 1.88399 1.247999 3.21599 3.047999 3.21599 1.128 0 1.991999-.516 2.459999-1.404v1.356h.936zm-3.215999 8.11199c-1.344 0-2.291999-.984-2.291999-2.35199 0-1.38.947999-2.376 2.291999-2.376 1.331999 0 2.279999.996 2.279999 2.376 0 1.36799-.948 2.35199-2.279999 2.35199z"/><path d="m31.31631 227.60776c-.348 0-.612.276-.612.648s.264.648.612.648.612-.276.612-.648-.264-.648-.612-.648zm.468 8.78399v-6.32399h-.924v6.32399z"/><path d="m37.455246 230.03176c-1.151999.012-2.003999.468-2.447999 1.428v-1.392h-.936v6.32399h.936v-3.39599c.108-1.2.876-2.016 2.123999-2.028 1.116 0 1.788.66 1.788 1.776v3.64799h.936v-3.89999c0-1.524-.888-2.46-2.4-2.46z"/><path d="m42.006244 235.23975c-.336 0-.588.264-.588.624s.252.624.588.624c.323999 0 .575999-.264.575999-.624s-.252-.624-.575999-.624z"/><path d="m44.528868 230.22376h-.815999v.756h.815999v5.41199h.924v-5.41199h1.812v-.756h-1.812v-.684c0-.78.552-1.344 1.272-1.332.324.012.672.132.959999.336l.024-.876c-.311999-.18-.743999-.288-1.151999-.3-1.164-.012-2.028.852-2.028 2.04zm4.787999-2.736h-.936v8.90399h.936z"/><path d="m54.217368 230.04376c-1.872 0-3.203999 1.296-3.203999 3.18 0 1.89599 1.331999 3.20399 3.203999 3.20399 1.871999 0 3.203999-1.308 3.203999-3.20399 0-1.884-1.332-3.18-3.203999-3.18zm0 .852c1.319999 0 2.267999.96 2.267999 2.34 0 1.39199-.948 2.35199-2.267999 2.35199-1.32 0-2.268-.96-2.268-2.35199 0-1.38.948-2.34 2.268-2.34z"/><path d="m65.768671 236.39175 2.339999-6.32399h-.971999l-1.848 5.35199-1.859999-5.35199h-.984l-1.835999 5.35199-1.872-5.35199h-.983999l2.363999 6.32399h.972l1.847999-5.13599 1.86 5.13599z"/><path d="m69.076548 235.23975c-.336 0-.587999.264-.587999.624s.251999.624.587999.624c.324 0 .576-.264.576-.624s-.252-.624-.576-.624z"/><path d="m73.903173 230.04376c-1.824 0-3.131999 1.308-3.131999 3.192 0 1.88399 1.295999 3.19199 3.131999 3.19199 1.091999 0 1.967999-.408 2.531999-1.092l-.54-.576c-.444.528-1.128.816-1.955999.816-1.308 0-2.244-.96-2.244-2.33999 0-1.38.936-2.328 2.244-2.328.767999 0 1.403999.276 1.883999.732l.516-.66c-.576-.6-1.416-.948-2.435999-.936z"/><path d="m80.397048 230.04376c-1.872 0-3.203999 1.296-3.203999 3.18 0 1.89599 1.331999 3.20399 3.203999 3.20399 1.871999 0 3.203999-1.308 3.203999-3.20399 0-1.884-1.332-3.18-3.203999-3.18zm0 .852c1.319999 0 2.267999.96 2.267999 2.34 0 1.39199-.948 2.35199-2.267999 2.35199-1.32 0-2.268-.96-2.268-2.35199 0-1.38.948-2.34 2.268-2.34z"/><path d="m93.335288 230.03176c-1.211999.012-2.099999.54-2.495999 1.656-.264-1.044-1.08-1.656-2.267999-1.656-1.14.012-1.992.48-2.412 1.464v-1.428h-.923999v6.32399h.923999v-3.10799c0-1.356.78-2.292 2.076-2.328 1.103999 0 1.751999.66 1.751999 1.788v3.64799h.948v-3.10799c0-1.356.756-2.292 2.063999-2.328 1.092 0 1.752.66 1.752 1.788v3.64799h.935999v-3.89999c0-1.524-.875999-2.46-2.351999-2.46z"/><path d="m101.20635 230.03176c-1.104 0-1.967997.516-2.435997 1.404v-1.368h-.936v8.65199h.936v-3.684c.468.876 1.331997 1.392 2.459997 1.392 1.788 0 3.012-1.308 3.012-3.17999 0-1.896-1.248-3.216-3.036-3.216zm-.168 5.54399c-1.331997 0-2.267997-.972-2.267997-2.35199 0-1.368.936-2.352 2.267997-2.352 1.32 0 2.256.996 2.256 2.352 0 1.36799-.936 2.35199-2.256 2.35199z"/><path d="m108.45172 230.04376c-1.872 0-3.204 1.296-3.204 3.18 0 1.89599 1.332 3.20399 3.204 3.20399s3.204-1.308 3.204-3.20399c0-1.884-1.332-3.18-3.204-3.18zm0 .852c1.32 0 2.268.96 2.268 2.34 0 1.39199-.948 2.35199-2.268 2.35199s-2.268-.96-2.268-2.35199c0-1.38.948-2.34 2.268-2.34z"/><path d="m116.67397 230.03176c-1.152.012-2.004.468-2.448 1.428v-1.392h-.936v6.32399h.936v-3.39599c.108-1.2.876-2.016 2.124-2.028 1.116 0 1.788.66 1.788 1.776v3.64799h.936v-3.89999c0-1.524-.888-2.46-2.4-2.46z"/><path d="m123.66097 230.04376c-1.836 0-3.132 1.308-3.132 3.192 0 1.88399 1.284 3.19199 3.144 3.19199 1.056 0 1.944-.384 2.544-1.056l-.516-.552c-.492.516-1.176.792-1.956.792-1.224 0-2.124-.78-2.292-2.01599h5.16c.096-2.148-.912-3.564-2.952-3.552zm-2.208 2.784c.144-1.2 1.008-1.98 2.208-1.98 1.236 0 2.052.768 2.112 1.98z"/><path d="m131.60366 230.03176c-1.152.012-2.004.468-2.448 1.428v-1.392h-.936v6.32399h.936v-3.39599c.108-1.2.876-2.016 2.124-2.028 1.116 0 1.788.66 1.788 1.776v3.64799h.936v-3.89999c0-1.524-.888-2.46-2.4-2.46z"/><path d="m139.09466 235.20375c-.348.216-.684.324-1.008.324-.54 0-.84-.288-.84-1.056v-3.44399h2.004v-.768l-2.004.012v-1.668h-.924v1.668h-.912v.756h.912v3.61199c0 1.248.684 1.8 1.608 1.8.504-.012.984-.18 1.428-.48z"/></g><g><path d="m56.024295 267.94952h1.015319l-.01336-4.64909c-.01336-1.50961-.97524-2.43142-2.711969-2.43142-1.202351 0-1.96384.34735-2.872283.94852l.440862.76149c.73477-.50766 1.456181-.80156 2.231029-.80156 1.242429 0 1.883683.61453 1.883683 1.64321v.41414h-2.311185c-1.656573.0134-2.631813.78821-2.631813 2.01728 0 1.21571.935162 2.15087 2.391342 2.15087 1.122195 0 2.017278-.37406 2.578375-1.13555zm-2.377983-.855c-.988599 0-1.616494-.50766-1.616494-1.28251s.614535-1.13555 1.790167-1.13555h2.190951v.84164c-.26719.97524-1.175632 1.57642-2.364624 1.57642z"/><path d="m65.819071 258.03681h-1.042037v4.39526c-.521019-1.00196-1.496259-1.57642-2.752048-1.57642-1.990558 0-3.379942 1.45618-3.379942 3.56698 0 2.09743 1.389384 3.58033 3.393302 3.58033 1.255788 0 2.217669-.57445 2.738688-1.56305v1.50961h1.042037zm-3.580333 9.03099c-1.496259 0-2.551656-1.09548-2.551656-2.61845 0-1.53634 1.055397-2.64517 2.551656-2.64517 1.482899 0 2.538296 1.10883 2.538296 2.64517 0 1.52297-1.055397 2.61845-2.538296 2.61845z"/><path d="m74.899325 258.03681h-1.042038v4.39526c-.521018-1.00196-1.496258-1.57642-2.752047-1.57642-1.990559 0-3.379942 1.45618-3.379942 3.56698 0 2.09743 1.389383 3.58033 3.393301 3.58033 1.255789 0 2.21767-.57445 2.738688-1.56305v1.50961h1.042038zm-3.580334 9.03099c-1.496259 0-2.551656-1.09548-2.551656-2.61845 0-1.53634 1.055397-2.64517 2.551656-2.64517 1.4829 0 2.538296 1.10883 2.538296 2.64517 0 1.52297-1.055396 2.61845-2.538296 2.61845z"/><path d="m81.655033 258.57119c-2.711969 0-4.8762 2.07071-4.8762 4.68917 0 2.64517 2.137512 4.7426 4.836122 4.7426 1.295867 0 2.551656-.57445 3.473458-1.44282l-.654613-.73477c-.73477.69469-1.736729 1.12219-2.765407 1.12219-2.110794 0-3.807445-1.64321-3.807445-3.6872 0-2.05736 1.696651-3.68721 3.807445-3.68721 1.028678 0 2.043996.44086 2.765407 1.17563l.641254-.81493c-.895084-.84164-2.137513-1.36266-3.420021-1.36266z"/><path d="m87.963616 267.94952v-9.91271h-1.042037v9.91271z"/><path d="m91.067603 258.1704c-.387424 0-.681332.30727-.681332.72141 0 .41415.293908.72141.681332.72141s.681332-.30726.681332-.72141c0-.41414-.293908-.72141-.681332-.72141zm.521019 9.77912v-7.04043h-1.028678v7.04043z"/><path d="m96.913409 260.88237c-2.030637 0-3.486817 1.45618-3.486817 3.55362 0 2.09743 1.442821 3.55361 3.486817 3.55361 1.215711 0 2.190951-.45422 2.818845-1.21571l-.601175-.64125c-.4943.58781-1.255789.90844-2.177591.90844-1.456181 0-2.498218-1.06876-2.498218-2.60509 0-1.53634 1.042037-2.59174 2.498218-2.59174.855005 0 1.563056.30727 2.097434.81493l.574457-.73477c-.641254-.66797-1.576416-1.0554-2.71197-1.04204z"/><path d="m104.21497 264.39591 2.40471 3.55361h1.24243l-2.91237-4.3151 2.63182-2.72533h-1.22907l-3.62041 3.60705v-6.47933h-1.04204v9.91271h1.04204v-2.01727z"/><path d="m110.48411 266.93421v-8.3363h-1.06876v9.35161h5.17011v-1.01531z"/><path d="m116.69062 258.1704c-.38742 0-.68133.30727-.68133.72141 0 .41415.29391.72141.68133.72141s.68133-.30726.68133-.72141c0-.41414-.29391-.72141-.68133-.72141zm.52102 9.77912v-7.04043h-1.02868v7.04043z"/><path d="m121.62798 260.86901c-1.2825 0-2.44478.5611-2.44478 1.91041-.0134 2.49821 3.92768 1.62985 3.8876 3.3265-.0134.69469-.68133 1.00196-1.50961 1.00196-.82829 0-1.73673-.33399-2.33791-.89509l-.40078.78821c.66797.64126 1.69665.9886 2.69861.9886 1.3493 0 2.57837-.61453 2.57837-2.00392 0-2.52493-3.92768-1.72337-3.92768-3.28642 0-.65461.60118-.93516 1.38939-.93516.65461 0 1.36266.22711 1.9104.57445l.40078-.82828c-.58781-.40079-1.40274-.64126-2.24439-.64126z"/><path d="m129.15103 266.62694c-.38743.24047-.76149.3607-1.1222.3607-.60117 0-.93516-.32062-.93516-1.17563v-3.83416h2.23103v-.85501l-2.23103.0134v-1.85696h-1.02868v1.85696h-1.01531v.84165h1.01531v4.02119c0 1.38939.76149 2.00392 1.79017 2.00392.5611-.0134 1.09548-.20039 1.58978-.53438z"/><path d="m133.7041 260.88237c-2.044 0-3.48682 1.45618-3.48682 3.55362 0 2.09743 1.42946 3.55361 3.50018 3.55361 1.17563 0 2.16423-.4275 2.8322-1.17563l-.57446-.61453c-.54773.57445-1.30922.88172-2.17759.88172-1.36266 0-2.36462-.86837-2.55165-2.24439h5.74456c.10688-2.39134-1.01532-3.96776-3.28642-3.9544zm-2.45814 3.0994c.16031-1.33595 1.12219-2.20431 2.45814-2.20431 1.37602 0 2.28446.855 2.35126 2.20431z"/><path d="m142.54659 260.86901c-1.2825.0134-2.23103.52102-2.72532 1.58978v-1.5497h-1.04204v7.04043h1.04204v-3.78072c.12023-1.33595.97524-2.24439 2.36462-2.25775 1.24243 0 1.99056.73477 1.99056 1.9772v4.06127h1.04203v-4.34182c0-1.69665-.9886-2.73869-2.67189-2.73869z"/><path d="m150.32513 260.88237c-2.044 0-3.48682 1.45618-3.48682 3.55362 0 2.09743 1.42946 3.55361 3.50018 3.55361 1.17563 0 2.16423-.4275 2.8322-1.17563l-.57445-.61453c-.54774.57445-1.30923.88172-2.17759.88172-1.36267 0-2.36463-.86837-2.55166-2.24439h5.74457c.10687-2.39134-1.01532-3.96776-3.28643-3.9544zm-2.45814 3.0994c.16031-1.33595 1.12219-2.20431 2.45814-2.20431 1.37602 0 2.28447.855 2.35126 2.20431z"/><path d="m156.4423 260.90909h-1.04204v7.04043h1.04204v-3.74064c.12023-1.38939 1.04204-2.31119 2.52493-2.28447v-1.0554c-1.18899.0134-2.05735.57446-2.52493 1.60314z"/><path d="m161.84077 258.03681c-1.02868 1.50962-1.58977 3.55361-1.58977 5.78464s.56109 4.28839 1.58977 5.78465h.94852c-.97524-1.49626-1.54969-3.55362-1.54969-5.78465s.57445-4.27502 1.54969-5.78464z"/><path d="m164.30873 258.03681c.97524 1.50962 1.54969 3.55361 1.54969 5.78464s-.57445 4.28839-1.54969 5.78465h.94852c1.02868-1.49626 1.58977-3.55362 1.58977-5.78465s-.56109-4.27502-1.58977-5.78464z"/></g></g><path d="m164.17337 889.52362a2.8741407 2.8741407 0 0 1 -2.87415 2.87414 2.8741407 2.8741407 0 0 1 -2.87414-2.87414 2.8741407 2.8741407 0 0 1 2.87414-2.87414 2.8741407 2.8741407 0 0 1 2.87415 2.87414z" fill="#00b6f3"/></g></svg>