<svg fill="none" height="1623" viewBox="0 0 2095 1623" width="2095" xmlns="http://www.w3.org/2000/svg" xmlns:xlink="http://www.w3.org/1999/xlink"><clipPath id="a"><path d="m70 1547h108v25h-108z"/></clipPath><path d="m0 0h2095v1623h-2095z" fill="#fff"/><path d="m0 0h2095v1623h-2095z" fill="#f0f3f7"/><path d="m87 68h1922v269h-1922z" stroke="#000" stroke-width="2"/><path d="m87 496h1922v996h-1922z" stroke="#000" stroke-width="2"/><path d="m859.757 417h2.31l-6.996-15.4h-2.178l-6.974 15.4h2.266l1.694-3.85h8.184zm-9.108-5.61 3.322-7.546 3.322 7.546zm21.949-6.05v6.028c0 2.508-1.408 3.872-3.608 3.872-2.002 0-3.146-1.144-3.146-3.432v-6.468h-2.112v6.71c0 3.432 2.002 5.082 5.016 5.082 1.65 0 3.102-.682 3.96-1.892v1.76h2.002v-11.66zm12.029 9.46c-.44.352-1.034.55-1.65.55-1.166 0-1.826-.704-1.826-1.958v-6.314h3.344v-1.738h-3.344v-2.552h-2.112v2.552h-1.98v1.738h1.98v6.402c0 2.354 1.342 3.652 3.696 3.652.946 0 1.914-.264 2.552-.814zm7.82 2.332c3.498 0 6.05-2.486 6.05-5.962s-2.552-5.94-6.05-5.94-6.072 2.464-6.072 5.94 2.574 5.962 6.072 5.962zm0-1.848c-2.244 0-3.938-1.628-3.938-4.114s1.694-4.092 3.938-4.092 3.916 1.606 3.916 4.092-1.672 4.114-3.916 4.114zm23.557-10.054c-1.98 0-3.608.836-4.488 2.156-.77-1.452-2.266-2.156-4.048-2.156-1.76 0-3.19.66-4.026 1.848v-1.738h-2.024v11.66h2.112v-6.006c0-2.53 1.386-3.872 3.498-3.872 1.914 0 3.014 1.122 3.014 3.41v6.468h2.112v-6.006c0-2.53 1.386-3.872 3.498-3.872 1.914 0 3.014 1.122 3.014 3.41v6.468h2.112v-6.71c0-3.432-1.936-5.06-4.774-5.06zm12.906 0c-1.87 0-3.608.528-4.818 1.496l.88 1.584c.902-.77 2.31-1.254 3.696-1.254 2.09 0 3.124 1.034 3.124 2.816v.418h-3.344c-3.476 0-4.686 1.54-4.686 3.41 0 2.024 1.672 3.432 4.312 3.432 1.826 0 3.124-.616 3.828-1.672v1.54h2.002v-7.04c0-3.19-1.804-4.73-4.994-4.73zm-.484 10.274c-1.606 0-2.574-.726-2.574-1.892 0-.99.594-1.804 2.684-1.804h3.256v1.628c-.528 1.342-1.782 2.068-3.366 2.068zm15.283-.704c-.44.352-1.034.55-1.65.55-1.166 0-1.826-.704-1.826-1.958v-6.314h3.344v-1.738h-3.344v-2.552h-2.112v2.552h-1.98v1.738h1.98v6.402c0 2.354 1.342 3.652 3.696 3.652.946 0 1.914-.264 2.552-.814zm13.364-3.564c0-3.586-2.398-6.006-5.764-6.006s-5.852 2.486-5.852 5.94c0 3.476 2.508 5.962 6.27 5.962 1.936 0 3.542-.66 4.598-1.892l-1.166-1.364c-.858.946-2.002 1.408-3.366 1.408-2.31 0-3.96-1.364-4.224-3.41h9.46c.022-.198.044-.462.044-.638zm-5.764-4.224c2.046 0 3.52 1.386 3.74 3.344h-7.48c.22-1.98 1.716-3.344 3.74-3.344zm17.585-6.336v6.424c-.968-1.254-2.42-1.87-4.07-1.87-3.41 0-5.896 2.376-5.896 5.94s2.486 5.962 5.896 5.962c1.716 0 3.212-.66 4.158-1.98v1.848h2.024v-16.324zm-3.894 14.608c-2.244 0-3.938-1.628-3.938-4.114s1.694-4.092 3.938-4.092c2.222 0 3.916 1.606 3.916 4.092s-1.694 4.114-3.916 4.114zm-163.687 31.848c2.09 0 3.828-.88 4.752-2.508l-1.606-1.012c-.748 1.144-1.892 1.672-3.168 1.672-2.288 0-4.004-1.584-4.004-4.114 0-2.486 1.716-4.092 4.004-4.092 1.276 0 2.42.528 3.168 1.672l1.606-1.034c-.924-1.628-2.662-2.486-4.752-2.486-3.586 0-6.16 2.464-6.16 5.94s2.574 5.962 6.16 5.962zm12.308 0c3.498 0 6.05-2.486 6.05-5.962s-2.552-5.94-6.05-5.94-6.072 2.464-6.072 5.94 2.574 5.962 6.072 5.962zm0-1.848c-2.244 0-3.938-1.628-3.938-4.114s1.694-4.092 3.938-4.092 3.916 1.606 3.916 4.092-1.672 4.114-3.916 4.114zm23.557-10.054c-1.98 0-3.608.836-4.488 2.156-.77-1.452-2.266-2.156-4.048-2.156-1.76 0-3.19.66-4.026 1.848v-1.738h-2.024v11.66h2.112v-6.006c0-2.53 1.386-3.872 3.498-3.872 1.914 0 3.014 1.122 3.014 3.41v6.468h2.112v-6.006c0-2.53 1.386-3.872 3.498-3.872 1.914 0 3.014 1.122 3.014 3.41v6.468h2.112v-6.71c0-3.432-1.936-5.06-4.774-5.06zm23.246 0c-1.98 0-3.608.836-4.488 2.156-.77-1.452-2.266-2.156-4.048-2.156-1.76 0-3.19.66-4.026 1.848v-1.738h-2.024v11.66h2.112v-6.006c0-2.53 1.386-3.872 3.498-3.872 1.914 0 3.014 1.122 3.014 3.41v6.468h2.112v-6.006c0-2.53 1.386-3.872 3.498-3.872 1.914 0 3.014 1.122 3.014 3.41v6.468h2.112v-6.71c0-3.432-1.936-5.06-4.774-5.06zm17.416.11v6.028c0 2.508-1.408 3.872-3.608 3.872-2.002 0-3.146-1.144-3.146-3.432v-6.468h-2.112v6.71c0 3.432 2.002 5.082 5.016 5.082 1.65 0 3.102-.682 3.96-1.892v1.76h2.002v-11.66zm12.359-.11c-1.848 0-3.344.682-4.202 1.87v-1.76h-2.024v11.66h2.112v-6.006c0-2.53 1.452-3.872 3.696-3.872 2.002 0 3.146 1.122 3.146 3.41v6.468h2.112v-6.71c0-3.432-2.002-5.06-4.84-5.06zm9.804-2.134c.836 0 1.43-.616 1.43-1.408 0-.748-.616-1.342-1.43-1.342s-1.43.616-1.43 1.386.616 1.364 1.43 1.364zm-1.056 13.904h2.112v-11.66h-2.112zm11.227.132c2.09 0 3.828-.88 4.752-2.508l-1.606-1.012c-.748 1.144-1.892 1.672-3.168 1.672-2.288 0-4.004-1.584-4.004-4.114 0-2.486 1.716-4.092 4.004-4.092 1.276 0 2.42.528 3.168 1.672l1.606-1.034c-.924-1.628-2.662-2.486-4.752-2.486-3.586 0-6.16 2.464-6.16 5.94s2.574 5.962 6.16 5.962zm11.732-11.902c-1.87 0-3.608.528-4.818 1.496l.88 1.584c.902-.77 2.31-1.254 3.696-1.254 2.09 0 3.124 1.034 3.124 2.816v.418h-3.344c-3.476 0-4.686 1.54-4.686 3.41 0 2.024 1.672 3.432 4.312 3.432 1.826 0 3.124-.616 3.828-1.672v1.54h2.002v-7.04c0-3.19-1.804-4.73-4.994-4.73zm-.484 10.274c-1.606 0-2.574-.726-2.574-1.892 0-.99.594-1.804 2.684-1.804h3.256v1.628c-.528 1.342-1.782 2.068-3.366 2.068zm15.283-.704c-.44.352-1.034.55-1.65.55-1.166 0-1.826-.704-1.826-1.958v-6.314h3.344v-1.738h-3.344v-2.552h-2.112v2.552h-1.98v1.738h1.98v6.402c0 2.354 1.342 3.652 3.696 3.652.946 0 1.914-.264 2.552-.814zm4.269-11.704c.836 0 1.43-.616 1.43-1.408 0-.748-.616-1.342-1.43-1.342s-1.43.616-1.43 1.386.616 1.364 1.43 1.364zm-1.056 13.904h2.112v-11.66h-2.112zm11.139.132c3.498 0 6.05-2.486 6.05-5.962s-2.552-5.94-6.05-5.94-6.072 2.464-6.072 5.94 2.574 5.962 6.072 5.962zm0-1.848c-2.244 0-3.938-1.628-3.938-4.114s1.694-4.092 3.938-4.092 3.916 1.606 3.916 4.092-1.672 4.114-3.916 4.114zm15.196-10.054c-1.848 0-3.344.682-4.202 1.87v-1.76h-2.024v11.66h2.112v-6.006c0-2.53 1.452-3.872 3.696-3.872 2.002 0 3.146 1.122 3.146 3.41v6.468h2.112v-6.71c0-3.432-2.002-5.06-4.84-5.06z" fill="#000"/><path d="m1121.52 417-5.83-7.964 5.43-7.436h-2.39l-4.27 5.918-4.31-5.918h-2.51l5.43 7.502-5.78 7.898h2.53l4.55-6.358 4.62 6.358zm13.12-15.4v6.622h-8.84v-6.622h-2.2v15.4h2.2v-6.864h8.84v6.864h2.2v-15.4zm19.5 15.4-3.65-5.17c2.16-.77 3.39-2.486 3.39-4.862 0-3.344-2.42-5.368-6.42-5.368h-6.01v15.4h2.2v-4.686h3.81c.33 0 .66-.022.96-.044l3.33 4.73zm-6.75-6.556h-3.74v-6.93h3.74c2.82 0 4.29 1.254 4.29 3.454s-1.47 3.476-4.29 3.476zm20.64 6.688c3.5 0 6.05-2.486 6.05-5.962s-2.55-5.94-6.05-5.94-6.07 2.464-6.07 5.94 2.57 5.962 6.07 5.962zm0-1.848c-2.24 0-3.94-1.628-3.94-4.114s1.7-4.092 3.94-4.092 3.92 1.606 3.92 4.092-1.68 4.114-3.92 4.114zm10.99-7.986v-1.958h-2.02v11.66h2.11v-5.808c0-2.552 1.41-3.938 3.68-3.938.15 0 .3 0 .48.022v-2.046c-2.05 0-3.5.704-4.25 2.068zm32.89-5.698-4.25 12.584-4.24-12.584h-2.03l-4.33 12.518-4.16-12.518h-2.27l5.15 15.4h2.36l4.2-12.298 4.2 12.298h2.31l5.15-15.4zm14.13 9.636c0-3.586-2.4-6.006-5.77-6.006-3.36 0-5.85 2.486-5.85 5.94 0 3.476 2.51 5.962 6.27 5.962 1.94 0 3.54-.66 4.6-1.892l-1.17-1.364c-.85.946-2 1.408-3.36 1.408-2.31 0-3.96-1.364-4.23-3.41h9.46c.03-.198.05-.462.05-.638zm-5.77-4.224c2.05 0 3.52 1.386 3.74 3.344h-7.48c.22-1.98 1.72-3.344 3.74-3.344zm14.88-1.782c-1.65 0-3.1.616-4.07 1.87v-6.424h-2.11v16.324h2.02v-1.848c.95 1.32 2.45 1.98 4.16 1.98 3.41 0 5.9-2.398 5.9-5.962s-2.49-5.94-5.9-5.94zm-.17 10.054c-2.23 0-3.92-1.628-3.92-4.114s1.69-4.092 3.92-4.092c2.24 0 3.93 1.606 3.93 4.092s-1.69 4.114-3.93 4.114zm-118.78 31.892c2.39 0 4.46-.836 5.87-2.42l-1.43-1.386c-1.19 1.254-2.64 1.848-4.33 1.848-3.48 0-6.05-2.508-6.05-5.918s2.57-5.918 6.05-5.918c1.69 0 3.14.572 4.33 1.826l1.43-1.386c-1.41-1.584-3.48-2.398-5.85-2.398-4.69 0-8.16 3.322-8.16 7.876s3.47 7.876 8.14 7.876zm13.2-.044c3.5 0 6.05-2.486 6.05-5.962s-2.55-5.94-6.05-5.94-6.07 2.464-6.07 5.94 2.57 5.962 6.07 5.962zm0-1.848c-2.24 0-3.94-1.628-3.94-4.114s1.7-4.092 3.94-4.092 3.92 1.606 3.92 4.092-1.68 4.114-3.92 4.114zm15.2-10.054c-1.85 0-3.35.682-4.2 1.87v-1.76h-2.03v11.66h2.11v-6.006c0-2.53 1.46-3.872 3.7-3.872 2 0 3.15 1.122 3.15 3.41v6.468h2.11v-6.71c0-3.432-2-5.06-4.84-5.06zm14.97 0c-1.85 0-3.34.682-4.2 1.87v-1.76h-2.02v11.66h2.11v-6.006c0-2.53 1.45-3.872 3.69-3.872 2.01 0 3.15 1.122 3.15 3.41v6.468h2.11v-6.71c0-3.432-2-5.06-4.84-5.06zm19.35 6.006c0-3.586-2.4-6.006-5.76-6.006-3.37 0-5.85 2.486-5.85 5.94 0 3.476 2.5 5.962 6.27 5.962 1.93 0 3.54-.66 4.59-1.892l-1.16-1.364c-.86.946-2 1.408-3.37 1.408-2.31 0-3.96-1.364-4.22-3.41h9.46c.02-.198.04-.462.04-.638zm-5.76-4.224c2.04 0 3.52 1.386 3.74 3.344h-7.48c.22-1.98 1.71-3.344 3.74-3.344zm13.78 10.12c2.09 0 3.83-.88 4.75-2.508l-1.61-1.012c-.74 1.144-1.89 1.672-3.16 1.672-2.29 0-4.01-1.584-4.01-4.114 0-2.486 1.72-4.092 4.01-4.092 1.27 0 2.42.528 3.16 1.672l1.61-1.034c-.92-1.628-2.66-2.486-4.75-2.486-3.59 0-6.16 2.464-6.16 5.94s2.57 5.962 6.16 5.962zm13.53-2.332c-.44.352-1.03.55-1.65.55-1.17 0-1.83-.704-1.83-1.958v-6.314h3.35v-1.738h-3.35v-2.552h-2.11v2.552h-1.98v1.738h1.98v6.402c0 2.354 1.34 3.652 3.7 3.652.94 0 1.91-.264 2.55-.814zm4.27-11.704c.84 0 1.43-.616 1.43-1.408 0-.748-.62-1.342-1.43-1.342s-1.43.616-1.43 1.386.62 1.364 1.43 1.364zm-1.06 13.904h2.12v-11.66h-2.12zm11.14.132c3.5 0 6.05-2.486 6.05-5.962s-2.55-5.94-6.05-5.94-6.07 2.464-6.07 5.94 2.57 5.962 6.07 5.962zm0-1.848c-2.24 0-3.94-1.628-3.94-4.114s1.7-4.092 3.94-4.092c2.25 0 3.92 1.606 3.92 4.092s-1.67 4.114-3.92 4.114zm15.2-10.054c-1.85 0-3.34.682-4.2 1.87v-1.76h-2.03v11.66h2.12v-6.006c0-2.53 1.45-3.872 3.69-3.872 2 0 3.15 1.122 3.15 3.41v6.468h2.11v-6.71c0-3.432-2-5.06-4.84-5.06z" fill="#000"/><path d="m127.5 589.5h1842v463h-1842z" fill="#fafbfc" stroke="#000" stroke-width="3"/><path d="m1376 154h553v685h-553z" stroke="#73808d" stroke-dasharray="8 8" stroke-linecap="round"/><path d="m776 154h555v685h-555z" stroke="#73808d" stroke-dasharray="8 8" stroke-linecap="round"/><path d="m175 154h554v685h-554z" stroke="#73808d" stroke-dasharray="8 8" stroke-linecap="round"/><path d="m1400 177h498v102h-498z" fill="#fff" stroke="#2d3033" stroke-width="2"/><path d="m798 177h497v102h-497z" fill="#fff" stroke="#2d3033" stroke-width="2"/><path d="m196 177h497v102h-497z" fill="#fff" stroke="#2d3033" stroke-width="2"/><path d="m329.434 223.5-4.825 14.3-4.825-14.3h-2.3l-4.925 14.225-4.725-14.225h-2.575l5.85 17.5h2.675l4.775-13.975 4.775 13.975h2.625l5.85-17.5zm9.433 15.325v-5.65h8.775v-2.125h-8.775v-5.375h9.85v-2.175h-12.35v17.5h12.7v-2.175zm27.523-6.9c1.375-.675 2.35-2 2.35-3.9 0-2.825-2.25-4.525-6.275-4.525h-7.85v17.5h8.35c4.425 0 6.7-1.725 6.7-4.725 0-2.325-1.3-3.8-3.275-4.35zm-4.15-6.4c2.55 0 4 .95 4 2.8s-1.45 2.8-4 2.8h-5.125v-5.6zm.625 13.45h-5.75v-5.825h5.75c2.775 0 4.275.9 4.275 2.925s-1.5 2.9-4.275 2.9zm28.21 2.225c2.725 0 5.075-.95 6.675-2.75l-1.625-1.575c-1.35 1.425-3 2.1-4.925 2.1-3.95 0-6.875-2.85-6.875-6.725s2.925-6.725 6.875-6.725c1.925 0 3.575.65 4.925 2.075l1.625-1.575c-1.6-1.8-3.95-2.725-6.65-2.725-5.325 0-9.275 3.775-9.275 8.95s3.95 8.95 9.25 8.95zm19.275 0c5.325 0 9.275-3.8 9.275-8.95s-3.95-8.95-9.275-8.95c-5.375 0-9.325 3.825-9.325 8.95s3.95 8.95 9.325 8.95zm0-2.225c-3.925 0-6.825-2.85-6.825-6.725s2.9-6.725 6.825-6.725c3.875 0 6.775 2.85 6.775 6.725s-2.9 6.725-6.775 6.725zm33.221 2.025-.025-17.5h-2.05l-7.2 12.3-7.3-12.3h-2.05v17.5h2.4v-12.675l6.325 10.55h1.15l6.325-10.625.025 12.75zm13.577-17.5h-6.825v17.5h2.5v-5.3h4.325c4.55 0 7.3-2.3 7.3-6.1s-2.75-6.1-7.3-6.1zm-.075 10.025h-4.25v-7.85h4.25c3.2 0 4.875 1.425 4.875 3.925s-1.675 3.925-4.875 3.925zm20.692 7.675c5.325 0 9.275-3.8 9.275-8.95s-3.95-8.95-9.275-8.95c-5.375 0-9.325 3.825-9.325 8.95s3.95 8.95 9.325 8.95zm0-2.225c-3.925 0-6.825-2.85-6.825-6.725s2.9-6.725 6.825-6.725c3.875 0 6.775 2.85 6.775 6.725s-2.9 6.725-6.775 6.725zm27.146-15.475v13.05l-10.5-13.05h-2.05v17.5h2.5v-13.05l10.5 13.05h2.05v-17.5zm11.738 15.325v-5.65h8.775v-2.125h-8.775v-5.375h9.85v-2.175h-12.35v17.5h12.7v-2.175zm28.298-15.325v13.05l-10.5-13.05h-2.05v17.5h2.5v-13.05l10.5 13.05h2.05v-17.5zm12.714 17.5h2.475v-15.325h6v-2.175h-14.475v2.175h6zm17.578.2c4.625 0 6.775-2.3 6.775-4.975 0-6.425-10.6-3.75-10.6-8.025 0-1.525 1.275-2.775 4.25-2.775 1.55 0 3.275.45 4.8 1.425l.825-2c-1.45-1-3.575-1.55-5.625-1.55-4.6 0-6.7 2.3-6.7 5 0 6.5 10.6 3.8 10.6 8.075 0 1.525-1.3 2.7-4.325 2.7-2.25 0-4.475-.85-5.775-2.025l-.925 1.95c1.4 1.3 4.025 2.2 6.7 2.2z" fill="#000"/><path d="m934.281 223.5v7.525h-10.05v-7.525h-2.5v17.5h2.5v-7.8h10.05v7.8h2.5v-17.5zm12.713 17.5h2.475v-15.325h6v-2.175h-14.475v2.175h6zm31.323 0-.025-17.5h-2.05l-7.2 12.3-7.3-12.3h-2.05v17.5h2.4v-12.675l6.325 10.55h1.15l6.325-10.625.025 12.75zm6.752 0h11.975v-2.175h-9.475v-15.325h-2.5zm28.031 0h2.48v-15.325h6v-2.175h-14.48v2.175h6zm15.2-2.175v-5.65h8.77v-2.125h-8.77v-5.375h9.85v-2.175h-12.35v17.5h12.7v-2.175zm34.37 2.175-.02-17.5h-2.05l-7.2 12.3-7.3-12.3h-2.05v17.5h2.4v-12.675l6.32 10.55h1.15l6.33-10.625.02 12.75zm13.58-17.5h-6.83v17.5h2.5v-5.3h4.33c4.55 0 7.3-2.3 7.3-6.1s-2.75-6.1-7.3-6.1zm-.08 10.025h-4.25v-7.85h4.25c3.2 0 4.88 1.425 4.88 3.925s-1.68 3.925-4.88 3.925zm12.55 7.475h11.98v-2.175h-9.48v-15.325h-2.5zm29.49 0h2.63l-7.95-17.5h-2.48l-7.92 17.5h2.57l1.93-4.375h9.3zm-10.35-6.375 3.78-8.575 3.77 8.575zm19.69 6.375h2.47v-15.325h6v-2.175h-14.47v2.175h6zm15.19-2.175v-5.65h8.78v-2.125h-8.78v-5.375h9.85v-2.175h-12.35v17.5h12.7v-2.175zm20.85 2.375c4.63 0 6.78-2.3 6.78-4.975 0-6.425-10.6-3.75-10.6-8.025 0-1.525 1.27-2.775 4.25-2.775 1.55 0 3.27.45 4.8 1.425l.82-2c-1.45-1-3.57-1.55-5.62-1.55-4.6 0-6.7 2.3-6.7 5 0 6.5 10.6 3.8 10.6 8.075 0 1.525-1.3 2.7-4.33 2.7-2.25 0-4.47-.85-5.77-2.025l-.93 1.95c1.4 1.3 4.03 2.2 6.7 2.2z" fill="#000"/><path d="m1604.68 241h2.48v-15.325h6v-2.175h-14.48v2.175h6zm25.25-17.5v7.525h-10.05v-7.525h-2.5v17.5h2.5v-7.8h10.05v7.8h2.5v-17.5zm11.74 15.325v-5.65h8.77v-2.125h-8.77v-5.375h9.85v-2.175h-12.35v17.5h12.7v-2.175zm34.37 2.175-.02-17.5h-2.05l-7.2 12.3-7.3-12.3h-2.05v17.5h2.4v-12.675l6.32 10.55h1.15l6.33-10.625.02 12.75zm9.25-2.175v-5.65h8.78v-2.125h-8.78v-5.375h9.85v-2.175h-12.35v17.5h12.7v-2.175z" fill="#000"/><path d="m1066 1342h832v100h-832z" fill="#fff" stroke="#2d3033" stroke-width="2"/><path d="m196 1342h817v100h-817z" fill="#fff" stroke="#2d3033" stroke-width="2"/><g fill="#000"><path d="m477.196 1391.92c1.375-.67 2.35-2 2.35-3.9 0-2.82-2.25-4.52-6.275-4.52h-7.85v17.5h8.35c4.425 0 6.7-1.73 6.7-4.73 0-2.32-1.3-3.8-3.275-4.35zm-4.15-6.4c2.55 0 4 .95 4 2.8s-1.45 2.8-4 2.8h-5.125v-5.6zm.625 13.45h-5.75v-5.82h5.75c2.775 0 4.275.9 4.275 2.92 0 2.03-1.5 2.9-4.275 2.9zm19.421 2.23c4.625 0 7.4-2.68 7.4-7.75v-9.95h-2.425v9.85c0 3.87-1.8 5.62-4.95 5.62s-4.925-1.75-4.925-5.62v-9.85h-2.5v9.95c0 5.07 2.8 7.75 7.4 7.75zm19.126 0c4.625 0 6.775-2.3 6.775-4.98 0-6.42-10.6-3.75-10.6-8.02 0-1.53 1.275-2.78 4.25-2.78 1.55 0 3.275.45 4.8 1.43l.825-2c-1.45-1-3.575-1.55-5.625-1.55-4.6 0-6.7 2.3-6.7 5 0 6.5 10.6 3.8 10.6 8.07 0 1.53-1.3 2.7-4.325 2.7-2.25 0-4.475-.85-5.775-2.02l-.925 1.95c1.4 1.3 4.025 2.2 6.7 2.2zm11.927-.2h2.5v-17.5h-2.5zm21.789-17.5v13.05l-10.5-13.05h-2.05v17.5h2.5v-13.05l10.5 13.05h2.05v-17.5zm11.738 15.32v-5.65h8.775v-2.12h-8.775v-5.38h9.85v-2.17h-12.35v17.5h12.7v-2.18zm20.848 2.38c4.625 0 6.775-2.3 6.775-4.98 0-6.42-10.6-3.75-10.6-8.02 0-1.53 1.275-2.78 4.25-2.78 1.55 0 3.275.45 4.8 1.43l.825-2c-1.45-1-3.575-1.55-5.625-1.55-4.6 0-6.7 2.3-6.7 5 0 6.5 10.6 3.8 10.6 8.07 0 1.53-1.3 2.7-4.325 2.7-2.25 0-4.475-.85-5.775-2.02l-.925 1.95c1.4 1.3 4.025 2.2 6.7 2.2zm17.028 0c4.625 0 6.775-2.3 6.775-4.98 0-6.42-10.6-3.75-10.6-8.02 0-1.53 1.275-2.78 4.25-2.78 1.55 0 3.275.45 4.8 1.43l.825-2c-1.45-1-3.575-1.55-5.625-1.55-4.6 0-6.7 2.3-6.7 5 0 6.5 10.6 3.8 10.6 8.07 0 1.53-1.3 2.7-4.325 2.7-2.25 0-4.475-.85-5.775-2.02l-.925 1.95c1.4 1.3 4.025 2.2 6.7 2.2zm20.141-.2h11.975v-2.18h-9.475v-15.32h-2.5zm23.926.2c5.325 0 9.275-3.8 9.275-8.95s-3.95-8.95-9.275-8.95c-5.375 0-9.325 3.82-9.325 8.95 0 5.12 3.95 8.95 9.325 8.95zm0-2.23c-3.925 0-6.825-2.85-6.825-6.72s2.9-6.73 6.825-6.73c3.875 0 6.775 2.86 6.775 6.73s-2.9 6.72-6.775 6.72zm26.721-1.12c-1.25.8-2.625 1.12-4.1 1.12-4.025 0-6.95-2.87-6.95-6.72 0-3.9 2.925-6.73 6.975-6.73 1.975 0 3.625.63 5.075 2.03l1.55-1.55c-1.6-1.78-3.95-2.7-6.725-2.7-5.425 0-9.375 3.77-9.375 8.95 0 5.17 3.95 8.95 9.325 8.95 2.45 0 4.875-.75 6.625-2.23v-6.82h-2.4zm8.687 3.15h2.5v-17.5h-2.5zm17.064.2c2.725 0 5.075-.95 6.675-2.75l-1.625-1.58c-1.35 1.43-3 2.1-4.925 2.1-3.95 0-6.875-2.85-6.875-6.72s2.925-6.73 6.875-6.73c1.925 0 3.575.65 4.925 2.08l1.625-1.58c-1.6-1.8-3.95-2.72-6.65-2.72-5.325 0-9.275 3.77-9.275 8.95 0 5.17 3.95 8.95 9.25 8.95z"/><path d="m1369.31 1383.5h-6.83v17.5h2.5v-5.3h4.33c4.55 0 7.3-2.3 7.3-6.1s-2.75-6.1-7.3-6.1zm-.08 10.02h-4.25v-7.85h4.25c3.2 0 4.88 1.43 4.88 3.93s-1.68 3.92-4.88 3.92zm15.05 5.3v-5.65h8.78v-2.12h-8.78v-5.38h9.85v-2.17h-12.35v17.5h12.7v-2.18zm30.17 2.18-4.15-5.88c2.45-.87 3.85-2.82 3.85-5.52 0-3.8-2.75-6.1-7.3-6.1h-6.82v17.5h2.5v-5.33h4.32c.38 0 .75-.02 1.1-.05l3.78 5.38zm-7.67-7.45h-4.25v-7.88h4.25c3.2 0 4.87 1.43 4.87 3.93s-1.67 3.95-4.87 3.95zm18.01 7.65c4.63 0 6.78-2.3 6.78-4.98 0-6.42-10.6-3.75-10.6-8.02 0-1.53 1.27-2.78 4.25-2.78 1.55 0 3.27.45 4.8 1.43l.82-2c-1.45-1-3.57-1.55-5.62-1.55-4.6 0-6.7 2.3-6.7 5 0 6.5 10.6 3.8 10.6 8.07 0 1.53-1.3 2.7-4.33 2.7-2.25 0-4.47-.85-5.77-2.02l-.93 1.95c1.4 1.3 4.03 2.2 6.7 2.2zm11.93-.2h2.5v-17.5h-2.5zm14.34.2c4.62 0 6.77-2.3 6.77-4.98 0-6.42-10.6-3.75-10.6-8.02 0-1.53 1.28-2.78 4.25-2.78 1.55 0 3.28.45 4.8 1.43l.83-2c-1.45-1-3.58-1.55-5.63-1.55-4.6 0-6.7 2.3-6.7 5 0 6.5 10.6 3.8 10.6 8.07 0 1.53-1.3 2.7-4.32 2.7-2.25 0-4.48-.85-5.78-2.02l-.92 1.95c1.4 1.3 4.02 2.2 6.7 2.2zm15.16-.2h2.47v-15.33h6v-2.17h-14.47v2.17h6zm15.2-2.18v-5.65h8.77v-2.12h-8.77v-5.38h9.85v-2.17h-12.35v17.5h12.7v-2.18zm28.29-15.32v13.05l-10.5-13.05h-2.05v17.5h2.5v-13.05l10.5 13.05h2.05v-17.5zm17.07 17.7c2.72 0 5.07-.95 6.67-2.75l-1.62-1.58c-1.35 1.43-3 2.1-4.93 2.1-3.95 0-6.87-2.85-6.87-6.72s2.92-6.73 6.87-6.73c1.93 0 3.58.65 4.93 2.08l1.62-1.58c-1.6-1.8-3.95-2.72-6.65-2.72-5.32 0-9.27 3.77-9.27 8.95 0 5.17 3.95 8.95 9.25 8.95zm14.24-2.38v-5.65h8.77v-2.12h-8.77v-5.38h9.85v-2.17h-12.35v17.5h12.7v-2.18z"/><path d="m168.75 108.9c1.35-.725 2.25-2.05 2.25-3.85 0-2.775-2.25-4.55-6.45-4.55h-8.2v17.5h8.7c4.5 0 6.85-1.75 6.85-4.75 0-2.275-1.275-3.75-3.15-4.35zm-4.55-5.85c2.25 0 3.525.8 3.525 2.425 0 1.6-1.275 2.4-3.525 2.4h-4.6v-4.825zm.65 12.4h-5.25v-5.05h5.25c2.45 0 3.775.775 3.775 2.525s-1.325 2.525-3.775 2.525zm13.194-8.85v-1.95h-2.975v13.35h3.125v-6.475c0-2.725 1.5-4.125 3.875-4.125.225 0 .45.025.725.075v-2.975c-2.225 0-3.85.7-4.75 2.1zm13.278 11.575c4.15 0 7.125-2.85 7.125-6.85s-2.975-6.825-7.125-6.825c-4.1 0-7.1 2.825-7.1 6.825s3 6.85 7.1 6.85zm0-2.675c-2.25 0-3.95-1.625-3.95-4.175s1.7-4.175 3.95-4.175c2.275 0 3.975 1.625 3.975 4.175s-1.7 4.175-3.975 4.175zm27.798-10.85-3.625 9.9-3.6-9.9h-2.625l-3.675 9.85-3.525-9.85h-2.95l4.9 13.35h3l3.5-9.2 3.45 9.2h3l4.925-13.35zm8.877 13.525c3.75 0 6.05-1.625 6.05-4.125 0-5.225-8.25-2.825-8.25-5.525 0-.875.9-1.5 2.8-1.5 1.275 0 2.55.25 3.825 1l1.2-2.375c-1.2-.725-3.225-1.15-5-1.15-3.6 0-5.875 1.65-5.875 4.175 0 5.325 8.25 2.925 8.25 5.475 0 .925-.825 1.475-2.8 1.475-1.675 0-3.475-.55-4.65-1.325l-1.2 2.375c1.2.85 3.425 1.5 5.65 1.5zm21.291-6.775c0-4.175-2.85-6.9-6.75-6.9-3.975 0-6.9 2.85-6.9 6.825s2.9 6.85 7.375 6.85c2.3 0 4.175-.75 5.375-2.175l-1.675-1.925c-.95.975-2.125 1.45-3.625 1.45-2.325 0-3.95-1.25-4.325-3.2h10.475c.025-.3.05-.675.05-.925zm-6.75-4.4c2.05 0 3.525 1.325 3.775 3.25h-7.575c.3-1.95 1.775-3.25 3.8-3.25zm12.727-.4v-1.95h-2.975v13.35h3.125v-6.475c0-2.725 1.5-4.125 3.875-4.125.225 0 .45.025.725.075v-2.975c-2.225 0-3.85.7-4.75 2.1z"/><path d="m205.742 1566h2.584l-6.004-13.3h-2.432l-5.985 13.3h2.546l1.311-3.08h6.65zm-7.144-5.02 2.489-5.81 2.508 5.81zm24.281 5.02-3.059-4.37c1.805-.7 2.831-2.19 2.831-4.2 0-2.94-2.166-4.73-5.662-4.73h-5.472v13.3h2.47v-3.88h3.002c.171 0 .342 0 .513-.02l2.717 3.9zm-2.717-8.57c0 1.67-1.121 2.66-3.287 2.66h-2.888v-5.3h2.888c2.166 0 3.287.97 3.287 2.64zm12.909 8.76c2.185 0 4.047-.78 5.282-2.22l-1.596-1.52c-.969 1.06-2.166 1.57-3.553 1.57-2.755 0-4.75-1.93-4.75-4.67s1.995-4.67 4.75-4.67c1.387 0 2.584.51 3.553 1.55l1.596-1.5c-1.235-1.44-3.097-2.22-5.263-2.22-4.085 0-7.125 2.87-7.125 6.84s3.04 6.84 7.106 6.84zm18.497-13.49v5.49h-6.878v-5.49h-2.47v13.3h2.47v-5.7h6.878v5.7h2.47v-13.3zm7.533 13.3h2.47v-13.3h-2.47zm10.266 0h2.47v-11.21h4.408v-2.09h-11.286v2.09h4.408zm12.702-2.07v-3.67h6.422v-2.03h-6.422v-3.46h7.239v-2.07h-9.709v13.3h9.975v-2.07zm17.858 2.26c2.185 0 4.047-.78 5.282-2.22l-1.596-1.52c-.969 1.06-2.166 1.57-3.553 1.57-2.755 0-4.75-1.93-4.75-4.67s1.995-4.67 4.75-4.67c1.387 0 2.584.51 3.553 1.55l1.596-1.5c-1.235-1.44-3.097-2.22-5.263-2.22-4.085 0-7.125 2.87-7.125 6.84s3.04 6.84 7.106 6.84zm11.699-.19h2.47v-11.21h4.408v-2.09h-11.286v2.09h4.408zm15.709.19c3.629 0 5.814-2.11 5.814-5.99v-7.5h-2.432v7.41c0 2.74-1.216 3.91-3.363 3.91s-3.382-1.17-3.382-3.91v-7.41h-2.47v7.5c0 3.88 2.185 5.99 5.833 5.99zm22.135-.19-3.059-4.37c1.805-.7 2.831-2.19 2.831-4.2 0-2.94-2.166-4.73-5.662-4.73h-5.472v13.3h2.47v-3.88h3.002c.171 0 .342 0 .513-.02l2.717 3.9zm-2.717-8.57c0 1.67-1.121 2.66-3.287 2.66h-2.888v-5.3h2.888c2.166 0 3.287.97 3.287 2.64zm9.223 6.5v-3.67h6.422v-2.03h-6.422v-3.46h7.239v-2.07h-9.709v13.3h9.975v-2.07z"/><path d="m169.45 551h3.4l-7.9-17.5h-3.2l-7.875 17.5h3.35l1.725-4.05h8.75zm-9.4-6.6 3.275-7.65 3.3 7.65zm22.126-6.9c-1.825 0-3.375.625-4.425 1.9v-1.75h-2.975v18.2h3.125v-6.475c1.075 1.225 2.575 1.8 4.275 1.8 3.9 0 6.775-2.7 6.775-6.85 0-4.125-2.875-6.825-6.775-6.825zm-.35 11c-2.25 0-3.975-1.625-3.975-4.175s1.725-4.175 3.975-4.175 3.95 1.625 3.95 4.175-1.7 4.175-3.95 4.175zm17.488-11c-1.825 0-3.375.625-4.425 1.9v-1.75h-2.975v18.2h3.125v-6.475c1.075 1.225 2.575 1.8 4.275 1.8 3.9 0 6.775-2.7 6.775-6.85 0-4.125-2.875-6.825-6.775-6.825zm-.35 11c-2.25 0-3.975-1.625-3.975-4.175s1.725-4.175 3.975-4.175 3.95 1.625 3.95 4.175-1.7 4.175-3.95 4.175zm10.089 2.5h3.125v-18.55h-3.125zm8.801-15.55c1.175 0 2-.85 2-1.95 0-1.025-.85-1.8-2-1.8s-2 .825-2 1.875.85 1.875 2 1.875zm-1.575 15.55h3.125v-13.35h-3.125zm13.352.175c2.6 0 4.675-1.125 5.7-3.125l-2.4-1.4c-.8 1.275-2 1.85-3.325 1.85-2.3 0-4.05-1.575-4.05-4.175 0-2.575 1.75-4.175 4.05-4.175 1.325 0 2.525.575 3.325 1.85l2.4-1.4c-1.025-2.025-3.1-3.1-5.7-3.1-4.225 0-7.225 2.825-7.225 6.825s3 6.85 7.225 6.85zm13.501-13.675c-2.15 0-4.225.55-5.65 1.65l1.225 2.275c1-.825 2.55-1.325 4.05-1.325 2.225 0 3.325 1.075 3.325 2.9v.2h-3.45c-4.05 0-5.55 1.75-5.55 3.975 0 2.325 1.925 4 4.975 4 2 0 3.45-.65 4.2-1.8v1.625h2.95v-7.825c0-3.85-2.225-5.675-6.075-5.675zm-.425 11.4c-1.6 0-2.55-.725-2.55-1.85 0-.975.575-1.775 2.7-1.775h3.225v1.55c-.525 1.375-1.85 2.075-3.375 2.075zm17.661-.85c-.475.375-1.1.55-1.75.55-1.2 0-1.85-.7-1.85-2v-6.35h3.575v-2.5h-3.575v-3.05h-3.125v3.05h-2.2v2.5h2.2v6.425c0 2.95 1.675 4.5 4.6 4.5 1.125 0 2.25-.3 3-.9zm5.021-12.6c1.175 0 2-.85 2-1.95 0-1.025-.85-1.8-2-1.8s-2 .825-2 1.875.85 1.875 2 1.875zm-1.575 15.55h3.125v-13.35h-3.125zm13.226.175c4.15 0 7.125-2.85 7.125-6.85s-2.975-6.825-7.125-6.825c-4.1 0-7.1 2.825-7.1 6.825s3 6.85 7.1 6.85zm0-2.675c-2.25 0-3.95-1.625-3.95-4.175s1.7-4.175 3.95-4.175c2.275 0 3.975 1.625 3.975 4.175s-1.7 4.175-3.975 4.175zm17.689-11c-1.95 0-3.575.65-4.6 1.875v-1.725h-2.975v13.35h3.125v-6.75c0-2.675 1.5-4.025 3.725-4.025 2 0 3.175 1.15 3.175 3.525v7.25h3.125v-7.65c0-4.025-2.375-5.85-5.575-5.85zm20.573 13.675c3.75 0 6.05-1.625 6.05-4.125 0-5.225-8.25-2.825-8.25-5.525 0-.875.9-1.5 2.8-1.5 1.275 0 2.55.25 3.825 1l1.2-2.375c-1.2-.725-3.225-1.15-5-1.15-3.6 0-5.875 1.65-5.875 4.175 0 5.325 8.25 2.925 8.25 5.475 0 .925-.825 1.475-2.8 1.475-1.675 0-3.475-.55-4.65-1.325l-1.2 2.375c1.2.85 3.425 1.5 5.65 1.5zm21.291-6.775c0-4.175-2.85-6.9-6.75-6.9-3.975 0-6.9 2.85-6.9 6.825s2.9 6.85 7.375 6.85c2.3 0 4.175-.75 5.375-2.175l-1.675-1.925c-.95.975-2.125 1.45-3.625 1.45-2.325 0-3.95-1.25-4.325-3.2h10.475c.025-.3.05-.675.05-.925zm-6.75-4.4c2.05 0 3.525 1.325 3.775 3.25h-7.575c.3-1.95 1.775-3.25 3.8-3.25zm12.727-.4v-1.95h-2.975v13.35h3.125v-6.475c0-2.725 1.5-4.125 3.875-4.125.225 0 .45.025.725.075v-2.975c-2.225 0-3.85.7-4.75 2.1zm17.389-1.95-4.275 9.9-4.15-9.9h-3.25l5.725 13.35h3.225l5.725-13.35zm17.137 6.75c0-4.175-2.85-6.9-6.75-6.9-3.975 0-6.9 2.85-6.9 6.825s2.9 6.85 7.375 6.85c2.3 0 4.175-.75 5.375-2.175l-1.675-1.925c-.95.975-2.125 1.45-3.625 1.45-2.325 0-3.95-1.25-4.325-3.2h10.475c.025-.3.05-.675.05-.925zm-6.75-4.4c2.05 0 3.525 1.325 3.775 3.25h-7.575c.3-1.95 1.775-3.25 3.8-3.25zm12.727-.4v-1.95h-2.975v13.35h3.125v-6.475c0-2.725 1.5-4.125 3.875-4.125.225 0 .45.025.725.075v-2.975c-2.225 0-3.85.7-4.75 2.1z"/><path d="m218.1 626.5-5.875 13.5-5.825-13.5h-3.525l7.65 17.5h3.2l7.625-17.5zm8.896 4c-2.15 0-4.225.55-5.65 1.65l1.225 2.275c1-.825 2.55-1.325 4.05-1.325 2.225 0 3.325 1.075 3.325 2.9v.2h-3.45c-4.05 0-5.55 1.75-5.55 3.975 0 2.325 1.925 4 4.975 4 2 0 3.45-.65 4.2-1.8v1.625h2.95v-7.825c0-3.85-2.225-5.675-6.075-5.675zm-.425 11.4c-1.6 0-2.55-.725-2.55-1.85 0-.975.575-1.775 2.7-1.775h3.225v1.55c-.525 1.375-1.85 2.075-3.375 2.075zm15.61-11.4c-2.15 0-4.225.55-5.65 1.65l1.225 2.275c1-.825 2.55-1.325 4.05-1.325 2.225 0 3.325 1.075 3.325 2.9v.2h-3.45c-4.05 0-5.55 1.75-5.55 3.975 0 2.325 1.925 4 4.975 4 2 0 3.45-.65 4.2-1.8v1.625h2.95v-7.825c0-3.85-2.225-5.675-6.075-5.675zm-.425 11.4c-1.6 0-2.55-.725-2.55-1.85 0-.975.575-1.775 2.7-1.775h3.225v1.55c-.525 1.375-1.85 2.075-3.375 2.075zm20.583-16.45v6.85c-1.05-1.225-2.575-1.8-4.3-1.8-3.875 0-6.75 2.675-6.75 6.825s2.875 6.85 6.75 6.85c1.825 0 3.375-.625 4.425-1.9v1.725h3v-18.55zm-3.925 16.05c-2.25 0-3.975-1.625-3.975-4.175s1.725-4.175 3.975-4.175 3.975 1.625 3.975 4.175-1.725 4.175-3.975 4.175zm12.713-13.05c1.175 0 2-.85 2-1.95 0-1.025-.85-1.8-2-1.8s-2 .825-2 1.875.85 1.875 2 1.875zm-1.575 15.55h3.125v-13.35h-3.125zm14.802-13.5c-1.95 0-3.575.65-4.6 1.875v-1.725h-2.975v13.35h3.125v-6.75c0-2.675 1.5-4.025 3.725-4.025 2 0 3.175 1.15 3.175 3.525v7.25h3.125v-7.65c0-4.025-2.375-5.85-5.575-5.85zm29.848 13.5h3.4l-7.9-17.5h-3.2l-7.875 17.5h3.35l1.725-4.05h8.75zm-9.4-6.6 3.275-7.65 3.3 7.65zm22.126-6.9c-1.825 0-3.375.625-4.425 1.9v-1.75h-2.975v18.2h3.125v-6.475c1.075 1.225 2.575 1.8 4.275 1.8 3.9 0 6.775-2.7 6.775-6.85 0-4.125-2.875-6.825-6.775-6.825zm-.35 11c-2.25 0-3.975-1.625-3.975-4.175s1.725-4.175 3.975-4.175 3.95 1.625 3.95 4.175-1.7 4.175-3.95 4.175zm17.488-11c-1.825 0-3.375.625-4.425 1.9v-1.75h-2.975v18.2h3.125v-6.475c1.075 1.225 2.575 1.8 4.275 1.8 3.9 0 6.775-2.7 6.775-6.85 0-4.125-2.875-6.825-6.775-6.825zm-.35 11c-2.25 0-3.975-1.625-3.975-4.175s1.725-4.175 3.975-4.175 3.95 1.625 3.95 4.175-1.7 4.175-3.95 4.175zm10.089 2.5h3.125v-18.55h-3.125zm8.801-15.55c1.175 0 2-.85 2-1.95 0-1.025-.85-1.8-2-1.8s-2 .825-2 1.875.85 1.875 2 1.875zm-1.575 15.55h3.125v-13.35h-3.125zm13.352.175c2.6 0 4.675-1.125 5.7-3.125l-2.4-1.4c-.8 1.275-2 1.85-3.325 1.85-2.3 0-4.05-1.575-4.05-4.175 0-2.575 1.75-4.175 4.05-4.175 1.325 0 2.525.575 3.325 1.85l2.4-1.4c-1.025-2.025-3.1-3.1-5.7-3.1-4.225 0-7.225 2.825-7.225 6.825s3 6.85 7.225 6.85zm13.501-13.675c-2.15 0-4.225.55-5.65 1.65l1.225 2.275c1-.825 2.55-1.325 4.05-1.325 2.225 0 3.325 1.075 3.325 2.9v.2h-3.45c-4.05 0-5.55 1.75-5.55 3.975 0 2.325 1.925 4 4.975 4 2 0 3.45-.65 4.2-1.8v1.625h2.95v-7.825c0-3.85-2.225-5.675-6.075-5.675zm-.425 11.4c-1.6 0-2.55-.725-2.55-1.85 0-.975.575-1.775 2.7-1.775h3.225v1.55c-.525 1.375-1.85 2.075-3.375 2.075zm17.661-.85c-.475.375-1.1.55-1.75.55-1.2 0-1.85-.7-1.85-2v-6.35h3.575v-2.5h-3.575v-3.05h-3.125v3.05h-2.2v2.5h2.2v6.425c0 2.95 1.675 4.5 4.6 4.5 1.125 0 2.25-.3 3-.9zm5.021-12.6c1.175 0 2-.85 2-1.95 0-1.025-.85-1.8-2-1.8s-2 .825-2 1.875.85 1.875 2 1.875zm-1.575 15.55h3.125v-13.35h-3.125zm13.226.175c4.15 0 7.125-2.85 7.125-6.85s-2.975-6.825-7.125-6.825c-4.1 0-7.1 2.825-7.1 6.825s3 6.85 7.1 6.85zm0-2.675c-2.25 0-3.95-1.625-3.95-4.175s1.7-4.175 3.95-4.175c2.275 0 3.975 1.625 3.975 4.175s-1.7 4.175-3.975 4.175zm17.688-11c-1.95 0-3.575.65-4.6 1.875v-1.725h-2.975v13.35h3.125v-6.75c0-2.675 1.5-4.025 3.725-4.025 2 0 3.175 1.15 3.175 3.525v7.25h3.125v-7.65c0-4.025-2.375-5.85-5.575-5.85zm19.549 18.35h2.975c-2.075-3.65-2.95-7.425-2.95-11.7s.875-8.05 2.95-11.7h-2.975c-1.95 2.975-3.05 7.1-3.05 11.7s1.1 8.675 3.05 11.7zm18.167-22.35v7.225h-9.05v-7.225h-3.25v17.5h3.25v-7.5h9.05v7.5h3.25v-17.5zm14.789 14.55c-.475.375-1.1.55-1.75.55-1.2 0-1.85-.7-1.85-2v-6.35h3.575v-2.5h-3.575v-3.05h-3.125v3.05h-2.2v2.5h2.2v6.425c0 2.95 1.675 4.5 4.6 4.5 1.125 0 2.25-.3 3-.9zm10.278 0c-.475.375-1.1.55-1.75.55-1.2 0-1.85-.7-1.85-2v-6.35h3.575v-2.5h-3.575v-3.05h-3.125v3.05h-2.2v2.5h2.2v6.425c0 2.95 1.675 4.5 4.6 4.5 1.125 0 2.25-.3 3-.9zm10.846-10.55c-1.825 0-3.375.625-4.425 1.9v-1.75h-2.975v18.2h3.125v-6.475c1.075 1.225 2.575 1.8 4.275 1.8 3.9 0 6.775-2.7 6.775-6.85 0-4.125-2.875-6.825-6.775-6.825zm-.35 11c-2.25 0-3.975-1.625-3.975-4.175s1.725-4.175 3.975-4.175 3.95 1.625 3.95 4.175-1.7 4.175-3.95 4.175zm15.814 2.75c4.8 0 7.075-2.4 7.075-5.2 0-6.425-10.375-4-10.375-7.725 0-1.325 1.1-2.375 3.8-2.375 1.525 0 3.25.45 4.825 1.375l1.025-2.525c-1.525-1-3.725-1.55-5.825-1.55-4.8 0-7.05 2.4-7.05 5.225 0 6.5 10.4 4.025 10.4 7.8 0 1.3-1.15 2.275-3.875 2.275-2.15 0-4.375-.8-5.775-1.925l-1.125 2.525c1.45 1.25 4.175 2.1 6.9 2.1zm22.548-6.85c0-4.175-2.85-6.9-6.75-6.9-3.975 0-6.9 2.85-6.9 6.825s2.9 6.85 7.375 6.85c2.3 0 4.175-.75 5.375-2.175l-1.675-1.925c-.95.975-2.125 1.45-3.625 1.45-2.325 0-3.95-1.25-4.325-3.2h10.475c.025-.3.05-.675.05-.925zm-6.75-4.4c2.05 0 3.525 1.325 3.775 3.25h-7.575c.3-1.95 1.775-3.25 3.8-3.25zm12.726-.4v-1.95h-2.975v13.35h3.125v-6.475c0-2.725 1.5-4.125 3.875-4.125.225 0 .45.025.725.075v-2.975c-2.225 0-3.85.7-4.75 2.1zm17.39-1.95-4.275 9.9-4.15-9.9h-3.25l5.725 13.35h3.225l5.725-13.35zm4.953 13.35h3.125v-18.55h-3.125zm19.776-6.6c0-4.175-2.85-6.9-6.75-6.9-3.975 0-6.9 2.85-6.9 6.825s2.9 6.85 7.375 6.85c2.3 0 4.175-.75 5.375-2.175l-1.675-1.925c-.95.975-2.125 1.45-3.625 1.45-2.325 0-3.95-1.25-4.325-3.2h10.475c.025-.3.05-.675.05-.925zm-6.75-4.4c2.05 0 3.525 1.325 3.775 3.25h-7.575c.3-1.95 1.775-3.25 3.8-3.25zm16.902 8.05c-.475.375-1.1.55-1.75.55-1.2 0-1.85-.7-1.85-2v-6.35h3.575v-2.5h-3.575v-3.05h-3.125v3.05h-2.2v2.5h2.2v6.425c0 2.95 1.675 4.5 4.6 4.5 1.125 0 2.25-.3 3-.9zm4.921 7.8c1.975-3.025 3.05-7.1 3.05-11.7s-1.075-8.725-3.05-11.7h-2.975c2.075 3.65 2.975 7.425 2.975 11.7s-.9 8.05-2.975 11.7z"/></g><path d="m1408 678h498v134h-498z" fill="#fff" stroke="#2d3033" stroke-width="2"/><path d="m806 678h497v134h-497z" fill="#fff" stroke="#2d3033" stroke-width="2"/><path d="m204 678h497v134h-497z" fill="#fff" stroke="#2d3033" stroke-width="2"/><path d="m360.492 731.2c2.725 0 5.075-.95 6.675-2.75l-1.625-1.575c-1.35 1.425-3 2.1-4.925 2.1-3.95 0-6.875-2.85-6.875-6.725s2.925-6.725 6.875-6.725c1.925 0 3.575.65 4.925 2.075l1.625-1.575c-1.6-1.8-3.95-2.725-6.65-2.725-5.325 0-9.275 3.775-9.275 8.95s3.95 8.95 9.25 8.95zm19.275 0c5.325 0 9.275-3.8 9.275-8.95s-3.95-8.95-9.275-8.95c-5.375 0-9.325 3.825-9.325 8.95s3.95 8.95 9.325 8.95zm0-2.225c-3.925 0-6.825-2.85-6.825-6.725s2.9-6.725 6.825-6.725c3.875 0 6.775 2.85 6.775 6.725s-2.9 6.725-6.775 6.725zm33.221 2.025-.025-17.5h-2.05l-7.2 12.3-7.3-12.3h-2.05v17.5h2.4v-12.675l6.325 10.55h1.15l6.325-10.625.025 12.75zm13.577-17.5h-6.825v17.5h2.5v-5.3h4.325c4.55 0 7.3-2.3 7.3-6.1s-2.75-6.1-7.3-6.1zm-.075 10.025h-4.25v-7.85h4.25c3.2 0 4.875 1.425 4.875 3.925s-1.675 3.925-4.875 3.925zm20.692 7.675c5.325 0 9.275-3.8 9.275-8.95s-3.95-8.95-9.275-8.95c-5.375 0-9.325 3.825-9.325 8.95s3.95 8.95 9.325 8.95zm0-2.225c-3.925 0-6.825-2.85-6.825-6.725s2.9-6.725 6.825-6.725c3.875 0 6.775 2.85 6.775 6.725s-2.9 6.725-6.775 6.725zm27.146-15.475v13.05l-10.5-13.05h-2.05v17.5h2.5v-13.05l10.5 13.05h2.05v-17.5zm11.738 15.325v-5.65h8.775v-2.125h-8.775v-5.375h9.85v-2.175h-12.35v17.5h12.7v-2.175zm28.298-15.325v13.05l-10.5-13.05h-2.05v17.5h2.5v-13.05l10.5 13.05h2.05v-17.5zm12.714 17.5h2.475v-15.325h6v-2.175h-14.475v2.175h6zm17.578.2c4.625 0 6.775-2.3 6.775-4.975 0-6.425-10.6-3.75-10.6-8.025 0-1.525 1.275-2.775 4.25-2.775 1.55 0 3.275.45 4.8 1.425l.825-2c-1.45-1-3.575-1.55-5.625-1.55-4.6 0-6.7 2.3-6.7 5 0 6.5 10.6 3.8 10.6 8.075 0 1.525-1.3 2.7-4.325 2.7-2.25 0-4.475-.85-5.775-2.025l-.925 1.95c1.4 1.3 4.025 2.2 6.7 2.2z" fill="#000"/><path d="m942.281 713.5v7.525h-10.05v-7.525h-2.5v17.5h2.5v-7.8h10.05v7.8h2.5v-17.5zm12.713 17.5h2.475v-15.325h6v-2.175h-14.475v2.175h6zm31.323 0-.025-17.5h-2.05l-7.2 12.3-7.3-12.3h-2.05v17.5h2.4v-12.675l6.325 10.55h1.15l6.325-10.625.025 12.75zm6.752 0h11.971v-2.175h-9.471v-15.325h-2.5zm28.031 0h2.48v-15.325h6v-2.175h-14.48v2.175h6zm15.2-2.175v-5.65h8.77v-2.125h-8.77v-5.375h9.85v-2.175h-12.35v17.5h12.7v-2.175zm34.37 2.175-.02-17.5h-2.05l-7.2 12.3-7.3-12.3h-2.05v17.5h2.4v-12.675l6.32 10.55h1.15l6.33-10.625.02 12.75zm13.58-17.5h-6.83v17.5h2.5v-5.3h4.33c4.55 0 7.3-2.3 7.3-6.1s-2.75-6.1-7.3-6.1zm-.08 10.025h-4.25v-7.85h4.25c3.2 0 4.88 1.425 4.88 3.925s-1.68 3.925-4.88 3.925zm12.55 7.475h11.98v-2.175h-9.48v-15.325h-2.5zm29.49 0h2.63l-7.95-17.5h-2.48l-7.92 17.5h2.57l1.93-4.375h9.3zm-10.35-6.375 3.78-8.575 3.77 8.575zm19.69 6.375h2.47v-15.325h6v-2.175h-14.47v2.175h6zm15.19-2.175v-5.65h8.78v-2.125h-8.78v-5.375h9.85v-2.175h-12.35v17.5h12.7v-2.175zm20.85 2.375c4.63 0 6.78-2.3 6.78-4.975 0-6.425-10.6-3.75-10.6-8.025 0-1.525 1.27-2.775 4.25-2.775 1.55 0 3.27.45 4.8 1.425l.82-2c-1.45-1-3.57-1.55-5.62-1.55-4.6 0-6.7 2.3-6.7 5 0 6.5 10.6 3.8 10.6 8.075 0 1.525-1.3 2.7-4.33 2.7-2.25 0-4.47-.85-5.77-2.025l-.93 1.95c1.4 1.3 4.03 2.2 6.7 2.2z" fill="#000"/><path d="m1612.68 731h2.48v-15.325h6v-2.175h-14.48v2.175h6zm25.25-17.5v7.525h-10.05v-7.525h-2.5v17.5h2.5v-7.8h10.05v7.8h2.5v-17.5zm11.74 15.325v-5.65h8.77v-2.125h-8.77v-5.375h9.85v-2.175h-12.35v17.5h12.7v-2.175zm34.37 2.175-.02-17.5h-2.05l-7.2 12.3-7.3-12.3h-2.05v17.5h2.4v-12.675l6.32 10.55h1.15l6.33-10.625.02 12.75zm9.25-2.175v-5.65h8.78v-2.125h-8.78v-5.375h9.85v-2.175h-12.35v17.5h12.7v-2.175z" fill="#000"/><path d="m1544.97 764.058c1.41-.572 2.35-1.738 2.35-3.498 0-2.508-1.98-3.96-5.41-3.96h-6.64v15.4h7.08c3.85 0 5.79-1.496 5.79-4.114 0-2.09-1.19-3.388-3.17-3.828zm-3.17-6.116c2.47 0 3.9.946 3.9 2.794s-1.43 2.794-3.9 2.794h-4.9v-5.588zm.53 12.716h-5.43v-5.786h5.43c2.71 0 4.18.88 4.18 2.882 0 2.024-1.47 2.904-4.18 2.904zm18.06-10.23v6.072c0 2.64-1.52 4.202-3.94 4.202-2.2 0-3.47-1.254-3.47-3.718v-6.556h-1.57v6.71c0 3.322 1.94 4.972 4.89 4.972 1.85 0 3.34-.814 4.16-2.222v2.112h1.49v-11.572zm6.73-2.53c.66 0 1.14-.506 1.14-1.144 0-.594-.5-1.078-1.14-1.078s-1.14.506-1.14 1.1c0 .616.5 1.122 1.14 1.122zm-.79 14.102h1.56v-11.572h-1.56zm5.91 0h1.56v-16.324h-1.56zm11.49-1.826c-.44.396-1.08.594-1.72.594-1.29 0-2-.748-2-2.112v-6.908h3.52v-1.32h-3.52v-2.53h-1.56v2.53h-2.07v1.32h2.07v6.996c0 2.134 1.21 3.366 3.39 3.366.9 0 1.82-.264 2.44-.814zm2.32-3.454h5.77v-1.364h-5.77zm10.05-8.822c.66 0 1.15-.506 1.15-1.144 0-.594-.51-1.078-1.15-1.078s-1.14.506-1.14 1.1c0 .616.5 1.122 1.14 1.122zm-.79 14.102h1.56v-11.572h-1.56zm11.8-11.66c-2 0-3.56.814-4.4 2.222v-2.134h-1.49v11.572h1.56v-6.072c0-2.64 1.56-4.18 4.05-4.18 2.2 0 3.47 1.254 3.47 3.696v6.556h1.57v-6.71c0-3.322-1.94-4.95-4.76-4.95zm19.48 11.77c3.39 0 5.88-2.464 5.88-5.896s-2.49-5.874-5.88-5.874c-3.38 0-5.89 2.442-5.89 5.874s2.51 5.896 5.89 5.896zm0-1.386c-2.46 0-4.31-1.804-4.31-4.51s1.85-4.51 4.31-4.51c2.47 0 4.29 1.804 4.29 4.51s-1.82 4.51-4.29 4.51zm10.56-8.03v-2.266h-1.49v11.572h1.56v-5.896c0-2.728 1.47-4.268 3.89-4.268.11 0 .25.022.38.022v-1.518c-2.14 0-3.61.814-4.34 2.354zm17.89 9.416c1.96 0 3.61-.792 4.53-2.288l-1.16-.792c-.79 1.166-2.03 1.694-3.37 1.694-2.53 0-4.38-1.782-4.38-4.51 0-2.706 1.85-4.51 4.38-4.51 1.34 0 2.58.55 3.37 1.716l1.16-.792c-.92-1.518-2.57-2.288-4.53-2.288-3.45 0-5.96 2.42-5.96 5.874s2.51 5.896 5.96 5.896zm16.47-11.682v6.072c0 2.64-1.52 4.202-3.94 4.202-2.2 0-3.48-1.254-3.48-3.718v-6.556h-1.56v6.71c0 3.322 1.94 4.972 4.89 4.972 1.84 0 3.34-.814 4.15-2.222v2.112h1.5v-11.572zm9.04 11.682c3.01 0 4.77-1.298 4.77-3.3 0-4.444-7.5-2.09-7.5-5.214 0-1.1.92-1.914 3.01-1.914 1.19 0 2.4.286 3.41.99l.68-1.254c-.96-.66-2.59-1.078-4.09-1.078-2.95 0-4.57 1.408-4.57 3.3 0 4.576 7.5 2.2 7.5 5.214 0 1.144-.9 1.892-3.1 1.892-1.63 0-3.19-.572-4.12-1.298l-.7 1.232c.94.814 2.79 1.43 4.71 1.43zm13.2-1.936c-.44.396-1.08.594-1.71.594-1.3 0-2.01-.748-2.01-2.112v-6.908h3.52v-1.32h-3.52v-2.53h-1.56v2.53h-2.07v1.32h2.07v6.996c0 2.134 1.21 3.366 3.39 3.366.9 0 1.83-.264 2.44-.814zm7.72 1.936c3.39 0 5.87-2.464 5.87-5.896s-2.48-5.874-5.87-5.874-5.9 2.442-5.9 5.874 2.51 5.896 5.9 5.896zm0-1.386c-2.47 0-4.31-1.804-4.31-4.51s1.84-4.51 4.31-4.51c2.46 0 4.29 1.804 4.29 4.51s-1.83 4.51-4.29 4.51zm23.49-10.384c-2.09 0-3.74.946-4.57 2.442-.71-1.628-2.2-2.442-4.12-2.442-1.93 0-3.43.814-4.24 2.2v-2.112h-1.5v11.572h1.56v-6.072c0-2.64 1.52-4.18 3.87-4.18 2.12 0 3.35 1.254 3.35 3.696v6.556h1.56v-6.072c0-2.64 1.5-4.18 3.87-4.18 2.09 0 3.32 1.254 3.32 3.696v6.556h1.57v-6.71c0-3.322-1.85-4.95-4.67-4.95zm21.68 11.792c2.26 0 4.29-.77 5.65-2.266l-1.03-1.034c-1.26 1.298-2.8 1.848-4.56 1.848-3.71 0-6.51-2.728-6.51-6.38s2.8-6.38 6.51-6.38c1.76 0 3.3.55 4.56 1.826l1.03-1.034c-1.36-1.496-3.39-2.244-5.63-2.244-4.64 0-8.07 3.322-8.07 7.832s3.43 7.832 8.05 7.832zm13.28 0c3.94 0 5.74-1.936 5.74-4.202 0-5.61-9.48-3.058-9.48-7.282 0-1.54 1.26-2.794 4.07-2.794 1.37 0 2.91.418 4.23 1.276l.55-1.298c-1.24-.858-3.04-1.364-4.78-1.364-3.91 0-5.67 1.958-5.67 4.224 0 5.698 9.48 3.102 9.48 7.326 0 1.518-1.26 2.728-4.14 2.728-2.02 0-3.98-.792-5.08-1.87l-.64 1.254c1.15 1.188 3.41 2.002 5.72 2.002zm13.54 0c3.94 0 5.74-1.936 5.74-4.202 0-5.61-9.48-3.058-9.48-7.282 0-1.54 1.25-2.794 4.07-2.794 1.36 0 2.9.418 4.22 1.276l.55-1.298c-1.23-.858-3.03-1.364-4.77-1.364-3.92 0-5.68 1.958-5.68 4.224 0 5.698 9.48 3.102 9.48 7.326 0 1.518-1.25 2.728-4.13 2.728-2.03 0-3.98-.792-5.08-1.87l-.64 1.254c1.14 1.188 3.41 2.002 5.72 2.002z" fill="#455260"/><path d="m885.568 772.132c4.62 0 8.074-3.322 8.074-7.832s-3.454-7.832-8.074-7.832c-4.664 0-8.096 3.344-8.096 7.832s3.432 7.832 8.096 7.832zm0-1.452c-3.718 0-6.49-2.706-6.49-6.38s2.772-6.38 6.49-6.38c3.696 0 6.446 2.706 6.446 6.38s-2.75 6.38-6.446 6.38zm17.355-10.34c-1.914 0-3.52.836-4.466 2.376v-2.288h-1.496v15.84h1.562v-6.446c.968 1.496 2.552 2.288 4.4 2.288 3.3 0 5.764-2.376 5.764-5.896 0-3.498-2.464-5.874-5.764-5.874zm-.11 10.384c-2.464 0-4.312-1.804-4.312-4.51 0-2.684 1.848-4.51 4.312-4.51 2.442 0 4.312 1.826 4.312 4.51 0 2.706-1.87 4.51-4.312 4.51zm14.602-.55c-.44.396-1.078.594-1.716.594-1.298 0-2.002-.748-2.002-2.112v-6.908h3.52v-1.32h-3.52v-2.53h-1.562v2.53h-2.068v1.32h2.068v6.996c0 2.134 1.21 3.366 3.388 3.366.902 0 1.826-.264 2.442-.814zm4.186-12.276c.66 0 1.144-.506 1.144-1.144 0-.594-.506-1.078-1.144-1.078s-1.144.506-1.144 1.1c0 .616.506 1.122 1.144 1.122zm-.792 14.102h1.562v-11.572h-1.562zm10.638.11c3.388 0 5.874-2.464 5.874-5.896s-2.486-5.874-5.874-5.874-5.896 2.442-5.896 5.874 2.508 5.896 5.896 5.896zm0-1.386c-2.464 0-4.312-1.804-4.312-4.51s1.848-4.51 4.312-4.51 4.29 1.804 4.29 4.51-1.826 4.51-4.29 4.51zm14.959-10.384c-2.002 0-3.564.814-4.4 2.222v-2.134h-1.496v11.572h1.562v-6.072c0-2.64 1.562-4.18 4.048-4.18 2.2 0 3.476 1.254 3.476 3.696v6.556h1.562v-6.71c0-3.322-1.936-4.95-4.752-4.95zm13.041 0c-1.826 0-3.542.572-4.708 1.562l.704 1.166c.946-.836 2.354-1.364 3.85-1.364 2.156 0 3.278 1.078 3.278 3.058v.704h-3.674c-3.322 0-4.466 1.496-4.466 3.278 0 2.002 1.606 3.366 4.224 3.366 1.914 0 3.278-.726 3.982-1.914v1.804h1.496v-7.172c0-2.992-1.694-4.488-4.686-4.488zm-.55 10.538c-1.848 0-2.926-.836-2.926-2.178 0-1.188.726-2.068 2.97-2.068h3.63v1.892c-.616 1.518-1.914 2.354-3.674 2.354zm9.478 1.122h1.562v-16.324h-1.562zm11.666 0h1.562v-16.324h-1.562zm9.956-11.66c-1.826 0-3.542.572-4.708 1.562l.704 1.166c.946-.836 2.354-1.364 3.85-1.364 2.156 0 3.278 1.078 3.278 3.058v.704h-3.674c-3.322 0-4.466 1.496-4.466 3.278 0 2.002 1.606 3.366 4.224 3.366 1.914 0 3.278-.726 3.982-1.914v1.804h1.496v-7.172c0-2.992-1.694-4.488-4.686-4.488zm-.55 10.538c-1.848 0-2.926-.836-2.926-2.178 0-1.188.726-2.068 2.97-2.068h3.63v1.892c-.616 1.518-1.914 2.354-3.674 2.354zm17.453-10.45-4.36 9.834-4.357-9.834h-1.628l5.175 11.55-.51 1.122c-.66 1.452-1.365 1.936-2.399 1.936-.836 0-1.54-.308-2.112-.88l-.726 1.166c.704.704 1.738 1.056 2.816 1.056 1.651 0 2.881-.726 3.851-2.992l5.79-12.958zm8.14 11.682c3.39 0 5.88-2.464 5.88-5.896s-2.49-5.874-5.88-5.874-5.89 2.442-5.89 5.874 2.5 5.896 5.89 5.896zm0-1.386c-2.46 0-4.31-1.804-4.31-4.51s1.85-4.51 4.31-4.51c2.47 0 4.29 1.804 4.29 4.51s-1.82 4.51-4.29 4.51zm17.93-10.296v6.072c0 2.64-1.52 4.202-3.94 4.202-2.2 0-3.47-1.254-3.47-3.718v-6.556h-1.56v6.71c0 3.322 1.93 4.972 4.88 4.972 1.85 0 3.34-.814 4.16-2.222v2.112h1.49v-11.572zm11.48 9.746c-.44.396-1.08.594-1.71.594-1.3 0-2.01-.748-2.01-2.112v-6.908h3.52v-1.32h-3.52v-2.53h-1.56v2.53h-2.07v1.32h2.07v6.996c0 2.134 1.21 3.366 3.39 3.366.9 0 1.83-.264 2.44-.814zm4.19-12.276c.66 0 1.14-.506 1.14-1.144 0-.594-.5-1.078-1.14-1.078s-1.15.506-1.15 1.1c0 .616.51 1.122 1.15 1.122zm-.79 14.102h1.56v-11.572h-1.56zm11.8-11.66c-2 0-3.56.814-4.4 2.222v-2.134h-1.5v11.572h1.57v-6.072c0-2.64 1.56-4.18 4.04-4.18 2.2 0 3.48 1.254 3.48 3.696v6.556h1.56v-6.71c0-3.322-1.93-4.95-4.75-4.95zm18.25.088v2.222c-.96-1.518-2.64-2.31-4.57-2.31-3.3 0-5.81 2.266-5.81 5.588s2.51 5.632 5.81 5.632c1.89 0 3.54-.77 4.51-2.244v1.474c0 2.86-1.34 4.202-4.27 4.202-1.78 0-3.45-.594-4.55-1.584l-.8 1.188c1.21 1.144 3.28 1.782 5.39 1.782 3.83 0 5.79-1.804 5.79-5.786v-10.164zm-4.42 9.746c-2.55 0-4.38-1.738-4.38-4.246s1.83-4.224 4.38-4.224 4.4 1.716 4.4 4.224-1.85 4.246-4.4 4.246zm31.6-9.746-3.67 9.834-3.7-9.834h-1.34l-3.72 9.834-3.63-9.834h-1.5l4.36 11.572h1.47l3.66-9.482 3.65 9.482h1.47l4.38-11.572zm4.57-2.53c.66 0 1.15-.506 1.15-1.144 0-.594-.51-1.078-1.15-1.078-.63 0-1.14.506-1.14 1.1 0 .616.51 1.122 1.14 1.122zm-.79 14.102h1.56v-11.572h-1.56zm11.45-1.826c-.44.396-1.07.594-1.71.594-1.3 0-2-.748-2-2.112v-6.908h3.52v-1.32h-3.52v-2.53h-1.57v2.53h-2.06v1.32h2.06v6.996c0 2.134 1.21 3.366 3.39 3.366.9 0 1.83-.264 2.44-.814zm9.29-9.834c-1.95 0-3.47.77-4.33 2.112v-6.776h-1.56v16.324h1.56v-6.072c0-2.64 1.56-4.18 4.05-4.18 2.2 0 3.47 1.254 3.47 3.696v6.556h1.57v-6.71c0-3.322-1.94-4.95-4.76-4.95zm26.35-3.74v6.864h-9.64v-6.864h-1.63v15.4h1.63v-7.106h9.64v7.106h1.6v-15.4zm9.62 15.4h1.63v-13.992h5.41v-1.408h-12.45v1.408h5.41zm24.3-15.4-6.63 11.418-6.68-11.418h-1.35v15.4h1.57v-12.254l6.05 10.296h.77l6.05-10.362v12.32h1.56v-15.4zm6.35 15.4h10.26v-1.408h-8.63v-13.992h-1.63z" fill="#455260"/><path d="m274.497 764.058c1.408-.572 2.354-1.738 2.354-3.498 0-2.508-1.98-3.96-5.412-3.96h-6.644v15.4h7.084c3.85 0 5.786-1.496 5.786-4.114 0-2.09-1.188-3.388-3.168-3.828zm-3.168-6.116c2.464 0 3.894.946 3.894 2.794s-1.43 2.794-3.894 2.794h-4.906v-5.588zm.528 12.716h-5.434v-5.786h5.434c2.706 0 4.18.88 4.18 2.882 0 2.024-1.474 2.904-4.18 2.904zm18.06-10.23v6.072c0 2.64-1.518 4.202-3.938 4.202-2.2 0-3.476-1.254-3.476-3.718v-6.556h-1.562v6.71c0 3.322 1.936 4.972 4.884 4.972 1.848 0 3.344-.814 4.158-2.222v2.112h1.496v-11.572zm6.729-2.53c.66 0 1.144-.506 1.144-1.144 0-.594-.506-1.078-1.144-1.078s-1.144.506-1.144 1.1c0 .616.506 1.122 1.144 1.122zm-.792 14.102h1.562v-11.572h-1.562zm5.908 0h1.562v-16.324h-1.562zm11.495-1.826c-.44.396-1.078.594-1.716.594-1.298 0-2.002-.748-2.002-2.112v-6.908h3.52v-1.32h-3.52v-2.53h-1.562v2.53h-2.068v1.32h2.068v6.996c0 2.134 1.21 3.366 3.388 3.366.902 0 1.826-.264 2.442-.814zm2.321-3.454h5.764v-1.364h-5.764zm10.05-8.822c.66 0 1.144-.506 1.144-1.144 0-.594-.506-1.078-1.144-1.078s-1.144.506-1.144 1.1c0 .616.506 1.122 1.144 1.122zm-.792 14.102h1.562v-11.572h-1.562zm11.804-11.66c-2.002 0-3.564.814-4.4 2.222v-2.134h-1.496v11.572h1.562v-6.072c0-2.64 1.562-4.18 4.048-4.18 2.2 0 3.476 1.254 3.476 3.696v6.556h1.562v-6.71c0-3.322-1.936-4.95-4.752-4.95zm19.481 11.77c3.388 0 5.874-2.464 5.874-5.896s-2.486-5.874-5.874-5.874-5.896 2.442-5.896 5.874 2.508 5.896 5.896 5.896zm0-1.386c-2.464 0-4.312-1.804-4.312-4.51s1.848-4.51 4.312-4.51 4.29 1.804 4.29 4.51-1.826 4.51-4.29 4.51zm10.559-8.03v-2.266h-1.496v11.572h1.562v-5.896c0-2.728 1.474-4.268 3.894-4.268.11 0 .242.022.374.022v-1.518c-2.134 0-3.608.814-4.334 2.354zm17.888 9.416c1.958 0 3.608-.792 4.532-2.288l-1.166-.792c-.792 1.166-2.024 1.694-3.366 1.694-2.53 0-4.378-1.782-4.378-4.51 0-2.706 1.848-4.51 4.378-4.51 1.342 0 2.574.55 3.366 1.716l1.166-.792c-.924-1.518-2.574-2.288-4.532-2.288-3.454 0-5.962 2.42-5.962 5.874s2.508 5.896 5.962 5.896zm16.466-11.682v6.072c0 2.64-1.518 4.202-3.938 4.202-2.2 0-3.476-1.254-3.476-3.718v-6.556h-1.562v6.71c0 3.322 1.936 4.972 4.884 4.972 1.848 0 3.344-.814 4.158-2.222v2.112h1.496v-11.572zm9.039 11.682c3.014 0 4.774-1.298 4.774-3.3 0-4.444-7.502-2.09-7.502-5.214 0-1.1.924-1.914 3.014-1.914 1.188 0 2.398.286 3.41.99l.682-1.254c-.968-.66-2.596-1.078-4.092-1.078-2.948 0-4.576 1.408-4.576 3.3 0 4.576 7.502 2.2 7.502 5.214 0 1.144-.902 1.892-3.102 1.892-1.628 0-3.19-.572-4.114-1.298l-.704 1.232c.946.814 2.794 1.43 4.708 1.43zm13.206-1.936c-.44.396-1.078.594-1.716.594-1.298 0-2.002-.748-2.002-2.112v-6.908h3.52v-1.32h-3.52v-2.53h-1.562v2.53h-2.068v1.32h2.068v6.996c0 2.134 1.21 3.366 3.388 3.366.902 0 1.826-.264 2.442-.814zm7.715 1.936c3.388 0 5.874-2.464 5.874-5.896s-2.486-5.874-5.874-5.874-5.896 2.442-5.896 5.874 2.508 5.896 5.896 5.896zm0-1.386c-2.464 0-4.312-1.804-4.312-4.51s1.848-4.51 4.312-4.51 4.29 1.804 4.29 4.51-1.826 4.51-4.29 4.51zm23.495-10.384c-2.09 0-3.74.946-4.576 2.442-.704-1.628-2.2-2.442-4.114-2.442-1.936 0-3.432.814-4.246 2.2v-2.112h-1.496v11.572h1.562v-6.072c0-2.64 1.518-4.18 3.872-4.18 2.112 0 3.344 1.254 3.344 3.696v6.556h1.562v-6.072c0-2.64 1.496-4.18 3.872-4.18 2.09 0 3.322 1.254 3.322 3.696v6.556h1.562v-6.71c0-3.322-1.848-4.95-4.664-4.95zm21.192 11.792c3.938 0 6.314-2.288 6.314-6.71v-8.822h-1.584v8.756c0 3.652-1.716 5.324-4.73 5.324-2.992 0-4.708-1.672-4.708-5.324v-8.756h-1.628v8.822c0 4.422 2.398 6.71 6.336 6.71zm11.22-.132h1.628v-15.4h-1.628zm19.084.132c2.266 0 4.29-.77 5.654-2.266l-1.034-1.034c-1.254 1.298-2.794 1.848-4.554 1.848-3.718 0-6.512-2.728-6.512-6.38s2.794-6.38 6.512-6.38c1.76 0 3.3.55 4.554 1.826l1.034-1.034c-1.364-1.496-3.388-2.244-5.632-2.244-4.642 0-8.074 3.322-8.074 7.832s3.432 7.832 8.052 7.832zm13.009-.022c3.388 0 5.874-2.464 5.874-5.896s-2.486-5.874-5.874-5.874-5.896 2.442-5.896 5.874 2.508 5.896 5.896 5.896zm0-1.386c-2.464 0-4.312-1.804-4.312-4.51s1.848-4.51 4.312-4.51 4.29 1.804 4.29 4.51-1.826 4.51-4.29 4.51zm23.495-10.384c-2.09 0-3.74.946-4.576 2.442-.704-1.628-2.2-2.442-4.114-2.442-1.936 0-3.432.814-4.246 2.2v-2.112h-1.496v11.572h1.562v-6.072c0-2.64 1.518-4.18 3.872-4.18 2.112 0 3.344 1.254 3.344 3.696v6.556h1.562v-6.072c0-2.64 1.496-4.18 3.872-4.18 2.09 0 3.322 1.254 3.322 3.696v6.556h1.562v-6.71c0-3.322-1.848-4.95-4.664-4.95zm14.862 0c-1.914 0-3.52.836-4.466 2.376v-2.288h-1.496v15.84h1.562v-6.446c.968 1.496 2.552 2.288 4.4 2.288 3.3 0 5.764-2.376 5.764-5.896 0-3.498-2.464-5.874-5.764-5.874zm-.11 10.384c-2.464 0-4.312-1.804-4.312-4.51 0-2.684 1.848-4.51 4.312-4.51 2.442 0 4.312 1.826 4.312 4.51 0 2.706-1.87 4.51-4.312 4.51zm13.788 1.386c3.388 0 5.874-2.464 5.874-5.896s-2.486-5.874-5.874-5.874-5.896 2.442-5.896 5.874 2.508 5.896 5.896 5.896zm0-1.386c-2.464 0-4.312-1.804-4.312-4.51s1.848-4.51 4.312-4.51 4.29 1.804 4.29 4.51-1.826 4.51-4.29 4.51zm14.959-10.384c-2.002 0-3.564.814-4.4 2.222v-2.134h-1.496v11.572h1.562v-6.072c0-2.64 1.562-4.18 4.048-4.18 2.2 0 3.476 1.254 3.476 3.696v6.556h1.562v-6.71c0-3.322-1.936-4.95-4.752-4.95zm19.134 5.874c0-3.476-2.354-5.874-5.61-5.874s-5.654 2.442-5.654 5.874 2.464 5.896 6.072 5.896c1.826 0 3.432-.66 4.466-1.892l-.88-1.012c-.88 1.012-2.134 1.518-3.542 1.518-2.53 0-4.378-1.606-4.554-4.026h9.68c0-.176.022-.352.022-.484zm-5.61-4.532c2.266 0 3.916 1.584 4.114 3.85h-8.206c.198-2.266 1.848-3.85 4.092-3.85zm14.685-1.342c-2.002 0-3.564.814-4.4 2.222v-2.134h-1.496v11.572h1.562v-6.072c0-2.64 1.562-4.18 4.048-4.18 2.2 0 3.476 1.254 3.476 3.696v6.556h1.562v-6.71c0-3.322-1.936-4.95-4.752-4.95zm14.537 9.834c-.44.396-1.078.594-1.716.594-1.298 0-2.002-.748-2.002-2.112v-6.908h3.52v-1.32h-3.52v-2.53h-1.562v2.53h-2.068v1.32h2.068v6.996c0 2.134 1.21 3.366 3.388 3.366.902 0 1.826-.264 2.442-.814zm6.495 1.936c3.014 0 4.774-1.298 4.774-3.3 0-4.444-7.502-2.09-7.502-5.214 0-1.1.924-1.914 3.014-1.914 1.188 0 2.398.286 3.41.99l.682-1.254c-.968-.66-2.596-1.078-4.092-1.078-2.948 0-4.576 1.408-4.576 3.3 0 4.576 7.502 2.2 7.502 5.214 0 1.144-.902 1.892-3.102 1.892-1.628 0-3.19-.572-4.114-1.298l-.704 1.232c.946.814 2.794 1.43 4.708 1.43z" fill="#455260"/><path d="m168.75 1242.9c1.35-.73 2.25-2.05 2.25-3.85 0-2.78-2.25-4.55-6.45-4.55h-8.2v17.5h8.7c4.5 0 6.85-1.75 6.85-4.75 0-2.28-1.275-3.75-3.15-4.35zm-4.55-5.85c2.25 0 3.525.8 3.525 2.42 0 1.6-1.275 2.4-3.525 2.4h-4.6v-4.82zm.65 12.4h-5.25v-5.05h5.25c2.45 0 3.775.77 3.775 2.52s-1.325 2.53-3.775 2.53zm15.319-10.95c-2.15 0-4.225.55-5.65 1.65l1.225 2.27c1-.82 2.55-1.32 4.05-1.32 2.225 0 3.325 1.07 3.325 2.9v.2h-3.45c-4.05 0-5.55 1.75-5.55 3.97 0 2.33 1.925 4.01 4.975 4.01 2 0 3.45-.66 4.2-1.81v1.63h2.95v-7.83c0-3.85-2.225-5.67-6.075-5.67zm-.425 11.4c-1.6 0-2.55-.73-2.55-1.85 0-.98.575-1.78 2.7-1.78h3.225v1.55c-.525 1.38-1.85 2.08-3.375 2.08zm16.757 2.28c2.6 0 4.675-1.13 5.7-3.13l-2.4-1.4c-.8 1.27-2 1.85-3.325 1.85-2.3 0-4.05-1.58-4.05-4.18 0-2.57 1.75-4.17 4.05-4.17 1.325 0 2.525.57 3.325 1.85l2.4-1.4c-1.025-2.03-3.1-3.1-5.7-3.1-4.225 0-7.225 2.82-7.225 6.82s3 6.86 7.225 6.86zm18.354-.18h3.8l-6.1-7.75 5.575-5.6h-3.75l-6.475 6v-11.2h-3.125v18.55h3.125v-3.53l2.325-2.2zm25.278-6.6c0-4.18-2.85-6.9-6.75-6.9-3.975 0-6.9 2.85-6.9 6.82 0 3.98 2.9 6.86 7.375 6.86 2.3 0 4.175-.76 5.375-2.18l-1.675-1.93c-.95.98-2.125 1.45-3.625 1.45-2.325 0-3.95-1.25-4.325-3.2h10.475c.025-.3.05-.67.05-.92zm-6.75-4.4c2.05 0 3.525 1.32 3.775 3.25h-7.575c.3-1.95 1.775-3.25 3.8-3.25zm17.327-2.5c-1.95 0-3.575.65-4.6 1.87v-1.72h-2.975v13.35h3.125v-6.75c0-2.68 1.5-4.03 3.725-4.03 2 0 3.175 1.15 3.175 3.53v7.25h3.125v-7.65c0-4.03-2.375-5.85-5.575-5.85zm19.611-5.05v6.85c-1.05-1.23-2.575-1.8-4.3-1.8-3.875 0-6.75 2.67-6.75 6.82s2.875 6.86 6.75 6.86c1.825 0 3.375-.63 4.425-1.91v1.73h3v-18.55zm-3.925 16.05c-2.25 0-3.975-1.63-3.975-4.18s1.725-4.17 3.975-4.17 3.975 1.62 3.975 4.17-1.725 4.18-3.975 4.18z" fill="#000"/><path d="m165.5 872.5h1763v141h-1763z" fill="#fff" stroke="#2d3033" stroke-width="3"/><path d="m936.803 963.6h-1.628l-5.28 8.646-5.28-8.646h-1.738l6.16 10.076v5.324h1.606v-5.324zm5.615 15.51c3.388 0 5.874-2.464 5.874-5.896s-2.486-5.874-5.874-5.874-5.896 2.442-5.896 5.874 2.508 5.896 5.896 5.896zm0-1.386c-2.464 0-4.312-1.804-4.312-4.51s1.848-4.51 4.312-4.51 4.29 1.804 4.29 4.51-1.826 4.51-4.29 4.51zm17.929-10.296v6.072c0 2.64-1.518 4.202-3.938 4.202-2.2 0-3.476-1.254-3.476-3.718v-6.556h-1.562v6.71c0 3.322 1.936 4.972 4.884 4.972 1.848 0 3.344-.814 4.158-2.222v2.112h1.496v-11.572zm7.432 2.266v-2.266h-1.496v11.572h1.562v-5.896c0-2.728 1.474-4.268 3.894-4.268.11 0 .242.022.374.022v-1.518c-2.134 0-3.608.814-4.334 2.354zm21.958-2.266v6.072c0 2.64-1.518 4.202-3.938 4.202-2.2 0-3.476-1.254-3.476-3.718v-6.556h-1.562v6.71c0 3.322 1.936 4.972 4.884 4.972 1.848 0 3.344-.814 4.158-2.222v2.112h1.496v-11.572zm9.039 11.682c3.014 0 4.774-1.298 4.774-3.3 0-4.444-7.502-2.09-7.502-5.214 0-1.1.924-1.914 3.014-1.914 1.188 0 2.398.286 3.408.99l.68-1.254c-.96-.66-2.59-1.078-4.088-1.078-2.948 0-4.576 1.408-4.576 3.3 0 4.576 7.504 2.2 7.504 5.214 0 1.144-.9 1.892-3.104 1.892-1.628 0-3.19-.572-4.114-1.298l-.704 1.232c.946.814 2.794 1.43 4.708 1.43zm17.764-5.896c0-3.476-2.36-5.874-5.61-5.874-3.26 0-5.66 2.442-5.66 5.874s2.47 5.896 6.07 5.896c1.83 0 3.44-.66 4.47-1.892l-.88-1.012c-.88 1.012-2.13 1.518-3.54 1.518-2.53 0-4.38-1.606-4.56-4.026h9.68c0-.176.03-.352.03-.484zm-5.61-4.532c2.26 0 3.91 1.584 4.11 3.85h-8.21c.2-2.266 1.85-3.85 4.1-3.85zm10.28 1.012v-2.266h-1.49v11.572h1.56v-5.896c0-2.728 1.47-4.268 3.89-4.268.11 0 .24.022.38.022v-1.518c-2.14 0-3.61.814-4.34 2.354zm13.89-4.796c.66 0 1.14-.506 1.14-1.144 0-.594-.51-1.078-1.14-1.078-.64 0-1.15.506-1.15 1.1 0 .616.51 1.122 1.15 1.122zm-.8 14.102h1.57v-11.572h-1.57zm11.81-11.66c-2 0-3.57.814-4.4 2.222v-2.134h-1.5v11.572h1.56v-6.072c0-2.64 1.57-4.18 4.05-4.18 2.2 0 3.48 1.254 3.48 3.696v6.556h1.56v-6.71c0-3.322-1.94-4.95-4.75-4.95zm14.53 9.834c-.44.396-1.07.594-1.71.594-1.3 0-2-.748-2-2.112v-6.908h3.52v-1.32h-3.52v-2.53h-1.57v2.53h-2.06v1.32h2.06v6.996c0 2.134 1.21 3.366 3.39 3.366.9 0 1.83-.264 2.44-.814zm13.09-3.96c0-3.476-2.36-5.874-5.61-5.874-3.26 0-5.66 2.442-5.66 5.874s2.47 5.896 6.08 5.896c1.82 0 3.43-.66 4.46-1.892l-.88-1.012c-.88 1.012-2.13 1.518-3.54 1.518-2.53 0-4.38-1.606-4.55-4.026h9.68c0-.176.02-.352.02-.484zm-5.61-4.532c2.26 0 3.91 1.584 4.11 3.85h-8.2c.19-2.266 1.84-3.85 4.09-3.85zm10.28 1.012v-2.266h-1.49v11.572h1.56v-5.896c0-2.728 1.47-4.268 3.89-4.268.11 0 .24.022.38.022v-1.518c-2.14 0-3.61.814-4.34 2.354zm11.16-5.808c.66 0 1.28.198 1.72.572l.53-1.166c-.57-.484-1.45-.726-2.31-.726-2.27 0-3.5 1.364-3.5 3.432v1.43h-2.07v1.32h2.07v10.252h1.56v-10.252h3.52v-1.32h-3.56v-1.364c0-1.43.7-2.178 2.04-2.178zm7.46 3.454c-1.82 0-3.54.572-4.7 1.562l.7 1.166c.95-.836 2.35-1.364 3.85-1.364 2.16 0 3.28 1.078 3.28 3.058v.704h-3.68c-3.32 0-4.46 1.496-4.46 3.278 0 2.002 1.6 3.366 4.22 3.366 1.92 0 3.28-.726 3.98-1.914v1.804h1.5v-7.172c0-2.992-1.69-4.488-4.69-4.488zm-.55 10.538c-1.84 0-2.92-.836-2.92-2.178 0-1.188.72-2.068 2.97-2.068h3.63v1.892c-.62 1.518-1.92 2.354-3.68 2.354zm14.32 1.232c1.96 0 3.61-.792 4.53-2.288l-1.16-.792c-.79 1.166-2.03 1.694-3.37 1.694-2.53 0-4.38-1.782-4.38-4.51 0-2.706 1.85-4.51 4.38-4.51 1.34 0 2.58.55 3.37 1.716l1.16-.792c-.92-1.518-2.57-2.288-4.53-2.288-3.45 0-5.96 2.42-5.96 5.874s2.51 5.896 5.96 5.896zm17.51-5.896c0-3.476-2.36-5.874-5.61-5.874-3.26 0-5.66 2.442-5.66 5.874s2.47 5.896 6.08 5.896c1.82 0 3.43-.66 4.46-1.892l-.88-1.012c-.88 1.012-2.13 1.518-3.54 1.518-2.53 0-4.38-1.606-4.55-4.026h9.68c0-.176.02-.352.02-.484zm-5.61-4.532c2.26 0 3.91 1.584 4.11 3.85h-8.2c.19-2.266 1.84-3.85 4.09-3.85zm14.54 10.318h1.57v-16.324h-1.57zm10.64.11c3.39 0 5.88-2.464 5.88-5.896s-2.49-5.874-5.88-5.874-5.89 2.442-5.89 5.874 2.5 5.896 5.89 5.896zm0-1.386c-2.46 0-4.31-1.804-4.31-4.51s1.85-4.51 4.31-4.51c2.47 0 4.29 1.804 4.29 4.51s-1.82 4.51-4.29 4.51zm18.28-10.296v2.222c-.96-1.518-2.64-2.31-4.57-2.31-3.3 0-5.81 2.266-5.81 5.588s2.51 5.632 5.81 5.632c1.89 0 3.54-.77 4.51-2.244v1.474c0 2.86-1.34 4.202-4.27 4.202-1.78 0-3.45-.594-4.55-1.584l-.8 1.188c1.21 1.144 3.28 1.782 5.39 1.782 3.83 0 5.79-1.804 5.79-5.786v-10.164zm-4.42 9.746c-2.55 0-4.38-1.738-4.38-4.246s1.83-4.224 4.38-4.224 4.4 1.716 4.4 4.224-1.85 4.246-4.4 4.246zm11.08-12.276c.66 0 1.14-.506 1.14-1.144 0-.594-.5-1.078-1.14-1.078s-1.14.506-1.14 1.1c0 .616.5 1.122 1.14 1.122zm-.79 14.102h1.56v-11.572h-1.56zm10.7.11c1.96 0 3.61-.792 4.53-2.288l-1.16-.792c-.79 1.166-2.03 1.694-3.37 1.694-2.53 0-4.38-1.782-4.38-4.51 0-2.706 1.85-4.51 4.38-4.51 1.34 0 2.58.55 3.37 1.716l1.16-.792c-.92-1.518-2.57-2.288-4.53-2.288-3.45 0-5.96 2.42-5.96 5.874s2.51 5.896 5.96 5.896z" fill="#455260"/><path d="m85 1171.5h1925" stroke="#000" stroke-dasharray="8 8" stroke-width="3"/><path d="m893.726 933.2c4.625 0 7.4-2.675 7.4-7.75v-9.95h-2.425v9.85c0 3.875-1.8 5.625-4.95 5.625s-4.925-1.75-4.925-5.625v-9.85h-2.5v9.95c0 5.075 2.8 7.75 7.4 7.75zm19.625 0c4.625 0 6.775-2.3 6.775-4.975 0-6.425-10.6-3.75-10.6-8.025 0-1.525 1.275-2.775 4.25-2.775 1.55 0 3.275.45 4.8 1.425l.825-2c-1.45-1-3.575-1.55-5.625-1.55-4.6 0-6.7 2.3-6.7 5 0 6.5 10.6 3.8 10.6 8.075 0 1.525-1.3 2.7-4.325 2.7-2.25 0-4.475-.85-5.775-2.025l-.925 1.95c1.4 1.3 4.025 2.2 6.7 2.2zm14.928-2.375v-5.65h8.775v-2.125h-8.775v-5.375h9.85v-2.175h-12.35v17.5h12.7v-2.175zm30.673 2.175-4.15-5.875c2.45-.875 3.85-2.825 3.85-5.525 0-3.8-2.75-6.1-7.3-6.1h-6.825v17.5h2.5v-5.325h4.325c.375 0 .75-.025 1.1-.05l3.775 5.375zm-7.675-7.45h-4.25v-7.875h4.25c3.2 0 4.875 1.425 4.875 3.925s-1.675 3.95-4.875 3.95zm22.128 7.45h2.5v-17.5h-2.5zm22.289-17.5v13.05l-10.5-13.05h-2.05v17.5h2.5v-13.05l10.5 13.05h2.05v-17.5zm13.216 17.5h2.47v-15.325h6v-2.175h-14.47v2.175h6zm15.69-2.175v-5.65h8.78v-2.125h-8.78v-5.375h9.85v-2.175h-12.35v17.5h12.7v-2.175zm30.68 2.175-4.15-5.875c2.45-.875 3.85-2.825 3.85-5.525 0-3.8-2.75-6.1-7.3-6.1h-6.83v17.5h2.5v-5.325h4.33c.37 0 .75-.025 1.1-.05l3.77 5.375zm-7.68-7.45h-4.25v-7.875h4.25c3.2 0 4.88 1.425 4.88 3.925s-1.68 3.95-4.88 3.95zm25.77-7.875v-2.175h-12.35v17.5h2.5v-7.075h8.77v-2.15h-8.77v-6.1zm17.79 15.325h2.62l-7.95-17.5h-2.47l-7.93 17.5h2.58l1.92-4.375h9.3zm-10.35-6.375 3.77-8.575 3.78 8.575zm25.16 6.575c2.73 0 5.08-.95 6.68-2.75l-1.63-1.575c-1.35 1.425-3 2.1-4.92 2.1-3.95 0-6.88-2.85-6.88-6.725s2.93-6.725 6.88-6.725c1.92 0 3.57.65 4.92 2.075l1.63-1.575c-1.6-1.8-3.95-2.725-6.65-2.725-5.33 0-9.28 3.775-9.28 8.95s3.95 8.95 9.25 8.95zm14.74-2.375v-5.65h8.78v-2.125h-8.78v-5.375h9.85v-2.175h-12.35v17.5h12.7v-2.175zm32.79 2.375c2.73 0 5.08-.95 6.68-2.75l-1.63-1.575c-1.35 1.425-3 2.1-4.92 2.1-3.95 0-6.88-2.85-6.88-6.725s2.93-6.725 6.88-6.725c1.92 0 3.57.65 4.92 2.075l1.63-1.575c-1.6-1.8-3.95-2.725-6.65-2.725-5.33 0-9.28 3.775-9.28 8.95s3.95 8.95 9.25 8.95zm19.78 0c5.32 0 9.27-3.8 9.27-8.95s-3.95-8.95-9.27-8.95c-5.38 0-9.33 3.825-9.33 8.95s3.95 8.95 9.33 8.95zm0-2.225c-3.93 0-6.83-2.85-6.83-6.725s2.9-6.725 6.83-6.725c3.87 0 6.77 2.85 6.77 6.725s-2.9 6.725-6.77 6.725zm15.09 2.025h7.38c5.62 0 9.45-3.55 9.45-8.75s-3.83-8.75-9.45-8.75h-7.38zm2.5-2.175v-13.15h4.73c4.32 0 7.1 2.65 7.1 6.575s-2.78 6.575-7.1 6.575zm22.66 0v-5.65h8.77v-2.125h-8.77v-5.375h9.85v-2.175h-12.35v17.5h12.7v-2.175z" fill="#000"/><path d="m1018.94 496.061c.59.585 1.53.585 2.12 0l9.55-9.546c.58-.586.58-1.536 0-2.122-.59-.585-1.54-.585-2.12 0l-8.49 8.486-8.49-8.486c-.58-.585-1.53-.585-2.12 0-.58.586-.58 1.536 0 2.122zm-.44-158.061v157h3v-157z" fill="#000"/><path d="m1077.07 340.122c-.58-.586-1.53-.586-2.12 0l-9.61 9.546c-.59.585-.6 1.535-.02 2.121.59.586 1.54.586 2.13 0l8.54-8.485 8.43 8.485c.58.586 1.53.586 2.12 0s.59-1.536.01-2.121zm-.57 154.878 1-153.818h-3l-1 153.818z" fill="#000"/><path d="m1017.93 1171.61c.58.58 1.53.58 2.12 0l9.64-9.55c.6-.58.61-1.53.03-2.12s-1.53-.59-2.12 0l-8.58 8.48-8.39-8.48c-.58-.59-1.53-.59-2.13 0-.59.59-.6 1.54-.02 2.12zm.78-117.61-1.21 116.55h3l1.21-116.55z" fill="#000"/><path d="m1077.06 1052.94c-.59-.59-1.53-.59-2.12 0l-9.55 9.55c-.58.58-.58 1.53 0 2.12.59.58 1.54.58 2.12 0l8.49-8.49 8.49 8.49c.58.58 1.53.58 2.12 0 .58-.59.58-1.54 0-2.12zm.44 120.06v-119h-3v119z" fill="#000"/><path d="m160.754 1292.13c3.938 0 5.742-1.93 5.742-4.2 0-5.61-9.482-3.06-9.482-7.28 0-1.54 1.254-2.8 4.07-2.8 1.364 0 2.904.42 4.224 1.28l.55-1.3c-1.232-.86-3.036-1.36-4.774-1.36-3.916 0-5.676 1.96-5.676 4.22 0 5.7 9.482 3.1 9.482 7.33 0 1.52-1.254 2.73-4.136 2.73-2.024 0-3.982-.8-5.082-1.87l-.638 1.25c1.144 1.19 3.41 2 5.72 2zm13.007-11.79c-1.826 0-3.542.57-4.708 1.56l.704 1.17c.946-.84 2.354-1.37 3.85-1.37 2.156 0 3.278 1.08 3.278 3.06v.71h-3.674c-3.322 0-4.466 1.49-4.466 3.27 0 2.01 1.606 3.37 4.224 3.37 1.914 0 3.278-.73 3.982-1.91v1.8h1.496v-7.17c0-2.99-1.694-4.49-4.686-4.49zm-.55 10.54c-1.848 0-2.926-.84-2.926-2.18 0-1.19.726-2.07 2.97-2.07h3.63v1.89c-.616 1.52-1.914 2.36-3.674 2.36zm23.911-10.54c-2.09 0-3.74.95-4.576 2.44-.704-1.63-2.2-2.44-4.114-2.44-1.936 0-3.432.81-4.246 2.2v-2.11h-1.496v11.57h1.562v-6.07c0-2.64 1.518-4.18 3.872-4.18 2.112 0 3.344 1.25 3.344 3.69v6.56h1.562v-6.07c0-2.64 1.496-4.18 3.872-4.18 2.09 0 3.322 1.25 3.322 3.69v6.56h1.562v-6.71c0-3.32-1.848-4.95-4.664-4.95zm19.041 5.87c0-3.47-2.354-5.87-5.61-5.87s-5.654 2.44-5.654 5.87c0 3.44 2.464 5.9 6.072 5.9 1.826 0 3.432-.66 4.466-1.89l-.88-1.01c-.88 1.01-2.134 1.51-3.542 1.51-2.53 0-4.378-1.6-4.554-4.02h9.68c0-.18.022-.35.022-.49zm-5.61-4.53c2.266 0 3.916 1.59 4.114 3.85h-8.206c.198-2.26 1.848-3.85 4.092-3.85zm19.277 10.43c3.388 0 5.874-2.46 5.874-5.9 0-3.43-2.486-5.87-5.874-5.87s-5.896 2.44-5.896 5.87c0 3.44 2.508 5.9 5.896 5.9zm0-1.39c-2.464 0-4.312-1.8-4.312-4.51 0-2.7 1.848-4.51 4.312-4.51s4.29 1.81 4.29 4.51c0 2.71-1.826 4.51-4.29 4.51zm10.559-8.03v-2.26h-1.496v11.57h1.562v-5.9c0-2.72 1.474-4.26 3.894-4.26.11 0 .242.02.374.02v-1.52c-2.134 0-3.608.81-4.334 2.35zm22.09-7.01v6.95c-.968-1.5-2.552-2.29-4.4-2.29-3.3 0-5.764 2.38-5.764 5.87 0 3.5 2.464 5.9 5.764 5.9 1.914 0 3.52-.84 4.466-2.4v2.29h1.496v-16.32zm-4.268 15.04c-2.464 0-4.312-1.8-4.312-4.51 0-2.7 1.848-4.51 4.312-4.51 2.442 0 4.29 1.81 4.29 4.51 0 2.71-1.848 4.51-4.29 4.51zm10.972-12.82c.66 0 1.144-.51 1.144-1.15 0-.59-.506-1.07-1.144-1.07s-1.144.5-1.144 1.1c0 .61.506 1.12 1.144 1.12zm-.792 14.1h1.562v-11.57h-1.562zm9.736-15.11c.66 0 1.276.19 1.716.57l.528-1.17c-.572-.48-1.452-.72-2.31-.72-2.266 0-3.498 1.36-3.498 3.43v1.43h-2.068v1.32h2.068v10.25h1.562v-10.25h3.52v-1.32h-3.564v-1.37c0-1.43.704-2.17 2.046-2.17zm7.455 0c.66 0 1.276.19 1.716.57l.528-1.17c-.572-.48-1.452-.72-2.31-.72-2.266 0-3.498 1.36-3.498 3.43v1.43h-2.068v1.32h2.068v10.25h1.562v-10.25h3.52v-1.32h-3.564v-1.37c0-1.43.704-2.17 2.046-2.17zm13.532 9.32c0-3.47-2.354-5.87-5.61-5.87s-5.654 2.44-5.654 5.87c0 3.44 2.464 5.9 6.072 5.9 1.826 0 3.432-.66 4.466-1.89l-.88-1.01c-.88 1.01-2.134 1.51-3.542 1.51-2.53 0-4.378-1.6-4.554-4.02h9.68c0-.18.022-.35.022-.49zm-5.61-4.53c2.266 0 3.916 1.59 4.114 3.85h-8.206c.198-2.26 1.848-3.85 4.092-3.85zm10.285 1.01v-2.26h-1.496v11.57h1.562v-5.9c0-2.72 1.474-4.26 3.894-4.26.11 0 .242.02.374.02v-1.52c-2.134 0-3.608.81-4.334 2.35zm17.153 3.52c0-3.47-2.354-5.87-5.61-5.87s-5.654 2.44-5.654 5.87c0 3.44 2.464 5.9 6.072 5.9 1.826 0 3.432-.66 4.466-1.89l-.88-1.01c-.88 1.01-2.134 1.51-3.542 1.51-2.53 0-4.378-1.6-4.554-4.02h9.68c0-.18.022-.35.022-.49zm-5.61-4.53c2.266 0 3.916 1.59 4.114 3.85h-8.206c.198-2.26 1.848-3.85 4.092-3.85zm14.685-1.34c-2.002 0-3.564.81-4.4 2.22v-2.13h-1.496v11.57h1.562v-6.07c0-2.64 1.562-4.18 4.048-4.18 2.2 0 3.476 1.25 3.476 3.69v6.56h1.562v-6.71c0-3.32-1.936-4.95-4.752-4.95zm14.537 9.83c-.44.4-1.078.6-1.716.6-1.298 0-2.002-.75-2.002-2.11v-6.91h3.52v-1.32h-3.52v-2.53h-1.562v2.53h-2.068v1.32h2.068v6.99c0 2.14 1.21 3.37 3.388 3.37.902 0 1.826-.26 2.442-.81zm13.199-9.83c-1.826 0-3.542.57-4.708 1.56l.704 1.17c.946-.84 2.354-1.37 3.85-1.37 2.156 0 3.278 1.08 3.278 3.06v.71h-3.674c-3.322 0-4.466 1.49-4.466 3.27 0 2.01 1.606 3.37 4.224 3.37 1.914 0 3.278-.73 3.982-1.91v1.8h1.496v-7.17c0-2.99-1.694-4.49-4.686-4.49zm-.55 10.54c-1.848 0-2.926-.84-2.926-2.18 0-1.19.726-2.07 2.97-2.07h3.63v1.89c-.616 1.52-1.914 2.36-3.674 2.36zm15.441-10.54c-1.914 0-3.52.84-4.466 2.38v-2.29h-1.496v15.84h1.562v-6.45c.968 1.5 2.552 2.29 4.4 2.29 3.3 0 5.764-2.38 5.764-5.9 0-3.49-2.464-5.87-5.764-5.87zm-.11 10.38c-2.464 0-4.312-1.8-4.312-4.51 0-2.68 1.848-4.51 4.312-4.51 2.442 0 4.312 1.83 4.312 4.51 0 2.71-1.87 4.51-4.312 4.51zm15.02-10.38c-1.914 0-3.52.84-4.466 2.38v-2.29h-1.496v15.84h1.562v-6.45c.968 1.5 2.552 2.29 4.4 2.29 3.3 0 5.764-2.38 5.764-5.9 0-3.49-2.464-5.87-5.764-5.87zm-.11 10.38c-2.464 0-4.312-1.8-4.312-4.51 0-2.68 1.848-4.51 4.312-4.51 2.442 0 4.312 1.83 4.312 4.51 0 2.71-1.87 4.51-4.312 4.51zm9.058 1.28h1.562v-16.32h-1.562zm6.7-14.1c.66 0 1.144-.51 1.144-1.15 0-.59-.506-1.07-1.144-1.07s-1.144.5-1.144 1.1c0 .61.506 1.12 1.144 1.12zm-.792 14.1h1.562v-11.57h-1.562zm10.705.11c1.958 0 3.608-.79 4.532-2.29l-1.166-.79c-.792 1.17-2.024 1.69-3.366 1.69-2.53 0-4.378-1.78-4.378-4.51 0-2.7 1.848-4.51 4.378-4.51 1.342 0 2.574.55 3.366 1.72l1.166-.79c-.924-1.52-2.574-2.29-4.532-2.29-3.454 0-5.962 2.42-5.962 5.87 0 3.46 2.508 5.9 5.962 5.9zm11.648-11.77c-1.826 0-3.542.57-4.708 1.56l.704 1.17c.946-.84 2.354-1.37 3.85-1.37 2.156 0 3.278 1.08 3.278 3.06v.71h-3.674c-3.322 0-4.466 1.49-4.466 3.27 0 2.01 1.606 3.37 4.224 3.37 1.914 0 3.278-.73 3.982-1.91v1.8h1.496v-7.17c0-2.99-1.694-4.49-4.686-4.49zm-.55 10.54c-1.848 0-2.926-.84-2.926-2.18 0-1.19.726-2.07 2.97-2.07h3.63v1.89c-.616 1.52-1.914 2.36-3.674 2.36zm15.023-.71c-.44.4-1.078.6-1.716.6-1.298 0-2.002-.75-2.002-2.11v-6.91h3.52v-1.32h-3.52v-2.53h-1.562v2.53h-2.068v1.32h2.068v6.99c0 2.14 1.21 3.37 3.388 3.37.902 0 1.826-.26 2.442-.81zm4.185-12.27c.66 0 1.144-.51 1.144-1.15 0-.59-.506-1.07-1.144-1.07s-1.144.5-1.144 1.1c0 .61.506 1.12 1.144 1.12zm-.792 14.1h1.562v-11.57h-1.562zm10.638.11c3.388 0 5.874-2.46 5.874-5.9 0-3.43-2.486-5.87-5.874-5.87s-5.896 2.44-5.896 5.87c0 3.44 2.508 5.9 5.896 5.9zm0-1.39c-2.464 0-4.312-1.8-4.312-4.51 0-2.7 1.848-4.51 4.312-4.51s4.29 1.81 4.29 4.51c0 2.71-1.826 4.51-4.29 4.51zm14.959-10.38c-2.002 0-3.564.81-4.4 2.22v-2.13h-1.496v11.57h1.562v-6.07c0-2.64 1.562-4.18 4.048-4.18 2.2 0 3.476 1.25 3.476 3.69v6.56h1.562v-6.71c0-3.32-1.936-4.95-4.752-4.95zm17.853 11.77c3.014 0 4.774-1.3 4.774-3.3 0-4.44-7.502-2.09-7.502-5.21 0-1.1.924-1.92 3.014-1.92 1.188 0 2.398.29 3.41.99l.682-1.25c-.968-.66-2.596-1.08-4.092-1.08-2.948 0-4.576 1.41-4.576 3.3 0 4.58 7.502 2.2 7.502 5.21 0 1.15-.902 1.9-3.102 1.9-1.628 0-3.19-.58-4.114-1.3l-.704 1.23c.946.81 2.794 1.43 4.708 1.43zm17.76-5.9c0-3.47-2.354-5.87-5.61-5.87s-5.654 2.44-5.654 5.87c0 3.44 2.464 5.9 6.072 5.9 1.826 0 3.432-.66 4.466-1.89l-.88-1.01c-.88 1.01-2.134 1.51-3.542 1.51-2.53 0-4.379-1.6-4.554-4.02h9.68c0-.18.022-.35.022-.49zm-5.61-4.53c2.266 0 3.916 1.59 4.114 3.85h-8.206c.198-2.26 1.848-3.85 4.092-3.85zm10.285 1.01v-2.26h-1.496v11.57h1.562v-5.9c0-2.72 1.474-4.26 3.894-4.26.11 0 .242.02.374.02v-1.52c-2.134 0-3.608.81-4.334 2.35zm15.84-2.26-4.378 9.85-4.334-9.85h-1.628l5.126 11.57h1.606l5.148-11.57zm13.516 5.78c0-3.47-2.354-5.87-5.61-5.87s-5.654 2.44-5.654 5.87c0 3.44 2.464 5.9 6.072 5.9 1.826 0 3.432-.66 4.466-1.89l-.88-1.01c-.88 1.01-2.134 1.51-3.542 1.51-2.53 0-4.378-1.6-4.554-4.02h9.68c0-.18.022-.35.022-.49zm-5.61-4.53c2.266 0 3.916 1.59 4.114 3.85h-8.206c.198-2.26 1.848-3.85 4.092-3.85zm10.285 1.01v-2.26h-1.496v11.57h1.562v-5.9c0-2.72 1.474-4.26 3.894-4.26.11 0 .242.02.374.02v-1.52c-2.134 0-3.608.81-4.334 2.35zm17.822 9.42c3.388 0 5.874-2.46 5.874-5.9 0-3.43-2.486-5.87-5.874-5.87s-5.896 2.44-5.896 5.87c0 3.44 2.508 5.9 5.896 5.9zm0-1.39c-2.464 0-4.312-1.8-4.312-4.51 0-2.7 1.848-4.51 4.312-4.51s4.29 1.81 4.29 4.51c0 2.71-1.826 4.51-4.29 4.51zm10.559-8.03v-2.26h-1.496v11.57h1.562v-5.9c0-2.72 1.474-4.26 3.894-4.26.11 0 .242.02.374.02v-1.52c-2.134 0-3.608.81-4.334 2.35zm27.524-2.35c-2.09 0-3.74.95-4.576 2.44-.704-1.63-2.2-2.44-4.114-2.44-1.936 0-3.432.81-4.246 2.2v-2.11h-1.496v11.57h1.562v-6.07c0-2.64 1.518-4.18 3.872-4.18 2.112 0 3.344 1.25 3.344 3.69v6.56h1.562v-6.07c0-2.64 1.496-4.18 3.872-4.18 2.09 0 3.322 1.25 3.322 3.69v6.56h1.562v-6.71c0-3.32-1.848-4.95-4.664-4.95zm17.766.09v6.07c0 2.64-1.518 4.2-3.938 4.2-2.2 0-3.476-1.25-3.476-3.72v-6.55h-1.562v6.71c0 3.32 1.936 4.97 4.884 4.97 1.848 0 3.344-.81 4.158-2.22v2.11h1.496v-11.57zm5.937 11.57h1.562v-16.32h-1.562zm11.495-1.83c-.44.4-1.078.6-1.716.6-1.298 0-2.002-.75-2.002-2.11v-6.91h3.52v-1.32h-3.52v-2.53h-1.562v2.53h-2.068v1.32h2.068v6.99c0 2.14 1.21 3.37 3.388 3.37.902 0 1.826-.26 2.442-.81zm4.185-12.27c.66 0 1.144-.51 1.144-1.15 0-.59-.506-1.07-1.144-1.07s-1.144.5-1.144 1.1c0 .61.506 1.12 1.144 1.12zm-.792 14.1h1.562v-11.57h-1.562zm11.87-11.66c-1.914 0-3.52.84-4.466 2.38v-2.29h-1.496v15.84h1.562v-6.45c.968 1.5 2.552 2.29 4.4 2.29 3.3 0 5.764-2.38 5.764-5.9 0-3.49-2.464-5.87-5.764-5.87zm-.11 10.38c-2.464 0-4.312-1.8-4.312-4.51 0-2.68 1.848-4.51 4.312-4.51 2.442 0 4.312 1.83 4.312 4.51 0 2.71-1.87 4.51-4.312 4.51zm9.059 1.28h1.562v-16.32h-1.562zm16.006-5.79c0-3.47-2.354-5.87-5.61-5.87s-5.654 2.44-5.654 5.87c0 3.44 2.464 5.9 6.072 5.9 1.826 0 3.432-.66 4.466-1.89l-.88-1.01c-.88 1.01-2.134 1.51-3.542 1.51-2.53 0-4.378-1.6-4.554-4.02h9.68c0-.18.022-.35.022-.49zm-5.61-4.53c2.266 0 3.916 1.59 4.114 3.85h-8.206c.198-2.26 1.848-3.85 4.092-3.85zm34.737-1.34c-2.09 0-3.74.95-4.576 2.44-.704-1.63-2.2-2.44-4.114-2.44-1.936 0-3.432.81-4.246 2.2v-2.11h-1.496v11.57h1.562v-6.07c0-2.64 1.518-4.18 3.872-4.18 2.112 0 3.344 1.25 3.344 3.69v6.56h1.562v-6.07c0-2.64 1.496-4.18 3.872-4.18 2.09 0 3.322 1.25 3.322 3.69v6.56h1.562v-6.71c0-3.32-1.848-4.95-4.664-4.95zm9.692-2.44c.66 0 1.144-.51 1.144-1.15 0-.59-.506-1.07-1.144-1.07s-1.144.5-1.144 1.1c0 .61.506 1.12 1.144 1.12zm-.792 14.1h1.562v-11.57h-1.562zm10.704.11c1.958 0 3.608-.79 4.532-2.29l-1.166-.79c-.792 1.17-2.024 1.69-3.366 1.69-2.53 0-4.378-1.78-4.378-4.51 0-2.7 1.848-4.51 4.378-4.51 1.342 0 2.574.55 3.366 1.72l1.166-.79c-.924-1.52-2.574-2.29-4.532-2.29-3.454 0-5.962 2.42-5.962 5.87 0 3.46 2.508 5.9 5.962 5.9zm9.097-9.42v-2.26h-1.496v11.57h1.562v-5.9c0-2.72 1.474-4.26 3.894-4.26.11 0 .242.02.374.02v-1.52c-2.134 0-3.608.81-4.334 2.35zm11.784 9.42c3.388 0 5.874-2.46 5.874-5.9 0-3.43-2.486-5.87-5.874-5.87s-5.896 2.44-5.896 5.87c0 3.44 2.508 5.9 5.896 5.9zm0-1.39c-2.464 0-4.312-1.8-4.312-4.51 0-2.7 1.848-4.51 4.312-4.51s4.29 1.81 4.29 4.51c0 2.71-1.826 4.51-4.29 4.51zm12.165 1.39c3.014 0 4.774-1.3 4.774-3.3 0-4.44-7.502-2.09-7.502-5.21 0-1.1.924-1.92 3.014-1.92 1.188 0 2.398.29 3.41.99l.682-1.25c-.968-.66-2.596-1.08-4.092-1.08-2.948 0-4.576 1.41-4.576 3.3 0 4.58 7.502 2.2 7.502 5.21 0 1.15-.902 1.9-3.102 1.9-1.628 0-3.19-.58-4.114-1.3l-.704 1.23c.946.81 2.794 1.43 4.708 1.43zm17.76-5.9c0-3.47-2.354-5.87-5.61-5.87s-5.654 2.44-5.654 5.87c0 3.44 2.464 5.9 6.072 5.9 1.826 0 3.432-.66 4.466-1.89l-.88-1.01c-.88 1.01-2.134 1.51-3.542 1.51-2.53 0-4.378-1.6-4.554-4.02h9.68c0-.18.022-.35.022-.49zm-5.61-4.53c2.266 0 3.916 1.59 4.114 3.85h-8.206c.198-2.26 1.848-3.85 4.092-3.85zm10.285 1.01v-2.26h-1.496v11.57h1.562v-5.9c0-2.72 1.474-4.26 3.894-4.26.11 0 .242.02.374.02v-1.52c-2.134 0-3.608.81-4.334 2.35zm15.841-2.26-4.378 9.85-4.334-9.85h-1.628l5.126 11.57h1.606l5.148-11.57zm4.531-2.53c.66 0 1.144-.51 1.144-1.15 0-.59-.506-1.07-1.144-1.07s-1.144.5-1.144 1.1c0 .61.506 1.12 1.144 1.12zm-.792 14.1h1.562v-11.57h-1.562zm10.705.11c1.958 0 3.608-.79 4.532-2.29l-1.166-.79c-.792 1.17-2.024 1.69-3.366 1.69-2.53 0-4.378-1.78-4.378-4.51 0-2.7 1.848-4.51 4.378-4.51 1.342 0 2.574.55 3.366 1.72l1.166-.79c-.924-1.52-2.574-2.29-4.532-2.29-3.454 0-5.962 2.42-5.962 5.87 0 3.46 2.508 5.9 5.962 5.9zm17.505-5.9c0-3.47-2.354-5.87-5.61-5.87s-5.654 2.44-5.654 5.87c0 3.44 2.464 5.9 6.072 5.9 1.826 0 3.432-.66 4.466-1.89l-.88-1.01c-.88 1.01-2.134 1.51-3.542 1.51-2.53 0-4.378-1.6-4.554-4.02h9.68c0-.18.022-.35.022-.49zm-5.61-4.53c2.266 0 3.916 1.59 4.114 3.85h-8.206c.198-2.26 1.848-3.85 4.092-3.85zm11.891 10.43c3.014 0 4.774-1.3 4.774-3.3 0-4.44-7.502-2.09-7.502-5.21 0-1.1.924-1.92 3.014-1.92 1.188 0 2.398.29 3.41.99l.682-1.25c-.968-.66-2.596-1.08-4.092-1.08-2.948 0-4.576 1.41-4.576 3.3 0 4.58 7.502 2.2 7.502 5.21 0 1.15-.902 1.9-3.102 1.9-1.628 0-3.19-.58-4.114-1.3l-.704 1.23c.946.81 2.794 1.43 4.708 1.43z" fill="#455260"/><g clip-path="url(#a)"><path d="m162.677 1558.19c-.043 0-.13 0-.174 0-.696 0-1.393-.18-1.393-1.84v-5.68c0-2.53-1.219-3.67-3.613-3.67h-2.046c-.696 0-1.219.52-1.219 1.22s.566 1.23 1.219 1.23h.697c.783 0 1.306.48 1.306 1.66v5.55c0 2.53 1.871 2.71 2.829 2.8v.04c-1.001.09-2.829.26-2.829 2.8v5.55c0 1.18-.566 1.7-1.35 1.7h-.696c-.697 0-1.219.53-1.219 1.23s.566 1.22 1.219 1.22h2.046c2.394 0 3.613-1.09 3.613-3.63v-5.68c0-1.7.696-1.84 1.393-1.84h.217c.697-.04 1.219-.61 1.219-1.31 0-.74-.522-1.31-1.219-1.35z" fill="#00b4f0"/><path d="m178 1559.54c0-.61-.348-1.09-.87-1.35l-.044-.04-9.49-5.16c-.261-.13-.522-.22-.827-.22-.914 0-1.654.74-1.654 1.66 0 .74.348 1.22 1.132 1.57l6.529 3.54-6.529 3.54c-.784.35-1.132.83-1.132 1.58 0 .92.74 1.66 1.654 1.66.305 0 .566-.09.827-.22l9.49-5.16s.044 0 .044-.04c.522-.22.87-.74.87-1.36z" fill="#00b4f0"/><g fill="#2d3033"><path d="m98.2079 1560.72c0-3.89-3.1342-7.08-7.0084-7.08-3.8743 0-7.052 3.19-7.052 7.08s3.1777 7.08 7.052 7.08c1.3494 0 2.6118-.39 3.7436-1.09l.1741-.09.0871.18c.2612.61.8271 1 1.4365 1 .8706 0 1.5671-.7 1.5671-1.61zm-7.0084 3.41c-1.8719 0-3.3954-1.53-3.3954-3.41s1.5235-3.41 3.3954-3.41c1.8718 0 3.3954 1.53 3.3954 3.41s-1.5236 3.41-3.3954 3.41z"/><path d="m113.748 1560.72c0-3.89-3.134-7.08-7.008-7.08s-7.0086 3.19-7.0086 7.08 3.1776 7.08 7.0516 7.08c1.35 0 2.612-.39 3.744-1.09l.174-.09.087.18c.261.61.784 1 1.437 1 .87 0 1.567-.7 1.567-1.61v-5.47zm-6.965 3.41c-1.871 0-3.395-1.53-3.395-3.41s1.524-3.41 3.395-3.41c1.872 0 3.396 1.53 3.396 3.41s-1.524 3.41-3.396 3.41z"/><path d="m126.285 1566.84c.261.61.871 1.05 1.524 1.05.914 0 1.654-.74 1.654-1.66v-16.26c0-.92-.784-1.66-1.654-1.66-.914 0-1.654.74-1.654 1.66v4.81l-.131-.09c-1.132-.7-2.351-1.05-3.656-1.05-3.918 0-7.096 3.19-7.096 7.13 0 3.93 3.178 7.12 7.096 7.12 1.349 0 2.655-.39 3.787-1.09l.13-.09zm-3.917-2.75c-1.829 0-3.352-1.53-3.352-3.37 0-1.83 1.523-3.36 3.352-3.36 1.828 0 3.351 1.53 3.351 3.36 0 1.88-1.48 3.37-3.351 3.37z"/><path d="m150.445 1555.74c-1.132-1.22-2.786-1.83-4.963-1.83-.087 0-1.784.13-2.916.78-.261-.78-1.001-1.35-1.828-1.35-1.045 0-1.872.83-1.916 1.88v11.01c0 1.05.871 1.92 1.916 1.92 1.044 0 1.915-.87 1.915-1.92v-5.86c0-1.22.914-2.53 2.873-2.53 1.872 0 2.742 1.35 2.742 2.32v6.07c0 1.05.871 1.92 1.916 1.92s1.915-.87 1.915-1.92v-5.81c-.043-.18.087-2.8-1.654-4.68z"/><path d="m82.0145 1553.38c-.8271 0-1.393.39-1.7412 1.27l-3.3084 7.17-3.3518-7.17c-.3918-.88-.9142-1.27-1.7413-1.27-1.0447 0-1.8718.83-1.8718 1.88 0 .31.0871.66.2612.92l5.1366 11.06c.4353.78.9577.87 1.5671.87.6095 0 1.1318-.04 1.5671-.87l5.0931-11.06c.1742-.26.2612-.61.2612-.92 0-1.05-.8706-1.88-1.8718-1.88z"/><path d="m134.165 1553.42c-1.044 0-1.871.84-1.915 1.88v10.84c0 1.05.871 1.93 1.915 1.93 1.045 0 1.916-.88 1.916-1.93 0-.08 0-10.79 0-10.84-.044-1.09-.871-1.88-1.916-1.88z"/><path d="m134.165 1552.2c1.105 0 2.002-.9 2.002-2.01s-.897-2.01-2.002-2.01c-1.106 0-2.003.9-2.003 2.01s.897 2.01 2.003 2.01z"/></g></g><circle cx="126.5" cy="108.5" fill="#2bc24e" r="6.5"/><circle cx="126.5" cy="542.5" fill="#00b4f0" r="6.5"/><circle cx="126.5" cy="1242.5" fill="#ff3a49" r="6.5"/><path d="m174.469 630.625c0-.049 0-.148 0-.197 0-.79.195-1.58 2.055-1.58h6.315c2.839 0 4.112-1.382 4.112-4.097v-2.369c0-.79-.587-1.382-1.371-1.382-.783 0-1.37.642-1.37 1.382v.79c0 .888-.539 1.481-1.86 1.481h-6.217c-2.839 0-3.035 2.122-3.133 3.208h-.049c-.098-1.135-.294-3.208-3.133-3.208h-6.217c-1.321 0-1.909-.642-1.909-1.531v-.74c0-.74-.587-1.382-1.321-1.382-.784 0-1.371.642-1.371 1.382v2.32c0 2.715 1.224 4.097 4.063 4.097h6.315c1.909 0 2.056.79 2.056 1.579v.247c.049.79.685 1.382 1.468 1.382.881 0 1.518-.592 1.567-1.382z" fill="#00b4f0"/><path d="m172.902 648c.685 0 1.224-.395 1.518-.987l.049-.05 5.776-10.76c.147-.296.245-.592.245-.938 0-1.036-.833-1.876-1.861-1.876-.832 0-1.37.395-1.762 1.284l-3.965 7.404-3.965-7.404c-.392-.889-.93-1.284-1.762-1.284-1.028 0-1.86.84-1.86 1.876 0 .346.098.642.244.938l5.777 10.76s0 .05.049.05c.244.543.832.987 1.517.987z" fill="#00b4f0"/></svg>