<svg viewBox="0 0 1613 537" fill="none" xmlns="http://www.w3.org/2000/svg">
  <circle cx="805.67" cy="263.999" r="189.832" stroke="var(--docs-divider-color-2)" stroke-width="4"
    stroke-dasharray="12 17" />
  <rect x="662.67" y="141.999" width="286" height="246" stroke="var(--docs-divider-color-2)" stroke-width="4"
    stroke-dasharray="10 16" />
  <line x1="969.976" y1="82.0812" x2="773.995" y2="477.39" stroke="var(--docs-divider-color-2)" stroke-width="4"
    stroke-dasharray="10 16" />
  <line y1="-2" x2="441.222" y2="-2"
    transform="matrix(0.444177 0.895939 0.895939 -0.444177 642.697 81.1929)" stroke="var(--docs-divider-color-2)"
    stroke-width="4" stroke-dasharray="10 16" />
  <line x1="937.462" y1="82.0812" x2="741.488" y2="477.39" stroke="var(--docs-divider-color-2)" stroke-width="4"
    stroke-dasharray="10 16" />
  <line y1="-2" x2="441.219" y2="-2"
    transform="matrix(0.444163 0.895946 0.895946 -0.444163 675.211 81.1929)" stroke="var(--docs-divider-color-2)"
    stroke-width="4" stroke-dasharray="10 16" />
  <line x1="806.67" y1="60.4988" x2="806.67" y2="467.499" stroke="var(--docs-divider-color-2)" stroke-width="4"
    stroke-dasharray="10 10" />
  <line x1="1097.01" y1="253.999" x2="514.33" y2="253.999" stroke="var(--docs-divider-color-2)" stroke-width="4"
    stroke-dasharray="10 10" />
  <line x1="665.67" y1="387.999" x2="514.33" y2="387.999" stroke="var(--docs-divider-color-2)" stroke-width="4"
    stroke-dasharray="10 10" />
  <line x1="665.67" y1="139.999" x2="514.33" y2="139.999" stroke="var(--docs-divider-color-2)" stroke-width="4"
    stroke-dasharray="10 10" />
  <line x1="1098.67" y1="387.999" x2="947.33" y2="387.999" stroke="var(--docs-divider-color-2)" stroke-width="4"
    stroke-dasharray="10 10" />
  <line x1="1098.67" y1="139.999" x2="947.33" y2="139.999" stroke="var(--docs-divider-color-2)" stroke-width="4"
    stroke-dasharray="10 10" />
  <line x1="1097.01" y1="231.999" x2="514.33" y2="231.999" stroke="var(--docs-divider-color-2)" stroke-width="4"
    stroke-dasharray="10 10" />
  <line x1="1097.01" y1="206.999" x2="514.33" y2="206.999" stroke="var(--docs-divider-color-2)" stroke-width="4"
    stroke-dasharray="10 10" />
  <path
    d="M662.357 138.729L689.836 138.729C690.848 138.729 691.185 139.412 691.185 140.436V155.793C691.185 165.69 699.62 174.222 709.404 174.222H765.129C792.457 174.222 801.158 186.167 803.857 194.358C804.749 197.063 807.137 197.132 808.087 194.358C811.123 185.485 818.208 174.222 846.548 174.222L901.936 174.222C911.72 174.222 920.154 165.69 920.154 155.793V140.436C920.154 139.412 920.492 138.729 921.504 138.729L948.983 138.729C949.995 138.729 950.67 139.412 950.67 140.436V159.206C950.67 191.628 934.813 208.752 902.761 208.752H840.102C829.98 208.752 820.883 217.284 820.883 226.84V232.692C820.883 233.716 820.208 234.398 819.196 234.398H792.806C791.794 234.398 791.12 233.716 791.12 232.692V226.84C791.12 216.943 781.022 208.752 771.238 208.752L708.241 208.752C676.19 208.752 660.67 191.628 660.67 159.206L660.67 140.436C660.67 139.412 661.345 138.729 662.357 138.729Z"
    fill="url(#grad)" />
  <path
    d="M807.754 338.397L850.464 252.704C851.123 251.574 852.443 251.348 853.432 251.348H885.776C886.765 251.348 887.754 251.8 887.095 252.93L819.609 388.138C819.279 388.816 818.62 389.268 817.63 389.268H794.233C793.243 389.268 792.584 388.816 792.254 388.138L724.29 252.705C723.63 251.575 724.29 251.123 725.609 251.123L759.433 251.347C760.423 251.347 761.742 251.8 762.072 252.704L805.341 338.397C805.341 338.81 807.754 338.81 807.754 338.397Z"
    fill="url(#grad)" />
  <defs>
    <linearGradient id="grad" x1="805.67" y1="138.729" x2="805.67" y2="389.268"
      gradientUnits="userSpaceOnUse">
      <stop stop-color="var(--docs-blue-500)" />
      <stop offset="1" stop-color="var(--docs-blue-600)" />
    </linearGradient>
  </defs>
</svg>
