<svg fill="none" height="87" viewBox="0 0 154 87" width="154" xmlns="http://www.w3.org/2000/svg"><path d="m0 25c0-2.2091 1.79086-4 4-4h80l-16 44h-64c-2.20914 0-4-1.7909-4-4z" fill="var(--docs-purple-500)"/><path d="m154 61c0 2.2091-1.791 4-4 4h-80l16-44h64c2.209 0 4 1.7909 4 4z" fill="var(--docs-blue-500)"/><path d="m61.3961 86.0397c-.5037-.1832-.7636-.74-.5804-1.2438l7.1985-19.7959 15.9858-43.9609 7.2094-19.82591c.1832-.503739.74-.763607 1.2438-.580429.5037.183178.7636.740039.5804 1.243779l-6.9682 19.16256h-2.0654l-15.9858 43.9609h2.0654l-7.4397 20.4593c-.1832.5037-.7401.7636-1.2438.5804z" fill="var(--docs-divider-color-2)"/></svg>
