<svg fill="none" height="64" viewBox="0 0 250 64" width="250" xmlns="http://www.w3.org/2000/svg"><path d="m0 21.5h80" stroke="var(--docs-divider-color-2)"/><path d="m0 51.5h80" stroke="var(--docs-divider-color-2)"/><path d="m13.2472 52 3.3608-10.0426h15.3125l3.3806 10.0426h7.875l-14.3579-40.7273h-9.108l-14.33804 40.7273zm5.3494-15.9687 5.5085-16.4063h.3182l5.5085 16.4063z" fill="var(--docs-secondary-text-color)"/><path d="m55.8921 52.6165c4.7926 0 7.6562-2.2472 8.9687-4.8125h.2387v4.196h6.9204v-20.4432c0-8.0738-6.5824-10.5-12.4091-10.5-6.4233 0-11.3551 2.8637-12.946 8.4318l6.7216.9546c.7159-2.0881 2.7443-3.8778 6.2642-3.8778 3.3409 0 5.1705 1.7102 5.1705 4.713v.1193c0 2.0682-2.1677 2.1676-7.5569 2.7444-5.9261.6363-11.5937 2.4062-11.5937 9.2869 0 6.0057 4.3949 9.1875 10.2216 9.1875zm1.8693-5.2898c-3.0028 0-5.1506-1.3721-5.1506-4.017 0-2.7642 2.4063-3.9176 5.6279-4.375 1.8892-.2586 5.6676-.7358 6.6022-1.4915v3.5994c0 3.4006-2.7443 6.2841-7.0795 6.2841z" fill="var(--docs-secondary-text-color)"/><circle cx="130" cy="20" fill="var(--docs-blue-500)" opacity=".5" r="20"/><circle cx="142" cy="43" fill="var(--docs-green-500)" opacity=".5" r="20"/><circle cx="118" cy="44" fill="var(--docs-red-500)" opacity=".5" r="20"/><g clip-rule="evenodd" fill-rule="evenodd"><path d="m204 16v36h36v-36zm-6-10c-2.209 0-4 1.79086-4 4v48c0 2.2091 1.791 4 4 4h48c2.209 0 4-1.7909 4-4v-48c0-2.20914-1.791-4-4-4z" fill="var(--docs-divider-color-1)"/><path d="m246 7h-48c-1.657 0-3 1.34315-3 3v48c0 1.6569 1.343 3 3 3h48c1.657 0 3-1.3431 3-3v-48c0-1.65685-1.343-3-3-3zm-48-1c-2.209 0-4 1.79086-4 4v48c0 2.2091 1.791 4 4 4h48c2.209 0 4-1.7909 4-4v-48c0-2.20914-1.791-4-4-4z" fill="var(--docs-divider-color-2)"/></g></svg>
