<svg fill="none" height="87" viewBox="0 0 58 87" width="58" xmlns="http://www.w3.org/2000/svg"><path d="m14.5029 87c8.0024 0 14.4971-6.496 14.4971-14.5v-14.5h-14.4971c-8.0024 0-14.49710166 6.496-14.49710166 14.5s6.49470166 14.5 14.49710166 14.5z" fill="#0acf83"/><path d="m.00579834 43.5c0-8.004 6.49470166-14.5 14.49710166-14.5h14.4971v29h-14.4971c-8.0024 0-14.49710166-6.496-14.49710166-14.5z" fill="#a259ff"/><path d="m.00704956 14.5c0-8.004 6.49470044-14.49999811 14.49705044-14.49999811h14.4971v28.99999811h-14.4971c-8.00235 0-14.49705044-6.496-14.49705044-14.5z" fill="#f24e1e"/><path d="m29 .00000181h14.4971c8.0024 0 14.4971 6.49599819 14.4971 14.49999819s-6.4947 14.5-14.4971 14.5h-14.4971z" fill="#ff7262"/><path d="m57.9942 43.5c0 8.004-6.4947 14.5-14.4971 14.5s-14.4971-6.496-14.4971-14.5 6.4947-14.5 14.4971-14.5 14.4971 6.496 14.4971 14.5z" fill="#1abcfe"/></svg>