<svg fill="none" height="16" viewBox="0 0 197 16" width="197" xmlns="http://www.w3.org/2000/svg"><rect fill="var(--docs-blue-500)" height="16" opacity=".75" rx="2" width="50" x="115.148"/><rect fill="var(--docs-blue-500)" height="16" opacity=".5" rx="2" width="31" x="76.1477"/><rect fill="var(--docs-blue-500)" height="16" rx="2" width="23" x="173.148"/><g fill="var(--docs-divider-color-2)"><path d="m5.22727 14.7585c2.74148 0 4.48864-1.6264 4.6733-3.9417h-2.45739c-.22017 1.1718-1.06534 1.8466-2.1946 1.8466-1.60511 0-2.64205-1.3424-2.64205-3.57249 0-2.20171 1.05824-3.52273 2.64205-3.52273 1.2358 0 1.99574.79546 2.1946 1.84659h2.45739c-.17756-2.36505-2.02415-3.92045-4.6875-3.92045-3.19602 0-5.21307 2.30824-5.21307 5.6392 0 3.30258 1.96733 5.62498 5.22727 5.62498z"/><path d="m14.5827 0h-2.571v14.5455h2.571z"/><path d="m20.3658 14.7656c1.7116 0 2.7343-.8025 3.2031-1.7187h.0852v1.4986h2.4716v-7.30118c0-2.88352-2.3508-3.75-4.4318-3.75-2.294 0-4.0554 1.02273-4.6236 3.01136l2.4006.34091c.2557-.74574.9801-1.38494 2.2372-1.38494 1.1932 0 1.8466.61079 1.8466 1.68324v.04261c0 .73864-.7742.77415-2.6989.98011-2.1165.22728-4.1406.85938-4.1406 3.31679 0 2.1449 1.5696 3.2812 3.6506 3.2812zm.6676-1.8892c-1.0725 0-1.8395-.49-1.8395-1.4346 0-.9873.8594-1.3992 2.0099-1.56254.6748-.09233 2.0242-.26278 2.358-.53267v1.28551c0 1.2145-.9801 2.2443-2.5284 2.2443z"/><path d="m37.3331 6.51989c-.3551-1.84659-1.8324-3.02557-4.3892-3.02557-2.6278 0-4.4176 1.29261-4.4105 3.30966-.0071 1.59091.973 2.64204 3.0682 3.07528l1.8608.39064c1.0014.2202 1.4701.625 1.4701 1.2429 0 .7457-.8096 1.3068-2.0312 1.3068-1.179 0-1.946-.5114-2.1662-1.4915l-2.5071.2415c.3196 2.0028 2.0028 3.1889 4.6804 3.1889 2.7273 0 4.652-1.4133 4.6591-3.4801-.0071-1.55539-1.0086-2.50709-3.0682-2.95454l-1.8608-.39772c-1.108-.24858-1.5483-.63211-1.5412-1.26421-.0071-.73863.8097-1.25 1.8821-1.25 1.1861 0 1.8111.64631 2.0099 1.36364z"/><path d="m48.3097 6.51989c-.3552-1.84659-1.8324-3.02557-4.3892-3.02557-2.6279 0-4.4177 1.29261-4.4106 3.30966-.0071 1.59091.9731 2.64204 3.0682 3.07528l1.8608.39064c1.0014.2202 1.4702.625 1.4702 1.2429 0 .7457-.8097 1.3068-2.0313 1.3068-1.1789 0-1.946-.5114-2.1662-1.4915l-2.5071.2415c.3197 2.0028 2.0029 3.1889 4.6804 3.1889 2.7273 0 4.652-1.4133 4.6591-3.4801-.0071-1.55539-1.0085-2.50709-3.0681-2.95454l-1.8608-.39772c-1.108-.24858-1.5483-.63211-1.5412-1.26421-.0071-.73863.8096-1.25 1.8821-1.25 1.186 0 1.811.64631 2.0099 1.36364z"/><path d="m56.3068 12.1449h9.4531v-2.19462h-9.4531zm0-4.54547h9.4531v-2.1946h-9.4531z"/></g></svg>
