<svg fill="none" height="32" viewBox="0 0 32 32" width="32" xmlns="http://www.w3.org/2000/svg"><path d="m21 26c5.5228 0 10-4.4772 10-10s-4.4772-10-10-10-10 4.4772-10 10 4.4772 10 10 10z" stroke="currentColor" stroke-miterlimit="10"/><path d="m11 26c5.5228 0 10-4.4772 10-10s-4.4772-10-10-10c-5.52285 0-10 4.4772-10 10s4.47715 10 10 10z" stroke="currentColor" stroke-miterlimit="10"/><path d="m13 16c0-.3956-.1173-.7822-.3371-1.1111-.2197-.3289-.5321-.5853-.8975-.7367-.3655-.1513-.7676-.1909-1.1556-.1138-.3879.0772-.74431.2677-1.02401.5474-.27971.2797-.47019.6361-.54736 1.024-.07717.388-.03756.7901.11381 1.1556.15138.3654.40772.6778.73662.8975.32894.2198.71554.3371 1.11114.3371.5304 0 1.0391-.2107 1.4142-.5858s.5858-.8838.5858-1.4142z" fill="#ff3a4b" stroke="#ff3a4b"/><path d="m23 16c0-.3956-.1173-.7822-.3371-1.1111-.2197-.3289-.5321-.5853-.8975-.7367-.3655-.1513-.7676-.1909-1.1556-.1138-.3879.0772-.7443.2677-1.024.5474s-.4702.6361-.5474 1.024c-.0771.388-.0375.7901.1138 1.1556.1514.3654.4078.6778.7367.8975.3289.2198.7155.3371 1.1111.3371.5304 0 1.0391-.2107 1.4142-.5858s.5858-.8838.5858-1.4142" fill="#00b4f0"/><path d="m23 16c0-.3956-.1173-.7822-.3371-1.1111-.2197-.3289-.5321-.5853-.8975-.7367-.3655-.1513-.7676-.1909-1.1556-.1138-.3879.0772-.7443.2677-1.024.5474s-.4702.6361-.5474 1.024c-.0771.388-.0375.7901.1138 1.1556.1514.3654.4078.6778.7367.8975.3289.2198.7155.3371 1.1111.3371.5304 0 1.0391-.2107 1.4142-.5858s.5858-.8838.5858-1.4142" stroke="#00b4f0"/></svg>
