<svg fill="none" height="64" viewBox="0 0 64 64" width="64" xmlns="http://www.w3.org/2000/svg"><path d="m18.4957 15.3524-12.14326 12.1433c-2.40378 2.4038-2.40378 6.3011 0 8.7049l12.14336 12.1434c2.4038 2.4038 6.3011 2.4038 8.7049 0l12.1433-12.1433c2.4038-2.4038 2.4038-6.3011 0-8.7049l-12.1434-12.1434c-2.4038-2.4037-6.3011-2.4037-8.7049 0z" fill="#00b4f0"/><path d="m36.799 15.3554-12.1433 12.1433c-2.4038 2.4038-2.4038 6.3011 0 8.7049l12.1433 12.1433c2.4038 2.4038 6.3011 2.4038 8.7049 0l12.1433-12.1433c2.4038-2.4038 2.4038-6.3011 0-8.7049l-12.1433-12.1433c-2.4038-2.4038-6.3011-2.4038-8.7049 0z" fill="#ff707a"/><path d="m39.3547 27.4983-7.3863-7.3863-7.3864 7.3863c-1.1539 1.1543-1.8021 2.7197-1.8021 4.3519 0 1.6321.6482 3.1974 1.8021 4.3517l7.3864 7.3864 7.3863-7.3864c1.154-1.1543 1.8022-2.7196 1.8022-4.3517 0-1.6322-.6482-3.1976-1.8022-4.3519z" fill="#5748ff"/></svg>