<svg width="220" height="220" viewBox="0 0 220 220" fill="none" xmlns="http://www.w3.org/2000/svg">
<path d="M109.658 178.75L192.5 41.25H27.5L109.658 178.75Z" stroke="currentColor" stroke-width="4" stroke-miterlimit="10"/>
<path d="M13.75 41.25C13.75 44.8967 15.1987 48.3941 17.7773 50.9727C20.3559 53.5513 23.8533 55 27.5 55C31.1467 55 34.6441 53.5513 37.2227 50.9727C39.8013 48.3941 41.25 44.8967 41.25 41.25C41.25 37.6033 39.8013 34.1059 37.2227 31.5273C34.6441 28.9487 31.1467 27.5 27.5 27.5C23.8533 27.5 20.3559 28.9487 17.7773 31.5273C15.1987 34.1059 13.75 37.6033 13.75 41.25Z" fill="#00B4F0"/>
<path d="M96.25 179.143C96.4386 182.624 97.9064 185.913 100.372 188.378C102.837 190.844 106.126 192.311 109.607 192.5C113.226 192.506 116.709 191.124 119.34 188.639C121.971 186.155 123.549 182.756 123.75 179.143C123.75 177.286 123.384 175.447 122.673 173.731C121.963 172.015 120.921 170.456 119.608 169.142C118.294 167.829 116.735 166.787 115.019 166.077C113.303 165.366 111.464 165 109.607 165C105.994 165.201 102.595 166.779 100.111 169.41C97.6261 172.041 96.2444 175.524 96.25 179.143Z" fill="#FF3A49"/>
<path d="M96.25 96.25C96.25 99.8967 97.6987 103.394 100.277 105.973C102.856 108.551 106.353 110 110 110C113.647 110 117.144 108.551 119.723 105.973C122.301 103.394 123.75 99.8967 123.75 96.25C123.75 92.6033 122.301 89.1059 119.723 86.5273C117.144 83.9487 113.647 82.5 110 82.5C106.353 82.5 102.856 83.9487 100.277 86.5273C97.6987 89.1059 96.25 92.6033 96.25 96.25Z" fill="currentColor"/>
<path d="M178.75 41.25C178.747 43.1226 179.117 44.976 179.836 46.6962C180.556 48.4165 181.611 49.9672 182.936 51.2529C184.261 52.5387 185.827 53.5323 187.54 54.1726C189.252 54.8129 191.074 55.0864 192.893 54.9762C196.435 54.9762 199.833 53.5301 202.338 50.9559C204.843 48.3817 206.25 44.8904 206.25 41.25C206.25 37.6096 204.843 34.1183 202.338 31.5441C199.833 28.9699 196.435 27.5238 192.893 27.5238C191.074 27.4136 189.252 27.6871 187.54 28.3274C185.827 28.9677 184.261 29.9613 182.936 31.2471C181.611 32.5328 180.556 34.0835 179.836 35.8038C179.117 37.524 178.747 39.3774 178.75 41.25Z" fill="currentColor"/>
</svg>
