<svg fill="none" height="478" viewBox="0 0 758 478" width="758" xmlns="http://www.w3.org/2000/svg" xmlns:xlink="http://www.w3.org/1999/xlink"><clipPath id="a"><path d="m0 0h758v478h-758z"/></clipPath><mask id="b" height="280" maskUnits="userSpaceOnUse" width="445" x="-1" y="-1"><rect fill="#fff" height="278" rx="3.92933" stroke="#d1dce3" width="443.032"/></mask><mask id="c" height="280" maskUnits="userSpaceOnUse" width="445" x="423" y="-1"><rect fill="#fff" height="278" rx="3.92933" stroke="#d1dce3" width="443.032" x="424"/></mask><g clip-path="url(#a)"><g mask="url(#b)" stroke="#d1dce3"><path d="m48.6255-49.6078-376.7245 376.7248"/><path d="m64.3429-49.6078-376.7239 376.7248"/><path d="m80.0603-49.6078-376.7243 376.7248"/><path d="m95.7776-49.6078-376.7246 376.7248"/><path d="m111.495-49.6078-376.724 376.7248"/><path d="m127.212-49.6078-376.724 376.7248"/><path d="m142.93-49.6078-376.725 376.7248"/><path d="m158.647-49.6078-376.725 376.7248"/><path d="m174.364-49.6078-376.724 376.7248"/><path d="m190.081-49.6078-376.724 376.7248"/><path d="m205.799-49.6078-376.725 376.7248"/><path d="m221.516-49.6078-376.724 376.7248"/><path d="m237.233-49.6078-376.724 376.7248"/><path d="m252.951-49.6078-376.725 376.7248"/><path d="m268.668-49.6078-376.724 376.7248"/><path d="m284.385-49.6078-376.7241 376.7248"/><path d="m300.103-49.6078-376.7247 376.7248"/><path d="m315.82-49.6078-376.7244 376.7248"/><path d="m331.537-49.6078-376.7241 376.7248"/><path d="m347.255-49.6078-376.7248 376.7248"/><path d="m362.972-49.6078-376.7245 376.7248"/><path d="m378.689-49.6078-376.72416 376.7248"/><path d="m394.407-49.6078-376.7248 376.7248"/><path d="m410.124-49.6078-376.7245 376.7248"/><path d="m425.841-49.6078-376.7242 376.7248"/><path d="m441.559-49.6078-376.7249 376.7248"/><path d="m457.276-49.6078-376.7246 376.7248"/><path d="m472.993-49.6078-376.7243 376.7248"/><path d="m488.71-49.6078-376.724 376.7248"/><path d="m504.428-49.6078-376.725 376.7248"/><path d="m520.145-49.6078-376.724 376.7248"/><path d="m535.862-49.6078-376.724 376.7248"/><path d="m551.58-49.6078-376.725 376.7248"/><path d="m567.297-49.6078-376.724 376.7248"/><path d="m583.014-49.6078-376.724 376.7248"/><path d="m598.732-49.6078-376.725 376.7248"/><path d="m614.449-49.6078-376.724 376.7248"/><path d="m630.166-49.6078-376.724 376.7248"/><path d="m645.884-49.6078-376.725 376.7248"/><path d="m661.601-49.6078-376.724 376.7248"/><path d="m677.318-49.6078-376.724 376.7248"/><path d="m693.036-49.6078-376.725 376.7248"/><path d="m708.753-49.6078-376.725 376.7248"/><path d="m724.47-49.6078-376.724 376.7248"/><path d="m740.187-49.6078-376.724 376.7248"/><path d="m755.905-49.6078-376.725 376.7248"/><path d="m771.622-49.6078-376.724 376.7248"/></g><g mask="url(#c)" stroke="#d1dce3"><path d="m472.625-49.6078-376.7239 376.7248"/><path d="m488.343-49.6078-376.724 376.7248"/><path d="m504.06-49.6078-376.724 376.7248"/><path d="m519.778-49.6078-376.725 376.7248"/><path d="m535.495-49.6078-376.724 376.7248"/><path d="m551.212-49.6078-376.724 376.7248"/><path d="m566.93-49.6078-376.725 376.7248"/><path d="m582.647-49.6078-376.725 376.7248"/><path d="m598.364-49.6078-376.724 376.7248"/><path d="m614.081-49.6078-376.724 376.7248"/><path d="m629.799-49.6078-376.725 376.7248"/><path d="m645.516-49.6078-376.724 376.7248"/><path d="m661.233-49.6078-376.724 376.7248"/><path d="m676.951-49.6078-376.725 376.7248"/><path d="m692.668-49.6078-376.724 376.7248"/><path d="m708.385-49.6078-376.724 376.7248"/><path d="m724.103-49.6078-376.725 376.7248"/><path d="m739.82-49.6078-376.724 376.7248"/><path d="m755.537-49.6078-376.724 376.7248"/><path d="m771.255-49.6078-376.725 376.7248"/><path d="m786.972-49.6078-376.724 376.7248"/><path d="m802.689-49.6078-376.724 376.7248"/><path d="m818.407-49.6078-376.725 376.7248"/><path d="m834.124-49.6078-376.725 376.7248"/><path d="m849.841-49.6078-376.724 376.7248"/><path d="m865.559-49.6078-376.725 376.7248"/><path d="m881.276-49.6078-376.725 376.7248"/><path d="m896.993-49.6078-376.724 376.7248"/><path d="m912.71-49.6078-376.724 376.7248"/><path d="m928.428-49.6078-376.725 376.7248"/><path d="m944.145-49.6078-376.724 376.7248"/><path d="m959.862-49.6078-376.724 376.7248"/><path d="m975.58-49.6078-376.725 376.7248"/><path d="m991.297-49.6078-376.724 376.7248"/><path d="m1007.01-49.6078-376.72 376.7248"/><path d="m1022.73-49.6078-376.723 376.7248"/><path d="m1038.45-49.6078-376.725 376.7248"/><path d="m1054.17-49.6078-376.728 376.7248"/><path d="m1069.88-49.6078-376.721 376.7248"/><path d="m1085.6-49.6078-376.723 376.7248"/><path d="m1101.32-49.6078-376.726 376.7248"/><path d="m1117.04-49.6078-376.729 376.7248"/><path d="m1132.75-49.6078-376.722 376.7248"/></g><path d="m58 46c0-4.4183 3.5817-8 8-8h683c4.418 0 8 3.5817 8 8v431h-699z" fill="#fff" stroke="#c5d3db" stroke-width="2"/><path d="m58 46c0-4.4183 3.5817-8 8-8h683c4.418 0 8 3.5817 8 8v24.5185h-699z" fill="#fff" stroke="#c5d3db" stroke-width="2"/><ellipse cx="75.0488" cy="54.2593" fill="#fff" rx="4.64967" ry="4.87778" stroke="#c5d3db" stroke-width="2"/><ellipse cx="93.6474" cy="54.2593" fill="#fff" rx="4.64967" ry="4.87778" stroke="#c5d3db" stroke-width="2"/><ellipse cx="112.246" cy="54.2593" fill="#fff" rx="4.64967" ry="4.87778" stroke="#c5d3db" stroke-width="2"/><g stroke-linecap="round" stroke-width="8"><path d="m91 120h92.571" stroke="#0096ea"/><path d="m91 137.286h35.214" stroke="#515757"/><path d="m107.5 154.571h35.214" stroke="#0096ea"/><path d="m107.5 310.143h48.571" stroke="#0096ea"/><path d="m120.857 327.429h105.143" stroke="#0096ea"/><path d="m157 154.571h16.357" stroke="#d1dce3"/><path d="m170.357 310.143h16.357" stroke="#d1dce3"/><path d="m120.857 258.286h7.715" stroke="#d1dce3"/><path d="m105.143 275.571h7.714" stroke="#d1dce3"/><path d="m105.143 344.714h7.714" stroke="#d1dce3"/><path d="m91 362h7.7143" stroke="#d1dce3"/><path d="m325.928 206.429h3.786" stroke="#d1dce3"/><path d="m303.143 224.5h3.786" stroke="#d1dce3"/><path d="m339.286 224.5h17.143" stroke="#d1dce3"/><path d="m443 224.5h72.143" stroke="#d1dce3"/><path d="m321.214 224.5h3.786" stroke="#515757"/><path d="m120.857 171.857h35.215" stroke="#515757"/><path d="m142.857 189.143h13.215" stroke="#ffc13f"/><path d="m142.857 241h13.215" stroke="#ffc13f"/><path d="m157.786 206.429h111.428" stroke="#ffc13f"/><path d="m157.786 224.5h83.928" stroke="#ffc13f"/><path d="m529.429 224.5h83.928" stroke="#ffc13f"/><path d="m283.5 206.429h28.143" stroke="#997426"/><path d="m256 224.5h32.857" stroke="#997426"/><path d="m344 206.429h66.643" stroke="#2ca84f"/><path d="m240.286 327.429h54.857" stroke="#2ca84f"/><path d="m370.714 224.5h58" stroke="#ffc13f"/><path d="m424.929 206.429h111.428" stroke="#ffc13f"/><path d="m170.357 171.857h21.857" stroke="#0096ea"/><path d="m287.429 137.286h39.928" stroke="#515757"/><path d="m140.5 137.286h27.357" stroke="#515757"/><path d="m182.143 137.286h91" stroke="#00b4f0"/><path d="m341.643 137.286h65.857" stroke="#00b4f0"/><path d="m197.857 120h129.5" stroke="#2ca84f"/></g></g></svg>