<svg fill="none" height="64" viewBox="0 0 64 64" width="64" xmlns="http://www.w3.org/2000/svg"><path d="m40.0499 53.6795c8.809 0 15.9501-7.1149 15.9501-15.8917s-7.1411-15.8917-15.9501-15.8917-15.9502 7.1149-15.9502 15.8917 7.1412 15.8917 15.9502 15.8917z" fill="#ff707a"/><path d="m20.5294 12.8378-12.0362 20.7815c-.32264.5568-.49276 1.1883-.4932 1.8312s.16877 1.2746.49065 1.8318c.32189.5572.78514 1.0204 1.34331 1.343.55814.3225 1.19164.4932 1.83694.495h24.0847c.6463.0004 1.2813-.1688 1.8412-.4905s1.0249-.7846 1.3483-1.3422c.3233-.5576.4936-1.1901.4937-1.8341.0001-.6439-.17-1.2765-.4932-1.8342l-12.0362-20.7815c-.3227-.5586-.7875-1.0227-1.3476-1.3453-.56-.3226-1.1955-.4925-1.8424-.4925s-1.2824.1699-1.8424.4925c-.5601.3226-1.0249.7867-1.3476 1.3453z" fill="#00b4f0"/><path d="m38.9456 33.6193-5.8524-10.1096c-2.6922 1.3-4.9631 3.3283-6.5534 5.8531s-2.4358 5.4443-2.4401 8.425c0 .4523 0 .8924.0737 1.3325h11.5822c.6463.0004 1.2814-.1688 1.8412-.4905.5599-.3217 1.0249-.7846 1.3483-1.3422.3233-.5576.4936-1.1901.4937-1.8341.0001-.6439-.17-1.2765-.4932-1.8342z" fill="#5748ff"/></svg>