<svg fill="none" height="32" viewBox="0 0 34 32" width="34" xmlns="http://www.w3.org/2000/svg"><path d="m31 23c0-3.713-1.475-7.274-4.1005-9.8995s-6.1865-4.1005-9.8995-4.1005-7.27399 1.475-9.89949 4.1005c-2.62551 2.6255-4.10051 6.1865-4.10051 9.8995" stroke="currentColor" stroke-miterlimit="10"/><path d="m5 9h24" stroke="currentColor" stroke-miterlimit="10"/><g fill="#ff3a4b" stroke="#ff3a4b"><path d="m5 11c1.10457 0 2-.8954 2-2 0-1.10457-.89543-2-2-2s-2 .89543-2 2c0 1.1046.89543 2 2 2z"/><path d="m29 11c1.1046 0 2-.8954 2-2 0-1.10457-.8954-2-2-2s-2 .89543-2 2c0 1.1046.8954 2 2 2z"/><path d="m17.2847 11c1.1045 0 2-.8954 2-2 0-1.10457-.8955-2-2-2-1.1046 0-2 .89543-2 2 0 1.1046.8954 2 2 2z"/></g><path d="m31 25c1.1046 0 2-.8954 2-2s-.8954-2-2-2-2 .8954-2 2 .8954 2 2 2z" fill="#00b4f0" stroke="#00b4f0"/><path d="m3 25c1.10457 0 2-.8954 2-2s-.89543-2-2-2-2 .8954-2 2 .89543 2 2 2z" fill="#00b4f0" stroke="#00b4f0"/></svg>
