<svg fill="none" height="32" viewBox="0 0 32 32" width="32" xmlns="http://www.w3.org/2000/svg"><path d="m12 30c5.5228 0 10-4.4772 10-10s-4.4772-10-10-10c-5.52285 0-10 4.4772-10 10s4.47715 10 10 10z" stroke="currentColor" stroke-linejoin="round"/><path d="m28 4h-16v16h16z" stroke="currentColor" stroke-linejoin="round"/><path d="m28 6c1.1046 0 2-.89543 2-2s-.8954-2-2-2-2 .89543-2 2 .8954 2 2 2z" fill="#00b4f0" stroke="#00b4f0"/><path d="m12 22c1.1046 0 2-.8954 2-2s-.8954-2-2-2-2 .8954-2 2 .8954 2 2 2z" fill="#ff3a49" stroke="#ff3a49"/></svg>
