<svg fill="none" height="32" viewBox="0 0 32 32" width="32" xmlns="http://www.w3.org/2000/svg"><path d="m20 2h-18v18h18z" stroke="currentColor" stroke-linejoin="round"/><path d="m30 12h-18v18h18z" stroke="currentColor" stroke-linejoin="round"/><path d="m18 12c0 .3959.1175.7829.3376 1.1119.2201.3291.5329.5854.8988.7366.3659.1511.7684.1903 1.1566.1125s.7445-.269 1.0239-.5495.4693-.6375.5456-1.026.0356-.7908-.1169-1.1562c-.1526-.3653-.4101-.6771-.74-.8959-.3299-.2189-.7173-.3349-1.1132-.3334-.2623 0-.522.0518-.7642.1524-.2423.1006-.4622.248-.6473.4339-.1852.1858-.3317.4063-.4314.6489s-.1505.5025-.1495.7648z" fill="#ff3a49" stroke="#ff3a49"/><path d="m10 19.9924c-.0015.3959.1145.7833.3334 1.1132.2188.3299.5306.5874.8959.74.3654.1525.7677.1932 1.1562.1169s.7455-.2662 1.026-.5456.4717-.6357.5495-1.0239.0386-.7907-.1125-1.1566c-.1512-.3659-.4075-.6787-.7366-.8988-.329-.2201-.716-.3376-1.1119-.3376-.2623-.001-.5222.0498-.7648.1495s-.4631.2462-.6489.4314c-.1859.1851-.3333.405-.4339.6473-.1006.2422-.1524.5019-.1524.7642" fill="#00b4f0"/><path d="m10 19.9924c-.0015.3959.1145.7833.3334 1.1132.2188.3299.5306.5874.8959.74.3654.1525.7677.1932 1.1562.1169s.7455-.2662 1.026-.5456.4717-.6357.5495-1.0239.0386-.7907-.1125-1.1566c-.1512-.3659-.4075-.6787-.7366-.8988-.329-.2201-.716-.3376-1.1119-.3376-.2623-.001-.5222.0498-.7648.1495s-.4631.2462-.6489.4314c-.1859.1851-.3333.405-.4339.6473-.1006.2422-.1524.5019-.1524.7642" stroke="#00b4f0"/></svg>
