<svg fill="none" height="64" viewBox="0 0 64 64" width="64" xmlns="http://www.w3.org/2000/svg"><path d="m46.158 10h-18.059c-2.449 0-4.4344 1.9853-4.4344 4.4344v24.4666c0 2.449 1.9854 4.4344 4.4344 4.4344h18.059c2.449 0 4.4343-1.9854 4.4343-4.4344v-24.4666c0-2.4491-1.9853-4.4344-4.4343-4.4344z" fill="#ff707a"/><path d="m35.4933 20.6646h-18.0589c-2.4491 0-4.4344 1.9854-4.4344 4.4344v24.4666c0 2.4491 1.9853 4.4344 4.4344 4.4344h18.0589c2.4491 0 4.4344-1.9853 4.4344-4.4344v-24.4666c0-2.449-1.9853-4.4344-4.4344-4.4344z" fill="#00b4f0"/><path d="m35.5044 20.6646h-11.8398v18.2253c0 1.1761.4672 2.304 1.2988 3.1356.8317.8316 1.9595 1.2988 3.1356 1.2988h11.8398v-18.2253c0-1.1761-.4672-2.3039-1.2988-3.1356-.8316-.8316-1.9595-1.2988-3.1356-1.2988z" fill="#5748ff"/></svg>