<svg fill="none" height="32" viewBox="0 0 32 32" width="32" xmlns="http://www.w3.org/2000/svg"><path d="m12 5.33333h-.8983c-3.1858 0-5.76836 2.58257-5.76836 5.76827v.5836c0 1.8273-1.03236 3.4976-2.66667 4.3148 1.63431.8172 2.66667 2.4875 2.66667 4.3148v.5835c0 3.1858 2.58256 5.7684 5.76836 5.7684h.8983" stroke="currentColor" stroke-linejoin="round"/><path d="m20 5.33333h.8983c3.1858 0 5.7684 2.58257 5.7684 5.76827v.5836c0 1.8273 1.0323 3.4976 2.6666 4.3148-1.6343.8172-2.6666 2.4875-2.6666 4.3148v.5835c0 3.1858-2.5826 5.7684-5.7684 5.7684h-.8983" stroke="currentColor" stroke-linejoin="round"/><circle cx="20" cy="5.33333" fill="#00b4f0" r="2" stroke="#00b4f0"/><circle cx="12" cy="26.6667" fill="#ff3a49" r="2" stroke="#ff3a49"/></svg>
