<svg fill="none" height="32" viewBox="0 0 32 32" width="32" xmlns="http://www.w3.org/2000/svg"><path d="m4 4h24" stroke="currentColor" stroke-linejoin="round"/><path d="m4 6c1.10457 0 2-.89543 2-2s-.89543-2-2-2-2 .89543-2 2 .89543 2 2 2z" fill="#00b4f0"/><path d="m28 6c1.1046 0 2-.89543 2-2s-.8954-2-2-2-2 .89543-2 2 .8954 2 2 2z" fill="#ff3a4b"/><path d="m4 28h24" stroke="currentColor" stroke-linejoin="round"/><path d="m4 30c1.10457 0 2-.8954 2-2s-.89543-2-2-2-2 .8954-2 2 .89543 2 2 2z" fill="#00b4f0"/><path d="m28 30c1.1046 0 2-.8954 2-2s-.8954-2-2-2-2 .8954-2 2 .8954 2 2 2z" fill="#ff3a4b"/><path d="m4 16h24" stroke="currentColor" stroke-linejoin="round"/><path d="m4 18c1.10457 0 2-.8954 2-2s-.89543-2-2-2-2 .8954-2 2 .89543 2 2 2z" fill="#ff3a4b"/><path d="m28 18c1.1046 0 2-.8954 2-2s-.8954-2-2-2-2 .8954-2 2 .8954 2 2 2z" fill="#00b4f0"/></svg>
