<svg fill="none" height="64" viewBox="0 0 64 64" width="64" xmlns="http://www.w3.org/2000/svg"><path d="m25.83 31.993 11.1549-11.1549c1.3084-1.3043 2.0457-3.0746 2.0497-4.9221.0025-1.3807-.4051-2.731-1.171-3.8798s-1.8556-2.04434-3.1311-2.57305-2.6792-.6668-4.0333-.39676c-1.354.27004-2.5973.93611-3.5724 1.91361l-16.077 16.1467c-1.30702 1.3074-2.04126 3.0804-2.04126 4.9291s.73424 3.6217 2.04126 4.9291l16.0212 16.0351c.9751.9776 2.2185 1.6436 3.5725 1.9136 1.354.2701 2.7577.132 4.0332-.3967 1.2755-.5288 2.3653-1.4243 3.1312-2.5731s1.1734-2.4991 1.171-3.8798c-.0041-1.8475-.7413-3.6178-2.0498-4.9221z" fill="#00b4f0"/><path d="m52.9643 27.1267-16.0352-16.0351c-1.3149-1.27002-3.076-1.97275-4.904-1.95687-1.8279.01588-3.5766.74913-4.8692 2.04177-1.2926 1.2926-2.0259 3.0412-2.0418 4.8692-.0158 1.828.6869 3.5891 1.9569 4.904l11.1549 11.1549-11.1549 11.1549c-1.27 1.3149-1.9727 3.076-1.9569 4.904.0159 1.8279.7492 3.5766 2.0418 4.8692s3.0413 2.0258 4.8692 2.0417c1.828.0159 3.5891-.6868 4.904-1.9568l16.0352-16.0351c1.307-1.3074 2.0412-3.0804 2.0412-4.9291s-.7342-3.6217-2.0412-4.9291z" fill="#ff707a"/><g fill="#5748ff"><path d="m36.929 43.12-4.9221-4.936-4.9221 4.936c-.9772.9742-1.6434 2.2164-1.9141 3.5694-.2708 1.353-.1341 2.7559.393 4.0311.527 1.2752 1.4206 2.3654 2.5676 3.1324s2.4958 1.1764 3.8756 1.1764 2.7286-.4094 3.8756-1.1764 2.0405-1.8572 2.5676-3.1324c.527-1.2752.6638-2.6781.393-4.0311s-.9369-2.5952-1.9141-3.5694z"/><path d="m27.0848 20.8799 4.9221 4.9361 4.9221-4.9361c.9772-.9741 1.6433-2.2163 1.9141-3.5693s.134-2.7559-.393-4.0311c-.5271-1.2752-1.4206-2.3653-2.5676-3.1324-1.147-.76701-2.4958-1.17646-3.8756-1.17646s-2.7286.40945-3.8756 1.17646c-1.147.7671-2.0406 1.8572-2.5676 3.1324-.5271 1.2752-.6638 2.6781-.393 4.0311.2707 1.353.9369 2.5952 1.9141 3.5693z"/></g></svg>