<svg fill="none" height="32" viewBox="0 0 32 32" width="32" xmlns="http://www.w3.org/2000/svg"><g stroke="currentColor" stroke-linejoin="round"><path d="m4 28 24-24"/><path d="m8 4h20"/><path d="m28 4v20"/></g><path d="m26 3.96226c0 .54044.2146 1.05875.5966 1.4409s.9002.59684 1.4404.59684c.2641.00019.5255-.05295.7685-.15625s.4627-.25462.6459-.44491c.1832-.19028.326-.4156.4201-.66245.094-.24686.1372-.51016.127-.77413 0-.52042-.2066-1.01953-.5745-1.38753-.3678-.36799-.8668-.57473-1.387-.57473-.5274-.00036-1.0344.20394-1.4143.56991-.38.36598-.6032.8651-.6227 1.39235" fill="#00b4f0"/><path d="m26 3.96226c0 .54044.2146 1.05875.5966 1.4409s.9002.59684 1.4404.59684c.2641.00019.5255-.05295.7685-.15625s.4627-.25462.6459-.44491c.1832-.19028.326-.4156.4201-.66245.094-.24686.1372-.51016.127-.77413 0-.52042-.2066-1.01953-.5745-1.38753-.3678-.36799-.8668-.57473-1.387-.57473-.5274-.00036-1.0344.20394-1.4143.56991-.38.36598-.6032.8651-.6227 1.39235" stroke="#00b4f0"/><path d="m2 27.9623c0 .5404.21461 1.0587.59662 1.4409.38201.3821.90013.5968 1.44038.5968.26406.0002.52545-.0529.76849-.1562.24305-.1033.46273-.2547.6459-.445.18317-.1902.32605-.4156.42007-.6624.09402-.2469.13724-.5102.12709-.7741 0-.5205-.20666-1.0196-.57453-1.3876-.36786-.368-.86679-.5747-1.38702-.5747-.52743-.0004-1.03443.2039-1.41435.5699-.37991.366-.60312.8651-.62265 1.3924" fill="#ff3a4b"/><path d="m2 27.9623c0 .5404.21461 1.0587.59662 1.4409.38201.3821.90013.5968 1.44038.5968.26406.0002.52545-.0529.76849-.1562.24305-.1033.46273-.2547.6459-.445.18317-.1902.32605-.4156.42007-.6624.09402-.2469.13724-.5102.12709-.7741 0-.5205-.20666-1.0196-.57453-1.3876-.36786-.368-.86679-.5747-1.38702-.5747-.52743-.0004-1.03443.2039-1.41435.5699-.37991.366-.60312.8651-.62265 1.3924" stroke="#ff3a4b"/><path d="m26 23.9623c0 .5404.2146 1.0587.5966 1.4409.382.3821.9002.5968 1.4404.5968.2641.0002.5255-.0529.7685-.1562s.4627-.2547.6459-.445c.1832-.1902.326-.4156.4201-.6624.094-.2469.1372-.5102.127-.7741 0-.5205-.2066-1.0196-.5745-1.3876-.3678-.368-.8668-.5747-1.387-.5747-.5274-.0004-1.0344.2039-1.4143.5699-.38.366-.6032.8651-.6227 1.3924" fill="#ff3a4b"/><path d="m26 23.9623c0 .5404.2146 1.0587.5966 1.4409.382.3821.9002.5968 1.4404.5968.2641.0002.5255-.0529.7685-.1562s.4627-.2547.6459-.445c.1832-.1902.326-.4156.4201-.6624.094-.2469.1372-.5102.127-.7741 0-.5205-.2066-1.0196-.5745-1.3876-.3678-.368-.8668-.5747-1.387-.5747-.5274-.0004-1.0344.2039-1.4143.5699-.38.366-.6032.8651-.6227 1.3924" stroke="#ff3a4b"/><path d="m6 3.96226c0 .54044.21461 1.05875.59662 1.4409s.90013.59684 1.44038.59684c.26406.00019.52545-.05295.76849-.15625.24305-.1033.46273-.25462.6459-.44491.18317-.19028.32605-.4156.42007-.66245.09402-.24686.13724-.51016.12709-.77413 0-.52042-.20666-1.01953-.57453-1.38753-.36786-.36799-.86679-.57473-1.38702-.57473-.52743-.00036-1.03443.20394-1.41435.56991-.37991.36598-.60312.8651-.62265 1.39235" fill="#ff3a4b"/><path d="m6 3.96226c0 .54044.21461 1.05875.59662 1.4409s.90013.59684 1.44038.59684c.26406.00019.52545-.05295.76849-.15625.24305-.1033.46273-.25462.6459-.44491.18317-.19028.32605-.4156.42007-.66245.09402-.24686.13724-.51016.12709-.77413 0-.52042-.20666-1.01953-.57453-1.38753-.36786-.36799-.86679-.57473-1.38702-.57473-.52743-.00036-1.03443.20394-1.41435.56991-.37991.36598-.60312.8651-.62265 1.39235" stroke="#ff3a4b"/></svg>
