<svg width="32" height="32" viewBox="0 0 32 32" fill="none" xmlns="http://www.w3.org/2000/svg">
<path d="M17.625 3C19.0273 6.30859 12.5977 8.33594 12 11.0938C11.4531 13.625 15.8086 16.5938 15.8125 16.5938C15.1484 15.5469 14.6641 14.6641 14 13.0312C12.875 10.2734 20.8555 7.78516 17.625 3ZM21.875 7.59375C21.875 7.59375 16.2539 7.94922 15.9688 11.625C15.8398 13.2617 17.4531 14.1211 17.5 15.3125C17.5391 16.2852 16.5312 17.0938 16.5312 17.0938C16.5312 17.0938 18.3398 16.7656 18.9062 15.2812C19.5312 13.6328 17.6875 12.5078 17.875 11.1875C18.0547 9.92578 21.875 7.59375 21.875 7.59375ZM23.25 16.0625C22.6602 16.0352 21.9961 16.2539 21.4062 16.6875C22.5703 16.4297 23.5625 17.1602 23.5625 18C23.5625 19.8828 20.875 21.6562 20.875 21.6562C20.875 21.6562 25.0312 21.1914 25.0312 18.0938C25.0312 16.8164 24.2305 16.1094 23.25 16.0625ZM12.2188 16.0938C10.7695 16.1445 7.875 16.3828 7.875 17.5C7.875 19.0547 14.6172 19.1758 19.4375 18.2188C19.4375 18.2188 20.75 17.3047 21.0938 16.9688C17.9336 17.625 10.7188 17.7266 10.7188 17.1562C10.7188 16.6328 13.0312 16.0938 13.0312 16.0938C13.0312 16.0938 12.7031 16.0781 12.2188 16.0938ZM11.7812 18.9688C10.9883 18.9688 9.8125 19.5859 9.8125 20.1875C9.8125 21.3984 15.7812 22.3281 20.1875 20.5625L18.6562 19.625C15.668 20.6016 10.1484 20.2773 11.7812 18.9688ZM12.5312 21.6875C11.4492 21.6875 10.75 22.3711 10.75 22.875C10.75 24.4258 17.2148 24.5781 19.7812 23L18.1562 21.9375C16.2422 22.7617 11.4258 22.8828 12.5312 21.6875ZM8.90625 23.0938C7.14062 23.0586 6 23.8594 6 24.5312C6 28.1055 24.0938 27.9336 24.0938 24.2812C24.0938 23.6758 23.3789 23.3867 23.125 23.25C24.6016 26.7422 8.34375 26.4688 8.34375 24.4062C8.34375 23.9375 9.54688 23.4688 10.6562 23.6875L9.71875 23.1562C9.44141 23.1133 9.16016 23.0977 8.90625 23.0938ZM26 25.5C23.25 28.1602 16.2891 29.1133 9.28125 27.4688C16.2891 30.3984 25.9648 28.7695 26 25.5Z" fill="#00B4F0"/>
</svg>
