<svg width="64" height="64" viewBox="0 0 64 64" fill="none" xmlns="http://www.w3.org/2000/svg"><path d="M26.2375 30.9024L10.9236 48.0166C10.1113 48.9244 9.67164 50.1352 9.70132 51.3827C9.73101 52.6301 10.2276 53.8121 11.0819 54.6684C11.9362 55.5248 13.0781 55.9855 14.2566 55.9492C15.435 55.9128 16.5534 55.3824 17.3657 54.4746L32.6796 37.3604C30.1028 34.7772 28.1701 32.8398 26.2375 30.9024Z" fill="#00B4F0"/><circle cx="39.3922" cy="23.5" r="15.5" fill="#FF707A"/><circle cx="33.3922" cy="30.5" r="15.5" fill="#00B4F0"/><path fill-rule="evenodd" clip-rule="evenodd" d="M25.1518 17.3696C27.5388 15.8683 30.3641 15 33.3922 15C41.9526 15 48.8922 21.9396 48.8922 30.5C48.8922 32.6775 48.4432 34.7502 47.6327 36.6304C45.2456 38.1317 42.4203 39 39.3922 39C30.8318 39 23.8922 32.0604 23.8922 23.5C23.8922 21.3225 24.3412 19.2498 25.1518 17.3696Z" fill="#5748FF"/></svg>
