<svg width="64" height="64" viewBox="0 0 64 64" fill="none" xmlns="http://www.w3.org/2000/svg"><path d="M44.2409 26H18.7591C16.683 26 15 27.7016 15 29.8006V48.1994C15 50.2984 16.683 52 18.7591 52H44.2409C46.317 52 48 50.2984 48 48.1994V29.8006C48 27.7016 46.317 26 44.2409 26Z" fill="#FF707A"/><path d="M20 18.2273V26H24V19.0455C24 17 24.1905 15.3095 25.5 14C27 12.5 27.8983 12 31.5 12C35.1017 12 36 12.5 37.5 14C39 15.5 39 17 39 19.0455V26H43V18.2273C43 14.1364 41.8485 12.1314 41 11C39.5 9 37 8 34 8H29C26 8 23.5 9 22 11C20.5 13 20 14.1364 20 18.2273Z" fill="#00B4F0"/><circle cx="31.5" cy="36.5" r="4.5" fill="#5748FF"/><path d="M31.5 36L36.2631 46.5H26.7369L31.5 36Z" fill="#5748FF"/></svg>
