<svg fill="none" height="32" viewBox="0 0 32 32" width="32" xmlns="http://www.w3.org/2000/svg"><path d="m12 28 16-24" stroke="currentColor" stroke-miterlimit="10"/><path d="m28 6c1.1046 0 2-.89543 2-2s-.8954-2-2-2-2 .89543-2 2 .8954 2 2 2z" fill="#ff3a4b" stroke="#ff3a4b"/><path d="m12 28-8-9" stroke="currentColor" stroke-miterlimit="10"/><path d="m12 30c1.1046 0 2-.8954 2-2s-.8954-2-2-2-2 .8954-2 2 .8954 2 2 2z" fill="#00b4f0" stroke="#00b4f0"/><path d="m4 21c1.10457 0 2-.8954 2-2s-.89543-2-2-2-2 .8954-2 2 .89543 2 2 2z" fill="#ff3a4b" stroke="#ff3a4b"/></svg>
