<svg fill="none" height="32" viewBox="0 0 32 32" width="32" xmlns="http://www.w3.org/2000/svg"><path d="m5.67111 17.471 11.47099-11.471 11.3137 11.3137-11.471 11.471c-.7084.7085-1.6577 1.118-2.6389 1.1386-.9813.0206-1.9142-.3495-2.5935-1.0288l-6.1911-6.1911c-.6793-.6793-1.04936-1.6122-1.02876-2.5934.02059-.9813.43015-1.9306 1.13857-2.639z" stroke="currentColor" stroke-miterlimit="10"/><path d="m28 30c1.1046 0 2-.8954 2-2s-.8954-2-2-2-2 .8954-2 2 .8954 2 2 2z" fill="#ff3a4b" stroke="#ff3a4b"/><path d="m17 15v-9c0-2.20914-1.7909-4-4-4s-4 1.79086-4 4v8" stroke="currentColor"/><path d="m17 17c1.1046 0 2-.8954 2-2s-.8954-2-2-2-2 .8954-2 2 .8954 2 2 2z" fill="#00b4f0" stroke="#00b4f0"/></svg>
