<svg viewBox="0 0 263 72" xmlns="http://www.w3.org/2000/svg">
<path d="M46.8 25.2H68.4V28.8C68.4 54 57.6 68.4 28.8 68.4H25.2V46.8H28.8C41.4 46.8 46.8 41.4 46.8 28.8V25.2ZM3.59998 25.2H25.2V46.8H3.59998V25.2Z" fill="#47E054"/>
<path d="M25.2 3.6H46.7999V25.2H25.2V3.6Z" fill="#47E054"/>
<path d="M88 61V52.756H97.468C99.1 52.756 100.42 52.252 101.428 51.244C102.436 50.236 102.94 48.916 102.94 47.284V10.6H111.76V48.292C111.76 50.788 111.208 53.008 110.104 54.952C109.024 56.872 107.488 58.36 105.496 59.416C103.504 60.472 101.224 61 98.656 61H88ZM146.469 24.136H155.037V61H146.685V55.24C145.533 57.4 143.961 59.044 141.969 60.172C139.977 61.3 137.721 61.864 135.201 61.864C132.561 61.864 130.233 61.288 128.217 60.136C126.2 58.984 124.628 57.316 123.5 55.132C122.372 52.948 121.808 50.344 121.808 47.32V24.136H130.34V45.988C130.34 48.652 131.013 50.716 132.357 52.18C133.725 53.62 135.632 54.34 138.08 54.34C139.713 54.34 141.165 53.968 142.436 53.224C143.699 52.4668 144.722 51.3688 145.389 50.056C146.109 48.712 146.469 47.176 146.469 45.448V24.136ZM184.863 23.272C187.503 23.272 189.831 23.848 191.847 25C193.887 26.152 195.47 27.82 196.598 30.004C197.727 32.188 198.291 34.792 198.291 37.816V61H189.723V39.148C189.723 36.484 189.039 34.432 187.671 32.992C186.326 31.528 184.43 30.796 181.982 30.796C180.351 30.796 178.899 31.18 177.626 31.948C176.354 32.692 175.358 33.736 174.638 35.08C173.942 36.424 173.594 37.96 173.594 39.688V61H165.062V24.136H173.378V29.896C174.53 27.736 176.102 26.092 178.094 24.964C180.086 23.836 182.343 23.272 184.863 23.272ZM216.02 61H207.452V24.136H216.02V61ZM207.056 18.736V10.6H216.344V18.736H207.056ZM260.385 44.872H232.269C232.509 46.792 233.097 48.484 234.033 49.948C234.969 51.412 236.169 52.552 237.633 53.368C239.097 54.16 240.729 54.556 242.529 54.556C244.641 54.556 246.429 54.244 247.893 53.62C249.357 52.996 250.485 52.096 251.277 50.92H259.737C259.353 52.72 258.405 54.46 256.893 56.14C255.381 57.82 253.365 59.2 250.845 60.28C248.325 61.336 245.445 61.864 242.205 61.864C238.605 61.864 235.365 61.036 232.485 59.38C229.629 57.724 227.397 55.432 225.789 52.504C224.181 49.552 223.377 46.228 223.377 42.532C223.377 38.884 224.193 35.596 225.825 32.668C227.457 29.74 229.701 27.448 232.557 25.792C235.437 24.112 238.653 23.272 242.205 23.272C245.853 23.272 249.045 24.1 251.781 25.756C254.541 27.412 256.665 29.704 258.153 32.632C259.641 35.536 260.385 38.836 260.385 42.532V44.872ZM242.241 30.364C239.649 30.364 237.465 31.132 235.689 32.668C233.937 34.204 232.821 36.292 232.341 38.932H251.601C251.169 36.292 250.149 34.204 248.541 32.668C246.957 31.132 244.857 30.364 242.241 30.364Z" fill="currentColor"/>
</svg>
