<svg width="589" height="105" viewBox="0 0 589 105" fill="none" xmlns="http://www.w3.org/2000/svg">
<path fill-rule="evenodd" clip-rule="evenodd" d="M132.028 13.0208H130.758C124.075 13.0104 118.652 18.4233 118.652 25.1062V52.134C118.652 57.532 114.191 61.903 108.883 61.903C105.729 61.903 102.58 60.316 100.711 57.651L73.105 18.2255C70.815 14.9518 67.089 13 63.055 13C56.763 13 51.1 18.3504 51.1 24.9552V52.139C51.1 57.537 46.676 61.909 41.331 61.909C38.166 61.909 35.023 60.321 33.154 57.656L2.264 13.5413C1.5666 12.5472 0 13.0364 0 14.2543V37.826C0 39.018 0.364304 40.174 1.0462 41.152L31.442 84.565C33.237 87.131 35.887 89.036 38.942 89.728C46.587 91.466 53.624 85.58 53.624 78.08V50.911C53.624 45.514 57.996 41.142 63.393 41.142H63.409C66.662 41.142 69.712 42.729 71.58 45.394L99.186 84.815C101.481 88.094 105.016 90.04 109.231 90.04C115.664 90.04 121.176 84.685 121.176 78.085V50.906C121.176 45.509 125.548 41.137 130.945 41.137H132.023C132.699 41.137 133.246 40.59 133.246 39.914V14.2387C133.246 13.5621 132.699 13.0156 132.023 13.0156L132.028 13.0208ZM290.506 33.3608H283.75C283.063 33.3608 282.506 33.9177 282.506 34.6048V88.786C282.506 89.473 283.063 90.03 283.75 90.03H290.506C291.193 90.03 291.75 89.473 291.75 88.786V34.6048C291.75 33.9177 291.193 33.3608 290.506 33.3608ZM283.526 13.0052H290.725C291.412 13.0052 291.968 13.5621 291.968 14.2491V23.0972C291.968 23.7842 291.412 24.3411 290.725 24.3411H283.526C282.839 24.3411 282.282 23.7842 282.282 23.0972V14.2491C282.282 13.5621 282.839 13.0052 283.526 13.0052ZM330.942 31.8203C323.349 31.8203 317.847 34.459 314.324 38.316C313.194 39.461 311.242 38.659 311.242 37.051V34.6048C311.242 33.9177 310.685 33.3608 309.998 33.3608H303.357C302.67 33.3608 302.113 33.9177 302.113 34.6048V88.786C302.113 89.473 302.67 90.03 303.357 90.03H310.004C310.691 90.03 311.248 89.473 311.248 88.786V54.487C311.248 42.599 313.558 39.96 326.216 39.96C338.874 39.96 340.961 42.053 340.961 53.935V88.781C340.961 89.468 341.518 90.025 342.205 90.025H348.961C349.648 90.025 350.205 89.468 350.205 88.781V51.4C350.205 37.863 342.502 31.8098 330.947 31.8098V31.8203H330.942ZM399.957 39.086C401.086 40.231 403.038 39.43 403.038 37.821V14.2543C403.038 13.5673 403.595 13.0104 404.282 13.0104H410.928C411.615 13.0104 412.172 13.5673 412.172 14.2543V88.791C412.172 89.478 411.615 90.035 410.928 90.035H404.282C403.595 90.035 403.038 89.478 403.038 88.791V85.575C403.106 83.93 401.112 83.139 399.957 84.31C396.766 88.271 390.604 91.57 382.349 91.57C367.828 91.57 358.361 81.229 358.361 61.971C358.361 41.616 368.921 31.8203 382.677 31.8203C390.932 31.8203 396.876 35.125 399.957 39.086ZM368.369 61.747C368.369 80.344 370.68 83.097 385.758 83.097C400.727 83.097 403.038 80.344 403.038 61.747C403.038 43.151 400.836 40.288 385.758 40.288C370.68 40.288 368.369 43.151 368.369 61.747ZM450.802 58.234L439.914 56.366C431.878 54.934 430.446 52.514 430.446 48.33C430.556 42.604 432.757 39.747 443.432 39.747C453.43 39.747 456.631 42.703 457.318 49.084C457.386 49.714 457.917 50.198 458.552 50.198H465.157C465.864 50.198 466.442 49.605 466.4 48.892C465.76 37.936 455.731 31.815 443.765 31.815C430.337 31.815 421.427 38.966 421.427 49.204C421.427 58.557 428.692 62.632 437.384 64.282L449.381 66.484C455.986 67.696 458.187 69.898 458.187 74.077C458.187 80.791 455.876 83.654 444.541 83.654C433.205 83.654 430.072 80.385 429.343 73.76C429.275 73.13 428.744 72.651 428.109 72.651H421.463C420.765 72.651 420.198 73.229 420.214 73.926C420.531 85.731 431.232 91.581 443.984 91.581C457.849 91.581 467.421 84.429 467.421 73.64C467.421 64.178 460.155 59.884 450.802 58.234ZM498.903 83.435C511.228 83.435 513.539 80.797 513.539 68.909V34.6204C513.539 33.9334 514.096 33.3765 514.783 33.3765H521.539C522.226 33.3765 522.783 33.9334 522.783 34.6204V88.801C522.783 89.488 522.226 90.045 521.539 90.045H514.783C514.096 90.045 513.539 89.488 513.539 88.801V86.439C513.513 84.757 511.769 83.919 510.567 85.096C507.049 88.947 501.547 91.586 494.172 91.586C482.836 91.586 475.133 85.533 475.133 71.995V34.6152C475.133 33.9282 475.69 33.3713 476.377 33.3713H483.133C483.82 33.3713 484.377 33.9282 484.377 34.6152V69.461C484.377 81.343 486.579 83.435 498.903 83.435ZM576.839 33.3608V26.0951C576.839 23.2377 579.155 20.9216 582.012 20.9216H587.04C587.727 20.9216 588.284 20.3647 588.284 19.6777V14.2439C588.284 13.5569 587.727 13 587.04 13H583.553C573.648 13 567.595 18.5014 567.595 27.9688V33.3608H560.272C553.782 33.3712 548.687 34.2613 545.288 38.316C544.039 39.497 542.316 38.612 542.316 36.895V34.61C542.316 33.923 541.759 33.366 541.072 33.366H534.316C533.629 33.366 533.072 33.923 533.072 34.61V88.791C533.072 89.478 533.629 90.035 534.316 90.035H541.072C541.759 90.035 542.316 89.478 542.316 88.791V54.825C542.316 43.598 545.179 40.96 557.503 40.96H567.595V88.796C567.595 89.483 568.152 90.04 568.839 90.04H575.595C576.282 90.04 576.839 89.483 576.839 88.796V40.96H587.05C587.737 40.96 588.294 40.403 588.294 39.716V34.6152C588.294 33.9282 587.737 33.3713 587.05 33.3713H576.839V33.3608ZM244.892 75.899C245.132 76.893 246.022 77.596 247.042 77.596H247.047C248.062 77.596 248.947 76.903 249.191 75.92L264.686 13.9473C264.826 13.3904 265.326 13 265.898 13H273.633C274.46 13 275.064 13.7807 274.856 14.5822L255.364 89.129C255.224 89.655 254.75 90.025 254.203 90.025H240.406C239.849 90.025 239.365 89.645 239.224 89.109L223.032 26.7508C222.783 25.7776 221.903 25.0958 220.893 25.0958H220.753C219.748 25.0958 218.869 25.7776 218.614 26.7508L202.427 89.109C202.286 89.65 201.802 90.025 201.245 90.025H187.448C186.901 90.025 186.422 89.655 186.287 89.129L166.795 14.5822C166.587 13.7807 167.191 13 168.019 13H175.753C176.325 13 176.825 13.3904 176.965 13.9473L192.455 75.92C192.699 76.903 193.579 77.596 194.599 77.596C195.619 77.596 196.509 76.893 196.749 75.899L211.639 13.9577C211.775 13.3956 212.274 13 212.852 13H228.794C229.372 13 229.871 13.3956 230.007 13.9577L244.892 75.899Z" fill="currentColor"/>
</svg>
