<svg width="179" height="118" viewBox="0 0 179 118" fill="none" xmlns="http://www.w3.org/2000/svg">
<rect x="1" y="20" width="178" height="28" rx="5" fill="white" fill-opacity="0.75"/>
<rect x="1" width="74" height="11" rx="5.5" fill="white" fill-opacity="0.5"/>
<rect x="32" y="72" width="111" height="11" rx="5.5" fill="white" fill-opacity="0.5"/>
<rect x="2" y="67" width="20" height="20" rx="4" fill="white" fill-opacity="0.75"/>
<path d="M7.5364 76.73C7.18492 76.3785 6.61508 76.3785 6.2636 76.73C5.91213 77.0814 5.91213 77.6513 6.2636 78.0027L9.53043 81.2696C9.8819 81.621 10.4517 81.621 10.8032 81.2696L18.5364 73.5364C18.8879 73.1849 18.8879 72.6151 18.5364 72.2636C18.1849 71.9121 17.6151 71.9121 17.2636 72.2636L10.1668 79.3604L7.5364 76.73Z" fill="#8378FF"/>
<rect x="32" y="103" width="133" height="11" rx="5.5" fill="white" fill-opacity="0.5"/>
<rect x="2" y="98" width="20" height="20" rx="4" fill="white" fill-opacity="0.75"/>
</svg>
