<svg fill="none" height="56" viewBox="0 0 216 56" width="216" xmlns="http://www.w3.org/2000/svg"><g stroke="var(--docs-divider-color-2)"><path d="m84.5 4.5h47v47h-47z" opacity=".5"/><path d="m92.5 0v56" stroke-dasharray="2 2"/><path d="m123.5 0v56" stroke-dasharray="2 2"/><path d="m136 12.5h-56" stroke-dasharray="2 2"/><path d="m136 43.5h-56" stroke-dasharray="2 2"/><path d="m164.5 4.5h47v47h-47z" opacity=".5"/><path d="m172.5 0v56" stroke-dasharray="2 2"/><path d="m203.5 0v56" stroke-dasharray="2 2"/><path d="m216 12.5h-56" stroke-dasharray="2 2"/><path d="m216 43.5h-56" stroke-dasharray="2 2"/><path d="m4.5 4.5h47v47h-47z" opacity=".5"/><path d="m12.5 0v56" stroke-dasharray="2 2"/><path d="m43.5 0v56" stroke-dasharray="2 2"/><path d="m56 12.5h-56" stroke-dasharray="2 2"/><path d="m56 43.5h-56" stroke-dasharray="2 2"/></g><path d="m114 13.984v.048l-3.552 3.984h-10.464c-1.056 0-1.968.864-1.968 1.968v16.032c0 1.056.864 1.968 1.968 1.968h5.088c.624.096 1.248.096 1.872 0h9.072c1.056 0 1.968-.864 1.968-1.968v-8.448l3.888-4.32.144.096v12.624c0 3.36-2.688 6.048-6 6.048h-15.984c-3.36 0-6.048-2.688-6.048-6.048v-15.984c0-3.312 2.688-6 6.048-6zm2.544 3.264 2.688 2.976-9.792 11.136c-.432.48-1.776 1.104-4.08 1.872-.048.048-.144.048-.24 0-.192-.048-.336-.288-.24-.48.624-2.256 1.2-3.648 1.632-4.128zm1.296-1.536 2.736-3.072c.72-.816 1.968-.864 2.784-.096.816.72.864 2.016.144 2.832l-2.976 3.36z" fill="var(--docs-secondary-text-color)"/><path d="m188 28c-3.312 0-6-2.688-6-6s2.688-6 6-6 6 2.688 6 6-2.688 6-6 6zm-14.016 14.016c0-5.52 6.288-10.032 14.016-10.032s14.016 4.512 14.016 10.032c-14.016 0-14.016 0-28.032 0z" fill="var(--docs-secondary-text-color)"/><path d="m35.7815 32.9531 6.3026 6.3026c.7634.7634.768 2.0343-.013 2.8154-.7865.7865-2.0416.7869-2.8154.013l-6.3026-6.3026c-1.9617 1.3969-4.3614 2.2185-6.9531 2.2185-6.6274 0-12-5.3726-12-12s5.3726-12 12-12 12 5.3726 12 12c0 2.5917-.8216 4.9914-2.2185 6.9531zm-9.7815 2.0469c4.9706 0 9-4.0294 9-9s-4.0294-9-9-9-9 4.0294-9 9 4.0294 9 9 9z" fill="var(--docs-secondary-text-color)"/></svg>
