<?xml version="1.0" encoding="UTF-8"?>
<!--!
Font Awesome Free 6.4.2 by @fontawesome - https://fontawesome.com
License - https://fontawesome.com/license/free (Icons: CC BY 4.0, Fonts: SIL OFL 1.1, Code: MIT
License)
Copyright 2023 Fonticons, Inc.
-->
<svg xmlns="http://www.w3.org/2000/svg" style="display: none;">
  <symbol id="code-branch" viewBox="0 0 448 512">
    <path
      d="M80 104a24 24 0 1 0 0-48 24 24 0 1 0 0 48zm80-24c0 32.8-19.7 61-48 73.3v87.8c18.8-10.9 40.7-17.1 64-17.1h96c35.3 0 64-28.7 64-64v-6.7C307.7 141 288 112.8 288 80c0-44.2 35.8-80 80-80s80 35.8 80 80c0 32.8-19.7 61-48 73.3V160c0 70.7-57.3 128-128 128H176c-35.3 0-64 28.7-64 64v6.7c28.3 12.3 48 40.5 48 73.3c0 44.2-35.8 80-80 80s-80-35.8-80-80c0-32.8 19.7-61 48-73.3V352 153.3C19.7 141 0 112.8 0 80C0 35.8 35.8 0 80 0s80 35.8 80 80zm232 0a24 24 0 1 0 -48 0 24 24 0 1 0 48 0zM80 456a24 24 0 1 0 0-48 24 24 0 1 0 0 48z" />
  </symbol>
  <symbol id="user" viewBox="0 0 448 512">
    <path
      d="M224 256A128 128 0 1 0 224 0a128 128 0 1 0 0 256zm-45.7 48C79.8 304 0 383.8 0 482.3C0 498.7 13.3 512 29.7 512H418.3c16.4 0 29.7-13.3 29.7-29.7C448 383.8 368.2 304 269.7 304H178.3z" />
  </symbol>
</svg>