<svg width="2000" height="1095" viewBox="0 0 2000 1095" fill="none" xmlns="http://www.w3.org/2000/svg">
<g clip-path="url(#clip0)">
<rect width="2000" height="1095" fill="#F0F3F7"/>
<rect opacity="0.4" width="2000" height="1600" fill="#F0F3F7"/>
<rect x="385" y="110" width="1231" height="142" fill="white" stroke="#2D3033" stroke-width="4"/>
<path d="M713.149 197.32C720.549 197.32 723.989 193.64 723.989 189.36C723.989 179.08 707.029 183.36 707.029 176.52C707.029 174.08 709.069 172.08 713.829 172.08C716.309 172.08 719.069 172.8 721.509 174.36L722.829 171.16C720.509 169.56 717.109 168.68 713.829 168.68C706.469 168.68 703.109 172.36 703.109 176.68C703.109 187.08 720.069 182.76 720.069 189.6C720.069 192.04 717.989 193.92 713.149 193.92C709.549 193.92 705.989 192.56 703.909 190.68L702.429 193.8C704.669 195.88 708.869 197.32 713.149 197.32ZM742.093 175.6C738.853 175.6 736.213 176.76 734.613 178.8V167.32H730.773V197H734.613V186.08C734.613 181.48 737.253 179.04 741.333 179.04C744.973 179.04 747.053 181.08 747.053 185.24V197H750.893V184.8C750.893 178.56 747.253 175.6 742.093 175.6ZM767.219 175.6C763.819 175.6 760.659 176.56 758.459 178.32L760.059 181.2C761.699 179.8 764.259 178.92 766.779 178.92C770.579 178.92 772.459 180.8 772.459 184.04V184.8H766.379C760.059 184.8 757.859 187.6 757.859 191C757.859 194.68 760.899 197.24 765.699 197.24C769.019 197.24 771.379 196.12 772.659 194.2V197H776.299V184.2C776.299 178.4 773.019 175.6 767.219 175.6ZM766.339 194.28C763.419 194.28 761.659 192.96 761.659 190.84C761.659 189.04 762.739 187.56 766.539 187.56H772.459V190.52C771.499 192.96 769.219 194.28 766.339 194.28ZM801.183 167.32V179C799.423 176.72 796.783 175.6 793.783 175.6C787.583 175.6 783.063 179.92 783.063 186.4C783.063 192.88 787.583 197.24 793.783 197.24C796.903 197.24 799.623 196.04 801.343 193.64V197H805.023V167.32H801.183ZM794.103 193.88C790.023 193.88 786.943 190.92 786.943 186.4C786.943 181.88 790.023 178.96 794.103 178.96C798.143 178.96 801.223 181.88 801.223 186.4C801.223 190.92 798.143 193.88 794.103 193.88ZM822.868 197.24C829.228 197.24 833.868 192.72 833.868 186.4C833.868 180.08 829.228 175.6 822.868 175.6C816.508 175.6 811.828 180.08 811.828 186.4C811.828 192.72 816.508 197.24 822.868 197.24ZM822.868 193.88C818.788 193.88 815.708 190.92 815.708 186.4C815.708 181.88 818.788 178.96 822.868 178.96C826.948 178.96 829.988 181.88 829.988 186.4C829.988 190.92 826.948 193.88 822.868 193.88ZM868.733 175.8L862.413 192.76L856.133 175.8H852.893L846.493 192.68L840.333 175.8H836.693L844.573 197H848.253L854.453 180.92L860.573 197H864.253L872.173 175.8H868.733ZM890.372 197H902.172C911.172 197 917.292 191.32 917.292 183C917.292 174.68 911.172 169 902.172 169H890.372V197ZM894.372 193.52V172.48H901.932C908.852 172.48 913.292 176.72 913.292 183C913.292 189.28 908.852 193.52 901.932 193.52H894.372ZM937.559 197.32C946.079 197.32 952.399 191.24 952.399 183C952.399 174.76 946.079 168.68 937.559 168.68C928.959 168.68 922.639 174.8 922.639 183C922.639 191.2 928.959 197.32 937.559 197.32ZM937.559 193.76C931.279 193.76 926.639 189.2 926.639 183C926.639 176.8 931.279 172.24 937.559 172.24C943.759 172.24 948.399 176.8 948.399 183C948.399 189.2 943.759 193.76 937.559 193.76ZM989.812 197L989.772 169H986.492L974.972 188.68L963.292 169H960.012V197H963.852V176.72L973.972 193.6H975.812L985.932 176.6L985.972 197H989.812ZM1020.48 197.24C1026.84 197.24 1031.48 192.72 1031.48 186.4C1031.48 180.08 1026.84 175.6 1020.48 175.6C1014.12 175.6 1009.44 180.08 1009.44 186.4C1009.44 192.72 1014.12 197.24 1020.48 197.24ZM1020.48 193.88C1016.4 193.88 1013.32 190.92 1013.32 186.4C1013.32 181.88 1016.4 178.96 1020.48 178.96C1024.56 178.96 1027.6 181.88 1027.6 186.4C1027.6 190.92 1024.56 193.88 1020.48 193.88ZM1041.97 179.36V175.8H1038.29V197H1042.13V186.44C1042.13 181.8 1044.69 179.28 1048.81 179.28C1049.09 179.28 1049.37 179.28 1049.69 179.32V175.6C1045.97 175.6 1043.33 176.88 1041.97 179.36ZM1069 197H1088.16V193.52H1073V169H1069V197ZM1095.61 171.72C1097.13 171.72 1098.21 170.6 1098.21 169.16C1098.21 167.8 1097.09 166.72 1095.61 166.72C1094.13 166.72 1093.01 167.84 1093.01 169.24C1093.01 170.64 1094.13 171.72 1095.61 171.72ZM1093.69 197H1097.53V175.8H1093.69V197ZM1123 175.8V179.08C1121.2 176.76 1118.32 175.6 1115.16 175.6C1109.04 175.6 1104.4 179.72 1104.4 185.84C1104.4 191.96 1109.04 196.12 1115.16 196.12C1118.2 196.12 1120.96 195.04 1122.8 192.84V194.52C1122.8 199.32 1120.52 201.64 1115.52 201.64C1112.4 201.64 1109.32 200.56 1107.36 198.88L1105.52 201.84C1107.84 203.92 1111.76 205 1115.64 205C1122.84 205 1126.64 201.6 1126.64 194.12V175.8H1123ZM1115.6 192.76C1111.32 192.76 1108.28 189.92 1108.28 185.84C1108.28 181.72 1111.32 178.96 1115.6 178.96C1119.84 178.96 1122.88 181.72 1122.88 185.84C1122.88 189.92 1119.84 192.76 1115.6 192.76ZM1146.8 175.6C1143.56 175.6 1140.92 176.76 1139.32 178.8V167.32H1135.48V197H1139.32V186.08C1139.32 181.48 1141.96 179.04 1146.04 179.04C1149.68 179.04 1151.76 181.08 1151.76 185.24V197H1155.6V184.8C1155.6 178.56 1151.96 175.6 1146.8 175.6ZM1174.92 193C1174.12 193.64 1173.04 194 1171.92 194C1169.8 194 1168.6 192.72 1168.6 190.44V178.96H1174.68V175.8H1168.6V171.16H1164.76V175.8H1161.16V178.96H1164.76V190.6C1164.76 194.88 1167.2 197.24 1171.48 197.24C1173.2 197.24 1174.96 196.76 1176.12 195.76L1174.92 193ZM1195.07 197H1206.87C1215.87 197 1221.99 191.32 1221.99 183C1221.99 174.68 1215.87 169 1206.87 169H1195.07V197ZM1199.07 193.52V172.48H1206.63C1213.55 172.48 1217.99 176.72 1217.99 183C1217.99 189.28 1213.55 193.52 1206.63 193.52H1199.07ZM1242.25 197.32C1250.77 197.32 1257.09 191.24 1257.09 183C1257.09 174.76 1250.77 168.68 1242.25 168.68C1233.65 168.68 1227.33 174.8 1227.33 183C1227.33 191.2 1233.65 197.32 1242.25 197.32ZM1242.25 193.76C1235.97 193.76 1231.33 189.2 1231.33 183C1231.33 176.8 1235.97 172.24 1242.25 172.24C1248.45 172.24 1253.09 176.8 1253.09 183C1253.09 189.2 1248.45 193.76 1242.25 193.76ZM1294.51 197L1294.47 169H1291.19L1279.67 188.68L1267.99 169H1264.71V197H1268.55V176.72L1278.67 193.6H1280.51L1290.63 176.6L1290.67 197H1294.51Z" fill="black"/>
<rect x="385" y="317" width="1231" height="142" fill="white" stroke="#2D3033" stroke-width="4"/>
<path d="M661.431 400.32C665.791 400.32 669.551 398.8 672.111 395.92L669.511 393.4C667.351 395.68 664.711 396.76 661.631 396.76C655.311 396.76 650.631 392.2 650.631 386C650.631 379.8 655.311 375.24 661.631 375.24C664.711 375.24 667.351 376.28 669.511 378.56L672.111 376.04C669.551 373.16 665.791 371.68 661.471 371.68C652.951 371.68 646.631 377.72 646.631 386C646.631 394.28 652.951 400.32 661.431 400.32ZM694.013 378.8V389.76C694.013 394.32 691.453 396.8 687.453 396.8C683.813 396.8 681.733 394.72 681.733 390.56V378.8H677.893V391C677.893 397.24 681.533 400.24 687.013 400.24C690.013 400.24 692.653 399 694.213 396.8V400H697.853V378.8H694.013ZM712.743 400.24C718.383 400.24 721.903 397.8 721.903 393.96C721.903 385.72 708.463 389.8 708.463 384.8C708.463 383.12 710.103 381.88 713.463 381.88C715.543 381.88 717.663 382.32 719.583 383.56L721.223 380.52C719.383 379.32 716.263 378.6 713.503 378.6C708.063 378.6 704.663 381.16 704.663 384.96C704.663 393.4 718.063 389.28 718.063 394.04C718.063 395.84 716.583 396.92 713.023 396.92C710.263 396.92 707.383 396 705.583 394.72L703.983 397.76C705.743 399.16 709.223 400.24 712.743 400.24ZM738.923 396C738.123 396.64 737.043 397 735.923 397C733.803 397 732.603 395.72 732.603 393.44V381.96H738.683V378.8H732.603V374.16H728.763V378.8H725.163V381.96H728.763V393.6C728.763 397.88 731.203 400.24 735.483 400.24C737.203 400.24 738.963 399.76 740.123 398.76L738.923 396ZM754.642 400.24C761.002 400.24 765.642 395.72 765.642 389.4C765.642 383.08 761.002 378.6 754.642 378.6C748.282 378.6 743.602 383.08 743.602 389.4C743.602 395.72 748.282 400.24 754.642 400.24ZM754.642 396.88C750.562 396.88 747.482 393.92 747.482 389.4C747.482 384.88 750.562 381.96 754.642 381.96C758.722 381.96 761.762 384.88 761.762 389.4C761.762 393.92 758.722 396.88 754.642 396.88ZM798.973 378.6C795.373 378.6 792.413 380.12 790.813 382.52C789.413 379.88 786.693 378.6 783.453 378.6C780.253 378.6 777.653 379.8 776.133 381.96V378.8H772.453V400H776.293V389.08C776.293 384.48 778.813 382.04 782.653 382.04C786.133 382.04 788.133 384.08 788.133 388.24V400H791.973V389.08C791.973 384.48 794.493 382.04 798.333 382.04C801.813 382.04 803.813 384.08 803.813 388.24V400H807.653V387.8C807.653 381.56 804.133 378.6 798.973 378.6ZM839.18 396C838.38 396.64 837.3 397 836.18 397C834.06 397 832.86 395.72 832.86 393.44V381.96H838.94V378.8H832.86V374.16H829.02V378.8H825.42V381.96H829.02V393.6C829.02 397.88 831.46 400.24 835.74 400.24C837.46 400.24 839.22 399.76 840.38 398.76L839.18 396ZM854.243 378.6C850.843 378.6 847.683 379.56 845.483 381.32L847.083 384.2C848.723 382.8 851.283 381.92 853.803 381.92C857.603 381.92 859.483 383.8 859.483 387.04V387.8H853.403C847.083 387.8 844.883 390.6 844.883 394C844.883 397.68 847.923 400.24 852.723 400.24C856.043 400.24 858.403 399.12 859.683 397.2V400H863.323V387.2C863.323 381.4 860.043 378.6 854.243 378.6ZM853.363 397.28C850.443 397.28 848.683 395.96 848.683 393.84C848.683 392.04 849.763 390.56 853.563 390.56H859.483V393.52C858.523 395.96 856.243 397.28 853.363 397.28ZM888.686 378.8V382.08C886.886 379.76 884.006 378.6 880.846 378.6C874.726 378.6 870.086 382.72 870.086 388.84C870.086 394.96 874.726 399.12 880.846 399.12C883.886 399.12 886.646 398.04 888.486 395.84V397.52C888.486 402.32 886.206 404.64 881.206 404.64C878.086 404.64 875.006 403.56 873.046 401.88L871.206 404.84C873.526 406.92 877.446 408 881.326 408C888.526 408 892.326 404.6 892.326 397.12V378.8H888.686ZM881.286 395.76C877.006 395.76 873.966 392.92 873.966 388.84C873.966 384.72 877.006 381.96 881.286 381.96C885.526 381.96 888.566 384.72 888.566 388.84C888.566 392.92 885.526 395.76 881.286 395.76ZM932.566 389.52C932.566 383 928.206 378.6 922.086 378.6C915.966 378.6 911.446 383.12 911.446 389.4C911.446 395.72 916.006 400.24 922.846 400.24C926.366 400.24 929.286 399.04 931.206 396.8L929.086 394.32C927.526 396.04 925.446 396.88 922.966 396.88C918.766 396.88 915.766 394.4 915.286 390.68H932.486C932.526 390.32 932.566 389.84 932.566 389.52ZM922.086 381.84C925.806 381.84 928.486 384.36 928.886 387.92H915.286C915.686 384.32 918.406 381.84 922.086 381.84ZM940.318 400.24C941.758 400.24 942.958 399.08 942.958 397.48C942.958 395.88 941.758 394.76 940.318 394.76C938.838 394.76 937.598 395.88 937.598 397.48C937.598 399.08 938.838 400.24 940.318 400.24ZM966.132 378.8V382.08C964.332 379.76 961.452 378.6 958.292 378.6C952.172 378.6 947.532 382.72 947.532 388.84C947.532 394.96 952.172 399.12 958.292 399.12C961.332 399.12 964.092 398.04 965.932 395.84V397.52C965.932 402.32 963.652 404.64 958.652 404.64C955.532 404.64 952.452 403.56 950.492 401.88L948.652 404.84C950.972 406.92 954.892 408 958.772 408C965.972 408 969.772 404.6 969.772 397.12V378.8H966.132ZM958.732 395.76C954.452 395.76 951.412 392.92 951.412 388.84C951.412 384.72 954.452 381.96 958.732 381.96C962.972 381.96 966.012 384.72 966.012 388.84C966.012 392.92 962.972 395.76 958.732 395.76ZM979.529 400.24C980.969 400.24 982.169 399.08 982.169 397.48C982.169 395.88 980.969 394.76 979.529 394.76C978.049 394.76 976.809 395.88 976.809 397.48C976.809 399.08 978.049 400.24 979.529 400.24ZM1018.37 377.2L1000.45 384.28V387.72L1018.37 394.8V391.48L1004.17 386L1018.37 380.52V377.2ZM1041.19 378.8L1033.75 395.8L1026.47 378.8H1022.47L1031.75 400H1035.67L1044.95 378.8H1041.19ZM1057.09 378.6C1053.69 378.6 1050.53 379.56 1048.33 381.32L1049.93 384.2C1051.57 382.8 1054.13 381.92 1056.65 381.92C1060.45 381.92 1062.33 383.8 1062.33 387.04V387.8H1056.25C1049.93 387.8 1047.73 390.6 1047.73 394C1047.73 397.68 1050.77 400.24 1055.57 400.24C1058.89 400.24 1061.25 399.12 1062.53 397.2V400H1066.17V387.2C1066.17 381.4 1062.89 378.6 1057.09 378.6ZM1056.21 397.28C1053.29 397.28 1051.53 395.96 1051.53 393.84C1051.53 392.04 1052.61 390.56 1056.41 390.56H1062.33V393.52C1061.37 395.96 1059.09 397.28 1056.21 397.28ZM1082.5 378.6C1079.1 378.6 1075.94 379.56 1073.74 381.32L1075.34 384.2C1076.98 382.8 1079.54 381.92 1082.06 381.92C1085.86 381.92 1087.74 383.8 1087.74 387.04V387.8H1081.66C1075.34 387.8 1073.14 390.6 1073.14 394C1073.14 397.68 1076.18 400.24 1080.98 400.24C1084.3 400.24 1086.66 399.12 1087.94 397.2V400H1091.58V387.2C1091.58 381.4 1088.3 378.6 1082.5 378.6ZM1081.62 397.28C1078.7 397.28 1076.94 395.96 1076.94 393.84C1076.94 392.04 1078.02 390.56 1081.82 390.56H1087.74V393.52C1086.78 395.96 1084.5 397.28 1081.62 397.28ZM1116.46 370.32V382C1114.7 379.72 1112.06 378.6 1109.06 378.6C1102.86 378.6 1098.34 382.92 1098.34 389.4C1098.34 395.88 1102.86 400.24 1109.06 400.24C1112.18 400.24 1114.9 399.04 1116.62 396.64V400H1120.3V370.32H1116.46ZM1109.38 396.88C1105.3 396.88 1102.22 393.92 1102.22 389.4C1102.22 384.88 1105.3 381.96 1109.38 381.96C1113.42 381.96 1116.5 384.88 1116.5 389.4C1116.5 393.92 1113.42 396.88 1109.38 396.88ZM1130.99 374.72C1132.51 374.72 1133.59 373.6 1133.59 372.16C1133.59 370.8 1132.47 369.72 1130.99 369.72C1129.51 369.72 1128.39 370.84 1128.39 372.24C1128.39 373.64 1129.51 374.72 1130.99 374.72ZM1129.07 400H1132.91V378.8H1129.07V400ZM1153.06 378.6C1149.7 378.6 1146.98 379.84 1145.42 382V378.8H1141.74V400H1145.58V389.08C1145.58 384.48 1148.22 382.04 1152.3 382.04C1155.94 382.04 1158.02 384.08 1158.02 388.24V400H1161.86V387.8C1161.86 381.56 1158.22 378.6 1153.06 378.6ZM1169.11 390.68H1179.87V387.36H1169.11V390.68ZM1198.52 378.6C1195.52 378.6 1192.88 379.72 1191.12 382V370.32H1187.28V400H1190.96V396.64C1192.68 399.04 1195.4 400.24 1198.52 400.24C1204.72 400.24 1209.24 395.88 1209.24 389.4C1209.24 382.92 1204.72 378.6 1198.52 378.6ZM1198.2 396.88C1194.16 396.88 1191.08 393.92 1191.08 389.4C1191.08 384.88 1194.16 381.96 1198.2 381.96C1202.28 381.96 1205.36 384.88 1205.36 389.4C1205.36 393.92 1202.28 396.88 1198.2 396.88ZM1231.97 378.8V389.76C1231.97 394.32 1229.41 396.8 1225.41 396.8C1221.77 396.8 1219.69 394.72 1219.69 390.56V378.8H1215.85V391C1215.85 397.24 1219.49 400.24 1224.97 400.24C1227.97 400.24 1230.61 399 1232.17 396.8V400H1235.81V378.8H1231.97ZM1255.34 396C1254.54 396.64 1253.46 397 1252.34 397C1250.22 397 1249.02 395.72 1249.02 393.44V381.96H1255.1V378.8H1249.02V374.16H1245.18V378.8H1241.58V381.96H1245.18V393.6C1245.18 397.88 1247.62 400.24 1251.9 400.24C1253.62 400.24 1255.38 399.76 1256.54 398.76L1255.34 396ZM1272.89 396C1272.09 396.64 1271.01 397 1269.89 397C1267.77 397 1266.57 395.72 1266.57 393.44V381.96H1272.65V378.8H1266.57V374.16H1262.73V378.8H1259.13V381.96H1262.73V393.6C1262.73 397.88 1265.17 400.24 1269.45 400.24C1271.17 400.24 1272.93 399.76 1274.09 398.76L1272.89 396ZM1288.61 400.24C1294.97 400.24 1299.61 395.72 1299.61 389.4C1299.61 383.08 1294.97 378.6 1288.61 378.6C1282.25 378.6 1277.57 383.08 1277.57 389.4C1277.57 395.72 1282.25 400.24 1288.61 400.24ZM1288.61 396.88C1284.53 396.88 1281.45 393.92 1281.45 389.4C1281.45 384.88 1284.53 381.96 1288.61 381.96C1292.69 381.96 1295.73 384.88 1295.73 389.4C1295.73 393.92 1292.69 396.88 1288.61 396.88ZM1317.74 378.6C1314.38 378.6 1311.66 379.84 1310.1 382V378.8H1306.42V400H1310.26V389.08C1310.26 384.48 1312.9 382.04 1316.98 382.04C1320.62 382.04 1322.7 384.08 1322.7 388.24V400H1326.54V387.8C1326.54 381.56 1322.9 378.6 1317.74 378.6ZM1334.19 377.2V380.52L1348.43 386L1334.19 391.48V394.8L1352.11 387.72V384.28L1334.19 377.2Z" fill="black"/>
<rect x="385" y="524" width="1231" height="142" fill="white" stroke="#2D3033" stroke-width="4"/>
<path d="M665.185 611.32C669.545 611.32 673.305 609.8 675.865 606.92L673.265 604.4C671.105 606.68 668.465 607.76 665.385 607.76C659.065 607.76 654.385 603.2 654.385 597C654.385 590.8 659.065 586.24 665.385 586.24C668.465 586.24 671.105 587.28 673.265 589.56L675.865 587.04C673.305 584.16 669.545 582.68 665.225 582.68C656.705 582.68 650.385 588.72 650.385 597C650.385 605.28 656.705 611.32 665.185 611.32ZM690.693 611.24C697.053 611.24 701.693 606.72 701.693 600.4C701.693 594.08 697.053 589.6 690.693 589.6C684.333 589.6 679.653 594.08 679.653 600.4C679.653 606.72 684.333 611.24 690.693 611.24ZM690.693 607.88C686.613 607.88 683.533 604.92 683.533 600.4C683.533 595.88 686.613 592.96 690.693 592.96C694.773 592.96 697.813 595.88 697.813 600.4C697.813 604.92 694.773 607.88 690.693 607.88ZM735.023 589.6C731.423 589.6 728.463 591.12 726.863 593.52C725.463 590.88 722.743 589.6 719.503 589.6C716.303 589.6 713.703 590.8 712.183 592.96V589.8H708.503V611H712.343V600.08C712.343 595.48 714.863 593.04 718.703 593.04C722.183 593.04 724.183 595.08 724.183 599.24V611H728.023V600.08C728.023 595.48 730.543 593.04 734.383 593.04C737.863 593.04 739.863 595.08 739.863 599.24V611H743.703V598.8C743.703 592.56 740.183 589.6 735.023 589.6ZM763.509 589.6C760.389 589.6 757.669 590.8 755.949 593.16V589.8H752.269V618.76H756.109V607.8C757.869 610.08 760.509 611.24 763.509 611.24C769.709 611.24 774.229 606.92 774.229 600.4C774.229 593.92 769.709 589.6 763.509 589.6ZM763.189 607.88C759.149 607.88 756.069 604.92 756.069 600.4C756.069 595.92 759.149 592.96 763.189 592.96C767.269 592.96 770.349 595.92 770.349 600.4C770.349 604.92 767.269 607.88 763.189 607.88ZM790.115 611.24C796.475 611.24 801.115 606.72 801.115 600.4C801.115 594.08 796.475 589.6 790.115 589.6C783.755 589.6 779.075 594.08 779.075 600.4C779.075 606.72 783.755 611.24 790.115 611.24ZM790.115 607.88C786.035 607.88 782.955 604.92 782.955 600.4C782.955 595.88 786.035 592.96 790.115 592.96C794.195 592.96 797.235 595.88 797.235 600.4C797.235 604.92 794.195 607.88 790.115 607.88ZM819.245 589.6C815.885 589.6 813.165 590.84 811.605 593V589.8H807.925V611H811.765V600.08C811.765 595.48 814.405 593.04 818.485 593.04C822.125 593.04 824.205 595.08 824.205 599.24V611H828.045V598.8C828.045 592.56 824.405 589.6 819.245 589.6ZM855.929 600.52C855.929 594 851.569 589.6 845.449 589.6C839.329 589.6 834.809 594.12 834.809 600.4C834.809 606.72 839.369 611.24 846.209 611.24C849.729 611.24 852.649 610.04 854.569 607.8L852.449 605.32C850.889 607.04 848.809 607.88 846.329 607.88C842.129 607.88 839.129 605.4 838.649 601.68H855.849C855.889 601.32 855.929 600.84 855.929 600.52ZM845.449 592.84C849.169 592.84 851.849 595.36 852.249 598.92H838.649C839.049 595.32 841.769 592.84 845.449 592.84ZM874.081 589.6C870.721 589.6 868.001 590.84 866.441 593V589.8H862.761V611H866.601V600.08C866.601 595.48 869.241 593.04 873.321 593.04C876.961 593.04 879.041 595.08 879.041 599.24V611H882.881V598.8C882.881 592.56 879.241 589.6 874.081 589.6ZM902.208 607C901.408 607.64 900.328 608 899.208 608C897.088 608 895.888 606.72 895.888 604.44V592.96H901.968V589.8H895.888V585.16H892.048V589.8H888.448V592.96H892.048V604.6C892.048 608.88 894.488 611.24 898.768 611.24C900.488 611.24 902.248 610.76 903.408 609.76L902.208 607ZM940.952 600.52C940.952 594 936.592 589.6 930.472 589.6C924.352 589.6 919.832 594.12 919.832 600.4C919.832 606.72 924.392 611.24 931.232 611.24C934.752 611.24 937.672 610.04 939.592 607.8L937.472 605.32C935.912 607.04 933.832 607.88 931.352 607.88C927.152 607.88 924.152 605.4 923.672 601.68H940.872C940.912 601.32 940.952 600.84 940.952 600.52ZM930.472 592.84C934.192 592.84 936.872 595.36 937.272 598.92H923.672C924.072 595.32 926.792 592.84 930.472 592.84ZM962.394 589.8L954.954 606.8L947.674 589.8H943.674L952.954 611H956.874L966.154 589.8H962.394ZM989.812 600.52C989.812 594 985.452 589.6 979.332 589.6C973.212 589.6 968.692 594.12 968.692 600.4C968.692 606.72 973.252 611.24 980.092 611.24C983.612 611.24 986.532 610.04 988.452 607.8L986.332 605.32C984.772 607.04 982.692 607.88 980.212 607.88C976.012 607.88 973.012 605.4 972.532 601.68H989.732C989.772 601.32 989.812 600.84 989.812 600.52ZM979.332 592.84C983.052 592.84 985.732 595.36 986.132 598.92H972.532C972.932 595.32 975.652 592.84 979.332 592.84ZM1007.96 589.6C1004.6 589.6 1001.88 590.84 1000.32 593V589.8H996.644V611H1000.48V600.08C1000.48 595.48 1003.12 593.04 1007.2 593.04C1010.84 593.04 1012.92 595.08 1012.92 599.24V611H1016.76V598.8C1016.76 592.56 1013.12 589.6 1007.96 589.6ZM1036.09 607C1035.29 607.64 1034.21 608 1033.09 608C1030.97 608 1029.77 606.72 1029.77 604.44V592.96H1035.85V589.8H1029.77V585.16H1025.93V589.8H1022.33V592.96H1025.93V604.6C1025.93 608.88 1028.37 611.24 1032.65 611.24C1034.37 611.24 1036.13 610.76 1037.29 609.76L1036.09 607ZM1049.51 611.24C1055.15 611.24 1058.67 608.8 1058.67 604.96C1058.67 596.72 1045.23 600.8 1045.23 595.8C1045.23 594.12 1046.87 592.88 1050.23 592.88C1052.31 592.88 1054.43 593.32 1056.35 594.56L1057.99 591.52C1056.15 590.32 1053.03 589.6 1050.27 589.6C1044.83 589.6 1041.43 592.16 1041.43 595.96C1041.43 604.4 1054.83 600.28 1054.83 605.04C1054.83 606.84 1053.35 607.92 1049.79 607.92C1047.03 607.92 1044.15 607 1042.35 605.72L1040.75 608.76C1042.51 610.16 1045.99 611.24 1049.51 611.24ZM1084.93 589.6C1081.53 589.6 1078.37 590.56 1076.17 592.32L1077.77 595.2C1079.41 593.8 1081.97 592.92 1084.49 592.92C1088.29 592.92 1090.17 594.8 1090.17 598.04V598.8H1084.09C1077.77 598.8 1075.57 601.6 1075.57 605C1075.57 608.68 1078.61 611.24 1083.41 611.24C1086.73 611.24 1089.09 610.12 1090.37 608.2V611H1094.01V598.2C1094.01 592.4 1090.73 589.6 1084.93 589.6ZM1084.05 608.28C1081.13 608.28 1079.37 606.96 1079.37 604.84C1079.37 603.04 1080.45 601.56 1084.25 601.56H1090.17V604.52C1089.21 606.96 1086.93 608.28 1084.05 608.28ZM1113.94 589.6C1110.58 589.6 1107.86 590.84 1106.3 593V589.8H1102.62V611H1106.46V600.08C1106.46 595.48 1109.1 593.04 1113.18 593.04C1116.82 593.04 1118.9 595.08 1118.9 599.24V611H1122.74V598.8C1122.74 592.56 1119.1 589.6 1113.94 589.6ZM1147.62 581.32V593C1145.86 590.72 1143.22 589.6 1140.22 589.6C1134.02 589.6 1129.5 593.92 1129.5 600.4C1129.5 606.88 1134.02 611.24 1140.22 611.24C1143.34 611.24 1146.06 610.04 1147.78 607.64V611H1151.46V581.32H1147.62ZM1140.54 607.88C1136.46 607.88 1133.38 604.92 1133.38 600.4C1133.38 595.88 1136.46 592.96 1140.54 592.96C1144.58 592.96 1147.66 595.88 1147.66 600.4C1147.66 604.92 1144.58 607.88 1140.54 607.88ZM1181.71 611.24C1185.51 611.24 1188.67 609.64 1190.35 606.68L1187.43 604.84C1186.07 606.92 1183.99 607.88 1181.67 607.88C1177.51 607.88 1174.39 605 1174.39 600.4C1174.39 595.88 1177.51 592.96 1181.67 592.96C1183.99 592.96 1186.07 593.92 1187.43 596L1190.35 594.12C1188.67 591.16 1185.51 589.6 1181.71 589.6C1175.19 589.6 1170.51 594.08 1170.51 600.4C1170.51 606.72 1175.19 611.24 1181.71 611.24ZM1207.87 589.6C1204.63 589.6 1201.99 590.76 1200.39 592.8V581.32H1196.55V611H1200.39V600.08C1200.39 595.48 1203.03 593.04 1207.11 593.04C1210.75 593.04 1212.83 595.08 1212.83 599.24V611H1216.67V598.8C1216.67 592.56 1213.03 589.6 1207.87 589.6ZM1233 589.6C1229.6 589.6 1226.44 590.56 1224.24 592.32L1225.84 595.2C1227.48 593.8 1230.04 592.92 1232.56 592.92C1236.36 592.92 1238.24 594.8 1238.24 598.04V598.8H1232.16C1225.84 598.8 1223.64 601.6 1223.64 605C1223.64 608.68 1226.68 611.24 1231.48 611.24C1234.8 611.24 1237.16 610.12 1238.44 608.2V611H1242.08V598.2C1242.08 592.4 1238.8 589.6 1233 589.6ZM1232.12 608.28C1229.2 608.28 1227.44 606.96 1227.44 604.84C1227.44 603.04 1228.52 601.56 1232.32 601.56H1238.24V604.52C1237.28 606.96 1235 608.28 1232.12 608.28ZM1262 589.6C1258.64 589.6 1255.92 590.84 1254.36 593V589.8H1250.68V611H1254.52V600.08C1254.52 595.48 1257.16 593.04 1261.24 593.04C1264.88 593.04 1266.96 595.08 1266.96 599.24V611H1270.8V598.8C1270.8 592.56 1267.16 589.6 1262 589.6ZM1296.17 589.8V593.08C1294.37 590.76 1291.49 589.6 1288.33 589.6C1282.21 589.6 1277.57 593.72 1277.57 599.84C1277.57 605.96 1282.21 610.12 1288.33 610.12C1291.37 610.12 1294.13 609.04 1295.97 606.84V608.52C1295.97 613.32 1293.69 615.64 1288.69 615.64C1285.57 615.64 1282.49 614.56 1280.53 612.88L1278.69 615.84C1281.01 617.92 1284.93 619 1288.81 619C1296.01 619 1299.81 615.6 1299.81 608.12V589.8H1296.17ZM1288.77 606.76C1284.49 606.76 1281.45 603.92 1281.45 599.84C1281.45 595.72 1284.49 592.96 1288.77 592.96C1293.01 592.96 1296.05 595.72 1296.05 599.84C1296.05 603.92 1293.01 606.76 1288.77 606.76ZM1327.8 600.52C1327.8 594 1323.44 589.6 1317.32 589.6C1311.2 589.6 1306.68 594.12 1306.68 600.4C1306.68 606.72 1311.24 611.24 1318.08 611.24C1321.6 611.24 1324.52 610.04 1326.44 607.8L1324.32 605.32C1322.76 607.04 1320.68 607.88 1318.2 607.88C1314 607.88 1311 605.4 1310.52 601.68H1327.72C1327.76 601.32 1327.8 600.84 1327.8 600.52ZM1317.32 592.84C1321.04 592.84 1323.72 595.36 1324.12 598.92H1310.52C1310.92 595.32 1313.64 592.84 1317.32 592.84ZM1340.72 611.24C1346.36 611.24 1349.88 608.8 1349.88 604.96C1349.88 596.72 1336.44 600.8 1336.44 595.8C1336.44 594.12 1338.08 592.88 1341.44 592.88C1343.52 592.88 1345.64 593.32 1347.56 594.56L1349.2 591.52C1347.36 590.32 1344.24 589.6 1341.48 589.6C1336.04 589.6 1332.64 592.16 1332.64 595.96C1332.64 604.4 1346.04 600.28 1346.04 605.04C1346.04 606.84 1344.56 607.92 1341 607.92C1338.24 607.92 1335.36 607 1333.56 605.72L1331.96 608.76C1333.72 610.16 1337.2 611.24 1340.72 611.24Z" fill="black"/>
<rect x="385" y="731" width="1231" height="142" fill="white" stroke="#2D3033" stroke-width="4"/>
<path d="M741.8 818.32C747.52 818.32 750.56 815.24 750.56 809V790H736.48V793.48H746.6V809.2C746.6 812.96 744.96 814.88 741.8 814.88C739.44 814.88 737.48 813.72 735.96 811.56L733.64 814.28C735.44 816.88 738.48 818.32 741.8 818.32ZM767.368 796.6C763.968 796.6 760.808 797.56 758.608 799.32L760.208 802.2C761.848 800.8 764.408 799.92 766.928 799.92C770.728 799.92 772.608 801.8 772.608 805.04V805.8H766.528C760.208 805.8 758.008 808.6 758.008 812C758.008 815.68 761.048 818.24 765.848 818.24C769.168 818.24 771.528 817.12 772.808 815.2V818H776.448V805.2C776.448 799.4 773.168 796.6 767.368 796.6ZM766.488 815.28C763.568 815.28 761.808 813.96 761.808 811.84C761.808 810.04 762.888 808.56 766.688 808.56H772.608V811.52C771.648 813.96 769.368 815.28 766.488 815.28ZM799.663 796.8L792.223 813.8L784.943 796.8H780.943L790.223 818H794.143L803.423 796.8H799.663ZM815.563 796.6C812.163 796.6 809.003 797.56 806.803 799.32L808.403 802.2C810.043 800.8 812.603 799.92 815.123 799.92C818.923 799.92 820.803 801.8 820.803 805.04V805.8H814.723C808.403 805.8 806.203 808.6 806.203 812C806.203 815.68 809.243 818.24 814.043 818.24C817.363 818.24 819.723 817.12 821.003 815.2V818H824.643V805.2C824.643 799.4 821.363 796.6 815.563 796.6ZM814.683 815.28C811.763 815.28 810.003 813.96 810.003 811.84C810.003 810.04 811.083 808.56 814.883 808.56H820.803V811.52C819.843 813.96 817.563 815.28 814.683 815.28ZM857.652 818.32C865.052 818.32 869.492 814.04 869.492 805.92V790H865.612V805.76C865.612 811.96 862.732 814.76 857.692 814.76C852.652 814.76 849.812 811.96 849.812 805.76V790H845.812V805.92C845.812 814.04 850.292 818.32 857.652 818.32ZM879.192 818H883.192V790H879.192V818ZM917.837 818.32C922.197 818.32 925.957 816.8 928.517 813.92L925.917 811.4C923.757 813.68 921.117 814.76 918.037 814.76C911.717 814.76 907.037 810.2 907.037 804C907.037 797.8 911.717 793.24 918.037 793.24C921.117 793.24 923.757 794.28 925.917 796.56L928.517 794.04C925.957 791.16 922.197 789.68 917.877 789.68C909.357 789.68 903.037 795.72 903.037 804C903.037 812.28 909.357 818.32 917.837 818.32ZM943.345 818.24C949.705 818.24 954.345 813.72 954.345 807.4C954.345 801.08 949.705 796.6 943.345 796.6C936.985 796.6 932.305 801.08 932.305 807.4C932.305 813.72 936.985 818.24 943.345 818.24ZM943.345 814.88C939.265 814.88 936.185 811.92 936.185 807.4C936.185 802.88 939.265 799.96 943.345 799.96C947.425 799.96 950.465 802.88 950.465 807.4C950.465 811.92 947.425 814.88 943.345 814.88ZM987.676 796.6C984.076 796.6 981.116 798.12 979.516 800.52C978.116 797.88 975.396 796.6 972.156 796.6C968.956 796.6 966.356 797.8 964.836 799.96V796.8H961.156V818H964.996V807.08C964.996 802.48 967.516 800.04 971.356 800.04C974.836 800.04 976.836 802.08 976.836 806.24V818H980.676V807.08C980.676 802.48 983.196 800.04 987.036 800.04C990.516 800.04 992.516 802.08 992.516 806.24V818H996.356V805.8C996.356 799.56 992.836 796.6 987.676 796.6ZM1016.16 796.6C1013.04 796.6 1010.32 797.8 1008.6 800.16V796.8H1004.92V825.76H1008.76V814.8C1010.52 817.08 1013.16 818.24 1016.16 818.24C1022.36 818.24 1026.88 813.92 1026.88 807.4C1026.88 800.92 1022.36 796.6 1016.16 796.6ZM1015.84 814.88C1011.8 814.88 1008.72 811.92 1008.72 807.4C1008.72 802.92 1011.8 799.96 1015.84 799.96C1019.92 799.96 1023 802.92 1023 807.4C1023 811.92 1019.92 814.88 1015.84 814.88ZM1042.77 818.24C1049.13 818.24 1053.77 813.72 1053.77 807.4C1053.77 801.08 1049.13 796.6 1042.77 796.6C1036.41 796.6 1031.73 801.08 1031.73 807.4C1031.73 813.72 1036.41 818.24 1042.77 818.24ZM1042.77 814.88C1038.69 814.88 1035.61 811.92 1035.61 807.4C1035.61 802.88 1038.69 799.96 1042.77 799.96C1046.85 799.96 1049.89 802.88 1049.89 807.4C1049.89 811.92 1046.85 814.88 1042.77 814.88ZM1071.9 796.6C1068.54 796.6 1065.82 797.84 1064.26 800V796.8H1060.58V818H1064.42V807.08C1064.42 802.48 1067.06 800.04 1071.14 800.04C1074.78 800.04 1076.86 802.08 1076.86 806.24V818H1080.7V805.8C1080.7 799.56 1077.06 796.6 1071.9 796.6ZM1108.58 807.52C1108.58 801 1104.22 796.6 1098.1 796.6C1091.98 796.6 1087.46 801.12 1087.46 807.4C1087.46 813.72 1092.02 818.24 1098.86 818.24C1102.38 818.24 1105.3 817.04 1107.22 814.8L1105.1 812.32C1103.54 814.04 1101.46 814.88 1098.98 814.88C1094.78 814.88 1091.78 812.4 1091.3 808.68H1108.5C1108.54 808.32 1108.58 807.84 1108.58 807.52ZM1098.1 799.84C1101.82 799.84 1104.5 802.36 1104.9 805.92H1091.3C1091.7 802.32 1094.42 799.84 1098.1 799.84ZM1126.73 796.6C1123.37 796.6 1120.65 797.84 1119.09 800V796.8H1115.41V818H1119.25V807.08C1119.25 802.48 1121.89 800.04 1125.97 800.04C1129.61 800.04 1131.69 802.08 1131.69 806.24V818H1135.53V805.8C1135.53 799.56 1131.89 796.6 1126.73 796.6ZM1154.86 814C1154.06 814.64 1152.98 815 1151.86 815C1149.74 815 1148.54 813.72 1148.54 811.44V799.96H1154.62V796.8H1148.54V792.16H1144.7V796.8H1141.1V799.96H1144.7V811.6C1144.7 815.88 1147.14 818.24 1151.42 818.24C1153.14 818.24 1154.9 817.76 1156.06 816.76L1154.86 814ZM1168.28 818.24C1173.92 818.24 1177.44 815.8 1177.44 811.96C1177.44 803.72 1164 807.8 1164 802.8C1164 801.12 1165.64 799.88 1169 799.88C1171.08 799.88 1173.2 800.32 1175.12 801.56L1176.76 798.52C1174.92 797.32 1171.8 796.6 1169.04 796.6C1163.6 796.6 1160.2 799.16 1160.2 802.96C1160.2 811.4 1173.6 807.28 1173.6 812.04C1173.6 813.84 1172.12 814.92 1168.56 814.92C1165.8 814.92 1162.92 814 1161.12 812.72L1159.52 815.76C1161.28 817.16 1164.76 818.24 1168.28 818.24ZM1217.46 818H1221.66L1208.94 790H1204.98L1192.3 818H1196.42L1199.5 811H1214.38L1217.46 818ZM1200.9 807.8L1206.94 794.08L1212.98 807.8H1200.9ZM1238.26 790H1227.34V818H1231.34V809.52H1238.26C1245.54 809.52 1249.94 805.84 1249.94 799.76C1249.94 793.68 1245.54 790 1238.26 790ZM1238.14 806.04H1231.34V793.48H1238.14C1243.26 793.48 1245.94 795.76 1245.94 799.76C1245.94 803.76 1243.26 806.04 1238.14 806.04ZM1257.32 818H1261.32V790H1257.32V818Z" fill="black"/>
<path d="M191.942 1026.19C194.127 1026.19 195.989 1025.41 197.224 1023.97L195.628 1022.45C194.659 1023.51 193.462 1024.02 192.075 1024.02C189.32 1024.02 187.325 1022.09 187.325 1019.35C187.325 1016.61 189.32 1014.68 192.075 1014.68C193.462 1014.68 194.659 1015.19 195.628 1016.23L197.224 1014.73C195.989 1013.29 194.127 1012.51 191.961 1012.51C187.876 1012.51 184.836 1015.38 184.836 1019.35C184.836 1023.32 187.876 1026.19 191.942 1026.19ZM207.025 1026.19C211.148 1026.19 214.188 1023.3 214.188 1019.35C214.188 1015.4 211.148 1012.51 207.025 1012.51C202.902 1012.51 199.862 1015.42 199.862 1019.35C199.862 1023.28 202.902 1026.19 207.025 1026.19ZM207.025 1024.02C204.346 1024.02 202.351 1022.07 202.351 1019.35C202.351 1016.63 204.346 1014.68 207.025 1014.68C209.704 1014.68 211.699 1016.63 211.699 1019.35C211.699 1022.07 209.704 1024.02 207.025 1024.02ZM232.861 1026L232.842 1012.7H230.809L225.622 1021.52L220.34 1012.7H218.307V1026H220.663V1017.3L225.033 1024.48H226.135L230.505 1017.18L230.524 1026H232.861ZM243.425 1012.7H237.953V1026H240.423V1022.16H243.425C246.921 1022.16 249.087 1020.36 249.087 1017.43C249.087 1014.49 246.921 1012.7 243.425 1012.7ZM243.311 1020.07H240.423V1014.79H243.311C245.477 1014.79 246.598 1015.76 246.598 1017.43C246.598 1019.1 245.477 1020.07 243.311 1020.07ZM259.452 1026.19C263.575 1026.19 266.615 1023.3 266.615 1019.35C266.615 1015.4 263.575 1012.51 259.452 1012.51C255.329 1012.51 252.289 1015.42 252.289 1019.35C252.289 1023.28 255.329 1026.19 259.452 1026.19ZM259.452 1024.02C256.773 1024.02 254.778 1022.07 254.778 1019.35C254.778 1016.63 256.773 1014.68 259.452 1014.68C262.131 1014.68 264.126 1016.63 264.126 1019.35C264.126 1022.07 262.131 1024.02 259.452 1024.02ZM280.1 1012.7V1021.71L272.766 1012.7H270.733V1026H273.184V1016.99L280.518 1026H282.551V1012.7H280.1ZM290.085 1023.93V1020.26H296.507V1018.23H290.085V1014.77H297.324V1012.7H287.615V1026H297.59V1023.93H290.085ZM311.211 1012.7V1021.71L303.877 1012.7H301.844V1026H304.295V1016.99L311.629 1026H313.662V1012.7H311.211ZM321.423 1026H323.893V1014.79H328.301V1012.7H317.015V1014.79H321.423V1026ZM348.362 1026H350.946L344.942 1012.7H342.51L336.525 1026H339.071L340.382 1022.92H347.032L348.362 1026ZM341.218 1020.98L343.707 1015.17L346.215 1020.98H341.218ZM365.5 1026L362.441 1021.63C364.246 1020.93 365.272 1019.44 365.272 1017.43C365.272 1014.49 363.106 1012.7 359.61 1012.7H354.138V1026H356.608V1022.12H359.61C359.781 1022.12 359.952 1022.12 360.123 1022.1L362.84 1026H365.5ZM362.783 1017.43C362.783 1019.1 361.662 1020.09 359.496 1020.09H356.608V1014.79H359.496C361.662 1014.79 362.783 1015.76 362.783 1017.43ZM375.691 1026.19C377.876 1026.19 379.738 1025.41 380.973 1023.97L379.377 1022.45C378.408 1023.51 377.211 1024.02 375.824 1024.02C373.069 1024.02 371.074 1022.09 371.074 1019.35C371.074 1016.61 373.069 1014.68 375.824 1014.68C377.211 1014.68 378.408 1015.19 379.377 1016.23L380.973 1014.73C379.738 1013.29 377.876 1012.51 375.71 1012.51C371.625 1012.51 368.585 1015.38 368.585 1019.35C368.585 1023.32 371.625 1026.19 375.691 1026.19ZM394.188 1012.7V1018.19H387.31V1012.7H384.84V1026H387.31V1020.3H394.188V1026H396.658V1012.7H394.188ZM401.722 1026H404.192V1012.7H401.722V1026ZM411.987 1026H414.457V1014.79H418.865V1012.7H407.579V1014.79H411.987V1026ZM424.689 1023.93V1020.26H431.111V1018.23H424.689V1014.77H431.928V1012.7H422.219V1026H432.194V1023.93H424.689ZM442.547 1026.19C444.732 1026.19 446.594 1025.41 447.829 1023.97L446.233 1022.45C445.264 1023.51 444.067 1024.02 442.68 1024.02C439.925 1024.02 437.93 1022.09 437.93 1019.35C437.93 1016.61 439.925 1014.68 442.68 1014.68C444.067 1014.68 445.264 1015.19 446.233 1016.23L447.829 1014.73C446.594 1013.29 444.732 1012.51 442.566 1012.51C438.481 1012.51 435.441 1015.38 435.441 1019.35C435.441 1023.32 438.481 1026.19 442.547 1026.19ZM454.246 1026H456.716V1014.79H461.124V1012.7H449.838V1014.79H454.246V1026ZM469.955 1026.19C473.584 1026.19 475.769 1024.08 475.769 1020.2V1012.7H473.337V1020.11C473.337 1022.85 472.121 1024.02 469.974 1024.02C467.827 1024.02 466.592 1022.85 466.592 1020.11V1012.7H464.122V1020.2C464.122 1024.08 466.307 1026.19 469.955 1026.19ZM492.09 1026L489.031 1021.63C490.836 1020.93 491.862 1019.44 491.862 1017.43C491.862 1014.49 489.696 1012.7 486.2 1012.7H480.728V1026H483.198V1022.12H486.2C486.371 1022.12 486.542 1022.12 486.713 1022.1L489.43 1026H492.09ZM489.373 1017.43C489.373 1019.1 488.252 1020.09 486.086 1020.09H483.198V1014.79H486.086C488.252 1014.79 489.373 1015.76 489.373 1017.43ZM498.596 1023.93V1020.26H505.018V1018.23H498.596V1014.77H505.835V1012.7H496.126V1026H506.101V1023.93H498.596Z" fill="black"/>
<path d="M152.677 1018.19C152.634 1018.19 152.547 1018.19 152.503 1018.19C151.806 1018.19 151.11 1018.01 151.11 1016.35V1010.67C151.11 1008.14 149.891 1007 147.497 1007H145.451C144.755 1007 144.232 1007.52 144.232 1008.22C144.232 1008.92 144.798 1009.45 145.451 1009.45H146.147C146.931 1009.45 147.453 1009.93 147.453 1011.11V1016.66C147.453 1019.19 149.325 1019.37 150.283 1019.46V1019.5C149.282 1019.59 147.453 1019.76 147.453 1022.3V1027.85C147.453 1029.03 146.888 1029.55 146.104 1029.55H145.407C144.711 1029.55 144.189 1030.08 144.189 1030.78C144.189 1031.48 144.755 1032 145.407 1032H147.453C149.848 1032 151.066 1030.91 151.066 1028.37V1022.69C151.066 1020.99 151.763 1020.85 152.459 1020.85C152.547 1020.85 152.59 1020.85 152.677 1020.85C153.374 1020.81 153.896 1020.24 153.896 1019.54C153.896 1018.8 153.374 1018.23 152.677 1018.19Z" fill="#00B4F0"/>
<path d="M168 1019.54C168 1018.93 167.652 1018.45 167.129 1018.19L167.086 1018.15L157.596 1012.99C157.335 1012.86 157.074 1012.77 156.769 1012.77C155.855 1012.77 155.115 1013.51 155.115 1014.43C155.115 1015.17 155.463 1015.65 156.247 1016L162.776 1019.54L156.247 1023.08C155.463 1023.43 155.115 1023.91 155.115 1024.66C155.115 1025.58 155.855 1026.32 156.769 1026.32C157.074 1026.32 157.335 1026.23 157.596 1026.1L167.086 1020.94C167.086 1020.94 167.129 1020.94 167.129 1020.9C167.652 1020.68 168 1020.16 168 1019.54Z" fill="#00B4F0"/>
<path d="M88.2079 1020.72C88.2079 1016.83 85.0737 1013.64 81.1995 1013.64C77.3252 1013.64 74.1475 1016.83 74.1475 1020.72C74.1475 1024.61 77.3252 1027.8 81.1995 1027.8C82.5489 1027.8 83.8113 1027.41 84.9431 1026.71L85.1172 1026.62L85.2043 1026.8C85.4655 1027.41 86.0314 1027.8 86.6408 1027.8C87.5114 1027.8 88.2079 1027.1 88.2079 1026.19V1020.72ZM81.1995 1024.13C79.3276 1024.13 77.8041 1022.6 77.8041 1020.72C77.8041 1018.84 79.3276 1017.31 81.1995 1017.31C83.0713 1017.31 84.5949 1018.84 84.5949 1020.72C84.5949 1022.6 83.0713 1024.13 81.1995 1024.13Z" fill="#2D3033"/>
<path d="M103.748 1020.72C103.748 1016.83 100.614 1013.64 96.74 1013.64C92.8658 1013.64 89.7316 1016.83 89.7316 1020.72C89.7316 1024.61 92.9093 1027.8 96.7836 1027.8C98.133 1027.8 99.3954 1027.41 100.527 1026.71L100.701 1026.62L100.788 1026.8C101.05 1027.41 101.572 1027.8 102.225 1027.8C103.096 1027.8 103.792 1027.1 103.792 1026.19V1020.72H103.748ZM96.7836 1024.13C94.9117 1024.13 93.3882 1022.6 93.3882 1020.72C93.3882 1018.84 94.9117 1017.31 96.7836 1017.31C98.6554 1017.31 100.179 1018.84 100.179 1020.72C100.179 1022.6 98.6554 1024.13 96.7836 1024.13Z" fill="#2D3033"/>
<path d="M116.285 1026.84C116.547 1027.45 117.156 1027.89 117.809 1027.89C118.723 1027.89 119.463 1027.15 119.463 1026.23V1009.97C119.463 1009.05 118.68 1008.31 117.809 1008.31C116.895 1008.31 116.155 1009.05 116.155 1009.97V1014.78L116.024 1014.69C114.892 1013.99 113.674 1013.64 112.368 1013.64C108.45 1013.64 105.272 1016.83 105.272 1020.77C105.272 1024.7 108.45 1027.89 112.368 1027.89C113.717 1027.89 115.023 1027.5 116.155 1026.8L116.285 1026.71V1026.84ZM112.368 1024.09C110.539 1024.09 109.016 1022.56 109.016 1020.72C109.016 1018.89 110.539 1017.36 112.368 1017.36C114.196 1017.36 115.719 1018.89 115.719 1020.72C115.719 1022.6 114.239 1024.09 112.368 1024.09Z" fill="#2D3033"/>
<path d="M140.445 1015.74C139.313 1014.52 137.659 1013.91 135.482 1013.91C135.395 1013.91 133.698 1014.04 132.566 1014.69C132.305 1013.91 131.565 1013.34 130.738 1013.34C129.693 1013.34 128.866 1014.17 128.822 1015.22C128.822 1015.22 128.822 1022.12 128.822 1026.23C128.822 1027.28 129.693 1028.15 130.738 1028.15C131.782 1028.15 132.653 1027.28 132.653 1026.23V1020.37C132.653 1019.15 133.567 1017.84 135.526 1017.84C137.398 1017.84 138.268 1019.19 138.268 1020.16C138.268 1021.12 138.268 1026.23 138.268 1026.23C138.268 1027.28 139.139 1028.15 140.184 1028.15C141.229 1028.15 142.099 1027.28 142.099 1026.23V1020.42C142.056 1020.24 142.186 1017.62 140.445 1015.74Z" fill="#2D3033"/>
<path d="M72.0145 1013.38C71.1874 1013.38 70.6215 1013.77 70.2733 1014.65L66.9649 1021.82L63.6131 1014.65C63.2213 1013.77 62.6989 1013.38 61.8718 1013.38C60.8271 1013.38 60 1014.21 60 1015.26C60 1015.57 60.0871 1015.92 60.2612 1016.18L65.3978 1027.24C65.8331 1028.02 66.3555 1028.11 66.9649 1028.11C67.5744 1028.11 68.0967 1028.07 68.532 1027.24L73.6251 1016.18C73.7993 1015.92 73.8863 1015.57 73.8863 1015.26C73.8863 1014.21 73.0157 1013.38 72.0145 1013.38Z" fill="#2D3033"/>
<path d="M124.165 1013.42C123.12 1013.42 122.293 1014.26 122.25 1015.3C122.25 1015.3 122.25 1026.01 122.25 1026.14C122.25 1027.19 123.12 1028.07 124.165 1028.07C125.21 1028.07 126.081 1027.19 126.081 1026.14C126.081 1026.06 126.081 1015.35 126.081 1015.3C126.037 1014.21 125.21 1013.42 124.165 1013.42Z" fill="#2D3033"/>
<path d="M124.164 1012.2C125.27 1012.2 126.167 1011.3 126.167 1010.19C126.167 1009.08 125.27 1008.18 124.164 1008.18C123.058 1008.18 122.162 1009.08 122.162 1010.19C122.162 1011.3 123.058 1012.2 124.164 1012.2Z" fill="#2D3033"/>
<line y1="-2.5" x2="63.0079" y2="-2.5" transform="matrix(-0.015871 0.999874 -1 0 1002 252)" stroke="black" stroke-width="5"/>
<line y1="-2.5" x2="63.0079" y2="-2.5" transform="matrix(-0.015871 0.999874 -1 0 1002 461)" stroke="black" stroke-width="5"/>
<line y1="-2.5" x2="63.0079" y2="-2.5" transform="matrix(-0.015871 0.999874 -1 0 1002 666)" stroke="black" stroke-width="5"/>
</g>
<defs>
<clipPath id="clip0">
<rect width="2000" height="1095" fill="white"/>
</clipPath>
</defs>
</svg>
