<svg width="600" height="325" viewBox="0 0 600 325" fill="none" xmlns="http://www.w3.org/2000/svg">
<path opacity="0.2" fill-rule="evenodd" clip-rule="evenodd" d="M268 74H40C36.134 74 33 77.134 33 81V249C33 252.866 36.134 256 40 256H268C271.866 256 275 252.866 275 249V81C275 77.134 271.866 74 268 74ZM40 73C35.5817 73 32 76.5817 32 81V249C32 253.418 35.5817 257 40 257H268C272.418 257 276 253.418 276 249V81C276 76.5817 272.418 73 268 73H40Z" fill="currentColor"/>
<path opacity="0.2" fill-rule="evenodd" clip-rule="evenodd" d="M560 74H332C328.134 74 325 77.134 325 81V249C325 252.866 328.134 256 332 256H560C563.866 256 567 252.866 567 249V81C567 77.134 563.866 74 560 74ZM332 73C327.582 73 324 76.5817 324 81V249C324 253.418 327.582 257 332 257H560C564.418 257 568 253.418 568 249V81C568 76.5817 564.418 73 560 73H332Z" fill="currentColor"/>
<path opacity="0.03" d="M99 76H267C270.314 76 273 78.6863 273 82V248C273 251.314 270.314 254 267 254H99V76Z" fill="white"/>
<path opacity="0.03" d="M391 76H559C562.314 76 565 78.6863 565 82V248C565 251.314 562.314 254 559 254H391V76Z" fill="white"/>
<path opacity="0.03" d="M34 81C34 77.6863 36.6863 75 40 75H99V255H40C36.6863 255 34 252.314 34 249V81Z" fill="black"/>
<path opacity="0.03" d="M326 81C326 77.6863 328.686 75 332 75H391V255H332C328.686 255 326 252.314 326 249V81Z" fill="black"/>
<rect opacity="0.5" x="43" y="86" width="28" height="7" rx="3" fill="currentColor"/>
<rect opacity="0.5" x="335" y="86" width="28" height="7" rx="3" fill="currentColor"/>
<rect opacity="0.7" x="406" y="86" width="26" height="3" rx="1.5" fill="currentColor"/>
<rect opacity="0.7" x="406" y="125" width="10" height="3" rx="1.5" fill="currentColor"/>
<rect opacity="0.4" x="406" y="141" width="10" height="3" rx="1.5" fill="currentColor"/>
<rect opacity="0.4" x="406" y="157" width="10" height="3" rx="1.5" fill="currentColor"/>
<rect opacity="0.4" x="406" y="173" width="10" height="3" rx="1.5" fill="currentColor"/>
<rect opacity="0.4" x="406" y="189" width="10" height="3" rx="1.5" fill="currentColor"/>
<rect opacity="0.4" x="406" y="205" width="10" height="3" rx="1.5" fill="currentColor"/>
<rect opacity="0.4" x="406" y="221" width="10" height="3" rx="1.5" fill="currentColor"/>
<rect opacity="0.4" x="406" y="237" width="10" height="3" rx="1.5" fill="currentColor"/>
<rect opacity="0.7" x="429" y="125" width="22" height="3" rx="1.5" fill="currentColor"/>
<rect opacity="0.4" x="429" y="141" width="22" height="3" rx="1.5" fill="currentColor"/>
<rect opacity="0.4" x="429" y="157" width="22" height="3" rx="1.5" fill="currentColor"/>
<rect opacity="0.4" x="429" y="173" width="22" height="3" rx="1.5" fill="currentColor"/>
<rect opacity="0.4" x="429" y="189" width="22" height="3" rx="1.5" fill="currentColor"/>
<rect opacity="0.4" x="429" y="205" width="22" height="3" rx="1.5" fill="currentColor"/>
<rect opacity="0.4" x="429" y="221" width="22" height="3" rx="1.5" fill="currentColor"/>
<rect opacity="0.4" x="429" y="237" width="22" height="3" rx="1.5" fill="currentColor"/>
<rect opacity="0.7" x="464" y="125" width="54" height="3" rx="1.5" fill="currentColor"/>
<rect opacity="0.4" x="464" y="141" width="54" height="3" rx="1.5" fill="currentColor"/>
<rect opacity="0.4" x="464" y="157" width="54" height="3" rx="1.5" fill="currentColor"/>
<rect opacity="0.4" x="464" y="173" width="54" height="3" rx="1.5" fill="currentColor"/>
<rect opacity="0.4" x="464" y="189" width="54" height="3" rx="1.5" fill="currentColor"/>
<rect opacity="0.4" x="464" y="205" width="54" height="3" rx="1.5" fill="currentColor"/>
<rect opacity="0.4" x="464" y="221" width="54" height="3" rx="1.5" fill="currentColor"/>
<rect opacity="0.4" x="464" y="237" width="54" height="3" rx="1.5" fill="currentColor"/>
<rect opacity="0.7" x="531" y="125" width="19" height="3" rx="1.5" fill="currentColor"/>
<rect opacity="0.4" x="531" y="141" width="19" height="3" rx="1.5" fill="currentColor"/>
<rect opacity="0.4" x="531" y="157" width="19" height="3" rx="1.5" fill="currentColor"/>
<rect opacity="0.4" x="531" y="173" width="19" height="3" rx="1.5" fill="currentColor"/>
<rect opacity="0.4" x="531" y="189" width="19" height="3" rx="1.5" fill="currentColor"/>
<rect opacity="0.4" x="531" y="205" width="19" height="3" rx="1.5" fill="currentColor"/>
<rect opacity="0.4" x="531" y="221" width="19" height="3" rx="1.5" fill="currentColor"/>
<rect opacity="0.4" x="531" y="237" width="19" height="3" rx="1.5" fill="currentColor"/>
<rect opacity="0.7" x="406" y="95" width="58" height="9" rx="3" fill="currentColor"/>
<rect opacity="0.3" x="43" y="114" width="26" height="4" rx="2" fill="currentColor"/>
<path opacity="0.8" fill-rule="evenodd" clip-rule="evenodd" d="M334 109C331.791 109 330 110.791 330 113V119C330 121.209 331.791 123 334 123H383C385.209 123 387 121.209 387 119V113C387 110.791 385.209 109 383 109H334ZM337 114C335.895 114 335 114.895 335 116C335 117.105 335.895 118 337 118H359C360.105 118 361 117.105 361 116C361 114.895 360.105 114 359 114H337Z" fill="currentColor"/>
<rect opacity="0.3" x="43" y="130" width="42" height="4" rx="2" fill="currentColor"/>
<rect opacity="0.3" x="335" y="130" width="42" height="4" rx="2" fill="currentColor"/>
<rect opacity="0.3" x="43" y="146" width="34" height="4" rx="2" fill="currentColor"/>
<rect opacity="0.3" x="335" y="146" width="34" height="4" rx="2" fill="currentColor"/>
<rect opacity="0.3" x="43" y="162" width="23" height="4" rx="2" fill="currentColor"/>
<rect opacity="0.3" x="335" y="162" width="23" height="4" rx="2" fill="currentColor"/>
<path d="M105.291 31.9091H108.193L112.08 41.3949H112.233L116.119 31.9091H119.021V45H116.746V36.0064H116.624L113.006 44.9616H111.306L107.688 35.9872H107.567V45H105.291V31.9091Z" fill="currentColor"/>
<path d="M124.327 45.1982C123.705 45.1982 123.144 45.0874 122.646 44.8658C122.151 44.6399 121.759 44.3075 121.469 43.8686C121.184 43.4297 121.041 42.8885 121.041 42.245C121.041 41.691 121.143 41.233 121.348 40.8707C121.553 40.5085 121.832 40.2187 122.185 40.0014C122.539 39.7841 122.937 39.62 123.381 39.5092C123.828 39.3942 124.29 39.3111 124.768 39.2599C125.343 39.2003 125.81 39.147 126.168 39.1001C126.526 39.049 126.786 38.9723 126.947 38.87C127.114 38.7635 127.197 38.5994 127.197 38.3778V38.3395C127.197 37.858 127.054 37.4851 126.768 37.2209C126.483 36.9567 126.072 36.8246 125.535 36.8246C124.968 36.8246 124.518 36.9482 124.186 37.1953C123.858 37.4425 123.636 37.7344 123.521 38.071L121.361 37.7642C121.531 37.1676 121.812 36.669 122.205 36.2685C122.597 35.8636 123.076 35.5611 123.643 35.3608C124.21 35.1562 124.836 35.054 125.522 35.054C125.995 35.054 126.466 35.1094 126.935 35.2202C127.403 35.331 127.832 35.5142 128.219 35.7699C128.607 36.0213 128.918 36.3643 129.153 36.799C129.391 37.2337 129.511 37.777 129.511 38.429V45H127.286V43.6513H127.21C127.069 43.924 126.871 44.1797 126.615 44.4183C126.364 44.6527 126.046 44.8423 125.663 44.9872C125.283 45.1278 124.838 45.1982 124.327 45.1982ZM124.928 43.4979C125.392 43.4979 125.795 43.4062 126.136 43.223C126.477 43.0355 126.739 42.7883 126.922 42.4815C127.109 42.1747 127.203 41.8402 127.203 41.478V40.321C127.131 40.3807 127.007 40.4361 126.832 40.4872C126.662 40.5383 126.47 40.5831 126.257 40.6214C126.044 40.6598 125.833 40.6939 125.624 40.7237C125.415 40.7535 125.234 40.7791 125.081 40.8004C124.736 40.8473 124.427 40.924 124.154 41.0305C123.881 41.1371 123.666 41.2862 123.509 41.478C123.351 41.6655 123.272 41.9084 123.272 42.2067C123.272 42.6328 123.428 42.9545 123.739 43.1719C124.05 43.3892 124.446 43.4979 124.928 43.4979Z" fill="currentColor"/>
<path d="M131.837 45V35.1818H134.151V45H131.837ZM133.001 33.7884C132.634 33.7884 132.319 33.6669 132.055 33.424C131.79 33.1768 131.658 32.8807 131.658 32.5355C131.658 32.1861 131.79 31.8899 132.055 31.647C132.319 31.3999 132.634 31.2763 133.001 31.2763C133.371 31.2763 133.687 31.3999 133.947 31.647C134.211 31.8899 134.343 32.1861 134.343 32.5355C134.343 32.8807 134.211 33.1768 133.947 33.424C133.687 33.6669 133.371 33.7884 133.001 33.7884Z" fill="currentColor"/>
<path d="M138.845 39.2472V45H136.531V35.1818H138.742V36.8501H138.857C139.083 36.3004 139.443 35.8636 139.938 35.5398C140.436 35.2159 141.052 35.054 141.785 35.054C142.463 35.054 143.053 35.1989 143.556 35.4886C144.063 35.7784 144.455 36.1982 144.732 36.7479C145.013 37.2976 145.151 37.9645 145.147 38.7486V45H142.833V39.1065C142.833 38.4503 142.663 37.9368 142.322 37.566C141.985 37.1953 141.519 37.0099 140.922 37.0099C140.517 37.0099 140.157 37.0994 139.842 37.2784C139.531 37.4531 139.286 37.7067 139.107 38.0391C138.932 38.3714 138.845 38.7741 138.845 39.2472Z" fill="currentColor"/>
<path d="M154.278 31.9091V45H151.964V31.9091H154.278Z" fill="currentColor"/>
<path d="M159.483 45.1982C158.861 45.1982 158.3 45.0874 157.802 44.8658C157.308 44.6399 156.915 44.3075 156.626 43.8686C156.34 43.4297 156.197 42.8885 156.197 42.245C156.197 41.691 156.3 41.233 156.504 40.8707C156.709 40.5085 156.988 40.2187 157.342 40.0014C157.695 39.7841 158.094 39.62 158.537 39.5092C158.984 39.3942 159.447 39.3111 159.924 39.2599C160.499 39.2003 160.966 39.147 161.324 39.1001C161.682 39.049 161.942 38.9723 162.104 38.87C162.27 38.7635 162.353 38.5994 162.353 38.3778V38.3395C162.353 37.858 162.21 37.4851 161.925 37.2209C161.639 36.9567 161.228 36.8246 160.691 36.8246C160.124 36.8246 159.675 36.9482 159.342 37.1953C159.014 37.4425 158.793 37.7344 158.678 38.071L156.517 37.7642C156.687 37.1676 156.969 36.669 157.361 36.2685C157.753 35.8636 158.232 35.5611 158.799 35.3608C159.366 35.1562 159.992 35.054 160.678 35.054C161.151 35.054 161.622 35.1094 162.091 35.2202C162.56 35.331 162.988 35.5142 163.376 35.7699C163.763 36.0213 164.075 36.3643 164.309 36.799C164.548 37.2337 164.667 37.777 164.667 38.429V45H162.442V43.6513H162.366C162.225 43.924 162.027 44.1797 161.771 44.4183C161.52 44.6527 161.202 44.8423 160.819 44.9872C160.44 45.1278 159.994 45.1982 159.483 45.1982ZM160.084 43.4979C160.548 43.4979 160.951 43.4062 161.292 43.223C161.633 43.0355 161.895 42.7883 162.078 42.4815C162.266 42.1747 162.359 41.8402 162.359 41.478V40.321C162.287 40.3807 162.163 40.4361 161.989 40.4872C161.818 40.5383 161.626 40.5831 161.413 40.6214C161.2 40.6598 160.989 40.6939 160.781 40.7237C160.572 40.7535 160.391 40.7791 160.237 40.8004C159.892 40.8473 159.583 40.924 159.31 41.0305C159.038 41.1371 158.822 41.2862 158.665 41.478C158.507 41.6655 158.428 41.9084 158.428 42.2067C158.428 42.6328 158.584 42.9545 158.895 43.1719C159.206 43.3892 159.602 43.4979 160.084 43.4979Z" fill="currentColor"/>
<path d="M168.08 48.6818C167.765 48.6818 167.473 48.6562 167.205 48.6051C166.94 48.5582 166.729 48.5028 166.572 48.4389L167.109 46.6364C167.445 46.7344 167.746 46.7812 168.01 46.777C168.274 46.7727 168.506 46.6896 168.707 46.5277C168.911 46.37 169.084 46.1058 169.224 45.7351L169.423 45.2045L165.862 35.1818H168.317L170.58 42.5966H170.682L172.951 35.1818H175.412L171.481 46.1889C171.298 46.7088 171.055 47.1541 170.752 47.5249C170.45 47.8999 170.079 48.1854 169.64 48.3814C169.205 48.5817 168.685 48.6818 168.08 48.6818Z" fill="currentColor"/>
<path d="M180.962 45.1918C180.003 45.1918 179.172 44.9808 178.469 44.5589C177.766 44.1371 177.22 43.5469 176.833 42.7883C176.449 42.0298 176.257 41.1435 176.257 40.1293C176.257 39.1151 176.449 38.2266 176.833 37.4638C177.22 36.701 177.766 36.1087 178.469 35.6868C179.172 35.2649 180.003 35.054 180.962 35.054C181.921 35.054 182.752 35.2649 183.455 35.6868C184.158 36.1087 184.701 36.701 185.085 37.4638C185.472 38.2266 185.666 39.1151 185.666 40.1293C185.666 41.1435 185.472 42.0298 185.085 42.7883C184.701 43.5469 184.158 44.1371 183.455 44.5589C182.752 44.9808 181.921 45.1918 180.962 45.1918ZM180.975 43.3381C181.494 43.3381 181.929 43.1953 182.279 42.9098C182.628 42.62 182.888 42.2322 183.058 41.7464C183.233 41.2607 183.32 40.7195 183.32 40.1229C183.32 39.522 183.233 38.9787 183.058 38.4929C182.888 38.0028 182.628 37.6129 182.279 37.3232C181.929 37.0334 181.494 36.8885 180.975 36.8885C180.442 36.8885 179.999 37.0334 179.645 37.3232C179.296 37.6129 179.034 38.0028 178.859 38.4929C178.688 38.9787 178.603 39.522 178.603 40.1229C178.603 40.7195 178.688 41.2607 178.859 41.7464C179.034 42.2322 179.296 42.62 179.645 42.9098C179.999 43.1953 180.442 43.3381 180.975 43.3381Z" fill="currentColor"/>
<path d="M193.888 40.8707V35.1818H196.202V45H193.958V43.255H193.856C193.635 43.8047 193.27 44.2543 192.763 44.6037C192.26 44.9531 191.64 45.1278 190.903 45.1278C190.26 45.1278 189.691 44.9851 189.196 44.6996C188.706 44.4098 188.323 43.9901 188.046 43.4403C187.769 42.8864 187.63 42.2173 187.63 41.4332V35.1818H189.944V41.0753C189.944 41.6974 190.115 42.1918 190.456 42.5582C190.797 42.9247 191.244 43.108 191.798 43.108C192.139 43.108 192.469 43.0249 192.789 42.8587C193.108 42.6925 193.37 42.4453 193.575 42.1172C193.784 41.7848 193.888 41.3693 193.888 40.8707Z" fill="currentColor"/>
<path d="M203.484 35.1818V36.9716H197.84V35.1818H203.484ZM199.233 32.8295H201.547V42.0469C201.547 42.358 201.594 42.5966 201.688 42.7628C201.786 42.9247 201.914 43.0355 202.072 43.0952C202.229 43.1548 202.404 43.1847 202.596 43.1847C202.741 43.1847 202.873 43.174 202.992 43.1527C203.116 43.1314 203.209 43.1122 203.273 43.0952L203.663 44.9041C203.54 44.9467 203.363 44.9936 203.133 45.0447C202.907 45.0959 202.63 45.1257 202.302 45.1342C201.722 45.1513 201.2 45.0639 200.736 44.8722C200.271 44.6761 199.903 44.3736 199.63 43.9645C199.361 43.5554 199.229 43.044 199.233 42.4304V32.8295Z" fill="currentColor"/>
<g opacity="0.7">
<path d="M92.5645 295V293.967H89.9424V283.933H86.002V284.966H88.6973V293.967H85.98V295H92.5645Z" fill="currentColor"/>
<path d="M98.3652 295.146C100.467 295.146 101.808 293.777 101.808 291.631V290.43C101.808 288.284 100.467 286.914 98.3652 286.914C96.2632 286.914 94.9229 288.284 94.9229 290.43V291.631C94.9229 293.777 96.2632 295.146 98.3652 295.146ZM98.3652 288.013C99.7275 288.013 100.577 288.979 100.577 290.54V291.514C100.577 293.081 99.7275 294.041 98.3652 294.041C97.0029 294.041 96.1533 293.081 96.1533 291.514V290.54C96.1533 288.979 97.0029 288.013 98.3652 288.013Z" fill="currentColor"/>
<path d="M110.948 289.529C110.743 287.896 109.542 286.899 107.784 286.899C105.624 286.899 104.364 288.225 104.364 290.503V291.543C104.364 293.821 105.624 295.146 107.784 295.146C109.542 295.146 110.75 294.158 110.948 292.539H109.718C109.564 293.447 108.788 294.026 107.762 294.026C106.378 294.026 105.609 293.088 105.609 291.382V290.664C105.609 288.958 106.378 288.013 107.762 288.013C108.788 288.013 109.564 288.599 109.718 289.529H110.948Z" fill="currentColor"/>
<path d="M116.104 295.139C117.262 295.139 118.126 294.663 118.507 293.813H118.631V295.007H119.818V289.565C119.818 287.91 118.749 286.958 116.881 286.958C115.255 286.958 114.024 287.83 113.878 289.104H115.101C115.306 288.423 115.951 288.035 116.866 288.035C117.972 288.035 118.58 288.584 118.58 289.58V290.298L116.397 290.408C114.588 290.503 113.578 291.338 113.578 292.744C113.578 294.187 114.588 295.139 116.104 295.139ZM116.463 294.048C115.46 294.048 114.837 293.535 114.837 292.7C114.837 291.873 115.423 291.396 116.537 291.345L118.58 291.25V292.188C118.58 293.25 117.665 294.048 116.463 294.048Z" fill="currentColor"/>
<path d="M129.654 295V293.967H127.032V283.933H123.092V284.966H125.787V293.967H123.07V295H129.654Z" fill="currentColor"/>
<path d="M132.196 295H133.441V290.327C133.441 288.972 134.327 288.057 135.638 288.057C136.883 288.057 137.469 288.738 137.469 290.166V295H138.714V289.851C138.714 287.954 137.777 286.914 136.048 286.914C134.833 286.914 133.917 287.471 133.5 288.459H133.397V283.933H132.196V295Z" fill="currentColor"/>
<path d="M144.728 295.146C146.83 295.146 148.17 293.777 148.17 291.631V290.43C148.17 288.284 146.83 286.914 144.728 286.914C142.625 286.914 141.285 288.284 141.285 290.43V291.631C141.285 293.777 142.625 295.146 144.728 295.146ZM144.728 288.013C146.09 288.013 146.939 288.979 146.939 290.54V291.514C146.939 293.081 146.09 294.041 144.728 294.041C143.365 294.041 142.516 293.081 142.516 291.514V290.54C142.516 288.979 143.365 288.013 144.728 288.013Z" fill="currentColor"/>
<path d="M151.107 289.199C151.107 290.327 151.817 291.052 153.253 291.382L154.432 291.653C155.443 291.88 155.831 292.217 155.831 292.847C155.831 293.608 155.143 294.099 154.059 294.099C153.033 294.099 152.33 293.674 152.147 292.942H150.88C151.019 294.304 152.213 295.146 154.015 295.146C155.897 295.146 157.12 294.194 157.12 292.729C157.12 291.58 156.417 290.906 154.872 290.554L153.751 290.298C152.755 290.078 152.345 289.734 152.345 289.126C152.345 288.401 152.997 287.932 154.007 287.932C154.938 287.932 155.604 288.357 155.75 289.053H156.952C156.805 287.727 155.685 286.899 154.029 286.899C152.279 286.899 151.107 287.822 151.107 289.199Z" fill="currentColor"/>
<path d="M161.917 284.922V287.075H159.801V288.137H161.917V292.634C161.917 294.29 162.833 295.037 164.803 295.037C165.184 295.037 166.151 295 166.349 294.963V293.909C166.136 293.931 165.338 293.953 164.891 293.953C163.771 293.953 163.163 293.484 163.163 292.62V288.137H166.371V287.075H163.148V284.922H161.917Z" fill="currentColor"/>
<path d="M172.545 289.419C173.27 289.419 173.871 288.804 173.871 288.064C173.871 287.324 173.27 286.709 172.545 286.709C171.82 286.709 171.219 287.324 171.219 288.064C171.219 288.804 171.82 289.419 172.545 289.419ZM172.545 295.044C173.27 295.044 173.871 294.436 173.871 293.689C173.871 292.949 173.27 292.341 172.545 292.341C171.82 292.341 171.219 292.949 171.219 293.689C171.219 294.436 171.82 295.044 172.545 295.044Z" fill="currentColor"/>
<path d="M181.854 295.234C184.051 295.234 185.575 293.975 185.575 292.173C185.575 290.84 184.703 289.749 183.421 289.478V289.36C184.498 289.06 185.15 288.159 185.15 287.009C185.15 285.361 183.78 284.197 181.854 284.197C179.928 284.197 178.551 285.361 178.551 287.009C178.551 288.159 179.217 289.067 180.279 289.36V289.478C178.976 289.792 178.126 290.862 178.126 292.173C178.126 293.975 179.657 295.234 181.854 295.234ZM181.854 288.921C180.631 288.921 179.818 288.203 179.818 287.119C179.818 286.042 180.631 285.325 181.854 285.325C183.077 285.325 183.883 286.042 183.883 287.119C183.883 288.203 183.077 288.921 181.854 288.921ZM181.854 294.114C180.418 294.114 179.43 293.279 179.43 292.07C179.43 290.862 180.418 290.027 181.854 290.027C183.29 290.027 184.278 290.862 184.278 292.07C184.278 293.279 183.29 294.114 181.854 294.114Z" fill="currentColor"/>
<path d="M191.097 295.242C193.39 295.242 194.664 293.279 194.664 289.719C194.664 286.16 193.39 284.197 191.097 284.197C188.797 284.197 187.53 286.16 187.53 289.719C187.53 293.279 188.797 295.242 191.097 295.242ZM188.812 289.719C188.812 286.848 189.603 285.339 191.097 285.339C192.093 285.339 192.782 286.013 193.126 287.324L188.863 290.884C188.834 290.525 188.812 290.137 188.812 289.719ZM191.097 294.099C190.101 294.099 189.42 293.425 189.076 292.129L193.324 288.54C193.36 288.906 193.375 289.294 193.375 289.719C193.375 292.583 192.591 294.099 191.097 294.099Z" fill="currentColor"/>
<path d="M200.399 295.234C202.596 295.234 204.12 293.975 204.12 292.173C204.12 290.84 203.248 289.749 201.966 289.478V289.36C203.043 289.06 203.695 288.159 203.695 287.009C203.695 285.361 202.325 284.197 200.399 284.197C198.473 284.197 197.096 285.361 197.096 287.009C197.096 288.159 197.762 289.067 198.824 289.36V289.478C197.521 289.792 196.671 290.862 196.671 292.173C196.671 293.975 198.202 295.234 200.399 295.234ZM200.399 288.921C199.176 288.921 198.363 288.203 198.363 287.119C198.363 286.042 199.176 285.325 200.399 285.325C201.622 285.325 202.428 286.042 202.428 287.119C202.428 288.203 201.622 288.921 200.399 288.921ZM200.399 294.114C198.963 294.114 197.975 293.279 197.975 292.07C197.975 290.862 198.963 290.027 200.399 290.027C201.834 290.027 202.823 290.862 202.823 292.07C202.823 293.279 201.834 294.114 200.399 294.114Z" fill="currentColor"/>
<path d="M209.642 295.242C211.935 295.242 213.209 293.279 213.209 289.719C213.209 286.16 211.935 284.197 209.642 284.197C207.342 284.197 206.075 286.16 206.075 289.719C206.075 293.279 207.342 295.242 209.642 295.242ZM207.357 289.719C207.357 286.848 208.148 285.339 209.642 285.339C210.638 285.339 211.327 286.013 211.671 287.324L207.408 290.884C207.379 290.525 207.357 290.137 207.357 289.719ZM209.642 294.099C208.646 294.099 207.965 293.425 207.621 292.129L211.869 288.54C211.905 288.906 211.92 289.294 211.92 289.719C211.92 292.583 211.136 294.099 209.642 294.099Z" fill="currentColor"/>
<path d="M216.937 296.003L222.093 283.428H220.87L215.721 296.003H216.937Z" fill="currentColor"/>
</g>
<g opacity="0.7">
<path d="M343.108 295V293.967H340.486V283.933H336.545V284.966H339.241V293.967H336.523V295H343.108Z" fill="currentColor"/>
<path d="M348.909 295.146C351.011 295.146 352.351 293.777 352.351 291.631V290.43C352.351 288.284 351.011 286.914 348.909 286.914C346.807 286.914 345.466 288.284 345.466 290.43V291.631C345.466 293.777 346.807 295.146 348.909 295.146ZM348.909 288.013C350.271 288.013 351.121 288.979 351.121 290.54V291.514C351.121 293.081 350.271 294.041 348.909 294.041C347.546 294.041 346.697 293.081 346.697 291.514V290.54C346.697 288.979 347.546 288.013 348.909 288.013Z" fill="currentColor"/>
<path d="M361.492 289.529C361.287 287.896 360.085 286.899 358.328 286.899C356.167 286.899 354.907 288.225 354.907 290.503V291.543C354.907 293.821 356.167 295.146 358.328 295.146C360.085 295.146 361.294 294.158 361.492 292.539H360.261C360.107 293.447 359.331 294.026 358.306 294.026C356.921 294.026 356.152 293.088 356.152 291.382V290.664C356.152 288.958 356.921 288.013 358.306 288.013C359.331 288.013 360.107 288.599 360.261 289.529H361.492Z" fill="currentColor"/>
<path d="M366.648 295.139C367.805 295.139 368.669 294.663 369.05 293.813H369.175V295.007H370.361V289.565C370.361 287.91 369.292 286.958 367.424 286.958C365.798 286.958 364.568 287.83 364.421 289.104H365.645C365.85 288.423 366.494 288.035 367.41 288.035C368.516 288.035 369.124 288.584 369.124 289.58V290.298L366.941 290.408C365.132 290.503 364.121 291.338 364.121 292.744C364.121 294.187 365.132 295.139 366.648 295.139ZM367.007 294.048C366.003 294.048 365.381 293.535 365.381 292.7C365.381 291.873 365.967 291.396 367.08 291.345L369.124 291.25V292.188C369.124 293.25 368.208 294.048 367.007 294.048Z" fill="currentColor"/>
<path d="M380.198 295V293.967H377.576V283.933H373.635V284.966H376.331V293.967H373.613V295H380.198Z" fill="currentColor"/>
<path d="M382.739 295H383.984V290.327C383.984 288.972 384.871 288.057 386.182 288.057C387.427 288.057 388.013 288.738 388.013 290.166V295H389.258V289.851C389.258 287.954 388.32 286.914 386.592 286.914C385.376 286.914 384.46 287.471 384.043 288.459H383.94V283.933H382.739V295Z" fill="currentColor"/>
<path d="M395.271 295.146C397.373 295.146 398.713 293.777 398.713 291.631V290.43C398.713 288.284 397.373 286.914 395.271 286.914C393.169 286.914 391.829 288.284 391.829 290.43V291.631C391.829 293.777 393.169 295.146 395.271 295.146ZM395.271 288.013C396.633 288.013 397.483 288.979 397.483 290.54V291.514C397.483 293.081 396.633 294.041 395.271 294.041C393.909 294.041 393.059 293.081 393.059 291.514V290.54C393.059 288.979 393.909 288.013 395.271 288.013Z" fill="currentColor"/>
<path d="M401.65 289.199C401.65 290.327 402.361 291.052 403.796 291.382L404.976 291.653C405.986 291.88 406.375 292.217 406.375 292.847C406.375 293.608 405.686 294.099 404.602 294.099C403.577 294.099 402.874 293.674 402.69 292.942H401.423C401.562 294.304 402.756 295.146 404.558 295.146C406.44 295.146 407.664 294.194 407.664 292.729C407.664 291.58 406.96 290.906 405.415 290.554L404.294 290.298C403.298 290.078 402.888 289.734 402.888 289.126C402.888 288.401 403.54 287.932 404.551 287.932C405.481 287.932 406.147 288.357 406.294 289.053H407.495C407.349 287.727 406.228 286.899 404.573 286.899C402.822 286.899 401.65 287.822 401.65 289.199Z" fill="currentColor"/>
<path d="M412.461 284.922V287.075H410.344V288.137H412.461V292.634C412.461 294.29 413.376 295.037 415.347 295.037C415.728 295.037 416.694 295 416.892 294.963V293.909C416.68 293.931 415.881 293.953 415.435 293.953C414.314 293.953 413.706 293.484 413.706 292.62V288.137H416.914V287.075H413.691V284.922H412.461Z" fill="currentColor"/>
<path d="M423.088 289.419C423.813 289.419 424.414 288.804 424.414 288.064C424.414 287.324 423.813 286.709 423.088 286.709C422.363 286.709 421.763 287.324 421.763 288.064C421.763 288.804 422.363 289.419 423.088 289.419ZM423.088 295.044C423.813 295.044 424.414 294.436 424.414 293.689C424.414 292.949 423.813 292.341 423.088 292.341C422.363 292.341 421.763 292.949 421.763 293.689C421.763 294.436 422.363 295.044 423.088 295.044Z" fill="currentColor"/>
<path d="M432.397 295.234C434.595 295.234 436.118 293.975 436.118 292.173C436.118 290.84 435.247 289.749 433.965 289.478V289.36C435.042 289.06 435.693 288.159 435.693 287.009C435.693 285.361 434.324 284.197 432.397 284.197C430.471 284.197 429.094 285.361 429.094 287.009C429.094 288.159 429.761 289.067 430.823 289.36V289.478C429.519 289.792 428.669 290.862 428.669 292.173C428.669 293.975 430.2 295.234 432.397 295.234ZM432.397 288.921C431.174 288.921 430.361 288.203 430.361 287.119C430.361 286.042 431.174 285.325 432.397 285.325C433.621 285.325 434.426 286.042 434.426 287.119C434.426 288.203 433.621 288.921 432.397 288.921ZM432.397 294.114C430.962 294.114 429.973 293.279 429.973 292.07C429.973 290.862 430.962 290.027 432.397 290.027C433.833 290.027 434.822 290.862 434.822 292.07C434.822 293.279 433.833 294.114 432.397 294.114Z" fill="currentColor"/>
<path d="M441.641 295.242C443.933 295.242 445.208 293.279 445.208 289.719C445.208 286.16 443.933 284.197 441.641 284.197C439.341 284.197 438.074 286.16 438.074 289.719C438.074 293.279 439.341 295.242 441.641 295.242ZM439.355 289.719C439.355 286.848 440.146 285.339 441.641 285.339C442.637 285.339 443.325 286.013 443.669 287.324L439.407 290.884C439.377 290.525 439.355 290.137 439.355 289.719ZM441.641 294.099C440.645 294.099 439.963 293.425 439.619 292.129L443.867 288.54C443.904 288.906 443.918 289.294 443.918 289.719C443.918 292.583 443.135 294.099 441.641 294.099Z" fill="currentColor"/>
<path d="M450.942 295.234C453.14 295.234 454.663 293.975 454.663 292.173C454.663 290.84 453.792 289.749 452.51 289.478V289.36C453.586 289.06 454.238 288.159 454.238 287.009C454.238 285.361 452.869 284.197 450.942 284.197C449.016 284.197 447.639 285.361 447.639 287.009C447.639 288.159 448.306 289.067 449.368 289.36V289.478C448.064 289.792 447.214 290.862 447.214 292.173C447.214 293.975 448.745 295.234 450.942 295.234ZM450.942 288.921C449.719 288.921 448.906 288.203 448.906 287.119C448.906 286.042 449.719 285.325 450.942 285.325C452.166 285.325 452.971 286.042 452.971 287.119C452.971 288.203 452.166 288.921 450.942 288.921ZM450.942 294.114C449.507 294.114 448.518 293.279 448.518 292.07C448.518 290.862 449.507 290.027 450.942 290.027C452.378 290.027 453.367 290.862 453.367 292.07C453.367 293.279 452.378 294.114 450.942 294.114Z" fill="currentColor"/>
<path d="M460.186 295.242C462.478 295.242 463.752 293.279 463.752 289.719C463.752 286.16 462.478 284.197 460.186 284.197C457.886 284.197 456.619 286.16 456.619 289.719C456.619 293.279 457.886 295.242 460.186 295.242ZM457.9 289.719C457.9 286.848 458.691 285.339 460.186 285.339C461.182 285.339 461.87 286.013 462.214 287.324L457.952 290.884C457.922 290.525 457.9 290.137 457.9 289.719ZM460.186 294.099C459.189 294.099 458.508 293.425 458.164 292.129L462.412 288.54C462.449 288.906 462.463 289.294 462.463 289.719C462.463 292.583 461.68 294.099 460.186 294.099Z" fill="currentColor"/>
<path d="M467.48 296.003L472.637 283.428H471.414L466.265 296.003H467.48Z" fill="currentColor"/>
<path d="M482.034 289.529C481.829 287.896 480.627 286.899 478.87 286.899C476.709 286.899 475.449 288.225 475.449 290.503V291.543C475.449 293.821 476.709 295.146 478.87 295.146C480.627 295.146 481.836 294.158 482.034 292.539H480.803C480.649 293.447 479.873 294.026 478.848 294.026C477.463 294.026 476.694 293.088 476.694 291.382V290.664C476.694 288.958 477.463 288.013 478.848 288.013C479.873 288.013 480.649 288.599 480.803 289.529H482.034Z" fill="currentColor"/>
<path d="M491.248 287.053H490.002V291.733C490.002 293.088 489.124 294.004 487.812 294.004C486.575 294.004 485.989 293.33 485.989 291.895V287.053H484.744V292.209C484.744 294.114 485.681 295.146 487.41 295.146C488.618 295.146 489.526 294.59 489.951 293.601H490.054V295H491.248V287.053Z" fill="currentColor"/>
<path d="M494.375 289.199C494.375 290.327 495.085 291.052 496.521 291.382L497.7 291.653C498.711 291.88 499.099 292.217 499.099 292.847C499.099 293.608 498.411 294.099 497.327 294.099C496.301 294.099 495.598 293.674 495.415 292.942H494.148C494.287 294.304 495.481 295.146 497.283 295.146C499.165 295.146 500.388 294.194 500.388 292.729C500.388 291.58 499.685 290.906 498.14 290.554L497.019 290.298C496.023 290.078 495.613 289.734 495.613 289.126C495.613 288.401 496.265 287.932 497.275 287.932C498.206 287.932 498.872 288.357 499.019 289.053H500.22C500.073 287.727 498.953 286.899 497.297 286.899C495.547 286.899 494.375 287.822 494.375 289.199Z" fill="currentColor"/>
<path d="M505.186 284.922V287.075H503.069V288.137H505.186V292.634C505.186 294.29 506.101 295.037 508.071 295.037C508.452 295.037 509.419 295 509.617 294.963V293.909C509.404 293.931 508.606 293.953 508.159 293.953C507.039 293.953 506.431 293.484 506.431 292.62V288.137H509.639V287.075H506.416V284.922H505.186Z" fill="currentColor"/>
<path d="M515.813 295.146C517.915 295.146 519.255 293.777 519.255 291.631V290.43C519.255 288.284 517.915 286.914 515.813 286.914C513.711 286.914 512.371 288.284 512.371 290.43V291.631C512.371 293.777 513.711 295.146 515.813 295.146ZM515.813 288.013C517.175 288.013 518.025 288.979 518.025 290.54V291.514C518.025 293.081 517.175 294.041 515.813 294.041C514.451 294.041 513.601 293.081 513.601 291.514V290.54C513.601 288.979 514.451 288.013 515.813 288.013Z" fill="currentColor"/>
<path d="M528.916 289.148C528.916 287.676 528.337 286.907 527.231 286.907C526.433 286.907 525.796 287.39 525.591 288.152H525.459C525.291 287.368 524.763 286.907 524.016 286.907C523.269 286.907 522.698 287.375 522.5 288.174H522.368V287.053H521.255V295H522.375V289.639C522.375 288.65 522.815 288.042 523.518 288.042C524.192 288.042 524.543 288.547 524.543 289.507V295H525.657V289.639C525.657 288.65 526.082 288.042 526.777 288.042C527.444 288.042 527.795 288.547 527.795 289.514V295H528.916V289.148Z" fill="currentColor"/>
<path d="M536.504 292.949C536.284 293.645 535.544 294.07 534.541 294.07C533.186 294.07 532.322 293.132 532.322 291.675V291.353H537.734V290.576C537.734 288.276 536.519 286.907 534.453 286.907C532.432 286.907 531.091 288.284 531.091 290.378V291.572C531.091 293.835 532.358 295.146 534.541 295.146C536.211 295.146 537.471 294.26 537.712 292.949H536.504ZM534.446 287.976C535.728 287.976 536.504 288.892 536.504 290.408H532.322C532.322 288.884 533.12 287.976 534.446 287.976Z" fill="currentColor"/>
<path d="M543.315 291.44C543.315 289.419 544.355 288.203 546.113 288.203C546.545 288.203 547.058 288.291 547.424 288.423V287.024C547.161 286.914 546.729 286.848 546.274 286.848C544.744 286.848 543.755 287.61 543.462 289.082H543.301V287.053H540.334V288.049H542.1V294.004H540.496V295H545.776V294.004H543.315V291.44Z" fill="currentColor"/>
<path d="M550.01 289.199C550.01 290.327 550.72 291.052 552.156 291.382L553.335 291.653C554.346 291.88 554.734 292.217 554.734 292.847C554.734 293.608 554.045 294.099 552.961 294.099C551.936 294.099 551.233 293.674 551.05 292.942H549.783C549.922 294.304 551.116 295.146 552.917 295.146C554.8 295.146 556.023 294.194 556.023 292.729C556.023 291.58 555.32 290.906 553.774 290.554L552.654 290.298C551.658 290.078 551.248 289.734 551.248 289.126C551.248 288.401 551.899 287.932 552.91 287.932C553.84 287.932 554.507 288.357 554.653 289.053H555.854C555.708 287.727 554.587 286.899 552.932 286.899C551.182 286.899 550.01 287.822 550.01 289.199Z" fill="currentColor"/>
</g>
<path d="M142.496 163.326H140.106C140.038 162.934 139.912 162.587 139.729 162.284C139.545 161.977 139.317 161.717 139.045 161.504C138.772 161.291 138.461 161.131 138.111 161.025C137.766 160.914 137.393 160.859 136.993 160.859C136.281 160.859 135.651 161.038 135.101 161.396C134.551 161.749 134.121 162.269 133.81 162.955C133.499 163.637 133.343 164.47 133.343 165.455C133.343 166.456 133.499 167.3 133.81 167.986C134.125 168.668 134.555 169.183 135.101 169.533C135.651 169.878 136.279 170.05 136.987 170.05C137.379 170.05 137.745 169.999 138.086 169.897C138.431 169.79 138.74 169.635 139.013 169.43C139.29 169.226 139.522 168.974 139.71 168.676C139.901 168.378 140.033 168.037 140.106 167.653L142.496 167.666C142.407 168.288 142.213 168.872 141.915 169.418C141.621 169.963 141.235 170.445 140.758 170.862C140.281 171.276 139.722 171.599 139.083 171.834C138.444 172.064 137.734 172.179 136.955 172.179C135.804 172.179 134.777 171.913 133.874 171.38C132.97 170.847 132.259 170.078 131.739 169.072C131.219 168.067 130.959 166.861 130.959 165.455C130.959 164.044 131.221 162.838 131.745 161.837C132.269 160.831 132.983 160.062 133.886 159.529C134.79 158.996 135.812 158.73 136.955 158.73C137.683 158.73 138.361 158.832 138.987 159.037C139.614 159.241 140.172 159.542 140.662 159.938C141.152 160.33 141.555 160.812 141.87 161.383C142.19 161.95 142.398 162.597 142.496 163.326Z" fill="currentColor"/>
<path d="M148.849 172.192C147.89 172.192 147.059 171.981 146.356 171.559C145.653 171.137 145.107 170.547 144.719 169.788C144.336 169.03 144.144 168.143 144.144 167.129C144.144 166.115 144.336 165.227 144.719 164.464C145.107 163.701 145.653 163.109 146.356 162.687C147.059 162.265 147.89 162.054 148.849 162.054C149.807 162.054 150.638 162.265 151.341 162.687C152.045 163.109 152.588 163.701 152.971 164.464C153.359 165.227 153.553 166.115 153.553 167.129C153.553 168.143 153.359 169.03 152.971 169.788C152.588 170.547 152.045 171.137 151.341 171.559C150.638 171.981 149.807 172.192 148.849 172.192ZM148.861 170.338C149.381 170.338 149.816 170.195 150.165 169.91C150.515 169.62 150.775 169.232 150.945 168.746C151.12 168.261 151.207 167.719 151.207 167.123C151.207 166.522 151.12 165.979 150.945 165.493C150.775 165.003 150.515 164.613 150.165 164.323C149.816 164.033 149.381 163.888 148.861 163.888C148.329 163.888 147.885 164.033 147.532 164.323C147.182 164.613 146.92 165.003 146.746 165.493C146.575 165.979 146.49 166.522 146.49 167.123C146.49 167.719 146.575 168.261 146.746 168.746C146.92 169.232 147.182 169.62 147.532 169.91C147.885 170.195 148.329 170.338 148.861 170.338Z" fill="currentColor"/>
<path d="M157.831 166.247V172H155.517V162.182H157.729V163.85H157.844C158.07 163.3 158.43 162.864 158.924 162.54C159.423 162.216 160.038 162.054 160.771 162.054C161.449 162.054 162.039 162.199 162.542 162.489C163.049 162.778 163.441 163.198 163.718 163.748C163.999 164.298 164.138 164.964 164.134 165.749V172H161.82V166.107C161.82 165.45 161.649 164.937 161.308 164.566C160.972 164.195 160.505 164.01 159.908 164.01C159.504 164.01 159.143 164.099 158.828 164.278C158.517 164.453 158.272 164.707 158.093 165.039C157.918 165.371 157.831 165.774 157.831 166.247Z" fill="currentColor"/>
<path d="M171.388 162.182V163.972H165.744V162.182H171.388ZM167.138 159.83H169.452V169.047C169.452 169.358 169.499 169.597 169.592 169.763C169.69 169.925 169.818 170.036 169.976 170.095C170.134 170.155 170.308 170.185 170.5 170.185C170.645 170.185 170.777 170.174 170.896 170.153C171.02 170.131 171.114 170.112 171.178 170.095L171.567 171.904C171.444 171.947 171.267 171.994 171.037 172.045C170.811 172.096 170.534 172.126 170.206 172.134C169.626 172.151 169.104 172.064 168.64 171.872C168.175 171.676 167.807 171.374 167.534 170.964C167.266 170.555 167.134 170.044 167.138 169.43V159.83Z" fill="currentColor"/>
<path d="M177.565 172.192C176.58 172.192 175.73 171.987 175.014 171.578C174.303 171.165 173.755 170.581 173.372 169.827C172.988 169.068 172.796 168.175 172.796 167.148C172.796 166.138 172.988 165.252 173.372 164.489C173.759 163.722 174.301 163.126 174.995 162.7C175.69 162.269 176.506 162.054 177.443 162.054C178.048 162.054 178.619 162.152 179.156 162.348C179.698 162.54 180.175 162.838 180.588 163.243C181.006 163.648 181.334 164.163 181.573 164.79C181.811 165.412 181.931 166.153 181.931 167.014V167.724H173.883V166.164H179.713C179.708 165.721 179.612 165.327 179.425 164.982C179.237 164.632 178.975 164.357 178.639 164.157C178.306 163.957 177.918 163.857 177.475 163.857C177.002 163.857 176.587 163.972 176.229 164.202C175.871 164.428 175.592 164.726 175.392 165.097C175.195 165.463 175.095 165.866 175.091 166.305V167.666C175.091 168.237 175.195 168.727 175.404 169.136C175.613 169.541 175.905 169.852 176.28 170.07C176.655 170.283 177.094 170.389 177.597 170.389C177.933 170.389 178.238 170.342 178.511 170.249C178.784 170.151 179.02 170.008 179.22 169.82C179.421 169.633 179.572 169.401 179.674 169.124L181.835 169.366C181.698 169.938 181.438 170.436 181.055 170.862C180.676 171.284 180.19 171.612 179.597 171.847C179.005 172.077 178.328 172.192 177.565 172.192Z" fill="currentColor"/>
<path d="M186.202 166.247V172H183.888V162.182H186.1V163.85H186.215C186.441 163.3 186.801 162.864 187.295 162.54C187.794 162.216 188.409 162.054 189.142 162.054C189.82 162.054 190.41 162.199 190.913 162.489C191.42 162.778 191.812 163.198 192.089 163.748C192.37 164.298 192.509 164.964 192.505 165.749V172H190.191V166.107C190.191 165.45 190.02 164.937 189.679 164.566C189.343 164.195 188.876 164.01 188.279 164.01C187.875 164.01 187.515 164.099 187.199 164.278C186.888 164.453 186.643 164.707 186.464 165.039C186.289 165.371 186.202 165.774 186.202 166.247Z" fill="currentColor"/>
<path d="M199.76 162.182V163.972H194.115V162.182H199.76ZM195.509 159.83H197.823V169.047C197.823 169.358 197.87 169.597 197.963 169.763C198.061 169.925 198.189 170.036 198.347 170.095C198.505 170.155 198.679 170.185 198.871 170.185C199.016 170.185 199.148 170.174 199.267 170.153C199.391 170.131 199.485 170.112 199.549 170.095L199.939 171.904C199.815 171.947 199.638 171.994 199.408 172.045C199.182 172.096 198.905 172.126 198.577 172.134C197.998 172.151 197.475 172.064 197.011 171.872C196.547 171.676 196.178 171.374 195.905 170.964C195.637 170.555 195.505 170.044 195.509 169.43V159.83Z" fill="currentColor"/>
<path d="M208.985 172.198C208.363 172.198 207.802 172.087 207.304 171.866C206.809 171.64 206.417 171.308 206.128 170.869C205.842 170.43 205.699 169.888 205.699 169.245C205.699 168.691 205.802 168.233 206.006 167.871C206.211 167.509 206.49 167.219 206.844 167.001C207.197 166.784 207.596 166.62 208.039 166.509C208.486 166.394 208.949 166.311 209.426 166.26C210.001 166.2 210.468 166.147 210.826 166.1C211.184 166.049 211.444 165.972 211.606 165.87C211.772 165.763 211.855 165.599 211.855 165.378V165.339C211.855 164.858 211.712 164.485 211.427 164.221C211.141 163.957 210.73 163.825 210.193 163.825C209.626 163.825 209.177 163.948 208.844 164.195C208.516 164.442 208.295 164.734 208.18 165.071L206.019 164.764C206.189 164.168 206.471 163.669 206.863 163.268C207.255 162.864 207.734 162.561 208.301 162.361C208.868 162.156 209.494 162.054 210.18 162.054C210.653 162.054 211.124 162.109 211.593 162.22C212.062 162.331 212.49 162.514 212.878 162.77C213.265 163.021 213.577 163.364 213.811 163.799C214.05 164.234 214.169 164.777 214.169 165.429V172H211.944V170.651H211.868C211.727 170.924 211.529 171.18 211.273 171.418C211.022 171.653 210.704 171.842 210.321 171.987C209.942 172.128 209.496 172.198 208.985 172.198ZM209.586 170.498C210.05 170.498 210.453 170.406 210.794 170.223C211.135 170.036 211.397 169.788 211.58 169.482C211.768 169.175 211.861 168.84 211.861 168.478V167.321C211.789 167.381 211.665 167.436 211.491 167.487C211.32 167.538 211.128 167.583 210.915 167.621C210.702 167.66 210.491 167.694 210.282 167.724C210.074 167.754 209.893 167.779 209.739 167.8C209.394 167.847 209.085 167.924 208.812 168.031C208.54 168.137 208.324 168.286 208.167 168.478C208.009 168.665 207.93 168.908 207.93 169.207C207.93 169.633 208.086 169.955 208.397 170.172C208.708 170.389 209.104 170.498 209.586 170.498Z" fill="currentColor"/>
<path d="M216.496 172V162.182H218.739V163.818H218.841C219.02 163.251 219.327 162.815 219.762 162.508C220.201 162.197 220.702 162.041 221.264 162.041C221.392 162.041 221.535 162.048 221.692 162.06C221.854 162.069 221.988 162.084 222.095 162.105V164.234C221.997 164.2 221.841 164.17 221.628 164.144C221.42 164.114 221.217 164.099 221.021 164.099C220.599 164.099 220.22 164.191 219.883 164.374C219.551 164.553 219.289 164.803 219.097 165.122C218.905 165.442 218.809 165.81 218.809 166.228V172H216.496Z" fill="currentColor"/>
<path d="M227.575 172.192C226.59 172.192 225.74 171.987 225.024 171.578C224.312 171.165 223.765 170.581 223.381 169.827C222.998 169.068 222.806 168.175 222.806 167.148C222.806 166.138 222.998 165.252 223.381 164.489C223.769 163.722 224.31 163.126 225.005 162.7C225.7 162.269 226.516 162.054 227.453 162.054C228.058 162.054 228.629 162.152 229.166 162.348C229.707 162.54 230.185 162.838 230.598 163.243C231.016 163.648 231.344 164.163 231.582 164.79C231.821 165.412 231.94 166.153 231.94 167.014V167.724H223.893V166.164H229.722C229.718 165.721 229.622 165.327 229.435 164.982C229.247 164.632 228.985 164.357 228.648 164.157C228.316 163.957 227.928 163.857 227.485 163.857C227.012 163.857 226.597 163.972 226.239 164.202C225.881 164.428 225.602 164.726 225.401 165.097C225.205 165.463 225.105 165.866 225.101 166.305V167.666C225.101 168.237 225.205 168.727 225.414 169.136C225.623 169.541 225.915 169.852 226.29 170.07C226.665 170.283 227.104 170.389 227.607 170.389C227.943 170.389 228.248 170.342 228.521 170.249C228.793 170.151 229.03 170.008 229.23 169.82C229.43 169.633 229.582 169.401 229.684 169.124L231.844 169.366C231.708 169.938 231.448 170.436 231.065 170.862C230.685 171.284 230.2 171.612 229.607 171.847C229.015 172.077 228.337 172.192 227.575 172.192Z" fill="currentColor"/>
<path d="M236.723 172.198C236.101 172.198 235.541 172.087 235.042 171.866C234.548 171.64 234.156 171.308 233.866 170.869C233.58 170.43 233.438 169.888 233.438 169.245C233.438 168.691 233.54 168.233 233.744 167.871C233.949 167.509 234.228 167.219 234.582 167.001C234.936 166.784 235.334 166.62 235.777 166.509C236.225 166.394 236.687 166.311 237.164 166.26C237.74 166.2 238.206 166.147 238.564 166.1C238.922 166.049 239.182 165.972 239.344 165.87C239.51 165.763 239.593 165.599 239.593 165.378V165.339C239.593 164.858 239.45 164.485 239.165 164.221C238.879 163.957 238.468 163.825 237.931 163.825C237.365 163.825 236.915 163.948 236.583 164.195C236.254 164.442 236.033 164.734 235.918 165.071L233.757 164.764C233.928 164.168 234.209 163.669 234.601 163.268C234.993 162.864 235.472 162.561 236.039 162.361C236.606 162.156 237.232 162.054 237.918 162.054C238.392 162.054 238.862 162.109 239.331 162.22C239.8 162.331 240.228 162.514 240.616 162.77C241.004 163.021 241.315 163.364 241.549 163.799C241.788 164.234 241.907 164.777 241.907 165.429V172H239.683V170.651H239.606C239.465 170.924 239.267 171.18 239.012 171.418C238.76 171.653 238.443 171.842 238.059 171.987C237.68 172.128 237.235 172.198 236.723 172.198ZM237.324 170.498C237.789 170.498 238.191 170.406 238.532 170.223C238.873 170.036 239.135 169.788 239.318 169.482C239.506 169.175 239.6 168.84 239.6 168.478V167.321C239.527 167.381 239.404 167.436 239.229 167.487C239.058 167.538 238.867 167.583 238.654 167.621C238.441 167.66 238.23 167.694 238.021 167.724C237.812 167.754 237.631 167.779 237.477 167.8C237.132 167.847 236.823 167.924 236.551 168.031C236.278 168.137 236.063 168.286 235.905 168.478C235.747 168.665 235.668 168.908 235.668 169.207C235.668 169.633 235.824 169.955 236.135 170.172C236.446 170.389 236.843 170.498 237.324 170.498Z" fill="currentColor"/>
<path opacity="0.7" fill-rule="evenodd" clip-rule="evenodd" d="M310.343 108.929L316.707 115.293C317.098 115.683 317.098 116.317 316.707 116.707L310.343 123.071C309.953 123.462 309.319 123.462 308.929 123.071C308.538 122.681 308.538 122.047 308.929 121.657L313.658 116.927C313.292 116.779 313.033 116.42 313.033 116C313.033 115.58 313.292 115.221 313.658 115.073L308.929 110.343C308.538 109.953 308.538 109.319 308.929 108.929C309.319 108.538 309.953 108.538 310.343 108.929ZM76 116C76 115.448 76.4477 115 77 115H78.9671C79.5194 115 79.9671 115.448 79.9671 116C79.9671 116.552 79.5194 117 78.9671 117H77C76.4477 117 76 116.552 76 116ZM82.8848 116C82.8848 115.448 83.3325 115 83.8848 115H87.8189C88.3712 115 88.8189 115.448 88.8189 116C88.8189 116.552 88.3712 117 87.8189 117H83.8848C83.3325 117 82.8848 116.552 82.8848 116ZM91.7366 116C91.7366 115.448 92.1843 115 92.7366 115H96.6708C97.2231 115 97.6708 115.448 97.6708 116C97.6708 116.552 97.2231 117 96.6708 117H92.7366C92.1843 117 91.7366 116.552 91.7366 116ZM100.588 116C100.588 115.448 101.036 115 101.588 115H105.523C106.075 115 106.523 115.448 106.523 116C106.523 116.552 106.075 117 105.523 117H101.588C101.036 117 100.588 116.552 100.588 116ZM109.44 116C109.44 115.448 109.888 115 110.44 115H114.374C114.927 115 115.374 115.448 115.374 116C115.374 116.552 114.927 117 114.374 117H110.44C109.888 117 109.44 116.552 109.44 116ZM118.292 116C118.292 115.448 118.74 115 119.292 115H123.226C123.779 115 124.226 115.448 124.226 116C124.226 116.552 123.779 117 123.226 117H119.292C118.74 117 118.292 116.552 118.292 116ZM127.144 116C127.144 115.448 127.592 115 128.144 115H132.078C132.63 115 133.078 115.448 133.078 116C133.078 116.552 132.63 117 132.078 117H128.144C127.592 117 127.144 116.552 127.144 116ZM135.996 116C135.996 115.448 136.444 115 136.996 115H140.93C141.482 115 141.93 115.448 141.93 116C141.93 116.552 141.482 117 140.93 117H136.996C136.444 117 135.996 116.552 135.996 116ZM144.848 116C144.848 115.448 145.295 115 145.848 115H149.782C150.334 115 150.782 115.448 150.782 116C150.782 116.552 150.334 117 149.782 117H145.848C145.295 117 144.848 116.552 144.848 116ZM153.7 116C153.7 115.448 154.147 115 154.7 115H158.634C159.186 115 159.634 115.448 159.634 116C159.634 116.552 159.186 117 158.634 117H154.7C154.147 117 153.7 116.552 153.7 116ZM162.551 116C162.551 115.448 162.999 115 163.551 115H167.486C168.038 115 168.486 115.448 168.486 116C168.486 116.552 168.038 117 167.486 117H163.551C162.999 117 162.551 116.552 162.551 116ZM171.403 116C171.403 115.448 171.851 115 172.403 115H176.337C176.89 115 177.337 115.448 177.337 116C177.337 116.552 176.89 117 176.337 117H172.403C171.851 117 171.403 116.552 171.403 116ZM180.255 116C180.255 115.448 180.703 115 181.255 115H185.189C185.742 115 186.189 115.448 186.189 116C186.189 116.552 185.742 117 185.189 117H181.255C180.703 117 180.255 116.552 180.255 116ZM189.107 116C189.107 115.448 189.555 115 190.107 115H194.041C194.593 115 195.041 115.448 195.041 116C195.041 116.552 194.593 117 194.041 117H190.107C189.555 117 189.107 116.552 189.107 116ZM197.959 116C197.959 115.448 198.407 115 198.959 115H202.893C203.445 115 203.893 115.448 203.893 116C203.893 116.552 203.445 117 202.893 117H198.959C198.407 117 197.959 116.552 197.959 116ZM206.811 116C206.811 115.448 207.258 115 207.811 115H211.745C212.297 115 212.745 115.448 212.745 116C212.745 116.552 212.297 117 211.745 117H207.811C207.258 117 206.811 116.552 206.811 116ZM215.663 116C215.663 115.448 216.11 115 216.663 115H220.597C221.149 115 221.597 115.448 221.597 116C221.597 116.552 221.149 117 220.597 117H216.663C216.11 117 215.663 116.552 215.663 116ZM224.514 116C224.514 115.448 224.962 115 225.514 115H229.449C230.001 115 230.449 115.448 230.449 116C230.449 116.552 230.001 117 229.449 117H225.514C224.962 117 224.514 116.552 224.514 116ZM233.366 116C233.366 115.448 233.814 115 234.366 115H238.3C238.853 115 239.3 115.448 239.3 116C239.3 116.552 238.853 117 238.3 117H234.366C233.814 117 233.366 116.552 233.366 116ZM242.218 116C242.218 115.448 242.666 115 243.218 115H247.152C247.705 115 248.152 115.448 248.152 116C248.152 116.552 247.705 117 247.152 117H243.218C242.666 117 242.218 116.552 242.218 116ZM251.07 116C251.07 115.448 251.518 115 252.07 115H256.004C256.556 115 257.004 115.448 257.004 116C257.004 116.552 256.556 117 256.004 117H252.07C251.518 117 251.07 116.552 251.07 116ZM259.922 116C259.922 115.448 260.37 115 260.922 115H264.856C265.408 115 265.856 115.448 265.856 116C265.856 116.552 265.408 117 264.856 117H260.922C260.37 117 259.922 116.552 259.922 116ZM268.774 116C268.774 115.448 269.221 115 269.774 115H273.708C274.26 115 274.708 115.448 274.708 116C274.708 116.552 274.26 117 273.708 117H269.774C269.221 117 268.774 116.552 268.774 116ZM277.626 116C277.626 115.448 278.073 115 278.626 115H282.56C283.112 115 283.56 115.448 283.56 116C283.56 116.552 283.112 117 282.56 117H278.626C278.073 117 277.626 116.552 277.626 116ZM286.477 116C286.477 115.448 286.925 115 287.477 115H291.412C291.964 115 292.412 115.448 292.412 116C292.412 116.552 291.964 117 291.412 117H287.477C286.925 117 286.477 116.552 286.477 116ZM295.329 116C295.329 115.448 295.777 115 296.329 115H300.263C300.816 115 301.263 115.448 301.263 116C301.263 116.552 300.816 117 300.263 117H296.329C295.777 117 295.329 116.552 295.329 116ZM304.181 116C304.181 115.448 304.629 115 305.181 115H309.115C309.668 115 310.115 115.448 310.115 116C310.115 116.552 309.668 117 309.115 117H305.181C304.629 117 304.181 116.552 304.181 116Z" fill="currentColor"/>
</svg>
