<svg fill="none" height="32" viewBox="0 0 32 32" width="32" xmlns="http://www.w3.org/2000/svg"><path d="m12 28v-24" stroke="currentColor" stroke-miterlimit="10"/><path d="m14 27.9999c0-.3955-.1173-.7821-.3371-1.111-.2197-.3289-.5321-.5852-.8975-.7366-.3655-.1513-.7676-.1911-1.1556-.1139-.3879.0772-.7443.2677-1.024.5474s-.4702.6361-.5474 1.0241c-.07714.3879-.0375.7901.1138 1.1556.1514.3654.4078.6776.7367.8974.3288.2197.7155.3371 1.1111.3371.5304 0 1.0391-.2107 1.4142-.5857.3751-.3751.5858-.8839.5858-1.4144z" fill="#00b4f0" stroke="#00b4f0"/><path d="m14 4.00002c0-.39558-.1173-.78239-.3371-1.11129-.2197-.32891-.5321-.58518-.8975-.73656-.3655-.15138-.7676-.19092-1.1556-.11375-.3879.07717-.7443.26751-1.024.54723-.2797.27971-.4702.63613-.5474 1.02411-.07714.38797-.0375.79016.1138 1.15563.1514.36546.4078.67787.7367.89764.3288.21977.7155.33694 1.1111.33694.2626 0 .5227-.05159.7654-.1521.2426-.10051.4631-.24795.6488-.43367s.3331-.40615.4336-.64881.1522-.50272.1522-.76537z" fill="#ff3a4b" stroke="#ff3a4b"/><path d="m4 28v-13" stroke="currentColor" stroke-miterlimit="10"/><path d="m6 27.9999c0-.3955-.11729-.7821-.33705-1.111s-.53214-.5852-.89759-.7366c-.36545-.1513-.76756-.1911-1.15552-.1139-.38797.0772-.74433.2677-1.02404.5474-.2797.2797-.4702.6361-.54737 1.0241-.07717.3879-.03756.7901.11381 1.1556.15138.3654.40774.6776.73663.8974.3289.2197.71558.3371 1.11115.3371.26264 0 .52269-.0518.76534-.1523s.46313-.2477.64884-.4334c.18572-.1858.33305-.4062.43356-.6488.10051-.2427.15224-.5029.15224-.7656z" fill="#00b4f0" stroke="#00b4f0"/><path d="m6 15c0-.3956-.11729-.7822-.33705-1.1111s-.53214-.5853-.89759-.7367-.76756-.1909-1.15552-.1138c-.38797.0772-.74433.2677-1.02404.5474-.2797.2797-.4702.6361-.54737 1.0241s-.03756.7899.11381 1.1554c.15138.3654.40774.6778.73663.8976.3289.2197.71558.3371 1.11115.3371.26264 0 .52269-.0518.76534-.1523s.46313-.2477.64884-.4334c.18572-.1858.33305-.4064.43356-.649.10051-.2427.15224-.5027.15224-.7653z" fill="#ff3a4b" stroke="#ff3a4b"/><path d="m20 28v-15" stroke="currentColor" stroke-miterlimit="10"/><path d="m22 27.9999c0-.3955-.1173-.7821-.3371-1.111-.2197-.3289-.5321-.5852-.8975-.7366-.3655-.1513-.7676-.1911-1.1556-.1139-.3879.0772-.7443.2677-1.024.5474s-.4702.6361-.5474 1.0241c-.0771.3879-.0375.7901.1138 1.1556.1514.3654.4078.6776.7367.8974.3288.2197.7155.3371 1.1111.3371.5304 0 1.0391-.2107 1.4142-.5857.3751-.3751.5858-.8839.5858-1.4144z" fill="#00b4f0" stroke="#00b4f0"/><path d="m22 13.0001c0-.3955-.1173-.7823-.3371-1.1112-.2197-.3289-.5321-.5852-.8975-.7366-.3655-.1513-.7676-.1911-1.1556-.1139-.3879.0772-.7443.2677-1.024.5474s-.4702.6361-.5474 1.0241c-.0771.3879-.0375.7901.1138 1.1556.1514.3654.4078.6776.7367.8974.3288.2197.7155.3371 1.1111.3371.5304 0 1.0391-.2107 1.4142-.5857.3751-.3751.5858-.8838.5858-1.4142z" fill="#ff3a4b" stroke="#ff3a4b"/><path d="m28 28v-9" stroke="currentColor" stroke-miterlimit="10"/><path d="m30 27.9999c0-.3955-.1173-.7821-.3371-1.111-.2197-.3289-.5321-.5852-.8975-.7366-.3655-.1513-.7676-.1911-1.1556-.1139-.3879.0772-.7443.2677-1.024.5474s-.4702.6361-.5474 1.0241c-.0771.3879-.0375.7901.1138 1.1556.1514.3654.4078.6776.7367.8974.3289.2197.7155.3371 1.1111.3371.5304 0 1.0392-.2107 1.4142-.5857.3751-.3751.5858-.8839.5858-1.4144z" fill="#00b4f0" stroke="#00b4f0"/><path d="m30 18.9999c0-.3955-.1173-.7821-.3371-1.111-.2197-.3289-.5321-.5852-.8975-.7366-.3655-.1513-.7676-.1911-1.1556-.1139-.3879.0772-.7443.2677-1.024.5474s-.4702.6361-.5474 1.0241c-.0771.3879-.0375.7899.1138 1.1554.1514.3654.4078.6778.7367.8976.3289.2197.7155.3371 1.1111.3371.5304 0 1.0392-.2107 1.4142-.5857.3751-.3751.5858-.8839.5858-1.4144z" fill="#ff3a4b" stroke="#ff3a4b"/></svg>
