<svg fill="none" height="64" viewBox="0 0 64 64" width="64" xmlns="http://www.w3.org/2000/svg"><path d="m39 16h-25c-1.3261 0-2.5978.5268-3.5355 1.4645s-1.4645 2.2094-1.4645 3.5355.5268 2.5978 1.4645 3.5355 2.2094 1.4645 3.5355 1.4645h25v25c0 1.3261.5268 2.5978 1.4645 3.5355s2.2094 1.4645 3.5355 1.4645 2.5979-.5268 3.5356-1.4645 1.4644-2.2094 1.4644-3.5355v-29c0-1.5913-.6321-3.1174-1.7573-4.2426-1.1252-1.1253-2.6514-1.7574-4.2427-1.7574z" fill="#ff707a"/><path d="m26 49h25c1.3261 0 2.5978-.5268 3.5355-1.4645s1.4645-2.2094 1.4645-3.5355-.5268-2.5978-1.4645-3.5355-2.2094-1.4645-3.5355-1.4645h-25v-25c0-1.3261-.5268-2.5978-1.4645-3.5355-.9377-.93771-2.2094-1.4645-3.5355-1.4645s-2.5979.52679-3.5356 1.4645c-.9377.9377-1.4644 2.2094-1.4644 3.5355v29c0 1.5913.6321 3.1174 1.7573 4.2426 1.1252 1.1253 2.6514 1.7574 4.2427 1.7574z" fill="#00b4f0"/><g fill="#5748ff"><path d="m16 16h9.99636v9.99636h-9.99636z"/><path d="m39 39h9.99636v9.99636h-9.99636z"/></g></svg>