<svg width="32" height="32" viewBox="0 0 32 32" fill="none" xmlns="http://www.w3.org/2000/svg">
<path d="M16 4L15.625 4.15625L9.625 6.5625L9 6.8125V13.5312L3.59375 15.875L3 16.1562V24.2188L3.5 24.5312L9.5 27.875L9.96875 28.125L10.4375 27.9062L16 25.125L21.5625 27.9062L22.0312 28.125L22.5 27.875L28.5 24.5312L29 24.2188V16.1562L28.4062 15.875L23 13.5312V6.8125L22.375 6.5625L16.375 4.15625L16 4ZM16 6.1875L19.2812 7.46875L16 8.75L12.7188 7.46875L16 6.1875ZM11 8.9375L15 10.4688V15.3438L11 13.5625V8.9375ZM21 8.9375V13.5625L17 15.3438V10.4688L21 8.9375ZM10 15.3125L13.625 16.9062L10 18.6875L6.375 16.875L10 15.3125ZM22 15.3125L25.625 16.875L22 18.6875L18.375 16.9062L19.5 16.4062L22 15.3125ZM5 18.4062L9 20.4062V25.3125L5 23.0625V18.4062ZM27 18.4062V23.0625L23 25.3125V20.4062L27 18.4062ZM15 18.4688V23.375L11 25.375V20.4062L15 18.4688ZM17 18.4688L21 20.4062V25.375L17 23.375V18.4688Z" fill="#00B4F0"/>
</svg>
