<svg fill="none" height="64" viewBox="0 0 64 64" width="64" xmlns="http://www.w3.org/2000/svg"><path d="m57.4566 33.5281c-10.1645 7.7459-27.2789 1.9595-33.3715-6.0313-9.2001-12.0474-26.66658 2.2962-15.4458 14.3895 14.512 15.1397 40.3519 9.9808 48.8173-8.3582z" fill="#00b4f0"/><path d="m8.62777 41.9016c14.52733 15.1244 40.38253 9.9655 48.83263-8.3582 8.3428-18.538-19.6862-28.18203-25.0899-9.2919-.7654 2.8013-2.0053 5.3425-3.6127 7.5928-4.4699 6.2303-11.8178 10.0573-20.13003 10.0573z" fill="#ff707a"/><path d="m57.4604 33.5281c-8.1745 6.2457-20.8802 3.7046-28.7026-1.6991-4.4699 6.2456-11.8178 10.0726-20.13003 10.0573 5.89363 6.1385 13.67003 8.9399 21.38533 8.8634 11.2667-.0919 22.4262-6.3222 27.4473-17.2216z" fill="#5748ff"/></svg>