<svg fill="none" height="64" viewBox="0 0 64 64" width="64" xmlns="http://www.w3.org/2000/svg"><path d="m36.4376 27.3134-17.7564-9.6659c-.779-.4245-1.6627-.6478-2.5623-.6475-.8995.0003-1.7831.2243-2.5618.6493-.7786.425-1.425 1.0361-1.8739 1.7718s-.6845 1.57-.6832 2.419v19.3319c.0009.8479.2382 1.6807.688 2.4147.4499.734 1.0964 1.3434 1.8747 1.767s1.661.6465 2.5594.6463c.8985-.0002 1.781-.2235 2.5591-.6475l17.7564-9.6659c.779-.4241 1.426-1.0342 1.8758-1.7692.4498-.7349.6866-1.5687.6866-2.4174s-.2368-1.6825-.6866-2.4174c-.4498-.735-1.0968-1.3451-1.8758-1.7692z" fill="#00b4f0"/><path d="m54.4982 27.5494-24.9986-14.8611c-.7606-.4512-1.6235-.6886-2.5017-.6883-.8783.0003-1.741.2384-2.5012.6902-.7603.4519-1.3913 1.1015-1.8296 1.8836s-.6684 1.6691-.6671 2.5716v29.7221c.0009.9014.2326 1.7867.6718 2.567.4391.7803 1.0704 1.4282 1.8303 1.8785s1.6217.6872 2.4989.687 1.7389-.2376 2.4986-.6883l24.9986-14.8611c.7606-.4508 1.3922-1.0994 1.8314-1.8807s.6704-1.6676.6704-2.5699-.2312-1.7886-.6704-2.5699-1.0708-1.4299-1.8314-1.8807z" fill="#ff707a"/><path d="m36.5075 27.2224-14.3954-8.2224c-.0694.3701-.1068.7454-.1121 1.1218v22.7564c.0058.3764.0433.7516.1121 1.1218l14.3954-8.2347c.7578-.4326 1.3871-1.0552 1.8246-1.805s.6679-1.6005.6679-2.4665c0-.8659-.2304-1.7166-.6679-2.4664s-1.0668-1.3724-1.8246-1.805z" fill="#5748ff"/></svg>