<svg width="32" height="32" viewBox="0 0 32 32" fill="none" xmlns="http://www.w3.org/2000/svg">
<path d="M11 3V7H13V3H11ZM15 4V7H17V4H15ZM4.875 8L5 9.09375L6.8125 26.3125C6.97266 27.832 8.28516 29 9.8125 29H19.1875C20.7148 29 22.0273 27.832 22.1875 26.3125L22.6562 22H25C26.6445 22 28 20.6445 28 19V16C28 14.3555 26.6445 13 25 13H23.5938L24 9.09375L24.125 8H4.875ZM7.125 10H21.875L20.1875 26.0938C20.1328 26.6133 19.707 27 19.1875 27H9.8125C9.29297 27 8.86719 26.6133 8.8125 26.0938L7.125 10ZM23.375 15H25C25.5664 15 26 15.4336 26 16V19C26 19.5664 25.5664 20 25 20H22.8438L23.375 15Z" fill="#00B4F0"/>
</svg>
