<svg fill="none" height="64" viewBox="0 0 64 64" width="64" xmlns="http://www.w3.org/2000/svg"><path d="m52.6125 27.9099c2.929-2.9289 2.929-7.6777 0-10.6066-2.9289-2.9289-7.6776-2.9289-10.6066 0l-19.0918 19.0919c-2.929 2.9289-2.929 7.6777 0 10.6066 2.9289 2.9289 7.6776 2.9289 10.6066 0z" fill="#00b4f0"/><path d="m22.9099 25.7874c-2.9289-2.929-7.6777-2.929-10.6066 0-2.92893 2.9289-2.92893 7.6776 0 10.6066l10.6066 10.6066c2.9289 2.9289 7.6777 2.9289 10.6066 0 2.9289-2.929 2.9289-7.6777 0-10.6066z" fill="#ff707a"/><path d="m17.6057 41.701 10.6066-10.6066 10.6066 10.6066-5.3033 5.3034c-1.4065 1.4065-3.3142 2.1967-5.3033 2.1967s-3.8968-.7902-5.3033-2.1967z" fill="#5748ff"/></svg>