<svg width="105" height="105" viewBox="0 0 105 105" fill="none" xmlns="http://www.w3.org/2000/svg">
<g clip-path="url(#clip0_502_850)">
<path d="M52.5002 5.16854e-05C64.651 -0.00342156 76.4271 4.20659 85.8216 11.9126C95.2163 19.6188 101.648 30.344 104.021 42.2609C106.394 54.1777 104.561 66.5487 98.8354 77.2657C93.1093 87.9827 83.8442 96.3826 72.6189 101.034C61.3936 105.685 48.9028 106.3 37.2748 102.774C25.6469 99.2481 15.6014 91.799 8.85033 81.6963C2.09919 71.5935 -0.939896 59.4625 0.250955 47.3702C1.44181 35.2778 6.78891 23.9726 15.381 15.3809C20.2489 10.4969 26.0344 6.62361 32.4048 3.98395C38.7751 1.34429 45.6046 -0.00964194 52.5002 5.16854e-05ZM52.167 63.3863L44.5193 84.5179C44.3313 85.0474 44.0394 85.5341 43.6608 85.9493C43.2822 86.3646 42.8246 86.7 42.3146 86.9361C41.5487 87.2953 40.6933 87.4189 39.857 87.2914C39.0206 87.1639 38.2411 86.7909 37.6169 86.2198C36.9927 85.6488 36.5522 84.9053 36.3511 84.0836C36.1498 83.2618 36.1972 82.3988 36.487 81.604L41.8191 66.8385C42.2422 65.7274 42.5765 64.5844 42.8188 63.4204C43.0343 62.2387 43.1883 61.0465 43.2802 59.8487C43.4853 57.6868 43.6306 55.3455 43.7416 53.0982C43.8527 50.8509 43.9297 48.6719 43.9894 46.869C44.0664 44.6216 43.4597 44.4764 41.6567 44.0491L41.2807 43.9637L25.8999 41.0669C25.3467 40.9694 24.8182 40.7637 24.3446 40.4617C23.871 40.1596 23.4616 39.7672 23.1399 39.3067C22.6619 38.6092 22.4016 37.7855 22.392 36.94C22.3825 36.0945 22.624 35.2651 23.086 34.5569C23.5481 33.8488 24.2098 33.2937 24.9876 32.9618C25.7653 32.63 26.624 32.5364 27.4551 32.6929L43.9809 35.7947C44.6389 35.8546 45.2797 35.9314 45.9548 36.0084C47.9884 36.287 50.0375 36.4382 52.09 36.4612C54.6451 36.4113 57.1953 36.2202 59.7292 35.8887C60.4982 35.8033 61.2246 35.7093 61.9509 35.6409L77.5454 32.7185C78.6517 32.4892 79.8038 32.7073 80.7497 33.3253C81.2185 33.6424 81.6196 34.0497 81.9297 34.5231C82.2397 34.9967 82.4527 35.5271 82.556 36.0836C82.6594 36.6401 82.6512 37.2117 82.5318 37.7649C82.4124 38.3183 82.1842 38.8423 81.8605 39.3067C81.5432 39.77 81.1376 40.1663 80.6669 40.4727C80.1962 40.7792 79.6697 40.9898 79.1177 41.0926L64.2152 43.8953C63.7197 44.0064 63.2753 44.0833 62.8823 44.1431C61.3271 44.408 60.5581 44.5447 60.6521 46.7579C60.7205 48.3729 60.9169 50.304 61.1733 52.3206C61.4724 54.6876 61.8654 57.1998 62.2756 59.4983C62.5404 61.0108 62.7883 62.2242 63.1301 63.3863C63.4719 64.5484 63.8051 65.7362 64.3179 67.1631L69.5387 81.604C69.8286 82.3988 69.8759 83.2618 69.6748 84.0836C69.4737 84.9053 69.0331 85.6488 68.409 86.2198C67.7848 86.7909 67.0051 87.1639 66.1688 87.2914C65.3325 87.4189 64.4771 87.2953 63.7111 86.9361C63.2012 86.7 62.7435 86.3646 62.365 85.9493C61.9864 85.5341 61.6946 85.0474 61.5066 84.5179L53.8332 63.429L52.9787 61.8652L52.1242 63.3863H52.167ZM52.5002 17.6539C54.2459 17.6523 55.9381 18.2563 57.2885 19.3626C58.6388 20.4689 59.5637 22.0093 59.9057 23.7212C60.2475 25.4331 59.9853 27.2106 59.1635 28.7507C58.3418 30.291 57.0114 31.4985 55.3991 32.1678C53.7868 32.837 51.9923 32.9264 50.3214 32.4209C48.6506 31.9152 47.2066 30.8459 46.2358 29.395C45.265 27.9442 44.8273 26.2016 44.9973 24.4642C45.1674 22.7269 45.9345 21.1021 47.1682 19.867C47.8671 19.1647 48.698 18.6075 49.6131 18.2277C50.5282 17.8478 51.5094 17.6529 52.5002 17.6539ZM83.561 21.4393C76.3842 14.2384 66.9322 9.74925 56.8163 8.73675C46.7003 7.72423 36.5462 10.2511 28.0845 15.8866C19.6229 21.5222 13.3774 29.9176 10.4125 39.6423C7.44752 49.3669 7.94659 59.8187 11.8247 69.2165C15.7027 78.6144 22.7198 86.3766 31.6799 91.1803C40.6399 95.984 50.9886 97.5318 60.9622 95.56C70.9357 93.5882 79.9167 88.2188 86.3748 80.3669C92.8329 72.5151 96.3683 62.6666 96.3784 52.5C96.3911 46.734 95.2655 41.0221 93.066 35.692C90.8664 30.3619 87.6364 25.5184 83.561 21.4393Z" fill="#149467" fill-opacity="0.73"/>
</g>
<defs>
<clipPath id="clip0_502_850">
<rect width="105" height="105" fill="white"/>
</clipPath>
</defs>
</svg>
