<svg width="240" height="128" viewBox="0 0 240 128" fill="none" xmlns="http://www.w3.org/2000/svg">
<path d="M3.66992 22.3506H124.783V86.33C124.783 87.9868 123.44 89.33 121.783 89.33H6.66993C5.01307 89.33 3.66992 87.9868 3.66992 86.33V22.3506Z" fill="white" fill-opacity="0.25"/>
<path fill-rule="evenodd" clip-rule="evenodd" d="M5 4C2.23858 4 0 6.23858 0 9V88C0 90.7614 2.23858 93 5 93H123.454C126.215 93 128.454 90.7614 128.454 88V9C128.454 6.23858 126.215 4 123.454 4H5ZM124.784 22.1632H3.6701V86.3673C3.6701 88.0242 5.01325 89.3673 6.67011 89.3673H121.784C123.44 89.3673 124.784 88.0242 124.784 86.3673V22.1632Z" fill="white" fill-opacity="0.75"/>
<path fill-rule="evenodd" clip-rule="evenodd" d="M84.4124 72.8144V58.134H44.0412V72.8144H84.4124ZM87.1649 72.8144V58.134H124.784V55.3814H87.1649V39.7835H124.784V37.0309H87.1649V22.3505L84.4124 22.3505V37.0309H44.0412V22.3505L41.2887 22.3505V37.0309H3.6701V39.7835H41.2887V55.3814H3.6701V58.134H41.2887V72.8144H3.6701V75.567H41.2887V89.3299H44.0412V75.567H84.4124V89.3299H87.1649V75.567H124.784V72.8144H87.1649ZM84.4124 39.7835V55.3814H44.0412V39.7835H84.4124Z" fill="white" fill-opacity="0.65"/>
<circle cx="134" cy="86" r="40.5" fill="#CDF1E4" stroke="#38C694" stroke-width="3"/>
<path d="M169.164 85.9999C169.164 92.9546 167.101 99.7532 163.238 105.536C159.374 111.319 153.882 115.826 147.457 118.487C141.031 121.149 133.961 121.845 127.14 120.488C120.319 119.131 114.053 115.782 109.135 110.865C104.217 105.947 100.868 99.6811 99.5116 92.86C98.1548 86.0389 98.8512 78.9686 101.513 72.5432C104.174 66.1178 108.681 60.626 114.464 56.7621C120.247 52.8983 127.045 50.8359 134 50.8359L134 85.9999H169.164Z" fill="#64D6AE"/>
<path d="M103.547 103.582C100.461 98.2362 98.8359 92.1724 98.8359 85.9999C98.8359 79.8273 100.461 73.7635 103.547 68.4179C106.633 63.0723 111.072 58.6333 116.418 55.547C121.763 52.4607 127.827 50.8359 134 50.8359L134 85.9999L103.547 103.582Z" fill="#38C694"/>
<rect x="143" y="5" width="96" height="32" rx="4" fill="white" fill-opacity="0.5" stroke="#CDF1E4" stroke-width="2"/>
<circle cx="200.5" cy="25.5" r="5.5" stroke="white" stroke-width="2" stroke-dasharray="2 3"/>
<path d="M202.374 27.1264L200.667 25.4193V27.8335V46.7918V49.289L202.391 47.4821L206.159 43.5311L209.494 51.5507L209.892 52.5089L210.835 52.0754L212.833 51.1566L213.717 50.7501L213.335 49.8554L209.963 41.9585H214.792H217.206L215.499 40.2514L202.374 27.1264Z" fill="#CDF1E4" stroke="#38C694" stroke-width="2"/>
</svg>
