<svg width="165" height="114" viewBox="0 0 165 114" fill="none" xmlns="http://www.w3.org/2000/svg">
<mask id="path-1-inside-1_574_830" fill="white">
<path d="M0 5C0 2.23858 2.23858 0 5 0H160C162.761 0 165 2.23858 165 5V109C165 111.761 162.761 114 160 114H5C2.23857 114 0 111.761 0 109V5Z"/>
</mask>
<path d="M5 3H160V-3H5V3ZM162 5V109H168V5H162ZM160 111H5V117H160V111ZM3 109V5H-3V109H3ZM5 111C3.89543 111 3 110.105 3 109H-3C-3 113.418 0.581714 117 5 117V111ZM162 109C162 110.105 161.105 111 160 111V117C164.418 117 168 113.418 168 109H162ZM160 3C161.105 3 162 3.89543 162 5H168C168 0.581726 164.418 -3 160 -3V3ZM5 -3C0.581721 -3 -3 0.581724 -3 5H3C3 3.89543 3.89543 3 5 3V-3Z" fill="white" fill-opacity="0.75" mask="url(#path-1-inside-1_574_830)"/>
<rect x="63" y="23" width="75" height="24" rx="3" fill="white" fill-opacity="0.33"/>
<rect x="63" y="52" width="75" height="24" rx="3" fill="white" fill-opacity="0.33"/>
<rect x="63" y="81" width="75" height="24" rx="3" fill="white" fill-opacity="0.33"/>
<path d="M3 5C3 3.89543 3.89543 3 5 3H36V111H5C3.89543 111 3 110.105 3 109V5Z" fill="white" fill-opacity="0.5"/>
<path d="M160 3C161.105 3 162 3.89543 162 5L162 14L39 14L39 2.99999L160 3Z" fill="white" fill-opacity="0.33"/>
<line x1="39" y1="15.5" x2="162" y2="15.5" stroke="white" stroke-opacity="0.75" stroke-width="3"/>
<line x1="37.5" y1="3" x2="37.5" y2="111" stroke="white" stroke-opacity="0.75" stroke-width="3"/>
</svg>
