<svg height="73mm" viewBox="0 0 290.55118 258.66135" width="82mm" xmlns="http://www.w3.org/2000/svg" xmlns:xlink="http://www.w3.org/1999/xlink"><marker id="a" markerHeight="7.8382583" markerWidth="4.6707735" orient="auto" refX="4.3000002" refY="3.9191291"><path d="m.37582499.37582446 3.54330001 3.54330004-3.54330001 3.54331" fill="none" stroke="#33383a" stroke-width="1.062992"/></marker><marker id="b" markerHeight="7.8382583" markerWidth="4.6707735" orient="auto" refX="4.3000002" refY="3.9191291"><path d="m.37582499.37582446 3.54330001 3.54330004-3.54330001 3.54331" fill="none" stroke="#33383a" stroke-width="1.062992"/></marker><marker id="c" markerHeight="7.8382583" markerWidth="4.6707735" orient="auto" refX="4.3000002" refY="3.9191291"><path d="m.37582499.37582446 3.54330001 3.54330004-3.54330001 3.54331" fill="none" stroke="#33383a" stroke-width="1.062992"/></marker><marker id="d" markerHeight="7.8382583" markerWidth="4.6707735" orient="auto" refX="4.3000002" refY="3.9191291"><path d="m.37582499.37582446 3.54330001 3.54330004-3.54330001 3.54331" fill="none" stroke="#33383a" stroke-width="1.062992"/></marker><g transform="translate(0 -793.7008)"><path d="m53.149606 931.88974c24.80315 28.34645 10.084365 50.99502-10.629921 78.67356" fill="none" stroke="#33383a" stroke-width="1.062992"/><g><path d="m105.84969 968.26692c-1.77625 0-3.19375 1.35625-3.19375 3.07125 0 1.7325 1.4 3.10625 3.1675 3.10625.84875 0 1.67125-.37625 2.275-.945l-.42875-.48125c-.48125.455-1.1375.735-1.81125.735-1.3825 0-2.49375-1.07625-2.49375-2.415 0-1.3475 1.11125-2.415 2.49375-2.415.67375 0 1.33875.28875 1.81125.77l.42-.53375c-.58625-.55125-1.4-.8925-2.24-.8925z"/><path d="m110.97404 969.78067c-1.365 0-2.33625.945-2.33625 2.31875 0 1.3825.97125 2.33625 2.33625 2.33625s2.33625-.95375 2.33625-2.33625c0-1.37375-.97125-2.31875-2.33625-2.31875zm0 .62125c.9625 0 1.65375.7 1.65375 1.70625 0 1.015-.69125 1.715-1.65375 1.715s-1.65375-.7-1.65375-1.715c0-1.00625.69125-1.70625 1.65375-1.70625z"/><path d="m120.40818 969.77192c-.88375.009-1.53125.39375-1.82 1.2075-.1925-.76125-.7875-1.2075-1.65375-1.2075-.83125.009-1.4525.35-1.75875 1.0675v-1.04125h-.67375v4.61125h.67375v-2.26625c0-.98875.56875-1.67125 1.51375-1.6975.805 0 1.2775.48125 1.2775 1.30375v2.66h.69125v-2.26625c0-.98875.55125-1.67125 1.505-1.6975.79625 0 1.2775.48125 1.2775 1.30375v2.66h.6825v-2.84375c0-1.11125-.63875-1.79375-1.715-1.79375z"/><path d="m126.1475 969.77192c-.805 0-1.435.37625-1.77625 1.02375v-.9975h-.6825v6.30875h.6825v-2.68625c.34125.63875.97125 1.015 1.79375 1.015 1.30375 0 2.19625-.95375 2.19625-2.31875 0-1.3825-.91-2.345-2.21375-2.345zm-.1225 4.0425c-.97125 0-1.65375-.70875-1.65375-1.715 0-.9975.6825-1.715 1.65375-1.715.9625 0 1.645.72625 1.645 1.715 0 .9975-.6825 1.715-1.645 1.715z"/><path d="m129.89059 968.00442c-.25375 0-.44625.20125-.44625.4725s.1925.4725.44625.4725.44625-.20125.44625-.4725-.1925-.4725-.44625-.4725zm.34125 6.405v-4.61125h-.67375v4.61125z"/><path d="m132.62565 974.40942v-6.4925h-.6825v6.4925z"/><path d="m136.14615 969.78067c-1.33875 0-2.28375.95375-2.28375 2.3275s.93625 2.3275 2.2925 2.3275c.77 0 1.4175-.28 1.855-.77l-.37625-.4025c-.35875.37625-.8575.5775-1.42625.5775-.8925 0-1.54875-.56875-1.67125-1.47h3.7625c.07-1.56625-.665-2.59875-2.1525-2.59zm-1.61 2.03c.105-.875.735-1.44375 1.61-1.44375.90125 0 1.49625.56 1.54 1.44375z"/><path d="m115.79946 983.15942h.665l-.009-3.045c-.009-.98875-.63875-1.5925-1.77625-1.5925-.7875 0-1.28625.2275-1.88125.62125l.28875.49875c.48125-.3325.95375-.525 1.46125-.525.81375 0 1.23375.4025 1.23375 1.07625v.27125h-1.51375c-1.085.009-1.72375.51625-1.72375 1.32125 0 .79625.6125 1.40875 1.56625 1.40875.735 0 1.32125-.245 1.68875-.74375zm-1.5575-.56c-.6475 0-1.05875-.3325-1.05875-.84s.4025-.74375 1.1725-.74375h1.435v.55125c-.175.63875-.77 1.0325-1.54875 1.0325z"/><path d="m120.44722 978.52192c-.84.009-1.46125.34125-1.785 1.04125v-1.015h-.6825v4.61125h.6825v-2.47625c.0787-.875.63875-1.47 1.54875-1.47875.81375 0 1.30375.48125 1.30375 1.295v2.66h.6825v-2.84375c0-1.11125-.6475-1.79375-1.75-1.79375z"/><path d="m127.95691 976.66692h-.6825v2.87875c-.34125-.65625-.98-1.0325-1.8025-1.0325-1.30375 0-2.21375.95375-2.21375 2.33625 0 1.37375.91 2.345 2.2225 2.345.8225 0 1.4525-.37625 1.79375-1.02375v.98875h.6825zm-2.345 5.915c-.98 0-1.67125-.7175-1.67125-1.715 0-1.00625.69125-1.7325 1.67125-1.7325.97125 0 1.6625.72625 1.6625 1.7325 0 .9975-.69125 1.715-1.6625 1.715z"/><path d="m103.23344 985.78442v6.125h.7v-1.93375h1.60125c1.51375 0 2.38875-.77875 2.38875-2.135 0-1.30375-.875-2.05625-2.38875-2.05625zm.7.67375h1.575c1.1025 0 1.74125.4725 1.74125 1.4 0 .95375-.63875 1.44375-1.74125 1.44375h-1.575z"/><path d="m111.86026 991.90942h.665l-.009-3.045c-.009-.98875-.63875-1.5925-1.77625-1.5925-.7875 0-1.28625.2275-1.88125.62125l.28875.49875c.48125-.3325.95375-.525 1.46125-.525.81375 0 1.23375.4025 1.23375 1.07625v.27125h-1.51375c-1.085.009-1.72375.51625-1.72375 1.32125 0 .79625.6125 1.40875 1.56625 1.40875.735 0 1.32125-.245 1.68875-.74375zm-1.5575-.56c-.6475 0-1.05875-.3325-1.05875-.84s.4025-.74375 1.1725-.74375h1.435v.55125c-.175.63875-.77 1.0325-1.54875 1.0325z"/><path d="m115.86051 987.28067c-1.33 0-2.28375.95375-2.28375 2.3275s.945 2.3275 2.28375 2.3275c.79625 0 1.435-.2975 1.84625-.79625l-.39375-.42c-.32375.385-.8225.595-1.42625.595-.95375 0-1.63625-.7-1.63625-1.70625s.6825-1.6975 1.63625-1.6975c.56 0 1.02375.20125 1.37375.53375l.37625-.48125c-.42-.4375-1.0325-.69125-1.77625-.6825z"/><path d="m120.64279 989.58192 1.575 2.3275h.81375l-1.9075-2.82625 1.72375-1.785h-.805l-2.37125 2.3625v-4.24375h-.6825v6.4925h.6825v-1.32125z"/><path d="m126.57461 991.90942h.665l-.009-3.045c-.009-.98875-.63875-1.5925-1.77625-1.5925-.7875 0-1.28625.2275-1.88125.62125l.28875.49875c.48125-.3325.95375-.525 1.46125-.525.81375 0 1.23375.4025 1.23375 1.07625v.27125h-1.51375c-1.085.009-1.72375.51625-1.72375 1.32125 0 .79625.6125 1.40875 1.56625 1.40875.735 0 1.32125-.245 1.68875-.74375zm-1.5575-.56c-.6475 0-1.05875-.3325-1.05875-.84s.4025-.74375 1.1725-.74375h1.435v.55125c-.175.63875-.77 1.0325-1.54875 1.0325z"/><path d="m132.77111 987.29817h-.6825v.93625c-.3325-.6125-.9275-.9625-1.715-.9625-1.23375.009-2.0825.91875-2.0825 2.205 0 1.3125.8575 2.23125 2.1 2.23125.77875 0 1.37375-.35 1.6975-.9625v.7c0 .9625-.65625 1.575-1.6625 1.575-.6125-.009-1.09375-.21-1.54875-.58625l-.315.525c.56.42 1.16375.65625 1.89.665 1.4 0 2.31875-.84875 2.31875-2.19625zm-2.2575 3.8325c-.9275 0-1.575-.6825-1.58375-1.6275.009-.95375.65625-1.63625 1.58375-1.63625.91875 0 1.575.67375 1.575 1.63625 0 .945-.65625 1.6275-1.575 1.6275z"/><path d="m136.14615 987.28067c-1.33875 0-2.28375.95375-2.28375 2.3275s.93625 2.3275 2.2925 2.3275c.77 0 1.4175-.28 1.855-.77l-.37625-.4025c-.35875.37625-.8575.5775-1.42625.5775-.8925 0-1.54875-.56875-1.67125-1.47h3.7625c.07-1.56625-.665-2.59875-2.1525-2.59zm-1.61 2.03c.105-.875.735-1.44375 1.61-1.44375.90125 0 1.49625.56 1.54 1.44375z"/></g><g transform="translate(-3.543307 96.390161)"><path d="m77.952763 793.70068a31.889771 31.889771 0 0 1 -31.889771 31.88977 31.889771 31.889771 0 0 1 -31.88977-31.88977 31.889771 31.889771 0 0 1 31.88977-31.88977 31.889771 31.889771 0 0 1 31.889771 31.88977z" fill="#fff" stroke="#2d3538" stroke-width="1.02935"/><g><path d="m20.017317 788.14801v6.125h2.45c1.8025 0 3.17625-1.32125 3.17625-3.0625s-1.365-3.0625-3.15-3.0625zm.7.67375h1.75875c1.37375 0 2.45875 1.02375 2.45875 2.3975 0 1.365-1.0675 2.38875-2.4325 2.38875h-1.785z"/><path d="m31.077864 788.82176v-.67375h-4.15625v6.125h4.27v-.665h-3.57v-2.1h3.08875v-.67375h-3.08875v-2.0125z"/><path d="m34.948782 794.27301 2.5025-6.125h-.735l-2.1175 5.31125-2.10875-5.31125h-.7525l2.485 6.125z"/><path d="m42.579329 788.82176v-.67375h-4.15625v6.125h4.27v-.665h-3.57v-2.1h3.08875v-.67375h-3.08875v-2.0125z"/><path d="m44.813997 793.60801v-5.46h-.7v6.125h3.38625v-.665z"/><path d="m51.276555 788.13051c-1.79375 0-3.21125 1.3475-3.21125 3.08 0 1.72375 1.4175 3.0975 3.21125 3.0975 1.785 0 3.2025-1.37375 3.2025-3.0975s-1.4175-3.08-3.2025-3.08zm0 .665c1.365 0 2.485 1.0675 2.485 2.415s-1.12 2.42375-2.485 2.42375-2.5025-1.07625-2.5025-2.42375 1.1375-2.415 2.5025-2.415z"/><path d="m55.75218 788.14801v6.125h.7v-1.93375h1.60125c1.51375 0 2.38875-.77875 2.38875-2.135 0-1.30375-.875-2.05625-2.38875-2.05625zm.7.67375h1.575c1.1025 0 1.74125.4725 1.74125 1.4 0 .95375-.63875 1.44375-1.74125 1.44375h-1.575z"/><path d="m65.770247 788.82176v-.67375h-4.15625v6.125h4.27v-.665h-3.57v-2.1h3.08875v-.67375h-3.08875v-2.0125z"/><path d="m71.312415 794.27301h.79625l-1.435-2.0825c.88375-.28875 1.37375-.97125 1.37375-1.98625 0-1.30375-.88375-2.05625-2.415-2.05625h-2.3275v6.125h.7v-1.93375h1.6275c.14 0 .28-.009.41125-.0175zm-3.3075-2.6075v-2.84375h1.6275c1.11125 0 1.74125.4725 1.74125 1.4 0 .95375-.63 1.44375-1.74125 1.44375z"/><path d="m36.471487 797.57176v-.67375h-4.69875v.67375h1.995v5.45125h.7v-5.45125z"/><path d="m39.732366 796.88051c-1.79375 0-3.21125 1.3475-3.21125 3.08 0 1.72375 1.4175 3.0975 3.21125 3.0975 1.785 0 3.2025-1.37375 3.2025-3.0975s-1.4175-3.08-3.2025-3.08zm0 .665c1.365 0 2.485 1.0675 2.485 2.415s-1.12 2.42375-2.485 2.42375-2.5025-1.07625-2.5025-2.42375 1.1375-2.415 2.5025-2.415z"/><path d="m46.687932 796.88051c-1.79375 0-3.21125 1.3475-3.21125 3.08 0 1.72375 1.4175 3.0975 3.21125 3.0975 1.785 0 3.2025-1.37375 3.2025-3.0975s-1.4175-3.08-3.2025-3.08zm0 .665c1.365 0 2.485 1.0675 2.485 2.415s-1.12 2.42375-2.485 2.42375-2.5025-1.07625-2.5025-2.42375 1.1375-2.415 2.5025-2.415z"/><path d="m51.863557 802.35801v-5.46h-.7v6.125h3.38625v-.665z"/><path d="m57.512366 796.87176c-1.26875 0-2.1175.62125-2.1175 1.58375 0 2.19625 3.4475 1.33875 3.43875 2.94875 0 .58625-.55125.945-1.435.945-.69125 0-1.47-.315-2.03875-.86625l-.315.63c.5775.55125 1.4525.93625 2.345.93625 1.3125 0 2.21375-.65625 2.21375-1.68.0087-2.2225-3.43875-1.4-3.43875-2.975 0-.51625.51625-.81375 1.30375-.81375.49 0 1.1375.14875 1.68875.51625l.2975-.65625c-.5075-.34125-1.23375-.56875-1.9425-.56875z"/></g></g><g transform="translate(7.303655 138.66986)"><path d="m63.779524 793.70068a17.716532 17.716532 0 0 1 -17.716532 17.71654 17.716532 17.716532 0 0 1 -17.716532-17.71654 17.716532 17.716532 0 0 1 17.716532-17.71653 17.716532 17.716532 0 0 1 17.716532 17.71653z" fill="#fff" stroke="#2d3538" stroke-width="1.02935"/><g><path d="m39.894105 796.76318v-6.125h-.7v6.125z"/><path d="m41.757582 790.63818v6.125h2.45c1.8025 0 3.17625-1.32125 3.17625-3.0625s-1.365-3.0625-3.15-3.0625zm.7.67375h1.75875c1.37375 0 2.45875 1.02375 2.45875 2.3975 0 1.365-1.0675 2.38875-2.4325 2.38875h-1.785z"/><path d="m52.818129 791.31193v-.67375h-4.15625v6.125h4.27v-.665h-3.57v-2.1h3.08875v-.67375h-3.08875v-2.0125z"/></g></g><path d="m39.750941 938.41882a2.8741407 2.8741407 0 0 1 -2.87414 2.87414 2.8741407 2.8741407 0 0 1 -2.874141-2.87414 2.8741407 2.8741407 0 0 1 2.874141-2.87414 2.8741407 2.8741407 0 0 1 2.87414 2.87414z" fill="#00b6f3"/><g><path d="m5.7703832 938.97638 2.145-5.25h-.63l-1.815 4.5525-1.8075-4.5525h-.645l2.13 5.25z"/><path d="m11.719289 937.64888.585 1.3275h.6525l-2.3475-5.25h-.6224995l-2.355 5.25h.6375l.585-1.3275zm-.255-.5775h-2.3549995l1.1699995-2.6625z"/><path d="m17.109914 937.64888.585 1.3275h.6525l-2.3475-5.25h-.6225l-2.355 5.25h.6375l.585-1.3275zm-.255-.5775h-2.355l1.17-2.6625z"/><path d="m19.178039 933.72638v5.25h2.1c1.545 0 2.7225-1.1325 2.7225-2.625s-1.17-2.625-2.7-2.625zm.6.5775h1.5075c1.1775 0 2.1075.8775 2.1075 2.055 0 1.17-.915 2.0475-2.085 2.0475h-1.53z"/><path d="m25.696008 938.97638v-5.25h-.6v5.25z"/><path d="m31.658274 938.97638v-5.25h-.5925v4.2225l-3.15-4.2225h-.6225v5.25h.6v-4.215l3.15 4.215z"/><path d="m4.2732543 941.22638v5.25h.6v-1.6575h1.3725c1.2975 0 2.0475-.6675 2.0475-1.83 0-1.1175-.75-1.7625-2.0475-1.7625zm.6.5775h1.35c.945 0 1.4925.405 1.4925 1.2 0 .8175-.5475 1.2375-1.4925 1.2375h-1.35z"/><path d="m9.8976684 945.90638v-4.68h-.6v5.25h2.9024996v-.57z"/><path d="m17.469504 941.22638h-.6v3.09c0 1.02-.6 1.6125-1.5975 1.6125s-1.6125-.5925-1.6125-1.6125v-3.09h-.6v3.09c0 1.365.8325 2.19 2.2125 2.19 1.3725 0 2.1975-.825 2.1975-2.19z"/><path d="m22.59634 943.91138v1.5825c-.405.2775-.9075.4425-1.38.4425-1.2 0-2.1675-.9225-2.1675-2.085 0-1.155.96-2.0775 2.16-2.0775.585 0 1.1625.225 1.59.6075l.345-.45c-.5025-.4425-1.2075-.72-1.935-.72-1.545 0-2.7675 1.1625-2.7675 2.64s1.215 2.655 2.7375 2.655c.705 0 1.4325-.2775 1.95-.69v-1.905z"/><path d="m25.190637 946.47638v-5.25h-.6v5.25z"/><path d="m31.152903 946.47638v-5.25h-.5925v4.2225l-3.15-4.2225h-.6225v5.25h.6v-4.215l3.15 4.215z"/></g><g transform="translate(-3.543307 213.31934)"><path d="m77.952763 793.70068a31.889771 31.889771 0 0 1 -31.889771 31.88977 31.889771 31.889771 0 0 1 -31.88977-31.88977 31.889771 31.889771 0 0 1 31.88977-31.88977 31.889771 31.889771 0 0 1 31.889771 31.88977z" fill="#fff" stroke="#2d3538" stroke-width="1.02935"/><g><path d="m21.483899 790.83071.6825 1.54875h.76125l-2.73875-6.125h-.72625l-2.7475 6.125h.74375l.6825-1.54875zm-.2975-.67375h-2.7475l1.365-3.10625z"/><path d="m23.896712 786.25446v6.125h.7v-1.93375h1.60125c1.51375 0 2.38875-.77875 2.38875-2.135 0-1.30375-.875-2.05625-2.38875-2.05625zm.7.67375h1.575c1.1025 0 1.74125.4725 1.74125 1.4 0 .95375-.63875 1.44375-1.74125 1.44375h-1.575z"/><path d="m29.758528 786.25446v6.125h.7v-1.93375h1.60125c1.51375 0 2.38875-.77875 2.38875-2.135 0-1.30375-.875-2.05625-2.38875-2.05625zm.7.67375h1.575c1.1025 0 1.74125.4725 1.74125 1.4 0 .95375-.63875 1.44375-1.74125 1.44375h-1.575z"/><path d="m36.320344 791.71446v-5.46h-.7v6.125h3.38625v-.665z"/><path d="m40.849153 792.37946v-6.125h-.7v6.125z"/><path d="m45.32888 786.23696c-1.77625 0-3.19375 1.35625-3.19375 3.07125 0 1.7325 1.4 3.10625 3.1675 3.10625.84875 0 1.67125-.37625 2.275-.945l-.42875-.48125c-.48125.455-1.1375.735-1.81125.735-1.3825 0-2.49375-1.07625-2.49375-2.415 0-1.3475 1.11125-2.415 2.49375-2.415.67375 0 1.33875.28875 1.81125.77l.42-.53375c-.58625-.55125-1.4-.8925-2.24-.8925z"/><path d="m52.672864 790.83071.6825 1.54875h.76125l-2.73875-6.125h-.72625l-2.7475 6.125h.74375l.6825-1.54875zm-.2975-.67375h-2.7475l1.365-3.10625z"/><path d="m58.389212 786.92821v-.67375h-4.69875v.67375h1.995v5.45125h.7v-5.45125z"/><path d="m60.109407 792.37946v-6.125h-.7v6.125z"/><path d="m64.606633 786.23696c-1.79375 0-3.21125 1.3475-3.21125 3.08 0 1.72375 1.4175 3.0975 3.21125 3.0975 1.785 0 3.2025-1.37375 3.2025-3.0975s-1.4175-3.08-3.2025-3.08zm0 .665c1.365 0 2.485 1.0675 2.485 2.415s-1.12 2.42375-2.485 2.42375-2.5025-1.07625-2.5025-2.42375 1.1375-2.415 2.5025-2.415z"/><path d="m74.174758 792.37946v-6.125h-.69125v4.92625l-3.675-4.92625h-.72625v6.125h.7v-4.9175l3.675 4.9175z"/><path d="m26.861799 795.00446v6.125h.7v-1.93375h1.60125c1.51375 0 2.38875-.77875 2.38875-2.135 0-1.30375-.875-2.05625-2.38875-2.05625zm.7.67375h1.575c1.1025 0 1.74125.4725 1.74125 1.4 0 .95375-.63875 1.44375-1.74125 1.44375h-1.575z"/><path d="m36.731116 801.12946h.79625l-1.435-2.0825c.88375-.28875 1.37375-.97125 1.37375-1.98625 0-1.30375-.88375-2.05625-2.415-2.05625h-2.3275v6.125h.7v-1.93375h1.6275c.14 0 .28-.009.41125-.0175zm-3.3075-2.6075v-2.84375h1.6275c1.11125 0 1.74125.4725 1.74125 1.4 0 .95375-.63 1.44375-1.74125 1.44375z"/><path d="m41.680608 794.98696c-1.79375 0-3.21125 1.3475-3.21125 3.08 0 1.72375 1.4175 3.0975 3.21125 3.0975 1.785 0 3.2025-1.37375 3.2025-3.0975s-1.4175-3.08-3.2025-3.08zm0 .665c1.365 0 2.485 1.0675 2.485 2.415s-1.12 2.42375-2.485 2.42375-2.5025-1.07625-2.5025-2.42375 1.1375-2.415 2.5025-2.415z"/><path d="m48.385706 795.00446h-2.89625v.67375h2.1875v3.59625c0 .76125-.37625 1.16375-1.05 1.16375-.4725 0-.95375-.245-1.33875-.70875l-.35.56c.42875.55125 1.015.875 1.6975.875 1.09375 0 1.75-.6825 1.75-1.8725z"/><path d="m54.243147 795.67821v-.67375h-4.15625v6.125h4.27v-.665h-3.57v-2.1h3.08875v-.67375h-3.08875v-2.0125z"/><path d="m58.394065 794.98696c-1.77625 0-3.19375 1.35625-3.19375 3.07125 0 1.7325 1.4 3.10625 3.1675 3.10625.84875 0 1.67125-.37625 2.275-.945l-.42875-.48125c-.48125.455-1.1375.735-1.81125.735-1.3825 0-2.49375-1.07625-2.49375-2.415 0-1.3475 1.11125-2.415 2.49375-2.415.67375 0 1.33875.28875 1.81125.77l.42-.53375c-.58625-.55125-1.4-.8925-2.24-.8925z"/><path d="m65.763479 795.67821v-.67375h-4.69875v.67375h1.995v5.45125h.7v-5.45125z"/></g></g><path d="m34.500968 976.91595a2.8741407 2.8741407 0 0 1 -2.874141 2.87415 2.8741407 2.8741407 0 0 1 -2.87414-2.87415 2.8741407 2.8741407 0 0 1 2.87414-2.87414 2.8741407 2.8741407 0 0 1 2.874141 2.87414z" fill="#ff3849"/><path d="m24.535983 1031.1023a2.8741407 2.8741407 0 0 1 -2.874141 2.8741 2.8741407 2.8741407 0 0 1 -2.87414-2.8741 2.8741407 2.8741407 0 0 1 2.87414-2.8741 2.8741407 2.8741407 0 0 1 2.874141 2.8741z" fill="#e61e6d"/><path d="m81.496063 907.08659s84.714507 96.13481 124.015747 99.21261" fill="none" marker-end="url(#a)" stroke="#33383a" stroke-width="1.062992"/><g><path d="m7.5823094 963.17281.585 1.3275h.6525l-2.3475-5.25h-.6225l-2.355 5.25h.6375l.585-1.3275zm-.255-.5775h-2.355l1.17-2.6625z"/><path d="m9.6504344 959.25031v5.25h.5999996v-1.6575h1.3725c1.2975 0 2.0475-.6675 2.0475-1.83 0-1.1175-.75-1.7625-2.0475-1.7625zm.5999996.5775h1.35c.945 0 1.4925.405 1.4925 1.2 0 .8175-.5475 1.2375-1.4925 1.2375h-1.35z"/><path d="m14.674848 959.25031v5.25h.6v-1.6575h1.3725c1.2975 0 2.0475-.6675 2.0475-1.83 0-1.1175-.75-1.7625-2.0475-1.7625zm.6.5775h1.35c.945 0 1.4925.405 1.4925 1.2 0 .8175-.5475 1.2375-1.4925 1.2375h-1.35z"/><path d="m20.299263 963.93031v-4.68h-.6v5.25h2.9025v-.57z"/><path d="m24.181098 964.50031v-5.25h-.6v5.25z"/><path d="m28.020864 959.23531c-1.5225 0-2.7375 1.1625-2.7375 2.6325 0 1.485 1.2 2.6625 2.715 2.6625.7275 0 1.4325-.3225 1.95-.81l-.3675-.4125c-.4125.39-.975.63-1.5525.63-1.185 0-2.1375-.9225-2.1375-2.07 0-1.155.9525-2.07 2.1375-2.07.5775 0 1.1475.2475 1.5525.66l.36-.4575c-.5025-.4725-1.2-.765-1.92-.765z"/><path d="m34.315708 963.17281.585 1.3275h.6525l-2.3475-5.25h-.6225l-2.355 5.25h.6375l.585-1.3275zm-.255-.5775h-2.355l1.17-2.6625z"/><path d="m39.215434 959.82781v-.5775h-4.0275v.5775h1.71v4.6725h.6v-4.6725z"/><path d="m40.689888 964.50031v-5.25h-.6v5.25z"/><path d="m44.544653 959.23531c-1.5375 0-2.7525 1.155-2.7525 2.64 0 1.4775 1.215 2.655 2.7525 2.655 1.53 0 2.745-1.1775 2.745-2.655s-1.215-2.64-2.745-2.64zm0 .57c1.17 0 2.13.915 2.13 2.07s-.96 2.0775-2.13 2.0775-2.145-.9225-2.145-2.0775.975-2.07 2.145-2.07z"/><path d="m52.745903 964.50031v-5.25h-.5925v4.2225l-3.15-4.2225h-.6225v5.25h.6v-4.215l3.15 4.215z"/><path d="m12.580063 966.72781c-1.0875 0-1.815.5325-1.815 1.3575 0 1.8825 2.955 1.1475 2.9475 2.5275 0 .5025-.4725.81-1.23.81-.5925 0-1.26-.27-1.7475-.7425l-.27.54c.495.4725 1.245.8025 2.01.8025 1.125 0 1.8975-.5625 1.8975-1.44.0075-1.905-2.9475-1.2-2.9475-2.55 0-.4425.4425-.6975 1.1175-.6975.42 0 .975.1275 1.4475.4425l.255-.5625c-.435-.2925-1.0575-.4875-1.665-.4875z"/><path d="m17.862524 966.73531c-1.5375 0-2.7525 1.155-2.7525 2.64 0 1.4775 1.215 2.655 2.7525 2.655 1.53 0 2.745-1.1775 2.745-2.655s-1.215-2.64-2.745-2.64zm0 .57c1.17 0 2.13.915 2.13 2.07s-.96 2.0775-2.13 2.0775-2.145-.9225-2.145-2.0775.975-2.07 2.145-2.07z"/><path d="m25.988774 966.75031h-.6v3.09c0 1.02-.6 1.6125-1.5975 1.6125s-1.6125-.5925-1.6125-1.6125v-3.09h-.6v3.09c0 1.365.8325 2.19 2.2125 2.19 1.3725 0 2.1975-.825 2.1975-2.19z"/><path d="m30.89061 972.00031h.6825l-1.23-1.785c.7575-.2475 1.1775-.8325 1.1775-1.7025 0-1.1175-.7575-1.7625-2.07-1.7625h-1.995v5.25h.6v-1.6575h1.395c.12 0 .24-.007.3525-.015zm-2.835-2.235v-2.4375h1.395c.9525 0 1.4925.405 1.4925 1.2 0 .8175-.54 1.2375-1.4925 1.2375z"/><path d="m35.118032 966.73531c-1.5225 0-2.7375 1.1625-2.7375 2.6325 0 1.485 1.2 2.6625 2.715 2.6625.7275 0 1.4325-.3225 1.95-.81l-.3675-.4125c-.4125.39-.975.63-1.5525.63-1.185 0-2.1375-.9225-2.1375-2.07 0-1.155.9525-2.07 2.1375-2.07.5775 0 1.1475.2475 1.5525.66l.36-.4575c-.5025-.4725-1.2-.765-1.92-.765z"/><path d="m41.682173 967.32781v-.5775h-3.5625v5.25h3.66v-.57h-3.06v-1.8h2.6475v-.5775h-2.6475v-1.725z"/><path d="m44.557602 966.72781c-1.0875 0-1.815.5325-1.815 1.3575 0 1.8825 2.955 1.1475 2.9475 2.5275 0 .5025-.4725.81-1.23.81-.5925 0-1.26-.27-1.7475-.7425l-.27.54c.495.4725 1.245.8025 2.01.8025 1.125 0 1.8975-.5625 1.8975-1.44.0075-1.905-2.9475-1.2-2.9475-2.55 0-.4425.4425-.6975 1.1175-.6975.42 0 .975.1275 1.4475.4425l.255-.5625c-.435-.2925-1.0575-.4875-1.665-.4875z"/></g><g><path d="m9.6666594 1034.91h-2.4825v.5775h1.875v3.0825c0 .6525-.3225.9975-.9.9975-.405 0-.8175-.21-1.1475-.6075l-.3.48c.3675.4725.87.75 1.455.75.9375 0 1.5-.585 1.5-1.605z"/><path d="m14.300839 1038.8325.585 1.3275h.6525l-2.3475-5.25h-.6225l-2.355 5.25h.6375l.585-1.3275zm-.255-.5775h-2.355l1.17-2.6625z"/><path d="m18.019902 1040.16 2.145-5.25h-.63l-1.815 4.5525-1.8075-4.5525h-.645l2.13 5.25z"/><path d="m23.968808 1038.8325.585 1.3275h.6525l-2.3475-5.25h-.6225l-2.355 5.25h.6375l.585-1.3275zm-.255-.5775h-2.355l1.17-2.6625z"/><path d="m10.458261 1042.3875c-1.0875 0-1.815.5325-1.815 1.3575 0 1.8825 2.955 1.1475 2.9475 2.5275 0 .5025-.4725.81-1.23.81-.5925 0-1.26-.27-1.7475-.7425l-.27.54c.495.4725 1.245.8025 2.01.8025 1.125 0 1.8975-.5625 1.8975-1.44.0075-1.905-2.9475-1.2-2.9475-2.55 0-.4425.4425-.6975 1.1175-.6975.42 0 .975.1275 1.4475.4425l.255-.5625c-.435-.2925-1.0575-.4875-1.665-.4875z"/><path d="m13.483222 1042.41v5.25h2.1c1.545 0 2.7225-1.1325 2.7225-2.625s-1.17-2.625-2.7-2.625zm.6.5775h1.5075c1.1775 0 2.1075.8775 2.1075 2.055 0 1.17-.915 2.0475-2.085 2.0475h-1.53z"/><path d="m22.956191 1047.66h.735l-2.235-2.97 2.0775-2.28h-.7125l-2.82 3.0225v-3.0225h-.6v5.25h.6v-1.3725l1.02-1.1175z"/></g><g><path d="m255.05455 1042.5883 2.145-5.25h-.63l-1.815 4.5525-1.8075-4.5525h-.645l2.13 5.25z"/><path d="m261.00346 1041.2608.585 1.3275h.6525l-2.3475-5.25h-.6225l-2.355 5.25h.6375l.585-1.3275zm-.255-.5775h-2.355l1.17-2.6625z"/><path d="m266.39408 1041.2608.585 1.3275h.6525l-2.3475-5.25h-.6225l-2.355 5.25h.6375l.585-1.3275zm-.255-.5775h-2.355l1.17-2.6625z"/><path d="m268.46221 1037.3383v5.25h2.1c1.545 0 2.7225-1.1325 2.7225-2.625s-1.17-2.625-2.7-2.625zm.6.5775h1.5075c1.1775 0 2.1075.8775 2.1075 2.055 0 1.17-.915 2.0475-2.085 2.0475h-1.53z"/><path d="m274.98017 1042.5883v-5.25h-.6v5.25z"/><path d="m280.94244 1042.5883v-5.25h-.5925v4.2225l-3.15-4.2225h-.6225v5.25h.6v-4.215l3.15 4.215z"/><path d="m248.72285 1049.5183v-4.68h-.6v5.25h2.9025v-.57z"/><path d="m252.60469 1050.0883v-5.25h-.6v5.25z"/><path d="m254.20195 1044.8383v5.25h2.25c1.185 0 1.89-.5325 1.89-1.425 0-.72-.4425-1.215-1.2-1.3275.615-.1275.9675-.57.9675-1.185 0-.825-.6375-1.3125-1.695-1.3125zm.6.5775h1.5825c.705 0 1.1175.3 1.1175.8325 0 .5475-.4125.855-1.1175.855h-1.5825zm0 2.2575h1.5825c.855 0 1.35.3375 1.35.9075 0 .6-.495.9375-1.35.9375h-1.5825z"/><path d="m263.01293 1050.0883h.6825l-1.23-1.785c.7575-.2475 1.1775-.8325 1.1775-1.7025 0-1.1175-.7575-1.7625-2.07-1.7625h-1.995v5.25h.6v-1.6575h1.395c.12 0 .24-.01.3525-.015zm-2.835-2.235v-2.4375h1.395c.9525 0 1.4925.405 1.4925 1.2 0 .8175-.54 1.2375-1.4925 1.2375z"/><path d="m268.32035 1048.7608.585 1.3275h.6525l-2.3475-5.25h-.6225l-2.355 5.25h.6375l.585-1.3275zm-.255-.5775h-2.355l1.17-2.6625z"/><path d="m273.82348 1050.0883h.6825l-1.23-1.785c.7575-.2475 1.1775-.8325 1.1775-1.7025 0-1.1175-.7575-1.7625-2.07-1.7625h-1.995v5.25h.6v-1.6575h1.395c.12 0 .24-.01.3525-.015zm-2.835-2.235v-2.4375h1.395c.9525 0 1.4925.405 1.4925 1.2 0 .8175-.54 1.2375-1.4925 1.2375z"/><path d="m276.4084 1050.0883v-5.25h-.6v5.25z"/><path d="m281.56816 1045.4158v-.5775h-3.5625v5.25h3.66v-.57h-3.06v-1.8h2.6475v-.5775h-2.6475v-1.725z"/><path d="m284.44359 1044.8158c-1.0875 0-1.815.5325-1.815 1.3575 0 1.8825 2.955 1.1475 2.9475 2.5275 0 .5025-.4725.81-1.23.81-.5925 0-1.26-.27-1.7475-.7425l-.27.54c.495.4725 1.245.8025 2.01.8025 1.125 0 1.8975-.5625 1.8975-1.44.007-1.905-2.9475-1.2-2.9475-2.55 0-.4425.4425-.6975 1.1175-.6975.42 0 .975.1275 1.4475.4425l.255-.5625c-.435-.2925-1.0575-.4875-1.665-.4875z"/></g><path d="m77.105014 1012.4995a2.8741407 2.8741407 0 0 1 -2.874141 2.8742 2.8741407 2.8741407 0 0 1 -2.874141-2.8742 2.8741407 2.8741407 0 0 1 2.874141-2.8741 2.8741407 2.8741407 0 0 1 2.874141 2.8741z" fill="#00b6f3"/><g transform="translate(191.33858 124.73663)"><path d="m88.582676 793.70068a42.519684 42.519684 0 0 1 -42.519684 42.51969 42.519684 42.519684 0 0 1 -42.5196837-42.51969 42.519684 42.519684 0 0 1 42.5196837-42.51968 42.519684 42.519684 0 0 1 42.519684 42.51968z" fill="#fff" stroke="#2d3538" stroke-width="1.02935"/><g><path d="m21.483899 790.83071.6825 1.54875h.76125l-2.73875-6.125h-.72625l-2.7475 6.125h.74375l.6825-1.54875zm-.2975-.67375h-2.7475l1.365-3.10625z"/><path d="m23.896712 786.25446v6.125h.7v-1.93375h1.60125c1.51375 0 2.38875-.77875 2.38875-2.135 0-1.30375-.875-2.05625-2.38875-2.05625zm.7.67375h1.575c1.1025 0 1.74125.4725 1.74125 1.4 0 .95375-.63875 1.44375-1.74125 1.44375h-1.575z"/><path d="m29.758528 786.25446v6.125h.7v-1.93375h1.60125c1.51375 0 2.38875-.77875 2.38875-2.135 0-1.30375-.875-2.05625-2.38875-2.05625zm.7.67375h1.575c1.1025 0 1.74125.4725 1.74125 1.4 0 .95375-.63875 1.44375-1.74125 1.44375h-1.575z"/><path d="m36.320344 791.71446v-5.46h-.7v6.125h3.38625v-.665z"/><path d="m40.849153 792.37946v-6.125h-.7v6.125z"/><path d="m45.32888 786.23696c-1.77625 0-3.19375 1.35625-3.19375 3.07125 0 1.7325 1.4 3.10625 3.1675 3.10625.84875 0 1.67125-.37625 2.275-.945l-.42875-.48125c-.48125.455-1.1375.735-1.81125.735-1.3825 0-2.49375-1.07625-2.49375-2.415 0-1.3475 1.11125-2.415 2.49375-2.415.67375 0 1.33875.28875 1.81125.77l.42-.53375c-.58625-.55125-1.4-.8925-2.24-.8925z"/><path d="m52.672864 790.83071.6825 1.54875h.76125l-2.73875-6.125h-.72625l-2.7475 6.125h.74375l.6825-1.54875zm-.2975-.67375h-2.7475l1.365-3.10625z"/><path d="m58.389212 786.92821v-.67375h-4.69875v.67375h1.995v5.45125h.7v-5.45125z"/><path d="m60.109407 792.37946v-6.125h-.7v6.125z"/><path d="m64.606633 786.23696c-1.79375 0-3.21125 1.3475-3.21125 3.08 0 1.72375 1.4175 3.0975 3.21125 3.0975 1.785 0 3.2025-1.37375 3.2025-3.0975s-1.4175-3.08-3.2025-3.08zm0 .665c1.365 0 2.485 1.0675 2.485 2.415s-1.12 2.42375-2.485 2.42375-2.5025-1.07625-2.5025-2.42375 1.1375-2.415 2.5025-2.415z"/><path d="m74.174758 792.37946v-6.125h-.69125v4.92625l-3.675-4.92625h-.72625v6.125h.7v-4.9175l3.675 4.9175z"/><path d="m31.091467 794.97821c-1.26875 0-2.1175.62125-2.1175 1.58375 0 2.19625 3.4475 1.33875 3.43875 2.94875 0 .58625-.55125.945-1.435.945-.69125 0-1.47-.315-2.03875-.86625l-.315.63c.5775.55125 1.4525.93625 2.345.93625 1.3125 0 2.21375-.65625 2.21375-1.68.0088-2.2225-3.43875-1.4-3.43875-2.975 0-.51625.51625-.81375 1.30375-.81375.49 0 1.1375.14875 1.68875.51625l.2975-.65625c-.5075-.34125-1.23375-.56875-1.9425-.56875z"/><path d="m38.776839 795.67821v-.67375h-4.15625v6.125h4.27v-.665h-3.57v-2.1h3.08875v-.67375h-3.08875v-2.0125z"/><path d="m44.319007 801.12946h.79625l-1.435-2.0825c.88375-.28875 1.37375-.97125 1.37375-1.98625 0-1.30375-.88375-2.05625-2.415-2.05625h-2.3275v6.125h.7v-1.93375h1.6275c.14 0 .28-.009.41125-.0175zm-3.3075-2.6075v-2.84375h1.6275c1.11125 0 1.74125.4725 1.74125 1.4 0 .95375-.63 1.44375-1.74125 1.44375z"/><path d="m48.885549 801.12946 2.5025-6.125h-.735l-2.1175 5.31125-2.10875-5.31125h-.7525l2.485 6.125z"/><path d="m56.516096 795.67821v-.67375h-4.15625v6.125h4.27v-.665h-3.57v-2.1h3.08875v-.67375h-3.08875v-2.0125z"/><path d="m62.058264 801.12946h.79625l-1.435-2.0825c.88375-.28875 1.37375-.97125 1.37375-1.98625 0-1.30375-.88375-2.05625-2.415-2.05625h-2.3275v6.125h.7v-1.93375h1.6275c.14 0 .28-.009.41125-.0175zm-3.3075-2.6075v-2.84375h1.6275c1.11125 0 1.74125.4725 1.74125 1.4 0 .95375-.63 1.44375-1.74125 1.44375z"/></g></g><g transform="translate(191.33858 32.610612)"><path d="m74.409456 793.70068a28.346464 28.346464 0 0 1 -28.346464 28.34647 28.346464 28.346464 0 0 1 -28.346464-28.34647 28.346464 28.346464 0 0 1 28.346464-28.34646 28.346464 28.346464 0 0 1 28.346464 28.34646z" fill="#fff" stroke="#2d3538" stroke-width="1.02935"/><g><path d="m23.879622 790.63379v6.125h2.625c1.3825 0 2.205-.62125 2.205-1.6625 0-.84-.51625-1.4175-1.4-1.54875.7175-.14875 1.12875-.665 1.12875-1.3825 0-.9625-.74375-1.53125-1.9775-1.53125zm.7.67375h1.84625c.8225 0 1.30375.35 1.30375.97125 0 .63875-.48125.9975-1.30375.9975h-1.84625zm0 2.63375h1.84625c.9975 0 1.575.39375 1.575 1.05875 0 .7-.5775 1.09375-1.575 1.09375h-1.84625z"/><path d="m34.159094 796.75879h.79625l-1.435-2.0825c.88375-.28875 1.37375-.97125 1.37375-1.98625 0-1.30375-.88375-2.05625-2.415-2.05625h-2.3275v6.125h.7v-1.93375h1.6275c.14 0 .28-.009.41125-.0175zm-3.3075-2.6075v-2.84375h1.6275c1.11125 0 1.74125.4725 1.74125 1.4 0 .95375-.63 1.44375-1.74125 1.44375z"/><path d="m39.108587 790.61629c-1.79375 0-3.21125 1.3475-3.21125 3.08 0 1.72375 1.4175 3.0975 3.21125 3.0975 1.785 0 3.2025-1.37375 3.2025-3.0975s-1.4175-3.08-3.2025-3.08zm0 .665c1.365 0 2.485 1.0675 2.485 2.415s-1.12 2.42375-2.485 2.42375-2.5025-1.07625-2.5025-2.42375 1.1375-2.415 2.5025-2.415z"/><path d="m49.431262 796.75879 2.05625-6.125h-.72625l-1.6625 5.31125-1.68-5.31125-.7.009-1.6625 5.3025-1.68-5.31125h-.7525l2.0475 6.125h.7175l1.67125-5.1625 1.65375 5.1625z"/><path d="m54.222571 790.60754c-1.26875 0-2.1175.62125-2.1175 1.58375 0 2.19625 3.4475 1.33875 3.43875 2.94875 0 .58625-.55125.945-1.435.945-.69125 0-1.47-.315-2.03875-.86625l-.315.63c.5775.55125 1.4525.93625 2.345.93625 1.3125 0 2.21375-.65625 2.21375-1.68.0088-2.2225-3.43875-1.4-3.43875-2.975 0-.51625.51625-.81375 1.30375-.81375.49 0 1.1375.14875 1.68875.51625l.2975-.65625c-.5075-.34125-1.23375-.56875-1.9425-.56875z"/><path d="m61.907942 791.30754v-.67375h-4.15625v6.125h4.27v-.665h-3.57v-2.1h3.08875v-.67375h-3.08875v-2.0125z"/><path d="m67.45011 796.75879h.79625l-1.435-2.0825c.88375-.28875 1.37375-.97125 1.37375-1.98625 0-1.30375-.88375-2.05625-2.415-2.05625h-2.3275v6.125h.7v-1.93375h1.6275c.14 0 .28-.009.41125-.0175zm-3.3075-2.6075v-2.84375h1.6275c1.11125 0 1.74125.4725 1.74125 1.4 0 .95375-.63 1.44375-1.74125 1.44375z"/></g></g><path d="m237.40157 854.65777v21.25985" fill="none" marker-end="url(#b)" stroke="#33383a" stroke-width="1.062992"/><path d="m237.40157 868.831v-14.17323" fill="none" marker-end="url(#c)" stroke="#33383a" stroke-width="1.062992"/><path d="m268.62216 950.32709a2.8741407 2.8741407 0 0 1 -2.87414 2.87414 2.8741407 2.8741407 0 0 1 -2.87414-2.87414 2.8741407 2.8741407 0 0 1 2.87414-2.87414 2.8741407 2.8741407 0 0 1 2.87414 2.87414z" fill="#e61e6d"/><g><path d="m269.69816 954.04388h-2.4825v.5775h1.875v3.0825c0 .6525-.3225.9975-.9.9975-.405 0-.8175-.21-1.1475-.6075l-.3.48c.3675.4725.87.75 1.455.75.9375 0 1.5-.585 1.5-1.605z"/><path d="m274.33234 957.96638.585 1.3275h.6525l-2.3475-5.25h-.6225l-2.355 5.25h.6375l.585-1.3275zm-.255-.5775h-2.355l1.17-2.6625z"/><path d="m278.05141 959.29388 2.145-5.25h-.63l-1.815 4.5525-1.8075-4.5525h-.645l2.13 5.25z"/><path d="m284.00031 957.96638.585 1.3275h.6525l-2.3475-5.25h-.6225l-2.355 5.25h.6375l.585-1.3275zm-.255-.5775h-2.355l1.17-2.6625z"/></g><g transform="translate(191.50634 213.11776)"><path d="m77.952763 793.70068a31.889771 31.889771 0 0 1 -31.889771 31.88977 31.889771 31.889771 0 0 1 -31.88977-31.88977 31.889771 31.889771 0 0 1 31.88977-31.88977 31.889771 31.889771 0 0 1 31.889771 31.88977z" fill="#fff" stroke="#2d3538" stroke-width="1.02935"/><g><path d="m42.321887 790.35895 2.05625-6.125h-.72625l-1.6625 5.31125-1.68-5.31125-.7.009-1.6625 5.3025-1.68-5.31125h-.7525l2.0475 6.125h.7175l1.67125-5.1625 1.65375 5.1625z"/><path d="m49.449446 784.9077v-.67375h-4.15625v6.125h4.27v-.665h-3.57v-2.1h3.08875v-.67375h-3.08875v-2.0125z"/><path d="m50.984114 784.23395v6.125h2.625c1.3825 0 2.205-.62125 2.205-1.6625 0-.84-.51625-1.4175-1.4-1.54875.7175-.14875 1.12875-.665 1.12875-1.3825 0-.9625-.74375-1.53125-1.9775-1.53125zm.7.67375h1.84625c.8225 0 1.30375.35 1.30375.97125 0 .63875-.48125.9975-1.30375.9975h-1.84625zm0 2.63375h1.84625c.9975 0 1.575.39375 1.575 1.05875 0 .7-.5775 1.09375-1.575 1.09375h-1.84625z"/><path d="m21.483899 797.5602.6825 1.54875h.76125l-2.73875-6.125h-.72625l-2.7475 6.125h.74375l.6825-1.54875zm-.2975-.67375h-2.7475l1.365-3.10625z"/><path d="m23.896712 792.98395v6.125h.7v-1.93375h1.60125c1.51375 0 2.38875-.77875 2.38875-2.135 0-1.30375-.875-2.05625-2.38875-2.05625zm.7.67375h1.575c1.1025 0 1.74125.4725 1.74125 1.4 0 .95375-.63875 1.44375-1.74125 1.44375h-1.575z"/><path d="m29.758528 792.98395v6.125h.7v-1.93375h1.60125c1.51375 0 2.38875-.77875 2.38875-2.135 0-1.30375-.875-2.05625-2.38875-2.05625zm.7.67375h1.575c1.1025 0 1.74125.4725 1.74125 1.4 0 .95375-.63875 1.44375-1.74125 1.44375h-1.575z"/><path d="m36.320344 798.44395v-5.46h-.7v6.125h3.38625v-.665z"/><path d="m40.849153 799.10895v-6.125h-.7v6.125z"/><path d="m45.32888 792.96645c-1.77625 0-3.19375 1.35625-3.19375 3.07125 0 1.7325 1.4 3.10625 3.1675 3.10625.84875 0 1.67125-.37625 2.275-.945l-.42875-.48125c-.48125.455-1.1375.735-1.81125.735-1.3825 0-2.49375-1.07625-2.49375-2.415 0-1.3475 1.11125-2.415 2.49375-2.415.67375 0 1.33875.28875 1.81125.77l.42-.53375c-.58625-.55125-1.4-.8925-2.24-.8925z"/><path d="m52.672864 797.5602.6825 1.54875h.76125l-2.73875-6.125h-.72625l-2.7475 6.125h.74375l.6825-1.54875zm-.2975-.67375h-2.7475l1.365-3.10625z"/><path d="m58.389212 793.6577v-.67375h-4.69875v.67375h1.995v5.45125h.7v-5.45125z"/><path d="m60.109407 799.10895v-6.125h-.7v6.125z"/><path d="m64.606633 792.96645c-1.79375 0-3.21125 1.3475-3.21125 3.08 0 1.72375 1.4175 3.0975 3.21125 3.0975 1.785 0 3.2025-1.37375 3.2025-3.0975s-1.4175-3.08-3.2025-3.08zm0 .665c1.365 0 2.485 1.0675 2.485 2.415s-1.12 2.42375-2.485 2.42375-2.5025-1.07625-2.5025-2.42375 1.1375-2.415 2.5025-2.415z"/><path d="m74.174758 799.10895v-6.125h-.69125v4.92625l-3.675-4.92625h-.72625v6.125h.7v-4.9175l3.675 4.9175z"/></g></g><path d="m259.80059 1031.723a2.8741407 2.8741407 0 0 1 -2.87414 2.8742 2.8741407 2.8741407 0 0 1 -2.87414-2.8742 2.8741407 2.8741407 0 0 1 2.87414-2.8741 2.8741407 2.8741407 0 0 1 2.87414 2.8741z" fill="#00b6f3"/><path d="m224.68196 1034.1722a2.8741407 2.8741407 0 0 1 -2.87414 2.8742 2.8741407 2.8741407 0 0 1 -2.87415-2.8742 2.8741407 2.8741407 0 0 1 2.87415-2.8741 2.8741407 2.8741407 0 0 1 2.87414 2.8741z" fill="#ff3849"/><g><path d="m173.95789 1040.4048.585 1.3275h.6525l-2.3475-5.25h-.6225l-2.355 5.25h.6375l.585-1.3275zm-.255-.5775h-2.355l1.17-2.6625z"/><path d="m176.02602 1036.4823v5.25h.6v-1.6575h1.3725c1.2975 0 2.0475-.6675 2.0475-1.83 0-1.1175-.75-1.7625-2.0475-1.7625zm.6.5775h1.35c.945 0 1.4925.405 1.4925 1.2 0 .8175-.5475 1.2375-1.4925 1.2375h-1.35z"/><path d="m181.05043 1036.4823v5.25h.6v-1.6575h1.3725c1.2975 0 2.0475-.6675 2.0475-1.83 0-1.1175-.75-1.7625-2.0475-1.7625zm.6.5775h1.35c.945 0 1.4925.405 1.4925 1.2 0 .8175-.5475 1.2375-1.4925 1.2375h-1.35z"/><path d="m186.67485 1041.1623v-4.68h-.6v5.25h2.9025v-.57z"/><path d="m190.55668 1041.7323v-5.25h-.6v5.25z"/><path d="m194.39645 1036.4673c-1.5225 0-2.7375 1.1625-2.7375 2.6325 0 1.485 1.2 2.6625 2.715 2.6625.7275 0 1.4325-.3225 1.95-.81l-.3675-.4125c-.4125.39-.975.63-1.5525.63-1.185 0-2.1375-.9225-2.1375-2.07 0-1.155.9525-2.07 2.1375-2.07.5775 0 1.1475.2475 1.5525.66l.36-.4575c-.5025-.4725-1.2-.765-1.92-.765z"/><path d="m200.69129 1040.4048.585 1.3275h.6525l-2.3475-5.25h-.6225l-2.355 5.25h.6375l.585-1.3275zm-.255-.5775h-2.355l1.17-2.6625z"/><path d="m205.59102 1037.0598v-.5775h-4.0275v.5775h1.71v4.6725h.6v-4.6725z"/><path d="m207.06547 1041.7323v-5.25h-.6v5.25z"/><path d="m210.92024 1036.4673c-1.5375 0-2.7525 1.155-2.7525 2.64 0 1.4775 1.215 2.655 2.7525 2.655 1.53 0 2.745-1.1775 2.745-2.655s-1.215-2.64-2.745-2.64zm0 .57c1.17 0 2.13.915 2.13 2.07s-.96 2.0775-2.13 2.0775-2.145-.9225-2.145-2.0775.975-2.07 2.145-2.07z"/><path d="m219.12149 1041.7323v-5.25h-.5925v4.2225l-3.15-4.2225h-.6225v5.25h.6v-4.215l3.15 4.215z"/><path d="m174.75453 1044.5598v-.5775h-3.5625v5.25h3.66v-.57h-3.06v-1.8h2.6475v-.5775h-2.6475v-1.725z"/><path d="m178.10996 1046.5023 1.785-2.52h-.705l-1.4625 2.025-1.4475-2.025h-.705l1.7925 2.55-1.9275 2.7h.705l1.5825-2.1975 1.5975 2.1975h.72z"/><path d="m184.61293 1044.5598v-.5775h-3.5625v5.25h3.66v-.57h-3.06v-1.8h2.6475v-.5775h-2.6475v-1.725z"/><path d="m188.17086 1043.9673c-1.5225 0-2.7375 1.1625-2.7375 2.6325 0 1.485 1.2 2.6625 2.715 2.6625.7275 0 1.4325-.3225 1.95-.81l-.3675-.4125c-.4125.39-.975.63-1.5525.63-1.185 0-2.1375-.9225-2.1375-2.07 0-1.155.9525-2.07 2.1375-2.07.5775 0 1.1475.2475 1.5525.66l.36-.4575c-.5025-.4725-1.2-.765-1.92-.765z"/><path d="m195.4625 1043.9823h-.6v3.09c0 1.02-.6 1.6125-1.5975 1.6125s-1.6125-.5925-1.6125-1.6125v-3.09h-.6v3.09c0 1.365.8325 2.19 2.2125 2.19 1.3725 0 2.1975-.825 2.1975-2.19z"/><path d="m200.24434 1044.5598v-.5775h-4.0275v.5775h1.71v4.6725h.6v-4.6725z"/><path d="m203.95789 1047.9048.585 1.3275h.6525l-2.3475-5.25h-.6225l-2.355 5.25h.6375l.585-1.3275zm-.255-.5775h-2.355l1.17-2.6625z"/><path d="m206.02602 1043.9823v5.25h2.25c1.185 0 1.89-.5325 1.89-1.425 0-.72-.4425-1.215-1.2-1.3275.615-.1275.9675-.57.9675-1.185 0-.825-.6375-1.3125-1.695-1.3125zm.6.5775h1.5825c.705 0 1.1175.3 1.1175.8325 0 .5475-.4125.855-1.1175.855h-1.5825zm0 2.2575h1.5825c.855 0 1.35.3375 1.35.9075 0 .6-.495.9375-1.35.9375h-1.5825z"/><path d="m212.00199 1048.6623v-4.68h-.6v5.25h2.9025v-.57z"/><path d="m218.84633 1044.5598v-.5775h-3.5625v5.25h3.66v-.57h-3.06v-1.8h2.6475v-.5775h-2.6475v-1.725z"/></g><path d="m237.40157 960.95701v14.17324" fill="none" stroke="#33383a" stroke-width="1.062992"/><g><path d="m82.345886 1020.2418 2.145-5.25h-.63l-1.815 4.5525-1.8075-4.5525h-.645l2.13 5.25z"/><path d="m88.294792 1018.9143.585 1.3275h.6525l-2.3475-5.25h-.6225l-2.355 5.25h.6375l.585-1.3275zm-.255-.5775h-2.355l1.17-2.6625z"/><path d="m93.685417 1018.9143.585 1.3275h.6525l-2.3475-5.25h-.6225l-2.355 5.25h.6375l.585-1.3275zm-.255-.5775h-2.355l1.17-2.6625z"/><path d="m95.753542 1014.9918v5.25h2.1c1.545 0 2.722498-1.1325 2.722498-2.625s-1.169998-2.625-2.699998-2.625zm.6.5775h1.5075c1.1775 0 2.1075.8775 2.1075 2.055 0 1.17-.915 2.0475-2.085 2.0475h-1.53z"/><path d="m102.27151 1020.2418v-5.25h-.6v5.25z"/><path d="m108.23378 1020.2418v-5.25h-.5925v4.2225l-3.15-4.2225h-.6225v5.25h.6v-4.215l3.15 4.215z"/><path d="m76.014186 1027.1718v-4.68h-.6v5.25h2.9025v-.57z"/><path d="m79.896022 1027.7418v-5.25h-.6v5.25z"/><path d="m81.493288 1022.4918v5.25h2.25c1.185 0 1.89-.5325 1.89-1.425 0-.72-.4425-1.215-1.2-1.3275.615-.1275.9675-.57.9675-1.185 0-.825-.6375-1.3125-1.695-1.3125zm.6.5775h1.5825c.705 0 1.1175.3 1.1175.8325 0 .5475-.4125.855-1.1175.855h-1.5825zm0 2.2575h1.5825c.855 0 1.35.3375 1.35.9075 0 .6-.495.9375-1.35.9375h-1.5825z"/><path d="m90.304265 1027.7418h.6825l-1.23-1.785c.7575-.2475 1.1775-.8325 1.1775-1.7025 0-1.1175-.7575-1.7625-2.07-1.7625h-1.995v5.25h.6v-1.6575h1.395c.12 0 .24-.01.3525-.015zm-2.835-2.235v-2.4375h1.395c.9525 0 1.4925.405 1.4925 1.2 0 .8175-.54 1.2375-1.4925 1.2375z"/><path d="m95.611686 1026.4143.585 1.3275h.6525l-2.3475-5.25h-.6225l-2.355 5.25h.6375l.585-1.3275zm-.255-.5775h-2.355l1.17-2.6625z"/><path d="m101.11481 1027.7418h.6825l-1.23-1.785c.7575-.2475 1.1775-.8325 1.1775-1.7025 0-1.1175-.7575-1.7625-2.069999-1.7625h-1.995v5.25h.6v-1.6575h1.395c.12 0 .24-.01.352499-.015zm-2.834999-2.235v-2.4375h1.395c.952499 0 1.492499.405 1.492499 1.2 0 .8175-.54 1.2375-1.492499 1.2375z"/><path d="m103.69973 1027.7418v-5.25h-.6v5.25z"/><path d="m108.8595 1023.0693v-.5775h-3.5625v5.25h3.66v-.57h-3.06v-1.8h2.6475v-.5775h-2.6475v-1.725z"/><path d="m111.73493 1022.4693c-1.0875 0-1.815.5325-1.815 1.3575 0 1.8825 2.955 1.1475 2.9475 2.5275 0 .5025-.4725.81-1.23.81-.5925 0-1.26-.27-1.7475-.7425l-.27.54c.495.4725 1.245.8025 2.01.8025 1.125 0 1.8975-.5625 1.8975-1.44.008-1.905-2.9475-1.2-2.9475-2.55 0-.4425.4425-.6975 1.1175-.6975.42 0 .975.1275 1.4475.4425l.255-.5625c-.435-.2925-1.0575-.4875-1.665-.4875z"/></g><g transform="translate(35.433071 113.3859)"><path d="m63.779528 793.70068a17.716536 17.716536 0 0 1 -17.716536 17.71654 17.716536 17.716536 0 0 1 -17.716535-17.71654 17.716536 17.716536 0 0 1 17.716535-17.71653 17.716536 17.716536 0 0 1 17.716536 17.71653z" fill="#fff" stroke="#2d3538" stroke-width="1.02935"/><g><path d="m36.767279 796.76318v-6.125h-.8575l-2.23125 4.41-2.24-4.41h-.86625v6.125h.665v-5.04875l2.2225 4.40125h.42l2.23125-4.40125.0087 5.04875z"/><path d="m42.514935 795.21443.6825 1.54875h.76125l-2.73875-6.125h-.72625l-2.7475 6.125h.74375l.6825-1.54875zm-.2975-.67375h-2.7475l1.365-3.10625z"/><path d="m46.853842 796.76318 2.5025-6.125h-.735l-2.1175 5.31125-2.10875-5.31125h-.7525l2.485 6.125z"/><path d="m54.484389 791.31193v-.67375h-4.15625v6.125h4.27v-.665h-3.57v-2.1h3.08875v-.67375h-3.08875v-2.0125z"/><path d="m61.111557 796.76318v-6.125h-.69125v4.92625l-3.675-4.92625h-.72625v6.125h.7v-4.9175l3.675 4.9175z"/></g></g><g transform="translate(159.44882 180.70874)"><path d="m63.779528 793.70068a17.716536 17.716536 0 0 1 -17.716536 17.71654 17.716536 17.716536 0 0 1 -17.716535-17.71654 17.716536 17.716536 0 0 1 17.716535-17.71653 17.716536 17.716536 0 0 1 17.716536 17.71653z" fill="#fff" stroke="#2d3538" stroke-width="1.02935"/><g><path d="m35.911009 789.52446v-.5775h-3.3375v5.25h.6v-2.25h2.4525v-.5775h-2.4525v-1.845z"/><path d="m40.227258 794.19696h.6825l-1.23-1.785c.7575-.2475 1.1775-.8325 1.1775-1.7025 0-1.1175-.7575-1.7625-2.07-1.7625h-1.995v5.25h.6v-1.6575h1.395c.12 0 .24-.007.3525-.015zm-2.835-2.235v-2.4375h1.395c.9525 0 1.4925.405 1.4925 1.2 0 .8175-.54 1.2375-1.4925 1.2375z"/><path d="m44.46968 788.93196c-1.5375 0-2.7525 1.155-2.7525 2.64 0 1.4775 1.215 2.655 2.7525 2.655 1.529999 0 2.744999-1.1775 2.744999-2.655s-1.215-2.64-2.744999-2.64zm0 .57c1.169999 0 2.129999.915 2.129999 2.07s-.96 2.0775-2.129999 2.0775c-1.17 0-2.145-.9225-2.145-2.0775s.975-2.07 2.145-2.07z"/><path d="m52.670928 794.19696v-5.25h-.5925v4.2225l-3.149999-4.2225h-.6225v5.25h.6v-4.215l3.149999 4.215z"/><path d="m57.582841 789.52446v-.5775h-4.0275v.5775h1.71v4.6725h.6v-4.6725z"/><path d="m59.904794 792.14196v-.435h-1.7625v.435z"/><path d="m42.061301 797.02446v-.5775h-3.5625v5.25h3.66v-.57h-3.06v-1.8h2.6475v-.5775h-2.6475v-1.725z"/><path d="m47.74173 801.69696v-5.25h-.5925v4.2225l-3.15-4.2225h-.6225v5.25h.6v-4.215l3.15 4.215z"/><path d="m49.338643 796.44696v5.25h2.1c1.545 0 2.722499-1.1325 2.722499-2.625s-1.169999-2.625-2.699999-2.625zm.6.5775h1.5075c1.1775 0 2.107499.8775 2.107499 2.055 0 1.17-.914999 2.0475-2.084999 2.0475h-1.53z"/></g></g><g transform="translate(34.93985 75.501251)"><path d="m63.779528 793.70068a17.716536 17.716536 0 0 1 -17.716536 17.71654 17.716536 17.716536 0 0 1 -17.716535-17.71654 17.716536 17.716536 0 0 1 17.716535-17.71653 17.716536 17.716536 0 0 1 17.716536 17.71653z" fill="#fff" stroke="#2d3538" stroke-width="1.02935"/><g><path d="m38.535873 796.50787v-6.125h-.69125v4.92625l-3.675-4.92625h-.72625v6.125h.7v-4.9175l3.675 4.9175z"/><path d="m43.032689 790.36537c-1.79375 0-3.21125 1.3475-3.21125 3.08 0 1.72375 1.4175 3.0975 3.21125 3.0975 1.785 0 3.2025-1.37375 3.2025-3.0975s-1.4175-3.08-3.2025-3.08zm0 .665c1.365 0 2.485 1.0675 2.485 2.415s-1.12 2.42375-2.485 2.42375-2.5025-1.07625-2.5025-2.42375 1.1375-2.415 2.5025-2.415z"/><path d="m47.508314 790.38287v6.125h2.45c1.8025 0 3.17625-1.32125 3.17625-3.0625s-1.365-3.0625-3.15-3.0625zm.7.67375h1.75875c1.37375 0 2.45875 1.02375 2.45875 2.3975 0 1.365-1.0675 2.38875-2.4325 2.38875h-1.785z"/><path d="m58.568861 791.05662v-.67375h-4.15625v6.125h4.27v-.665h-3.57v-2.1h3.08875v-.67375h-3.08875v-2.0125z"/></g></g><path d="m93.161111 882.6083c34.397949 38.65152 76.917629 81.1712 94.913809 85.94042" fill="none" marker-end="url(#d)" stroke="#33383a" stroke-width="1.062992"/><g><path d="m139.89119 903.75h.79625l-1.435-2.0825c.88375-.28875 1.37375-.97125 1.37375-1.98625 0-1.30375-.88375-2.05625-2.415-2.05625h-2.3275v6.125h.7v-1.93375h1.6275c.14 0 .28-.009.41125-.0175zm-3.3075-2.6075v-2.84375h1.6275c1.11125 0 1.74125.4725 1.74125 1.4 0 .95375-.63 1.44375-1.74125 1.44375z"/><path d="m143.93068 899.12125c-1.33875 0-2.28375.95375-2.28375 2.3275s.93625 2.3275 2.2925 2.3275c.77 0 1.4175-.28 1.855-.77l-.37625-.4025c-.35875.37625-.8575.5775-1.42625.5775-.8925 0-1.54875-.56875-1.67125-1.47h3.7625c.07-1.56625-.665-2.59875-2.1525-2.59zm-1.61 2.03c.105-.875.735-1.44375 1.61-1.44375.90125 0 1.49625.56 1.54 1.44375z"/><path d="m149.44223 902.88375c-.25375.1575-.49875.23625-.735.23625-.39375 0-.6125-.21-.6125-.77v-2.51125h1.46125v-.56l-1.46125.009v-1.21625h-.67375v1.21625h-.665v.55125h.665v2.63375c0 .91.49875 1.3125 1.1725 1.3125.3675-.009.7175-.13125 1.04125-.35z"/><path d="m151.3552 899.13875h-.6825v4.61125h.6825v-2.45c.0788-.91.6825-1.51375 1.65375-1.49625v-.69125c-.77875.009-1.3475.37625-1.65375 1.05z"/><path d="m154.25227 897.345c-.25375 0-.44625.20125-.44625.4725s.1925.4725.44625.4725.44625-.20125.44625-.4725-.1925-.4725-.44625-.4725zm.34125 6.405v-4.61125h-.67375v4.61125z"/><path d="m158.08107 899.12125c-1.33875 0-2.28375.95375-2.28375 2.3275s.93625 2.3275 2.2925 2.3275c.77 0 1.4175-.28 1.855-.77l-.37625-.4025c-.35875.37625-.8575.5775-1.42625.5775-.8925 0-1.54875-.56875-1.67125-1.47h3.7625c.07-1.56625-.665-2.59875-2.1525-2.59zm-1.61 2.03c.105-.875.735-1.44375 1.61-1.44375.90125 0 1.49625.56 1.54 1.44375z"/><path d="m162.99256 903.75 1.81125-4.61125h-.69125l-1.46125 3.9025-1.47-3.9025h-.72625l1.82875 4.61125z"/><path d="m167.27541 899.12125c-1.33875 0-2.28375.95375-2.28375 2.3275s.93625 2.3275 2.2925 2.3275c.77 0 1.4175-.28 1.855-.77l-.37625-.4025c-.35875.37625-.8575.5775-1.42625.5775-.8925 0-1.54875-.56875-1.67125-1.47h3.7625c.07-1.56625-.665-2.59875-2.1525-2.59zm-1.61 2.03c.105-.875.735-1.44375 1.61-1.44375.90125 0 1.49625.56 1.54 1.44375z"/><path d="m147.68922 912.5h.665l-.009-3.045c-.009-.98875-.63875-1.5925-1.77625-1.5925-.7875 0-1.28625.2275-1.88125.62125l.28875.49875c.48125-.3325.95375-.525 1.46125-.525.81375 0 1.23375.4025 1.23375 1.07625v.27125h-1.51375c-1.085.009-1.72375.51625-1.72375 1.32125 0 .79625.6125 1.40875 1.56625 1.40875.735 0 1.32125-.245 1.68875-.74375zm-1.5575-.56c-.6475 0-1.05875-.3325-1.05875-.84s.4025-.74375 1.1725-.74375h1.435v.55125c-.175.63875-.77 1.0325-1.54875 1.0325z"/><path d="m152.33697 907.8625c-.84.009-1.46125.34125-1.785 1.04125v-1.015h-.6825v4.61125h.6825v-2.47625c.0787-.875.63875-1.47 1.54875-1.47875.81375 0 1.30375.48125 1.30375 1.295v2.66h.6825v-2.84375c0-1.11125-.6475-1.79375-1.75-1.79375z"/><path d="m159.84666 906.0075h-.6825v2.87875c-.34125-.65625-.98-1.0325-1.8025-1.0325-1.30375 0-2.21375.95375-2.21375 2.33625 0 1.37375.91 2.345 2.2225 2.345.8225 0 1.4525-.37625 1.79375-1.02375v.98875h.6825zm-2.345 5.915c-.98 0-1.67125-.7175-1.67125-1.715 0-1.00625.69125-1.7325 1.67125-1.7325.97125 0 1.6625.72625 1.6625 1.7325 0 .9975-.69125 1.715-1.6625 1.715z"/><path d="m135.12319 915.125v6.125h.7v-1.93375h1.60125c1.51375 0 2.38875-.77875 2.38875-2.135 0-1.30375-.875-2.05625-2.38875-2.05625zm.7.67375h1.575c1.1025 0 1.74125.4725 1.74125 1.4 0 .95375-.63875 1.44375-1.74125 1.44375h-1.575z"/><path d="m143.75001 921.25h.665l-.009-3.045c-.009-.98875-.63875-1.5925-1.77625-1.5925-.7875 0-1.28625.2275-1.88125.62125l.28875.49875c.48125-.3325.95375-.525 1.46125-.525.81375 0 1.23375.4025 1.23375 1.07625v.27125h-1.51375c-1.085.009-1.72375.51625-1.72375 1.32125 0 .79625.6125 1.40875 1.56625 1.40875.735 0 1.32125-.245 1.68875-.74375zm-1.5575-.56c-.6475 0-1.05875-.3325-1.05875-.84s.4025-.74375 1.1725-.74375h1.435v.55125c-.175.63875-.77 1.0325-1.54875 1.0325z"/><path d="m147.75026 916.62125c-1.33 0-2.28375.95375-2.28375 2.3275s.945 2.3275 2.28375 2.3275c.79625 0 1.435-.2975 1.84625-.79625l-.39375-.42c-.32375.385-.8225.595-1.42625.595-.95375 0-1.63625-.7-1.63625-1.70625s.6825-1.6975 1.63625-1.6975c.56 0 1.02375.20125 1.37375.53375l.37625-.48125c-.42-.4375-1.0325-.69125-1.77625-.6825z"/><path d="m152.53255 918.9225 1.575 2.3275h.81375l-1.9075-2.82625 1.72375-1.785h-.805l-2.37125 2.3625v-4.24375h-.6825v6.4925h.6825v-1.32125z"/><path d="m158.46437 921.25h.665l-.009-3.045c-.009-.98875-.63875-1.5925-1.77625-1.5925-.7875 0-1.28625.2275-1.88125.62125l.28875.49875c.48125-.3325.95375-.525 1.46125-.525.81375 0 1.23375.4025 1.23375 1.07625v.27125h-1.51375c-1.085.009-1.72375.51625-1.72375 1.32125 0 .79625.6125 1.40875 1.56625 1.40875.735 0 1.32125-.245 1.68875-.74375zm-1.5575-.56c-.6475 0-1.05875-.3325-1.05875-.84s.4025-.74375 1.1725-.74375h1.435v.55125c-.175.63875-.77 1.0325-1.54875 1.0325z"/><path d="m164.66087 916.63875h-.6825v.93625c-.3325-.6125-.9275-.9625-1.715-.9625-1.23375.009-2.0825.91875-2.0825 2.205 0 1.3125.8575 2.23125 2.1 2.23125.77875 0 1.37375-.35 1.6975-.9625v.7c0 .9625-.65625 1.575-1.6625 1.575-.6125-.009-1.09375-.21-1.54875-.58625l-.315.525c.56.42 1.16375.65625 1.89.665 1.4 0 2.31875-.84875 2.31875-2.19625zm-2.2575 3.8325c-.9275 0-1.575-.6825-1.58375-1.6275.009-.95375.65625-1.63625 1.58375-1.63625.91875 0 1.575.67375 1.575 1.63625 0 .945-.65625 1.6275-1.575 1.6275z"/><path d="m168.03591 916.62125c-1.33875 0-2.28375.95375-2.28375 2.3275s.93625 2.3275 2.2925 2.3275c.77 0 1.4175-.28 1.855-.77l-.37625-.4025c-.35875.37625-.8575.5775-1.42625.5775-.8925 0-1.54875-.56875-1.67125-1.47h3.7625c.07-1.56625-.665-2.59875-2.1525-2.59zm-1.61 2.03c.105-.875.735-1.44375 1.61-1.44375.90125 0 1.49625.56 1.54 1.44375z"/></g><path d="m259.16409 981.2124a2.8741407 2.8741407 0 0 1 -2.87414 2.87414 2.8741407 2.8741407 0 0 1 -2.87414-2.87414 2.8741407 2.8741407 0 0 1 2.87414-2.87414 2.8741407 2.8741407 0 0 1 2.87414 2.87414z" fill="#e61e6d"/><g><path d="m263.1151 977.42137v-.5775h-4.0275v.5775h1.71v4.6725h.6v-4.6725z"/><path d="m268.35455 982.09387v-5.25h-.6v2.37h-3.165v-2.37h-.6v5.25h.6v-2.31h3.165v2.31z"/><path d="m273.51396 977.42137v-.5775h-3.5625v5.25h3.66v-.57h-3.06v-1.8h2.6475v-.5775h-2.6475v-1.725z"/><path d="m280.13939 982.09387v-5.25h-.735l-1.9125 3.78-1.92-3.78h-.7425v5.25h.57v-4.3275l1.905 3.7725h.36l1.9125-3.7725.007 4.3275z"/><path d="m285.30596 977.42137v-.5775h-3.5625v5.25h3.66v-.57h-3.06v-1.8h2.6475v-.5775h-2.6475v-1.725z"/><path d="m288.18139 976.82137c-1.0875 0-1.815.5325-1.815 1.3575 0 1.8825 2.955 1.1475 2.9475 2.5275 0 .5025-.4725.81-1.23.81-.5925 0-1.26-.27-1.7475-.7425l-.27.54c.495.4725 1.245.8025 2.01.8025 1.125 0 1.8975-.5625 1.8975-1.44.007-1.905-2.9475-1.2-2.9475-2.55 0-.4425.4425-.6975 1.1175-.6975.42 0 .975.1275 1.4475.4425l.255-.5625c-.435-.2925-1.0575-.4875-1.665-.4875z"/></g><path d="m100.71308 873.7843a2.8741407 2.8741407 0 0 1 -2.874137 2.87414 2.8741407 2.8741407 0 0 1 -2.87414-2.87414 2.8741407 2.8741407 0 0 1 2.87414-2.87414 2.8741407 2.8741407 0 0 1 2.874137 2.87414z" fill="#e61e6d"/><g><path d="m107.03483 877.79785 1.4625-3.9525h-.6075l-1.155 3.345-1.1625-3.345h-.615l-1.1475 3.345-1.17-3.345h-.615l1.4775 3.9525h.6075l1.155-3.21 1.1625 3.21z"/><path d="m110.61011 873.83035c-1.1475 0-1.9575.8175-1.9575 1.995s.8025 1.995 1.965 1.995c.66 0 1.215-.24 1.59-.66l-.3225-.345c-.3075.3225-.735.495-1.2225.495-.765 0-1.3275-.4875-1.4325-1.26h3.225c.06-1.3425-.57-2.2275-1.845-2.22zm-1.38 1.74c.09-.75.63-1.2375 1.38-1.2375.7725 0 1.2825.48 1.32 1.2375z"/><path d="m115.60429 873.82285c-.69 0-1.23.3225-1.5225.8775v-2.4675h-.585v5.565h.585v-.8475c.2925.5475.8325.87 1.5375.87 1.1175 0 1.8825-.8175 1.8825-1.9875 0-1.185-.78-2.01-1.8975-2.01zm-.105 3.465c-.8325 0-1.4175-.6075-1.4175-1.47 0-.855.585-1.47 1.4175-1.47.825 0 1.41.6225 1.41 1.47 0 .855-.585 1.47-1.41 1.47z"/><path d="m120.67265 873.82285c-.69 0-1.23.3225-1.5225.8775v-.855h-.585v5.4075h.585v-2.3025c.2925.5475.8325.87 1.5375.87 1.1175 0 1.8825-.8175 1.8825-1.9875 0-1.185-.78-2.01-1.8975-2.01zm-.105 3.465c-.8325 0-1.4175-.6075-1.4175-1.47 0-.855.585-1.47 1.4175-1.47.825 0 1.41.6225 1.41 1.47 0 .855-.585 1.47-1.41 1.47z"/><path d="m126.04851 877.79785h.57l-.008-2.61c-.007-.8475-.5475-1.365-1.5225-1.365-.675 0-1.1025.195-1.6125.5325l.2475.4275c.4125-.285.8175-.45 1.2525-.45.6975 0 1.0575.345 1.0575.9225v.2325h-1.2975c-.93.008-1.4775.4425-1.4775 1.1325 0 .6825.525 1.2075 1.3425 1.2075.63 0 1.1325-.21 1.4475-.6375zm-1.335-.48c-.555 0-.9075-.285-.9075-.72s.345-.6375 1.005-.6375h1.23v.4725c-.15.5475-.66.885-1.3275.885z"/><path d="m129.4773 873.83035c-1.14 0-1.9575.8175-1.9575 1.995s.81 1.995 1.9575 1.995c.6825 0 1.23-.255 1.5825-.6825l-.3375-.36c-.2775.33-.705.51-1.2225.51-.8175 0-1.4025-.6-1.4025-1.4625s.585-1.455 1.4025-1.455c.48 0 .8775.1725 1.1775.4575l.3225-.4125c-.36-.375-.885-.5925-1.5225-.585z"/><path d="m133.5764 875.80285 1.35 1.995h.6975l-1.635-2.4225 1.4775-1.53h-.69l-2.0325 2.025v-3.6375h-.585v5.565h.585v-1.1325z"/></g><path d="m99.974986 861.02362a2.8741407 2.8741407 0 0 1 -2.874141 2.87414 2.8741407 2.8741407 0 0 1 -2.87414-2.87414 2.8741407 2.8741407 0 0 1 2.87414-2.87414 2.8741407 2.8741407 0 0 1 2.874141 2.87414z" fill="#ff3849"/><g><path d="m103.80018 857.77463c-.72.008-1.2525.2925-1.53.8925v-.87h-.585v3.9525h.585v-2.1225c.0675-.75.5475-1.26 1.3275-1.2675.6975 0 1.1175.4125 1.1175 1.11v2.28h.585v-2.4375c0-.9525-.555-1.5375-1.5-1.5375z"/><path d="m108.75205 857.77463c-.69 0-1.23.3225-1.5225.8775v-.855h-.585v5.4075h.585v-2.3025c.2925.5475.8325.87 1.5375.87 1.1175 0 1.8825-.8175 1.8825-1.9875 0-1.185-.78-2.01-1.8975-2.01zm-.105 3.465c-.8325 0-1.4175-.6075-1.4175-1.47 0-.855.585-1.47 1.4175-1.47.825 0 1.41.6225 1.41 1.47 0 .855-.585 1.47-1.41 1.47z"/><path d="m116.73791 857.77463c-.7575.008-1.3125.3375-1.56 1.035-.165-.6525-.675-1.035-1.4175-1.035-.7125.008-1.245.3-1.5075.915v-.8925h-.5775v3.9525h.5775v-1.9425c0-.8475.4875-1.4325 1.2975-1.455.69 0 1.095.4125 1.095 1.1175v2.28h.5925v-1.9425c0-.8475.4725-1.4325 1.29-1.455.6825 0 1.095.4125 1.095 1.1175v2.28h.585v-2.4375c0-.9525-.5475-1.5375-1.47-1.5375z"/></g></g></svg>