<svg width="320" height="180" viewBox="0 0 320 180" fill="none" xmlns="http://www.w3.org/2000/svg">
<path d="M191.6 117.059C168.597 117.059 151.403 79.1888 128.4 79.1888C105.397 79.1889 93.7794 38 65.2 38C36.6206 38 2 178 2 178H318C318 178 273.156 98.9412 251.779 98.9412C230.403 98.9412 214.603 117.059 191.6 117.059Z" fill="url(#paint0_linear)"/>
<path d="M2 178C2 178 36.6206 38 65.2 38C93.7794 38 105.397 79.1888 128.4 79.1888C151.403 79.1888 168.597 117.059 191.6 117.059C214.603 117.059 230.403 98.9412 251.779 98.9412C273.156 98.9412 318 178 318 178" stroke="currentColor" stroke-width="4" stroke-linecap="round"/>
<path d="M191.6 154.755C168.597 154.755 151.403 2 128.4 2C105.397 2 93.7794 99.9623 65.2 99.9623C36.6206 99.9623 2 178 2 178H318C318 178 273.156 129.849 251.779 129.849C230.403 129.849 214.603 154.755 191.6 154.755Z" fill="url(#paint1_linear)"/>
<path d="M2 178C2 178 36.6206 99.9624 65.2 99.9624C93.7794 99.9623 105.397 2 128.4 2C151.403 2 168.597 154.755 191.6 154.755C214.603 154.755 230.403 129.849 251.779 129.849C273.156 129.849 318 178 318 178" stroke="#FF3A49" stroke-width="4" stroke-linecap="round"/>
<path d="M191.6 91C168.597 91 151.403 115.167 128.4 115.167C105.397 115.167 93.7794 136.111 65.2 136.111C36.6206 136.111 2 178 2 178H318C318 178 273.156 157.056 251.779 157.056C230.403 157.056 214.603 91 191.6 91Z" fill="url(#paint2_linear)"/>
<path d="M2 178C2 178 36.6206 136.111 65.2 136.111C93.7794 136.111 105.397 115.167 128.4 115.167C151.403 115.167 168.597 91 191.6 91C214.603 91 230.403 157.056 251.779 157.056C273.156 157.056 318 178 318 178" stroke="#0096EA" stroke-width="4" stroke-linecap="round"/>
<defs>
<linearGradient id="paint0_linear" x1="160" y1="38" x2="160" y2="108" gradientUnits="userSpaceOnUse">
<stop stop-color="currentColor" stop-opacity="0.25"/>
<stop offset="1" stop-color="currentColor" stop-opacity="0"/>
</linearGradient>
<linearGradient id="paint1_linear" x1="160" y1="2" x2="160" y2="103" gradientUnits="userSpaceOnUse">
<stop stop-color="#FF3A49" stop-opacity="0.25"/>
<stop offset="1" stop-color="#FF3A49" stop-opacity="0"/>
</linearGradient>
<linearGradient id="paint2_linear" x1="160" y1="91" x2="160" y2="165" gradientUnits="userSpaceOnUse">
<stop stop-color="#00D6EA" stop-opacity="0.25"/>
<stop offset="1" stop-color="#0096EA" stop-opacity="0"/>
</linearGradient>
</defs>
</svg>
